<?xml version="1.0" encoding="UTF-8"?>
<!DOCTYPE svg PUBLIC "-//W3C//DTD SVG 1.1//EN" "http://www.w3.org/Graphics/SVG/1.1/DTD/svg11.dtd">
<!-- Creator: CorelDRAW X8 -->
<svg xmlns="http://www.w3.org/2000/svg" xml:space="preserve" width="503px" height="502px" version="1.1" style="shape-rendering:geometricPrecision; text-rendering:geometricPrecision; image-rendering:optimizeQuality; fill-rule:evenodd; clip-rule:evenodd"
viewBox="0 0 3474028 3467393"
 xmlns:xlink="http://www.w3.org/1999/xlink">
 <defs>
  <style type="text/css">
   <![CDATA[
    .str0 {stroke:black;stroke-width:61209.5}
    .fil0 {fill:#DEF2F7}
    .fil1 {fill:#F05C4F;fill-rule:nonzero}
   ]]>
  </style>
 </defs>
 <g id="Слой_x0020_1">
  <metadata id="CorelCorpID_0Corel-Layer"/>
  <path class="fil0 str0" d="M75565 2759257c-2187,-209671 -94581,-2357184 -8031,-2468284 106766,-137060 77704,-232318 578642,-237549 500938,-5232 1580542,-16511 1783513,-18624 202970,-2114 671476,-36914 806291,136750 134824,173663 166808,464759 171974,961363 1820,175549 131813,1800872 -117163,2116550 -252362,319970 -549652,131461 -1253553,138798 -703900,7337 -1265264,13213 -1440283,15042 -489194,5109 -516722,-197079 -521390,-644046z"/>
  <path class="fil1" d="M1717407 906814c0,-24468 -19571,-41590 -48927,-41590 -51375,0 -90517,107639 -298457,340047 -139452,156566 -269110,300906 -376749,305803 -31804,0 -48926,-4897 -48926,-29365 0,-12225 4888,-31796 12233,-51367 2441,-7345 2441,-12233 2441,-19570 0,-19579 -9786,-39150 -26908,-46487 -7337,-2448 -14682,-4888 -22019,-4888 -22019,0 -41590,12225 -51375,34244 -12226,31805 -17123,63609 -17123,92965 0,70946 53824,127210 154126,127210 163902,-4889 342495,-203044 503957,-406096l-506406 1335729c-12233,31804 12234,70945 46479,70945 22019,0 44038,-12233 51375,-34252l601811 -1587708c14682,-39142 24468,-68498 24468,-85620z"/>
  <path id="1" class="fil1" d="M2886776 884795c-12225,-24468 -44030,-34253 -68497,-22019 -110087,56263 -215278,85620 -335150,85620 -88077,0 -212838,-19571 -293569,-46479 -66057,-22019 -83180,-29356 -122321,85628l-198155 560222 -9786 26907c-19579,53824 -26916,75843 17123,97862 31804,17122 46478,4889 73394,-17131 9785,-7336 22011,-17122 36693,-26907 100302,-73394 273998,-149229 396319,-144340 117424,0 168799,78283 168799,215286 0,159014 -68497,354729 -178593,516191 -134546,193259 -278886,281335 -457471,291120 -139443,0 -244642,-66057 -244642,-220174 0,-73394 24468,-161462 70946,-256876 12234,-24467 2448,-56263 -24459,-68497 -24468,-12234 -56272,-2448 -70946,26908 -51375,105198 -78291,207940 -78291,296017 0,210389 137003,325365 347392,325365 212837,-9786 386534,-110088 540651,-335151 124769,-178593 198163,-398767 200604,-574903 0,-181033 -78283,-318036 -271550,-318036 -134547,0 -264204,46486 -388974,117432l168800 -477050c4896,-9786 12233,-12234 24467,-9786 102750,24468 193267,39142 293569,39142 136995,0 256867,-31805 381636,-95405 24460,-12234 34245,-44038 22011,-70946z"/>
 </g>
</svg>
