<?xml version="1.0" encoding="UTF-8"?>
<!DOCTYPE svg PUBLIC "-//W3C//DTD SVG 1.1//EN" "http://www.w3.org/Graphics/SVG/1.1/DTD/svg11.dtd">
<!-- Creator: CorelDRAW X8 -->
<svg xmlns="http://www.w3.org/2000/svg" xml:space="preserve" width="499px" height="499px" version="1.1" style="shape-rendering:geometricPrecision; text-rendering:geometricPrecision; image-rendering:optimizeQuality; fill-rule:evenodd; clip-rule:evenodd"
viewBox="0 0 3400815 3398062"
 xmlns:xlink="http://www.w3.org/1999/xlink">
 <defs>
  <style type="text/css">
   <![CDATA[
    .str0 {stroke:black;stroke-width:60361.2}
    .fil2 {fill:black}
    .fil0 {fill:#E94F42}
    .fil3 {fill:#FEFEFE;fill-rule:nonzero}
    .fil1 {fill:#F05C4F;fill-rule:nonzero}
   ]]>
  </style>
 </defs>
 <g id="Слой_x0020_1">
  <metadata id="CorelCorpID_0Corel-Layer"/>
  <path class="fil0 str0" d="M131072 160995c0,0 113681,-95885 539565,-95885 425885,0 1722580,0 1869620,0 147040,0 430360,-89198 564410,17496 134050,106695 228286,79017 228286,573037 0,494021 0,1558728 0,1758894 0,200166 115314,674098 -57327,805251 -172641,131152 -545827,148094 -1035589,148094 -489763,0 -1086003,-131402 -1401153,-93069 -315150,38333 -604143,100554 -676931,23975 -72787,-76578 -131772,-407269 -131772,-1101455 0,-694186 0,-1452122 0,-1624722 0,-172601 100891,-411616 100891,-411616z"/>
  <path class="fil1" d="M1692746 879181c0,-24128 -19300,-41013 -48249,-41013 -50663,0 -89262,106147 -294321,335334 -137519,154396 -265380,296736 -371528,301565 -31363,0 -48248,-4829 -48248,-28957 0,-12056 4820,-31356 12064,-50655 2406,-7244 2406,-12065 2406,-19300 0,-19307 -9650,-38607 -26535,-45842 -7235,-2415 -14478,-4821 -21714,-4821 -21713,0 -41013,12056 -50663,33770 -12056,31364 -16885,62727 -16885,91677 0,69962 53078,125446 151990,125446 161631,-4821 337749,-200230 496974,-400468l-499389 1317218c-12064,31364 12065,69963 45835,69963 21714,0 43428,-12064 50663,-33778l593471 -1565706c14479,-38599 24129,-67548 24129,-84433z"/>
  <path id="1" class="fil1" d="M2512990 879181c0,-24128 -19299,-41013 -48249,-41013 -50663,0 -89262,106147 -294321,335334 -137519,154396 -265380,296736 -371527,301565 -31364,0 -48249,-4829 -48249,-28957 0,-12056 4821,-31356 12064,-50655 2407,-7244 2407,-12065 2407,-19300 0,-19307 -9650,-38607 -26535,-45842 -7235,-2415 -14479,-4821 -21714,-4821 -21714,0 -41013,12056 -50663,33770 -12056,31364 -16885,62727 -16885,91677 0,69962 53077,125446 151989,125446 161631,-4821 337749,-200230 496974,-400468l-499388 1317218c-12064,31364 12064,69963 45834,69963 21714,0 43428,-12064 50663,-33778l593472 -1565706c14478,-38599 24128,-67548 24128,-84433z"/>
  <g id="_700930560">
   <path class="fil2" d="M290700 1784285c70783,-76232 343036,-95282 601672,-117060 258628,-21786 680609,0 838514,0 157905,0 144295,85898 672456,38108 528160,-47790 607113,-40836 588055,19058 -19058,59894 43162,232713 2527,286515 -40643,53793 -400010,119136 -609640,119136 -209631,0 -773179,-35403 -988258,-43564 -215079,-8161 -481876,-76232 -620722,-46277 -138847,29947 -351198,43556 -386594,35396 -35396,-8169 -98010,-291312 -98010,-291312z"/>
   <path class="fil3" d="M517424 511871c0,-45472 6785,-73890 21948,-96626 4732,-7581 11364,-14213 17995,-19895 8523,-5682 17054,-1891 20845,8531 1891,4732 2841,10414 4732,15155 5682,10422 16105,15154 26527,12474 9473,-2841 16105,-12313 15155,-23686 -3783,-22736 -11364,-43580 -31259,-54156 -20684,-11372 -40579,-11372 -60627,2841 -22736,15155 -36949,38688 -46422,66156 -17207,52104 -17207,104208 -2213,156312 8531,29367 22583,54944 46261,74051 25585,19895 59685,17995 81471,-4580 21795,-21786 28579,-50204 29529,-80521 0,-11373 -8523,-19896 -18004,-21787 -9472,-950 -18945,3783 -22736,13103 -1891,5682 -2841,11364 -4732,17995 -2841,9473 -3791,19895 -8523,29368 -7581,14213 -19895,17054 -31267,6632 -9473,-8523 -17996,-18946 -23686,-31259 -11364,-23686 -14994,-50213 -14994,-70108z"/>
   <path id="1" class="fil3" d="M787327 589560c2841,7573 5691,13255 7582,18945 5529,17996 11211,35050 16893,52104 5682,14205 16104,18946 28418,16105 12322,-3791 18004,-14053 13263,-28427 -10261,-29367 -20683,-57785 -32047,-87153 -2841,-6632 -1900,-11364 2841,-17054 8684,-10414 16265,-21787 23838,-33151 3791,-4740 5682,-9319 7582,-14052 3790,-10422 0,-19895 -9473,-24788 -9473,-5690 -19895,-3791 -27477,4732 -1891,1900 -2841,4741 -4732,6632 -12314,17054 -25577,35050 -37899,52104 -2052,1899 -4893,3791 -9625,8523 153,-10414 153,-17996 153,-25577 0,-11364 949,-22736 -942,-33151 -950,-11372 -10422,-18164 -20845,-18164 -10422,0 -19895,7581 -21786,18003 -950,3791 0,8523 0,12314 -950,36000 -1111,71049 -1111,106107 0,17046 -153,35050 1739,52104 1899,13255 12313,20837 24635,18945 11364,-949 18945,-9320 18945,-22583 0,-8523 -949,-17046 -1738,-25577 -1891,-17207 7581,-26527 21786,-36941z"/>
   <path id="2" class="fil3" d="M986342 585769c-949,0 -1891,-949 -2841,-949 950,-20845 1892,-41682 2053,-63476 949,-14205 1899,-28418 949,-42623 0,-10423 -8531,-17054 -18945,-18165 -10422,-942 -19895,4740 -22736,16112 -950,3783 -950,8523 -1899,13256 -950,39790 -3002,78630 -3944,118420 -950,12314 -161,25577 1738,38841 3783,19895 22736,28418 40732,18156 6632,-3790 12314,-9472 17054,-16104 11364,-17996 21948,-35999 32370,-53995 3783,-5682 6624,-11372 9473,-17054 3782,13263 3782,25577 3782,36949 -153,13263 -153,25577 -153,37891 0,13263 6632,21786 17996,22736 11372,2052 22736,-5529 25577,-17843 950,-4732 950,-9473 950,-13263 1102,-37891 1102,-75782 2213,-113681 0,-8523 0,-17054 0,-25577 0,-11364 -5682,-20844 -17054,-24627 -10422,-4901 -19895,-161 -27477,8362 -8523,10422 -17995,21794 -25577,34108 -12466,20837 -22889,41682 -34261,62526z"/>
   <path id="3" class="fil3" d="M1330144 629503c-950,-2841 -797,-5682 -797,-7581 950,-26527 950,-52104 950,-77681 161,-13264 161,-26527 -2680,-39790 -8531,-37891 -49263,-51315 -80530,-28579 -18946,14213 -29368,33158 -32209,56844 -1103,10422 -2052,20845 -2994,30317 -950,24467 -2849,48152 -3952,72788 -4732,1891 -9472,1891 -13263,3782 -20837,6632 -26527,13264 -24627,34109 941,12313 6631,18945 16104,20844 9473,1892 16104,-1899 21786,-13263 1892,-4740 4741,-7581 9473,-7420 2841,-950 6632,-950 10422,-950 26527,-950 53054,-1900 79581,-1739 3782,0 7573,2841 9472,4741 6632,6632 14205,8523 21787,4732 7581,-2841 12313,-9473 13263,-17996 1891,-17054 -2841,-25577 -21786,-33158zm-39790 1738c-14213,942 -28426,942 -42631,1892 -950,-6632 -789,-11364 -789,-16105 1891,-27468 3790,-53995 5682,-81471 1102,-13264 8684,-23686 20056,-30318 8523,-4732 15155,-1891 17996,7582 1891,6631 1891,14213 1891,20845 -153,30309 -1103,61576 -1264,91885 0,1900 -941,3791 -941,5690z"/>
   <path id="4" class="fil3" d="M1496153 589560c2841,7573 5690,13255 7582,18945 5529,17996 11211,35050 16893,52104 5682,14205 16104,18946 28418,16105 12321,-3791 18003,-14053 13263,-28427 -10261,-29367 -20684,-57785 -32048,-87153 -2841,-6632 -1899,-11364 2841,-17054 8684,-10414 16266,-21787 23839,-33151 3791,-4740 5682,-9319 7581,-14052 3791,-10422 0,-19895 -9472,-24788 -9473,-5690 -19895,-3791 -27477,4732 -1891,1900 -2841,4741 -4732,6632 -12314,17054 -25577,35050 -37899,52104 -2052,1899 -4893,3791 -9626,8523 153,-10414 153,-17996 153,-25577 0,-11364 950,-22736 -941,-33151 -950,-11372 -10423,-18164 -20845,-18164 -10422,0 -19895,7581 -21786,18003 -950,3791 0,8523 0,12314 -950,36000 -1111,71049 -1111,106107 0,17046 -153,35050 1738,52104 1900,13255 12314,20837 24636,18945 11364,-949 18945,-9320 18945,-22583 0,-8523 -949,-17046 -1738,-25577 -1892,-17207 7581,-26527 21786,-36941z"/>
   <path id="5" class="fil3" d="M1772849 593343c950,8531 950,13263 950,17054 788,15154 1738,29367 3629,44522 950,12322 9473,19106 19895,19106 12314,950 20845,-6631 22736,-18945 0,-7581 -949,-15155 -949,-21786 161,-21795 -789,-43581 -789,-65367 0,-13264 950,-27477 161,-40740 0,-7574 -3791,-16105 -7581,-21787 -5682,-7581 -13264,-12313 -19895,-18945 -13264,-11372 -27469,-17215 -45473,-16265 -21786,949 -40731,8531 -56836,23685 -37898,32998 -46582,76579 -38051,123942 5529,34108 38679,48313 67105,30470 10415,-6623 18946,-14205 26519,-21786 9634,-9473 17215,-19895 28579,-33158zm-78631 15162c-3782,-30317 -2841,-58735 21948,-80530 6631,-5682 16104,-10414 24635,-13255 9473,-3791 17996,0 24628,9473 -20048,30309 -38994,63468 -71211,84312z"/>
   <path id="6" class="fil3" d="M2179329 619877c0,-1891 950,-4732 1892,-7573 2841,-9481 1899,-18004 -6632,-24635 -8523,-6785 -18945,-7735 -29368,-3002 -8523,3790 -15154,10422 -14205,20844 789,33159 17843,62527 56683,68370 35050,4732 63468,-8531 86204,-35847 32370,-39782 24789,-96626 -16732,-127096 -2841,-1900 -6631,-3791 -9472,-6632 3782,-5690 7573,-9473 10414,-14213 15163,-20684 26527,-42470 23847,-69947 -3791,-27468 -27477,-45625 -54004,-38051 -20836,4740 -39782,14213 -58735,22736 -5682,1738 -9473,6478 -13263,10261 -10415,11372 -10415,24635 -1103,34108 9473,8523 21786,7734 33158,-2688 13417,-13255 30471,-17046 48474,-21786 2841,17054 -4893,30317 -14374,39790 -12313,13263 -26518,23685 -40731,35049 -3791,3791 -9473,5682 -13264,9320 -7581,7574 -9472,18946 -4740,27469 4579,8531 14052,12474 24474,10583 5690,-1899 11372,-3791 17054,-4740 18004,-3791 32209,5682 40740,21786 15155,29368 -14374,71057 -49424,66317 -7581,-950 -13263,-2841 -16893,-10423z"/>
   <path id="7" class="fil3" d="M2372815 522149c1892,15154 2680,29367 4580,44522 941,9473 3782,18945 6631,28418 4733,18004 13103,35050 25416,49263 25577,28579 61577,29529 87154,2052 10422,-11211 20056,-24474 25738,-37738 18004,-35999 24627,-74840 19106,-114622 -5682,-39790 -19734,-74839 -57633,-95845 -29367,-16104 -65367,-13263 -85262,18792 -4732,8523 -8523,17054 -12313,26527 -9634,25577 -12475,52104 -13417,78631zm126944 -3638c-3002,33158 -7742,64425 -29529,91894 -12474,16104 -22736,15154 -33158,-3791 -5682,-11364 -11364,-23678 -14205,-35999 -7582,-32209 -6479,-64418 153,-96627 949,-6631 3790,-14213 6631,-20844 7735,-18946 24789,-23678 40893,-11364 7420,6631 13111,15154 17843,23685 4740,8523 6632,17996 8531,27469 1891,8531 1891,17054 2841,25577z"/>
   <path id="8" class="fil3" d="M2823029 388887c-949,-10422 -3790,-18004 -12313,-21786 -7582,-3791 -15155,-3791 -21787,1891 -4740,3791 -7581,9473 -9472,14213 -18954,35050 -37110,70888 -56056,105938 -23686,46422 -49416,92844 -74204,139105 -9481,17995 -6632,32208 6632,37890 13255,6793 23678,161 33150,-17843 11525,-23677 23847,-46413 36161,-70099 30470,-57633 60787,-114469 91258,-172255 3790,-5690 4740,-12322 6631,-17054zm-198942 55573c789,39790 29215,60635 62365,47524 16112,-6624 29368,-17046 38849,-32209 12466,-19895 10575,-44522 -4580,-62518 -3791,-4740 -8531,-8531 -13263,-12321 -16105,-14206 -32209,-15155 -49263,-2994 -22736,16104 -32209,38840 -34108,62518zm42478 5843c3944,-10423 5835,-17046 8684,-26527 5682,2849 9473,4740 13255,6632 1900,5690 -4732,13263 -21939,19895zm123781 197204c26527,949 54945,-22736 60788,-50052 2841,-16104 -950,-30309 -12314,-42784 -20684,-22736 -66156,-26527 -83363,950 -7581,13102 -13263,26366 -14213,41520 -161,29368 19734,50366 49102,50366zm-4580 -45472c950,-5682 1900,-11364 4741,-17046 1891,-4741 10422,-4741 14205,-950 4740,3791 2849,8523 -942,11364 -3791,3791 -9473,6632 -14213,9473 -950,-942 -2841,-1892 -3791,-2841z"/>
   <path id="9" class="fil3" d="M569729 934424c-8233,917 -15549,1827 -21955,1827 -8233,0 -15549,-910 -23782,-910 153,-8233 153,-14639 153,-21955 0,-11895 0,-23782 -918,-35678 -917,-10060 -8233,-17529 -17376,-18446 -9151,-910 -18301,5489 -21046,14640 -909,4571 -909,8233 -909,12804 0,35678 -153,70438 -153,106107 0,15549 -1071,31106 -153,46655 0,10061 5489,17376 13722,19211 9143,2745 19211,-917 22865,-10977 2744,-3509 2744,-8998 2744,-14487 1071,-18294 1988,-36587 1988,-55798 15549,-918 30181,-1827 46647,-2744 0,10060 0,18293 918,26526 0,11895 -153,23783 756,34760 918,11895 11895,21038 21956,19211 10977,-917 18293,-8998 18293,-20885 -756,-35677 -1674,-72264 -1674,-107942 -764,-15549 -764,-32015 -1674,-47564 -917,-10060 -9151,-15702 -18301,-16620 -9143,0 -17376,6407 -20121,16467 0,3662 0,8233 0,11895 0,14632 -917,28354 -1980,43903z"/>
   <path id="10" class="fil3" d="M811287 982906c909,8233 909,12804 909,16466 765,14632 1682,28354 3509,42994 918,11887 9151,18446 19211,18446 11887,918 20121,-6406 21956,-18293 0,-7324 -918,-14640 -918,-21038 153,-21046 -764,-42084 -764,-63122 0,-12805 917,-26527 152,-39331 0,-7316 -3653,-15549 -7315,-21038 -5489,-7324 -12805,-11895 -19211,-18294 -12805,-10977 -26527,-16619 -43903,-15710 -21046,918 -39339,8233 -54888,22873 -36587,31863 -44974,73939 -36740,119676 5336,32933 37351,46655 64795,29424 10061,-6398 18294,-13722 25610,-21038 9303,-9150 16619,-19211 27597,-32015zm-75927 14639c-3653,-29279 -2744,-56715 21191,-77753 6407,-5489 15549,-10068 23783,-12813 9150,-3653 17384,0 23782,9151 -19356,29271 -37649,61287 -68756,81415z"/>
   <path id="11" class="fil3" d="M1218411 979244c2745,7324 5489,12813 7316,18301 5336,17376 10825,33843 16314,50309 5488,13723 15549,18294 27444,15550 11887,-3662 17376,-13570 12804,-27445 -9907,-28353 -19967,-55798 -30945,-84151 -2744,-6407 -1835,-10978 2745,-16467 8386,-10060 15702,-21038 23017,-32015 3662,-4580 5489,-8998 7316,-13570 3662,-10060 0,-19211 -9143,-23935 -9150,-5489 -19211,-3662 -26526,4572 -1835,1826 -2745,4571 -4580,6406 -11887,16466 -24691,33842 -36587,50309 -1979,1827 -4724,3662 -9295,8233 145,-10060 145,-17384 145,-24700 0,-10977 917,-21955 -910,-32015 -917,-10978 -10060,-17529 -20128,-17529 -10061,0 -19203,7316 -21038,17376 -910,3662 0,8233 0,11895 -910,34760 -1063,68603 -1063,102445 0,16467 -152,33851 1674,50309 1827,12813 11896,20129 23783,18302 10977,-918 18293,-8998 18293,-21803 0,-8233 -909,-16466 -1674,-24700 -1827,-16619 7316,-25609 21038,-35677z"/>
   <path id="12" class="fil3" d="M1485586 982906c909,8233 909,12804 909,16466 765,14632 1682,28354 3509,42994 918,11887 9151,18446 19211,18446 11887,918 20121,-6406 21956,-18293 0,-7324 -918,-14640 -918,-21038 153,-21046 -764,-42084 -764,-63122 0,-12805 917,-26527 153,-39331 0,-7316 -3654,-15549 -7316,-21038 -5489,-7324 -12805,-11895 -19211,-18294 -12805,-10977 -26527,-16619 -43903,-15710 -21046,918 -39339,8233 -54888,22873 -36587,31863 -44973,73939 -36740,119676 5336,32933 37351,46655 64796,29424 10060,-6398 18293,-13722 25609,-21038 9303,-9150 16619,-19211 27597,-32015zm-75926 14639c-3654,-29279 -2745,-56715 21190,-77753 6407,-5489 15549,-10068 23783,-12813 9150,-3653 17384,0 23782,9151 -19356,29271 -37649,61287 -68755,81415z"/>
   <path id="13" class="fil3" d="M1707168 900581c0,5489 917,10978 917,15549 -1070,26527 -1979,53971 -2897,80498 0,12805 -1070,26527 -1070,40249 917,12804 8233,20120 19211,21038 10977,0 19211,-7163 21038,-19976 0,-1827 0,-3654 0,-6398 1070,-38422 2897,-76836 3967,-115258 0,-10060 -917,-20128 -2744,-29271 -3662,-18293 -14640,-27597 -32933,-27597 -13722,0 -28354,-910 -42076,917 -9151,0 -19211,2745 -27444,5336 -13722,5489 -21956,16467 -23783,31098 -917,8234 -1827,16467 -2744,24700 -1062,25609 -1062,51227 -1980,76836 -917,13722 -1070,28362 -1070,42084 0,10969 7324,19203 17384,21038 10060,909 18293,-5489 21038,-16467 1827,-3509 1827,-8080 1827,-11742 1070,-28354 1070,-55798 1987,-83242 910,-15549 1980,-31098 2890,-46647 16466,-4580 32015,-3662 48482,-2745z"/>
   <path id="14" class="fil3" d="M1891712 1057915c-9151,21038 -18293,44820 -34913,63878 -6406,8233 -12804,15549 -18293,23782 -6406,10978 -3662,22873 5489,29271 9142,7324 21038,5489 29271,-4418 18293,-22873 35677,-45738 47717,-73182 24700,-53971 42229,-110525 59613,-167241 1980,-5489 2897,-10977 1980,-16466 0,-9151 -6406,-16467 -13722,-18294 -8233,-2744 -15549,-917 -21038,5336 -3662,3654 -5489,8233 -7316,12805 -9303,29271 -17537,58542 -26679,86904 -918,4571 -3662,8225 -5489,12804 -15549,-11895 -24700,-26526 -30189,-42993 -6398,-18293 -9143,-36595 -8080,-55798 917,-10977 -5489,-19364 -15549,-21191 -9151,-1834 -19211,2745 -23783,11888 -1827,3662 -2744,8233 -2744,12804 -153,35678 5336,70438 27138,99709 10061,13722 23783,25762 36587,40402z"/>
   <path id="15" class="fil3" d="M2155378 957305c-4571,1827 -6398,1827 -8233,2744 -22865,3646 -32016,-925 -36587,-20136 -2745,-10061 -3509,-20121 -4419,-31099 -917,-10977 0,-21955 -1835,-32933 -909,-10977 -10060,-17529 -21947,-16619 -10068,0 -19211,7324 -19211,17384 -917,24700 -917,50309 6254,75009 10060,31098 32015,44820 71347,44064 4571,0 9142,0 14631,0 0,12804 -153,24699 -153,35677 0,4571 0,9143 918,13722 2744,10060 10060,14632 21038,14632 10977,0 18293,-5336 20128,-14479 909,-3662 909,-7324 909,-10978 153,-31106 153,-62204 153,-92393 153,-21947 153,-43902 -756,-65858 0,-11895 -8233,-18293 -20129,-18446 -11887,0 -21038,7316 -21955,18293 -2744,26527 2591,54889 -153,81416z"/>
   <path id="16" class="fil3" d="M2325589 975598c-918,0 -1827,-917 -2745,-917 918,-20121 1827,-40249 1980,-61287 918,-13722 1827,-27444 918,-41166 0,-10061 -8234,-16459 -18294,-17529 -10068,-918 -19211,4571 -21955,15549 -918,3662 -918,8233 -1835,12804 -910,38422 -2890,75927 -3807,114349 -918,11887 -153,24691 1674,37504 3662,19203 21955,27436 39339,17529 6399,-3662 11887,-9151 16459,-15549 10978,-17384 21199,-34760 31259,-52144 3654,-5489 6398,-10978 9143,-16467 3662,12813 3662,24700 3662,35678 -153,12804 -153,24700 -153,36587 0,12812 6406,21046 17384,21955 10969,1988 21947,-5336 24691,-17223 918,-4579 918,-9151 918,-12813 1070,-36587 1070,-73174 2133,-109760 0,-8234 0,-16467 0,-24700 0,-10978 -5489,-20129 -16467,-23783 -10060,-4732 -19211,-152 -26527,8081 -8233,10060 -17376,21038 -24699,32925 -12040,20128 -22101,40249 -33078,60377z"/>
   <path id="17" class="fil3" d="M2593673 934432c-8233,917 -15549,1827 -21956,1827 -8233,0 -15549,-910 -23782,-910 153,-8233 153,-14639 153,-21955 0,-11895 0,-23782 -917,-35678 -918,-10060 -8234,-17529 -17376,-18446 -9151,-909 -18302,5489 -21046,14640 -910,4571 -910,8233 -910,12804 0,35678 -153,70438 -153,106107 0,15549 -1070,31106 -153,46655 0,10061 5489,17376 13723,19211 9142,2745 19210,-917 22864,-10977 2745,-3509 2745,-8998 2745,-14487 1070,-18294 1988,-36587 1988,-55798 15549,-917 30180,-1827 46647,-2744 0,10060 0,18293 917,26526 0,11896 -153,23783 757,34760 917,11896 11895,21038 21955,19211 10978,-917 18294,-8998 18294,-20885 -757,-35677 -1674,-72264 -1674,-107942 -765,-15549 -765,-32015 -1674,-47564 -918,-10060 -9151,-15702 -18302,-16620 -9143,0 -17376,6407 -20120,16467 0,3662 0,8233 0,11895 0,14632 -918,28354 -1980,43903z"/>
   <path id="18" class="fil3" d="M2719973 999228c3654,13722 8998,29271 19967,42993 26527,33995 74100,30333 94220,-8081 19364,-38269 21191,-78517 11283,-119676 -6406,-24700 -22864,-41319 -47564,-47725 -7324,-1827 -15549,-1827 -22873,917 -23782,7316 -41158,23630 -50309,47412 -11131,26527 -11131,53971 -4724,84160zm86896 -69368c5489,27445 3662,53054 -5489,77754 -910,2744 -2745,6398 -4724,9142 -6399,9151 -16467,9151 -22865,1835 -2745,-2744 -4427,-4579 -5336,-8233 -12805,-25617 -16467,-52297 -5489,-79580 2897,-7324 9296,-14640 15702,-19211 10978,-6406 20120,-2744 25609,9143 1835,3662 1682,7323 2592,9150z"/>
   <path id="19" class="fil3" d="M558108 1302192c0,6270 1046,12548 1046,17771 -1223,30317 -2261,61681 -3308,91998 0,14640 -1223,30318 -1223,45996 1046,14639 9408,23001 21955,24048 12547,0 21956,-8194 24040,-22825 0,-2093 0,-4185 0,-7316 1223,-43911 3316,-87821 4531,-131724 0,-11501 -1046,-23002 -3130,-33456 -4185,-20909 -16733,-31533 -37642,-31533 -15678,0 -32402,-1046 -48087,1046 -10455,0 -21956,3131 -31364,6093 -15678,6277 -25086,18816 -27179,35548 -1046,9409 -2092,18817 -3139,28225 -1215,29271 -1215,58543 -2261,87814 -1046,15686 -1223,32410 -1223,48088 0,12547 8370,21955 19862,24047 11501,1047 20910,-6269 24048,-18816 2093,-4008 2093,-9239 2093,-13416 1215,-32410 1215,-63774 2261,-95138 1047,-17770 2270,-35540 3316,-53311 18817,-5231 36587,-4185 55404,-3139z"/>
   <path id="20" class="fil3" d="M702275 1414923c4176,15678 10277,33456 22824,49134 30318,38857 84675,34672 107676,-9231 22125,-43734 24217,-89737 12894,-136779 -7316,-28225 -26133,-47218 -54366,-54534 -8362,-2092 -17770,-2092 -26132,1046 -27179,8362 -47042,27002 -57496,54189 -12724,30317 -12724,61681 -5400,96175zm99314 -79274c6269,31363 4177,60635 -6278,88859 -1046,3131 -3130,7316 -5400,10455 -7316,10455 -18817,10455 -26132,2084 -3139,-3130 -5055,-5223 -6101,-9408 -14632,-29271 -18817,-59757 -6269,-90944 3307,-8370 10623,-16732 17947,-21955 12539,-7324 22994,-3139 29271,10454 2085,4177 1916,8362 2962,10455z"/>
   <path id="21" class="fil3" d="M1246137 1262467c-1915,-40772 13762,-75267 47219,-99315 11500,-8362 25086,-13593 38679,-18816 15678,-5054 23171,-14463 21078,-28056 -3131,-13585 -13585,-20909 -30317,-18986 -7316,1047 -14632,2085 -19863,5224 -51219,23001 -90075,59411 -101576,115869 -5400,27179 -6447,55404 -6447,82582 870,49142 5055,97230 6970,145318 1046,31363 23002,45995 53311,35718 11501,-4186 23002,-10455 33456,-16725 39726,-23001 58720,-59419 58720,-104368 0,-28225 -10278,-52273 -33279,-71267 -19863,-15677 -42865,-22993 -67951,-27178zm-2092 52273c33456,-1047 55234,19862 55234,49134 -1046,31363 -16732,53311 -48088,66904 -5231,-39726 -5231,-78405 -7146,-116038z"/>
   <path id="22" class="fil3" d="M1509304 1482005c-10455,24047 -20909,51226 -39895,73004 -7324,9409 -14639,17771 -20909,27179 -7316,12547 -4185,26140 6261,33456 10455,8362 24048,6270 33465,-5054 20909,-26132 40772,-52273 54534,-83637 28225,-61673 48265,-126315 68128,-191135 2261,-6270 3308,-12539 2261,-18817 0,-10454 -7315,-18816 -15678,-20909 -9408,-3131 -17770,-1046 -24047,6100 -4177,4186 -6270,9409 -8362,14640 -10632,33448 -20040,66904 -30495,99314 -1038,5224 -4177,9409 -6269,14632 -17771,-13593 -28225,-30317 -34495,-49134 -7324,-20909 -10454,-41818 -9239,-63774 1046,-12539 -6270,-22124 -17771,-24217 -10454,-2092 -21955,3139 -27178,13594 -2093,4177 -3139,9408 -3139,14631 -177,40772 6101,80498 31018,113954 11492,15678 27178,29448 41810,46173z"/>
   <path id="23" class="fil3" d="M1879455 1436178c-1046,-3130 -869,-6269 -869,-8362 1046,-29271 1046,-57496 1046,-85721 169,-14639 169,-29271 -2962,-43910 -9408,-41819 -54365,-56627 -88860,-31533 -20909,15678 -32409,36587 -35548,62719 -1216,11501 -2262,23002 -3308,33456 -1046,27010 -3139,53142 -4354,80321 -5231,2093 -10455,2093 -14640,4185 -23001,7316 -29271,14632 -27178,37633 1046,13594 7315,20909 17770,23002 10455,2084 17770,-2093 24048,-14640 2084,-5223 5223,-8362 10454,-8185 3131,-1046 7316,-1046 11493,-1046 29279,-1046 58551,-2092 87822,-1915 4177,0 8362,3130 10454,5223 7316,7316 15678,9408 24040,5231 8362,-3139 13594,-10454 14640,-19863 2092,-18824 -3139,-28233 -24048,-36595zm-43903 1916c-15686,1046 -31364,1046 -47049,2092 -1047,-7316 -870,-12547 -870,-17770 2093,-30318 4185,-59589 6270,-89906 1223,-14640 9585,-26132 22132,-33456 9409,-5224 16724,-2085 19863,8362 2093,7324 2093,15686 2093,23001 -177,33457 -1224,67951 -1401,101407 0,2093 -1038,4185 -1038,6270z"/>
   <path id="24" class="fil3" d="M2094011 1340872c-9408,1046 -17771,2092 -25086,2092 -9409,0 -17779,-1046 -27187,-1046 177,-9408 177,-16724 177,-25086 0,-13593 0,-27187 -1046,-40772 -1046,-11501 -9408,-20040 -19863,-21086 -10455,-1046 -20909,6269 -24040,16724 -1046,5231 -1046,9408 -1046,14640 0,40772 -177,80497 -177,121269 0,17771 -1224,35541 -177,53311 0,11501 6277,19863 15686,21956 10454,3138 21955,-1047 26132,-12547 3139,-4000 3139,-10278 3139,-16547 1215,-20910 2261,-41819 2261,-63774 17779,-1046 34503,-2093 53319,-3131 0,11493 0,20901 1047,30310 0,13593 -177,27186 869,39725 1046,13594 13593,24048 25094,21956 12539,-1038 20901,-10270 20901,-23863 -869,-40772 -1915,-82582 -1915,-123354 -870,-17771 -870,-36595 -1916,-54366 -1046,-11500 -10454,-17947 -20909,-19001 -10455,0 -19863,7324 -22994,18824 0,4177 0,9409 0,13586 0,16724 -1046,32410 -2269,50180z"/>
   <path id="25" class="fil3" d="M2331391 1404654c0,3130 0,6269 0,9408 0,14631 -169,30317 878,45995 0,13594 9408,23002 21947,24048 13593,1046 24048,-7324 26140,-21778 7493,-53319 6447,-93045 5578,-160996 -3139,-28225 -9417,-37633 -36595,-43041 -41819,-7316 -72136,10454 -98268,37464 -20909,21955 -23171,57496 -5401,82590 5224,6270 12547,12539 19863,18817 -9408,18816 -20909,36587 -29448,55403 -6269,12547 -2093,25094 9408,31364 11501,5231 24048,2093 32410,-9408 13594,-17602 19863,-40595 32579,-59412 4185,-7324 9417,-12547 20909,-10454zm6447 -100361c-1046,13585 -2085,27179 -3308,39726 -1046,13585 -24048,15678 -35541,14631 -13593,-1046 -19862,-14631 -15508,-26132 6269,-15678 32410,-30317 54357,-28225z"/>
   <path id="26" class="fil3" d="M2589689 1390014c-3139,-8362 -6269,-13585 -7316,-18817 -7324,-26132 -14462,-52272 -22824,-77359 -3139,-10454 -7324,-19862 -13594,-28224 -13593,-15686 -34494,-13771 -44949,2961 -3138,6270 -6277,12539 -7323,19863 -3131,16724 -6270,34495 -7493,52265 -4177,39734 -6270,79459 -9578,119185 -2092,16724 6270,28225 19863,29271 13586,1039 22994,-7324 25086,-24048 1047,-14639 2093,-29094 4354,-43733 1047,-17771 2093,-35541 3139,-53319 5231,5231 7316,10454 9408,15686 7316,18816 14640,36586 21779,55403 6277,13593 14639,26140 31363,27187 16725,0 25095,-12547 29272,-27187 8539,-24917 15855,-51049 24217,-77182 1046,-4185 3138,-9408 4185,-14639 3138,3138 4185,6277 4185,9408 2084,34502 3130,68997 4008,103499 1038,14632 10446,25086 24040,25086 12547,-1046 21955,-11500 21955,-27178 -1916,-50181 -2962,-101407 -5924,-152634 0,-9408 -3138,-19863 -7315,-28225 -7324,-16724 -26141,-22993 -40772,-14631 -8370,5223 -15686,11501 -20909,18816 -7324,12548 -13594,25956 -17771,39549 -8539,21956 -13770,43911 -21086,68997z"/>
   <path id="27" class="fil3" d="M2828985 1494383c12547,0 23002,-11324 23002,-23871 0,-13594 -11501,-24040 -25095,-23171 -12539,0 -21947,10455 -21947,22994 0,12547 10455,24048 24040,24048z"/>
   <path id="28" class="fil3" d="M534607 1865161c2221,5924 4443,10366 5924,14809 4321,14068 8764,27396 13207,40724 4442,11106 12587,14808 22213,12587 9625,-2962 14068,-10978 10366,-22213 -8024,-22953 -16169,-45166 -25054,-68128 -2222,-5183 -1481,-8885 2221,-13327 6793,-8145 12716,-17030 18640,-25915 2961,-3703 4442,-7284 5923,-10986 2962,-8145 0,-15549 -7404,-19372 -7405,-4443 -15549,-2962 -21481,3702 -1481,1481 -2221,3702 -3702,5183 -9626,13328 -19992,27396 -29617,40724 -1602,1481 -3823,2961 -7525,6664 120,-8145 120,-14069 120,-19992 0,-8885 741,-17770 -740,-25915 -740,-8885 -8145,-14197 -16290,-14197 -8144,0 -15549,5923 -17029,14068 -741,2962 0,6664 0,9634 -741,28136 -870,55532 -870,82928 0,13336 -120,27404 1361,40732 1480,10366 9625,16289 19251,14808 8885,-740 14808,-7283 14808,-17649 0,-6664 -740,-13328 -1352,-19992 -1481,-13456 5924,-20732 17030,-28877z"/>
   <path id="29" class="fil3" d="M657583 1881322c2962,11115 7284,23702 16169,34808 21472,27517 59983,24555 76272,-6543 15678,-30977 17159,-63556 9135,-96884 -5183,-19991 -18511,-33440 -38511,-38623 -5923,-1481 -12587,-1481 -18510,741 -19252,5923 -33320,19130 -40724,38381 -9014,21473 -9014,43686 -3831,68120zm70349 -56152c4443,22213 2962,42953 -4443,62945 -740,2221 -2221,5183 -3822,7404 -5183,7404 -13328,7404 -18511,1481 -2221,-2221 -3582,-3702 -4322,-6664 -10366,-20732 -13328,-42333 -4443,-64426 2342,-5923 7525,-11846 12708,-15549 8886,-5183 16290,-2221 20732,7405 1481,2961 1361,5923 2101,7404z"/>
   <path id="30" class="fil3" d="M951494 1896380c-741,-2221 -612,-4442 -612,-5923 741,-20732 741,-40724 741,-60716 120,-10374 120,-20740 -2101,-31106 -6664,-29617 -38502,-40112 -62945,-22333 -14808,11106 -22953,25915 -25174,44425 -861,8145 -1602,16290 -2342,23694 -741,19131 -2222,37642 -3091,56901 -3702,1481 -7404,1481 -10366,2961 -16289,5183 -20732,10367 -19251,26656 740,9626 5183,14809 12587,16289 7405,1481 12588,-1480 17030,-10366 1481,-3702 3702,-5923 7405,-5802 2221,-741 5183,-741 8144,-741 20740,-740 41472,-1481 62205,-1352 2961,0 5923,2221 7404,3702 5183,5183 11106,6664 17030,3702 5923,-2221 9633,-7404 10374,-14068 1481,-13335 -2221,-19999 -17038,-25923zm-31098 1360c-11107,741 -22213,741 -33320,1481 -740,-5183 -619,-8885 -619,-12587 1481,-21473 2961,-42213 4442,-63685 861,-10366 6785,-18511 15678,-23694 6664,-3702 11847,-1481 14068,5923 1481,5183 1481,11107 1481,16290 -129,23694 -869,48136 -990,71830 0,1481 -740,2961 -740,4442z"/>
   <path id="31" class="fil3" d="M1036088 1881322c2962,11115 7284,23702 16169,34808 21472,27517 59983,24555 76272,-6543 15678,-30977 17159,-63556 9135,-96884 -5183,-19991 -18511,-33440 -38511,-38623 -5923,-1481 -12587,-1481 -18510,741 -19251,5923 -33320,19130 -40724,38381 -9014,21473 -9014,43686 -3831,68120zm70349 -56152c4443,22213 2962,42953 -4443,62945 -740,2221 -2221,5183 -3822,7404 -5183,7404 -13328,7404 -18511,1481 -2221,-2221 -3582,-3702 -4322,-6664 -10366,-20732 -13328,-42333 -4443,-64426 2342,-5923 7525,-11846 12708,-15549 8886,-5183 16290,-2221 20732,7405 1481,2961 1361,5923 2101,7404z"/>
   <path id="32" class="fil3" d="M1290136 1838498c7405,-10366 11236,-19992 9014,-31839 -3702,-19251 -21480,-34060 -44434,-37021 -9625,-1481 -19251,-2350 -28876,-2350 -13328,0 -20732,7404 -20732,19991 1352,37770 611,74792 490,112562 0,19992 8145,28136 28877,29617 6664,861 14068,1602 20740,1602 24435,-1481 46648,-8145 61456,-27276 15678,-20732 9755,-45906 -13207,-58622 -3702,-2222 -8145,-3702 -13328,-6664zm-52699 59862c869,-11106 1610,-21352 1610,-33199 17030,-3702 32579,-1480 48128,6664 7404,3702 8885,8885 2221,14809 -4443,4442 -10487,8145 -16410,10366 -10366,3702 -22213,4442 -35549,1360zm129 -67267c120,-10366 120,-19991 861,-31098 8885,-2221 17030,-740 24434,5183 6664,5183 6664,10366 0,15549 -6784,4443 -14929,8145 -22334,12588 -740,-741 -1480,-1481 -2961,-2222z"/>
   <path id="33" class="fil3" d="M1392380 1881322c2962,11115 7284,23702 16169,34808 21472,27517 59983,24555 76272,-6543 15678,-30977 17159,-63556 9135,-96884 -5183,-19991 -18511,-33440 -38510,-38623 -5924,-1481 -12588,-1481 -18511,741 -19251,5923 -33320,19130 -40724,38381 -9014,21473 -9014,43686 -3831,68120zm70349 -56152c4443,22213 2962,42953 -4442,62945 -741,2221 -2222,5183 -3823,7404 -5183,7404 -13328,7404 -18511,1481 -2221,-2221 -3582,-3702 -4322,-6664 -10366,-20732 -13328,-42333 -4443,-64426 2342,-5923 7526,-11846 12709,-15549 8885,-5183 16289,-2221 20732,7405 1480,2961 1360,5923 2100,7404z"/>
   <path id="34" class="fil3" d="M1598300 1872566c1481,-741 2962,-741 4443,-1481 6664,0 12587,0 19251,-741 7405,-740 15549,-1480 22954,-2961 14068,-3702 23701,-14688 25182,-29497 3083,-23702 -12466,-49737 -34687,-57882 -6664,-2222 -14809,-3702 -22213,-2222 -25915,5055 -42945,21352 -48257,47267 -5183,22213 -740,43686 5923,65166 3582,13328 10986,23694 21352,33320 8145,8265 18519,11967 30366,10486 28877,-2221 48128,-22832 56401,-47266 2222,-7405 -1480,-14069 -8144,-17771 -6672,-3082 -14077,-861 -18519,5803 -2221,3702 -4443,7404 -5924,11106 -4442,7405 -10486,12588 -18631,16290 -7404,2962 -12587,2221 -18511,-3702 -5803,-7405 -10245,-15549 -10986,-25915zm-4442 -31106c0,-14069 3823,-25175 16410,-31099 11847,-5183 19992,-2221 25915,8145 1489,3702 2841,7404 3582,11847 740,5183 -1481,8145 -6664,8885 -13328,741 -25915,1481 -39243,2222z"/>
   <path id="35" class="fil3" d="M1921949 1855407c2221,10366 2962,20732 6664,31106 7284,25175 30977,40845 59122,41585 24434,0 51830,-17650 60104,-39863 2961,-9625 740,-17770 -7405,-22212 -7404,-4443 -16297,-2342 -22221,5062 -2961,4442 -5183,8885 -8144,12587 -8145,8885 -19372,11847 -30358,8885 -11107,-2221 -17770,-10366 -19992,-20732 -2962,-12587 -2962,-25182 0,-37029 2962,-11107 9006,-19992 17891,-26656 7405,-5923 14809,-5183 20740,2221 2962,2222 4443,5924 6664,8886 5795,8144 16161,11106 24314,6052 8265,-5191 10487,-14817 4563,-24442 -4443,-7405 -9626,-14069 -16289,-19372 -17771,-15549 -41473,-15549 -59983,-1481 -24435,19130 -34929,45045 -35670,75403z"/>
   <path id="36" class="fil3" d="M2207224 1804446c0,6664 741,11847 0,17030 -2350,27396 -4571,54059 -6173,81455 -740,5924 -740,11847 741,17030 1481,8145 8885,13328 16289,13457 8145,-741 14809,-5924 16290,-14068 740,-2222 740,-4451 740,-6672 2350,-31098 4572,-62196 6173,-93303 741,-8885 0,-18510 -1481,-27396 -2221,-11846 -10366,-20732 -22213,-20732 -17770,-861 -36289,-861 -54059,1361 -13328,1480 -19251,10366 -19992,22953 -740,4442 -740,8145 -740,12587 740,12588 619,25915 619,38503 0,14687 -1480,28756 -6663,42832 -3703,0 -5924,-741 -8886,-749 -12595,741 -20120,11847 -16418,23694 4443,16290 25915,24442 39983,14197 5192,-4442 11115,-10366 13336,-16289 5183,-12588 9747,-25175 11227,-38503 2222,-17030 741,-34068 1602,-51838 0,-4443 0,-9626 0,-15549 10374,0 18519,0 29625,0z"/>
   <path id="37" class="fil3" d="M2308599 1881330c2962,11115 7284,23702 16169,34808 21472,27517 59983,24555 76272,-6543 15678,-30977 17159,-63556 9135,-96884 -5183,-19991 -18511,-33440 -38511,-38623 -5923,-1480 -12587,-1480 -18510,741 -19252,5923 -33320,19130 -40724,38381 -9014,21473 -9014,43686 -3831,68120zm70349 -56152c4443,22213 2962,42953 -4443,62945 -740,2221 -2221,5183 -3823,7404 -5183,7404 -13327,7404 -18510,1481 -2222,-2221 -3582,-3702 -4322,-6664 -10366,-20732 -13328,-42333 -4443,-64425 2342,-5924 7525,-11847 12708,-15550 8885,-5183 16290,-2221 20732,7405 1481,2962 1360,5923 2101,7404z"/>
   <path id="38" class="fil3" d="M2562647 1838506c7405,-10366 11235,-19992 9014,-31839 -3702,-19251 -21480,-34059 -44434,-37021 -9625,-1481 -19251,-2350 -28877,-2350 -13327,0 -20732,7404 -20732,19991 1352,37770 612,74792 491,112562 0,19992 8145,28136 28877,29617 6664,861 14068,1602 20740,1602 24434,-1481 46647,-8145 61456,-27275 15678,-20733 9754,-45907 -13207,-58623 -3702,-2222 -8145,-3702 -13328,-6664zm-52699 59862c869,-11106 1609,-21352 1609,-33199 17030,-3702 32579,-1480 48128,6664 7405,3702 8886,8885 2222,14809 -4443,4442 -10487,8145 -16410,10366 -10366,3702 -22213,4443 -35549,1360zm129 -67266c120,-10366 120,-19992 861,-31099 8885,-2221 17030,-740 24434,5183 6664,5183 6664,10366 0,15550 -6785,4442 -14929,8144 -22334,12587 -740,-741 -1481,-1481 -2961,-2221z"/>
   <path id="39" class="fil3" d="M2664891 1881330c2962,11115 7284,23702 16169,34808 21472,27517 59983,24555 76272,-6543 15678,-30977 17159,-63556 9135,-96884 -5183,-19991 -18511,-33440 -38511,-38623 -5923,-1480 -12587,-1480 -18510,741 -19252,5923 -33320,19130 -40724,38381 -9014,21473 -9014,43686 -3831,68120zm70349 -56152c4443,22213 2962,42953 -4443,62945 -740,2221 -2221,5183 -3822,7404 -5183,7404 -13328,7404 -18511,1481 -2221,-2221 -3582,-3702 -4322,-6664 -10366,-20732 -13328,-42333 -4443,-64425 2342,-5924 7525,-11847 12708,-15550 8886,-5183 16290,-2221 20732,7405 1481,2962 1361,5923 2101,7404z"/>
   <path id="40" class="fil3" d="M2856614 1922062c8886,0 16290,-7284 17030,-16909 0,-10366 -7275,-18632 -16901,-18632 -10374,0 -18519,8145 -18639,17771 0,8885 8885,17770 18510,17770zm2350 -85898c8886,861 16290,-6543 16411,-16169 0,-8885 -6664,-16289 -15549,-16410 -8886,-741 -17030,5923 -17030,15549 -870,9626 6543,17030 16168,17030z"/>
   <path id="41" class="fil3" d="M590027 2328752c4893,-8821 10776,-17642 14865,-28258 11758,-30381 5875,-63709 -14704,-82493 -20418,-16660 -43943,-22543 -69424,-16660 -6857,982 -12740,2938 -18623,3759 -16660,3919 -23517,11758 -23686,28418 -1956,53906 -5062,107813 -6044,162693 -161,37247 1803,75468 2616,112715 981,18615 18623,34301 35283,33319 16659,161 34301,-821 50961,-2776 41166,-5884 72530,-25320 84457,-67460 3920,-13722 5875,-30382 5875,-45086 -1955,-25480 -4732,-50961 -24337,-70566 -10777,-9803 -24499,-17803 -37239,-27605zm-71709 167594c0,-32345 0,-61745 -982,-90171 161,-8821 4080,-14696 11919,-18616 14704,-6865 30390,-9802 46068,-9802 9802,0 17641,4901 21561,14696 11597,24667 13561,50148 2776,75467 -6857,14704 -19597,22543 -34301,24507 -14704,2938 -29400,1956 -47041,3919zm1143 -164657c973,-13722 2124,-22535 2124,-32337 974,-13722 1956,-27445 1956,-41167 982,-10776 3919,-13722 15686,-13722 17641,0 27436,11767 25480,29408 -982,12740 -6865,22535 -14704,31356 -8000,9802 -16820,17641 -30542,26462z"/>
   <path id="42" class="fil3" d="M872356 2355214c-1963,42140 -161,83306 813,125447 0,14704 821,29408 1803,44104 974,13722 9795,22703 22535,22703 12748,0 20587,-8820 21569,-23516 974,-3920 974,-8821 0,-13722 0,-12741 -821,-24507 -1803,-37247 -974,-65665 -3758,-149946 6213,-214637 1956,-9794 1956,-19597 974,-28418 -974,-11758 -6696,-20579 -18454,-23525 -10785,-2937 -19606,1964 -25650,10785 -4893,5883 -8821,12740 -11758,19436 -23525,49987 -46229,118590 -69915,168577 -1955,4893 -4893,10777 -7838,15678 -7678,-46068 -1634,-112707 -3590,-160730 -982,-12740 0,-25480 -982,-38229 -821,-12740 -7678,-20579 -19436,-21722 -11767,-982 -21561,5883 -24668,17642 -982,6857 -982,13722 -982,19605 821,85262 1634,189148 2455,273436 0,6857 0,13723 1956,19606 3919,19597 26462,26462 41166,12901 3920,-3919 6857,-8821 8821,-13722 6857,-13722 12740,-27444 18784,-42140 19598,-44104 37408,-88208 57987,-132312z"/>
   <path id="43" class="fil3" d="M1050639 2492258c-4901,-974 -7839,-974 -10784,-1956 -10777,-982 -18616,2938 -23686,11759 -5875,9802 -4893,18623 2946,28426 16659,21561 44103,21722 61745,161 3919,-5883 6857,-10785 8821,-17642 4901,-13722 8982,-27444 10937,-42140 9803,-58808 8008,-141133 7187,-200922 0,-4894 0,-9795 0,-14696 21569,-5884 46068,-7678 62728,-3759 981,11759 2937,23525 1963,36265 -1142,57826 -2285,140151 -4249,197969 -161,15686 -161,31364 813,46068 0,12740 8821,20579 20587,20579 10776,982 19597,-4902 22543,-16660 974,-3919 974,-8821 974,-12740 982,-12740 0,-25481 1143,-39203 981,-37247 3927,-74486 4088,-110751 0,-35283 -821,-94083 -3758,-128384 -2938,-28426 -20419,-42148 -49819,-41166 -17641,0 -35283,1795 -52924,3758 -41167,5875 -50148,18624 -50148,60764 -161,46060 -161,116626 -2286,162694 0,20579 -4901,41158 -8821,61576z"/>
   <path id="44" class="fil3" d="M1341789 2492258c-4901,-974 -7838,-974 -10784,-1956 -10777,-982 -18615,2938 -23686,11759 -5875,9802 -4893,18623 2946,28426 16659,21561 44104,21722 61745,161 3920,-5883 6857,-10785 8821,-17642 4901,-13722 8982,-27444 10938,-42140 9802,-58808 8007,-141133 7187,-200922 0,-4894 0,-9795 0,-14696 21569,-5884 46067,-7678 62727,-3759 982,11759 2937,23525 1964,36265 -1143,57826 -2286,140151 -4250,197969 -161,15686 -161,31364 813,46068 0,12740 8821,20579 20587,20579 10777,982 19598,-4902 22543,-16660 974,-3919 974,-8821 974,-12740 982,-12740 0,-25481 1143,-39203 982,-37247 3927,-74486 4088,-110751 0,-35283 -821,-94083 -3758,-128384 -2938,-28426 -20418,-42148 -49818,-41166 -17642,0 -35283,1795 -52925,3758 -41166,5875 -50148,18624 -50148,60764 -161,46060 -161,116626 -2286,162694 0,20579 -4901,41158 -8821,61576z"/>
   <path id="45" class="fil3" d="M1670179 2410094c29408,1964 57826,4902 85270,7026 982,1964 982,2938 1956,3920 2945,18623 5883,38229 9802,57826 2946,15678 5722,32345 9642,48023 2937,12740 13722,18624 25480,16660 11759,-1956 18624,-11758 18624,-24499 -982,-3919 -1964,-8820 -1964,-12740 -9634,-55862 -18293,-112706 -28096,-169551 -4901,-27444 -8660,-55870 -12579,-83306 -1956,-8821 -3920,-17642 -6857,-25489 -12580,-29400 -45899,-35283 -65665,-10937 -12741,13714 -21561,30382 -29400,48023 -33489,67621 -54237,140964 -72852,213486 -2946,12748 -6044,25488 -7026,38229 -982,16659 7839,27436 20579,28418 12740,1963 22543,-7678 24507,-24338 1955,-8821 2937,-18623 5062,-27444 7839,-28418 15678,-56844 23517,-83307zm61093 -148802c9803,35283 12579,70566 17481,107805 -20587,982 -41167,1795 -63709,-6044 12740,-35283 25649,-69585 46228,-101761z"/>
   <path id="46" class="fil3" d="M2126968 2478866c0,-3920 -982,-5883 -982,-7839 -982,-51943 161,-110751 -1795,-162694 -820,-19597 -3758,-41166 -7678,-60763 -5883,-22543 -21400,-37247 -43942,-41167 -14704,-2937 -29400,-3919 -44104,-3098 -28418,0 -50148,14696 -63871,40184 -13714,24499 -14696,51943 -16820,78406 -1964,44916 -4081,97841 -6044,142927 0,2937 -982,6857 -982,10776 -2938,0 -4902,982 -7839,982 -15678,0 -25481,13722 -24668,27444 0,9795 982,20580 2946,31356 1956,9803 9794,15686 19597,16668 10785,0 18624,-4902 22543,-14543 982,-4902 1964,-9795 2938,-13722 1963,-974 3919,-1956 5883,-1956 48023,982 96047,1143 145052,1143 5883,0 8821,3919 12740,7839 9803,9810 18623,10792 28418,6052 10785,-5883 15686,-16660 13722,-28418 -3750,-17642 -15517,-27444 -35114,-29577zm-47050 -2938c-31355,0 -60763,-169 -91145,-169 -982,-6857 -1956,-12740 -1956,-18615 974,-22543 1956,-46068 3099,-68611 1964,-29400 3919,-66638 7026,-96046 982,-9795 4901,-19598 8821,-28419 3919,-10784 12740,-15685 23525,-15685 3919,0 8820,0 12740,169 27436,0 32337,3919 35283,32337 1956,19605 813,40185 1795,59790 982,36257 812,81343 812,117608 982,4901 0,10776 0,17641z"/>
   <path id="47" class="fil3" d="M2456500 2387728c11597,27445 23364,51130 34140,75629 8821,19597 16499,39203 25320,58800 5883,12748 17641,18623 29400,14704 12748,-3920 18623,-15678 13722,-29400 -2938,-6865 -5875,-14704 -8652,-21561 -19605,-42148 -38229,-84288 -57665,-126429 -4901,-9802 -3919,-17641 982,-27444 15678,-25480 29561,-59782 42309,-86244 3920,-5883 5875,-11766 6857,-18623 982,-9803 -4740,-18624 -14535,-22543 -8821,-2938 -18623,0 -25649,7839 -1956,2945 -2938,6865 -4902,9802 -20579,38221 -37399,91967 -67789,119403 0,-3920 0,-8821 0,-13714 1151,-29408 2124,-66647 2124,-97029 0,-12740 -6696,-20587 -18454,-22543 -11758,-982 -22704,5883 -25650,17642 -1955,5875 -1955,10776 -1955,16659 0,20580 -982,48024 -1143,68603 0,8821 0,17642 -982,29408 -33319,-29569 -51782,-84449 -82164,-123652 -7678,-10785 -20418,-12909 -31194,-6044 -9964,6857 -11928,18615 -6044,29400 20579,33319 44916,77584 65495,111893 -7838,17642 -16659,36257 -25641,54881 -17642,36104 -34301,71379 -51130,107644 -6857,12740 0,26462 12740,31364 12741,3919 23525,-1964 29408,-14535 15678,-33328 31525,-66647 47203,-99967 6865,-14704 13722,-28426 21722,-43130 18623,12910 18623,12910 18462,31364 -982,28426 -982,57826 -1143,86244 0,7847 982,15686 1956,22543 1964,10785 10785,16829 21561,16829 10785,0 19605,-5883 21569,-16660 974,-5883 974,-11766 974,-17642 169,-26462 169,-51942 169,-78405 0,-3927 0,-8821 1956,-12748 7839,-9795 15686,-19597 26623,-32338z"/>
   <path id="48" class="fil3" d="M2742749 2398344c0,-982 0,-982 0,-982 28426,0 55870,169 84288,169 9803,0 17642,-6865 21561,-15686 2938,-10776 982,-21561 -8820,-26462 -5884,-3920 -13723,-5875 -21561,-5875 -18624,0 -37239,1955 -55863,1794 -31363,0 -62727,-981 -93109,-2124 -12740,0 -21561,5883 -25480,16659 -2938,9803 1955,22543 12740,27445 8821,2937 17641,3919 26462,4901 19597,161 40185,161 59782,161z"/>
   <path id="49" class="fil3" d="M566196 2839987c1900,4740 3791,9473 5682,14213 15002,47363 35847,90944 56530,135628 5682,13263 17055,17054 27469,12313 10422,-5682 14213,-17995 8531,-32209 -4580,-9472 -8370,-19895 -13111,-29367 -19887,-41682 -36788,-84474 -50051,-128996 -2841,-7582 -1891,-13264 2849,-19895 15316,-18785 29521,-37738 43734,-56683 4732,-5682 9472,-12314 12313,-19896 4741,-12313 -1738,-26526 -14052,-29367 -10422,-1892 -17054,3790 -22897,12321 -26518,33940 -53045,68048 -79733,101206 -2841,3791 -6632,6632 -11364,12314 153,-34108 153,-65367 153,-95685 0,-5682 0,-11364 -942,-17046 -1738,-10422 -8370,-17054 -16901,-18156 -9472,-1900 -17995,3782 -20997,14205 -1892,5682 -1892,12313 -1892,18003 -949,48313 -1110,95677 -1110,143990 -1103,37899 -2994,75789 -4105,114630 0,4740 0,10422 950,15163 2841,10414 10422,16104 19895,16104 9473,0 16104,-5690 18945,-15163 950,-5682 950,-10422 950,-16104 1102,-25577 1102,-50993 2052,-76578 0,-7574 3791,-19887 4732,-19887 10584,-11372 21006,-22736 32370,-35058z"/>
   <path id="50" class="fil3" d="M820945 2879777c28426,1891 55894,4740 82421,6793 950,1891 950,2841 1891,3782 2849,18004 5690,36949 9481,55895 2841,15162 5521,31267 9312,46422 2841,12313 13263,18003 24627,16104 11372,-1891 18004,-11364 18004,-23686 -950,-3782 -1900,-8523 -1900,-12314 -9311,-53995 -17681,-108939 -27154,-163884 -4732,-26527 -8370,-54003 -12153,-80530 -1899,-8523 -3791,-17054 -6632,-24628 -12160,-28418 -44369,-34108 -63475,-10583 -12314,13264 -20837,29368 -28418,46422 -32370,65367 -52418,136263 -70422,206363 -2841,12314 -5843,24635 -6784,36949 -950,16104 7573,26527 19887,27468 12321,1900 21794,-7420 23685,-23524 1900,-8523 2841,-17996 4894,-26527 7581,-27469 15162,-54945 22736,-80522zm59057 -143837c9473,34100 12153,68208 16893,104208 -19895,949 -39790,1738 -61576,-5843 12313,-34100 24788,-67259 44683,-98365z"/>
   <path id="51" class="fil3" d="M1088168 2959196c-4733,-949 -7574,-949 -10415,-1891 -10422,-950 -18003,2841 -22897,11364 -5682,9473 -4740,18004 2841,27476 16105,20837 42632,20998 59686,153 3790,-5682 6631,-10422 8523,-17046 4740,-13263 8684,-26527 10583,-40740 9473,-56844 7734,-136416 6945,-194202 0,-4740 0,-9472 0,-14213 20837,-5682 44523,-7420 60627,-3629 950,11364 2841,22736 1900,35049 -1111,55895 -2214,135467 -4113,191361 -153,15163 -153,30318 797,44531 0,12314 8523,19887 19887,19887 10422,950 18953,-4732 21794,-16104 942,-3783 942,-8523 942,-12314 950,-12314 0,-24628 1110,-37891 950,-35999 3791,-71999 3944,-107049 0,-34108 -789,-90944 -3630,-124102 -2841,-27477 -19734,-40740 -48160,-39790 -17046,0 -34100,1738 -51154,3629 -39790,5691 -48474,18004 -48474,58736 -153,44530 -153,112739 -2205,157261 0,19895 -4741,39790 -8531,59524z"/>
   <path id="52" class="fil3" d="M1382231 2730097c3791,0 7582,-949 11364,-949 14214,-942 28427,-942 42632,-1892 11372,-949 18945,-8523 19895,-19895 1899,-10261 -4580,-19895 -15002,-22736 -5682,-1891 -10414,-1891 -16105,-1891 -19895,941 -40731,2841 -60626,4579 -20845,942 -28579,9473 -28579,30310 -950,40739 -2053,81471 -2053,122211 -161,37891 789,95676 636,133575 0,9473 3783,16105 9473,22736 11364,13264 25577,13264 40732,12467 20844,-1891 40739,-2841 61576,-3783 13263,-949 24636,-10269 25577,-23524 0,-12322 -9312,-21948 -24466,-21948 -11372,0 -21795,1891 -33159,1891 -11372,950 -22736,1892 -35999,2841 0,-28418 0,-73890 -789,-101366 8523,-942 16105,-1891 22736,-2841 12314,-1891 25577,-1891 37891,-4732 13263,-1900 20845,-10423 19895,-22736 -950,-12322 -9473,-18954 -23686,-19896 -6631,0 -12313,942 -18945,1892 -11364,949 -23686,1899 -36949,2841 949,-29368 2052,-56836 3951,-87154z"/>
   <path id="53" class="fil3" d="M1600972 2814410c0,-5682 -941,-9473 -941,-12314 153,-30317 153,-59685 153,-89053 0,-4732 -942,-9472 -1892,-14205 -1738,-9472 -9319,-16265 -17842,-17215 -10423,-941 -18946,4741 -22897,15163 -1892,3783 -1892,8523 -1892,13263 0,69150 789,138308 628,206516 0,13263 797,65367 2688,77681 950,11372 10422,18004 21786,17054 10423,0 18004,-7420 19896,-18792 949,-3783 949,-7574 0,-12314 161,-22736 161,-85262 313,-108940 0,-3791 0,-7581 950,-11372 28418,950 55895,950 85262,2052 789,35050 789,68208 1578,102316 0,4733 -950,10423 0,15155 1899,12314 12313,20845 23686,19895 11364,-949 18945,-8523 19895,-21786 0,-3791 0,-7582 0,-11372 152,-41682 -789,-83363 -636,-125045 949,-41689 3002,-83370 3951,-125052 0,-5682 0,-10422 -949,-15155 -2841,-11372 -10262,-17054 -20684,-17054 -9473,0 -18945,5682 -20998,16105 -1899,4740 -949,9472 -1899,14213 0,27468 -942,55886 -1103,83363 -949,5682 -1891,12313 -1891,18945 -29368,-1103 -57794,-1103 -87162,-2052z"/>
   <path id="54" class="fil3" d="M2029086 2946247c0,-3791 -949,-5682 -949,-7574 -950,-50212 161,-107048 -1739,-157261 -788,-18945 -3629,-39790 -7420,-58735 -5682,-21787 -20684,-36000 -42470,-39790 -14213,-2841 -28418,-3791 -42631,-3002 -27469,0 -48475,14213 -61738,38848 -13263,23678 -14205,50205 -16257,75782 -1900,43420 -3952,94582 -5843,138154 0,2841 -950,6632 -950,10423 -2841,0 -4732,950 -7581,950 -15155,0 -24628,13263 -23839,26526 0,9473 950,19887 2841,30310 1900,9472 9473,15162 18946,16104 10422,0 18003,-4732 21794,-14052 942,-4732 1891,-9473 2841,-13263 1891,-942 3791,-1892 5682,-1892 46422,950 92844,1103 140207,1103 5682,0 8523,3791 12314,7581 9472,9473 18003,10423 27476,5843 10422,-5682 15155,-16104 13263,-27476 -3629,-17054 -15001,-26527 -33947,-28579zm-45472 -2841c-30317,0 -58735,-153 -88103,-153 -950,-6632 -1899,-12322 -1899,-18004 949,-21786 1899,-44522 3002,-66317 1899,-28418 3790,-64417 6792,-92835 950,-9473 4733,-18946 8523,-27477 3791,-10414 12314,-15154 22736,-15154 3791,0 8531,0 12314,161 26527,0 31267,3790 34108,31259 1891,18945 789,38840 1738,57785 942,35058 789,78631 789,113681 950,4740 0,10422 0,17054z"/>
   <path id="55" class="fil3" d="M2219570 2879785c28426,1891 55895,4740 82421,6793 950,1891 950,2841 1892,3782 2849,18004 5690,36949 9480,55895 2841,15163 5522,31267 9312,46422 2841,12313 13264,18003 24628,16104 11372,-1891 18003,-11364 18003,-23686 -949,-3782 -1899,-8523 -1899,-12313 -9312,-53996 -17682,-108940 -27155,-163885 -4732,-26527 -8370,-54003 -12152,-80530 -1900,-8523 -3791,-17054 -6632,-24627 -12161,-28419 -44369,-34109 -63476,-10584 -12314,13264 -20837,29368 -28418,46422 -32370,65367 -52418,136263 -70421,206363 -2841,12314 -5843,24635 -6785,36949 -950,16104 7573,26527 19887,27468 12322,1900 21795,-7420 23686,-23524 1899,-8523 2841,-17996 4893,-26527 7582,-27469 15163,-54945 22736,-80522zm59058 -143837c9472,34100 12152,68208 16893,104208 -19895,950 -39790,1738 -61577,-5843 12314,-34100 24789,-67259 44684,-98365z"/>
   <path id="56" class="fil3" d="M2499115 2884525c17996,-1899 34100,-3790 49255,-5690 34108,-4579 54164,-26365 56055,-60466 950,-29367 -2688,-60634 -13102,-89052 -11372,-29368 -32056,-43734 -63315,-46575 -11372,-950 -23686,-950 -35050,-1899 -24635,-2053 -35058,8370 -36160,32055 -1103,85255 -2213,172416 -3316,257678 0,4733 0,8523 950,12314 1891,11364 10414,18945 20836,18945 10423,0 18946,-6470 20845,-16893 1891,-4740 1891,-10422 1891,-15162 161,-21787 1111,-42624 1111,-63468 0,-7582 0,-14213 0,-21787zm2205 -159160c12314,950 21795,950 32209,2849 6632,942 11372,5682 14213,12314 10422,24627 14052,51154 12161,76731 0,7581 -2849,14213 -10423,16104 -12313,2841 -25577,3791 -38840,3791 -5690,0 -11372,-3791 -11372,-11364 950,-33159 1111,-66317 2052,-100425z"/>
   <path id="57" class="fil3" d="M2730492 2821050c161,-37891 3951,-71999 3951,-107999 0,-12313 -7420,-20836 -18792,-22889 -11364,-1899 -21948,4733 -24789,17996 -1891,8531 -2841,17054 -2841,25577 -7734,69158 -2052,137366 -2213,206524 0,14205 -153,28418 1739,42631 1899,23678 11372,31259 34108,29368 37890,-1739 66309,-18793 89994,-46261 36161,-40579 29682,-101214 -14841,-134525 -3790,-2841 -9472,-5682 -15154,-7581 -15163,-6632 -32209,-5682 -51162,-2841zm-942 47371c6632,-1899 10414,-2849 15155,-3791 17054,-4740 26526,-949 35838,14205 17054,26527 15163,42631 -7573,65367 -11372,10423 -23847,20845 -42792,21795 161,-32217 161,-64426 -628,-97576z"/>
  </g>
 </g>
</svg>
