<?xml version="1.0" encoding="UTF-8"?>
<!DOCTYPE svg PUBLIC "-//W3C//DTD SVG 1.1//EN" "http://www.w3.org/Graphics/SVG/1.1/DTD/svg11.dtd">
<!-- Creator: CorelDRAW X8 -->
<svg xmlns="http://www.w3.org/2000/svg" xml:space="preserve" width="503px" height="502px" version="1.1" style="shape-rendering:geometricPrecision; text-rendering:geometricPrecision; image-rendering:optimizeQuality; fill-rule:evenodd; clip-rule:evenodd"
viewBox="0 0 3474028 3467393"
 xmlns:xlink="http://www.w3.org/1999/xlink">
 <defs>
  <style type="text/css">
   <![CDATA[
    .str0 {stroke:black;stroke-width:61209.5}
    .fil0 {fill:#DEF2F7}
    .fil1 {fill:#F05C4F;fill-rule:nonzero}
   ]]>
  </style>
 </defs>
 <g id="Слой_x0020_1">
  <metadata id="CorelCorpID_0Corel-Layer"/>
  <path class="fil0 str0" d="M75565 2759257c-2187,-209671 -94581,-2357184 -8031,-2468284 106766,-137060 77704,-232318 578642,-237549 500938,-5232 1580542,-16511 1783513,-18624 202970,-2114 671476,-36914 806291,136750 134824,173663 166808,464759 171974,961363 1820,175549 131813,1800872 -117163,2116550 -252362,319970 -549652,131461 -1253553,138798 -703900,7337 -1265264,13213 -1440283,15042 -489194,5109 -516722,-197079 -521390,-644046z"/>
  <path class="fil1" d="M1842176 1195486c0,-198156 -151677,-342496 -374300,-342496 -95413,0 -178585,31805 -244642,85620 -90516,68506 -154125,176145 -188370,288680 -7337,29356 7337,56264 34245,66049 29356,7337 56272,-7337 63609,-34244 31804,-97862 80731,-183482 151677,-239754 51375,-39141 112535,-63600 185929,-63600 139444,0 269102,88068 269102,239745 0,124761 -78283,232408 -200604,305802 -105199,61153 -227520,100302 -337607,129658 -44030,12226 -61160,31796 -61160,70946 0,24459 29356,56264 73394,56264 225071,0 408544,73394 408544,281335 0,249530 -217726,469705 -489275,469705 -181033,-4889 -288672,-88068 -288672,-256868 0,-39141 19570,-110087 56263,-141891 12234,-9786 17123,-24468 17123,-39142 0,-29356 -22011,-51375 -51367,-51375 -12234,0 -24468,4897 -34253,14682 -56264,61152 -90517,134547 -90517,215278 0,222623 144340,357177 391423,362066 315587,0 594474,-244642 594474,-574904 -4889,-188370 -132106,-320476 -318028,-362066 61160,-22019 124761,-48927 181033,-83171 154117,-95413 251979,-229968 251979,-396319z"/>
  <path id="1" class="fil1" d="M2808502 906814c0,-24468 -19571,-41590 -48927,-41590 -51375,0 -90517,107639 -298457,340047 -139452,156566 -269110,300906 -376749,305803 -31804,0 -48926,-4897 -48926,-29365 0,-12225 4888,-31796 12233,-51367 2441,-7345 2441,-12233 2441,-19570 0,-19579 -9786,-39150 -26908,-46487 -7337,-2448 -14682,-4888 -22019,-4888 -22019,0 -41590,12225 -51375,34244 -12226,31805 -17123,63609 -17123,92965 0,70946 53824,127210 154126,127210 163902,-4889 342495,-203044 503958,-406096l-506407 1335729c-12233,31804 12234,70945 46479,70945 22019,0 44038,-12233 51375,-34252l601811 -1587708c14682,-39142 24468,-68498 24468,-85620z"/>
 </g>
</svg>
