<?xml version="1.0" encoding="UTF-8"?>
<!DOCTYPE svg PUBLIC "-//W3C//DTD SVG 1.1//EN" "http://www.w3.org/Graphics/SVG/1.1/DTD/svg11.dtd">
<!-- Creator: CorelDRAW X7 -->
<svg xmlns="http://www.w3.org/2000/svg" xml:space="preserve" width="45mm" height="45mm" version="1.1" style="shape-rendering:geometricPrecision; text-rendering:geometricPrecision; image-rendering:optimizeQuality; fill-rule:evenodd; clip-rule:evenodd"
viewBox="0 0 4500 4500"
 xmlns:xlink="http://www.w3.org/1999/xlink">
 <defs>
  <style type="text/css">
   <![CDATA[
    .fil2 {fill:black}
    .fil0 {fill:#E94F42}
    .fil3 {fill:#FEFEFE;fill-rule:nonzero}
    .fil1 {fill:black;fill-rule:nonzero}
   ]]>
  </style>
 </defs>
 <g id="Слой_x0020_1">
  <metadata id="CorelCorpID_0Corel-Layer"/>
  <g>
   <path class="fil0" d="M351 4241c0,0 -122,-141 -128,-676 -5,-535 -22,-2163 -24,-2348 -2,-184 -118,-539 14,-708 132,-170 96,-288 717,-295 620,-6 1957,-20 2208,-23 252,-2 845,-153 1012,62 167,215 193,683 200,1298 6,615 -151,1366 -99,1761 53,395 134,757 39,849 -95,93 -509,171 -1381,180 -872,9 -1823,19 -2040,22 -217,2 -518,-122 -518,-122z"/>
   <path id="1" class="fil1" d="M185 3565l76 0 0 0 1 48 1 46 2 44 3 42 3 40 4 37 4 36 4 33 5 32 5 29 5 28 5 26 5 24 6 23 6 21 5 19 6 17 5 16 6 15 5 13 5 12 5 10 4 9 4 8 4 7 3 5 3 5 2 3 1 2 1 2 1 0 -1 0 -57 49 -1 -1 -2 -2 -2 -3 -3 -5 -3 -5 -4 -6 -4 -7 -5 -8 -5 -10 -5 -11 -6 -12 -5 -13 -6 -15 -6 -16 -6 -18 -6 -19 -6 -21 -6 -22 -6 -24 -6 -26 -6 -27 -5 -30 -5 -31 -5 -32 -5 -35 -4 -37 -3 -39 -4 -41 -2 -43 -2 -45 -2 -47 -1 -50 0 0zm-24 -2347l76 -1 0 0 0 22 0 29 0 37 1 44 0 51 1 56 1 63 0 68 1 72 1 77 1 80 1 84 1 87 1 89 0 91 1 93 1 93 1 94 1 95 1 94 1 93 1 91 1 90 1 88 1 85 1 82 1 79 1 74 0 70 1 64 1 59 0 54 -76 0 0 -53 -1 -59 -1 -65 0 -69 -1 -75 -1 -78 -1 -82 -1 -85 -1 -88 0 -90 -1 -92 -1 -93 -1 -94 -1 -94 -1 -94 -1 -94 -1 -92 -1 -91 -1 -89 -1 -87 -1 -84 -1 -81 -1 -76 0 -73 -1 -67 -1 -63 0 -57 -1 -50 0 -44 -1 -37 0 -30 0 -21 0 0zm22 -733l60 47 0 0 -10 14 -8 14 -8 16 -7 17 -6 18 -4 19 -4 19 -3 21 -3 21 -1 22 -1 22 0 23 0 24 2 24 1 24 2 24 3 24 3 25 3 24 3 25 4 24 3 24 4 24 3 23 3 23 4 23 2 22 3 22 2 21 2 20 1 20 1 19 -76 1 -1 -17 -1 -17 -1 -19 -2 -20 -3 -20 -3 -22 -3 -22 -3 -23 -3 -23 -4 -24 -3 -24 -4 -25 -3 -25 -4 -25 -2 -26 -3 -25 -2 -26 -2 -25 -1 -26 -1 -25 0 -25 1 -25 2 -25 2 -24 4 -24 5 -23 6 -23 7 -23 9 -21 10 -21 12 -21 13 -19 0 0zm746 -309l1 76 0 0 -56 1 -52 2 -48 2 -45 3 -42 3 -38 4 -35 5 -33 5 -30 5 -27 6 -24 7 -23 6 -20 8 -18 7 -16 8 -15 9 -13 8 -12 9 -11 10 -11 9 -9 11 -10 10 -9 12 -8 12 -9 13 -9 13 -9 14 -10 14 -10 15 -11 16 -11 16 -13 17 -60 -47 12 -15 10 -14 10 -15 10 -15 9 -14 10 -14 9 -14 10 -14 10 -14 11 -14 11 -13 13 -13 13 -13 15 -12 16 -12 17 -11 19 -11 20 -10 22 -9 23 -8 26 -8 27 -8 30 -6 32 -6 35 -6 37 -4 40 -4 44 -4 46 -3 50 -2 53 -2 56 -1 0 0zm2209 -23l1 76 0 0 -27 0 -33 1 -38 0 -44 1 -49 0 -53 1 -58 0 -62 1 -66 1 -69 0 -72 1 -75 1 -77 1 -80 1 -81 0 -82 1 -84 1 -84 1 -85 1 -85 1 -84 1 -84 1 -83 0 -82 1 -81 1 -78 1 -76 1 -74 1 -71 0 -68 1 -64 1 -60 0 -1 -76 61 0 64 -1 67 -1 71 0 74 -1 76 -1 78 -1 81 0 82 -1 83 -1 84 -1 85 -1 84 -1 85 -1 84 -1 84 -1 83 0 81 -1 79 -1 77 -1 75 -1 72 0 69 -1 66 -1 62 0 58 -1 54 -1 48 0 44 -1 39 0 32 0 27 -1 0 0zm1042 76l-60 47 0 0 -13 -16 -16 -14 -19 -12 -20 -12 -22 -10 -25 -9 -27 -7 -28 -7 -30 -5 -32 -4 -32 -2 -34 -2 -35 -1 -36 0 -36 1 -37 2 -37 3 -37 3 -38 3 -37 4 -37 4 -37 4 -36 4 -35 4 -35 4 -34 4 -33 4 -31 3 -30 3 -29 2 -28 2 -25 0 -1 -76 23 0 26 -2 27 -2 30 -2 30 -4 33 -3 33 -4 35 -4 35 -4 36 -5 38 -4 37 -4 38 -4 38 -3 39 -3 38 -2 38 -2 38 -1 37 -1 37 1 37 2 35 3 35 4 33 6 33 7 31 9 30 11 28 12 27 15 25 18 22 20 20 22 0 0zm208 1322l-76 1 0 0 -1 -58 -1 -56 -1 -55 -1 -55 -1 -53 -2 -52 -1 -52 -2 -50 -3 -50 -3 -48 -3 -47 -3 -46 -4 -45 -4 -44 -4 -43 -5 -41 -6 -40 -6 -39 -6 -38 -7 -37 -8 -35 -8 -33 -8 -33 -9 -31 -10 -29 -10 -29 -11 -26 -12 -25 -12 -24 -12 -22 -14 -21 -14 -19 60 -47 17 23 15 24 15 26 14 27 12 28 12 29 12 31 10 32 10 33 9 34 8 36 8 36 7 38 7 40 6 40 6 41 5 43 5 43 4 45 4 46 3 47 3 48 3 48 2 50 2 51 2 52 2 53 1 54 1 54 1 56 1 56 1 58 0 0zm-99 1756l-75 10 0 0 -5 -40 -3 -41 -2 -43 -1 -45 0 -46 1 -48 1 -49 3 -51 3 -52 3 -53 5 -54 4 -55 6 -56 5 -58 6 -57 6 -59 6 -59 6 -60 6 -60 6 -60 6 -61 6 -61 5 -61 5 -61 5 -61 4 -60 3 -61 3 -60 3 -59 1 -59 1 -58 0 -57 76 -1 0 58 -1 60 -2 60 -2 60 -3 61 -4 61 -4 61 -4 61 -6 61 -5 62 -6 61 -6 61 -6 61 -6 60 -6 60 -6 59 -6 58 -6 58 -5 57 -5 55 -5 55 -4 54 -4 52 -3 51 -2 50 -2 48 0 47 0 44 1 43 2 41 3 39 4 37 0 0zm28 882l-53 -55 0 0 5 -5 4 -7 5 -9 4 -11 4 -12 3 -15 3 -16 2 -17 1 -19 1 -21 0 -22 0 -23 -1 -24 -2 -25 -2 -27 -3 -27 -3 -29 -3 -29 -4 -30 -4 -31 -4 -32 -5 -32 -5 -33 -5 -34 -5 -35 -5 -34 -5 -36 -6 -36 -5 -36 -5 -36 -5 -37 -5 -37 75 -10 5 37 5 36 5 36 5 36 6 36 5 35 5 35 5 35 5 34 5 33 5 33 4 32 4 31 4 31 4 30 3 29 2 29 3 27 1 27 1 26 1 25 0 24 -1 23 -2 22 -2 21 -3 20 -5 19 -5 18 -7 17 -8 16 -10 15 -12 14 0 0zm-1408 190l0 -76 0 0 80 -1 77 -1 75 -2 72 -2 70 -3 67 -3 65 -3 62 -3 59 -4 57 -5 55 -4 52 -5 50 -5 48 -5 45 -6 42 -6 41 -6 38 -6 36 -7 33 -7 32 -6 29 -7 27 -8 25 -7 22 -7 20 -8 19 -7 15 -8 14 -7 12 -7 9 -7 7 -6 53 55 -13 11 -14 10 -16 10 -18 9 -19 9 -21 9 -23 8 -25 8 -27 8 -28 8 -31 7 -33 8 -35 7 -37 6 -39 7 -42 6 -44 6 -46 6 -48 5 -50 5 -53 5 -56 5 -57 4 -61 4 -62 4 -65 3 -68 3 -70 3 -73 2 -75 2 -78 1 -81 1 0 0zm-2040 22l-1 -76 0 0 23 -1 26 0 31 0 35 0 38 -1 42 0 45 -1 48 0 52 -1 54 0 57 -1 60 -1 63 0 65 -1 67 -1 69 0 71 -1 73 -1 74 -1 76 0 77 -1 79 -1 79 -1 81 -1 81 -1 81 0 82 -1 83 -1 82 -1 82 -1 83 -1 82 -1 0 76 -82 1 -82 1 -82 1 -83 1 -82 1 -82 0 -82 1 -81 1 -80 1 -79 1 -79 1 -77 0 -76 1 -74 1 -73 1 -71 0 -69 1 -68 1 -64 1 -63 0 -60 1 -57 0 -55 1 -51 1 -49 0 -45 0 -41 1 -39 0 -34 1 -31 0 -26 0 -23 1 0 0zm-547 -135l57 -49 -14 -11 1 1 2 1 4 1 6 2 7 3 8 3 10 4 11 4 12 4 14 5 14 5 16 5 16 6 17 5 18 6 18 6 19 5 20 6 20 5 21 5 21 6 21 5 21 4 22 4 21 4 21 4 21 3 21 2 21 2 20 2 20 1 19 0 1 76 -22 -1 -22 -1 -22 -1 -23 -2 -22 -3 -23 -3 -23 -4 -23 -4 -22 -5 -23 -5 -22 -5 -22 -5 -21 -6 -21 -5 -20 -6 -20 -6 -20 -6 -18 -5 -18 -6 -17 -6 -15 -5 -15 -5 -14 -5 -13 -5 -11 -4 -10 -4 -9 -3 -8 -3 -6 -2 -4 -2 -3 -1 -1 -1 -14 -10zm14 10l-8 -3 -6 -7 14 10z"/>
  </g>
  <g>
   <path class="fil2" d="M2893 3321c-33,-46 -162,-57 -285,-70 -122,-13 -322,0 -397,0 -74,0 -68,52 -318,23 -250,-29 -287,-25 -278,11 9,36 -21,141 -2,173 20,33 190,72 289,72 99,0 366,-21 468,-26 102,-5 228,-46 294,-28 66,18 166,26 183,21 17,-5 46,-176 46,-176z"/>
   <path class="fil3" d="M1839 3354c-4,0 -8,0 -12,0 -4,0 -8,0 -12,1l-1 23c-1,7 -1,14 -1,21 0,6 0,13 0,20 0,1 0,2 0,3 0,1 -1,2 -1,3 -2,6 -5,8 -10,8 -6,-1 -9,-5 -9,-11 0,-3 0,-6 0,-10 0,-3 0,-7 1,-10 0,-6 0,-13 0,-19 0,-6 0,-12 0,-19l2 -12c1,-7 5,-12 11,-15 3,-1 5,-1 7,-2 2,0 4,-1 7,-1 3,0 7,0 10,0 4,0 7,0 10,0 9,0 15,4 16,13 1,5 2,10 2,15 0,9 -1,19 -1,28 0,9 -1,18 -1,28l0 3c-1,7 -4,10 -10,10 -6,-1 -9,-4 -10,-10 0,-4 0,-7 1,-10 0,-3 0,-7 0,-10 0,-7 0,-13 0,-20 1,-6 1,-13 1,-19 0,-2 0,-3 0,-4 0,-1 0,-2 0,-4zm81 79c0,5 0,9 0,13 0,4 0,8 0,12 0,4 0,7 1,11 0,3 0,7 0,10 0,2 -1,3 -1,5 -1,1 -1,3 -3,4 -2,2 -4,3 -8,3 -3,-1 -6,-2 -7,-5 -1,-2 -1,-3 -1,-4 0,-1 -1,-2 -1,-4 -1,-20 -1,-41 -2,-61 -1,-20 0,-40 2,-61 0,-2 0,-4 0,-5 1,-4 3,-7 5,-9 2,-2 5,-3 9,-4 16,-2 29,2 41,13 4,4 8,9 10,14 2,5 3,10 3,16 0,5 0,9 -1,13 -1,4 -2,9 -3,13 -2,9 -7,16 -14,20 -7,4 -13,6 -20,6 -1,1 -3,1 -5,0 -1,0 -3,0 -5,0zm-2 -20c3,0 6,0 8,0 2,0 4,0 6,-1 2,0 4,-1 6,-2 3,-2 4,-3 5,-6 2,-5 3,-10 4,-15 1,-5 0,-11 -2,-16 -1,-5 -4,-9 -9,-11 -5,-3 -10,-3 -16,-2 0,9 0,17 -1,26 0,8 0,18 -1,27zm90 -11c-1,-7 -2,-14 -2,-21 0,-7 2,-13 4,-20 5,-12 13,-19 25,-23 4,-1 7,-1 11,0 12,3 20,11 23,23 3,10 4,20 3,30 0,9 -3,19 -8,28 -2,5 -5,9 -9,11 -4,3 -8,4 -13,5 -4,0 -8,-1 -13,-3 -4,-1 -8,-4 -11,-9 -3,-3 -5,-6 -6,-10 -2,-4 -3,-7 -4,-11zm43 -34c-1,0 -1,-1 -1,-2 0,0 0,-1 -1,-2 -3,-6 -7,-8 -12,-5 -4,3 -6,6 -8,10 -2,7 -3,13 -3,20 1,6 3,12 6,19 0,1 1,2 3,4 1,2 3,2 5,2 2,0 4,-1 6,-3 1,-2 1,-3 2,-5 5,-12 5,-24 3,-38zm108 24c2,-6 3,-11 5,-16 1,-4 3,-9 4,-14 2,-6 5,-11 8,-17 2,-3 5,-6 9,-8 3,-2 7,-2 10,-1 3,1 6,4 7,7 2,5 3,9 3,12 1,11 1,22 2,33 0,11 1,22 1,33 0,3 -1,6 -3,8 -1,2 -4,3 -6,3 -3,0 -6,-1 -7,-3 -2,-2 -3,-4 -4,-7 0,-8 0,-15 0,-23 0,-7 -1,-14 -1,-22 0,-1 -1,-3 -2,-4 0,1 -1,3 -1,4 0,1 -1,2 -1,3 -2,5 -3,11 -5,16 -2,6 -3,11 -5,17 -1,3 -2,6 -4,8 -2,2 -5,3 -9,3 -3,0 -6,-1 -8,-4 -2,-2 -4,-4 -5,-7 -2,-5 -3,-8 -5,-12 -1,-4 -3,-8 -5,-12 0,-1 -1,-2 -1,-3 -1,-1 -1,-3 -3,-4l-1 23c0,3 -1,6 -1,9 0,3 0,7 -1,10 -1,7 -4,11 -10,10 -7,0 -10,-5 -9,-12 1,-9 1,-18 2,-26 0,-8 1,-17 2,-25 0,-4 1,-8 1,-12 1,-4 2,-7 2,-11 1,-1 1,-3 2,-4 0,-1 1,-3 1,-4 3,-4 6,-6 10,-6 3,0 7,1 10,4 2,4 4,8 5,13 2,5 4,10 6,16 1,5 3,11 4,17 1,1 1,2 2,3 0,1 1,3 1,5zm91 10c-2,-7 -2,-14 -2,-21 0,-7 1,-13 4,-20 4,-12 13,-19 25,-23 3,-1 7,-1 11,0 12,3 20,11 23,23 2,10 3,20 3,30 -1,9 -4,19 -8,28 -3,5 -6,9 -10,11 -4,3 -8,4 -12,5 -4,0 -9,-1 -13,-3 -4,-1 -8,-4 -11,-9 -3,-3 -5,-6 -7,-10 -1,-4 -2,-7 -3,-11zm42 -34c0,0 0,-1 0,-2 0,0 -1,-1 -1,-2 -3,-6 -7,-8 -13,-5 -3,3 -6,6 -7,10 -3,7 -4,13 -3,20 0,6 2,12 5,19 1,1 2,2 3,4 2,2 3,2 6,2 2,0 4,-1 5,-3 1,-2 2,-3 3,-5 4,-12 5,-24 2,-38zm91 25c-4,2 -6,4 -8,7 -3,2 -3,6 -3,10 1,2 1,4 1,6 0,2 0,4 0,6 0,7 -3,10 -9,11 -3,0 -5,0 -7,-2 -2,-1 -4,-4 -4,-7 -1,-4 -1,-8 -1,-12 0,-4 0,-9 0,-13 0,-8 0,-16 0,-25 0,-8 0,-16 0,-25 0,-1 0,-2 0,-3 0,-1 0,-2 0,-3 1,-2 2,-4 4,-6 2,-1 4,-2 6,-2 3,0 5,1 7,2 2,2 3,4 3,6 1,3 1,5 1,8 0,3 0,5 0,8l0 12c1,-1 2,-2 2,-2 1,-1 2,-1 2,-2 3,-4 6,-8 9,-12 3,-4 6,-8 9,-13 1,0 1,-1 1,-1 0,-1 1,-1 1,-2 4,-4 9,-5 13,-2 5,2 7,6 5,12 -1,1 -1,2 -2,3 0,1 -1,2 -2,3 -2,3 -3,6 -5,8 -2,3 -4,6 -6,8 -2,2 -3,5 -1,8 2,7 5,14 7,21 3,7 5,13 8,20 2,7 0,12 -6,14 -7,1 -11,-1 -14,-8 -1,-4 -3,-8 -4,-12 -1,-4 -2,-8 -4,-13 0,-1 -1,-2 -2,-4 0,-1 -1,-3 -1,-4zm74 9c-2,-7 -2,-14 -2,-21 0,-7 1,-13 4,-20 5,-12 13,-19 25,-23 3,-1 7,-1 11,0 12,3 20,11 23,23 2,10 3,20 3,30 -1,9 -4,19 -8,28 -3,5 -6,9 -10,11 -4,3 -8,4 -12,5 -4,0 -9,-1 -13,-3 -4,-1 -8,-4 -11,-9 -3,-3 -5,-6 -7,-10 -1,-4 -2,-7 -3,-11zm42 -34c0,0 0,-1 0,-2 0,0 0,-1 -1,-2 -3,-6 -7,-8 -13,-5 -3,3 -6,6 -7,10 -3,7 -4,13 -3,20 0,6 2,12 6,19 0,1 1,2 2,4 2,2 4,2 6,2 2,0 4,-1 5,-3 1,-2 2,-3 3,-5 4,-12 5,-24 2,-38zm135 43c5,2 8,4 9,6 2,3 2,6 2,10 -1,4 -3,7 -7,8 -3,2 -7,1 -10,-2 0,0 -1,-1 -2,-1 -1,-1 -1,-1 -2,-1 -7,0 -13,0 -19,0 -6,0 -13,1 -19,1 -2,0 -4,0 -5,0 -2,0 -3,2 -4,4 -3,5 -6,7 -11,6 -4,-1 -7,-4 -7,-10 -1,-5 0,-8 1,-10 2,-2 5,-4 10,-6 1,0 2,-1 3,-1 1,0 2,0 4,-1 0,-6 0,-11 1,-17 0,-5 0,-11 0,-17 1,-2 1,-5 1,-7 0,-3 1,-5 1,-7 1,-12 6,-21 15,-27 7,-5 15,-7 23,-4 8,3 13,8 15,17 1,4 1,7 1,10 0,3 0,6 0,9 0,6 0,12 0,18 0,6 0,12 0,19 0,1 0,2 0,3zm-18 1c0,0 0,-1 0,-1 0,0 0,-1 0,-1 0,-8 0,-15 0,-22 0,-7 0,-15 0,-22 0,-1 0,-3 0,-5 0,-2 0,-3 0,-5 -2,-4 -5,-6 -9,-3 -6,3 -9,8 -9,14 -1,7 -1,13 -2,19 0,7 0,13 -1,19 0,2 0,3 0,4 0,1 0,3 0,4 4,0 7,0 11,0 3,0 6,0 10,-1zm80 15c-3,0 -6,-1 -8,-3 -2,-3 -4,-5 -4,-8 0,-3 2,-5 4,-7 2,-2 4,-4 8,-4 3,0 5,2 7,4 2,2 3,4 3,8 0,3 -1,5 -3,7 -2,2 -5,3 -7,3zm1 -52c-3,0 -5,-1 -7,-3 -2,-2 -3,-4 -3,-7 0,-3 1,-6 3,-7 2,-2 5,-3 7,-3 3,0 5,1 7,3 2,2 3,5 3,7 0,3 -1,6 -3,8 -2,2 -4,2 -7,2z"/>
   <g id="_821890249184">
    <path class="fil3" d="M699 3683c6,5 12,9 17,12 6,4 11,8 16,12 9,9 14,19 16,29 3,11 4,22 5,33 0,15 -1,28 -5,40 -5,18 -14,32 -27,41 -13,9 -28,15 -47,18 -15,2 -30,3 -44,3 -8,0 -15,-2 -21,-8 -6,-6 -10,-13 -10,-21 -1,-17 -2,-34 -2,-50 -1,-16 -1,-33 -1,-49 1,-24 1,-48 2,-72 1,-23 2,-47 3,-71 0,-13 7,-22 21,-25 3,-1 5,-1 8,-2 3,0 5,-1 8,-2 23,-5 43,0 61,15 9,8 15,19 17,32 3,14 1,27 -4,40 -2,5 -4,9 -6,13 -2,4 -4,8 -7,12zm-63 147c8,-1 16,-1 22,-1 7,0 13,-1 20,-2 14,-2 24,-9 30,-22 9,-21 8,-43 -3,-66 -3,-8 -9,-13 -19,-13 -15,0 -28,3 -40,9 -7,3 -10,9 -10,16 0,13 0,26 0,39 0,12 0,26 0,40zm1 -144c11,-7 20,-15 27,-23 8,-9 12,-18 13,-28 1,-8 0,-14 -4,-19 -4,-4 -10,-7 -18,-7 -6,0 -9,1 -11,3 -2,2 -3,5 -3,9 0,7 0,13 -1,18 0,6 0,12 -1,19 0,4 0,8 0,12 -1,4 -1,10 -2,16zm184 108c5,-9 10,-19 15,-28 5,-9 10,-19 16,-28 3,-6 7,-12 11,-17 4,-5 8,-10 12,-14 4,-4 8,-7 12,-9 4,-2 9,-1 13,1 11,3 16,11 16,22l0 23c-1,18 -1,35 -1,52 0,17 0,34 -1,52 0,1 0,3 0,5 0,2 0,4 -1,7 -1,5 -4,10 -9,13 -4,3 -9,4 -14,3 -11,-1 -16,-8 -16,-21l0 -34c0,-5 -1,-11 -1,-16 0,-5 -1,-11 -3,-18 -1,3 -2,6 -4,8 -1,2 -3,5 -5,8 -4,8 -9,16 -14,24 -5,9 -10,17 -15,25 -4,6 -10,11 -15,15 -8,4 -16,5 -23,2 -8,-3 -13,-10 -14,-19 -2,-13 -3,-25 -2,-35 1,-18 1,-36 2,-54 0,-17 1,-35 1,-54 1,-2 1,-4 1,-6 0,-2 1,-4 1,-6 3,-11 10,-15 21,-14 4,0 8,2 12,5 3,3 5,6 5,11 1,6 1,13 0,19 0,7 0,13 -1,20 0,10 0,19 0,29 -1,9 -1,19 -2,28 1,0 1,1 2,1 0,0 0,0 1,0zm225 -67l-34 0 0 18c-1,11 -1,21 -1,31 1,10 0,20 -1,29 -1,8 -3,16 -5,23 -3,7 -5,15 -8,22 -1,4 -3,7 -6,10 -4,3 -7,6 -9,9 -4,3 -9,5 -14,5 -5,1 -9,0 -14,-1 -5,-2 -9,-5 -12,-8 -3,-4 -6,-8 -7,-12 -2,-7 -1,-13 2,-19 4,-5 10,-8 17,-9 2,0 3,0 5,1 1,0 3,0 5,0 3,-8 5,-16 6,-24 2,-9 2,-17 2,-26 0,-7 0,-15 0,-22 0,-8 0,-15 -1,-23 0,-2 0,-5 0,-7 0,-2 1,-4 1,-7 1,-16 9,-25 23,-27 11,-1 21,-2 32,-2 10,0 21,0 31,0 7,0 13,3 17,7 5,5 8,11 9,18 2,11 2,22 2,31 -2,19 -3,37 -4,55 -1,17 -2,35 -3,54 0,3 -1,6 -1,8 -2,9 -8,15 -19,16 -5,0 -9,-2 -12,-4 -4,-3 -6,-7 -7,-12 -2,-5 -2,-11 -1,-19 1,-16 2,-32 4,-48 1,-15 2,-31 3,-47 1,-3 1,-6 0,-9 0,-3 0,-7 0,-11zm169 0l-34 0 0 18c-1,11 -1,21 -1,31 1,10 0,20 -1,29 -1,8 -3,16 -5,23 -2,7 -5,15 -8,22 -1,4 -3,7 -6,10 -3,3 -6,6 -9,9 -4,3 -9,5 -14,5 -5,1 -9,0 -14,-1 -4,-2 -8,-5 -12,-8 -3,-4 -6,-8 -7,-12 -2,-7 -1,-13 2,-19 4,-5 10,-8 17,-9 2,0 3,0 5,1 1,0 3,0 5,0 3,-8 5,-16 6,-24 2,-9 2,-17 2,-26 0,-7 0,-15 0,-22 0,-8 0,-15 -1,-23 0,-2 0,-5 0,-7 0,-2 1,-4 1,-7 1,-16 9,-25 23,-27 11,-1 21,-2 32,-2 10,0 21,0 31,0 7,0 13,3 17,7 5,5 8,11 9,18 2,11 2,22 2,31 -1,19 -3,37 -4,55 -1,17 -2,35 -3,54 0,3 0,6 -1,8 -2,9 -8,15 -19,16 -5,0 -9,-2 -12,-4 -3,-3 -6,-7 -7,-12 -2,-5 -2,-11 -1,-19 1,-16 3,-32 4,-48 1,-15 2,-31 3,-47 1,-3 1,-6 1,-9 -1,-3 -1,-7 -1,-11zm173 74c-5,6 -10,12 -14,17 -3,4 -8,9 -12,13 -4,4 -7,7 -11,11 -4,3 -9,6 -13,9 -13,8 -26,9 -38,4 -13,-6 -20,-16 -23,-31 -4,-22 -4,-43 1,-62 5,-19 16,-36 33,-51 14,-13 32,-21 52,-22 15,0 29,5 41,15 3,3 6,6 9,8 3,3 6,6 9,9 2,3 3,6 5,10 1,3 2,7 2,10 1,6 1,12 0,18 0,6 0,13 0,19 0,10 0,20 0,30 1,10 1,20 1,29 0,3 0,6 0,10 1,3 1,7 1,10 -2,13 -9,18 -21,17 -11,0 -17,-5 -18,-17 -1,-7 -2,-14 -2,-20 0,-7 -1,-13 -1,-20 0,-2 0,-4 0,-6 0,-3 -1,-6 -1,-10zm-72 14c15,-10 27,-22 37,-35 9,-14 19,-28 28,-42 -6,-9 -14,-12 -23,-8 -9,3 -16,7 -22,12 -11,10 -18,21 -20,33 -1,13 -1,26 0,40zm280 19c9,3 15,7 18,11 2,5 3,11 2,19 -1,8 -5,13 -12,16 -7,4 -13,2 -20,-4 -1,-1 -2,-2 -4,-3 -1,-1 -3,-1 -4,-1 -12,0 -24,0 -36,0 -12,0 -24,1 -37,1 -4,0 -7,1 -9,1 -4,0 -7,3 -9,7 -4,10 -11,14 -19,12 -10,-2 -14,-8 -15,-19 -1,-9 0,-16 3,-20 3,-4 10,-8 19,-11 2,-1 4,-1 6,-1 2,0 4,-1 6,-2 1,-12 2,-23 2,-33 1,-11 1,-22 2,-33 0,-5 1,-10 1,-14 0,-5 1,-9 1,-14 3,-22 13,-39 30,-52 14,-10 29,-12 44,-7 15,5 25,16 29,33 1,7 2,13 2,18 0,6 0,12 0,18 0,12 0,24 0,35 0,12 0,24 0,36 0,3 0,5 0,7zm-36 2c0,-2 0,-2 1,-3 0,-1 0,-1 0,-3 0,-13 0,-27 1,-41 0,-14 0,-28 0,-42 0,-3 0,-6 0,-9 0,-4 -1,-7 -2,-10 -3,-9 -8,-11 -16,-7 -12,6 -18,16 -18,28 -1,12 -2,25 -3,37 0,12 -1,24 -2,37 0,2 0,4 0,7 0,2 0,4 1,7 6,0 12,-1 19,-1 6,0 13,0 19,0zm141 -52c-5,8 -9,16 -12,24 -3,9 -6,18 -9,27 -1,3 -2,7 -3,10 -1,3 -2,7 -3,10 -4,12 -12,17 -23,13 -10,-3 -14,-11 -11,-24 4,-15 8,-30 14,-45 5,-15 11,-29 19,-43 -4,-6 -9,-12 -13,-17 -5,-6 -10,-11 -14,-17 -1,-2 -3,-3 -4,-5 -1,-1 -3,-3 -4,-4 -4,-10 -3,-19 5,-25 9,-6 17,-5 24,3 3,3 6,6 9,10 2,3 5,6 8,9 4,6 9,11 14,17 5,6 10,12 16,18 0,-4 1,-8 2,-11 1,-5 1,-10 1,-15 0,-6 1,-11 1,-16 1,-6 4,-11 7,-15 3,-3 8,-4 13,-4 5,0 9,2 12,6 4,3 5,9 5,15 0,6 -1,11 -1,17 0,5 -1,10 -1,16l0 12c3,-1 5,-3 7,-6 1,-2 3,-4 5,-6 4,-7 8,-13 12,-20 4,-7 8,-14 13,-20 5,-9 12,-12 20,-10 6,1 10,4 13,9 2,5 2,10 -1,16 -1,4 -3,8 -6,12 -2,4 -5,8 -8,12 -6,6 -9,12 -9,19 1,7 3,14 6,21 5,10 9,21 13,31 3,11 7,22 11,32 2,3 3,8 3,13 -1,10 -7,16 -17,17 -4,1 -7,0 -11,-2 -3,-3 -6,-6 -8,-11 -3,-10 -7,-19 -10,-29 -4,-9 -8,-19 -11,-29 -1,-1 -1,-3 -2,-4 0,-2 -1,-4 -2,-6 -4,3 -7,6 -10,8 -3,2 -6,5 -9,8 -2,1 -3,4 -3,8 0,7 -1,12 -1,18 0,5 -1,11 -1,17 0,2 0,5 0,7 0,2 -1,4 -1,7 -1,5 -4,9 -8,11 -3,3 -8,4 -12,4 -11,-2 -16,-9 -16,-20 0,-18 1,-37 3,-55 1,-10 -3,-16 -12,-18zm238 -40l-53 0c-4,0 -7,-1 -11,-1 -4,-1 -8,-2 -12,-3 -4,-2 -8,-6 -10,-10 -2,-5 -2,-9 -1,-14 3,-10 11,-15 22,-15 14,1 27,1 41,2 14,0 27,0 41,0 8,0 16,0 25,-1 8,0 16,-1 24,-1 8,0 14,2 19,6 5,2 7,5 8,9 1,5 1,9 0,14 -4,9 -11,14 -19,14l-74 0 0 0zm203 21c12,9 19,19 21,30 2,11 2,23 -1,36 -2,9 -5,17 -10,24 -5,7 -12,12 -22,15 -11,3 -21,4 -32,3 -11,-1 -20,-5 -30,-13 -4,-4 -8,-8 -12,-14 -3,-5 -3,-9 -2,-14 1,-4 4,-8 8,-11 5,-3 10,-4 15,-4 4,0 8,3 11,7 4,7 9,10 14,11 5,1 11,1 19,-1 1,-4 2,-8 3,-12 1,-4 1,-8 1,-12 0,-7 -2,-12 -7,-15 -4,-3 -10,-4 -17,-3l-10 2c-11,2 -19,-2 -23,-11 -3,-10 0,-17 11,-23 4,-3 9,-6 13,-9 5,-3 10,-5 14,-8 4,-3 7,-6 9,-9 2,-4 2,-8 -1,-12 -3,-1 -7,0 -12,2 -4,3 -9,5 -14,6 -10,4 -17,2 -23,-6 -5,-8 -4,-16 3,-23 3,-4 8,-7 14,-10 6,-2 13,-4 20,-5 6,-1 13,0 19,1 6,1 12,3 16,6 15,10 20,22 17,38 -2,5 -3,11 -5,16 -2,6 -4,12 -7,18zm160 36c-5,6 -10,12 -13,17 -4,4 -8,9 -13,13 -3,4 -7,7 -11,11 -4,3 -8,6 -13,9 -13,8 -26,9 -38,4 -12,-6 -20,-16 -23,-31 -4,-22 -4,-43 1,-62 5,-19 16,-36 33,-51 15,-13 32,-21 52,-22 16,0 29,5 41,15 3,3 6,6 9,8 4,3 7,6 9,9 2,3 4,6 5,10 2,3 2,7 2,10 1,6 1,12 1,18 -1,6 -1,13 -1,19 0,10 0,20 1,30 0,10 0,20 0,29 0,3 0,6 1,10 0,3 0,7 0,10 -2,13 -9,18 -21,17 -11,0 -17,-5 -18,-17 -1,-7 -2,-14 -2,-20 0,-7 -1,-13 -1,-20 0,-2 0,-4 0,-6 0,-3 0,-6 -1,-10zm-71 14c15,-10 27,-22 36,-35 10,-14 19,-28 28,-42 -6,-9 -14,-12 -22,-8 -9,3 -17,7 -23,12 -11,10 -18,21 -19,33 -2,13 -2,26 0,40zm194 -17c-7,4 -12,9 -16,14 -4,5 -5,11 -4,19 0,4 1,8 1,12 0,4 1,7 1,11 0,13 -6,20 -18,21 -5,1 -10,0 -14,-3 -4,-3 -7,-8 -8,-14 -1,-8 -2,-16 -2,-24 0,-7 0,-15 0,-23 0,-16 0,-32 0,-48 0,-16 1,-32 1,-49 0,-1 0,-3 0,-5 -1,-2 0,-4 0,-6 1,-4 4,-8 7,-12 4,-3 8,-4 13,-4 5,0 9,1 12,4 4,3 6,7 7,12 1,5 1,10 1,15 0,5 0,10 0,15l0 23c2,-2 4,-3 5,-4 1,-1 2,-2 3,-3 6,-8 12,-16 18,-24 5,-8 11,-16 17,-24 1,-1 2,-2 2,-3 0,0 1,-1 2,-3 7,-8 16,-10 25,-4 9,5 12,12 9,22 -2,3 -3,5 -3,7 -1,2 -3,4 -4,6 -4,5 -7,11 -11,16 -3,5 -7,10 -11,14 -4,5 -5,10 -2,16 5,13 10,26 15,39 5,14 9,27 14,40 4,13 0,22 -12,26 -12,3 -21,-2 -26,-15 -3,-8 -5,-16 -8,-23 -2,-8 -5,-16 -7,-24 -2,-3 -3,-6 -4,-8 -1,-3 -2,-6 -3,-9zm127 78c0,9 -1,17 -1,25 0,7 0,15 1,23 0,6 0,13 0,20 1,7 1,14 0,21 0,2 0,5 -1,8 -1,3 -2,6 -5,8 -4,5 -9,6 -15,6 -7,-1 -12,-5 -15,-10 -1,-3 -2,-5 -2,-7 0,-3 -1,-5 -1,-7 -1,-40 -3,-79 -4,-118 -1,-38 0,-77 4,-117 0,-5 0,-8 1,-10 1,-8 4,-14 8,-17 4,-4 10,-6 18,-7 30,-5 56,3 79,24 8,8 14,17 18,26 4,10 6,21 6,32 0,8 0,16 -2,25 -1,8 -3,16 -4,24 -5,18 -14,31 -27,39 -14,7 -27,11 -39,12 -3,1 -6,1 -10,0 -3,0 -6,0 -9,0zm-4 -39c6,0 11,-1 15,-1 4,0 8,0 11,0 5,-2 9,-3 13,-6 4,-2 7,-5 8,-10 4,-10 7,-20 8,-30 1,-10 0,-20 -3,-29 -3,-10 -9,-17 -18,-22 -9,-5 -19,-6 -30,-4 -1,17 -2,33 -2,50 -1,16 -1,34 -2,52zm119 -20c-2,-15 -4,-28 -3,-41 0,-13 3,-26 8,-38 8,-23 24,-38 47,-45 7,-3 14,-3 21,-1 24,6 39,21 45,45 5,19 7,38 5,57 -1,18 -6,37 -15,55 -5,10 -11,17 -18,21 -8,5 -16,8 -24,9 -8,0 -16,-1 -25,-5 -8,-3 -15,-9 -22,-17 -5,-6 -9,-13 -12,-20 -3,-7 -5,-14 -7,-20zm82 -66c0,-1 -1,-2 -1,-4 0,-1 0,-3 -1,-4 -6,-12 -14,-15 -25,-9 -6,5 -11,11 -14,18 -5,13 -7,26 -6,38 1,13 5,25 11,37 1,2 2,5 5,8 3,3 7,5 11,5 4,0 8,-2 11,-7 1,-3 3,-6 4,-9 9,-23 10,-47 5,-73z"/>
    <path class="fil3" d="M2892 3634c1,-1 2,-3 2,-5 1,-2 2,-4 3,-6 4,-10 11,-13 21,-9 9,5 11,11 8,21 -5,21 -16,31 -34,32 -9,1 -17,-1 -24,-4 -7,-3 -13,-9 -18,-17 -1,-3 -3,-6 -4,-10 -1,-8 2,-14 9,-18 4,-1 7,-1 11,0 4,1 7,3 9,7 2,3 4,5 6,7 2,2 6,3 11,2zm-37 160c5,-9 10,-19 15,-28 4,-9 10,-19 16,-28 3,-6 7,-12 11,-17 4,-5 8,-10 12,-14 3,-4 7,-7 11,-9 5,-2 9,-1 14,1 10,3 15,11 15,22l0 23c0,18 -1,35 -1,52 0,17 0,34 -1,52 0,1 0,3 0,5 0,2 0,4 0,7 -2,5 -4,10 -9,13 -5,3 -9,4 -15,3 -11,-1 -16,-8 -16,-21l0 -34c0,-5 0,-11 0,-16 -1,-5 -2,-11 -3,-18 -2,3 -3,6 -4,8 -2,2 -3,5 -5,8 -5,8 -9,16 -14,24 -5,9 -10,17 -15,25 -5,6 -10,11 -16,15 -8,4 -16,5 -23,2 -7,-3 -12,-10 -14,-19 -1,-13 -2,-25 -1,-35 0,-18 1,-36 1,-54 1,-17 1,-35 2,-54 1,-2 1,-4 1,-6 0,-2 0,-4 1,-6 3,-11 9,-15 20,-14 5,0 9,2 12,5 4,3 6,6 6,11 0,6 0,13 0,19 0,7 -1,13 -1,20 0,10 0,19 -1,29 0,9 0,19 -1,28 1,0 1,1 1,1 1,0 1,0 2,0zm320 -12c1,-8 1,-16 1,-26 0,-9 0,-18 2,-27 1,-16 7,-28 17,-37 11,-9 24,-12 39,-10 11,1 20,3 28,6 5,1 9,4 11,9 2,4 4,9 4,14 0,8 -4,14 -10,17 -6,4 -13,4 -21,0 -2,-1 -4,-2 -6,-4 -3,-1 -5,-2 -8,-3 -9,-2 -14,2 -15,12 0,8 -1,16 -2,24 0,8 0,15 0,24 1,13 2,25 3,38 0,12 1,25 3,38 1,13 -4,20 -16,23 -6,1 -11,0 -15,-3 -5,-3 -8,-7 -9,-13 -1,-6 -2,-12 -3,-18 0,-6 -1,-12 -1,-18 -1,-8 -1,-15 -1,-22 0,-7 0,-15 -1,-24zm200 -55l-34 0 0 18c-1,11 -1,21 -1,31 1,10 0,20 -1,29 -1,8 -3,16 -5,23 -2,7 -5,15 -8,22 -1,4 -3,7 -6,10 -4,3 -7,6 -9,9 -4,3 -9,5 -14,5 -5,1 -9,0 -14,-1 -5,-2 -9,-5 -12,-8 -3,-4 -6,-8 -7,-12 -2,-7 -1,-13 2,-19 4,-5 10,-8 17,-9 2,0 3,0 5,1 1,0 3,0 5,0 3,-8 5,-16 6,-24 2,-9 2,-17 2,-26 0,-7 0,-15 0,-22 0,-8 0,-15 -1,-23 0,-2 0,-5 0,-7 0,-2 1,-4 1,-7 1,-16 9,-25 23,-27 11,-1 21,-2 32,-2 10,0 21,0 31,0 7,0 13,3 17,7 5,5 8,11 9,18 2,11 2,22 2,31 -1,19 -3,37 -4,55 -1,17 -2,35 -3,54 0,3 0,6 -1,8 -2,9 -8,15 -19,16 -5,0 -9,-2 -12,-4 -3,-3 -6,-7 -7,-12 -2,-5 -2,-11 -1,-19 1,-16 3,-32 4,-48 1,-15 2,-31 3,-47 1,-3 1,-6 1,-9 -1,-3 -1,-7 -1,-11zm173 74c-6,6 -10,12 -14,17 -3,4 -8,9 -12,13 -4,4 -7,7 -11,11 -4,3 -9,6 -13,9 -13,8 -26,9 -39,4 -12,-6 -19,-16 -22,-31 -4,-22 -4,-43 1,-62 5,-19 16,-36 33,-51 14,-13 32,-21 52,-22 15,0 29,5 41,15 3,3 6,6 9,8 3,3 6,6 9,9 2,3 3,6 5,10 1,3 2,7 2,10 1,6 1,12 0,18 0,6 0,13 0,19 0,10 0,20 0,30 1,10 1,20 1,29 0,3 0,6 0,10 1,3 1,7 1,10 -2,13 -9,18 -21,17 -11,0 -17,-5 -18,-17 -1,-7 -2,-14 -2,-20 0,-7 -1,-13 -1,-20 0,-2 0,-4 0,-6 0,-3 -1,-6 -1,-10zm-72 14c15,-10 27,-22 37,-35 9,-14 19,-28 28,-42 -7,-9 -14,-12 -23,-8 -9,3 -16,7 -22,12 -11,10 -18,21 -20,33 -1,13 -1,26 0,40zm225 -50c12,9 19,19 21,30 2,11 2,23 -1,36 -2,9 -5,17 -10,24 -5,7 -12,12 -22,15 -11,3 -21,4 -32,3 -11,-1 -21,-5 -30,-13 -4,-4 -8,-8 -12,-14 -3,-5 -3,-9 -2,-14 1,-4 4,-8 8,-11 5,-3 10,-4 14,-4 5,0 9,3 12,7 4,7 9,10 14,11 5,1 11,1 19,-1 1,-4 2,-8 3,-12 1,-4 1,-8 1,-12 0,-7 -2,-12 -7,-15 -4,-3 -10,-4 -17,-3l-10 2c-11,2 -19,-2 -23,-11 -3,-10 0,-17 11,-23 4,-3 9,-6 13,-9 5,-3 10,-5 14,-8 4,-3 6,-6 9,-9 2,-4 2,-8 -1,-12 -3,-1 -7,0 -12,2 -5,3 -9,5 -14,6 -10,4 -17,2 -23,-6 -5,-8 -4,-16 2,-23 4,-4 9,-7 15,-10 6,-2 13,-4 19,-5 7,-1 13,0 20,1 6,1 12,3 16,6 14,10 20,22 16,38 -1,5 -2,11 -4,16 -2,6 -4,12 -7,18zm160 36c-5,6 -10,12 -13,17 -4,4 -8,9 -13,13 -3,4 -7,7 -11,11 -4,3 -8,6 -13,9 -13,8 -26,9 -38,4 -13,-6 -20,-16 -23,-31 -4,-22 -4,-43 1,-62 5,-19 16,-36 33,-51 15,-13 32,-21 52,-22 15,0 29,5 41,15 3,3 6,6 9,8 3,3 6,6 9,9 2,3 4,6 5,10 1,3 2,7 2,10 1,6 1,12 1,18 -1,6 -1,13 -1,19 0,10 0,20 1,30 0,10 0,20 0,29 0,3 0,6 0,10 1,3 1,7 1,10 -2,13 -9,18 -21,17 -11,0 -17,-5 -18,-17 -1,-7 -2,-14 -2,-20 0,-7 -1,-13 -1,-20 0,-2 0,-4 0,-6 0,-3 -1,-6 -1,-10zm-72 14c15,-10 28,-22 37,-35 10,-14 19,-28 28,-42 -6,-9 -14,-12 -22,-8 -10,3 -17,7 -23,12 -11,10 -18,21 -20,33 -1,13 -1,26 0,40z"/>
   </g>
   <g id="_821758774896">
    <path class="fil3" d="M1355 813c20,2 32,12 35,30 2,13 -2,23 -13,29 -10,5 -20,3 -29,-6 -2,-2 -4,-4 -5,-6 -2,-1 -5,-2 -8,-2 -25,0 -50,0 -74,0 -24,0 -48,0 -72,-1 -2,0 -4,1 -6,2 -1,2 -2,7 -3,14 -4,10 -12,15 -23,15 -11,-2 -18,-7 -20,-17 -2,-11 -3,-21 -3,-32 0,-7 2,-14 6,-19 5,-6 11,-9 19,-9 1,0 3,0 4,0 1,0 3,-1 4,-1 0,-2 0,-4 0,-6 1,-2 1,-3 1,-5 1,-23 2,-47 3,-72 1,-25 2,-49 3,-72 1,-13 2,-26 4,-40 1,-14 5,-27 13,-39 14,-27 36,-41 64,-41 14,0 29,1 44,3 24,4 39,18 45,42 2,10 4,20 5,31 1,10 2,20 3,30 1,27 2,54 1,82 0,29 0,56 1,82 0,2 0,3 0,4 1,1 1,2 1,4zm-48 -3c0,-3 1,-6 1,-9 0,-3 0,-6 -1,-8 0,-19 0,-39 0,-60 0,-21 0,-41 -1,-59 0,-10 0,-20 0,-30 0,-11 0,-21 -2,-30 -1,-15 -4,-24 -8,-28 -4,-3 -13,-5 -27,-5l-13 0c-12,0 -20,5 -24,16 -2,4 -4,9 -5,14 -2,4 -3,9 -4,14 -1,16 -2,32 -3,49 -1,17 -2,33 -4,48 0,12 -1,23 -1,35 0,12 -1,23 -2,35 0,3 1,6 1,9 0,3 1,6 1,9l92 0zm242 -52c3,2 6,4 9,5 3,1 6,3 9,4 15,8 24,20 28,35 4,15 0,29 -10,43 -10,13 -22,22 -36,27 -15,5 -30,8 -46,10 -5,0 -10,-1 -14,-1 -5,0 -10,-1 -14,-1 -14,-2 -24,-5 -30,-11 -6,-6 -9,-16 -9,-29 0,-25 0,-50 1,-75 0,-25 0,-50 -2,-75 0,-18 9,-27 28,-27 12,0 25,1 39,3 15,2 28,7 39,16 10,9 17,20 20,33 1,8 1,16 -1,22 -2,7 -6,14 -11,21zm-70 80c17,4 33,3 47,-2 9,-3 16,-8 22,-14 9,-8 8,-14 -3,-20 -20,-10 -42,-13 -64,-8 0,7 0,15 -1,22 0,8 -1,15 -1,22zm0 -90c1,1 2,2 4,3 5,-3 10,-6 15,-8 5,-3 10,-6 14,-9 9,-6 9,-13 0,-21 -9,-7 -20,-10 -32,-6 -1,7 -1,14 -1,20 0,7 0,14 0,21zm291 50c-6,7 -11,13 -15,18 -5,6 -10,11 -15,16 -4,4 -8,8 -13,12 -4,4 -9,8 -14,11 -16,9 -30,11 -45,4 -14,-6 -22,-18 -26,-36 -4,-25 -4,-48 2,-70 5,-23 18,-42 38,-59 16,-16 36,-24 59,-25 18,-1 34,5 48,17 3,3 6,6 10,9 4,3 7,7 10,11 2,3 4,6 6,10 2,4 2,8 2,12 1,8 1,15 1,22 0,6 -1,14 -1,21 0,11 1,22 1,34 0,11 0,23 0,34 0,3 1,7 1,11 0,4 0,8 0,12 -2,14 -10,21 -23,20 -13,0 -20,-7 -21,-20 -1,-8 -2,-16 -3,-23 0,-8 0,-16 -1,-24 0,-2 0,-4 0,-7 0,-2 0,-6 -1,-10zm-82 15c17,-11 31,-24 42,-40 11,-16 21,-32 32,-48 -7,-10 -16,-14 -26,-10 -10,4 -19,8 -25,14 -14,11 -21,24 -23,39 -2,14 -2,30 0,45zm505 -142c12,2 24,5 34,9 11,4 21,9 31,17 21,17 31,39 31,67 0,21 -4,40 -13,57 -9,17 -23,31 -42,42 -5,3 -11,6 -16,9 -5,2 -10,5 -16,7 -14,5 -26,4 -35,-2 -10,-6 -15,-17 -15,-32 -2,-23 -3,-46 -4,-69 -1,-23 -2,-45 -3,-69 0,-13 0,-26 1,-39 1,-12 2,-25 5,-39 5,-27 16,-49 33,-66 18,-18 38,-32 63,-43 2,-2 5,-3 9,-3 3,-1 6,-2 10,-2 15,-2 25,4 28,17 2,13 -4,22 -20,27 -6,3 -13,5 -19,8 -6,3 -12,6 -17,10 -32,23 -47,54 -45,94zm-2 49c2,18 3,36 3,54 0,18 2,37 4,56 30,-12 45,-33 46,-63 0,-14 -5,-25 -15,-34 -9,-9 -22,-13 -38,-13zm192 70c5,-12 11,-22 17,-33 5,-11 12,-21 18,-33 4,-6 8,-13 13,-18 5,-6 9,-12 14,-17 4,-5 8,-8 13,-10 5,-2 10,-2 16,1 11,4 17,12 17,26l0 26c0,20 -1,40 -1,60 0,19 0,39 -1,59 0,2 0,4 0,6 0,3 0,5 -1,8 -1,6 -4,11 -9,15 -6,4 -11,5 -17,4 -13,-2 -19,-10 -19,-24l0 -40c0,-6 0,-12 -1,-18 0,-6 -1,-13 -3,-20 -1,3 -3,6 -5,9 -1,2 -3,5 -5,8 -5,10 -11,19 -16,29 -6,9 -12,19 -18,28 -5,7 -11,13 -17,17 -10,5 -19,6 -27,2 -9,-3 -14,-11 -16,-21 -2,-15 -3,-29 -2,-41 1,-21 1,-41 2,-61 1,-21 1,-41 2,-62 1,-3 1,-5 1,-8 0,-2 0,-4 1,-6 3,-13 11,-18 24,-17 5,1 10,3 14,6 4,3 6,8 6,13 0,7 0,14 0,22 0,8 -1,15 -1,22 0,12 -1,23 -1,33 0,11 -1,22 -1,34 0,0 1,0 1,0 0,0 1,1 2,1zm280 -78l-40 0 0 21c0,12 -1,24 0,35 0,12 0,23 -2,34 -1,10 -3,18 -6,27 -2,8 -5,16 -9,25 -1,4 -3,8 -7,11 -4,4 -7,7 -10,11 -5,3 -10,5 -16,6 -5,0 -11,0 -16,-2 -5,-2 -10,-5 -14,-9 -4,-4 -7,-9 -8,-14 -2,-8 -2,-15 3,-21 4,-7 10,-10 19,-11 2,0 4,0 5,1 2,0 4,0 7,0 3,-9 5,-18 7,-28 1,-10 2,-19 2,-29 0,-9 0,-17 0,-26 0,-8 -1,-17 -1,-26 0,-3 0,-6 0,-8 0,-2 0,-5 1,-8 1,-19 10,-29 26,-31 12,-1 24,-2 37,-3 12,0 24,0 36,1 8,0 14,3 19,8 6,5 9,12 10,20 2,13 3,25 2,36 -1,21 -2,42 -4,63 -1,20 -2,41 -4,62 0,4 0,7 -1,9 -2,11 -9,17 -21,19 -6,0 -10,-2 -14,-5 -4,-4 -7,-8 -8,-13 -2,-6 -2,-14 -1,-23 1,-18 3,-37 4,-54 1,-18 2,-36 4,-55 0,-3 1,-7 0,-10 0,-4 0,-8 0,-13zm137 91c0,8 2,14 5,19 2,6 5,11 9,16 8,7 16,9 25,5 11,-5 19,-12 25,-22 1,-2 3,-5 4,-7 1,-2 2,-5 4,-8 6,-9 15,-12 25,-8 4,3 7,6 9,10 2,4 3,9 1,14 -5,17 -14,31 -27,43 -13,12 -29,19 -48,21 -16,2 -29,-3 -40,-14 -8,-7 -14,-14 -18,-21 -5,-7 -8,-15 -11,-24 -5,-14 -8,-29 -10,-43 -2,-14 -1,-29 2,-44 7,-35 29,-56 64,-63 6,-1 11,-2 16,-1 5,1 9,2 14,4 15,5 27,15 36,30 9,16 12,31 11,47 -2,21 -14,34 -34,40 -5,1 -10,2 -15,2 -5,0 -11,1 -16,1 -4,1 -9,1 -13,1 -4,0 -8,0 -12,0 -2,1 -3,1 -3,1 -1,0 -2,1 -3,1zm-6 -41c9,-1 18,-1 26,-2 8,0 17,0 26,-1 7,-1 10,-5 9,-12 -1,-3 -1,-6 -2,-8 -1,-3 -2,-5 -3,-8 -8,-14 -19,-17 -35,-11 -8,4 -14,10 -17,17 -3,7 -4,16 -4,25zm192 -45l-27 0c-3,0 -6,0 -9,0 -2,0 -5,0 -9,-1 -5,-1 -9,-3 -13,-7 -3,-4 -5,-8 -5,-13 -1,-12 4,-20 16,-23 2,-1 2,-1 3,-1 0,0 1,0 2,-1 15,-1 31,-3 46,-4 15,-1 30,-2 45,-3 4,0 7,0 9,0 3,0 6,0 9,1 6,1 11,3 14,7 4,5 6,9 6,15 0,11 -6,18 -18,21 -3,2 -7,2 -10,2 -4,0 -8,1 -12,1 0,14 -1,26 -1,39 -1,13 -1,25 -1,38 0,11 -1,22 -1,32 0,11 0,21 0,32 0,5 0,9 -1,11 -2,14 -9,21 -22,21 -6,0 -11,-2 -16,-6 -4,-4 -6,-10 -6,-17 0,-16 0,-32 0,-48 1,-15 1,-31 1,-47 0,-8 1,-16 0,-24 0,-8 0,-16 0,-25zm261 81c-6,7 -11,13 -15,18 -4,6 -9,11 -14,16 -4,4 -9,8 -13,12 -5,4 -10,8 -15,11 -15,9 -30,11 -44,4 -14,-6 -23,-18 -26,-36 -5,-25 -5,-48 1,-70 6,-23 18,-42 38,-59 17,-16 36,-24 60,-25 17,-1 33,5 47,17 3,3 7,6 10,9 4,3 8,7 11,11 2,3 4,6 5,10 2,4 3,8 3,12 0,8 1,15 0,22 0,6 0,14 0,21 0,11 0,22 0,34 1,11 1,23 1,34 0,3 0,7 0,11 1,4 1,8 1,12 -2,14 -10,21 -24,20 -13,0 -20,-7 -21,-20 -1,-8 -2,-16 -2,-23 -1,-8 -1,-16 -2,-24 0,-2 0,-4 0,-7 0,-2 0,-6 -1,-10zm-82 15c17,-11 31,-24 42,-40 11,-16 22,-32 32,-48 -7,-10 -16,-14 -25,-10 -11,4 -20,8 -26,14 -13,11 -21,24 -23,39 -2,14 -2,30 0,45zm-2272 297c-9,0 -18,-1 -26,-1 -8,0 -17,2 -26,4l-3 51c-1,15 -1,30 -1,45 0,15 -1,30 -1,45 0,2 0,4 0,6 0,3 -1,5 -2,7 -4,13 -11,19 -23,17 -13,-2 -19,-9 -19,-22 0,-8 0,-15 0,-23 0,-8 1,-16 1,-23 1,-14 1,-27 1,-41 0,-14 0,-28 1,-42l3 -27c2,-16 11,-27 26,-33 4,-2 9,-3 14,-4 5,-1 10,-2 16,-2 7,-1 14,-2 22,-2 8,1 16,1 23,1 20,0 32,10 36,30 2,9 3,20 3,31 -1,21 -2,42 -2,63 -1,20 -2,41 -2,62l0 7c-2,14 -10,22 -23,22 -13,-2 -20,-9 -21,-23 0,-7 0,-15 1,-22 0,-7 0,-15 0,-22 1,-14 1,-29 2,-43 0,-15 0,-29 1,-44 0,-2 0,-5 0,-8 -1,-2 -1,-5 -1,-9zm96 107c-3,-16 -4,-32 -4,-47 0,-15 3,-29 9,-44 10,-26 28,-43 55,-51 8,-3 16,-3 24,-1 27,7 45,24 52,51 5,23 7,45 6,66 -2,21 -7,43 -18,64 -5,10 -12,18 -21,24 -8,6 -17,9 -27,9 -10,1 -19,-1 -29,-5 -9,-3 -18,-10 -25,-19 -6,-8 -10,-15 -14,-24 -3,-8 -6,-16 -8,-23zm94 -75c0,-1 -1,-3 -1,-4 0,-2 0,-4 -2,-6 -6,-14 -16,-17 -27,-10 -8,6 -14,13 -17,21 -6,15 -8,30 -7,44 1,14 5,28 13,42 0,3 2,6 6,9 3,4 7,6 12,6 5,0 9,-3 12,-8 2,-3 4,-7 5,-10 10,-26 12,-54 6,-84zm419 101c10,3 19,3 28,1 10,-1 19,-2 28,-3 2,-25 3,-50 4,-73 0,-24 1,-48 2,-72 0,-6 0,-10 1,-12 1,-6 4,-10 9,-13 4,-3 9,-5 14,-5 13,0 20,7 22,21 0,11 0,23 0,37 -1,13 -2,27 -2,41 -1,14 -2,27 -2,40 -1,14 -1,25 0,36 2,1 4,2 4,2 12,1 21,5 25,11 4,7 6,16 4,29 0,11 -6,18 -17,20 -11,4 -19,0 -24,-10 -2,-1 -3,-2 -4,-3 -1,-1 -2,-3 -3,-6 -10,1 -20,2 -31,2 -10,0 -21,1 -31,2 -17,2 -32,0 -45,-5 -10,-3 -17,-8 -21,-14 -5,-5 -7,-14 -8,-24l0 -69c0,-14 0,-28 0,-42 0,-15 1,-29 1,-42 0,-8 2,-14 4,-19 2,-5 5,-8 10,-10 4,-2 8,-3 13,-2 5,1 10,4 14,7 4,3 6,7 6,13 0,25 -1,49 -2,74 -2,24 -2,48 0,71 0,3 0,6 0,9 1,2 1,5 1,8zm228 -38c0,8 2,14 5,19 2,5 5,11 9,16 8,7 16,9 25,5 11,-5 19,-12 25,-22 1,-2 3,-5 4,-7 1,-3 2,-5 4,-8 6,-10 15,-12 25,-8 4,3 7,6 9,10 2,4 3,9 1,14 -5,17 -14,31 -27,43 -13,12 -29,19 -48,20 -16,2 -29,-2 -40,-13 -8,-7 -14,-14 -18,-21 -5,-7 -8,-15 -11,-24 -5,-14 -8,-29 -10,-43 -2,-14 -1,-29 2,-44 7,-35 29,-56 64,-63 6,-2 11,-2 16,-1 5,1 9,2 14,4 15,5 27,15 36,30 9,16 13,31 11,47 -2,21 -14,34 -34,39 -5,2 -10,3 -15,3 -5,0 -10,1 -16,1 -4,1 -9,1 -13,1 -4,0 -8,0 -12,0 -2,1 -3,1 -3,1 -1,0 -2,1 -3,1zm-6 -41c9,-1 18,-1 26,-2 8,0 17,-1 26,-1 7,-1 10,-5 9,-12 -1,-3 -1,-6 -2,-8 -1,-3 -2,-5 -3,-8 -8,-14 -19,-17 -35,-11 -8,4 -14,10 -17,17 -3,7 -4,16 -4,25zm256 -17c1,-9 1,-17 2,-24 0,-8 0,-16 0,-24l0 -12c3,-12 11,-18 22,-18 5,0 10,2 13,5 4,3 6,7 7,13 0,8 1,17 1,25 0,9 0,18 1,26 0,19 0,39 0,58 0,20 1,40 2,59 0,14 -7,21 -20,23 -5,1 -11,-1 -15,-5 -5,-4 -8,-10 -9,-16 -1,-6 -1,-12 -1,-19 0,-6 0,-12 0,-19 -1,-4 -1,-9 -1,-14 0,-4 0,-9 0,-14 -9,0 -18,1 -26,1 -8,0 -16,1 -24,1 0,11 0,21 -1,31 0,10 -1,20 -1,30 0,3 0,6 -1,9 0,2 -1,5 -2,7 -2,5 -6,9 -10,11 -5,2 -10,2 -15,1 -10,-2 -15,-9 -15,-21 -1,-9 -1,-17 0,-25 0,-9 0,-17 0,-26l0 -114c0,-6 0,-11 1,-14 1,-6 4,-10 9,-13 4,-3 9,-4 14,-3 11,1 17,8 19,20 0,6 1,13 1,19 0,6 0,13 0,19l0 24c4,0 9,0 13,0 3,1 8,1 12,1 4,0 7,0 11,-1 4,0 9,0 13,-1z"/>
    <path class="fil3" d="M2118 1205c1,8 2,14 5,19 2,5 6,11 10,16 7,7 15,9 24,5 11,-5 19,-12 25,-22 2,-2 3,-5 4,-7 1,-3 3,-5 4,-8 7,-10 15,-12 25,-8 4,3 8,6 10,10 2,4 2,9 1,14 -6,17 -15,31 -27,43 -13,12 -29,19 -48,20 -16,2 -30,-2 -41,-13 -7,-7 -13,-14 -18,-21 -4,-7 -8,-15 -11,-24 -4,-14 -8,-29 -10,-43 -2,-14 -1,-29 2,-44 8,-35 29,-56 65,-63 5,-2 10,-2 15,-1 5,1 10,2 14,4 16,5 28,15 36,30 9,16 13,31 11,47 -2,21 -13,34 -34,39 -5,2 -10,3 -15,3 -5,0 -10,1 -15,1 -5,1 -9,1 -13,1 -4,0 -9,0 -13,0 -1,1 -2,1 -3,1 -1,0 -2,1 -3,1zm-6 -41c9,-1 18,-1 26,-2 8,0 17,-1 26,-1 7,-1 10,-5 9,-12 0,-3 -1,-6 -2,-8 0,-3 -1,-5 -3,-8 -8,-14 -19,-17 -34,-11 -9,4 -15,10 -18,17 -3,7 -4,16 -4,25zm444 53c-3,-16 -5,-32 -4,-47 0,-15 3,-29 9,-44 10,-26 28,-43 55,-51 7,-3 16,-3 24,-1 27,7 44,24 52,51 5,23 7,45 6,66 -2,21 -8,43 -18,64 -5,10 -12,18 -21,24 -8,6 -18,9 -27,9 -10,1 -19,-1 -29,-5 -9,-3 -18,-10 -25,-19 -6,-8 -11,-15 -14,-24 -3,-8 -6,-16 -8,-23zm94 -75c0,-1 -1,-3 -1,-4 0,-2 0,-4 -2,-6 -6,-14 -16,-17 -27,-10 -8,6 -14,13 -17,21 -6,15 -9,30 -7,44 1,14 5,28 13,42 0,3 2,6 6,9 3,4 7,6 12,6 5,0 9,-3 12,-8 2,-3 4,-7 5,-10 10,-26 12,-54 6,-84zm259 95c10,4 16,8 19,13 4,5 5,12 3,22 -1,9 -6,15 -13,18 -8,4 -16,3 -23,-5 -2,-1 -3,-2 -5,-3 -1,-1 -3,-1 -5,-1 -14,0 -28,0 -42,0 -13,0 -27,1 -41,2 -5,0 -9,0 -11,0 -5,0 -8,3 -10,8 -5,12 -13,16 -23,14 -10,-2 -16,-9 -17,-22 -1,-11 0,-19 4,-23 4,-5 11,-9 22,-12 2,-1 4,-2 7,-2 2,0 4,-1 7,-2 1,-13 1,-26 2,-38 1,-12 1,-25 2,-38 1,-6 1,-11 1,-16 1,-5 1,-11 2,-16 3,-25 14,-45 34,-59 16,-12 33,-15 51,-9 17,6 28,19 33,38 1,8 2,15 2,21 0,7 1,14 1,21 0,13 0,27 0,40 0,14 -1,27 -1,41 0,3 0,6 1,8zm-42 2c0,-1 0,-2 1,-3 0,-1 0,-2 0,-3 0,-16 0,-32 1,-48 0,-16 0,-32 0,-48 0,-3 0,-7 0,-11 0,-4 -1,-7 -2,-11 -3,-10 -9,-13 -19,-8 -13,8 -20,18 -20,32 -2,15 -3,29 -3,43 -1,13 -2,28 -3,42 0,3 0,5 0,8 0,3 0,6 1,9 7,-1 14,-1 22,-1 7,0 15,0 22,-1zm204 -92c1,-9 1,-17 2,-24 0,-8 0,-16 0,-24l0 -12c3,-12 11,-18 22,-18 5,0 10,2 13,5 4,3 6,7 7,13 0,8 1,17 1,25 0,9 0,18 1,26 0,19 0,39 0,58 0,20 1,40 2,59 0,14 -7,21 -20,23 -5,1 -11,-1 -15,-5 -5,-4 -8,-10 -9,-16 -1,-6 -1,-12 -1,-19 0,-6 0,-12 0,-19 -1,-4 -1,-9 -1,-14 0,-4 0,-9 0,-14 -9,0 -18,1 -26,1 -8,0 -16,1 -24,1 0,11 0,21 -1,31 0,10 -1,20 -1,30 0,3 0,6 -1,9 0,2 -1,5 -2,7 -2,5 -6,9 -10,11 -5,2 -10,2 -15,1 -10,-2 -15,-9 -15,-21 0,-9 -1,-17 0,-25 0,-9 0,-17 0,-26l0 -114c0,-6 0,-11 1,-14 1,-6 4,-10 9,-13 4,-3 9,-4 14,-3 11,1 17,8 19,20 0,6 1,13 1,19 0,6 0,13 0,19l0 24c4,0 9,0 13,0 4,1 8,1 12,1 4,0 7,0 11,-1 4,0 9,0 13,-1zm96 70c-3,-16 -4,-32 -4,-47 0,-15 3,-29 9,-44 10,-26 28,-43 55,-51 8,-3 16,-3 24,-1 27,7 45,24 52,51 5,23 7,45 6,66 -1,21 -7,43 -18,64 -5,10 -12,18 -21,24 -8,6 -17,9 -27,9 -10,1 -19,-1 -29,-5 -9,-3 -18,-10 -25,-19 -6,-8 -10,-15 -14,-24 -3,-8 -6,-16 -8,-23zm94 -75c0,-1 -1,-3 -1,-4 0,-2 0,-4 -2,-6 -6,-14 -15,-17 -27,-10 -8,6 -14,13 -17,21 -6,15 -8,30 -7,44 1,14 6,28 13,42 0,3 2,6 6,9 3,4 7,6 12,6 5,0 9,-3 12,-8 2,-3 4,-7 5,-10 10,-26 12,-54 6,-84zm93 36c0,-10 1,-19 1,-30 0,-11 0,-21 2,-32 1,-18 8,-32 20,-42 12,-10 27,-14 45,-12 12,1 23,4 32,7 5,2 10,5 12,10 3,5 4,11 4,17 0,9 -3,16 -11,20 -7,4 -15,4 -23,-1 -3,-1 -6,-2 -8,-4 -3,-2 -6,-3 -9,-4 -11,-2 -16,3 -17,14 -1,9 -1,19 -2,27 -1,9 -1,18 0,28 1,15 2,30 3,44 1,14 2,29 3,44 1,14 -5,23 -18,26 -6,2 -12,1 -18,-3 -5,-4 -8,-9 -9,-15 -2,-8 -3,-15 -3,-21 -1,-7 -2,-14 -2,-21 -1,-8 -1,-17 -1,-25 0,-8 -1,-17 -1,-27zm146 39c-3,-16 -4,-32 -4,-47 0,-15 3,-29 9,-44 10,-26 28,-43 55,-51 8,-3 16,-3 24,-1 27,7 45,24 52,51 5,23 7,45 6,66 -2,21 -8,43 -18,64 -5,10 -12,18 -21,24 -8,6 -17,9 -27,9 -10,1 -19,-1 -29,-5 -9,-3 -18,-10 -25,-19 -6,-8 -11,-15 -14,-24 -3,-8 -6,-16 -8,-23zm94 -75c0,-1 -1,-3 -1,-4 0,-2 0,-4 -2,-6 -6,-14 -16,-17 -27,-10 -8,6 -14,13 -17,21 -6,15 -8,30 -7,44 1,14 5,28 13,42 0,3 2,6 6,9 3,4 7,6 12,6 5,0 9,-3 12,-8 2,-3 4,-7 5,-10 10,-26 12,-54 6,-84zm-2498 407c1,-9 2,-17 2,-24 0,-8 0,-16 0,-24l0 -12c4,-12 11,-18 22,-18 5,0 10,2 14,5 3,3 5,7 6,13 1,8 1,17 1,25 0,9 0,17 1,26 0,19 0,39 0,58 1,20 1,40 2,59 0,14 -7,21 -20,22 -5,2 -10,0 -15,-4 -5,-4 -8,-10 -9,-16 0,-6 -1,-12 -1,-19 0,-6 0,-12 0,-19 0,-5 -1,-9 -1,-14 0,-4 0,-9 0,-15 -9,1 -17,2 -25,2 -8,0 -16,1 -25,1 0,11 0,21 -1,31 0,10 0,20 -1,30 0,3 0,6 -1,9 0,2 -1,5 -2,7 -2,5 -5,8 -10,10 -5,2 -9,3 -15,1 -10,-2 -15,-8 -15,-20 0,-9 0,-17 0,-26 0,-8 0,-16 0,-25l0 -115c0,-6 1,-10 1,-13 2,-6 5,-10 9,-13 4,-3 9,-4 14,-3 11,1 18,8 19,20 1,6 1,13 1,19 0,6 0,13 0,19l0 24c5,0 9,0 13,0 4,1 8,1 13,1 3,0 7,0 11,-1 4,0 8,0 12,-1zm221 52c-6,8 -11,14 -15,19 -4,5 -9,11 -14,16 -4,4 -9,8 -13,12 -5,4 -10,7 -15,11 -15,9 -30,10 -44,4 -14,-6 -23,-18 -26,-36 -5,-25 -4,-49 1,-71 6,-22 18,-41 38,-59 17,-15 37,-23 60,-24 17,-1 33,5 47,17 3,3 7,6 10,9 4,3 8,6 11,10 2,4 4,7 5,11 2,4 3,8 3,12 0,7 1,14 0,21 0,7 0,14 0,22 0,11 0,22 0,34 1,11 1,23 1,34 0,3 0,7 0,11 1,4 1,8 1,12 -2,14 -10,21 -24,19 -13,0 -19,-6 -21,-19 -1,-8 -2,-16 -2,-24 -1,-7 -1,-15 -2,-23 0,-2 0,-4 0,-7 0,-2 0,-6 -1,-11zm-82 16c17,-11 31,-25 42,-40 11,-16 22,-32 32,-48 -7,-10 -15,-14 -25,-10 -11,4 -19,8 -26,14 -13,11 -21,24 -23,39 -2,14 -2,29 0,45zm568 -55c3,2 6,3 9,5 3,1 6,2 9,4 15,8 24,20 28,35 4,15 0,29 -10,43 -10,13 -22,22 -36,27 -15,5 -30,8 -46,9 -5,0 -10,0 -14,0 -5,0 -10,-1 -14,-2 -14,-1 -24,-5 -30,-10 -6,-6 -9,-16 -9,-29 0,-25 0,-50 1,-75 0,-25 0,-50 -2,-76 0,-17 10,-26 28,-26 13,0 25,1 39,3 15,2 28,7 39,16 11,9 17,20 20,33 1,8 1,15 -1,22 -2,7 -6,13 -11,21zm-70 80c17,4 33,3 47,-2 9,-3 16,-8 22,-14 9,-8 8,-14 -3,-20 -20,-10 -42,-13 -64,-9 0,8 0,16 -1,23 0,7 -1,15 -1,22zm0 -90c1,1 2,1 4,3 5,-3 10,-6 15,-9 5,-2 10,-5 14,-8 9,-7 9,-14 0,-21 -9,-8 -20,-10 -32,-7 -1,8 -1,14 -1,21 0,7 0,14 0,21zm208 55c0,8 2,14 5,19 2,5 6,11 10,16 7,7 15,9 24,5 11,-5 19,-12 25,-22 1,-3 3,-5 4,-7 1,-3 3,-5 4,-8 7,-10 15,-12 25,-8 4,3 8,6 10,10 2,4 2,9 1,14 -6,17 -15,31 -28,43 -12,12 -28,19 -48,20 -15,2 -29,-2 -40,-13 -7,-7 -13,-14 -18,-21 -5,-7 -8,-15 -11,-24 -4,-15 -8,-29 -10,-43 -2,-14 -1,-29 2,-44 8,-35 29,-56 65,-63 5,-2 10,-2 15,-1 5,1 10,2 14,4 15,5 28,15 36,30 9,15 13,31 11,47 -2,21 -13,34 -34,39 -5,2 -10,2 -15,3 -5,0 -10,1 -16,1 -4,1 -8,1 -12,1 -4,0 -9,0 -13,0 -2,1 -3,1 -3,1 -1,0 -2,1 -3,1zm-6 -41c9,-1 18,-1 26,-2 8,0 17,-1 26,-1 7,-1 10,-5 9,-12 0,-3 -1,-6 -2,-9 0,-2 -1,-4 -3,-7 -8,-14 -19,-17 -34,-11 -9,4 -15,10 -18,17 -3,7 -4,15 -4,25zm260 8c2,-15 2,-30 0,-44 -1,-15 -1,-30 0,-44 2,-14 10,-20 24,-20 15,0 22,6 22,20 0,11 1,23 1,35 0,12 0,24 0,36l0 100c0,5 -1,9 -1,12 -2,10 -9,15 -22,15 -12,0 -20,-5 -23,-15 0,-4 -1,-9 -1,-15l0 -39 -15 0c-41,1 -67,-15 -78,-47 -4,-14 -6,-27 -7,-41 0,-14 0,-27 0,-40 0,-6 3,-10 7,-14 4,-3 9,-5 14,-5 15,-2 23,4 24,18 1,6 2,11 1,17 0,6 0,12 1,18 1,6 1,12 2,17 1,6 2,12 3,17 3,10 7,17 12,20 6,3 15,4 27,2 2,-1 3,-1 4,-1 1,0 3,-1 5,-2zm142 33c1,8 2,14 5,19 3,5 6,11 10,16 7,7 15,9 25,5 10,-5 18,-12 24,-22 2,-3 3,-5 4,-7 2,-3 3,-5 4,-8 7,-10 15,-12 25,-8 5,3 8,6 10,10 2,4 2,9 1,14 -5,17 -14,31 -27,43 -13,12 -29,19 -48,20 -16,2 -30,-2 -41,-13 -7,-7 -13,-14 -18,-21 -4,-7 -8,-15 -11,-24 -4,-15 -7,-29 -9,-43 -2,-14 -2,-29 2,-44 7,-35 28,-56 64,-63 5,-2 10,-2 15,-1 5,1 10,2 15,4 15,5 27,15 36,30 9,15 12,31 10,47 -2,21 -13,34 -34,39 -5,2 -10,2 -15,3 -5,0 -10,1 -15,1 -5,1 -9,1 -13,1 -4,0 -8,0 -13,0 -1,1 -2,1 -3,1 -1,0 -2,1 -3,1zm-6 -41c9,-1 18,-1 26,-2 9,0 17,-1 27,-1 6,-1 9,-5 8,-12 0,-3 -1,-6 -2,-9 0,-2 -1,-4 -2,-7 -8,-14 -20,-17 -35,-11 -9,4 -14,10 -17,17 -3,7 -5,15 -5,25zm210 121c0,11 0,20 0,29 -1,9 -1,18 0,27 0,7 0,15 1,23 1,7 1,15 0,23 0,4 0,7 -1,10 -1,3 -3,6 -6,9 -4,5 -11,7 -18,6 -8,0 -13,-4 -16,-11 -2,-3 -3,-5 -3,-8 0,-2 -1,-5 -1,-8 -2,-45 -3,-90 -5,-135 -2,-44 0,-89 5,-135 0,-5 0,-9 1,-12 2,-9 5,-15 9,-19 4,-4 11,-7 20,-8 35,-6 66,4 91,27 10,10 17,20 22,31 4,11 6,23 6,37 1,9 0,18 -2,28 -1,9 -3,19 -5,28 -5,20 -16,35 -31,44 -16,9 -30,14 -44,14 -4,1 -8,1 -12,1 -3,0 -7,-1 -11,-1zm-4 -44c7,-1 12,-1 17,-1 5,0 9,0 13,-1 5,-1 10,-3 15,-6 4,-3 8,-7 10,-12 4,-11 7,-23 8,-34 2,-12 0,-23 -3,-34 -4,-11 -11,-20 -21,-25 -10,-6 -22,-7 -35,-5 -1,19 -1,38 -2,58 -1,19 -1,39 -2,60zm202 -50c6,-11 12,-22 18,-32 5,-11 11,-22 18,-33 4,-6 8,-13 13,-19 4,-6 9,-11 14,-17 4,-4 8,-7 13,-9 5,-2 10,-2 15,1 12,4 18,12 18,25l0 27c-1,20 -1,40 -1,59 0,20 0,40 -1,60 0,2 0,4 0,6 0,2 0,5 -1,8 -1,6 -5,11 -10,15 -5,4 -11,5 -17,3 -12,-1 -18,-9 -18,-23l0 -40c0,-6 -1,-12 -1,-18 0,-7 -1,-13 -3,-21 -2,4 -3,7 -5,9 -1,3 -3,6 -5,9 -6,10 -11,19 -17,28 -5,10 -11,19 -17,29 -5,7 -11,13 -18,16 -9,6 -18,7 -26,3 -9,-4 -14,-11 -16,-21 -2,-15 -3,-29 -2,-41 0,-21 1,-42 2,-62 0,-20 1,-40 2,-62 0,-2 1,-5 1,-7 0,-2 0,-4 1,-6 3,-13 11,-19 23,-17 6,0 10,2 14,6 4,3 6,7 6,13 1,7 1,14 1,22 -1,7 -1,15 -2,22 0,11 0,22 0,33 -1,11 -1,22 -2,33 1,0 1,1 2,1 0,0 1,0 1,0z"/>
    <path class="fil3" d="M2989 1549c0,-9 1,-17 1,-24 1,-8 1,-16 1,-24l0 -12c3,-12 10,-18 22,-18 5,0 9,2 13,5 4,3 6,7 6,13 1,8 1,17 1,25 0,9 1,17 1,26 0,19 0,39 1,58 0,20 1,40 1,59 0,14 -6,21 -20,22 -5,2 -10,0 -15,-4 -5,-4 -8,-10 -8,-16 -1,-6 -1,-12 -1,-19 0,-6 0,-12 0,-19 -1,-5 -1,-9 -1,-14 0,-4 0,-9 0,-15 -9,1 -18,2 -26,2 -8,0 -16,1 -25,1 0,11 0,21 0,31 -1,10 -1,20 -2,30 0,3 0,6 0,9 0,2 -1,5 -3,7 -2,5 -5,8 -10,10 -4,2 -9,3 -14,1 -10,-2 -15,-8 -15,-20 -1,-9 -1,-17 -1,-26 1,-8 1,-16 1,-25l0 -115c0,-5 0,-10 1,-13 1,-6 4,-10 8,-13 4,-3 9,-4 15,-3 11,1 17,8 18,20 1,6 1,13 1,19 0,6 0,13 0,19l0 24c5,0 9,0 13,0 4,1 8,1 13,1 3,0 7,0 11,-1 4,0 8,0 13,-1zm156 48c-7,6 -13,11 -17,17 -5,5 -7,13 -5,22 0,5 1,9 1,13 0,5 1,9 1,14 0,14 -7,22 -20,23 -7,2 -12,1 -17,-3 -5,-4 -8,-9 -9,-16 -1,-10 -2,-19 -2,-28 0,-9 0,-18 0,-27 0,-18 0,-37 0,-55 0,-18 0,-36 1,-56 0,-2 0,-4 0,-6 -1,-2 -1,-4 0,-6 1,-6 4,-10 8,-14 5,-3 10,-5 15,-5 5,0 10,1 14,5 4,3 7,8 8,14 1,5 1,10 1,16 0,6 0,12 0,18l0 27c2,-3 4,-5 6,-6 1,-1 2,-2 3,-3 7,-9 14,-18 20,-27 7,-9 13,-18 20,-27 1,-2 2,-3 3,-4 0,-1 1,-2 2,-3 9,-10 18,-12 29,-5 10,5 14,14 10,25 -2,3 -3,6 -4,8 -1,2 -2,5 -4,7 -4,6 -8,12 -12,18 -4,6 -8,12 -13,17 -5,5 -6,11 -3,18 6,15 12,30 17,45 6,15 11,31 17,46 5,15 0,25 -14,29 -14,4 -24,-2 -30,-16 -3,-10 -6,-19 -9,-28 -2,-9 -5,-18 -9,-27 -1,-3 -2,-6 -4,-9 -1,-3 -2,-7 -4,-11zm188 85c-8,-7 -15,-15 -22,-22 -7,-7 -13,-14 -18,-21 -12,-16 -20,-33 -24,-52 -4,-18 -6,-37 -6,-56 0,-5 1,-10 3,-14 3,-5 7,-9 11,-11 5,-2 10,-3 15,-2 13,2 18,10 17,23 -1,21 2,41 9,60 3,10 7,18 12,26 5,7 12,14 20,21 2,-3 3,-5 4,-7 1,-2 2,-4 2,-7 6,-15 10,-31 15,-46 4,-16 9,-32 14,-48 3,-6 5,-11 8,-14 6,-7 13,-9 23,-6 4,2 7,4 10,7 3,4 5,8 5,13 0,5 0,11 -2,18 -10,31 -19,61 -30,91 -10,30 -22,60 -35,90 -6,15 -14,29 -23,42 -9,12 -18,25 -28,37 -10,12 -21,14 -32,5 -5,-3 -8,-8 -9,-14 -1,-6 0,-12 3,-18 4,-4 7,-9 10,-12 3,-4 7,-9 10,-13 9,-11 16,-22 22,-34 5,-13 10,-24 16,-36zm-2293 255c4,2 7,4 10,5 3,1 7,3 10,4 6,4 12,9 16,14 3,4 4,8 4,13 -1,4 -3,8 -6,11 -3,4 -6,7 -11,9 -4,1 -8,1 -13,-1 -7,-3 -14,-6 -21,-9 -7,-3 -14,-7 -21,-10 -23,-14 -27,-33 -10,-56l50 -65c1,-1 3,-3 4,-5 2,-2 4,-4 6,-5 9,-7 18,-7 28,0 9,9 10,18 5,30 -4,5 -7,10 -11,14 -4,4 -7,9 -11,14 -5,6 -9,12 -14,18 -5,5 -10,12 -15,19zm80 -18c5,3 10,7 15,10 5,3 10,7 15,10 13,8 17,17 13,29 -2,6 -6,11 -13,14 -6,4 -12,4 -17,0 -11,-6 -22,-13 -32,-21 -10,-7 -20,-15 -30,-23 -4,-3 -6,-8 -6,-12 1,-5 2,-10 5,-15 6,-12 14,-24 23,-33 10,-10 20,-20 31,-29 5,-4 10,-6 15,-5 5,1 10,3 14,7 9,9 9,19 0,31 -2,2 -4,4 -6,6 -2,2 -4,4 -6,6 -3,4 -5,7 -8,9 -3,3 -5,6 -8,8 -1,2 -3,4 -5,8zm142 -1c0,11 1,22 3,35 3,13 7,26 13,38 5,12 13,23 24,33 14,12 25,10 33,-7 3,-5 5,-10 6,-15 1,-5 2,-10 3,-16 1,-3 2,-6 2,-9 1,-3 2,-6 3,-9 2,-6 5,-9 9,-12 5,-2 9,-3 15,-2 5,1 9,4 13,8 4,4 5,9 5,15 0,15 -3,30 -7,45 -4,15 -12,27 -23,39 -11,11 -25,18 -41,19 -16,1 -31,-4 -44,-14 -13,-10 -23,-22 -30,-35 -8,-13 -14,-27 -19,-43 -16,-55 -15,-109 2,-163 6,-14 12,-28 20,-39 7,-12 17,-22 29,-30 20,-14 41,-15 63,-3 11,5 18,13 23,23 4,10 8,21 10,33 0,6 -1,12 -4,16 -3,5 -7,8 -12,9 -12,3 -21,-1 -28,-13 -1,-2 -2,-5 -2,-8 -1,-2 -1,-5 -3,-8 -4,-12 -12,-15 -22,-9 -3,4 -6,7 -9,10 -4,4 -7,7 -9,11 -8,12 -14,26 -18,42 -3,16 -5,35 -5,59zm555 44c13,10 21,21 24,34 2,13 2,27 -1,42 -2,10 -6,19 -12,27 -5,8 -14,14 -25,17 -12,4 -25,5 -37,4 -12,-1 -24,-6 -34,-16 -5,-3 -10,-9 -14,-15 -3,-6 -4,-11 -3,-16 1,-5 5,-10 10,-13 5,-3 11,-5 16,-4 6,0 10,3 14,8 4,7 10,11 15,12 6,1 14,1 22,-1 2,-5 3,-9 4,-14 1,-5 1,-9 1,-14 0,-8 -2,-14 -8,-17 -5,-4 -12,-5 -20,-4l-11 3c-13,2 -22,-2 -26,-13 -4,-11 0,-20 12,-26 5,-4 10,-7 16,-10 5,-3 10,-7 15,-10 4,-3 8,-6 10,-10 3,-5 3,-9 -1,-14 -3,-1 -7,0 -13,3 -6,3 -11,5 -16,6 -12,5 -20,2 -27,-7 -6,-9 -5,-18 3,-26 4,-4 9,-8 17,-11 7,-3 14,-5 22,-6 8,-1 15,-1 22,1 7,1 14,3 19,7 16,11 23,25 19,43 -2,7 -3,13 -6,19 -2,7 -4,13 -7,21zm205 41c-6,7 -11,14 -15,19 -5,5 -9,11 -15,16 -4,4 -8,8 -13,12 -4,4 -9,7 -14,11 -16,9 -30,10 -44,4 -15,-6 -23,-18 -27,-36 -4,-25 -4,-49 2,-71 5,-22 18,-42 38,-59 16,-15 36,-23 59,-24 18,-1 34,5 48,16 3,4 7,7 10,10 4,3 7,6 11,10 2,4 3,7 5,11 2,4 2,8 2,12 1,7 1,14 1,21 0,7 -1,14 -1,22 0,11 1,22 1,34 0,11 0,23 0,34 0,3 1,7 1,11 0,4 0,8 0,12 -2,14 -9,21 -23,19 -13,0 -20,-6 -21,-19 -1,-8 -2,-16 -3,-24 0,-7 0,-15 -1,-23 0,-2 0,-4 0,-7 0,-3 0,-6 -1,-11zm-82 16c17,-11 31,-25 42,-41 11,-15 22,-31 32,-47 -7,-11 -16,-14 -26,-10 -10,3 -19,8 -25,14 -14,11 -21,24 -23,39 -2,14 -2,29 0,45zm244 -20c-7,6 -13,11 -17,17 -5,5 -7,13 -5,22 0,4 1,9 1,13 1,4 1,9 1,14 0,14 -7,22 -20,23 -7,2 -12,0 -17,-3 -5,-4 -7,-9 -9,-17 -1,-9 -2,-18 -2,-27 0,-9 0,-18 0,-27 0,-18 0,-37 0,-55 0,-18 1,-37 1,-56 0,-2 0,-4 0,-6 -1,-2 0,-5 0,-7 2,-5 4,-9 9,-13 4,-4 9,-5 14,-5 5,0 10,1 14,5 5,3 7,8 8,13 1,6 2,11 1,17 0,6 0,12 0,18l0 27c2,-3 4,-5 6,-6 1,-1 2,-2 4,-3 6,-9 13,-18 19,-27 7,-9 14,-18 20,-28 1,-1 2,-2 3,-3 0,-1 1,-2 2,-3 9,-10 18,-12 29,-5 10,5 14,13 10,25 -2,3 -3,5 -4,8 -1,2 -2,5 -4,7 -4,6 -8,12 -12,18 -4,6 -8,11 -13,17 -5,5 -6,11 -3,18 6,15 12,30 17,45 6,15 11,30 17,46 5,15 0,25 -14,29 -14,4 -24,-2 -30,-17 -3,-9 -6,-18 -9,-27 -2,-9 -5,-18 -9,-27 -1,-3 -2,-6 -4,-9 -1,-3 -2,-7 -4,-11zm168 90c0,11 0,20 -1,29 0,9 0,17 1,27 0,7 0,15 1,22 1,8 1,16 0,24 0,3 -1,7 -2,10 -1,3 -2,6 -5,9 -5,5 -11,7 -18,6 -8,-1 -13,-4 -17,-11 -1,-3 -2,-5 -2,-8 0,-3 -1,-5 -2,-8 -1,-45 -2,-90 -4,-135 -2,-44 0,-89 4,-135 0,-5 1,-9 1,-12 2,-9 6,-16 10,-20 4,-3 11,-6 20,-7 35,-6 65,4 91,27 10,9 17,20 21,31 5,11 7,23 7,37 0,9 0,18 -2,28 -1,9 -3,19 -5,28 -5,20 -16,35 -31,44 -16,9 -30,14 -44,14 -4,1 -8,1 -12,1 -3,-1 -7,-1 -11,-1zm-4 -44c7,-1 12,-1 17,-1 4,0 9,-1 13,-1 5,-2 10,-4 14,-6 5,-3 8,-7 10,-12 5,-11 8,-23 9,-34 2,-12 0,-23 -4,-34 -3,-11 -10,-20 -20,-26 -10,-5 -22,-7 -35,-4 -1,19 -1,38 -2,57 -1,20 -1,40 -2,61zm198 -95c8,0 13,0 16,1 24,1 43,8 55,22 12,13 16,30 11,50 -3,15 -12,28 -26,41 -13,12 -28,20 -43,23 -16,4 -29,2 -39,-4 -10,-6 -15,-16 -16,-30 -1,-8 -1,-15 -1,-21 0,-7 0,-14 0,-21l-3 -113c0,-5 1,-10 3,-15 4,-9 11,-13 21,-11 11,0 17,4 19,13 1,3 2,6 2,8 0,2 0,5 1,8l0 49zm5 40c-2,10 -3,20 -2,32 0,12 1,20 4,26 13,-5 22,-14 28,-27 2,-4 3,-8 4,-12 0,-5 -1,-9 -5,-13 -8,-6 -17,-8 -29,-6zm132 64c0,3 0,6 0,9 0,2 -1,5 -2,7 -4,10 -11,14 -22,14 -11,0 -18,-5 -21,-16 -1,-1 -1,-4 -1,-6 0,-2 0,-4 0,-6 0,-25 0,-49 0,-73 0,-24 0,-48 -1,-73 0,-3 0,-6 0,-10 0,-3 0,-6 1,-10 1,-14 9,-21 24,-21 14,0 22,7 22,22 0,8 0,19 0,35 0,15 1,31 1,48 0,17 0,33 0,48 0,14 -1,25 -1,32zm114 -131l-27 0c-3,-1 -6,-1 -9,0 -3,0 -6,0 -9,-1 -5,-1 -9,-4 -13,-7 -3,-4 -5,-8 -5,-14 -1,-12 4,-19 16,-22 1,-1 2,-1 3,-1 0,0 1,-1 2,-1 15,-2 30,-3 46,-4 15,-1 30,-2 45,-3 3,0 6,0 9,0 3,0 6,0 9,1 6,0 11,3 14,7 4,4 6,9 6,14 0,12 -6,19 -18,22 -3,1 -7,2 -11,2 -3,0 -7,0 -11,1 -1,13 -1,26 -1,39 -1,12 -1,25 -1,37 -1,12 -1,22 -1,33 0,11 0,21 0,32 0,5 0,9 -1,10 -2,14 -9,21 -23,21 -6,0 -11,-2 -15,-6 -4,-4 -6,-9 -6,-16 0,-16 0,-32 0,-48 0,-16 1,-32 1,-47 0,-8 0,-16 0,-24 0,-8 0,-16 0,-25zm176 27c8,0 13,0 16,1 24,1 43,8 55,22 12,13 16,30 11,50 -3,15 -12,28 -26,41 -13,12 -28,20 -43,23 -16,4 -29,2 -39,-4 -10,-6 -15,-16 -17,-30 0,-8 -1,-15 -1,-21 0,-7 0,-14 0,-21l-3 -113c0,-5 1,-10 3,-15 4,-9 12,-13 22,-11 11,0 17,4 19,13 1,3 2,6 2,8 0,2 0,5 1,8l0 49zm5 40c-2,10 -3,20 -3,32 1,12 2,20 5,26 13,-5 22,-14 28,-27 2,-4 3,-8 4,-12 0,-5 -1,-9 -5,-13 -8,-6 -17,-8 -29,-6zm132 64c0,3 0,6 0,9 0,2 -1,5 -2,7 -4,10 -11,14 -22,14 -11,0 -18,-5 -21,-16 -1,-1 -1,-4 -1,-6 0,-2 0,-4 0,-6 0,-25 0,-49 0,-73 0,-24 0,-48 -1,-73 0,-3 0,-6 0,-10 0,-3 0,-6 1,-10 1,-14 9,-21 24,-21 14,0 22,7 22,22 0,8 0,19 0,35 0,15 0,31 0,48 0,17 0,33 0,48 0,14 0,25 0,32zm158 -57c3,-12 6,-23 9,-33 3,-11 7,-21 11,-32 4,-13 9,-25 17,-38 4,-6 11,-12 19,-17 8,-4 15,-5 23,-2 7,2 13,8 16,15 5,10 7,19 7,27 1,25 2,49 3,73 1,24 2,48 3,72 0,7 -2,13 -6,17 -4,5 -9,8 -15,8 -6,0 -12,-2 -16,-6 -4,-4 -6,-10 -7,-17 0,-17 -1,-33 -1,-49 0,-17 -1,-33 -3,-49 0,-4 -1,-7 -4,-9 0,2 -1,5 -2,7 0,2 -1,5 -2,7 -3,12 -7,24 -11,37 -4,12 -7,24 -11,36 -2,7 -5,13 -10,18 -4,5 -10,7 -18,7 -8,0 -14,-3 -18,-8 -5,-5 -8,-11 -12,-17 -3,-9 -6,-18 -10,-26 -4,-9 -7,-17 -10,-27 -2,-2 -3,-5 -4,-7 -1,-2 -3,-5 -5,-7l-3 50c-2,7 -2,14 -3,21 0,6 -1,13 -1,20 -2,17 -10,25 -24,23 -15,-1 -21,-10 -19,-27 2,-20 3,-38 4,-57 1,-18 3,-37 5,-56 1,-9 2,-17 3,-25 1,-9 3,-17 4,-25 1,-3 2,-6 3,-9 1,-3 3,-6 4,-9 5,-8 12,-13 20,-13 8,-1 16,2 23,10 5,7 9,16 12,26 4,12 8,24 12,36 3,13 7,25 10,37 1,3 2,6 3,8 1,3 3,6 4,10z"/>
    <path class="fil3" d="M3471 1995c6,-11 12,-22 17,-32 6,-11 12,-22 19,-33 4,-7 8,-13 13,-19 4,-6 9,-11 13,-17 4,-4 9,-8 14,-9 5,-2 10,-2 15,0 12,4 18,13 18,26l0 27c-1,20 -1,39 -1,59 0,20 0,40 -1,60 0,2 0,4 0,6 0,2 0,5 -1,7 -1,7 -5,12 -10,16 -5,3 -11,5 -17,3 -12,-1 -19,-9 -19,-23l0 -40c0,-6 0,-12 0,-18 0,-7 -2,-13 -3,-21 -2,4 -3,7 -5,9 -2,3 -3,6 -5,9 -6,9 -11,19 -17,28 -5,10 -11,19 -17,29 -5,7 -11,12 -18,16 -9,6 -18,6 -27,3 -8,-4 -13,-11 -15,-21 -2,-16 -3,-29 -2,-41 0,-21 1,-42 2,-62 0,-20 1,-41 2,-62 0,-2 1,-5 1,-7 0,-2 0,-4 1,-6 3,-13 11,-19 23,-17 6,0 10,2 14,6 4,3 6,7 6,13 1,7 1,14 1,22 -1,7 -1,15 -2,22 0,11 0,22 0,33 -1,11 -1,22 -2,33 1,0 1,0 2,1 0,0 0,0 1,0zm-2003 388c1,-9 1,-19 1,-29 0,-11 1,-21 2,-32 1,-18 8,-33 20,-43 13,-9 28,-13 45,-11 13,1 24,3 32,7 6,2 10,5 13,10 3,5 4,10 4,16 0,9 -4,16 -11,21 -7,4 -15,4 -24,-1 -2,-1 -5,-3 -8,-4 -2,-2 -5,-3 -9,-4 -10,-2 -16,3 -16,14 -1,9 -2,18 -2,27 -1,9 -1,18 0,27 0,16 1,30 2,44 1,15 2,29 4,44 1,15 -5,24 -18,27 -7,1 -13,0 -18,-3 -5,-4 -9,-9 -10,-16 -1,-7 -2,-14 -3,-20 -1,-7 -1,-14 -2,-21 -1,-9 -1,-17 -1,-25 0,-9 0,-18 -1,-28zm252 -63l-40 0 0 21c-1,12 -1,23 0,35 0,11 -1,23 -2,34 -1,9 -3,18 -6,26 -2,9 -5,17 -9,25 -1,4 -3,8 -7,12 -4,3 -7,7 -10,10 -5,4 -10,6 -16,6 -5,1 -11,0 -16,-2 -5,-2 -10,-5 -14,-9 -4,-4 -7,-8 -8,-14 -3,-7 -2,-15 3,-21 4,-6 10,-10 19,-10 2,0 4,0 5,0 2,1 4,1 7,1 3,-9 5,-19 7,-28 1,-10 2,-20 2,-30 0,-8 0,-17 0,-25 0,-9 -1,-17 -1,-26 0,-3 0,-6 0,-8 0,-3 0,-6 1,-9 1,-18 10,-29 26,-31 12,-1 24,-2 36,-2 13,0 25,0 37,1 7,0 14,2 19,7 6,6 9,12 10,20 2,13 3,26 2,37 -1,21 -2,42 -4,62 -1,21 -2,41 -4,62 0,4 0,7 -1,9 -2,12 -9,18 -21,19 -6,0 -10,-1 -14,-5 -4,-3 -7,-7 -8,-13 -2,-6 -3,-13 -1,-22 1,-19 2,-37 4,-55 1,-18 2,-36 4,-54 0,-4 1,-7 0,-11 0,-3 0,-7 0,-12zm220 85c-6,7 -11,14 -16,19 -4,5 -9,10 -14,16 -4,4 -8,8 -13,12 -5,4 -10,7 -15,10 -15,10 -30,11 -44,5 -14,-6 -23,-18 -26,-36 -5,-25 -4,-49 1,-71 6,-22 19,-42 39,-59 16,-15 36,-23 59,-24 18,-1 34,4 47,16 4,4 7,7 11,10 3,3 7,6 10,10 2,3 4,7 6,11 1,4 2,8 2,12 1,7 1,14 1,21 -1,7 -1,14 -1,21 0,12 0,23 1,35 0,11 0,22 0,34 0,3 0,7 1,11 0,3 0,7 0,11 -2,15 -10,22 -24,20 -12,0 -19,-6 -20,-20 -2,-8 -3,-15 -3,-23 0,-7 -1,-15 -1,-23 0,-2 0,-4 0,-7 0,-3 -1,-6 -1,-11zm-83 16c18,-11 32,-25 43,-41 10,-15 21,-31 32,-47 -8,-11 -16,-14 -26,-10 -11,3 -19,8 -26,14 -13,11 -21,24 -23,38 -2,15 -2,30 0,46zm281 -57c13,9 21,21 23,34 3,13 3,27 -1,42 -2,10 -5,19 -11,27 -6,8 -14,14 -25,17 -13,4 -25,5 -37,4 -12,-1 -24,-6 -34,-16 -6,-4 -10,-9 -14,-15 -4,-6 -5,-11 -3,-16 1,-6 4,-10 10,-13 5,-3 10,-5 16,-5 6,1 10,4 13,9 5,7 10,11 16,12 6,1 13,1 22,-1 1,-5 2,-10 3,-14 1,-5 2,-9 2,-14 0,-8 -3,-14 -8,-17 -5,-4 -12,-5 -20,-4l-12 3c-12,2 -21,-2 -25,-13 -4,-11 0,-20 11,-26 6,-4 11,-7 16,-10 6,-4 11,-7 16,-10 4,-3 7,-6 10,-11 3,-4 2,-8 -1,-13 -3,-1 -8,0 -13,3 -6,3 -11,5 -17,6 -11,5 -20,2 -26,-7 -6,-9 -5,-18 3,-26 4,-4 9,-8 16,-11 8,-3 15,-5 23,-6 7,-1 15,-1 22,1 7,1 13,3 19,6 16,12 23,26 19,44 -2,7 -4,13 -6,19 -2,7 -5,13 -7,21zm205 41c-6,7 -11,14 -16,19 -4,5 -9,10 -14,16 -4,4 -8,8 -13,12 -4,4 -9,7 -15,10 -15,10 -29,11 -44,5 -14,-6 -23,-18 -26,-36 -4,-25 -4,-49 2,-71 5,-22 18,-42 38,-59 16,-15 36,-23 59,-24 18,-1 34,4 48,16 3,4 6,7 10,10 4,3 7,6 10,10 2,3 4,7 6,11 1,4 2,8 2,12 1,7 1,14 1,21 -1,7 -1,14 -1,21 0,12 0,23 1,35 0,11 0,22 0,34 0,3 0,7 1,11 0,3 0,7 0,11 -2,15 -10,22 -24,20 -12,0 -19,-6 -20,-20 -2,-8 -2,-15 -3,-23 0,-7 -1,-15 -1,-23 0,-2 0,-4 0,-7 0,-3 -1,-6 -1,-11zm-82 16c17,-11 31,-25 42,-41 11,-15 21,-31 32,-47 -7,-11 -16,-14 -26,-10 -10,3 -19,8 -26,14 -13,11 -20,24 -22,38 -2,15 -2,30 0,46zm285 -22c3,-12 6,-23 9,-33 3,-11 7,-22 11,-32 4,-13 9,-25 16,-38 5,-6 12,-12 20,-18 7,-3 15,-4 22,-1 8,2 13,7 17,15 4,10 7,18 7,27 1,24 2,49 3,73 0,24 1,48 3,71 0,8 -2,14 -6,18 -4,5 -9,8 -15,8 -7,0 -12,-2 -16,-6 -4,-5 -6,-10 -7,-18 -1,-16 -1,-32 -1,-49 -1,-16 -2,-32 -3,-48 0,-4 -1,-7 -4,-9 0,2 -1,5 -2,7 0,2 -1,4 -2,6 -4,13 -8,25 -11,38 -4,12 -8,24 -12,36 -2,7 -5,13 -9,18 -4,5 -10,7 -18,7 -8,0 -14,-3 -19,-8 -4,-5 -8,-11 -11,-17 -3,-10 -7,-18 -10,-27 -4,-8 -7,-17 -11,-26 -1,-2 -2,-5 -3,-7 -1,-2 -3,-5 -6,-8l-3 51c-1,7 -2,14 -2,21 0,6 -1,13 -2,20 -1,17 -9,24 -23,23 -15,-1 -21,-10 -19,-28 1,-19 3,-37 4,-56 1,-18 3,-37 5,-56 1,-9 2,-17 3,-26 1,-8 2,-16 4,-24 0,-3 1,-6 3,-9 1,-3 2,-6 4,-10 5,-7 12,-12 20,-12 8,-1 16,2 22,9 6,8 10,17 13,27 4,12 8,24 11,36 4,12 8,25 11,37 1,3 2,6 3,8 1,3 2,6 4,10zm203 -2c6,-11 12,-22 17,-32 6,-11 12,-22 18,-33 4,-7 9,-13 13,-19 5,-6 10,-11 14,-17 4,-4 9,-8 14,-10 4,-2 10,-1 15,1 12,4 18,13 18,26l0 27c-1,20 -1,39 -1,59 0,20 -1,40 -1,60 0,2 0,4 0,6 0,2 -1,5 -1,7 -2,7 -5,12 -10,16 -5,3 -11,4 -17,3 -13,-1 -19,-9 -19,-24l0 -39c0,-6 0,-12 0,-18 -1,-7 -2,-13 -4,-21 -1,4 -3,7 -4,9 -2,3 -4,6 -6,9 -5,9 -10,19 -16,28 -6,10 -11,19 -17,28 -6,8 -11,13 -18,17 -9,6 -18,6 -27,3 -8,-4 -14,-11 -16,-22 -2,-15 -2,-28 -2,-40 1,-21 2,-42 2,-62 1,-20 2,-41 2,-62 1,-2 1,-5 1,-7 0,-2 1,-5 1,-7 4,-12 12,-18 24,-16 5,0 10,2 14,6 4,3 6,7 6,12 1,8 1,15 0,23 0,7 0,15 -1,22 0,11 0,22 -1,33 0,11 0,22 -1,33 1,0 1,0 1,1 1,0 1,0 2,0zm186 101c-6,0 -12,-2 -16,-7 -5,-4 -7,-10 -7,-16 0,-6 2,-11 6,-15 4,-4 9,-6 15,-6 7,-1 12,1 17,5 5,4 7,10 7,16 0,6 -2,12 -7,16 -4,5 -9,7 -15,7zm-1711 173c7,6 13,10 20,14 7,4 12,9 18,14 10,10 16,21 19,33 2,13 4,25 5,38 0,17 -2,32 -5,46 -6,21 -17,37 -32,47 -14,11 -32,18 -54,21 -17,2 -34,3 -51,3 -9,1 -16,-2 -24,-9 -7,-7 -11,-15 -12,-24 0,-20 -1,-39 -2,-57 0,-19 -1,-38 -1,-57 1,-28 2,-55 3,-82 1,-27 2,-55 3,-82 0,-16 8,-25 24,-29 3,-1 7,-1 10,-2 2,-1 6,-1 9,-2 26,-6 49,0 70,17 11,9 17,21 20,37 3,15 1,31 -5,46 -2,5 -4,10 -7,15 -3,4 -5,9 -8,13zm-72 170c9,-2 18,-2 25,-2 8,0 15,-1 22,-2 17,-2 28,-11 35,-25 11,-25 10,-50 -3,-76 -4,-10 -11,-15 -22,-15 -17,0 -32,3 -46,10 -8,4 -12,10 -12,19 1,14 1,29 1,44 0,14 0,30 0,47zm1 -167c12,-7 23,-16 31,-26 9,-10 14,-21 14,-32 2,-9 0,-16 -5,-22 -4,-5 -11,-8 -20,-8 -6,0 -10,1 -12,3 -2,2 -3,6 -4,11 0,8 0,14 -1,21 0,7 0,14 -1,21 0,5 0,10 -1,15 0,4 0,10 -1,17zm231 139c0,7 2,13 5,19 2,5 6,10 10,16 7,7 15,8 24,5 11,-5 19,-12 25,-22 1,-3 3,-5 4,-8 1,-2 3,-4 4,-7 6,-10 15,-13 25,-8 4,3 8,6 10,10 1,4 2,8 1,14 -6,16 -15,31 -28,43 -13,12 -29,19 -48,20 -16,2 -29,-3 -40,-14 -7,-6 -13,-13 -18,-20 -5,-7 -8,-15 -11,-24 -5,-15 -8,-29 -10,-43 -2,-15 -1,-29 2,-44 7,-35 29,-56 64,-64 6,-1 11,-1 16,0 5,1 10,2 14,3 15,6 27,16 36,31 9,15 13,31 11,46 -2,22 -14,35 -34,40 -5,1 -10,2 -15,2 -5,1 -10,1 -16,2 -4,1 -9,1 -13,1 -3,0 -8,0 -12,0 -2,1 -3,1 -3,1 -1,0 -2,0 -3,1zm-6 -42c9,0 18,-1 26,-1 8,0 17,-1 26,-2 7,0 10,-4 9,-11 -1,-4 -1,-7 -2,-9 -1,-2 -2,-5 -3,-7 -8,-14 -19,-18 -34,-11 -9,4 -15,9 -18,17 -3,7 -4,15 -4,24zm210 122c0,11 0,20 -1,29 0,8 0,17 1,26 0,8 0,15 1,23 0,8 0,16 0,24 0,3 -1,7 -2,10 -1,3 -3,6 -5,9 -5,5 -11,7 -19,6 -7,-1 -13,-5 -16,-11 -1,-3 -2,-5 -2,-8 -1,-3 -1,-5 -2,-8 -1,-46 -3,-91 -4,-135 -2,-45 0,-90 4,-135 0,-5 1,-9 1,-12 2,-9 5,-16 10,-20 4,-4 11,-6 20,-8 35,-5 65,4 91,28 10,9 17,20 21,31 4,11 7,23 7,36 0,10 0,19 -2,29 -2,9 -3,18 -5,28 -6,20 -16,35 -32,44 -15,9 -30,13 -44,14 -3,1 -7,1 -11,1 -4,-1 -7,-1 -11,-1zm-4 -44c6,-1 12,-1 17,-1 4,0 8,-1 12,-1 6,-2 11,-4 15,-6 5,-3 8,-7 10,-12 5,-11 8,-23 9,-34 1,-12 0,-23 -4,-34 -3,-12 -10,-20 -20,-26 -10,-5 -22,-7 -35,-4 -1,19 -2,38 -2,57 -1,19 -2,39 -2,61zm152 -59c1,-20 5,-39 12,-56 8,-17 19,-32 36,-45 12,-9 26,-14 40,-14 15,0 28,6 40,16 8,6 15,15 22,26 4,7 5,13 4,19 -2,6 -5,10 -10,14 -5,3 -11,4 -17,2 -7,-2 -12,-5 -16,-10 -1,-2 -2,-4 -4,-7 -1,-2 -3,-4 -5,-5 -8,-10 -17,-11 -27,-3 -12,9 -20,21 -24,35 -4,16 -4,33 0,50 1,7 4,13 9,18 4,5 10,8 18,10 15,4 29,0 40,-12 2,-3 4,-5 6,-8 1,-3 3,-6 5,-9 9,-11 19,-14 30,-7 10,6 13,16 10,30 -6,15 -16,28 -32,38 -16,10 -32,15 -49,15 -19,-1 -35,-6 -50,-15 -14,-10 -23,-23 -29,-40 -2,-8 -4,-14 -5,-21 -1,-7 -2,-14 -4,-21zm264 9c6,-11 11,-22 17,-33 6,-10 12,-21 18,-32 4,-7 9,-13 13,-19 5,-6 9,-12 14,-17 4,-4 9,-8 13,-10 5,-2 11,-1 16,1 12,4 18,13 18,26l0 27c-1,20 -1,39 -1,59 0,20 -1,40 -1,59 0,2 0,5 0,7 0,2 -1,5 -1,7 -2,7 -5,12 -10,16 -6,3 -11,4 -17,3 -13,-1 -19,-9 -19,-24l0 -39c0,-6 0,-12 0,-19 -1,-6 -2,-13 -4,-20 -1,3 -3,6 -4,9 -2,3 -4,6 -6,9 -5,9 -10,19 -16,28 -6,10 -11,19 -17,28 -6,8 -12,13 -18,17 -9,5 -18,6 -27,3 -8,-4 -14,-11 -16,-22 -2,-15 -2,-28 -2,-40 1,-21 2,-42 2,-62 1,-20 2,-41 2,-62 1,-2 1,-5 1,-7 0,-3 1,-5 1,-7 4,-12 11,-18 24,-16 5,0 10,2 14,5 4,4 6,8 6,13 0,8 1,15 0,23 0,7 -1,15 -1,22 0,11 0,22 -1,33 0,11 -1,22 -1,33 0,0 1,0 1,1 1,0 1,0 2,0zm247 16c-5,-1 -9,-1 -12,1 -3,3 -5,6 -7,9 -6,9 -11,19 -15,29 -4,9 -10,19 -16,27 -9,11 -19,14 -31,9 -12,-6 -15,-16 -9,-30 4,-9 9,-18 14,-26 5,-8 9,-17 14,-26 -3,-3 -7,-6 -10,-9 -3,-3 -6,-6 -9,-9 -8,-12 -12,-25 -11,-40 1,-15 6,-27 16,-38 13,-13 26,-23 41,-30 15,-7 32,-9 52,-6 13,3 22,7 26,13 5,5 7,15 9,28 0,16 0,30 0,44 1,13 1,25 0,37 0,12 -1,24 -1,35 -1,12 -2,24 -4,36 -2,16 -10,22 -25,21 -6,-1 -11,-3 -15,-7 -4,-4 -6,-9 -6,-16 0,-7 -1,-14 -1,-21 0,-8 0,-15 0,-22l0 -9zm6 -95c-10,-1 -21,1 -31,7 -10,6 -17,12 -20,20 -2,5 -2,10 1,15 2,6 7,9 14,9 5,1 12,1 20,-1 8,-2 13,-6 13,-12 1,-6 1,-12 2,-19 0,-6 1,-12 1,-19z"/>
    <path class="fil3" d="M2692 2834l64 0c3,0 5,0 7,-1 3,0 5,0 7,1 11,2 17,9 17,21 0,6 -2,11 -4,15 -3,4 -7,7 -12,8 -4,1 -7,1 -9,1 -3,0 -6,0 -9,0 -15,2 -31,3 -46,4 -16,2 -31,3 -46,4 -5,1 -11,1 -16,0 -5,-1 -9,-5 -13,-11 -6,-10 -5,-20 1,-31 7,-12 13,-23 20,-35 6,-11 13,-22 20,-34 8,-13 16,-26 25,-39 8,-13 15,-28 20,-43 5,-12 8,-25 9,-38 2,-21 -7,-28 -26,-21 -9,3 -17,8 -23,13 -7,6 -11,14 -14,25 -3,17 -12,24 -26,20 -13,-2 -19,-11 -17,-28 0,-3 1,-7 2,-12 3,-10 8,-18 14,-27 7,-8 14,-15 23,-21 9,-7 18,-11 27,-15 10,-3 19,-4 28,-4 17,2 32,10 43,23 12,13 16,32 14,58 -2,15 -5,31 -12,45 -6,15 -13,28 -21,42 -5,9 -11,18 -17,27 -6,10 -12,19 -18,28 -2,4 -4,8 -5,12 -2,4 -5,8 -7,13zm172 66c-7,0 -12,-2 -16,-7 -5,-5 -7,-10 -7,-16 0,-6 2,-11 6,-15 4,-4 9,-7 15,-7 7,0 12,2 17,6 4,4 7,10 7,16 0,6 -2,11 -7,16 -4,5 -9,7 -15,7zm72 -167c1,-14 2,-28 4,-42 2,-14 5,-27 10,-40 5,-11 9,-20 13,-28 11,-17 24,-27 41,-29 17,-2 33,1 48,9 20,11 34,26 43,43 8,17 14,36 18,57 6,42 -1,82 -20,120 -4,7 -7,14 -12,21 -5,6 -10,12 -15,18 -13,15 -28,22 -45,22 -18,-1 -33,-8 -46,-24 -12,-14 -21,-31 -27,-51 -1,-5 -2,-10 -4,-15 -1,-4 -2,-9 -3,-15 -1,-8 -2,-15 -2,-23 0,-8 -1,-15 -3,-23zm133 -4c-1,-5 -1,-9 -1,-13 0,-5 -1,-9 -2,-14 -1,-5 -2,-10 -3,-15 -1,-4 -3,-9 -6,-14 -2,-4 -5,-9 -8,-13 -3,-4 -7,-8 -11,-11 -8,-7 -16,-9 -24,-7 -8,3 -14,9 -18,19 -1,3 -3,7 -4,10 -1,4 -2,8 -3,11 -3,18 -5,34 -6,51 0,16 2,33 6,50 1,7 3,13 6,20 2,6 5,12 9,18 10,19 22,20 34,4 12,-15 19,-30 23,-46 4,-16 7,-33 8,-50zm213 6c-3,-4 -6,-6 -9,-9 -3,-3 -6,-6 -10,-9 3,11 2,20 -2,27 -4,7 -9,14 -16,20 -7,8 -14,15 -20,23 -7,7 -14,15 -20,23 -4,5 -9,9 -16,11 -7,2 -13,1 -18,-3 -5,-4 -8,-9 -9,-15 -1,-7 1,-13 6,-21 6,-6 11,-13 17,-19 6,-6 12,-13 17,-19 1,-2 3,-4 4,-6 2,-2 4,-5 7,-7 -6,-5 -11,-10 -16,-15 -5,-4 -11,-8 -16,-13 -3,-2 -5,-5 -8,-7 -2,-2 -4,-4 -6,-7 -3,-5 -4,-11 -4,-17 1,-6 4,-11 9,-15 11,-8 22,-7 31,4 3,3 7,6 10,9 4,4 8,7 13,11 0,-3 1,-6 1,-9 0,-2 0,-4 2,-6 2,-8 7,-13 14,-16 7,-3 13,-2 19,4 11,9 21,18 31,28 10,9 19,19 29,29 9,10 11,21 5,34 -12,25 -27,47 -46,65 -7,7 -14,9 -23,6 -8,-2 -13,-7 -15,-14 -2,-8 0,-15 5,-23 6,-7 11,-14 17,-21 5,-8 11,-15 17,-23z"/>
   </g>
  </g>
 </g>
</svg>
