<?xml version="1.0" encoding="UTF-8"?>
<!DOCTYPE svg PUBLIC "-//W3C//DTD SVG 1.1//EN" "http://www.w3.org/Graphics/SVG/1.1/DTD/svg11.dtd">
<!-- Creator: CorelDRAW X8 -->
<svg xmlns="http://www.w3.org/2000/svg" xml:space="preserve" width="503px" height="502px" version="1.1" style="shape-rendering:geometricPrecision; text-rendering:geometricPrecision; image-rendering:optimizeQuality; fill-rule:evenodd; clip-rule:evenodd"
viewBox="0 0 3474028 3467393"
 xmlns:xlink="http://www.w3.org/1999/xlink">
 <defs>
  <style type="text/css">
   <![CDATA[
    .str0 {stroke:black;stroke-width:61209.5}
    .fil0 {fill:#DEF2F7}
    .fil1 {fill:#F05C4F;fill-rule:nonzero}
   ]]>
  </style>
 </defs>
 <g id="Слой_x0020_1">
  <metadata id="CorelCorpID_0Corel-Layer"/>
  <path class="fil0 str0" d="M75565 2759257c-2187,-209671 -94581,-2357184 -8031,-2468284 106766,-137060 77704,-232318 578642,-237549 500938,-5232 1580542,-16511 1783513,-18624 202970,-2114 671476,-36914 806291,136750 134824,173663 166808,464759 171974,961363 1820,175549 131813,1800872 -117163,2116550 -252362,319970 -549652,131461 -1253553,138798 -703900,7337 -1265264,13213 -1440283,15042 -489194,5109 -516722,-197079 -521390,-644046z"/>
  <path class="fil1" d="M1776510 1171018c0,-195707 -149228,-318028 -366962,-318028 -210390,0 -366955,161463 -433012,374300 -7337,29356 7345,56264 36701,66049 26907,7337 56263,-7337 63600,-34244 51376,-171248 168808,-303354 335159,-303354 149229,0 261764,73386 261764,212837 0,327814 -440349,765722 -773059,1032375 -88068,73394 -273998,217726 -362066,276446 -26916,19571 -41590,41582 -41590,63601 0,24468 22019,41590 56264,41590 9785,0 19571,0 29356,-2448 205501,-46479 273998,-63601 428123,-63601 139444,0 308243,34244 491724,83171 34253,7345 66050,-14674 66050,-51367 0,-22019 -17123,-41590 -39142,-48935 -210389,-61160 -357169,-85619 -518632,-85619 -75842,0 -151677,7337 -237305,22019 56272,-44038 122321,-95414 193267,-154126 354729,-288672 809760,-748599 809760,-1110666z"/>
  <path id="1" class="fil1" d="M2945880 1237076c0,-242194 -122321,-418338 -347384,-406105 -457479,14682 -821994,851350 -814649,1372430 4889,225064 95406,413442 296009,413442 462368,0 866024,-802424 866024,-1379767zm-102750 2448c0,506398 -357169,1267231 -763274,1274568 -139443,0 -188370,-132106 -193266,-313139 -14674,-455031 340055,-1267231 716795,-1267231 159014,0 239745,119872 239745,305802z"/>
 </g>
</svg>
