<?xml version="1.0" encoding="UTF-8"?>
<!DOCTYPE svg PUBLIC "-//W3C//DTD SVG 1.1//EN" "http://www.w3.org/Graphics/SVG/1.1/DTD/svg11.dtd">
<!-- Creator: CorelDRAW X6 -->
<svg xmlns="http://www.w3.org/2000/svg" xml:space="preserve" width="45mm" height="45mm" version="1.1" style="shape-rendering:geometricPrecision; text-rendering:geometricPrecision; image-rendering:optimizeQuality; fill-rule:evenodd; clip-rule:evenodd"
viewBox="0 0 4500 4500"
 xmlns:xlink="http://www.w3.org/1999/xlink">
 <defs>
  <style type="text/css">
   <![CDATA[
    .str0 {stroke:black;stroke-width:75}
    .fil2 {fill:black}
    .fil0 {fill:#E94F42}
    .fil1 {fill:#FEFEFE;fill-rule:nonzero}
   ]]>
  </style>
 </defs>
 <g id="Слой_x0020_1">
  <metadata id="CorelCorpID_0Corel-Layer"/>
  <g id="_367591432">
   <path class="fil0 str0" d="M4129 280c0,0 121,140 126,669 6,529 23,2140 25,2323 2,182 116,533 -15,701 -131,168 -95,285 -709,291 -614,7 -1936,20 -2185,23 -249,3 -836,152 -1001,-61 -165,-213 -191,-676 -198,-1284 -6,-609 149,-1351 98,-1743 -52,-391 -133,-749 -39,-840 94,-92 504,-169 1367,-178 862,-9 1804,-19 2019,-21 214,-3 512,120 512,120z"/>
   <g>
    <g>
     <path class="fil1" d="M1278 785c38,3 74,6 109,9 2,2 2,4 3,5 4,24 7,49 12,74 4,20 8,42 13,62 4,16 17,24 32,22 15,-3 24,-16 24,-32 -1,-5 -2,-11 -2,-16 -13,-72 -24,-145 -37,-218 -6,-35 -11,-71 -16,-106 -2,-11 -5,-23 -9,-33 -16,-37 -58,-45 -83,-13 -17,17 -28,38 -38,61 -43,86 -69,180 -93,273 -3,17 -7,33 -8,49 -2,22 10,36 26,37 16,3 29,-10 31,-31 3,-12 4,-24 6,-36 10,-36 20,-73 30,-107zm78 -190c13,45 16,90 23,138 -27,1 -53,2 -82,-8 17,-45 33,-89 59,-130zm214 98c-2,-49 16,-91 56,-119 14,-10 31,-17 47,-23 19,-6 27,-17 25,-34 -4,-16 -16,-25 -36,-22 -9,1 -18,2 -24,6 -62,28 -108,71 -122,139 -6,33 -7,66 -7,99 1,59 6,116 9,174 1,37 27,55 63,42 14,-5 28,-12 40,-20 48,-27 71,-71 71,-125 0,-34 -13,-62 -40,-85 -24,-19 -52,-27 -82,-32zm-2 62c40,-1 66,24 66,59 -1,38 -20,64 -58,80 -6,-47 -6,-94 -8,-139zm162 120c5,19 13,40 28,59 36,46 101,41 129,-11 26,-53 29,-108 15,-164 -9,-34 -31,-56 -65,-65 -10,-3 -21,-3 -31,1 -33,10 -57,33 -69,65 -15,36 -15,74 -7,115zm119 -95c8,38 5,73 -7,107 -1,3 -4,8 -6,12 -9,13 -23,13 -32,3 -3,-4 -6,-7 -7,-12 -18,-35 -23,-71 -8,-109 4,-10 13,-20 22,-26 15,-9 27,-4 35,13 2,5 2,10 3,12zm216 6c-12,2 -22,3 -30,3 -12,0 -22,-1 -33,-1 0,-12 0,-20 0,-30 0,-17 0,-33 -1,-49 -1,-14 -11,-24 -24,-25 -12,-1 -25,7 -29,20 -1,6 -1,11 -1,17 0,49 0,97 0,146 0,21 -1,42 0,63 0,14 8,24 19,27 12,3 26,-2 31,-15 4,-5 4,-13 4,-20 1,-25 2,-50 2,-77 22,-1 42,-2 64,-3 0,13 0,25 1,36 0,16 0,32 2,47 1,17 16,29 30,27 15,-2 25,-13 25,-29 -1,-49 -3,-99 -3,-148 -1,-21 -1,-44 -2,-65 -1,-14 -13,-21 -25,-22 -13,0 -24,8 -28,22 0,5 0,11 0,16 0,20 -1,39 -2,60zm150 74c2,-1 5,-1 7,-2 12,0 22,0 33,-1 13,-2 26,-3 39,-5 24,-7 40,-26 42,-51 5,-40 -21,-83 -58,-97 -12,-4 -25,-6 -38,-4 -44,9 -73,36 -81,80 -9,38 -2,74 10,110 6,23 18,40 36,57 14,13 31,20 51,17 49,-4 82,-39 95,-80 4,-12 -2,-24 -13,-30 -12,-5 -24,-1 -32,10 -3,6 -7,13 -10,19 -7,12 -17,21 -31,27 -12,5 -21,4 -31,-6 -10,-12 -18,-26 -19,-44zm-8 -52c0,-24 7,-43 28,-53 20,-9 34,-4 44,14 2,6 5,12 6,20 1,9 -2,14 -11,15 -23,1 -44,2 -67,4zm315 37c-4,-10 -8,-16 -9,-22 -9,-32 -18,-63 -28,-93 -3,-12 -8,-24 -16,-34 -16,-18 -41,-16 -54,4 -3,8 -7,15 -8,24 -4,20 -8,41 -9,62 -5,48 -8,96 -11,143 -3,20 7,34 23,35 17,1 28,-9 30,-29 2,-17 3,-35 5,-52 2,-21 3,-43 4,-64 6,6 9,12 11,19 9,22 18,44 27,66 7,16 17,31 37,33 20,0 30,-15 35,-33 10,-30 19,-61 29,-93 1,-5 4,-11 5,-17 4,4 5,7 5,11 3,42 4,83 5,124 1,18 13,30 29,30 15,-1 26,-14 26,-32 -2,-60 -4,-122 -7,-183 0,-11 -4,-24 -9,-34 -9,-20 -31,-27 -49,-17 -10,6 -19,13 -25,22 -9,15 -16,31 -21,48 -10,26 -17,52 -25,82zm230 15c3,-1 5,-1 8,-2 11,0 21,0 32,-1 13,-2 26,-3 39,-5 24,-7 40,-26 42,-51 5,-40 -21,-83 -58,-97 -12,-4 -25,-6 -38,-4 -44,9 -73,36 -81,80 -9,38 -2,74 10,110 6,23 19,40 36,57 14,13 31,20 51,17 49,-4 82,-39 95,-80 4,-12 -2,-24 -13,-30 -12,-5 -24,-1 -32,10 -3,6 -7,13 -10,19 -7,12 -17,21 -31,27 -12,5 -21,4 -31,-6 -10,-12 -18,-26 -19,-44zm-7 -52c0,-24 6,-43 27,-53 20,-9 34,-4 44,14 2,6 5,12 6,20 1,9 -2,14 -11,15 -23,1 -44,2 -66,4zm300 -22c-11,2 -21,3 -30,3 -11,0 -21,-1 -33,-1 0,-12 0,-20 0,-30 0,-17 0,-33 -1,-49 -1,-14 -11,-24 -24,-25 -12,-1 -25,7 -28,20 -2,6 -2,11 -2,17 0,49 0,97 0,146 0,21 -1,42 0,63 0,14 8,24 19,27 13,3 26,-2 31,-15 4,-5 4,-13 4,-20 1,-25 3,-50 3,-77 21,-1 41,-2 63,-3 0,13 0,25 2,36 0,16 0,32 1,47 1,17 16,29 30,27 15,-2 25,-13 25,-29 -1,-49 -2,-99 -2,-148 -2,-21 -2,-44 -3,-65 -1,-14 -12,-21 -25,-22 -12,0 -24,8 -28,22 0,5 0,11 0,16 0,20 -1,39 -2,60zm169 -35c0,22 1,42 0,62 0,40 -1,80 -1,120 0,17 12,29 27,29 15,0 27,-10 29,-27 1,-3 1,-8 1,-13 0,-27 0,-54 2,-82 0,-31 1,-64 2,-96 10,-1 20,-1 28,-4 13,-4 22,-15 22,-27 0,-14 -10,-27 -25,-28 -7,-1 -15,-1 -22,-1 -39,2 -77,6 -116,9 -2,1 -3,1 -6,2 -14,4 -21,15 -20,29 0,12 9,24 23,26 7,1 15,0 22,1 11,0 23,0 34,0zm-2297 560c-11,1 -21,2 -30,2 -11,0 -21,-1 -32,-1 0,-11 0,-20 0,-30 0,-16 0,-32 -1,-49 -2,-13 -12,-23 -24,-25 -13,-1 -25,8 -29,20 -1,7 -1,12 -1,18 0,49 0,96 0,145 0,21 -1,43 0,64 0,14 7,24 19,26 12,4 26,-1 31,-15 4,-5 4,-12 4,-20 1,-25 2,-50 2,-76 21,-1 41,-3 64,-4 0,14 0,25 1,36 0,17 0,33 1,48 2,16 17,29 30,26 15,-1 25,-12 25,-29 -1,-48 -2,-98 -2,-147 -1,-22 -1,-44 -2,-65 -2,-14 -13,-22 -26,-23 -12,0 -23,9 -27,23 0,5 0,11 0,16 0,20 -1,39 -3,60zm256 66c1,12 1,18 1,23 1,20 3,39 5,59 1,16 13,25 26,25 17,1 28,-9 30,-25 0,-10 -1,-20 -1,-29 0,-29 -1,-58 -1,-86 0,-18 1,-37 0,-54 0,-10 -5,-22 -10,-29 -8,-10 -18,-16 -26,-25 -18,-15 -37,-23 -60,-21 -29,1 -54,11 -76,31 -50,44 -61,101 -50,164 8,45 52,64 89,40 14,-9 25,-19 35,-29 13,-12 23,-26 38,-44zm-104 20c-5,-40 -4,-77 29,-106 8,-8 21,-14 32,-18 13,-5 24,0 33,13 -26,40 -52,84 -94,111zm646 -244c12,0 22,0 34,0 12,0 25,0 37,-2 15,-4 23,-16 21,-30 -1,-13 -11,-24 -26,-24 -24,-1 -49,-3 -74,0 -31,2 -46,17 -50,49 -1,15 -1,31 -1,46 -1,25 -3,50 -3,75 0,24 13,38 32,35 7,-1 14,-6 20,-10 11,-10 24,-17 40,-19 10,-1 17,3 20,13 1,5 4,10 4,15 0,31 -5,63 -19,91 -6,13 -15,23 -30,28 -13,-10 -14,-23 -14,-36 0,-13 -7,-22 -19,-27 -11,-3 -21,0 -29,8 -10,7 -12,17 -12,30 2,21 11,41 25,59 19,26 46,31 75,17 20,-9 35,-21 46,-39 32,-46 39,-99 32,-154 -7,-38 -35,-70 -89,-61 -6,0 -13,1 -20,1 0,-21 0,-42 0,-65zm143 130c2,20 3,39 6,59 1,13 5,25 9,38 6,24 17,46 33,65 34,37 82,39 116,2 13,-15 26,-32 33,-50 24,-47 33,-99 25,-151 -7,-53 -26,-99 -76,-127 -39,-21 -86,-17 -113,26 -6,11 -11,22 -16,35 -12,33 -16,68 -17,103zm167 -5c-3,44 -10,86 -39,122 -16,21 -30,20 -43,-5 -8,-15 -15,-31 -19,-48 -10,-42 -9,-85 0,-127 1,-9 5,-19 9,-28 10,-25 32,-31 53,-15 10,9 18,20 24,31 7,12 9,24 12,37 2,11 2,22 3,33zm596 -13c0,7 1,14 1,21 -1,36 -2,73 -3,109 0,18 -2,36 -2,55 2,17 12,27 27,29 15,0 26,-10 28,-28 0,-2 0,-5 0,-8 2,-53 4,-105 5,-157 0,-14 -1,-28 -3,-40 -5,-25 -20,-38 -45,-38 -19,0 -39,-1 -58,2 -12,0 -26,3 -38,7 -18,8 -30,23 -32,43 -1,11 -3,22 -4,33 -1,35 -1,70 -2,105 -2,18 -2,38 -2,57 0,15 10,26 24,29 14,1 25,-8 29,-23 2,-5 2,-11 2,-16 2,-39 2,-76 3,-113 1,-21 2,-43 4,-64 22,-6 44,-5 66,-3zm148 45c0,-22 0,-42 0,-62 -1,-7 -1,-13 -4,-21 -2,-10 -12,-16 -24,-16 -12,-1 -22,4 -27,14 -3,6 -4,13 -4,20 1,47 3,95 4,142 0,18 0,35 1,53 4,35 30,51 70,44 39,-8 80,-45 88,-82 11,-51 -23,-87 -84,-91 -5,-1 -11,-1 -20,-1zm6 51c14,-2 26,-1 36,8 10,10 7,21 2,31 -7,15 -18,27 -35,34 -7,-13 -8,-49 -3,-73zm167 80c2,-32 1,-169 0,-205 0,-18 -12,-29 -28,-29 -16,0 -29,11 -30,28 -1,7 -1,16 -1,25 1,61 1,122 1,184 0,5 0,11 1,16 3,11 14,20 27,20 12,0 23,-6 27,-18 3,-6 3,-13 3,-21zm159 -9c-42,0 -47,-3 -50,-38 -5,-49 -10,-104 -10,-154 0,-14 -13,-24 -27,-24 -12,-1 -26,7 -30,20 -1,6 -1,12 -1,17 1,33 2,65 5,98 1,24 4,46 9,69 8,41 32,60 79,64 33,2 68,5 103,6 37,1 62,-14 74,-45 4,-10 8,-20 9,-30 9,-54 3,-108 -4,-163 -1,-16 -17,-25 -36,-22 -15,3 -24,15 -21,31 5,51 10,100 2,151 -4,24 -9,27 -34,25 -2,0 -5,-1 -7,-2 -1,-6 -3,-14 -3,-20 -1,-38 -1,-77 -2,-114 -1,-21 -1,-43 -3,-63 -2,-16 -13,-26 -30,-26 -15,1 -27,11 -27,28 -1,6 0,12 0,20 1,36 2,71 4,107 1,22 0,44 0,65zm260 -47c2,-1 5,-1 7,-3 12,0 22,0 33,-1 13,-1 26,-2 39,-5 24,-6 40,-25 42,-50 5,-40 -21,-84 -58,-98 -12,-3 -25,-6 -38,-3 -44,8 -73,36 -81,80 -9,37 -2,74 10,110 6,22 18,40 36,56 14,14 31,20 51,18 49,-4 82,-39 95,-80 4,-13 -2,-24 -13,-30 -12,-5 -24,-2 -32,10 -3,6 -7,12 -10,18 -7,13 -17,22 -31,28 -12,5 -21,4 -31,-6 -10,-13 -18,-27 -19,-44zm-8 -53c0,-24 7,-42 28,-52 20,-9 34,-4 44,13 2,7 5,13 6,20 1,9 -2,14 -11,15 -23,2 -44,3 -67,4zm263 39c4,10 8,18 10,25 8,24 15,46 23,69 7,19 21,25 37,21 17,-5 24,-19 18,-37 -14,-39 -28,-77 -43,-115 -3,-9 -2,-16 4,-23 11,-14 21,-29 31,-44 5,-6 8,-12 10,-19 5,-13 0,-26 -12,-32 -13,-8 -26,-5 -36,6 -3,3 -4,6 -7,9 -16,22 -33,46 -50,69 -2,2 -6,5 -12,11 0,-14 0,-24 0,-34 0,-15 1,-30 -1,-44 -2,-15 -14,-23 -28,-23 -14,0 -26,10 -29,23 -1,5 0,12 0,17 -1,47 -1,94 -1,140 0,22 0,46 3,69 2,17 16,27 32,25 15,-2 25,-13 25,-30 0,-12 -1,-23 -2,-34 -3,-23 10,-35 28,-49zm-2759 481c12,-18 18,-34 15,-54 -7,-33 -37,-58 -75,-63 -17,-2 -33,-3 -49,-3 -23,0 -35,12 -35,33 2,64 1,127 1,191 0,33 14,47 49,50 11,1 24,2 35,2 41,-2 79,-14 104,-46 26,-35 16,-78 -23,-99 -6,-4 -14,-6 -22,-11zm-89 101c1,-19 2,-36 2,-56 29,-6 55,-3 82,11 12,6 15,15 3,25 -7,8 -17,14 -27,18 -18,6 -38,7 -60,2zm0 -114c0,-17 0,-34 1,-52 15,-4 29,-2 41,8 12,9 12,18 0,27 -11,7 -25,13 -37,21 -1,-1 -3,-2 -5,-4zm186 85c5,19 13,40 28,59 36,46 101,41 129,-11 26,-53 29,-108 15,-164 -9,-34 -31,-56 -65,-65 -10,-3 -22,-3 -32,1 -32,10 -56,33 -68,65 -15,37 -15,74 -7,115zm119 -95c8,38 5,73 -7,107 -2,3 -4,8 -7,12 -8,13 -22,13 -31,3 -4,-4 -6,-7 -7,-12 -18,-35 -23,-71 -8,-109 4,-10 13,-20 21,-26 15,-9 28,-4 35,13 3,5 3,10 4,12zm536 -11c14,-18 25,-31 36,-46 10,-13 19,-24 28,-37 7,-13 5,-27 -6,-37 -10,-8 -24,-9 -36,0 -5,4 -8,9 -12,12 -21,28 -43,55 -64,83 -20,29 -16,53 14,70 16,10 35,18 52,25 12,5 24,0 31,-10 7,-9 10,-21 2,-31 -5,-6 -13,-13 -20,-18 -8,-4 -15,-6 -25,-11zm101 -23c3,-5 4,-7 7,-10 6,-6 13,-13 20,-21 5,-5 10,-10 15,-16 10,-13 10,-29 0,-39 -10,-10 -25,-12 -37,-2 -27,22 -52,47 -68,78 -7,12 -9,27 1,34 25,20 51,40 79,57 13,8 32,-3 37,-19 6,-15 -1,-28 -16,-37 -13,-7 -25,-16 -38,-25zm249 -65c7,-11 14,-22 19,-36 15,-39 8,-81 -19,-105 -26,-21 -56,-29 -88,-21 -9,1 -17,3 -24,5 -21,5 -30,15 -30,36 -3,69 -6,138 -8,208 0,47 3,96 4,144 1,23 24,43 45,42 21,0 44,-1 65,-4 53,-7 93,-32 108,-86 5,-17 7,-39 7,-57 -2,-33 -6,-66 -31,-91 -14,-12 -31,-22 -48,-35zm-91 214c0,-41 0,-78 -1,-115 0,-11 5,-19 15,-24 19,-8 39,-12 59,-12 12,0 22,6 27,19 15,31 18,64 4,96 -9,19 -25,29 -44,31 -19,4 -37,3 -60,5zm1 -210c2,-17 3,-29 3,-41 1,-18 2,-35 2,-53 2,-14 5,-17 20,-17 23,0 35,15 33,37 -1,17 -9,29 -19,40 -10,13 -21,23 -39,34zm208 147c4,17 5,35 11,52 13,43 53,69 101,70 41,0 87,-30 101,-67 5,-17 1,-30 -13,-38 -12,-7 -27,-4 -37,9 -5,7 -9,15 -14,21 -14,15 -32,20 -51,15 -19,-4 -30,-17 -34,-35 -5,-21 -5,-42 0,-62 5,-19 15,-34 30,-46 13,-10 25,-8 35,4 5,4 8,10 11,15 10,14 28,19 42,10 13,-9 17,-25 7,-41 -7,-13 -16,-24 -27,-33 -30,-26 -70,-26 -102,-2 -41,32 -59,76 -60,128z"/>
     <path class="fil1" d="M2454 1789c0,7 1,15 1,21 -1,36 -2,74 -4,110 0,17 -1,36 -1,55 1,17 12,27 27,28 15,0 26,-10 28,-27 0,-3 0,-5 0,-9 2,-52 4,-104 5,-157 0,-14 -1,-27 -3,-40 -5,-25 -20,-37 -45,-37 -19,0 -39,-1 -58,1 -13,0 -26,4 -38,8 -18,7 -30,22 -32,42 -1,11 -3,23 -4,34 -1,35 -1,69 -2,104 -2,19 -2,39 -2,57 0,15 10,27 24,29 14,1 25,-7 29,-22 2,-5 2,-11 2,-16 2,-39 2,-76 3,-114 1,-21 2,-42 4,-63 22,-6 43,-5 66,-4zm148 45c0,-21 0,-41 0,-61 -1,-8 -1,-14 -4,-21 -2,-10 -13,-17 -24,-17 -12,-1 -22,4 -27,14 -3,6 -4,14 -4,20 1,48 2,95 4,143 0,17 0,35 1,52 4,35 30,52 70,44 39,-7 80,-45 88,-81 11,-51 -23,-88 -84,-92 -5,-1 -11,-1 -20,-1zm6 52c14,-3 26,-2 36,7 10,10 7,21 2,31 -7,15 -18,28 -35,34 -7,-12 -8,-49 -3,-72zm166 80c3,-33 2,-169 0,-206 0,-17 -11,-28 -27,-28 -16,0 -29,11 -30,27 -1,8 -1,16 -1,25 1,62 1,123 1,184 0,5 0,11 1,16 3,12 14,20 26,20 13,0 24,-6 28,-17 2,-6 2,-14 2,-21zm160 -9c-42,0 -47,-4 -51,-39 -5,-49 -10,-104 -10,-154 0,-14 -12,-24 -26,-24 -12,-1 -26,8 -30,20 -1,7 -1,13 -1,18 1,32 2,65 5,98 1,23 4,46 9,68 8,42 32,60 78,64 34,3 69,5 104,6 37,2 62,-13 74,-45 4,-10 8,-20 9,-30 9,-53 2,-107 -4,-162 -1,-17 -17,-25 -36,-23 -15,4 -24,15 -21,31 5,52 10,101 2,152 -4,24 -9,26 -34,25 -2,0 -5,-1 -7,-3 -1,-6 -3,-13 -3,-20 -1,-37 -1,-76 -2,-114 -1,-21 -1,-42 -3,-62 -2,-16 -13,-26 -30,-26 -15,1 -27,11 -27,27 -2,6 0,13 0,20 1,36 2,72 4,108 1,21 0,44 0,65zm284 -61c3,10 7,17 10,25 7,23 15,46 22,68 8,19 21,25 38,22 16,-5 24,-19 17,-38 -13,-39 -27,-76 -42,-115 -4,-9 -3,-15 3,-23 12,-13 22,-28 32,-43 5,-7 7,-13 10,-19 5,-14 0,-26 -13,-33 -12,-7 -26,-5 -36,7 -3,2 -4,6 -6,8 -17,23 -34,47 -50,69 -3,3 -7,5 -13,11 0,-13 0,-23 0,-33 0,-15 1,-30 -1,-44 -1,-15 -14,-24 -28,-24 -13,0 -26,10 -28,24 -2,5 0,11 0,16 -2,48 -2,94 -2,140 0,23 0,47 3,69 2,18 16,28 32,25 15,-1 25,-12 25,-30 0,-11 -1,-22 -2,-34 -3,-22 10,-35 29,-48zm185 13c2,-1 5,-1 8,-2 11,0 21,0 32,-1 13,-2 26,-3 39,-5 24,-7 40,-25 42,-50 5,-41 -21,-84 -58,-98 -12,-4 -25,-6 -38,-4 -44,9 -73,36 -81,80 -9,38 -2,74 10,110 6,23 18,40 36,57 14,13 31,20 51,17 49,-4 82,-39 95,-80 4,-12 -2,-24 -13,-30 -12,-5 -24,-1 -32,10 -3,6 -7,13 -10,19 -7,12 -17,21 -31,27 -12,5 -21,4 -31,-6 -10,-12 -18,-26 -19,-44zm-8 -52c0,-24 7,-43 28,-53 20,-9 34,-4 44,14 2,6 5,12 6,20 1,9 -2,14 -11,15 -23,1 -44,3 -67,4zm335 -47c-15,21 -29,38 -43,57 -14,17 -7,41 13,46 11,4 21,0 28,-7 26,-24 44,-52 58,-83 8,-15 5,-31 -6,-43 -24,-25 -49,-50 -75,-72 -15,-13 -37,-4 -43,15 -2,5 -2,11 -4,20 -11,-10 -20,-19 -28,-26 -12,-13 -27,-14 -39,-5 -13,10 -15,27 -6,41 3,6 11,11 17,17 13,12 26,23 40,35 -6,7 -10,12 -14,17 -13,16 -28,32 -42,49 -13,17 -10,35 4,45 13,10 32,3 42,-10 16,-20 34,-39 51,-58 17,-16 29,-31 23,-60 10,9 16,15 24,22zm-1483 496c0,-1 0,-1 0,-1 36,0 71,0 108,0 12,0 22,-9 27,-20 4,-14 1,-28 -11,-34 -8,-5 -18,-7 -28,-7 -24,0 -47,2 -71,2 -40,0 -80,-1 -119,-2 -16,0 -28,7 -33,21 -3,12 3,29 17,35 11,4 22,5 34,6 25,0 51,0 76,0zm-1525 418c6,-19 14,-34 16,-51 5,-22 -3,-41 -23,-55 -25,-18 -81,-11 -102,12 -9,9 -10,23 -4,33 8,10 22,14 34,9 13,-4 29,-15 38,-11 9,11 -1,24 -11,30 -13,9 -27,16 -41,25 -13,8 -20,20 -15,34 5,11 19,19 33,16 5,-1 10,-2 15,-3 20,-4 35,6 35,26 0,11 -4,24 -6,35 -21,5 -36,4 -48,-13 -9,-13 -25,-13 -37,-5 -14,8 -18,23 -9,36 5,8 10,14 17,20 27,24 59,24 91,15 28,-7 41,-31 46,-56 9,-38 4,-72 -29,-97zm235 52c2,11 2,17 2,22 1,20 2,39 5,59 1,16 12,25 26,25 16,1 28,-9 30,-25 0,-10 -1,-20 -1,-29 0,-29 -1,-57 -1,-86 0,-18 1,-36 0,-54 0,-10 -5,-21 -10,-29 -8,-10 -18,-16 -27,-25 -17,-15 -36,-22 -60,-21 -29,1 -54,11 -75,31 -50,44 -61,102 -50,164 8,45 51,64 89,40 14,-9 25,-19 35,-29 12,-12 22,-26 37,-43zm-103 20c-5,-40 -4,-78 28,-107 9,-7 22,-13 33,-17 12,-5 24,0 32,12 -26,40 -51,84 -93,112zm706 7c1,11 1,19 1,26 0,8 -1,15 -1,23 1,16 13,29 28,30 15,0 28,-11 30,-29 2,-9 0,-17 0,-27 0,-15 0,-100 0,-119 -1,-49 0,-99 -1,-149 0,-14 -2,-29 -5,-43 -4,-16 -20,-23 -35,-20 -26,8 -44,22 -54,47 -21,51 -45,100 -67,150 -10,21 -19,42 -24,64 -9,32 9,52 42,50 19,0 38,-3 57,-4 8,0 17,1 29,1zm1 -184c-1,40 -3,80 -3,124 -19,1 -37,3 -60,4 1,-8 1,-13 4,-18 17,-36 36,-73 59,-110zm91 63c3,20 4,39 6,59 2,12 5,25 9,37 6,24 18,46 34,65 34,38 81,39 115,3 14,-15 26,-33 34,-50 24,-48 32,-99 25,-152 -8,-52 -26,-99 -76,-126 -39,-21 -87,-18 -113,25 -6,11 -11,22 -16,35 -13,34 -17,69 -18,104zm168 -5c-4,44 -10,85 -39,121 -16,21 -30,20 -44,-5 -7,-15 -15,-31 -18,-47 -10,-43 -9,-85 0,-128 1,-9 5,-19 8,-28 10,-25 33,-31 54,-15 10,9 18,20 24,32 6,11 9,23 11,36 3,11 3,23 4,34zm89 5c2,20 4,39 6,59 1,12 5,25 9,37 6,24 17,46 34,65 33,38 81,39 115,3 14,-15 26,-33 34,-50 23,-48 32,-99 25,-152 -8,-52 -27,-99 -77,-126 -39,-21 -86,-18 -112,25 -7,11 -12,22 -17,35 -12,34 -16,69 -17,104zm168 -5c-4,44 -10,85 -39,121 -16,21 -30,20 -44,-5 -8,-15 -15,-31 -19,-47 -10,-43 -9,-85 0,-128 1,-9 5,-19 9,-28 10,-25 32,-31 54,-15 10,9 17,20 24,32 6,11 8,23 11,36 2,11 2,23 4,34zm528 208c10,0 19,1 29,0 35,-2 82,-23 95,-74 5,-23 10,-48 8,-72 0,-32 -10,-62 -35,-85 -32,-30 -71,-41 -115,-35 -24,3 -32,11 -37,35 -2,5 -2,10 -2,15 -11,114 -3,228 0,342 2,6 3,14 5,20 9,16 33,20 44,6 7,-6 9,-16 9,-24 1,-20 -1,-40 -1,-58 -1,-23 0,-44 0,-70zm-5 -57c1,-52 4,-101 5,-149 32,-6 61,10 70,38 10,29 5,57 -6,86 -5,14 -18,20 -32,23 -10,1 -21,1 -37,2zm256 50c-12,29 -25,62 -47,88 -9,11 -18,21 -25,32 -9,15 -5,32 7,40 13,10 29,8 40,-6 25,-31 49,-62 65,-100 34,-74 58,-151 82,-229 2,-7 4,-15 2,-22 0,-13 -8,-23 -18,-25 -12,-4 -22,-2 -29,7 -5,5 -8,11 -10,18 -13,40 -24,80 -37,118 -1,7 -5,12 -7,18 -21,-16 -34,-36 -41,-59 -9,-25 -13,-50 -12,-76 2,-15 -7,-26 -21,-29 -12,-2 -26,4 -32,16 -3,5 -4,12 -4,18 0,49 7,96 37,136 14,19 33,35 50,55zm222 -263c-2,-48 16,-90 56,-118 14,-10 30,-17 47,-23 18,-6 27,-17 25,-34 -4,-16 -17,-25 -37,-22 -8,1 -17,2 -23,6 -62,28 -108,71 -122,139 -6,32 -7,66 -7,99 1,59 6,116 8,174 2,37 28,55 64,42 14,-5 28,-12 40,-20 48,-27 70,-71 70,-125 0,-34 -12,-62 -40,-85 -23,-19 -51,-28 -81,-33zm-2 63c40,-1 66,24 66,59 -1,37 -20,64 -58,80 -6,-48 -6,-94 -8,-139zm315 -10c0,11 1,20 0,29 -4,46 -7,91 -10,137 -1,10 -1,21 1,29 3,14 15,23 28,23 14,-1 25,-10 27,-24 2,-4 2,-7 2,-11 3,-53 7,-105 10,-158 1,-15 0,-31 -3,-46 -4,-20 -17,-35 -37,-35 -31,-2 -62,-2 -92,2 -22,3 -32,18 -34,39 -1,8 -1,14 -1,21 1,22 1,44 1,65 0,25 -2,49 -11,73 -6,0 -10,-1 -15,-1 -21,1 -34,20 -27,40 7,27 43,41 67,24 9,-8 19,-18 23,-28 8,-21 16,-43 18,-65 4,-29 2,-58 3,-88 0,-7 0,-16 0,-26 17,0 31,0 50,0zm149 115c3,-1 5,-1 8,-2 11,0 21,0 32,-2 13,-1 26,-2 39,-5 24,-6 40,-25 42,-50 5,-40 -21,-83 -58,-97 -12,-4 -25,-7 -38,-4 -44,9 -73,36 -81,80 -9,38 -2,74 10,110 6,23 18,40 36,57 14,13 31,20 51,17 49,-4 82,-39 95,-80 4,-13 -2,-24 -13,-30 -12,-5 -24,-1 -32,10 -3,6 -7,12 -10,19 -7,12 -17,21 -31,27 -12,5 -21,4 -31,-6 -10,-13 -18,-26 -19,-44zm-7 -52c0,-24 6,-43 27,-53 20,-9 34,-4 44,14 2,6 5,12 6,20 1,9 -2,14 -11,15 -23,1 -44,2 -66,4zm295 -198c-14,1 -19,-5 -24,-14 -6,-10 -19,-14 -29,-10 -8,5 -15,15 -13,26 1,5 3,12 6,15 14,24 35,32 61,30 25,-1 42,-17 49,-46 5,-14 0,-25 -11,-30 -13,-6 -25,-1 -32,13 -3,5 -5,11 -7,16zm-54 233c-1,0 -2,-2 -4,-2 2,-27 3,-55 3,-83 1,-19 2,-38 1,-57 0,-14 -11,-22 -25,-24 -14,-1 -26,7 -30,22 -1,5 -1,11 -2,17 -2,53 -4,104 -5,157 -2,16 0,33 2,51 5,26 30,38 54,24 9,-5 16,-13 22,-21 15,-24 29,-48 43,-72 5,-7 9,-15 12,-22 5,17 5,33 5,48 0,18 0,34 0,51 0,17 9,28 24,30 15,2 30,-8 34,-24 1,-6 1,-13 1,-18 2,-50 2,-100 3,-150 0,-11 0,-22 0,-34 0,-15 -8,-27 -23,-32 -13,-7 -26,0 -36,11 -11,14 -24,29 -34,45 -16,28 -30,55 -45,83z"/>
    </g>
    <path class="fil2" d="M2991 3216c-38,-53 -186,-66 -327,-81 -140,-15 -370,0 -456,0 -86,0 -78,60 -365,27 -288,-34 -331,-29 -320,13 10,41 -24,161 -2,198 23,38 218,83 332,83 114,0 420,-24 537,-30 117,-6 262,-53 338,-32 75,21 191,30 210,24 19,-5 53,-202 53,-202z"/>
    <path class="fil1" d="M1781 3254c0,3 1,6 1,8 -1,15 -1,31 -2,45 0,8 0,15 0,23 0,7 4,11 11,12 6,0 10,-5 11,-12 0,-1 0,-2 0,-3 1,-22 2,-43 2,-65 0,-5 0,-11 -1,-16 -2,-10 -8,-15 -19,-15 -7,0 -16,-1 -23,0 -5,0 -11,2 -16,3 -7,3 -12,9 -13,18 0,4 -1,9 -2,13 0,15 0,29 -1,43 0,8 0,16 0,24 0,6 4,11 10,12 5,0 10,-3 12,-10 1,-2 1,-4 1,-6 0,-16 0,-31 1,-47 0,-8 1,-17 1,-26 9,-2 18,-2 27,-1zm94 91c4,0 8,0 12,0 14,-1 34,-10 39,-31 2,-9 4,-19 3,-29 0,-13 -4,-26 -14,-35 -13,-12 -29,-17 -47,-14 -10,1 -14,4 -16,14 0,2 0,4 0,6 -5,47 -2,94 0,140 0,3 1,6 2,9 3,6 13,8 18,2 2,-2 3,-6 3,-9 1,-9 0,-17 0,-25 -1,-9 0,-18 0,-28zm-2 -23c0,-22 1,-42 2,-62 13,-2 25,5 29,16 4,12 2,23 -3,35 -2,6 -7,8 -13,9 -4,1 -9,1 -15,2zm103 -13c2,8 5,17 11,24 15,19 42,17 53,-4 11,-22 12,-44 6,-68 -3,-13 -12,-23 -26,-26 -4,-1 -9,-1 -13,0 -14,4 -23,14 -28,27 -7,15 -7,30 -3,47zm49 -39c3,16 2,30 -3,44 -1,1 -2,3 -3,5 -3,5 -9,5 -13,1 -1,-2 -2,-3 -3,-5 -7,-14 -9,-29 -3,-44 2,-4 5,-9 9,-11 6,-4 11,-2 14,5 1,2 1,4 2,5zm125 27c-2,-4 -3,-7 -4,-9 -4,-13 -7,-26 -11,-38 -2,-6 -4,-10 -7,-14 -7,-8 -17,-7 -22,1 -2,3 -3,6 -4,10 -1,8 -3,17 -3,26 -2,19 -3,39 -5,58 -1,8 3,14 10,15 7,0 11,-4 12,-12 1,-7 1,-15 2,-22 1,-8 1,-17 2,-26 2,3 3,5 4,8 4,9 8,18 11,27 3,7 7,13 16,13 8,0 12,-6 14,-13 4,-12 8,-25 12,-38 0,-2 1,-5 2,-7 1,1 2,3 2,4 1,17 2,34 2,51 1,7 5,13 12,13 6,-1 11,-6 11,-14 -1,-24 -2,-50 -3,-75 0,-4 -2,-9 -4,-14 -4,-8 -13,-11 -20,-7 -4,3 -8,6 -10,9 -4,7 -7,13 -9,20 -4,11 -7,22 -10,34zm103 12c2,8 6,17 12,24 15,19 41,17 53,-4 10,-22 11,-44 6,-68 -4,-13 -13,-23 -27,-26 -4,-1 -9,-1 -13,0 -13,4 -23,14 -28,27 -6,15 -6,30 -3,47zm49 -39c3,16 2,30 -3,44 0,1 -1,3 -2,5 -4,5 -10,5 -13,1 -2,-2 -3,-3 -3,-5 -8,-14 -10,-29 -3,-44 1,-4 5,-9 8,-11 6,-4 12,-2 15,5 1,2 1,4 1,5zm104 27c2,4 3,8 4,11 3,9 6,19 9,28 3,8 9,10 16,9 6,-2 9,-8 7,-16 -6,-16 -11,-31 -18,-47 -1,-4 -1,-6 2,-9 5,-6 9,-12 13,-18 2,-3 3,-5 4,-8 2,-6 0,-11 -5,-13 -5,-3 -11,-2 -15,2 -1,1 -2,3 -3,4 -6,9 -14,19 -20,28 -1,1 -3,2 -5,5 0,-6 0,-10 0,-14 0,-6 0,-12 -1,-18 0,-6 -5,-10 -11,-10 -6,0 -11,4 -12,10 0,2 0,5 0,7 0,19 0,38 0,57 0,9 0,19 1,28 1,8 6,12 13,11 6,-1 10,-6 10,-13 0,-4 0,-9 -1,-14 -1,-9 4,-14 12,-20zm85 12c2,8 5,17 12,24 14,19 41,17 52,-4 11,-22 12,-44 7,-68 -4,-13 -13,-23 -27,-26 -4,-1 -9,-1 -13,0 -13,4 -23,14 -28,27 -6,15 -6,30 -3,47zm49 -39c3,16 2,30 -3,44 -1,1 -2,3 -3,5 -3,5 -9,5 -12,1 -2,-2 -3,-3 -4,-5 -7,-14 -9,-29 -3,-44 2,-4 6,-9 9,-11 6,-4 11,-2 14,5 2,2 2,4 2,5zm155 50c0,-2 0,-3 0,-4 0,-14 0,-28 0,-42 0,-7 0,-15 -1,-22 -5,-20 -27,-28 -44,-15 -10,8 -16,18 -17,31 -1,5 -2,11 -2,16 -1,13 -2,26 -2,40 -3,1 -5,1 -7,2 -12,3 -15,7 -14,18 1,7 4,10 9,11 5,1 9,-1 12,-7 1,-2 2,-4 5,-4 2,0 4,0 6,0 14,-1 28,-1 43,-1 2,0 4,1 5,2 4,4 8,5 12,3 4,-2 6,-5 7,-10 1,-9 -2,-14 -12,-18zm-21 1c-8,1 -16,1 -24,1 0,-4 0,-6 0,-9 1,-15 2,-29 3,-44 1,-7 5,-13 11,-16 4,-3 8,-1 10,4 1,3 1,8 1,11 0,17 -1,34 -1,50 0,1 0,2 0,3zm92 16c6,0 11,-5 11,-11 0,-8 -5,-13 -11,-13 -8,0 -13,5 -13,12 0,6 6,12 13,12zm1 -59c6,0 11,-5 11,-11 0,-7 -4,-12 -10,-12 -7,0 -12,4 -12,11 -1,7 4,12 11,12z"/>
    <path class="fil1" d="M995 3644c5,-10 11,-19 16,-31 12,-33 6,-69 -16,-89 -22,-18 -48,-24 -76,-18 -7,1 -13,3 -20,4 -18,5 -25,13 -25,31 -2,58 -5,117 -7,176 0,41 3,82 4,122 1,20 20,37 38,36 18,0 37,-1 55,-3 45,-6 79,-27 91,-73 5,-15 7,-33 7,-49 -2,-27 -6,-55 -27,-76 -12,-11 -26,-19 -40,-30zm-78 181c0,-35 0,-66 -1,-97 0,-10 5,-16 13,-20 16,-8 33,-11 50,-11 11,0 19,5 23,16 13,26 15,54 3,82 -7,16 -21,24 -37,26 -16,3 -32,2 -51,4zm1 -178c1,-15 3,-24 3,-35 1,-15 2,-30 2,-44 1,-12 4,-15 17,-15 19,0 29,12 27,32 -1,13 -7,24 -16,34 -8,10 -18,19 -33,28zm227 134c-1,0 -2,-1 -3,-1 1,-24 2,-47 2,-71 1,-16 2,-32 1,-48 0,-12 -10,-19 -21,-20 -12,-1 -22,5 -26,18 -1,4 -1,9 -2,15 -1,44 -3,88 -4,132 -1,14 0,29 2,44 4,22 26,32 46,20 7,-4 14,-11 19,-18 13,-20 24,-40 36,-61 4,-6 7,-12 11,-19 4,15 4,29 4,42 0,15 0,28 0,42 0,15 7,25 20,26 13,2 25,-7 29,-20 1,-6 1,-11 1,-15 1,-43 1,-85 2,-128 0,-9 0,-19 0,-28 0,-13 -7,-24 -19,-28 -12,-5 -23,0 -31,10 -10,11 -20,24 -29,38 -14,23 -25,47 -38,70zm278 -83c0,10 1,17 0,25 -4,39 -7,77 -9,116 -1,9 -1,17 1,25 2,11 13,19 23,19 12,-1 22,-9 24,-20 1,-4 1,-7 1,-10 3,-45 6,-89 8,-134 1,-12 0,-26 -2,-39 -3,-17 -15,-30 -32,-30 -25,-1 -52,-1 -77,2 -19,3 -28,15 -29,33 -1,7 -1,12 -1,18 1,18 1,38 1,56 0,21 -2,41 -9,61 -6,0 -9,-1 -13,-1 -18,1 -29,17 -23,34 6,23 37,35 57,20 7,-6 16,-15 19,-23 8,-18 14,-36 16,-55 3,-25 1,-49 2,-75 0,-6 0,-13 0,-22 15,0 27,0 43,0zm208 0c0,10 1,17 0,25 -3,39 -6,77 -8,116 -1,9 -1,17 1,25 2,11 12,19 23,19 12,-1 21,-9 23,-20 1,-4 1,-7 1,-10 4,-45 7,-89 9,-134 1,-12 0,-26 -2,-39 -3,-17 -15,-30 -32,-30 -25,-1 -52,-1 -77,2 -20,3 -28,15 -29,33 -1,7 -1,12 -1,18 1,18 1,38 1,56 0,21 -2,41 -10,61 -5,0 -8,-1 -12,-1 -18,1 -29,17 -24,34 7,23 37,35 58,20 7,-6 16,-15 19,-23 7,-18 13,-36 16,-55 3,-25 1,-49 2,-75 0,-6 0,-13 0,-22 15,0 26,0 42,0zm213 91c1,10 1,15 1,19 1,17 2,33 4,50 1,14 11,22 23,22 13,1 23,-8 25,-22 0,-8 -1,-17 -1,-24 0,-24 -1,-49 -1,-73 0,-15 1,-31 0,-46 0,-8 -4,-18 -9,-24 -6,-9 -14,-14 -22,-22 -15,-12 -31,-19 -51,-18 -24,1 -45,10 -63,27 -43,37 -52,86 -43,139 6,38 44,54 75,34 12,-8 22,-16 30,-25 11,-10 19,-22 32,-37zm-88 17c-4,-34 -3,-65 24,-90 8,-6 18,-12 28,-15 11,-4 20,0 28,11 -23,34 -44,71 -80,94zm345 25c-1,-3 -1,-7 -1,-9 1,-29 1,-58 1,-87 0,-15 0,-29 -3,-44 -9,-43 -55,-58 -90,-32 -21,16 -33,37 -36,64 -1,11 -2,23 -3,33 -1,28 -3,55 -4,82 -6,2 -11,2 -15,4 -24,8 -30,15 -28,39 1,13 7,21 18,23 11,2 18,-2 25,-15 2,-5 5,-8 10,-8 3,-1 8,-1 12,-1 29,-2 59,-3 89,-3 4,0 8,4 11,6 7,7 15,9 24,5 8,-3 14,-11 15,-20 2,-19 -3,-29 -25,-37zm-44 2c-16,1 -32,1 -48,2 -1,-7 -1,-13 -1,-18 2,-31 4,-61 6,-91 1,-15 10,-27 23,-34 9,-6 17,-2 20,8 2,8 2,16 2,24 0,34 -1,69 -1,103 0,2 -1,4 -1,6zm173 -65c13,3 16,11 15,22 -2,23 -3,46 -3,68 -1,14 7,23 19,25 11,1 21,-7 25,-18 1,-7 1,-12 2,-18 0,-14 1,-28 2,-43 0,-3 1,-8 3,-10 6,-7 15,-13 23,-19 2,5 5,8 6,12 8,24 18,47 26,71 4,11 14,18 23,16 12,-1 20,-9 21,-21 0,-5 -1,-12 -4,-16 -9,-25 -18,-52 -29,-77 -9,-18 -11,-34 4,-50 7,-9 13,-19 17,-29 6,-15 -1,-30 -15,-32 -12,-2 -19,4 -25,13 -11,16 -20,33 -31,49 -4,5 -6,12 -15,16 0,-7 0,-12 0,-16 1,-13 2,-27 3,-40 0,-15 -8,-26 -21,-26 -13,-1 -22,9 -24,23 -1,13 -1,26 -3,39 -1,3 -2,7 -3,13 -13,-16 -25,-29 -37,-43 -7,-8 -13,-16 -20,-23 -8,-10 -20,-11 -30,-5 -8,8 -11,20 -6,31 2,4 6,8 9,12 12,14 23,27 34,42 -20,34 -31,70 -41,108 -3,15 2,27 14,30 13,4 23,-2 28,-16 4,-8 6,-17 8,-25 6,-23 14,-44 25,-63zm294 -49c0,-1 0,-1 0,-1 31,0 60,0 91,0 11,0 19,-7 23,-17 4,-11 1,-23 -9,-28 -6,-5 -15,-7 -23,-7 -21,0 -41,2 -61,2 -34,0 -68,-1 -101,-2 -14,0 -23,7 -27,18 -4,11 2,25 13,30 10,3 20,4 29,5 21,0 44,0 65,0zm252 -25c0,6 1,12 1,18 -1,30 -2,62 -3,93 0,14 -1,30 -1,46 1,15 9,23 22,24 13,0 22,-8 24,-23 0,-2 0,-4 0,-7 1,-45 4,-89 5,-133 0,-12 -1,-23 -4,-34 -4,-21 -16,-32 -38,-32 -16,0 -33,-1 -49,1 -10,0 -22,3 -31,7 -16,6 -26,19 -28,36 -1,9 -2,19 -3,28 -1,30 -1,59 -2,89 -1,15 -1,32 -1,48 0,13 8,22 20,25 12,1 21,-7 24,-20 2,-4 2,-9 2,-13 1,-33 1,-65 3,-96 1,-18 2,-36 3,-54 19,-5 37,-4 56,-3zm123 38c0,-18 0,-35 0,-52 -1,-6 -1,-12 -4,-18 -2,-8 -10,-14 -20,-14 -10,-1 -19,3 -23,12 -2,5 -3,12 -3,17 1,40 2,81 3,121 0,15 0,30 1,44 3,30 25,44 59,38 33,-7 68,-39 75,-69 9,-44 -19,-75 -71,-78 -5,-1 -10,-1 -17,-1zm5 44c12,-3 22,-1 31,6 8,8 5,18 1,26 -6,13 -15,24 -30,29 -5,-10 -6,-41 -2,-61zm141 67c2,-27 1,-143 0,-174 0,-14 -10,-24 -23,-24 -14,0 -25,10 -26,23 -1,7 -1,14 -1,22 1,52 1,104 1,156 0,4 0,9 1,13 2,10 12,17 23,17 10,0 20,-5 23,-14 2,-6 2,-12 2,-19zm132 -7c-35,0 -39,-3 -42,-33 -5,-41 -9,-88 -9,-130 0,-12 -10,-20 -22,-20 -11,-2 -22,6 -26,16 -1,6 -1,11 -1,15 1,28 3,56 5,83 1,20 3,39 7,58 8,35 28,51 67,55 29,2 58,4 88,5 31,1 52,-12 63,-38 3,-9 6,-17 7,-26 7,-45 2,-91 -3,-138 -1,-14 -15,-21 -31,-19 -13,3 -20,13 -18,27 4,43 9,85 2,128 -3,20 -7,22 -28,21 -3,0 -5,-1 -7,-2 -1,-5 -2,-11 -2,-17 -1,-32 -1,-65 -2,-96 -1,-18 -1,-36 -2,-53 -2,-14 -12,-23 -26,-23 -12,1 -23,10 -23,24 -1,5 0,10 0,17 1,30 2,60 3,91 1,18 0,37 0,55zm238 -52c4,9 7,15 9,21 6,20 13,40 19,59 6,16 18,21 32,18 14,-5 20,-16 15,-32 -12,-33 -24,-65 -36,-98 -4,-7 -2,-12 3,-19 9,-12 18,-24 26,-37 5,-5 7,-11 9,-16 4,-12 0,-22 -11,-27 -10,-7 -22,-5 -31,5 -2,2 -3,5 -5,7 -14,19 -28,39 -42,59 -2,2 -6,4 -11,9 0,-12 0,-20 0,-29 0,-12 1,-25 -1,-37 -1,-12 -12,-20 -23,-20 -12,0 -23,9 -25,20 -1,5 0,10 0,14 -1,40 -1,80 -1,119 0,19 0,39 2,58 2,15 14,24 28,22 13,-2 21,-11 21,-26 0,-9 -1,-19 -2,-29 -2,-19 9,-29 24,-41zm244 5c1,10 1,15 1,19 1,17 2,33 4,50 1,14 11,22 23,22 13,1 23,-8 25,-22 0,-8 -1,-17 -1,-24 0,-24 -1,-49 -1,-73 0,-15 1,-31 0,-46 0,-8 -4,-18 -9,-24 -6,-9 -14,-14 -22,-22 -15,-12 -31,-19 -51,-18 -24,2 -45,10 -63,27 -43,37 -52,86 -43,139 7,38 44,54 76,34 11,-8 21,-16 29,-24 11,-11 19,-23 32,-38zm-88 17c-4,-34 -3,-65 24,-90 8,-6 18,-12 28,-15 11,-4 20,0 28,11 -23,34 -44,71 -80,94z"/>
   </g>
  </g>
 </g>
</svg>
