<?xml version="1.0" encoding="UTF-8"?>
<!DOCTYPE svg PUBLIC "-//W3C//DTD SVG 1.1//EN" "http://www.w3.org/Graphics/SVG/1.1/DTD/svg11.dtd">
<!-- Creator: CorelDRAW X6 -->
<svg xmlns="http://www.w3.org/2000/svg" xml:space="preserve" width="45mm" height="45mm" version="1.1" style="shape-rendering:geometricPrecision; text-rendering:geometricPrecision; image-rendering:optimizeQuality; fill-rule:evenodd; clip-rule:evenodd"
viewBox="0 0 4500 4500"
 xmlns:xlink="http://www.w3.org/1999/xlink">
 <defs>
  <style type="text/css">
   <![CDATA[
    .str0 {stroke:black;stroke-width:75}
    .fil2 {fill:black}
    .fil0 {fill:#E94F42}
    .fil1 {fill:#FEFEFE;fill-rule:nonzero}
   ]]>
  </style>
 </defs>
 <g id="Слой_x0020_1">
  <metadata id="CorelCorpID_0Corel-Layer"/>
  <g id="_525289432">
   <path class="fil0 str0" d="M4200 339c0,0 -141,-119 -670,-119 -530,0 -2141,0 -2324,0 -182,0 -534,-111 -701,22 -166,132 -283,98 -283,712 0,613 0,1936 0,2185 0,249 -144,838 71,1001 214,163 678,184 1287,184 608,0 1349,-164 1740,-116 392,48 751,125 842,30 90,-95 163,-506 163,-1369 0,-862 0,-1804 0,-2019 0,-214 -125,-511 -125,-511z"/>
   <g>
    <g>
     <path class="fil1" d="M1082 694c0,-57 8,-92 27,-120 6,-9 14,-17 22,-24 11,-7 21,-3 26,10 2,6 3,13 6,19 7,13 20,19 32,15 12,-3 20,-15 19,-29 -5,-28 -14,-54 -38,-67 -26,-14 -51,-14 -75,4 -28,18 -46,48 -58,82 -21,64 -21,128 -2,193 11,36 28,68 57,91 32,25 74,22 101,-6 27,-27 35,-62 36,-99 0,-14 -10,-25 -22,-27 -12,-1 -23,4 -28,16 -2,7 -4,14 -6,22 -3,12 -5,25 -10,37 -10,17 -25,21 -39,8 -12,-11 -22,-24 -29,-39 -14,-29 -19,-62 -19,-86zm263 94c4,10 7,17 10,24 7,22 14,43 21,64 7,18 20,24 35,20 15,-5 22,-18 16,-35 -13,-36 -26,-71 -40,-108 -3,-8 -2,-14 4,-21 10,-13 20,-27 29,-41 5,-6 7,-11 10,-17 4,-13 0,-25 -12,-31 -12,-7 -25,-4 -34,6 -2,2 -4,6 -6,8 -15,21 -32,44 -47,65 -2,2 -6,4 -11,10 0,-13 0,-22 0,-31 0,-14 1,-28 -2,-41 -1,-14 -12,-23 -25,-23 -13,0 -25,10 -27,23 -1,4 0,10 0,15 -1,44 -1,88 -1,131 0,21 0,43 2,64 2,17 15,26 30,24 14,-1 24,-12 24,-28 0,-11 -1,-21 -3,-32 -2,-21 10,-33 27,-46zm176 -3c-1,0 -2,-1 -4,-1 2,-26 3,-52 3,-79 1,-17 2,-35 1,-52 0,-13 -11,-21 -24,-23 -12,-1 -24,6 -28,20 -1,5 -1,11 -2,17 -1,49 -3,97 -5,146 -1,15 0,32 3,48 4,24 28,35 50,22 8,-5 15,-12 21,-20 14,-22 27,-44 40,-66 5,-7 8,-14 12,-22 4,17 4,32 4,46 0,17 0,32 0,47 0,16 8,27 23,28 14,2 28,-7 31,-22 1,-6 1,-12 1,-17 1,-46 1,-93 3,-140 0,-11 0,-21 0,-32 0,-14 -7,-25 -21,-30 -13,-6 -25,0 -34,11 -11,12 -23,26 -32,42 -15,25 -28,51 -42,77zm355 55c-2,-4 -2,-7 -2,-10 2,-32 2,-64 2,-95 0,-17 0,-33 -4,-50 -11,-46 -61,-63 -99,-35 -24,18 -37,41 -40,71 -1,12 -3,25 -4,37 -1,30 -3,60 -4,90 -6,2 -12,2 -17,5 -26,8 -33,16 -30,42 1,15 8,23 20,26 11,2 20,-3 27,-17 2,-6 5,-9 11,-9 4,-1 8,-1 13,-1 33,-1 66,-3 98,-3 5,0 10,4 12,6 8,8 18,11 27,6 9,-3 15,-12 16,-22 3,-21 -3,-32 -26,-41zm-50 2c-17,1 -35,1 -52,3 -1,-9 -1,-15 -1,-20 2,-34 4,-67 7,-101 1,-16 10,-29 24,-37 11,-6 19,-3 22,9 3,8 3,17 3,26 0,37 -1,76 -1,113 0,3 -2,5 -2,7zm184 -54c4,10 7,17 10,24 7,22 14,43 21,64 7,18 19,24 35,20 15,-5 22,-18 16,-35 -13,-36 -26,-71 -40,-108 -3,-8 -2,-14 4,-21 10,-13 20,-27 29,-41 5,-6 7,-11 9,-17 5,-13 0,-25 -11,-31 -12,-7 -25,-4 -34,6 -3,2 -4,6 -6,8 -15,21 -32,44 -47,65 -2,2 -6,4 -12,10 0,-13 0,-22 0,-31 0,-14 2,-28 -1,-41 -1,-14 -13,-23 -25,-23 -13,0 -25,10 -27,23 -2,4 0,10 0,15 -2,44 -2,88 -2,131 0,21 0,43 3,64 2,17 15,26 30,24 14,-1 24,-12 24,-28 0,-11 -2,-21 -3,-32 -2,-21 10,-33 27,-46zm272 6c1,11 1,17 1,21 1,19 2,37 5,55 1,15 11,24 24,24 15,1 26,-9 28,-24 0,-9 -1,-18 -1,-27 0,-27 -1,-53 -1,-80 0,-17 1,-34 0,-51 0,-9 -5,-20 -9,-27 -8,-9 -17,-15 -25,-23 -16,-14 -34,-21 -56,-20 -27,1 -51,11 -70,29 -47,41 -58,95 -47,154 7,42 48,59 83,37 13,-8 23,-17 33,-27 11,-12 21,-24 35,-41zm-97 19c-5,-38 -4,-73 27,-100 8,-7 19,-12 30,-16 12,-5 22,0 30,12 -24,37 -48,78 -87,104zm660 7c1,10 1,18 1,25 0,7 -1,14 -1,21 1,15 12,27 27,28 14,0 25,-11 28,-27 1,-8 0,-17 0,-26 0,-14 0,-94 0,-111 -2,-46 0,-93 -2,-139 0,-13 -2,-27 -4,-40 -4,-15 -19,-22 -33,-19 -25,7 -41,20 -50,43 -20,48 -42,94 -64,141 -9,20 -17,40 -22,59 -8,31 8,50 40,47 18,0 35,-2 53,-3 8,0 16,1 27,1zm1 -172c-1,37 -3,75 -3,116 -17,1 -35,2 -56,3 1,-7 1,-11 4,-16 16,-34 34,-69 55,-103zm85 58c3,19 4,37 6,55 1,12 5,24 8,36 6,22 17,43 32,60 31,36 76,37 108,3 12,-14 24,-31 31,-47 22,-45 31,-92 24,-142 -7,-49 -25,-92 -72,-118 -36,-20 -81,-16 -105,24 -6,10 -11,21 -15,32 -12,32 -16,65 -17,97zm157 -4c-3,41 -9,79 -36,113 -15,20 -28,19 -41,-4 -7,-14 -14,-30 -18,-45 -9,-40 -8,-79 0,-119 1,-8 5,-18 8,-26 10,-23 31,-29 51,-14 9,8 16,19 22,29 6,11 8,22 11,34 2,11 2,21 3,32zm329 -161c-1,-12 -5,-22 -15,-26 -10,-5 -19,-5 -27,2 -6,5 -10,12 -12,17 -23,44 -46,88 -69,132 -29,57 -61,114 -91,172 -12,22 -8,39 8,46 16,9 29,0 41,-22 14,-29 29,-57 44,-87 38,-71 75,-141 113,-212 4,-7 6,-16 8,-22zm-246 70c1,49 36,74 77,58 20,-8 37,-21 48,-40 16,-24 13,-55 -5,-77 -5,-6 -11,-11 -17,-15 -20,-18 -40,-19 -61,-4 -28,20 -39,48 -42,78zm53 7c5,-13 7,-22 10,-33 7,3 12,6 17,8 2,7 -6,16 -27,25zm153 243c33,1 68,-28 75,-62 4,-20 -1,-38 -15,-53 -26,-28 -82,-33 -103,1 -10,17 -17,33 -18,52 0,36 25,62 61,62zm-6 -56c1,-7 3,-14 6,-21 2,-6 13,-6 18,-1 6,4 3,10 -1,14 -5,4 -12,8 -18,11 -1,-1 -4,-2 -5,-3zm-1996 383c-10,1 -20,2 -28,2 -11,0 -20,-1 -30,-1 0,-11 0,-19 0,-28 0,-16 0,-31 -2,-46 -1,-13 -10,-22 -22,-23 -12,-2 -23,7 -27,18 -1,6 -1,11 -1,17 0,45 0,90 0,135 0,20 -1,40 0,60 0,13 7,22 18,25 11,3 24,-2 29,-14 3,-5 3,-12 3,-19 2,-24 3,-47 3,-72 20,-1 38,-2 59,-3 0,13 0,23 2,34 0,15 0,30 1,44 1,16 15,27 28,25 14,-1 23,-12 23,-27 -1,-46 -2,-92 -2,-138 -1,-20 -1,-41 -2,-61 -2,-13 -12,-20 -24,-21 -12,0 -22,8 -26,21 0,5 0,11 0,15 0,19 -1,37 -2,57zm239 62c1,10 1,16 1,21 1,18 2,36 5,55 1,15 11,23 24,23 16,1 26,-8 28,-23 0,-10 -1,-19 -1,-27 0,-27 -1,-54 -1,-81 0,-16 1,-34 0,-50 0,-10 -5,-20 -9,-27 -7,-10 -17,-16 -25,-24 -16,-14 -34,-21 -56,-20 -27,2 -50,11 -70,30 -47,41 -58,94 -47,153 7,42 48,60 83,37 13,-8 23,-17 33,-27 11,-11 21,-24 35,-40zm-97 18c-5,-37 -4,-72 27,-99 8,-7 20,-13 30,-17 12,-4 22,0 31,12 -25,38 -48,78 -88,104zm618 -24c3,9 7,16 9,23 7,22 14,43 21,64 7,18 20,24 35,20 15,-4 22,-17 17,-35 -13,-36 -26,-71 -40,-107 -4,-9 -3,-14 3,-21 11,-13 20,-27 30,-41 4,-6 7,-12 9,-18 5,-13 0,-25 -12,-30 -12,-7 -24,-5 -34,5 -2,3 -3,6 -6,9 -15,21 -31,43 -46,64 -3,2 -6,5 -12,11 0,-13 0,-23 0,-32 0,-14 1,-28 -1,-41 -1,-14 -13,-22 -26,-22 -13,0 -25,9 -27,22 -1,5 0,10 0,15 -1,45 -1,88 -1,131 0,21 0,44 2,65 3,16 15,25 31,23 14,-1 23,-12 23,-28 0,-11 -1,-21 -2,-32 -3,-21 9,-32 27,-45zm124 27c4,17 11,37 25,55 34,43 95,38 121,-11 25,-49 27,-101 14,-153 -8,-32 -29,-53 -61,-61 -9,-2 -20,-2 -29,1 -30,9 -53,31 -64,61 -14,34 -14,69 -6,108zm111 -89c7,35 5,68 -7,99 -1,4 -4,8 -6,12 -8,12 -21,12 -29,2 -4,-3 -6,-6 -7,-10 -17,-33 -21,-67 -7,-102 3,-10 11,-19 20,-25 14,-8 25,-3 32,12 3,5 3,9 4,12zm214 60c-3,-9 -7,-15 -8,-21 -8,-29 -16,-58 -26,-86 -3,-12 -8,-22 -15,-32 -15,-17 -39,-15 -50,4 -4,7 -7,14 -9,22 -3,19 -7,39 -8,59 -4,44 -7,88 -10,133 -3,19 7,31 22,33 15,1 26,-9 28,-27 1,-17 2,-33 5,-49 1,-20 2,-40 3,-60 6,6 8,12 11,17 8,22 16,41 24,62 7,16 17,30 35,31 19,0 29,-14 33,-31 10,-28 18,-57 27,-86 1,-5 4,-11 5,-16 3,3 4,7 4,10 3,39 4,77 5,116 1,16 12,28 27,28 14,-1 25,-13 25,-30 -3,-57 -4,-114 -7,-171 0,-11 -4,-23 -9,-32 -8,-19 -29,-26 -45,-16 -10,6 -18,13 -24,21 -8,14 -15,29 -19,44 -10,25 -16,49 -24,77zm218 -142c-3,-46 15,-84 52,-111 13,-10 29,-16 44,-21 17,-6 26,-17 23,-32 -3,-15 -15,-23 -34,-21 -8,1 -16,2 -22,6 -57,25 -101,66 -113,130 -6,30 -7,62 -7,92 1,55 5,109 8,163 1,35 25,51 59,39 13,-4 26,-11 38,-18 44,-26 65,-67 65,-117 0,-32 -11,-59 -37,-80 -22,-17 -48,-26 -76,-30zm-3 58c38,-1 63,22 63,55 -2,35 -19,60 -54,75 -6,-44 -6,-88 -9,-130zm153 113c4,17 11,37 25,55 34,43 95,38 121,-11 25,-49 27,-101 14,-153 -8,-32 -29,-53 -61,-61 -9,-2 -20,-2 -29,1 -31,9 -53,31 -64,61 -14,34 -14,69 -6,108zm111 -89c7,35 5,68 -7,99 -1,4 -4,8 -6,12 -8,12 -21,12 -29,2 -4,-3 -6,-6 -7,-10 -17,-33 -21,-67 -7,-102 3,-10 11,-19 20,-25 14,-8 25,-3 32,12 3,5 3,9 4,12zm122 153c14,0 25,-12 27,-27 0,-16 -12,-29 -27,-29 -17,0 -30,13 -30,28 0,14 14,28 30,28zm3 -136c14,1 26,-10 26,-26 0,-14 -11,-25 -25,-25 -14,-1 -27,9 -27,24 -1,16 11,27 26,27zm-2681 436c0,6 1,13 1,19 -1,34 -2,69 -3,103 0,16 -1,33 -1,51 1,16 10,26 24,27 14,0 25,-10 27,-26 0,-2 0,-5 0,-8 1,-49 4,-98 5,-147 0,-13 -1,-25 -4,-37 -4,-23 -18,-35 -42,-35 -17,0 -36,-1 -54,1 -11,0 -24,4 -35,7 -17,7 -28,21 -30,40 -1,10 -2,21 -4,31 -1,33 -1,65 -2,98 -1,17 -1,36 -1,53 0,14 9,25 22,27 13,2 24,-7 27,-21 2,-4 2,-10 2,-15 2,-36 2,-71 3,-106 1,-19 2,-39 3,-59 21,-6 41,-5 62,-3zm143 96c-1,0 -2,-2 -3,-2 1,-25 2,-51 2,-78 1,-18 2,-35 1,-53 0,-13 -10,-21 -23,-22 -13,-1 -25,6 -28,20 -2,5 -2,11 -3,16 -1,50 -3,97 -4,147 -2,15 0,31 2,48 5,24 28,35 50,22 8,-5 15,-12 21,-20 14,-22 27,-45 40,-67 5,-7 8,-14 12,-21 4,17 4,32 4,46 0,16 0,31 0,47 0,16 9,27 23,28 14,2 28,-7 31,-23 1,-5 1,-11 1,-16 2,-47 2,-94 3,-140 0,-11 0,-21 0,-32 0,-14 -7,-26 -21,-30 -13,-6 -25,0 -34,10 -11,13 -22,27 -32,42 -15,26 -28,52 -42,78zm233 -86c0,20 1,39 0,57 0,38 -1,75 -1,113 0,16 12,27 26,27 14,0 24,-10 26,-25 2,-3 2,-8 2,-13 0,-24 0,-50 1,-76 0,-29 1,-59 2,-90 10,-1 19,-1 26,-3 13,-4 21,-14 21,-26 0,-13 -9,-25 -23,-26 -7,-1 -14,-1 -21,-1 -37,2 -72,6 -108,8 -2,1 -4,1 -6,2 -13,4 -20,15 -19,27 0,12 8,23 21,25 7,1 14,0 21,1 11,0 21,0 32,0zm287 95c1,10 1,16 1,21 1,19 2,36 5,55 1,15 11,23 24,23 15,2 26,-8 28,-23 0,-9 -1,-19 -1,-27 0,-27 -1,-54 -1,-81 0,-16 1,-34 0,-50 0,-9 -5,-20 -9,-27 -7,-9 -17,-15 -25,-23 -16,-14 -34,-21 -56,-20 -27,1 -50,10 -70,29 -47,41 -58,95 -47,153 7,42 48,60 83,38 13,-8 23,-18 33,-27 11,-12 21,-25 35,-41zm-97 19c-5,-38 -4,-73 27,-100 8,-7 19,-13 30,-16 12,-5 22,0 30,12 -24,37 -48,78 -87,104zm422 -39c4,16 5,33 11,49 11,40 49,65 93,66 39,0 82,-28 95,-63 5,-16 1,-29 -12,-36 -11,-7 -25,-3 -35,9 -4,7 -8,14 -13,19 -13,15 -30,19 -48,15 -17,-4 -28,-17 -31,-33 -5,-20 -5,-40 0,-59 4,-17 14,-31 28,-42 12,-9 23,-8 33,4 4,3 7,9 10,14 10,13 26,17 39,9 13,-8 16,-23 7,-39 -7,-11 -15,-22 -26,-30 -28,-25 -65,-25 -95,-2 -38,30 -55,71 -56,119zm579 119c7,-2 13,-3 18,-6 58,-18 115,-92 87,-174 -17,-43 -46,-64 -91,-69 -14,-1 -28,-2 -42,-5 -15,-2 -30,-1 -44,7 -47,25 -73,65 -79,117 -7,57 27,108 81,127 5,2 10,3 15,6 0,7 0,14 0,21 0,27 -1,54 -1,79 0,21 14,34 32,31 13,-1 21,-11 22,-26 1,-18 1,-35 1,-53 0,-18 1,-36 1,-55zm3 -193c31,-1 43,9 51,36 11,41 -10,82 -52,98 -2,-44 -2,-89 1,-134zm-55 1c-1,45 -1,90 -1,135 -11,2 -17,-3 -23,-7 -36,-33 -23,-106 24,-128zm350 93c1,10 1,16 1,21 1,19 2,36 5,55 1,15 11,23 24,23 15,2 26,-8 28,-23 0,-9 -1,-19 -1,-27 0,-27 -1,-54 -1,-81 0,-16 1,-34 0,-50 0,-9 -5,-20 -10,-27 -7,-9 -16,-15 -24,-23 -16,-14 -34,-21 -56,-20 -27,1 -51,10 -70,29 -47,41 -58,95 -47,153 7,42 48,60 83,38 13,-8 23,-18 33,-27 11,-12 21,-25 35,-41zm-97 19c-5,-38 -4,-73 26,-100 9,-7 20,-13 31,-16 12,-5 22,0 30,12 -24,37 -48,78 -87,104z"/>
     <path class="fil1" d="M2613 1639c0,11 1,19 0,27 -4,43 -7,86 -10,129 -1,9 -1,19 2,27 2,13 14,21 25,21 13,-1 24,-9 26,-22 1,-4 1,-7 1,-11 4,-49 7,-98 10,-147 1,-14 0,-30 -3,-44 -3,-18 -16,-32 -35,-32 -28,-2 -57,-2 -85,2 -21,2 -31,16 -32,36 -1,7 -1,13 -1,20 1,20 1,41 1,61 0,23 -2,46 -10,68 -6,0 -10,-1 -14,-1 -20,1 -32,18 -26,37 7,26 41,39 63,22 8,-7 18,-16 21,-25 8,-20 15,-40 18,-61 3,-27 1,-54 2,-82 0,-7 0,-15 0,-25 16,0 29,0 47,0zm237 101c2,10 2,16 2,21 1,19 2,36 4,55 1,15 12,23 25,23 15,2 26,-8 28,-23 0,-9 -1,-19 -1,-27 0,-27 -1,-54 -1,-81 0,-16 1,-34 0,-50 0,-9 -5,-20 -10,-27 -7,-9 -16,-15 -24,-23 -17,-14 -34,-21 -57,-20 -26,1 -50,10 -70,29 -47,41 -57,95 -47,153 7,42 48,60 84,38 12,-8 23,-18 32,-27 12,-12 21,-25 35,-41zm-97 19c-4,-38 -3,-73 27,-100 8,-7 20,-13 31,-16 11,-5 22,0 30,12 -25,37 -48,78 -88,104zm339 80c7,-2 12,-3 17,-6 59,-18 115,-92 87,-174 -17,-43 -46,-64 -90,-69 -14,-1 -29,-2 -43,-5 -15,-2 -30,-1 -44,7 -47,25 -73,65 -78,117 -7,57 26,108 80,127 5,2 10,3 16,6 0,7 0,14 0,21 0,27 -2,54 -2,79 0,21 14,34 32,31 13,-1 21,-11 22,-26 1,-18 1,-35 1,-53 0,-18 2,-36 2,-55zm2 -193c31,-1 43,9 51,36 11,41 -10,82 -52,98 -1,-44 -1,-89 1,-134zm-55 1c-1,45 -1,90 -1,135 -11,2 -17,-3 -23,-7 -36,-33 -23,-106 24,-128zm252 100c2,-1 4,-1 7,-2 10,0 19,0 30,-2 12,-1 25,-2 36,-4 22,-6 38,-24 40,-47 5,-37 -20,-78 -55,-91 -11,-4 -23,-6 -35,-4 -41,8 -68,34 -76,75 -8,35 -1,69 9,103 6,21 18,37 34,53 13,13 29,18 48,16 46,-3 76,-36 89,-75 4,-12 -2,-22 -13,-28 -10,-5 -22,-1 -29,9 -4,6 -7,12 -9,18 -7,12 -17,20 -30,26 -11,4 -20,3 -29,-6 -9,-12 -16,-25 -17,-41zm-8 -49c0,-22 6,-40 26,-49 19,-9 32,-4 41,13 3,5 5,11 6,18 1,8 -2,13 -10,14 -22,1 -41,3 -63,4zm318 -59c0,11 1,19 0,27 -4,43 -7,86 -10,129 -1,9 -1,19 1,27 3,13 15,21 26,21 13,-1 24,-9 26,-22 1,-4 1,-7 1,-11 4,-49 7,-98 9,-147 2,-14 0,-30 -2,-44 -3,-18 -16,-32 -35,-32 -28,-2 -57,-2 -85,2 -21,2 -31,16 -32,36 -1,7 -1,13 -1,20 1,20 1,41 1,61 0,23 -2,46 -10,68 -6,0 -10,-1 -15,-1 -19,1 -31,18 -25,37 7,26 41,39 63,22 8,-7 17,-16 21,-25 8,-20 15,-40 18,-61 3,-27 1,-54 2,-82 0,-7 0,-15 0,-25 16,0 29,0 47,0zm139 108c2,-1 5,-1 7,-2 11,0 20,0 30,-2 12,-1 25,-2 37,-4 22,-6 37,-24 39,-47 5,-37 -19,-78 -55,-91 -10,-4 -23,-6 -35,-4 -41,8 -67,34 -76,75 -8,35 -1,69 10,103 6,21 17,37 34,53 12,13 29,18 48,16 45,-3 76,-36 89,-75 3,-12 -3,-22 -13,-28 -11,-5 -23,-1 -30,9 -3,6 -7,12 -9,18 -7,12 -16,20 -29,26 -12,4 -20,3 -29,-6 -10,-12 -17,-25 -18,-41zm-7 -49c0,-22 6,-40 26,-49 18,-9 31,-4 41,13 2,5 4,11 6,18 1,8 -3,13 -11,14 -21,1 -41,3 -62,4zm294 35c-4,-9 -7,-15 -8,-21 -9,-29 -17,-59 -26,-87 -4,-11 -8,-22 -15,-31 -16,-18 -39,-16 -51,3 -3,7 -7,14 -8,22 -3,19 -7,39 -8,59 -5,44 -7,89 -11,133 -2,19 7,32 23,33 15,1 25,-8 28,-27 1,-16 2,-33 4,-49 2,-20 3,-40 4,-60 6,6 8,12 10,18 9,21 17,41 25,62 7,15 16,29 35,30 19,0 28,-14 33,-30 9,-28 17,-57 27,-87 1,-4 3,-10 4,-16 4,3 5,7 5,10 2,39 4,78 5,116 1,17 11,28 27,28 14,-1 24,-12 24,-30 -2,-56 -3,-114 -7,-171 0,-10 -3,-22 -8,-31 -8,-19 -29,-26 -46,-17 -9,6 -17,13 -23,21 -8,14 -15,29 -20,45 -9,24 -15,49 -23,77zm-3484 440c-7,1 -11,2 -14,2 -15,1 -31,1 -46,4 -17,2 -27,13 -26,28 2,15 13,26 31,26 9,0 19,-3 29,-3 9,-1 19,0 29,0 0,10 2,17 2,24 1,13 2,25 4,39 4,15 14,22 28,20 13,0 23,-9 25,-24 0,-7 -1,-14 -1,-21 -1,-12 -1,-25 -3,-38 6,0 9,-1 12,-1 11,1 21,2 32,2 17,3 29,-5 32,-21 3,-14 -7,-28 -22,-31 -7,-1 -14,-3 -21,-3 -12,-1 -23,-2 -36,-2 -1,-19 -2,-35 -5,-53 -2,-14 -14,-22 -27,-22 -13,0 -24,11 -27,25 0,6 2,13 2,19 0,9 1,19 2,30zm285 32c2,23 2,42 3,62 1,16 2,32 6,49 2,15 17,24 32,22 14,-4 23,-15 21,-32 -2,-35 -5,-69 -7,-104 -1,-21 2,-43 3,-64 1,-14 7,-19 20,-16 7,1 14,5 20,9 19,10 41,-1 41,-24 0,-14 -6,-26 -20,-31 -12,-5 -25,-7 -38,-8 -42,-5 -74,21 -77,64 -2,25 -2,50 -4,73zm176 46c5,18 12,38 26,55 34,44 95,39 120,-10 25,-49 27,-101 14,-153 -8,-32 -29,-53 -61,-61 -9,-3 -19,-3 -29,1 -30,9 -52,30 -64,61 -14,34 -14,69 -6,107zm111 -89c7,36 5,68 -7,100 -1,3 -3,8 -6,12 -8,11 -21,11 -29,2 -3,-4 -6,-6 -7,-11 -16,-32 -21,-66 -7,-101 4,-10 12,-19 20,-25 14,-8 26,-3 33,12 2,4 2,9 3,11zm147 170c9,0 17,1 26,0 33,-1 78,-21 89,-69 5,-21 10,-44 9,-67 0,-30 -10,-58 -33,-79 -31,-28 -67,-39 -108,-33 -22,2 -30,11 -35,33 -1,5 -1,9 -1,14 -11,106 -4,213 0,319 1,6 2,13 5,19 8,15 30,19 41,6 5,-6 8,-15 8,-22 1,-19 -1,-38 -1,-55 -2,-21 0,-41 0,-66zm-5 -53c1,-49 3,-94 5,-139 30,-6 57,10 65,35 9,27 5,54 -6,81 -4,13 -16,19 -29,21 -9,1 -20,1 -35,2zm269 -39c0,3 0,7 0,10 0,17 0,35 1,52 0,16 11,27 25,28 15,1 27,-9 29,-25 8,-61 7,-105 6,-181 -4,-32 -11,-42 -41,-48 -47,-8 -81,12 -110,42 -23,25 -26,64 -6,92 6,7 14,14 22,21 -10,22 -23,42 -32,63 -7,14 -3,29 10,36 13,6 27,2 36,-11 16,-20 23,-46 37,-68 4,-8 10,-14 23,-11zm7 -113c-1,16 -2,31 -3,45 -2,15 -27,17 -40,16 -15,-1 -22,-16 -18,-29 7,-18 37,-34 61,-32zm204 71c-6,2 -8,2 -11,3 -29,5 -41,-1 -47,-26 -3,-13 -4,-25 -5,-39 -2,-14 0,-29 -3,-43 -1,-14 -13,-22 -28,-21 -13,0 -24,10 -24,23 -2,31 -2,64 8,96 13,39 41,57 91,56 6,0 12,0 19,0 0,16 0,32 0,46 0,6 0,12 1,18 3,13 13,19 27,19 14,0 23,-7 26,-19 1,-5 1,-10 1,-15 0,-40 0,-80 0,-118 0,-28 0,-56 -1,-85 0,-15 -11,-23 -26,-23 -15,0 -27,9 -28,23 -4,34 3,71 0,105zm147 23c-1,0 -2,-1 -3,-1 1,-26 2,-52 2,-79 1,-17 2,-35 1,-52 0,-13 -10,-21 -23,-22 -13,-2 -25,5 -28,19 -1,5 -1,11 -3,17 -1,49 -3,97 -4,146 -1,15 0,32 2,48 5,25 28,35 50,22 9,-4 16,-11 21,-20 15,-22 27,-44 40,-66 5,-7 8,-14 12,-21 5,16 5,31 5,45 0,17 0,32 0,47 0,16 8,27 22,28 14,2 28,-7 31,-22 2,-6 2,-12 2,-16 1,-47 1,-94 2,-141 0,-10 0,-21 0,-31 0,-15 -7,-26 -21,-31 -13,-6 -25,0 -34,11 -11,12 -22,27 -32,42 -15,25 -28,51 -42,77zm268 -218c-13,1 -17,-4 -22,-13 -6,-9 -17,-12 -27,-9 -8,5 -14,14 -13,25 1,4 4,10 6,14 13,22 33,29 57,28 24,-1 39,-17 46,-44 5,-12 0,-23 -10,-28 -12,-5 -24,-1 -30,12 -3,5 -4,11 -7,15zm-50 218c-1,0 -2,-1 -4,-1 2,-26 3,-52 3,-79 1,-17 2,-35 1,-52 0,-13 -11,-21 -23,-22 -13,-2 -25,5 -28,19 -2,5 -2,11 -3,17 -1,49 -3,97 -5,146 -1,15 0,32 3,48 5,25 28,35 50,22 8,-4 15,-11 21,-20 14,-22 27,-44 40,-66 5,-7 8,-14 12,-21 4,16 4,31 4,45 0,17 0,32 0,47 0,16 9,27 23,28 14,2 28,-7 31,-22 1,-6 1,-12 1,-16 2,-47 2,-94 3,-141 0,-10 0,-21 0,-31 0,-15 -7,-26 -21,-31 -13,-6 -25,0 -34,11 -11,12 -23,27 -32,42 -15,25 -28,51 -42,77zm496 -91c0,10 1,18 0,27 -3,43 -7,85 -9,128 -1,10 -1,19 1,27 2,13 14,21 26,21 13,-1 23,-9 25,-22 2,-3 2,-7 2,-10 3,-50 7,-99 9,-148 1,-14 0,-29 -2,-43 -4,-19 -17,-33 -35,-33 -29,-1 -58,-1 -86,2 -21,3 -30,17 -31,37 -2,7 -2,13 -2,20 2,19 2,40 2,60 0,24 -3,46 -11,68 -6,0 -9,-1 -14,-1 -20,1 -32,19 -26,38 7,25 41,38 63,22 9,-7 18,-17 22,-26 8,-20 15,-40 17,-61 4,-27 1,-54 2,-82 0,-7 0,-15 0,-24 17,0 30,0 47,0zm142 91c-1,0 -2,-1 -4,-1 2,-26 3,-52 3,-79 1,-17 2,-35 1,-52 0,-13 -11,-21 -24,-22 -12,-2 -24,5 -28,19 -1,5 -1,11 -2,17 -1,49 -3,97 -5,146 -1,15 0,32 3,48 4,25 28,35 50,22 8,-4 15,-11 21,-20 14,-22 27,-44 40,-66 5,-7 8,-14 12,-21 4,16 4,31 4,45 0,17 0,32 0,47 0,16 8,27 22,28 15,2 29,-7 32,-22 1,-6 1,-12 1,-16 1,-47 1,-94 3,-141 0,-10 0,-21 0,-31 0,-15 -7,-26 -21,-31 -13,-6 -25,0 -34,11 -11,12 -23,27 -32,42 -15,25 -28,51 -42,77zm285 2c-3,-9 -7,-15 -8,-21 -8,-29 -16,-58 -25,-86 -4,-12 -9,-23 -16,-32 -15,-17 -38,-15 -50,4 -4,7 -7,14 -8,22 -4,19 -7,38 -8,58 -5,45 -7,89 -11,134 -2,18 7,31 22,32 16,2 26,-8 28,-26 2,-17 3,-33 5,-50 1,-19 2,-39 4,-59 5,6 8,11 10,17 8,21 16,41 25,62 7,16 16,30 35,31 19,0 28,-14 33,-31 9,-28 17,-57 26,-86 2,-5 4,-11 5,-17 4,4 5,7 5,11 2,38 3,77 4,116 2,16 12,28 27,28 14,-1 25,-13 25,-31 -2,-56 -4,-113 -7,-170 0,-11 -4,-23 -8,-32 -8,-19 -29,-26 -46,-16 -9,5 -17,12 -23,21 -8,14 -15,29 -20,44 -10,25 -15,49 -24,77zm167 28c4,18 11,38 25,55 34,44 95,39 121,-10 25,-49 27,-101 14,-153 -8,-32 -29,-53 -61,-61 -9,-3 -20,-3 -29,1 -31,9 -53,30 -64,61 -15,34 -15,69 -6,107zm111 -89c7,36 5,68 -7,100 -1,3 -4,8 -6,12 -8,11 -21,11 -29,2 -4,-4 -6,-6 -7,-11 -17,-32 -21,-66 -7,-101 3,-10 11,-19 20,-25 14,-8 25,-3 32,12 3,4 3,9 4,11zm201 6c-10,1 -20,3 -28,3 -10,0 -20,-2 -30,-2 0,-10 0,-18 0,-28 0,-15 0,-30 -2,-45 -1,-13 -10,-22 -22,-24 -11,-1 -23,7 -27,19 -1,6 -1,11 -1,16 0,46 0,91 0,136 0,20 -1,40 0,60 0,13 7,22 18,24 11,4 24,-1 29,-14 3,-4 3,-11 3,-18 2,-24 3,-47 3,-72 20,-1 38,-2 60,-3 0,13 0,23 1,34 0,15 0,30 1,44 1,15 15,27 28,25 14,-1 23,-12 23,-27 -1,-46 -2,-93 -2,-138 -1,-20 -1,-41 -2,-61 -2,-13 -12,-20 -24,-21 -11,0 -22,8 -25,21 0,5 0,10 0,15 0,19 -2,36 -3,56zm239 62c1,11 1,17 1,21 1,19 2,37 5,55 1,16 12,24 24,24 16,1 26,-8 28,-24 0,-9 -1,-18 -1,-27 0,-26 -1,-53 -1,-80 0,-17 1,-34 0,-51 0,-9 -5,-19 -9,-26 -7,-10 -17,-16 -25,-24 -16,-14 -34,-21 -56,-20 -27,1 -50,11 -70,29 -47,41 -58,95 -47,154 7,42 48,59 83,37 13,-8 23,-17 33,-27 12,-11 21,-24 35,-41zm-97 19c-5,-37 -4,-73 27,-99 8,-7 20,-13 30,-17 12,-4 22,0 31,12 -25,37 -48,78 -88,104zm384 27c-1,-4 -1,-7 -1,-9 1,-33 1,-65 1,-96 0,-17 0,-33 -4,-49 -10,-47 -61,-64 -99,-36 -24,18 -37,41 -40,71 -1,12 -2,25 -4,37 -1,30 -3,60 -4,90 -6,2 -12,2 -17,5 -25,8 -32,16 -30,42 1,15 8,23 20,26 12,2 20,-3 27,-17 2,-6 6,-9 11,-9 4,-1 9,-1 13,-1 33,-1 66,-3 99,-3 4,0 9,4 11,6 9,8 18,11 27,6 10,-3 15,-12 17,-22 2,-21 -4,-32 -27,-41zm-49 2c-18,1 -36,1 -53,3 -1,-9 -1,-14 -1,-20 2,-34 4,-67 7,-101 1,-16 10,-29 24,-37 11,-6 19,-3 23,9 2,8 2,18 2,26 0,37 -1,76 -1,113 0,3 -1,5 -1,7zm-2948 396c12,-16 18,-32 14,-50 -5,-31 -34,-54 -70,-59 -15,-2 -30,-3 -45,-3 -21,0 -33,11 -33,31 2,60 1,118 1,178 0,32 13,44 46,47 10,1 22,2 32,2 39,-2 74,-13 97,-43 25,-33 16,-73 -21,-93 -5,-3 -12,-5 -21,-10zm-83 95c1,-18 3,-34 3,-53 27,-6 51,-2 76,11 11,5 14,14 3,23 -7,7 -16,13 -26,16 -16,6 -35,7 -56,3zm0 -107c0,-16 0,-31 1,-49 15,-3 27,-1 39,8 11,8 11,17 0,25 -10,7 -23,13 -35,20 -1,-1 -2,-3 -5,-4z"/>
     <path class="fil1" d="M1547 2715c4,9 7,16 9,23 8,23 15,44 22,65 7,17 19,23 35,20 15,-5 22,-18 16,-36 -13,-36 -26,-71 -40,-107 -3,-8 -2,-14 4,-21 10,-13 20,-27 29,-41 5,-6 7,-12 9,-18 5,-13 0,-24 -11,-30 -12,-7 -25,-5 -34,6 -3,2 -4,5 -6,8 -15,21 -32,43 -47,64 -2,3 -6,5 -12,11 0,-13 0,-23 0,-32 0,-14 2,-28 -1,-41 -1,-14 -13,-22 -26,-22 -12,0 -24,9 -26,22 -2,5 0,11 0,15 -2,45 -2,88 -2,131 0,21 0,44 3,65 2,16 15,26 30,23 14,-1 24,-12 24,-28 0,-10 -2,-21 -3,-31 -2,-22 10,-33 27,-46zm272 6c1,10 1,16 1,21 1,19 2,36 5,55 1,15 11,23 24,23 15,1 26,-8 28,-23 0,-10 -1,-19 -1,-27 0,-27 -1,-54 -1,-81 0,-16 1,-34 0,-50 0,-10 -5,-20 -10,-27 -7,-9 -16,-15 -24,-24 -16,-14 -34,-21 -56,-19 -27,1 -51,10 -70,29 -47,41 -58,95 -47,153 7,42 48,60 83,38 13,-9 23,-18 33,-27 11,-12 21,-25 35,-41zm-97 18c-5,-37 -4,-72 26,-99 9,-7 20,-13 31,-16 12,-5 22,0 30,11 -24,38 -48,79 -87,104zm338 81c7,-2 13,-3 17,-6 59,-19 115,-93 87,-174 -16,-43 -46,-64 -90,-69 -14,-1 -28,-2 -42,-5 -16,-2 -31,-1 -45,7 -47,25 -72,65 -78,117 -7,56 27,108 81,127 4,2 9,3 15,6 0,7 0,14 0,21 0,26 -1,53 -1,79 0,21 14,34 31,31 13,-2 21,-11 22,-26 2,-18 2,-35 2,-53 0,-19 1,-36 1,-55zm2 -193c32,-1 43,8 52,35 10,42 -11,83 -53,99 -1,-45 -1,-89 1,-134zm-55 1c-1,45 -1,90 -1,134 -11,3 -16,-2 -22,-7 -37,-33 -24,-106 23,-127zm252 100c2,-1 4,-1 7,-3 10,0 20,0 30,-1 12,-1 25,-2 36,-4 23,-6 38,-24 40,-47 5,-38 -20,-79 -55,-92 -10,-3 -23,-5 -35,-3 -41,8 -68,34 -76,75 -8,35 -1,69 9,103 6,21 18,37 34,52 13,13 30,19 48,17 46,-4 76,-36 89,-75 4,-12 -2,-22 -13,-28 -10,-5 -22,-1 -29,9 -3,6 -7,12 -9,18 -7,12 -17,20 -29,26 -12,4 -20,3 -30,-6 -9,-12 -16,-25 -17,-41zm-7 -49c0,-23 6,-40 26,-50 18,-8 31,-3 40,13 3,6 5,12 6,19 1,8 -2,13 -10,14 -21,1 -41,2 -62,4zm702 -230c-1,80 3,183 -4,260 -23,-66 -53,-126 -80,-191 -13,-28 -24,-58 -35,-87 -7,-17 -18,-22 -34,-19 -16,2 -25,12 -27,28 0,3 0,6 0,8 -1,105 0,228 -1,334 0,3 0,8 1,11 3,13 15,20 27,20 12,-1 21,-8 24,-21 1,-5 1,-10 1,-16 0,-40 -2,-96 -2,-136 0,-25 1,-48 1,-73 0,-10 5,0 7,4 12,28 24,56 38,83 22,44 50,105 73,149 6,10 14,18 27,17 24,0 44,-22 42,-44 -2,-94 -3,-183 -2,-276 0,-21 -1,-44 -2,-66 -1,-13 -11,-22 -24,-23 -13,-2 -24,5 -28,20 -2,5 -2,11 -2,18zm95 293c4,17 11,37 25,55 34,43 95,38 121,-11 25,-49 27,-100 14,-153 -8,-32 -29,-53 -61,-61 -9,-2 -20,-2 -29,1 -30,10 -53,31 -64,61 -14,34 -14,69 -6,108zm111 -89c7,35 5,68 -7,99 -1,4 -4,9 -6,12 -8,12 -21,12 -29,2 -4,-3 -6,-5 -7,-10 -17,-33 -21,-67 -7,-102 3,-9 11,-19 20,-25 14,-8 25,-3 32,12 3,5 3,10 4,12zm94 89c4,17 11,37 25,55 34,43 95,38 121,-11 24,-49 27,-100 14,-153 -8,-32 -29,-53 -61,-61 -9,-2 -20,-2 -29,1 -31,10 -53,31 -65,61 -14,34 -14,69 -5,108zm111 -89c7,35 4,68 -7,99 -1,4 -4,9 -6,12 -8,12 -21,12 -29,2 -4,-3 -6,-5 -7,-10 -17,-33 -21,-67 -7,-102 3,-9 11,-19 19,-25 15,-8 26,-3 33,12 3,5 3,10 4,12zm107 -57c0,24 0,46 2,69 0,32 1,65 2,98 0,22 8,43 29,55 27,16 58,16 88,13 15,-3 25,-18 22,-32 -2,-15 -14,-22 -31,-22 -11,0 -23,0 -33,-1 -19,-3 -20,-3 -21,-23 -1,-49 -1,-98 -3,-147 0,-3 3,-7 3,-10 8,0 14,0 20,0 17,-3 27,-12 27,-27 0,-14 -10,-25 -25,-27 -7,-1 -14,-1 -21,-3 0,-11 1,-21 1,-30 3,-33 4,-34 5,-66 0,-15 -10,-24 -22,-27 -13,-2 -25,5 -30,19 -2,5 -2,10 -3,14 -2,35 -2,39 -5,74 -1,6 -2,12 -3,19 -9,-1 -17,-3 -24,-1 -16,0 -28,10 -29,24 0,14 11,27 26,29 8,2 15,2 25,2z"/>
    </g>
    <path class="fil2" d="M2915 3152c-34,-48 -167,-59 -292,-73 -126,-13 -332,0 -409,0 -76,0 -70,53 -327,24 -257,-30 -295,-26 -286,12 9,37 -21,144 -1,177 19,34 194,74 296,74 102,0 377,-22 481,-27 105,-5 235,-47 303,-28 67,18 171,27 188,22 17,-5 47,-181 47,-181z"/>
    <path class="fil1" d="M1832 3185c0,3 1,6 1,8 -1,13 -1,27 -2,40 0,7 0,13 0,20 0,7 4,10 9,11 6,0 10,-4 11,-10 0,-1 0,-2 0,-3 1,-20 1,-39 2,-58 0,-5 -1,-10 -1,-15 -2,-9 -8,-13 -17,-13 -7,0 -14,-1 -21,0 -5,0 -10,1 -14,3 -7,3 -11,8 -12,15 0,5 -1,9 -1,13 -1,13 -1,25 -1,38 -1,7 -1,14 -1,21 0,6 4,10 9,11 5,0 9,-3 11,-9 1,-1 1,-4 1,-5 0,-15 0,-28 0,-42 1,-8 1,-16 2,-23 8,-3 16,-2 24,-2zm84 82c4,0 7,0 10,0 13,-1 31,-9 35,-27 2,-9 4,-18 4,-27 0,-12 -4,-23 -13,-31 -12,-11 -26,-15 -43,-13 -8,1 -11,4 -13,13 -1,2 -1,4 -1,6 -4,41 -1,83 0,125 1,2 1,5 2,7 3,6 12,8 16,3 2,-3 3,-6 3,-9 1,-7 0,-15 0,-22 -1,-8 0,-16 0,-25zm-2 -21c1,-19 1,-37 2,-55 12,-2 22,4 26,14 3,11 1,21 -3,32 -1,5 -6,7 -11,8 -4,0 -8,0 -14,1zm92 -11c2,7 5,15 11,22 13,17 37,15 47,-5 10,-19 11,-39 5,-60 -3,-12 -11,-21 -23,-24 -4,-1 -8,-1 -12,1 -12,3 -21,12 -25,24 -6,13 -6,27 -3,42zm44 -35c3,14 2,27 -3,39 0,1 -1,3 -2,5 -3,4 -8,4 -11,1 -2,-2 -3,-3 -3,-5 -7,-12 -8,-26 -3,-40 1,-3 5,-7 8,-9 5,-3 10,-2 13,4 1,2 1,4 1,5zm112 24c-1,-4 -3,-6 -3,-8 -4,-12 -7,-23 -10,-34 -2,-5 -4,-9 -6,-13 -6,-7 -16,-6 -20,2 -2,2 -3,5 -3,8 -2,8 -3,15 -4,23 -1,18 -2,35 -4,53 -1,7 3,12 9,13 6,0 10,-4 11,-11 0,-6 1,-13 2,-19 0,-8 1,-16 1,-24 3,3 3,5 4,7 4,8 7,16 10,24 3,6 6,12 14,12 7,0 11,-5 13,-12 3,-11 7,-22 10,-34 1,-1 2,-4 2,-6 1,1 2,3 2,4 1,15 1,31 2,46 0,6 4,11 10,11 6,-1 10,-5 10,-12 -1,-22 -1,-45 -3,-67 0,-5 -1,-9 -3,-13 -3,-7 -11,-10 -18,-6 -4,2 -7,5 -9,8 -3,6 -6,12 -8,18 -4,9 -6,19 -9,30zm93 11c2,7 4,15 10,22 13,17 37,15 47,-5 10,-19 11,-39 6,-60 -3,-12 -12,-21 -24,-24 -4,-1 -8,-1 -12,1 -12,3 -20,12 -25,24 -5,13 -5,27 -2,42zm43 -35c3,14 2,27 -2,39 -1,1 -2,3 -3,5 -3,4 -8,4 -11,1 -1,-2 -2,-3 -3,-5 -6,-12 -8,-26 -3,-40 2,-3 5,-7 8,-9 6,-3 10,-2 13,4 1,2 1,4 1,5zm93 24c2,4 3,7 4,10 3,8 6,17 8,25 3,7 8,9 14,8 6,-2 9,-7 7,-14 -6,-14 -11,-28 -16,-42 -1,-4 -1,-6 1,-9 4,-5 8,-10 12,-16 2,-2 3,-4 3,-7 2,-5 0,-9 -4,-12 -5,-2 -10,-2 -13,3 -1,1 -2,2 -3,3 -6,8 -12,17 -18,25 -1,1 -2,2 -5,4 0,-5 0,-8 0,-12 0,-6 1,-11 0,-16 -1,-6 -5,-9 -10,-9 -5,0 -10,4 -11,9 0,2 0,4 0,6 0,17 0,34 0,51 0,9 0,17 1,26 0,6 6,10 11,9 6,-1 10,-5 10,-11 0,-4 -1,-9 -1,-13 -1,-8 3,-13 10,-18zm77 11c2,7 4,15 10,22 13,17 37,15 47,-5 10,-19 11,-39 6,-60 -4,-12 -12,-21 -24,-24 -4,-1 -8,-1 -12,1 -12,3 -20,12 -25,24 -6,13 -6,27 -2,42zm43 -35c3,14 2,27 -2,39 -1,1 -2,3 -3,5 -3,4 -8,4 -11,1 -2,-2 -2,-3 -3,-5 -6,-12 -8,-26 -3,-40 2,-3 5,-7 8,-9 6,-3 10,-2 13,4 1,2 1,4 1,5zm139 45c0,-2 0,-3 0,-4 0,-13 0,-25 0,-38 0,-6 0,-13 -1,-19 -4,-19 -24,-25 -39,-14 -9,7 -14,16 -16,28 0,5 -1,10 -1,14 -1,12 -2,24 -2,36 -2,1 -5,1 -7,2 -10,3 -12,6 -11,16 0,6 3,9 7,10 5,1 8,-1 11,-6 1,-2 2,-4 5,-4 1,0 3,0 5,0 12,-1 25,-1 38,-1 2,0 4,1 5,2 3,3 7,4 10,2 4,-1 6,-4 7,-8 1,-9 -2,-13 -11,-16zm-19 0c-7,1 -14,1 -21,1 0,-3 0,-5 0,-7 1,-14 2,-27 3,-40 0,-6 4,-11 9,-15 4,-2 8,-1 9,4 1,3 1,7 1,10 0,15 -1,30 -1,45 0,1 0,2 0,2zm82 15c6,0 10,-4 11,-10 0,-7 -5,-12 -11,-12 -6,0 -11,5 -11,11 0,6 5,11 11,11zm2 -53c5,0 10,-4 10,-10 0,-6 -4,-10 -10,-10 -5,-1 -10,3 -10,9 -1,6 4,11 10,11z"/>
    <path class="fil1" d="M829 3517c5,-9 11,-17 15,-28 11,-29 5,-62 -15,-80 -20,-16 -42,-22 -67,-16 -7,1 -12,3 -18,4 -16,4 -23,11 -23,27 -2,53 -5,105 -6,158 0,36 2,73 3,109 1,18 18,34 34,33 17,0 34,-1 50,-3 40,-6 70,-25 82,-66 3,-13 5,-29 5,-43 -2,-25 -4,-50 -23,-69 -11,-9 -24,-17 -37,-26zm-69 162c0,-31 0,-60 -1,-87 0,-9 4,-15 12,-18 14,-7 29,-10 44,-10 10,0 17,5 21,14 11,24 13,49 3,74 -7,14 -19,21 -33,23 -15,3 -29,2 -46,4zm1 -160c1,-13 2,-21 2,-31 1,-13 2,-26 2,-40 1,-10 4,-13 15,-13 17,0 27,11 25,28 -1,13 -7,22 -15,31 -7,9 -16,17 -29,25zm203 120c-1,0 -2,-1 -3,-1 1,-21 2,-42 2,-63 1,-15 2,-29 1,-43 0,-11 -9,-17 -19,-18 -11,-1 -20,5 -23,16 -1,4 -1,8 -2,13 -1,40 -3,79 -4,119 -1,12 0,26 2,39 4,20 23,28 41,18 7,-4 13,-10 17,-16 12,-18 22,-36 33,-54 3,-6 6,-12 9,-17 4,13 4,25 4,37 0,13 0,25 0,38 0,13 6,21 18,22 11,2 23,-5 26,-18 0,-4 0,-9 0,-13 1,-38 1,-76 2,-114 0,-8 0,-17 0,-26 0,-11 -5,-20 -17,-24 -10,-5 -20,0 -27,8 -9,11 -18,22 -26,34 -12,21 -23,42 -34,63zm248 -74c0,9 1,15 0,22 -2,35 -5,69 -7,104 -1,8 -1,16 1,22 2,11 11,17 21,17 10,-1 19,-7 21,-18 0,-3 0,-5 0,-8 3,-40 6,-80 8,-120 1,-11 0,-24 -2,-35 -3,-15 -13,-27 -28,-27 -23,-1 -47,-1 -70,2 -17,2 -24,14 -25,30 -1,5 -1,10 -1,16 1,16 1,33 1,49 0,19 -2,37 -9,55 -5,0 -7,-1 -11,-1 -16,1 -26,16 -21,31 6,21 33,31 51,18 7,-6 14,-14 17,-21 7,-16 13,-32 14,-49 3,-22 1,-44 2,-67 0,-6 0,-12 0,-20 14,0 24,0 38,0zm187 0c0,9 1,15 0,22 -3,35 -6,69 -7,104 -1,8 -1,16 0,22 2,11 12,17 21,17 11,-1 19,-7 21,-18 1,-3 1,-5 1,-8 3,-40 6,-80 8,-120 1,-11 0,-24 -2,-35 -3,-15 -13,-27 -29,-27 -22,-1 -46,-1 -69,2 -17,2 -25,14 -26,30 -1,5 -1,10 -1,16 1,16 1,33 1,49 0,19 -1,37 -8,55 -5,0 -8,-1 -12,-1 -16,1 -25,16 -20,31 5,21 33,31 51,18 7,-6 14,-14 17,-21 7,-16 12,-32 14,-49 3,-22 1,-44 2,-67 0,-6 0,-12 0,-20 13,0 24,0 38,0zm191 82c1,8 1,13 1,17 1,15 1,29 3,44 1,13 10,19 20,19 13,1 21,-6 23,-19 0,-7 -1,-15 -1,-21 0,-22 -1,-44 -1,-66 0,-13 1,-27 0,-41 0,-7 -4,-16 -7,-22 -6,-7 -14,-12 -20,-19 -14,-11 -28,-17 -46,-16 -22,1 -41,9 -57,24 -38,33 -46,77 -38,124 6,35 39,49 68,31 10,-7 19,-14 26,-22 10,-10 17,-20 29,-33zm-79 15c-4,-30 -3,-59 22,-81 6,-5 16,-10 24,-13 10,-4 18,0 25,9 -20,31 -39,64 -71,85zm309 22c-1,-3 -1,-6 -1,-8 1,-26 1,-52 1,-78 0,-13 0,-26 -3,-40 -8,-38 -49,-51 -81,-28 -19,14 -29,33 -32,57 -1,10 -2,21 -3,30 -1,25 -3,49 -3,73 -5,2 -10,2 -14,4 -21,7 -26,14 -24,34 0,13 6,19 16,21 9,2 16,-2 22,-13 1,-5 4,-8 9,-8 3,-1 7,-1 10,-1 27,0 54,-1 80,-1 4,0 8,2 10,4 6,7 14,9 22,5 7,-3 12,-9 13,-18 2,-17 -3,-26 -22,-33zm-40 2c-14,1 -28,1 -43,2 -1,-7 -1,-12 -1,-17 2,-27 4,-54 6,-81 1,-14 9,-24 20,-31 9,-4 15,-2 18,8 2,7 2,14 2,21 0,30 -1,62 -1,92 0,2 -1,4 -1,6zm156 -58c11,3 14,9 13,20 -2,20 -3,41 -3,60 -1,13 7,20 17,22 10,1 19,-5 22,-16 1,-6 1,-10 2,-16 0,-12 1,-25 2,-38 0,-3 1,-8 3,-9 5,-6 13,-12 20,-18 2,5 4,8 5,12 8,21 16,42 24,63 4,10 12,17 21,15 10,-1 17,-9 18,-19 0,-5 -1,-11 -3,-15 -8,-22 -16,-46 -27,-69 -7,-16 -9,-30 4,-44 7,-8 12,-18 15,-26 6,-13 0,-27 -13,-29 -10,-2 -17,3 -23,12 -9,14 -18,29 -27,43 -4,5 -6,11 -13,15 0,-6 0,-11 0,-15 0,-11 1,-23 2,-36 0,-13 -7,-22 -19,-22 -11,-1 -20,7 -21,20 -1,12 -1,23 -2,35 -1,3 -2,6 -3,12 -13,-14 -23,-27 -33,-39 -7,-7 -12,-14 -19,-21 -7,-8 -18,-9 -26,-4 -8,7 -11,18 -6,28 2,4 6,7 9,10 10,13 20,25 30,38 -18,31 -28,63 -37,97 -3,14 2,24 12,27 12,4 21,-2 26,-14 3,-8 5,-16 7,-23 5,-20 12,-39 23,-56zm262 -44c0,-1 0,-1 0,-1 28,0 54,0 82,0 9,0 17,-7 21,-15 3,-11 1,-21 -9,-26 -5,-4 -13,-5 -21,-5 -18,0 -36,1 -54,1 -30,0 -61,0 -90,-1 -12,0 -21,5 -25,16 -3,9 2,22 13,26 8,3 17,4 25,5 19,0 39,0 58,0zm249 143c5,-1 10,-2 14,-4 47,-16 93,-76 70,-142 -13,-35 -37,-52 -73,-56 -11,-1 -23,-2 -34,-4 -12,-2 -25,-1 -36,6 -38,20 -59,52 -64,94 -6,47 22,88 66,104 4,2 7,2 12,4 0,6 0,12 0,17 0,22 -1,44 -1,65 0,17 12,28 26,25 10,-1 17,-9 18,-21 1,-14 1,-29 1,-43 0,-15 1,-29 1,-45zm2 -156c25,-1 35,6 41,28 9,34 -8,67 -42,81 -1,-37 -1,-73 1,-109zm-45 1c-1,36 -1,72 -1,109 -9,2 -13,-2 -18,-6 -29,-27 -19,-86 19,-103zm282 75c1,8 1,13 1,17 1,15 2,29 3,44 1,13 10,19 20,19 13,1 21,-6 23,-19 0,-7 -1,-15 -1,-21 0,-22 -1,-44 -1,-66 0,-13 1,-27 0,-41 0,-7 -4,-16 -7,-22 -6,-7 -14,-12 -20,-19 -14,-11 -28,-17 -46,-16 -22,1 -41,9 -57,24 -38,33 -46,77 -38,124 6,35 39,49 68,31 10,-7 19,-14 26,-22 10,-10 17,-20 29,-33zm-79 15c-4,-30 -3,-59 22,-81 6,-5 16,-10 24,-13 10,-4 18,0 25,9 -20,31 -39,64 -71,85zm272 -97c0,9 1,15 0,22 -3,35 -6,69 -8,104 0,8 0,16 1,22 2,11 12,17 21,17 11,-1 19,-7 21,-18 1,-3 1,-5 1,-8 3,-40 6,-80 8,-120 1,-11 0,-24 -2,-35 -3,-15 -13,-27 -29,-27 -22,-1 -46,-1 -69,2 -17,2 -25,14 -26,30 -1,5 -1,10 -1,16 1,16 1,33 1,49 0,19 -2,37 -8,55 -5,0 -8,-1 -12,-1 -16,1 -25,16 -20,31 5,21 33,31 51,18 6,-6 14,-14 17,-21 7,-16 12,-32 14,-49 3,-22 1,-44 2,-67 0,-6 0,-12 0,-20 13,0 24,0 38,0zm191 82c1,8 1,13 1,17 0,15 1,29 3,44 1,13 10,19 20,19 13,1 21,-6 23,-19 0,-7 -1,-15 -1,-21 0,-22 -1,-44 -1,-66 0,-13 1,-27 0,-41 0,-7 -4,-16 -7,-22 -6,-7 -14,-12 -20,-19 -14,-11 -28,-17 -46,-16 -22,1 -41,9 -57,24 -38,33 -46,77 -38,124 6,35 39,49 68,31 10,-7 19,-14 26,-22 10,-10 17,-20 29,-33zm-79 15c-4,-30 -3,-59 22,-81 6,-5 16,-10 24,-13 10,-4 18,0 25,9 -20,31 -39,64 -71,85zm272 65c6,-1 10,-2 14,-4 48,-16 93,-76 71,-142 -14,-35 -38,-52 -74,-56 -11,-1 -22,-2 -34,-4 -12,-2 -25,-1 -36,6 -38,20 -59,52 -64,94 -5,47 22,88 66,104 4,2 8,2 12,4 0,6 0,12 0,17 0,22 -1,44 -1,65 0,17 12,28 26,25 10,-1 17,-9 18,-21 1,-14 1,-29 1,-43 0,-15 1,-29 1,-45zm2 -156c26,-1 35,6 42,28 8,34 -9,67 -43,81 -1,-37 -1,-73 1,-109zm-45 1c-1,36 -1,72 -1,109 -8,2 -13,-2 -18,-6 -29,-27 -19,-86 19,-103zm202 80c2,0 4,0 6,-1 8,0 16,0 25,-1 9,-1 20,-2 29,-4 18,-5 30,-19 32,-38 4,-31 -16,-64 -44,-74 -9,-3 -19,-5 -29,-3 -33,7 -55,27 -62,61 -6,28 -1,56 8,83 5,17 14,31 28,43 10,10 23,15 39,13 37,-3 61,-29 72,-61 3,-9 -2,-18 -11,-22 -8,-4 -18,-1 -23,7 -3,5 -6,10 -8,15 -6,9 -13,16 -24,20 -9,4 -16,3 -24,-4 -7,-10 -13,-20 -14,-34zm-6 -39c0,-18 5,-33 21,-40 16,-7 26,-3 34,10 2,5 3,10 4,15 1,7 -2,11 -8,12 -17,1 -33,2 -51,3zm256 -48c0,9 1,15 0,22 -3,35 -6,69 -8,104 -1,8 -1,16 1,22 2,11 11,17 21,17 10,-1 19,-7 21,-18 1,-3 1,-5 1,-8 3,-40 5,-80 7,-120 1,-11 0,-24 -2,-35 -2,-15 -13,-27 -28,-27 -23,-1 -47,-1 -69,2 -18,2 -25,14 -26,30 -1,5 -1,10 -1,16 1,16 1,33 1,49 0,19 -2,37 -9,55 -4,0 -7,-1 -11,-1 -16,1 -26,16 -21,31 6,21 33,31 51,18 7,-6 15,-14 17,-21 7,-16 13,-32 15,-49 3,-22 1,-44 2,-67 0,-6 0,-12 0,-20 13,0 23,0 38,0zm110 18c0,-17 0,-31 0,-46 -1,-13 -8,-20 -20,-21 -11,-1 -21,6 -23,18 -1,8 -1,16 -1,23 0,30 -1,58 0,87 0,16 0,33 1,49 2,26 27,38 51,33 8,-2 14,-5 22,-8 37,-12 61,-50 45,-94 -7,-24 -26,-37 -53,-40 -6,-1 -13,-1 -22,-1zm-1 100c0,-20 0,-38 0,-59 8,1 14,0 18,1 12,1 16,5 18,15 5,22 -6,36 -36,43z"/>
   </g>
  </g>
 </g>
</svg>
