<?xml version="1.0" encoding="UTF-8"?>
<!DOCTYPE svg PUBLIC "-//W3C//DTD SVG 1.1//EN" "http://www.w3.org/Graphics/SVG/1.1/DTD/svg11.dtd">
<!-- Creator: CorelDRAW X7 -->
<svg xmlns="http://www.w3.org/2000/svg" xml:space="preserve" width="45mm" height="45mm" version="1.1" style="shape-rendering:geometricPrecision; text-rendering:geometricPrecision; image-rendering:optimizeQuality; fill-rule:evenodd; clip-rule:evenodd"
viewBox="0 0 4500 4500"
 xmlns:xlink="http://www.w3.org/1999/xlink">
 <defs>
  <style type="text/css">
   <![CDATA[
    .fil2 {fill:black}
    .fil0 {fill:#E94F42}
    .fil3 {fill:#FEFEFE;fill-rule:nonzero}
    .fil1 {fill:black;fill-rule:nonzero}
   ]]>
  </style>
 </defs>
 <g id="Слой_x0020_1">
  <metadata id="CorelCorpID_0Corel-Layer"/>
  <g>
   <path class="fil0" d="M351 4241c0,0 -122,-141 -128,-676 -5,-535 -22,-2163 -24,-2348 -2,-184 -118,-539 14,-708 132,-170 96,-288 717,-295 620,-6 1957,-20 2208,-23 252,-2 845,-153 1012,62 167,215 193,683 200,1298 6,615 -151,1366 -99,1761 53,395 134,757 39,849 -95,93 -509,171 -1381,180 -872,9 -1823,19 -2040,22 -217,2 -518,-122 -518,-122z"/>
   <path id="1" class="fil1" d="M185 3565l76 0 0 0 1 48 1 46 2 44 3 42 3 40 4 37 4 36 4 33 5 32 5 29 5 28 5 26 5 24 6 23 6 21 5 19 6 17 5 16 6 15 5 13 5 12 5 10 4 9 4 8 4 7 3 5 3 5 2 3 1 2 1 2 1 0 -1 0 -57 49 -1 -1 -2 -2 -2 -3 -3 -5 -3 -5 -4 -6 -4 -7 -5 -8 -5 -10 -5 -11 -6 -12 -5 -13 -6 -15 -6 -16 -6 -18 -6 -19 -6 -21 -6 -22 -6 -24 -6 -26 -6 -27 -5 -30 -5 -31 -5 -32 -5 -35 -4 -37 -3 -39 -4 -41 -2 -43 -2 -45 -2 -47 -1 -50 0 0zm-24 -2347l76 -1 0 0 0 22 0 29 0 37 1 44 0 51 1 56 1 63 0 68 1 72 1 77 1 80 1 84 1 87 1 89 0 91 1 93 1 93 1 94 1 95 1 94 1 93 1 91 1 90 1 88 1 85 1 82 1 79 1 74 0 70 1 64 1 59 0 54 -76 0 0 -53 -1 -59 -1 -65 0 -69 -1 -75 -1 -78 -1 -82 -1 -85 -1 -88 0 -90 -1 -92 -1 -93 -1 -94 -1 -94 -1 -94 -1 -94 -1 -92 -1 -91 -1 -89 -1 -87 -1 -84 -1 -81 -1 -76 0 -73 -1 -67 -1 -63 0 -57 -1 -50 0 -44 -1 -37 0 -30 0 -21 0 0zm22 -733l60 47 0 0 -10 14 -8 14 -8 16 -7 17 -6 18 -4 19 -4 19 -3 21 -3 21 -1 22 -1 22 0 23 0 24 2 24 1 24 2 24 3 24 3 25 3 24 3 25 4 24 3 24 4 24 3 23 3 23 4 23 2 22 3 22 2 21 2 20 1 20 1 19 -76 1 -1 -17 -1 -17 -1 -19 -2 -20 -3 -20 -3 -22 -3 -22 -3 -23 -3 -23 -4 -24 -3 -24 -4 -25 -3 -25 -4 -25 -2 -26 -3 -25 -2 -26 -2 -25 -1 -26 -1 -25 0 -25 1 -25 2 -25 2 -24 4 -24 5 -23 6 -23 7 -23 9 -21 10 -21 12 -21 13 -19 0 0zm746 -309l1 76 0 0 -56 1 -52 2 -48 2 -45 3 -42 3 -38 4 -35 5 -33 5 -30 5 -27 6 -24 7 -23 6 -20 8 -18 7 -16 8 -15 9 -13 8 -12 9 -11 10 -11 9 -9 11 -10 10 -9 12 -8 12 -9 13 -9 13 -9 14 -10 14 -10 15 -11 16 -11 16 -13 17 -60 -47 12 -15 10 -14 10 -15 10 -15 9 -14 10 -14 9 -14 10 -14 10 -14 11 -14 11 -13 13 -13 13 -13 15 -12 16 -12 17 -11 19 -11 20 -10 22 -9 23 -8 26 -8 27 -8 30 -6 32 -6 35 -6 37 -4 40 -4 44 -4 46 -3 50 -2 53 -2 56 -1 0 0zm2209 -23l1 76 0 0 -27 0 -33 1 -38 0 -44 1 -49 0 -53 1 -58 0 -62 1 -66 1 -69 0 -72 1 -75 1 -77 1 -80 1 -81 0 -82 1 -84 1 -84 1 -85 1 -85 1 -84 1 -84 1 -83 0 -82 1 -81 1 -78 1 -76 1 -74 1 -71 0 -68 1 -64 1 -60 0 -1 -76 61 0 64 -1 67 -1 71 0 74 -1 76 -1 78 -1 81 0 82 -1 83 -1 84 -1 85 -1 84 -1 85 -1 84 -1 84 -1 83 0 81 -1 79 -1 77 -1 75 -1 72 0 69 -1 66 -1 62 0 58 -1 54 -1 48 0 44 -1 39 0 32 0 27 -1 0 0zm1042 76l-60 47 0 0 -13 -16 -16 -14 -19 -12 -20 -12 -22 -10 -25 -9 -27 -7 -28 -7 -30 -5 -32 -4 -32 -2 -34 -2 -35 -1 -36 0 -36 1 -37 2 -37 3 -37 3 -38 3 -37 4 -37 4 -37 4 -36 4 -35 4 -35 4 -34 4 -33 4 -31 3 -30 3 -29 2 -28 2 -25 0 -1 -76 23 0 26 -2 27 -2 30 -2 30 -4 33 -3 33 -4 35 -4 35 -4 36 -5 38 -4 37 -4 38 -4 38 -3 39 -3 38 -2 38 -2 38 -1 37 -1 37 1 37 2 35 3 35 4 33 6 33 7 31 9 30 11 28 12 27 15 25 18 22 20 20 22 0 0zm208 1322l-76 1 0 0 -1 -58 -1 -56 -1 -55 -1 -55 -1 -53 -2 -52 -1 -52 -2 -50 -3 -50 -3 -48 -3 -47 -3 -46 -4 -45 -4 -44 -4 -43 -5 -41 -6 -40 -6 -39 -6 -38 -7 -37 -8 -35 -8 -33 -8 -33 -9 -31 -10 -29 -10 -29 -11 -26 -12 -25 -12 -24 -12 -22 -14 -21 -14 -19 60 -47 17 23 15 24 15 26 14 27 12 28 12 29 12 31 10 32 10 33 9 34 8 36 8 36 7 38 7 40 6 40 6 41 5 43 5 43 4 45 4 46 3 47 3 48 3 48 2 50 2 51 2 52 2 53 1 54 1 54 1 56 1 56 1 58 0 0zm-99 1756l-75 10 0 0 -5 -40 -3 -41 -2 -43 -1 -45 0 -46 1 -48 1 -49 3 -51 3 -52 3 -53 5 -54 4 -55 6 -56 5 -58 6 -57 6 -59 6 -59 6 -60 6 -60 6 -60 6 -61 6 -61 5 -61 5 -61 5 -61 4 -60 3 -61 3 -60 3 -59 1 -59 1 -58 0 -57 76 -1 0 58 -1 60 -2 60 -2 60 -3 61 -4 61 -4 61 -4 61 -6 61 -5 62 -6 61 -6 61 -6 61 -6 60 -6 60 -6 59 -6 58 -6 58 -5 57 -5 55 -5 55 -4 54 -4 52 -3 51 -2 50 -2 48 0 47 0 44 1 43 2 41 3 39 4 37 0 0zm28 882l-53 -55 0 0 5 -5 4 -7 5 -9 4 -11 4 -12 3 -15 3 -16 2 -17 1 -19 1 -21 0 -22 0 -23 -1 -24 -2 -25 -2 -27 -3 -27 -3 -29 -3 -29 -4 -30 -4 -31 -4 -32 -5 -32 -5 -33 -5 -34 -5 -35 -5 -34 -5 -36 -6 -36 -5 -36 -5 -36 -5 -37 -5 -37 75 -10 5 37 5 36 5 36 5 36 6 36 5 35 5 35 5 35 5 34 5 33 5 33 4 32 4 31 4 31 4 30 3 29 2 29 3 27 1 27 1 26 1 25 0 24 -1 23 -2 22 -2 21 -3 20 -5 19 -5 18 -7 17 -8 16 -10 15 -12 14 0 0zm-1408 190l0 -76 0 0 80 -1 77 -1 75 -2 72 -2 70 -3 67 -3 65 -3 62 -3 59 -4 57 -5 55 -4 52 -5 50 -5 48 -5 45 -6 42 -6 41 -6 38 -6 36 -7 33 -7 32 -6 29 -7 27 -8 25 -7 22 -7 20 -8 19 -7 15 -8 14 -7 12 -7 9 -7 7 -6 53 55 -13 11 -14 10 -16 10 -18 9 -19 9 -21 9 -23 8 -25 8 -27 8 -28 8 -31 7 -33 8 -35 7 -37 6 -39 7 -42 6 -44 6 -46 6 -48 5 -50 5 -53 5 -56 5 -57 4 -61 4 -62 4 -65 3 -68 3 -70 3 -73 2 -75 2 -78 1 -81 1 0 0zm-2040 22l-1 -76 0 0 23 -1 26 0 31 0 35 0 38 -1 42 0 45 -1 48 0 52 -1 54 0 57 -1 60 -1 63 0 65 -1 67 -1 69 0 71 -1 73 -1 74 -1 76 0 77 -1 79 -1 79 -1 81 -1 81 -1 81 0 82 -1 83 -1 82 -1 82 -1 83 -1 82 -1 0 76 -82 1 -82 1 -82 1 -83 1 -82 1 -82 0 -82 1 -81 1 -80 1 -79 1 -79 1 -77 0 -76 1 -74 1 -73 1 -71 0 -69 1 -68 1 -64 1 -63 0 -60 1 -57 0 -55 1 -51 1 -49 0 -45 0 -41 1 -39 0 -34 1 -31 0 -26 0 -23 1 0 0zm-547 -135l57 -49 -14 -11 1 1 2 1 4 1 6 2 7 3 8 3 10 4 11 4 12 4 14 5 14 5 16 5 16 6 17 5 18 6 18 6 19 5 20 6 20 5 21 5 21 6 21 5 21 4 22 4 21 4 21 4 21 3 21 2 21 2 20 2 20 1 19 0 1 76 -22 -1 -22 -1 -22 -1 -23 -2 -22 -3 -23 -3 -23 -4 -23 -4 -22 -5 -23 -5 -22 -5 -22 -5 -21 -6 -21 -5 -20 -6 -20 -6 -20 -6 -18 -5 -18 -6 -17 -6 -15 -5 -15 -5 -14 -5 -13 -5 -11 -4 -10 -4 -9 -3 -8 -3 -6 -2 -4 -2 -3 -1 -1 -1 -14 -10zm14 10l-8 -3 -6 -7 14 10z"/>
  </g>
  <path class="fil2" d="M2893 3300c-33,-46 -162,-58 -285,-71 -122,-13 -322,0 -397,0 -74,0 -68,52 -318,23 -250,-29 -287,-24 -278,12 9,36 -21,140 -2,173 20,32 190,72 289,72 99,0 366,-22 468,-27 102,-5 228,-46 294,-28 66,18 166,27 183,22 17,-5 46,-176 46,-176z"/>
  <path class="fil3" d="M1839 3332c-4,0 -8,0 -12,0 -4,0 -8,1 -12,2l-1 23c-1,6 -1,13 -1,20 0,7 0,13 0,20 0,1 0,2 0,3 0,1 -1,2 -1,3 -2,6 -5,9 -10,8 -6,-1 -9,-4 -9,-10 0,-3 0,-7 0,-10 0,-4 0,-7 1,-11 0,-6 0,-12 0,-18 0,-7 0,-13 0,-19l2 -12c1,-8 5,-13 11,-16 3,0 5,-1 7,-1 2,-1 4,-1 7,-1 3,-1 7,-1 10,-1 4,0 7,0 10,0 9,0 15,5 16,14 1,4 2,9 2,14 0,10 -1,19 -1,28 0,9 -1,19 -1,28l0 4c-1,6 -4,9 -10,9 -6,0 -9,-4 -10,-10 0,-3 0,-6 1,-10 0,-3 0,-6 0,-10 0,-6 0,-13 0,-19 1,-7 1,-13 1,-20 0,-1 0,-2 0,-4 0,-1 0,-2 0,-4zm81 80c0,4 0,9 0,13 0,3 0,7 0,12 0,3 0,6 1,10 0,3 0,7 0,11 0,1 -1,3 -1,4 -1,2 -1,3 -3,4 -2,3 -4,3 -8,3 -3,0 -6,-2 -7,-5 -1,-1 -1,-2 -1,-4 0,-1 -1,-2 -1,-3 -1,-21 -1,-41 -2,-61 -1,-20 0,-41 2,-61 0,-3 0,-4 0,-6 1,-4 3,-7 5,-9 2,-1 5,-3 9,-3 16,-3 29,2 41,12 4,4 8,9 10,14 2,5 3,11 3,17 0,4 0,8 -1,12 -1,5 -2,9 -3,13 -2,9 -7,16 -14,20 -7,4 -13,6 -20,7 -1,0 -3,0 -5,0 -1,0 -3,0 -5,0zm-2 -21c3,0 6,0 8,0 2,0 4,0 6,0 2,-1 4,-2 6,-3 3,-1 4,-3 5,-5 2,-6 3,-11 4,-16 1,-5 0,-10 -2,-15 -1,-5 -4,-9 -9,-12 -5,-2 -10,-3 -16,-2 0,9 0,18 -1,26 0,9 0,18 -1,27zm90 -10c-1,-8 -2,-15 -2,-22 0,-6 2,-13 4,-19 5,-12 13,-20 25,-24 4,-1 7,-1 11,0 12,3 20,11 23,23 3,10 4,20 3,30 0,10 -3,19 -8,29 -2,4 -5,8 -9,11 -4,2 -8,4 -13,4 -4,0 -8,-1 -13,-2 -4,-2 -8,-5 -11,-9 -3,-4 -5,-7 -6,-11 -2,-3 -3,-7 -4,-10zm43 -34c-1,-1 -1,-2 -1,-2 0,-1 0,-2 -1,-3 -3,-6 -7,-7 -12,-4 -4,2 -6,6 -8,9 -2,7 -3,14 -3,20 1,7 3,13 6,19 0,1 1,3 3,4 1,2 3,3 5,3 2,0 4,-1 6,-4 1,-1 1,-3 2,-4 5,-12 5,-25 3,-38zm108 23c2,-5 3,-10 5,-15 1,-5 3,-10 4,-15 2,-5 5,-11 8,-16 2,-3 5,-6 9,-9 3,-1 7,-2 10,0 3,1 6,3 7,7 2,4 3,8 3,12 1,11 1,22 2,33 0,11 1,21 1,32 0,3 -1,6 -3,8 -1,2 -4,3 -6,4 -3,0 -6,-1 -7,-3 -2,-2 -3,-5 -4,-8 0,-7 0,-15 0,-22 0,-7 -1,-15 -1,-22 0,-2 -1,-3 -2,-4 0,1 -1,2 -1,3 0,1 -1,2 -1,3 -2,6 -3,11 -5,17 -2,5 -3,11 -5,16 -1,3 -2,6 -4,8 -2,3 -5,4 -9,4 -3,-1 -6,-2 -8,-4 -2,-2 -4,-5 -5,-8 -2,-4 -3,-8 -5,-12 -1,-4 -3,-8 -5,-12 0,-1 -1,-2 -1,-3 -1,-1 -1,-2 -3,-3l-1 22c0,4 -1,7 -1,10 0,3 0,6 -1,9 -1,8 -4,11 -10,10 -7,0 -10,-4 -9,-12 1,-9 1,-17 2,-26 0,-8 1,-16 2,-25 0,-4 1,-8 1,-11 1,-4 2,-8 2,-11 1,-2 1,-3 2,-5 0,-1 1,-2 1,-4 3,-3 6,-5 10,-6 3,0 7,2 10,5 2,3 4,7 5,12 2,5 4,11 6,16 1,6 3,11 4,17 1,1 1,2 2,4 0,1 1,2 1,4zm91 11c-2,-8 -2,-15 -2,-22 0,-6 1,-13 4,-19 4,-12 13,-20 25,-24 3,-1 7,-1 11,0 12,3 20,11 23,23 2,10 3,20 3,30 -1,10 -4,19 -8,29 -3,4 -6,8 -10,11 -4,2 -8,4 -12,4 -4,0 -9,-1 -13,-2 -4,-2 -8,-5 -11,-9 -3,-4 -5,-7 -7,-11 -1,-3 -2,-7 -3,-10zm42 -34c0,-1 0,-2 0,-2 0,-1 -1,-2 -1,-3 -3,-6 -7,-7 -13,-4 -3,2 -6,6 -7,9 -3,7 -4,14 -3,20 0,7 2,13 5,19 1,1 2,3 3,4 2,2 3,3 6,3 2,0 4,-1 5,-4 1,-1 2,-3 3,-4 4,-12 5,-25 2,-38zm91 24c-4,2 -6,5 -8,7 -3,3 -3,6 -3,10 1,2 1,4 1,6 0,2 0,4 0,6 0,7 -3,11 -9,11 -3,1 -5,0 -7,-1 -2,-2 -4,-5 -4,-8 -1,-4 -1,-8 -1,-12 0,-4 0,-8 0,-12 0,-9 0,-17 0,-25 0,-8 0,-17 0,-25 0,-1 0,-2 0,-3 0,-1 0,-2 0,-3 1,-3 2,-5 4,-6 2,-2 4,-3 6,-3 3,0 5,1 7,2 2,2 3,4 3,7 1,2 1,5 1,7 0,3 0,6 0,8l0 12c1,-1 2,-2 2,-2 1,0 2,-1 2,-2 3,-4 6,-8 9,-12 3,-4 6,-8 9,-12 1,-1 1,-1 1,-2 0,0 1,-1 1,-1 4,-5 9,-6 13,-3 5,3 7,7 5,12 -1,1 -1,2 -2,3 0,1 -1,3 -2,4 -2,2 -3,5 -5,8 -2,3 -4,5 -6,7 -2,3 -3,6 -1,8 2,7 5,14 7,21 3,7 5,14 8,21 2,6 0,11 -6,13 -7,2 -11,-1 -14,-8 -1,-4 -3,-8 -4,-12 -1,-4 -2,-8 -4,-12 0,-2 -1,-3 -2,-4 0,-2 -1,-3 -1,-5zm74 10c-2,-8 -2,-15 -2,-22 0,-6 1,-13 4,-19 5,-12 13,-20 25,-24 3,-1 7,-1 11,0 12,3 20,11 23,23 2,10 3,20 3,30 -1,10 -4,19 -8,29 -3,4 -6,8 -10,11 -4,2 -8,4 -12,4 -4,0 -9,-1 -13,-2 -4,-2 -8,-5 -11,-9 -3,-4 -5,-7 -7,-11 -1,-3 -2,-7 -3,-10zm42 -34c0,-1 0,-2 0,-2 0,-1 0,-2 -1,-3 -3,-6 -7,-7 -13,-4 -3,2 -6,6 -7,9 -3,7 -4,14 -3,20 0,7 2,13 6,19 0,1 1,3 2,4 2,2 4,3 6,3 2,0 4,-1 5,-4 1,-1 2,-3 3,-4 4,-12 5,-25 2,-38zm135 43c5,1 8,3 9,6 2,2 2,5 2,9 -1,5 -3,7 -7,9 -3,2 -7,1 -10,-2 0,-1 -1,-2 -2,-2 -1,0 -1,-1 -2,-1 -7,0 -13,0 -19,1 -6,0 -13,0 -19,0 -2,0 -4,0 -5,1 -2,0 -3,1 -4,3 -3,5 -6,7 -11,7 -4,-1 -7,-5 -7,-10 -1,-5 0,-9 1,-11 2,-2 5,-4 10,-5 1,-1 2,-1 3,-1 1,0 2,-1 4,-1 0,-6 0,-12 1,-17 0,-6 0,-12 0,-18 1,-2 1,-4 1,-7 0,-2 1,-5 1,-7 1,-11 6,-20 15,-27 7,-5 15,-6 23,-4 8,3 13,9 15,18 1,3 1,6 1,9 0,3 0,6 0,9 0,6 0,12 0,19 0,6 0,12 0,18 0,2 0,3 0,4zm-18 1c0,-1 0,-1 0,-2 0,0 0,-1 0,-1 0,-7 0,-14 0,-22 0,-7 0,-14 0,-21 0,-2 0,-4 0,-5 0,-2 0,-4 0,-5 -2,-5 -5,-6 -9,-4 -6,3 -9,8 -9,14 -1,7 -1,13 -2,20 0,6 0,12 -1,19 0,1 0,2 0,3 0,2 0,3 0,4 4,0 7,0 11,0 3,0 6,0 10,0zm80 14c-3,0 -6,-1 -8,-3 -2,-2 -4,-5 -4,-7 0,-3 2,-6 4,-8 2,-2 4,-3 8,-3 3,0 5,1 7,3 2,2 3,5 3,8 0,3 -1,5 -3,7 -2,2 -5,3 -7,3zm1 -52c-3,0 -5,-1 -7,-2 -2,-2 -3,-5 -3,-8 0,-3 1,-5 3,-7 2,-2 5,-3 7,-2 3,0 5,1 7,3 2,2 3,4 3,7 0,3 -1,5 -3,7 -2,2 -4,3 -7,2z"/>
  <g>
   <path class="fil3" d="M889 3655c6,5 13,9 19,13 6,3 11,8 16,13 10,9 15,19 18,31 2,11 4,23 5,35 0,16 -1,30 -5,43 -6,19 -15,34 -29,44 -14,10 -31,16 -51,19 -16,2 -32,3 -48,3 -8,1 -15,-2 -22,-9 -7,-6 -10,-14 -11,-22 0,-18 -1,-36 -2,-53 0,-18 -1,-36 -1,-53 1,-26 2,-52 3,-77 1,-25 2,-51 3,-77 0,-14 7,-23 22,-27 3,0 6,-1 9,-1 3,-1 6,-2 9,-2 24,-6 46,-1 65,15 10,9 16,21 19,35 2,14 1,29 -5,43 -2,5 -4,10 -6,14 -3,4 -5,8 -8,13zm-67 158c8,-2 16,-2 23,-2 7,0 14,-1 21,-2 16,-2 26,-10 32,-23 10,-23 9,-47 -2,-71 -4,-9 -11,-14 -21,-14 -16,0 -30,3 -43,9 -7,4 -11,10 -11,18 0,13 1,27 1,41 0,14 0,28 0,44zm1 -155c11,-8 21,-16 28,-25 9,-10 14,-20 14,-30 1,-9 0,-15 -4,-20 -5,-5 -11,-8 -20,-8 -5,0 -9,1 -11,3 -2,2 -3,5 -4,10 0,7 0,13 0,20 0,6 -1,12 -1,19 0,5 -1,10 -1,14 0,4 -1,10 -1,17zm197 116c6,-11 11,-21 16,-31 5,-9 11,-20 17,-30 4,-6 8,-12 12,-18 5,-5 9,-10 13,-15 4,-5 8,-8 13,-10 4,-1 9,-1 14,1 11,4 17,12 17,24l0 25c-1,19 -1,37 -1,56 0,18 -1,37 -1,55 0,2 0,4 0,6 0,2 -1,5 -1,7 -1,6 -4,11 -9,14 -5,4 -11,5 -16,4 -12,-2 -18,-9 -18,-22l0 -37c0,-6 0,-12 0,-18 0,-5 -1,-12 -3,-18 -2,3 -3,5 -4,8 -2,2 -4,5 -6,8 -4,9 -10,18 -15,26 -5,9 -10,18 -16,27 -5,7 -10,12 -17,16 -8,4 -17,5 -25,2 -8,-4 -12,-10 -14,-20 -2,-14 -3,-27 -2,-38 0,-20 1,-39 2,-58 0,-18 1,-38 2,-57 0,-3 0,-5 0,-7 0,-2 1,-4 1,-6 3,-12 11,-17 23,-16 4,1 9,2 12,6 4,3 6,7 6,12 1,6 1,13 0,20 0,7 0,14 -1,21 0,11 0,21 0,31 -1,10 -1,21 -2,31 1,0 1,0 2,0 0,1 0,1 1,1zm242 -72l-37 0 0 19c-1,11 -1,22 -1,33 1,11 0,21 -1,32 -1,9 -3,17 -6,24 -2,8 -5,16 -8,24 -1,4 -4,7 -7,11 -3,3 -7,6 -10,9 -4,3 -9,5 -14,6 -5,0 -10,0 -15,-2 -5,-2 -9,-5 -13,-8 -4,-4 -6,-8 -7,-13 -3,-8 -2,-14 2,-20 4,-6 10,-9 18,-10 2,0 3,0 5,1 1,0 3,0 6,0 3,-9 5,-17 6,-26 2,-9 2,-18 2,-27 0,-8 0,-16 0,-24 0,-8 0,-17 -1,-25 0,-3 0,-5 0,-7 0,-3 1,-5 1,-8 1,-17 10,-27 25,-29 11,-1 23,-2 34,-2 11,0 23,0 34,0 7,0 13,3 18,8 5,5 8,11 9,18 2,12 3,24 2,34 -1,20 -2,39 -4,59 -1,19 -2,38 -3,58 0,3 -1,6 -1,8 -2,11 -9,16 -20,18 -5,0 -10,-2 -13,-5 -4,-3 -7,-7 -8,-12 -2,-6 -2,-13 -1,-21 2,-18 3,-34 4,-51 1,-17 2,-34 4,-51 0,-3 0,-6 0,-10 0,-3 0,-7 0,-11zm181 0l-37 0 0 19c0,11 0,22 0,33 0,11 0,21 -1,32 -2,9 -4,17 -6,24 -2,8 -5,16 -8,24 -2,4 -4,7 -7,11 -4,3 -7,6 -10,9 -4,3 -9,5 -14,6 -6,0 -11,0 -16,-2 -4,-2 -9,-5 -12,-8 -4,-4 -7,-8 -8,-13 -2,-8 -2,-14 2,-20 4,-6 10,-9 18,-10 2,0 4,0 6,1 1,0 3,0 6,0 3,-9 5,-17 6,-26 1,-9 2,-18 2,-27 0,-8 0,-16 0,-24 0,-8 0,-17 -1,-25 0,-3 0,-5 0,-7 0,-3 0,-5 1,-8 1,-17 9,-27 25,-29 11,-1 22,-2 34,-2 11,0 22,0 33,0 8,0 14,3 19,8 5,5 8,11 9,18 2,12 2,24 2,34 -1,20 -3,39 -4,59 -1,19 -2,38 -4,58 0,3 0,6 -1,8 -1,11 -8,16 -20,18 -5,0 -9,-2 -13,-5 -3,-3 -6,-7 -7,-12 -2,-6 -2,-13 -1,-21 1,-18 2,-34 4,-51 1,-17 2,-34 3,-51 1,-3 1,-6 1,-10 -1,-3 -1,-7 -1,-11zm186 79c-6,7 -11,13 -15,18 -4,5 -8,10 -13,15 -4,3 -8,7 -12,11 -4,3 -9,7 -14,10 -14,9 -28,10 -41,4 -13,-6 -21,-17 -25,-34 -4,-23 -3,-45 2,-66 5,-20 17,-39 35,-55 16,-14 34,-22 56,-23 16,0 31,5 44,16 3,3 6,6 10,9 3,2 7,6 10,9 1,3 3,7 5,11 1,3 2,7 2,11 1,6 1,13 0,20 0,6 0,13 0,19 0,11 0,21 0,32 1,11 1,22 1,32 0,3 0,7 0,10 1,4 1,8 1,11 -2,14 -9,20 -22,19 -12,0 -19,-6 -20,-19 -1,-7 -2,-14 -2,-21 0,-7 -1,-15 -1,-22 0,-2 0,-4 0,-7 0,-2 -1,-5 -1,-10zm-77 15c16,-10 29,-23 39,-38 10,-15 20,-29 30,-44 -7,-10 -15,-13 -24,-9 -10,3 -18,7 -24,13 -12,10 -19,22 -21,36 -2,13 -2,27 0,42zm301 20c9,4 15,8 18,13 3,5 4,11 3,20 -1,8 -6,14 -13,17 -7,4 -14,2 -21,-4 -1,-2 -3,-3 -4,-4 -2,0 -4,-1 -5,-1 -13,0 -26,0 -39,1 -13,0 -26,0 -39,1 -5,0 -8,0 -10,1 -5,0 -8,2 -9,7 -5,11 -12,15 -22,13 -10,-2 -15,-8 -15,-20 -2,-11 -1,-18 3,-22 3,-5 10,-8 21,-11 1,-2 3,-2 6,-2 2,0 4,-1 7,-2 0,-12 1,-24 1,-36 1,-11 2,-23 2,-35 1,-5 1,-10 2,-15 0,-5 0,-10 1,-15 3,-23 14,-42 31,-55 16,-11 32,-14 48,-9 16,6 27,18 31,36 1,7 2,14 2,20 1,6 1,13 1,19 0,13 0,25 0,38 0,12 -1,25 -1,38 0,3 0,6 1,7zm-39 2c0,-1 0,-2 0,-2 1,-1 1,-2 1,-3 0,-15 0,-30 0,-45 1,-15 1,-30 1,-45 0,-3 0,-6 0,-10 0,-4 -1,-7 -2,-10 -3,-10 -9,-13 -18,-8 -12,7 -18,17 -19,30 -1,14 -2,27 -3,40 0,13 -1,26 -3,39 0,3 0,5 0,8 0,2 1,5 1,8 7,0 14,-1 21,-1 7,0 14,0 21,-1zm151 -55c-5,8 -9,17 -12,26 -4,9 -7,18 -10,28 -1,4 -2,8 -3,11 -1,4 -2,8 -4,12 -4,12 -13,17 -25,13 -11,-3 -15,-11 -12,-25 5,-17 10,-33 15,-49 6,-16 13,-31 22,-46 -5,-6 -10,-13 -15,-19 -5,-6 -10,-12 -15,-18 -1,-2 -3,-3 -4,-5 -2,-1 -3,-3 -4,-5 -5,-10 -3,-19 5,-27 9,-6 18,-5 26,4 3,3 6,7 9,10 3,4 6,7 9,10 5,7 10,13 15,19 5,6 11,12 17,19 1,-5 1,-9 3,-12 0,-5 1,-11 1,-16 0,-6 0,-11 1,-17 1,-7 3,-12 7,-16 4,-3 8,-5 14,-4 5,0 10,2 13,6 4,4 5,9 5,16 0,6 -1,12 -1,18 0,6 -1,11 -1,17l0 14c3,-2 6,-4 7,-7 2,-2 4,-5 5,-7 5,-7 10,-14 14,-21 4,-8 8,-15 13,-22 6,-9 14,-12 22,-11 7,2 11,5 14,10 3,5 2,11 -1,18 -2,4 -4,9 -6,13 -3,4 -5,8 -8,12 -7,7 -10,14 -10,21 0,7 2,14 6,22 5,12 9,23 13,34 4,12 8,23 13,34 2,4 2,8 2,14 -1,11 -7,17 -17,18 -4,1 -8,1 -12,-2 -4,-3 -7,-7 -8,-12 -4,-10 -8,-20 -12,-31 -4,-10 -8,-20 -11,-31 -1,-1 -2,-3 -2,-5 -1,-1 -2,-3 -3,-6 -4,3 -7,6 -11,9 -3,2 -6,5 -9,8 -2,2 -3,5 -3,9 -1,7 -1,13 -2,19 0,6 0,12 0,18 -1,3 -1,6 -1,8 0,2 0,5 -1,8 -1,5 -4,9 -8,12 -4,3 -8,4 -13,4 -12,-3 -17,-10 -17,-22 0,-19 1,-39 3,-59 1,-10 -3,-17 -13,-19zm256 -43l-57 0c-4,0 -8,-1 -12,-1 -4,-1 -8,-2 -13,-3 -5,-3 -8,-6 -10,-11 -2,-5 -3,-10 -2,-15 4,-11 12,-16 24,-16 14,1 29,1 44,2 15,0 29,0 44,0 9,0 17,0 26,-1 9,-1 18,-1 27,-1 8,0 15,2 20,6 5,2 8,6 9,10 1,5 1,10 -1,15 -4,9 -11,14 -20,14l-79 0 0 1zm277 96c10,4 16,8 19,13 3,5 4,11 3,20 -2,8 -6,14 -13,17 -8,4 -15,2 -22,-4 -1,-2 -2,-3 -4,-4 -1,0 -3,-1 -5,-1 -13,0 -26,0 -39,1 -13,0 -26,0 -38,1 -5,0 -9,0 -11,1 -4,0 -7,2 -9,7 -5,11 -12,15 -21,13 -10,-2 -15,-8 -16,-20 -1,-11 0,-18 3,-22 4,-5 11,-8 21,-11 2,-2 4,-2 6,-2 2,0 5,-1 7,-2 1,-12 1,-24 2,-36 1,-11 1,-23 2,-35 0,-5 1,-10 1,-15 1,-5 1,-10 2,-15 3,-23 13,-42 31,-55 15,-11 31,-14 48,-9 16,6 26,18 31,36 1,7 2,14 2,20 0,6 0,13 0,19 0,13 0,25 0,38 0,12 0,25 -1,38 0,3 1,6 1,7zm-39 2c0,-1 1,-2 1,-2 0,-1 0,-2 0,-3 0,-15 1,-30 1,-45 0,-15 0,-30 0,-45 0,-3 0,-6 0,-10 0,-4 0,-7 -2,-10 -3,-10 -8,-13 -17,-8 -12,7 -19,17 -19,30 -2,14 -3,27 -3,40 -1,13 -2,26 -3,39 0,3 0,5 0,8 0,2 0,5 1,8 7,0 14,-1 21,-1 7,0 14,0 20,-1zm87 -20c-3,-15 -5,-30 -4,-44 0,-14 3,-27 9,-41 9,-25 26,-41 50,-48 8,-3 15,-3 23,-1 26,7 42,23 49,48 4,21 6,41 5,61 -1,20 -7,40 -17,60 -4,10 -11,17 -19,23 -8,5 -16,8 -25,8 -9,1 -18,0 -27,-4 -9,-4 -17,-10 -24,-19 -5,-6 -10,-14 -13,-21 -3,-8 -5,-15 -7,-22zm88 -70c-1,-1 -1,-3 -1,-4 0,-2 -1,-4 -2,-5 -6,-13 -15,-17 -26,-10 -7,6 -13,12 -16,20 -5,14 -7,28 -6,41 1,13 5,26 12,39 1,2 2,5 5,8 4,4 7,6 12,6 5,0 8,-3 12,-7 1,-4 3,-7 4,-10 9,-24 11,-51 6,-78zm67 38c0,-19 4,-37 11,-53 7,-15 18,-29 33,-42 12,-8 24,-13 38,-13 14,0 26,5 37,15 7,6 14,14 20,24 4,6 5,12 4,18 -1,5 -4,10 -9,13 -5,3 -11,4 -16,2 -6,-1 -11,-5 -15,-10 -1,-1 -2,-4 -3,-6 -2,-2 -3,-4 -5,-5 -7,-9 -16,-10 -26,-3 -11,9 -18,20 -22,34 -4,15 -4,30 0,46 1,7 4,12 8,17 5,5 10,8 17,9 15,4 27,0 38,-11 2,-3 3,-5 5,-8 1,-2 3,-5 5,-8 9,-10 18,-13 28,-6 9,5 13,14 9,27 -5,14 -15,26 -30,36 -15,9 -30,14 -45,14 -18,0 -33,-5 -47,-14 -13,-9 -22,-22 -27,-38 -2,-6 -4,-13 -5,-19 -1,-6 -2,-13 -3,-19zm238 -60l-25 0c-3,0 -6,0 -9,0 -2,0 -5,0 -8,0 -5,-2 -9,-4 -12,-7 -3,-4 -4,-8 -4,-13 -2,-11 3,-18 14,-21 2,-1 2,-1 3,-1 0,0 1,0 2,-1 14,-1 28,-2 42,-3 15,-1 29,-2 43,-3 3,0 6,0 8,0 3,0 5,0 9,1 5,0 10,2 13,6 3,4 5,9 5,14 0,10 -5,17 -17,20 -3,1 -6,2 -9,2 -4,0 -7,0 -11,1 -1,12 -1,24 -1,36 -1,12 -1,23 -1,35 0,11 -1,21 -1,31 0,9 0,19 0,29 0,5 0,8 -1,10 -1,13 -9,20 -21,20 -5,0 -10,-2 -14,-6 -4,-4 -6,-9 -6,-16 0,-14 0,-29 0,-44 1,-15 1,-29 1,-44 0,-8 1,-15 0,-22 0,-8 0,-16 0,-24zm224 75c-6,7 -10,13 -14,18 -4,5 -9,10 -14,15 -4,3 -8,7 -12,11 -4,3 -9,7 -14,10 -14,9 -28,10 -41,4 -13,-6 -21,-17 -24,-34 -5,-23 -4,-45 1,-66 5,-20 17,-39 36,-55 15,-14 34,-22 55,-23 17,0 31,5 44,16 4,3 7,6 10,9 4,2 7,6 10,9 2,3 3,7 5,11 1,3 2,7 2,11 1,6 1,13 1,20 -1,6 -1,13 -1,19 0,11 0,21 1,32 0,11 0,22 0,32 0,3 0,7 1,10 0,4 0,8 0,11 -2,14 -9,20 -22,19 -12,0 -18,-6 -20,-19 -1,-7 -2,-14 -2,-21 0,-7 -1,-15 -1,-22 0,-2 0,-4 0,-7 0,-2 -1,-5 -1,-10zm-77 15c16,-10 29,-23 39,-38 11,-15 21,-29 30,-44 -6,-10 -14,-13 -24,-9 -9,3 -17,7 -24,13 -12,10 -19,22 -21,36 -2,13 -2,27 0,42zm251 -52c3,2 6,4 9,5 3,1 5,2 8,4 14,8 23,19 26,32 3,14 0,28 -10,41 -9,12 -20,20 -33,25 -14,5 -28,8 -43,9 -5,0 -9,0 -13,-1 -5,0 -9,0 -13,-1 -13,-1 -22,-5 -28,-10 -5,-6 -8,-15 -8,-27 0,-23 0,-47 0,-70 1,-24 0,-47 -1,-70 0,-17 8,-25 26,-25 11,0 23,1 36,2 14,2 26,7 36,16 10,8 17,18 19,31 1,7 1,14 -1,20 -2,6 -5,13 -10,19zm-65 75c16,4 30,3 44,-2 8,-3 15,-7 20,-13 8,-7 7,-13 -3,-18 -19,-10 -39,-13 -60,-8 0,7 0,14 0,21 0,7 -1,13 -1,20zm0 -84c1,1 2,2 3,3 5,-3 10,-6 15,-8 4,-2 9,-5 13,-8 8,-6 8,-12 0,-19 -9,-8 -19,-10 -31,-7 0,7 0,14 0,20 0,6 0,12 0,19z"/>
   <path class="fil3" d="M3463 3778c-6,5 -12,10 -16,15 -5,5 -6,12 -5,21 1,4 1,8 1,12 1,4 1,8 1,13 0,13 -6,21 -19,22 -6,1 -11,0 -15,-3 -5,-4 -7,-9 -9,-16 -1,-8 -1,-17 -1,-25 0,-8 0,-17 0,-26 0,-17 0,-34 0,-51 0,-17 0,-34 0,-52 0,-2 0,-4 0,-6 0,-2 0,-4 0,-6 2,-5 4,-9 8,-12 4,-4 9,-6 14,-6 5,0 9,2 13,5 4,3 6,7 7,13 1,5 2,10 1,16 0,5 0,11 0,16l0 25c2,-2 4,-4 6,-5 1,-1 2,-2 3,-3 6,-9 13,-17 19,-25 6,-9 12,-17 18,-26 1,-1 2,-2 2,-3 1,-1 2,-2 3,-3 8,-10 17,-11 27,-5 9,5 12,13 9,24 -1,3 -3,5 -3,7 -1,2 -3,4 -5,7 -3,5 -7,11 -11,17 -3,5 -7,10 -12,15 -4,5 -5,11 -2,17 5,14 10,28 16,42 5,15 10,29 15,43 5,14 1,23 -13,28 -13,3 -22,-3 -28,-16 -3,-9 -6,-17 -8,-25 -2,-9 -5,-17 -8,-26 -2,-3 -3,-6 -4,-9 -1,-2 -2,-6 -4,-9zm212 3c-5,7 -10,13 -14,18 -4,5 -8,10 -13,15 -4,3 -8,7 -12,11 -5,3 -9,7 -14,10 -14,9 -28,10 -41,4 -14,-6 -22,-17 -25,-34 -4,-23 -4,-45 2,-66 5,-20 17,-39 35,-55 16,-14 34,-22 56,-23 16,0 31,5 44,16 3,3 6,6 10,9 3,2 6,6 9,9 2,3 4,7 5,11 2,3 3,7 3,11 0,6 0,13 0,20 0,6 0,13 0,19 0,11 0,21 0,32 0,11 1,22 1,32 0,3 0,7 0,10 0,4 1,8 1,11 -2,14 -10,20 -23,19 -11,0 -18,-6 -19,-19 -1,-7 -2,-14 -2,-21 -1,-7 -1,-15 -2,-22 0,-2 0,-4 0,-7 0,-2 0,-5 -1,-10zm-76 15c16,-10 29,-23 39,-38 10,-15 20,-29 30,-44 -7,-10 -15,-13 -24,-9 -10,3 -18,7 -24,13 -12,10 -19,22 -21,36 -2,13 -2,27 0,42z"/>
  </g>
  <g>
   <path class="fil3" d="M702 818c0,10 1,22 3,35 2,13 6,25 12,38 6,12 14,23 25,33 13,12 24,9 33,-7 2,-6 4,-11 5,-16 1,-5 2,-10 4,-15 1,-3 2,-6 2,-9 0,-3 1,-6 3,-10 2,-5 5,-9 9,-11 4,-2 9,-3 14,-3 6,2 10,4 14,8 3,4 5,9 5,15 -1,16 -3,31 -7,46 -5,14 -12,27 -24,38 -11,12 -24,19 -41,20 -16,1 -30,-4 -44,-15 -12,-10 -22,-21 -30,-34 -7,-14 -13,-28 -18,-43 -16,-55 -15,-110 2,-163 5,-15 12,-28 19,-40 8,-12 17,-22 29,-29 20,-14 41,-15 64,-3 10,5 18,13 22,23 5,10 8,21 10,33 1,6 0,11 -3,16 -3,4 -7,7 -13,9 -11,3 -21,-1 -27,-13 -2,-3 -2,-5 -3,-8 0,-3 -1,-5 -2,-8 -5,-13 -12,-15 -22,-9 -3,3 -7,7 -10,10 -3,3 -6,7 -9,11 -8,12 -13,26 -17,41 -4,16 -5,36 -5,60zm241 81c-7,5 -13,11 -18,16 -4,6 -6,13 -5,22 1,5 2,10 2,14 0,4 0,9 0,13 0,15 -6,23 -19,24 -7,1 -13,0 -17,-4 -5,-3 -8,-9 -9,-16 -1,-9 -2,-18 -2,-27 0,-9 0,-18 0,-27 0,-19 0,-37 0,-55 0,-18 0,-37 1,-56 0,-2 0,-4 -1,-6 0,-3 0,-5 1,-7 1,-5 4,-10 8,-13 5,-4 9,-6 15,-6 5,0 10,2 14,5 4,4 7,8 7,14 2,5 2,11 2,17 0,6 -1,12 -1,18l0 26c3,-2 5,-4 6,-5 2,-1 3,-2 4,-3 7,-10 13,-19 20,-28 7,-9 13,-18 20,-27 1,-1 2,-2 2,-3 1,-1 1,-2 3,-4 8,-10 18,-11 29,-5 10,6 13,14 9,26 -1,3 -2,5 -3,7 -1,3 -3,5 -5,8 -3,6 -7,12 -11,18 -4,6 -9,11 -13,16 -5,6 -6,12 -3,18 6,15 11,31 17,46 6,15 11,30 16,45 6,15 1,25 -13,30 -14,3 -24,-2 -30,-17 -3,-9 -6,-18 -9,-27 -3,-9 -6,-18 -9,-27 -1,-4 -3,-7 -4,-10 -1,-3 -3,-6 -4,-10zm168 -4c6,-11 11,-22 17,-33 6,-10 12,-21 18,-32 4,-7 8,-13 13,-19 5,-6 9,-12 14,-17 4,-5 8,-8 13,-10 5,-2 10,-1 16,1 12,4 17,13 17,26l0 27c0,19 -1,39 -1,59 0,20 0,40 -1,59 0,2 0,4 0,7 0,2 0,5 -1,7 -1,7 -4,12 -9,15 -6,4 -11,5 -17,4 -13,-1 -19,-9 -19,-24l0 -39c0,-6 0,-12 -1,-19 0,-6 -1,-13 -3,-20 -1,3 -3,6 -4,9 -2,3 -4,6 -6,9 -5,9 -11,18 -16,28 -6,10 -12,19 -18,28 -5,7 -11,13 -17,17 -10,5 -18,6 -27,3 -9,-4 -14,-11 -16,-22 -2,-15 -2,-28 -2,-40 1,-21 1,-42 2,-62 1,-20 1,-41 2,-62 1,-3 1,-5 1,-7 0,-3 0,-5 1,-7 3,-12 11,-18 24,-17 5,1 10,3 14,6 4,4 6,8 6,13 0,7 0,15 0,22 0,8 -1,15 -1,23 0,11 -1,22 -1,33 0,11 -1,22 -1,33 0,0 1,0 1,0 0,1 1,1 2,1zm318 45c10,4 17,9 20,14 4,5 4,12 3,21 -1,9 -6,16 -14,19 -8,4 -15,2 -22,-5 -2,-1 -3,-3 -5,-4 -2,-1 -3,-1 -5,-1 -14,0 -28,0 -42,0 -14,1 -28,1 -41,2 -6,0 -9,0 -11,1 -5,0 -8,3 -10,8 -5,11 -13,16 -23,14 -10,-2 -16,-10 -17,-22 -1,-11 0,-19 4,-24 3,-4 11,-8 22,-12 2,-1 4,-2 6,-2 3,0 5,0 8,-2 0,-13 1,-25 2,-38 0,-12 1,-25 2,-38 0,-5 1,-10 1,-16 1,-5 1,-10 2,-15 3,-25 14,-45 33,-60 17,-12 34,-15 51,-9 18,6 29,19 33,39 2,7 3,14 3,21 0,6 0,13 0,20 0,14 0,27 0,41 0,13 0,27 -1,41 0,3 1,5 1,7zm-41 2c0,-1 0,-2 0,-3 1,0 1,-1 1,-2 0,-16 0,-32 0,-48 1,-17 1,-33 1,-48 0,-4 0,-7 0,-11 0,-4 -1,-8 -2,-11 -3,-11 -10,-13 -19,-8 -13,7 -20,18 -21,32 -1,14 -2,28 -3,42 0,14 -1,28 -3,43 0,2 0,5 0,8 0,2 1,5 1,8 8,0 15,-1 23,-1 7,0 15,0 22,-1zm174 -43c-7,5 -13,11 -18,16 -4,6 -6,13 -5,23 1,4 2,9 2,13 0,4 0,9 0,13 0,15 -6,23 -19,24 -7,1 -13,0 -17,-4 -5,-3 -8,-9 -9,-16 -1,-9 -2,-18 -2,-27 0,-9 0,-18 0,-27 0,-19 0,-37 0,-55 0,-18 0,-37 1,-56 0,-2 0,-4 -1,-6 0,-3 0,-5 1,-7 1,-5 4,-10 8,-13 5,-4 9,-6 15,-6 5,0 10,2 14,5 4,4 7,8 7,14 2,5 2,11 2,17 0,6 -1,12 -1,18l0 26c3,-2 5,-4 6,-5 2,-1 3,-2 4,-3 7,-10 14,-19 20,-28 7,-9 13,-18 20,-27 1,-1 2,-2 2,-3 1,-1 2,-2 3,-4 8,-10 18,-11 29,-5 10,6 13,14 9,26 -1,3 -2,5 -3,7 -1,3 -2,5 -4,8 -4,6 -8,12 -12,18 -4,6 -9,11 -13,16 -5,6 -6,12 -3,18 6,15 12,31 17,46 6,15 11,30 16,45 6,15 1,25 -13,30 -14,3 -24,-2 -30,-17 -3,-9 -6,-18 -9,-27 -3,-9 -6,-18 -9,-27 -1,-4 -2,-7 -4,-10 -1,-3 -2,-6 -4,-10zm249 4c-6,7 -11,13 -16,19 -4,5 -9,10 -14,16 -4,3 -8,7 -13,11 -4,4 -9,8 -15,11 -15,9 -29,11 -44,5 -14,-7 -22,-19 -26,-36 -4,-25 -4,-49 2,-71 5,-22 18,-42 38,-59 16,-15 36,-23 59,-25 18,0 34,5 48,17 3,3 6,7 10,9 4,3 7,7 10,11 2,3 4,7 6,11 1,4 2,8 2,12 1,7 1,14 1,21 -1,7 -1,14 -1,21 0,11 0,23 1,34 0,12 0,23 0,34 0,4 0,7 1,11 0,4 0,8 0,12 -2,15 -10,21 -23,20 -13,0 -20,-7 -21,-20 -2,-8 -2,-15 -3,-23 0,-8 -1,-15 -1,-23 0,-2 0,-5 0,-7 0,-3 -1,-7 -1,-11zm-82 16c17,-12 31,-25 42,-41 11,-16 21,-32 32,-47 -7,-11 -16,-14 -26,-10 -10,3 -19,8 -26,14 -13,11 -20,24 -22,38 -2,15 -2,30 0,46zm525 11l64 0c3,0 5,-1 8,-1 2,0 4,0 6,1 11,2 17,9 17,21 0,6 -1,10 -4,15 -3,4 -7,7 -12,8 -3,1 -6,1 -9,1 -2,0 -5,0 -9,0 -15,1 -30,3 -46,4 -15,1 -30,3 -46,4 -5,1 -10,1 -15,0 -6,-1 -10,-5 -13,-11 -6,-10 -6,-20 1,-32 6,-11 13,-22 19,-34 6,-11 13,-23 20,-34 8,-13 16,-26 25,-39 9,-14 16,-28 21,-43 4,-12 7,-25 9,-38 1,-21 -8,-28 -26,-21 -9,3 -17,8 -24,13 -6,6 -11,14 -14,25 -3,17 -12,23 -25,20 -14,-2 -19,-11 -17,-29 0,-2 0,-6 2,-11 2,-10 7,-18 14,-27 6,-8 14,-15 22,-21 9,-7 18,-11 28,-15 9,-3 19,-4 28,-4 17,2 31,10 43,23 11,13 16,32 13,57 -1,16 -5,31 -11,46 -6,14 -14,28 -21,41 -6,10 -11,19 -17,28 -6,9 -12,19 -18,28 -2,4 -4,8 -6,12 -2,4 -4,8 -7,13zm139 -101c0,-14 2,-28 3,-42 2,-14 5,-27 11,-40 4,-11 9,-20 13,-28 10,-17 24,-27 41,-29 16,-3 32,1 48,9 19,11 34,25 42,43 9,17 15,36 18,57 6,42 -1,81 -20,120 -3,7 -7,14 -12,20 -4,7 -9,13 -15,19 -13,15 -28,22 -45,22 -17,-1 -32,-9 -46,-24 -12,-14 -21,-31 -26,-51 -2,-5 -3,-10 -4,-15 -2,-5 -3,-10 -3,-15 -2,-8 -2,-15 -3,-23 0,-8 -1,-15 -2,-23zm132 -4c0,-5 -1,-9 -1,-14 0,-4 0,-8 -2,-13 -1,-5 -2,-10 -3,-15 -1,-4 -3,-9 -5,-14 -3,-4 -6,-9 -9,-13 -3,-4 -6,-8 -10,-11 -9,-7 -17,-9 -25,-7 -8,2 -14,9 -18,18 -1,4 -2,7 -4,11 -1,4 -2,8 -3,11 -3,17 -5,34 -5,51 -1,16 1,33 5,50 2,7 4,13 6,19 3,7 6,13 9,19 11,19 22,20 35,4 11,-15 19,-30 22,-46 4,-16 7,-33 8,-50zm90 4c0,-14 2,-28 3,-42 2,-14 5,-27 11,-40 4,-11 8,-20 12,-28 11,-17 25,-27 41,-29 17,-3 33,1 48,9 20,11 34,25 43,43 9,17 14,36 18,57 6,42 -1,81 -20,120 -3,7 -7,14 -12,20 -4,7 -9,13 -15,19 -13,15 -28,22 -45,22 -17,-1 -33,-9 -46,-24 -12,-14 -21,-31 -26,-51 -2,-5 -3,-10 -4,-15 -2,-5 -3,-10 -3,-15 -2,-8 -3,-15 -3,-23 0,-8 -1,-15 -2,-23zm132 -4c0,-5 -1,-9 -1,-14 0,-4 0,-8 -2,-13 -1,-5 -2,-10 -3,-15 -1,-4 -3,-9 -6,-14 -2,-4 -5,-9 -8,-13 -3,-4 -6,-8 -10,-11 -9,-7 -17,-9 -25,-7 -8,2 -14,9 -18,18 -1,4 -3,7 -4,11 -1,4 -2,8 -3,11 -3,17 -5,34 -5,51 -1,16 1,33 5,50 1,7 3,13 6,19 3,7 6,13 9,19 11,19 22,20 35,4 11,-15 18,-30 22,-46 4,-16 7,-33 8,-50zm418 164c0,10 0,20 -1,29 0,8 0,17 1,26 0,8 0,15 1,23 0,8 0,16 0,24 0,3 -1,6 -2,10 -1,3 -3,6 -5,9 -5,5 -11,7 -18,6 -8,-1 -13,-5 -17,-11 -1,-3 -2,-6 -2,-8 -1,-3 -1,-6 -2,-8 -1,-46 -3,-91 -4,-135 -2,-45 0,-90 4,-135 0,-5 1,-9 1,-12 2,-9 5,-16 10,-20 4,-4 11,-6 20,-8 35,-5 65,4 91,28 10,9 17,19 21,31 4,11 7,23 7,36 0,9 0,19 -2,28 -1,10 -3,19 -5,29 -6,20 -16,35 -31,44 -16,9 -31,13 -44,14 -4,1 -8,1 -12,0 -3,0 -7,0 -11,0zm-4 -45c6,0 12,-1 17,-1 4,0 9,0 13,-1 5,-1 10,-3 14,-5 5,-3 8,-7 10,-12 5,-12 8,-23 9,-34 1,-12 0,-23 -4,-35 -3,-11 -10,-19 -20,-25 -10,-5 -22,-7 -35,-4 -1,19 -2,38 -2,57 -1,19 -2,39 -2,60zm222 40c-8,-8 -15,-15 -22,-22 -7,-7 -13,-14 -18,-22 -12,-15 -20,-33 -24,-51 -4,-18 -6,-37 -6,-56 0,-6 1,-10 3,-14 3,-5 7,-9 11,-12 5,-2 10,-2 15,-1 13,2 18,9 17,23 -1,20 2,40 9,60 3,9 7,18 12,25 5,8 12,15 20,22 2,-3 3,-5 4,-7 1,-2 2,-5 2,-7 6,-15 10,-31 15,-47 4,-16 9,-31 14,-47 3,-7 5,-12 8,-14 6,-7 14,-9 23,-6 4,1 7,4 10,7 3,3 5,7 5,13 0,5 0,11 -2,18 -10,31 -19,61 -30,91 -10,30 -21,60 -35,90 -6,15 -14,29 -23,41 -9,13 -18,25 -28,38 -10,12 -21,13 -32,5 -5,-4 -8,-8 -9,-14 -1,-6 0,-12 3,-18 4,-5 7,-9 10,-13 3,-4 7,-8 10,-13 9,-10 17,-22 22,-34 5,-12 10,-24 16,-35zm194 -208c12,2 23,5 34,9 11,4 21,10 30,17 21,17 32,40 32,67 0,21 -5,40 -14,57 -8,17 -22,31 -42,42 -5,3 -10,6 -15,9 -6,3 -11,5 -16,7 -15,5 -27,5 -36,-1 -9,-7 -14,-17 -15,-33 -1,-23 -2,-46 -4,-68 -1,-23 -2,-46 -3,-69 0,-13 1,-26 1,-39 1,-13 3,-26 5,-39 6,-27 17,-50 34,-67 17,-18 38,-32 62,-43 3,-1 6,-2 9,-3 3,-1 7,-1 10,-2 16,-2 25,4 29,18 2,12 -5,21 -20,26 -7,3 -13,6 -19,8 -7,3 -12,6 -18,10 -31,23 -46,55 -44,94zm-2 50c1,18 2,35 2,54 1,18 2,36 5,56 29,-13 45,-34 45,-64 0,-14 -4,-25 -14,-34 -10,-9 -22,-13 -38,-12zm174 170c-6,0 -12,-2 -16,-7 -4,-5 -7,-10 -7,-16 0,-6 2,-11 6,-15 4,-5 9,-7 15,-7 7,0 12,2 17,6 5,4 7,10 7,16 0,6 -2,11 -6,16 -5,5 -10,7 -16,7zm-2440 220c-9,-1 -18,-1 -26,-1 -8,0 -17,1 -26,4l-3 50c-1,15 -1,30 -1,45 0,15 0,30 -1,45 0,2 0,4 0,7 0,2 -1,4 -2,6 -3,13 -11,19 -23,18 -12,-2 -19,-10 -19,-23 0,-7 0,-15 0,-23 0,-8 1,-15 1,-22 1,-14 1,-28 1,-42 0,-14 1,-28 1,-41l3 -27c2,-17 11,-28 26,-34 5,-1 10,-2 14,-4 5,-1 11,-2 16,-2 7,-1 15,-2 23,-1 7,0 15,0 22,0 20,0 32,10 36,30 2,10 3,20 3,32 -1,21 -1,41 -2,62 -1,20 -1,41 -2,62l0 7c-2,15 -10,22 -23,22 -12,-1 -19,-9 -21,-23 0,-7 1,-14 1,-22 0,-7 0,-14 0,-21 1,-15 2,-29 2,-44 0,-14 1,-29 1,-43 0,-3 0,-6 0,-8 0,-3 -1,-6 -1,-9zm140 175c0,10 0,20 0,29 -1,8 -1,17 0,26 0,7 0,15 1,23 1,8 1,16 0,24 0,3 0,6 -1,10 -1,3 -3,6 -6,9 -4,5 -11,7 -18,6 -8,-1 -13,-5 -16,-11 -2,-3 -3,-6 -3,-8 0,-3 -1,-6 -1,-8 -2,-46 -3,-91 -5,-135 -2,-45 0,-90 5,-135 0,-6 0,-10 1,-12 2,-9 5,-16 9,-20 4,-4 11,-7 20,-8 35,-5 66,4 91,28 10,9 17,19 22,30 4,12 6,24 6,37 1,9 0,19 -2,28 -1,10 -3,19 -5,28 -5,21 -16,36 -31,44 -16,9 -30,14 -44,15 -4,1 -8,1 -12,0 -3,0 -7,0 -11,0zm-4 -45c7,0 12,-1 17,-1 5,0 9,0 13,-1 5,-1 10,-3 15,-6 4,-2 8,-6 10,-11 4,-12 7,-23 8,-35 2,-11 0,-23 -3,-34 -4,-11 -11,-19 -21,-25 -10,-6 -22,-7 -35,-4 -1,19 -1,38 -2,57 -1,19 -1,39 -2,60z"/>
   <path class="fil3" d="M1647 1297c6,-11 12,-22 18,-33 5,-10 11,-21 18,-32 4,-7 8,-13 13,-19 4,-6 9,-12 14,-17 4,-5 8,-8 13,-10 5,-2 10,-2 15,1 12,4 18,13 18,26l0 26c-1,20 -1,40 -1,60 0,20 0,39 -1,59 0,2 0,4 0,7 0,2 0,4 -1,7 -1,7 -5,12 -10,15 -5,4 -11,5 -17,4 -12,-1 -18,-9 -18,-24l0 -39c0,-6 -1,-13 -1,-19 0,-6 -1,-13 -3,-20 -2,3 -3,6 -5,9 -1,2 -3,5 -5,9 -6,9 -11,18 -17,28 -5,10 -11,19 -17,28 -5,7 -11,13 -18,17 -9,5 -18,6 -26,2 -9,-3 -14,-10 -16,-21 -2,-15 -3,-29 -2,-40 0,-21 1,-42 2,-62 0,-20 1,-41 2,-62 0,-3 1,-5 1,-7 0,-3 0,-5 1,-7 3,-12 11,-18 23,-17 6,1 10,3 14,6 4,4 6,8 6,13 1,7 1,15 1,22 -1,8 -1,15 -2,23 0,11 0,22 0,33 -1,11 -1,22 -2,33 1,0 1,0 2,0 0,1 1,1 1,1zm533 -34c14,10 22,22 24,34 3,13 3,27 -1,42 -2,10 -6,19 -11,28 -6,8 -14,14 -25,17 -13,3 -25,4 -37,3 -13,-1 -24,-6 -35,-15 -5,-4 -9,-9 -13,-16 -4,-5 -5,-10 -3,-16 1,-5 4,-9 9,-12 6,-4 11,-5 17,-5 5,0 10,3 13,8 5,8 10,12 16,13 6,1 13,0 22,-2 1,-4 2,-9 3,-13 1,-5 2,-10 2,-14 0,-8 -3,-14 -8,-18 -5,-3 -12,-4 -20,-3l-12 3c-12,2 -21,-2 -26,-13 -4,-11 0,-20 12,-27 6,-3 11,-6 16,-10 5,-3 11,-6 16,-9 4,-3 7,-7 10,-11 2,-4 2,-9 -1,-13 -3,-2 -8,-1 -14,2 -5,3 -11,5 -16,7 -11,4 -20,2 -27,-7 -5,-9 -4,-18 3,-26 4,-5 10,-8 17,-11 8,-3 15,-5 23,-6 7,-1 15,-1 22,0 7,2 13,4 19,7 16,11 22,26 18,44 -1,6 -3,13 -5,19 -2,6 -5,13 -8,20zm206 42c-6,7 -12,13 -16,19 -4,5 -9,10 -14,15 -4,4 -8,8 -13,12 -5,4 -10,8 -15,11 -15,9 -30,11 -44,5 -14,-7 -23,-19 -26,-36 -5,-26 -4,-49 1,-71 6,-22 19,-42 38,-59 17,-15 37,-24 60,-25 18,0 33,5 47,17 4,3 7,6 11,9 3,3 7,7 10,11 2,3 4,7 6,11 1,4 2,8 2,12 1,7 1,14 1,21 -1,7 -1,14 -1,21 0,11 0,23 1,34 0,12 0,23 0,34 0,4 0,7 0,11 1,4 1,8 1,12 -2,15 -10,21 -24,20 -12,0 -19,-7 -21,-20 -1,-8 -2,-16 -2,-23 0,-8 -1,-15 -1,-23 0,-2 0,-5 0,-7 0,-3 -1,-7 -1,-11zm-83 16c18,-12 32,-25 42,-41 11,-16 22,-32 33,-47 -8,-11 -16,-14 -26,-10 -11,3 -19,8 -26,14 -13,11 -21,24 -23,38 -2,15 -2,30 0,46zm245 -20c-7,5 -13,11 -18,16 -4,6 -6,13 -5,22 1,5 1,9 2,14 0,4 0,8 0,13 0,15 -6,23 -20,24 -6,1 -12,0 -16,-4 -5,-3 -8,-9 -9,-16 -2,-9 -2,-18 -2,-27 0,-9 0,-18 0,-27 0,-19 0,-37 0,-55 0,-18 0,-37 1,-56 0,-2 0,-4 -1,-7 0,-2 0,-4 1,-6 1,-5 4,-10 8,-13 4,-4 9,-6 15,-6 5,0 10,2 14,5 4,3 7,8 7,14 2,5 2,11 2,17 -1,6 -1,12 -1,18l0 26c3,-2 5,-4 6,-5 2,-1 3,-2 4,-4 7,-9 13,-18 20,-27 7,-9 13,-18 20,-27 1,-1 2,-2 2,-3 1,-1 1,-3 3,-4 8,-10 18,-11 28,-5 11,5 14,14 10,26 -1,3 -2,5 -3,7 -1,3 -3,5 -5,8 -4,6 -8,12 -12,18 -3,5 -8,11 -12,16 -5,6 -6,12 -3,18 6,15 11,30 17,46 6,15 11,30 16,45 6,15 1,25 -14,30 -13,3 -23,-2 -29,-17 -4,-9 -7,-18 -9,-27 -3,-9 -6,-18 -9,-27 -1,-4 -3,-7 -4,-10 -1,-3 -3,-6 -4,-10zm249 4c-6,7 -11,13 -16,19 -4,5 -9,10 -14,15 -4,4 -8,8 -13,12 -5,4 -9,8 -15,11 -15,9 -30,11 -44,5 -14,-7 -23,-19 -26,-36 -5,-26 -4,-49 1,-71 6,-22 19,-42 39,-59 16,-15 36,-24 59,-25 18,0 34,5 47,17 4,3 7,6 11,9 3,3 7,7 10,11 2,3 4,7 6,11 1,4 2,8 2,12 1,7 1,14 1,21 -1,7 -1,14 -1,21 0,11 0,23 1,34 0,12 0,23 0,34 0,4 0,7 1,11 0,4 0,8 0,12 -2,15 -10,21 -24,20 -12,0 -19,-7 -20,-20 -2,-8 -3,-16 -3,-23 0,-8 -1,-15 -1,-23 0,-2 0,-5 0,-7 0,-3 -1,-7 -1,-11zm-83 16c18,-12 32,-25 43,-41 10,-16 21,-32 32,-47 -8,-11 -16,-14 -26,-10 -11,3 -19,8 -26,14 -13,11 -21,24 -23,38 -1,15 -1,30 0,46zm281 -58c13,10 21,22 23,34 3,13 3,27 -1,42 -2,10 -5,19 -11,28 -6,8 -14,14 -25,17 -13,3 -25,4 -37,3 -12,-1 -24,-6 -34,-15 -6,-4 -10,-9 -14,-16 -4,-5 -4,-10 -3,-16 1,-5 4,-9 10,-12 5,-4 10,-5 16,-5 6,0 10,3 13,8 5,8 10,12 16,13 6,1 13,0 22,-2 1,-4 2,-9 3,-13 1,-5 2,-10 2,-14 0,-8 -3,-14 -8,-18 -5,-3 -12,-4 -20,-3l-12 3c-12,2 -21,-2 -25,-13 -4,-11 0,-20 12,-27 5,-3 10,-6 15,-10 6,-3 11,-6 16,-9 4,-3 7,-7 10,-11 3,-4 2,-9 -1,-13 -3,-2 -8,-1 -13,2 -6,3 -11,5 -17,7 -11,4 -20,2 -26,-7 -6,-9 -5,-18 3,-26 4,-5 9,-8 16,-11 8,-3 15,-5 23,-6 7,-1 15,-1 22,0 7,2 14,4 19,7 16,11 23,26 19,44 -2,6 -4,13 -6,19 -2,6 -5,13 -7,20zm122 48c0,7 2,13 5,19 2,5 6,10 9,15 8,8 16,9 25,5 11,-4 19,-12 25,-21 1,-3 3,-6 4,-8 1,-2 3,-5 4,-7 6,-10 15,-13 25,-8 4,2 8,6 9,10 2,4 3,8 1,14 -5,16 -14,30 -27,43 -13,12 -29,19 -48,20 -16,2 -29,-3 -40,-14 -8,-7 -13,-13 -18,-20 -5,-7 -8,-15 -11,-25 -5,-14 -8,-28 -10,-43 -2,-14 -1,-28 2,-44 7,-35 29,-56 64,-63 6,-1 11,-1 16,0 5,1 10,2 14,3 15,5 27,16 36,31 9,15 13,30 11,46 -2,21 -14,35 -34,40 -5,1 -10,2 -15,2 -5,1 -10,1 -16,2 -4,0 -9,1 -13,1 -4,0 -8,0 -12,0 -2,0 -3,1 -3,1 -1,0 -2,0 -3,1zm-6 -42c9,0 18,-1 26,-1 8,-1 17,-1 26,-2 7,0 10,-4 9,-12 -1,-3 -1,-6 -2,-8 -1,-2 -2,-5 -3,-7 -8,-14 -19,-18 -35,-11 -8,4 -14,9 -17,16 -3,8 -4,16 -4,25zm-2019 385c1,-8 1,-16 2,-24 0,-8 0,-15 0,-23l0 -13c3,-12 11,-18 22,-18 5,1 10,3 13,6 4,3 6,7 7,12 0,8 1,17 1,26 0,8 0,17 1,25 0,19 0,39 0,59 1,19 1,39 2,58 0,14 -7,22 -20,23 -5,1 -11,0 -15,-5 -5,-4 -8,-9 -9,-16 -1,-6 -1,-12 -1,-18 0,-7 0,-13 0,-20 -1,-4 -1,-9 -1,-13 0,-5 0,-10 0,-15 -9,0 -18,1 -26,1 -7,1 -16,1 -24,2 0,10 0,21 -1,30 0,10 -1,20 -1,30 0,3 0,6 -1,9 0,3 -1,5 -2,7 -2,5 -6,9 -10,11 -5,2 -10,2 -15,1 -10,-2 -15,-9 -15,-21 0,-9 -1,-17 0,-25 0,-8 0,-17 0,-25l0 -115c0,-6 1,-11 1,-14 2,-5 4,-9 9,-12 4,-3 9,-5 14,-4 11,1 17,8 19,20 0,7 1,13 1,19 0,6 0,13 0,19l0 24c4,0 9,0 13,1 4,0 8,0 12,0 4,0 7,0 11,0 4,-1 9,-1 13,-2zm221 53c-6,7 -11,13 -15,18 -5,6 -9,11 -15,16 -4,4 -8,8 -12,12 -5,4 -10,8 -15,11 -15,9 -30,11 -44,5 -15,-7 -23,-19 -27,-37 -4,-25 -4,-48 2,-70 6,-22 18,-42 38,-59 16,-15 36,-24 59,-25 18,-1 34,5 48,17 3,3 7,6 10,9 4,3 7,7 11,11 2,3 3,7 5,11 2,4 3,7 3,11 0,8 0,15 0,22 0,7 0,14 0,21 0,11 0,23 0,34 0,12 1,23 1,34 0,4 0,7 0,11 0,4 1,8 1,12 -2,14 -10,21 -24,20 -13,0 -20,-7 -21,-20 -1,-8 -2,-16 -2,-23 -1,-8 -1,-16 -2,-24 0,-1 0,-4 0,-6 0,-3 0,-7 -1,-11zm-82 16c17,-12 31,-25 42,-41 11,-16 22,-32 32,-48 -7,-10 -16,-13 -26,-9 -10,3 -19,7 -25,13 -13,12 -21,24 -23,39 -2,15 -2,30 0,46zm508 -137c-1,2 -4,5 -7,9 -3,5 -5,7 -7,9 -11,9 -21,9 -31,1 -5,-4 -7,-9 -8,-14 -1,-5 1,-11 5,-16 15,-21 32,-42 49,-64 8,-10 17,-13 28,-10 12,3 18,12 18,27 0,14 0,28 -1,43 0,14 0,28 -1,42 -1,20 -1,40 -1,61 -1,20 -1,40 -1,60 0,4 0,7 1,9 0,3 0,6 1,9 1,7 -1,14 -5,19 -5,6 -11,9 -18,10 -7,1 -13,-1 -18,-6 -4,-4 -6,-10 -6,-18 0,-24 0,-48 0,-72 0,-24 1,-48 1,-71 0,-4 0,-8 0,-13 0,-5 1,-10 1,-15zm91 46c0,-13 2,-27 3,-41 2,-14 5,-27 11,-41 4,-10 9,-19 12,-27 11,-17 25,-27 42,-29 16,-3 32,0 48,9 19,11 33,25 42,42 9,18 15,37 18,58 6,41 -1,81 -20,120 -3,7 -7,14 -12,20 -4,7 -9,13 -15,19 -13,15 -28,22 -45,21 -17,0 -32,-8 -46,-23 -12,-14 -21,-32 -26,-51 -2,-6 -3,-11 -4,-15 -2,-5 -3,-10 -3,-15 -2,-8 -2,-16 -3,-23 0,-8 -1,-16 -2,-24zm132 -3c0,-5 -1,-10 -1,-14 0,-4 0,-9 -2,-13 -1,-5 -2,-10 -3,-15 -1,-5 -3,-9 -6,-14 -2,-4 -5,-9 -8,-13 -3,-5 -6,-8 -10,-12 -9,-6 -17,-8 -25,-6 -8,2 -14,8 -18,18 -1,4 -3,7 -4,11 -1,4 -2,8 -3,11 -3,17 -5,34 -5,50 -1,17 1,34 5,51 2,7 4,13 6,19 3,6 6,13 9,19 11,19 22,20 35,3 11,-14 18,-29 22,-46 4,-16 7,-32 8,-49zm90 3c0,-13 1,-27 3,-41 2,-14 5,-27 10,-41 5,-10 9,-19 13,-27 11,-17 25,-27 41,-29 17,-3 33,0 48,9 20,11 34,25 43,42 8,18 14,37 18,58 6,41 -1,81 -20,120 -3,7 -7,14 -12,20 -5,7 -10,13 -15,19 -13,15 -28,22 -45,21 -17,0 -33,-8 -46,-23 -12,-14 -21,-32 -26,-51 -2,-6 -3,-11 -4,-15 -2,-5 -3,-10 -3,-15 -2,-8 -3,-16 -3,-23 0,-8 -1,-16 -2,-24zm132 -3c0,-5 -1,-10 -1,-14 0,-4 0,-9 -2,-13 -1,-5 -2,-10 -3,-15 -1,-5 -3,-9 -6,-14 -2,-4 -5,-9 -8,-13 -3,-5 -7,-8 -10,-12 -9,-6 -17,-8 -25,-6 -8,2 -14,8 -18,18 -1,4 -3,7 -4,11 -1,4 -2,8 -3,11 -3,17 -5,34 -5,50 -1,17 1,34 5,51 1,7 3,13 6,19 3,6 6,13 9,19 10,19 22,20 35,3 11,-14 18,-29 22,-46 4,-16 7,-32 8,-49zm89 3c1,-13 2,-27 4,-41 2,-14 5,-27 10,-41 5,-10 9,-19 13,-27 11,-17 24,-27 41,-29 17,-3 33,0 48,9 20,11 34,25 43,42 8,18 14,37 18,58 6,41 -1,81 -20,120 -4,7 -7,14 -12,20 -5,7 -10,13 -15,19 -13,15 -28,22 -45,21 -18,0 -33,-8 -46,-23 -12,-14 -21,-32 -27,-51 -1,-6 -2,-11 -4,-15 -1,-5 -2,-10 -3,-15 -1,-8 -2,-16 -2,-23 0,-8 -1,-16 -3,-24zm133 -3c-1,-5 -1,-10 -1,-14 0,-4 -1,-9 -2,-13 -1,-5 -2,-10 -3,-15 -1,-5 -3,-9 -6,-14 -2,-4 -5,-9 -8,-13 -3,-5 -7,-8 -11,-12 -8,-6 -16,-8 -24,-6 -8,2 -14,8 -18,18 -1,4 -3,7 -4,11 -1,4 -2,8 -3,11 -3,17 -5,34 -6,50 0,17 2,34 6,51 1,7 3,13 6,19 2,6 5,13 9,19 10,19 22,20 34,3 12,-14 19,-29 23,-46 4,-16 7,-32 8,-49zm418 164c0,10 -1,20 -1,28 0,9 0,18 1,27 0,7 0,15 1,23 0,8 0,16 0,24 0,3 -1,6 -2,10 -1,3 -3,6 -5,8 -5,6 -11,8 -19,7 -7,-1 -13,-5 -16,-12 -1,-2 -2,-5 -2,-7 -1,-3 -1,-6 -2,-8 -1,-46 -3,-91 -4,-135 -2,-45 -1,-90 4,-135 0,-6 0,-10 1,-12 2,-10 5,-16 9,-20 5,-4 12,-7 21,-8 35,-5 65,4 91,28 10,9 17,19 21,30 4,12 6,24 6,37 1,9 1,19 -1,28 -2,10 -4,19 -5,28 -6,21 -16,35 -32,44 -15,9 -30,14 -44,15 -4,0 -7,1 -11,0 -4,0 -7,0 -11,0zm-4 -45c6,0 12,-1 16,-1 5,0 9,0 13,-1 6,-1 11,-3 15,-6 5,-2 8,-6 10,-12 5,-11 8,-22 9,-34 1,-11 0,-23 -4,-34 -3,-11 -10,-19 -20,-25 -11,-6 -22,-7 -35,-4 -1,19 -2,38 -2,57 -1,19 -2,39 -2,60z"/>
   <path class="fil3" d="M3041 1788c-7,-8 -14,-16 -21,-22 -7,-7 -13,-14 -18,-22 -12,-16 -20,-33 -24,-51 -4,-19 -6,-37 -6,-57 0,-5 1,-9 3,-13 3,-6 6,-9 11,-12 5,-2 10,-3 15,-1 12,2 18,9 17,22 -1,21 2,41 9,61 3,9 7,17 12,25 5,8 12,15 20,21 2,-2 3,-5 4,-7 1,-2 2,-4 2,-7 5,-15 10,-30 15,-46 4,-16 9,-32 14,-48 3,-6 5,-11 8,-13 6,-8 13,-10 23,-6 4,1 7,3 10,7 3,3 4,7 4,12 1,6 0,12 -2,18 -9,31 -19,62 -29,92 -10,30 -22,60 -35,89 -6,16 -14,29 -23,42 -9,12 -18,25 -28,37 -10,12 -21,14 -32,5 -5,-3 -8,-7 -9,-13 -1,-6 0,-12 3,-18 3,-5 7,-9 10,-13 3,-4 7,-8 10,-13 9,-11 16,-22 22,-34 5,-12 10,-24 15,-35zm195 -208c12,2 23,5 34,9 11,4 21,10 30,17 21,17 32,39 32,67 0,21 -5,40 -14,57 -9,17 -23,31 -42,42 -5,3 -10,6 -16,9 -5,3 -10,5 -15,7 -15,5 -27,5 -36,-2 -9,-6 -14,-17 -15,-32 -1,-23 -3,-46 -4,-69 -1,-22 -2,-45 -3,-68 0,-14 0,-27 1,-39 1,-13 2,-26 5,-39 5,-28 17,-50 34,-67 17,-18 38,-32 62,-43 3,-2 6,-3 9,-3 3,-1 7,-2 10,-2 16,-2 25,4 29,18 2,12 -5,21 -20,26 -7,3 -13,6 -20,8 -6,3 -12,6 -17,10 -32,23 -46,54 -44,94zm-2 50c1,17 2,35 2,53 0,19 2,37 5,56 29,-12 44,-33 45,-63 0,-14 -5,-25 -14,-34 -10,-9 -23,-13 -38,-12zm174 170c-7,0 -12,-3 -16,-7 -5,-5 -7,-10 -7,-16 0,-6 2,-11 6,-15 4,-5 9,-7 15,-7 7,-1 12,1 17,6 4,4 7,9 7,16 0,6 -2,11 -7,16 -4,4 -9,7 -15,7zm-2602 256c1,-8 2,-17 2,-24 0,-8 0,-15 0,-23l0 -13c4,-12 11,-18 22,-18 5,1 10,2 14,5 3,3 5,8 6,13 1,8 1,17 1,26 0,8 0,17 1,25 0,19 0,39 0,59 1,19 1,39 2,58 0,14 -7,21 -20,23 -5,1 -10,0 -15,-5 -5,-4 -8,-9 -9,-16 0,-6 -1,-12 -1,-18 0,-7 0,-13 0,-20 0,-4 -1,-9 -1,-13 0,-5 0,-10 0,-15 -9,0 -17,1 -25,1 -8,0 -16,1 -25,2 0,10 0,20 -1,30 0,10 0,20 -1,30 0,3 0,6 -1,9 0,3 -1,5 -2,7 -2,5 -5,9 -10,11 -4,2 -9,2 -15,1 -10,-2 -15,-9 -15,-21 0,-9 0,-17 0,-25 0,-9 0,-17 0,-26l0 -114c0,-6 1,-11 1,-14 2,-5 5,-10 9,-13 4,-2 9,-4 14,-3 11,1 18,8 19,20 1,6 1,13 1,19 0,6 0,13 0,19l0 24c5,0 9,0 13,1 4,0 8,0 13,0 3,0 7,0 11,0 4,-1 8,-1 12,-2zm221 53c-6,7 -11,13 -15,18 -4,6 -9,11 -14,16 -4,4 -9,8 -13,12 -5,4 -10,8 -15,11 -15,9 -30,11 -44,4 -14,-6 -23,-18 -26,-36 -5,-25 -4,-48 1,-70 6,-23 18,-42 38,-59 17,-15 37,-24 60,-25 17,-1 33,5 47,17 3,3 7,6 10,9 4,3 8,7 11,11 2,3 4,7 5,10 2,4 3,8 3,12 0,8 1,15 0,22 0,7 0,14 0,21 0,11 0,22 0,34 1,12 1,23 1,34 0,3 0,7 0,11 1,4 1,8 1,12 -2,14 -10,21 -24,20 -13,0 -19,-7 -21,-20 -1,-8 -2,-16 -2,-23 -1,-8 -1,-16 -2,-24 0,-2 0,-4 0,-7 0,-2 0,-6 -1,-10zm-82 15c17,-11 31,-24 42,-40 11,-16 22,-32 32,-48 -7,-10 -15,-13 -25,-10 -11,4 -19,8 -26,14 -13,12 -21,24 -23,39 -2,14 -2,30 0,45zm559 -104c-9,-1 -18,-1 -26,-1 -8,0 -17,1 -26,4l-3 50c-1,15 -1,30 -1,45 0,15 -1,30 -1,45 0,2 0,4 0,6 0,3 -1,5 -2,7 -3,13 -11,19 -23,18 -12,-2 -19,-10 -19,-23 0,-7 0,-15 0,-23 0,-8 1,-15 1,-23 1,-13 1,-27 1,-41 0,-14 1,-28 1,-42l3 -26c2,-17 11,-28 26,-34 5,-1 9,-3 14,-4 5,-1 10,-2 16,-2 7,-1 14,-2 22,-1 8,0 16,0 23,0 20,0 32,10 36,30 2,10 3,20 3,31 -1,21 -2,42 -2,63 -1,20 -2,41 -2,62l0 7c-2,14 -10,22 -23,22 -13,-2 -19,-9 -21,-23 0,-7 0,-15 1,-22 0,-7 0,-14 0,-22 1,-14 1,-29 2,-43 0,-15 1,-29 1,-44 0,-2 0,-5 0,-8 -1,-2 -1,-5 -1,-8zm138 95c1,7 2,13 5,18 3,6 6,11 10,16 7,7 15,9 25,5 10,-5 18,-12 24,-22 2,-2 3,-5 4,-7 2,-2 3,-5 4,-8 7,-9 15,-12 25,-7 5,2 8,6 10,9 2,4 2,9 1,14 -5,17 -15,31 -27,43 -13,13 -29,19 -48,21 -16,2 -30,-3 -41,-14 -7,-7 -13,-14 -18,-21 -4,-6 -8,-15 -11,-24 -4,-14 -8,-29 -10,-43 -2,-14 -1,-29 2,-44 8,-35 29,-56 65,-63 5,-1 10,-2 15,-1 5,1 10,3 14,4 16,5 28,15 37,31 8,15 12,30 10,46 -2,21 -13,34 -34,40 -5,1 -10,2 -15,2 -5,0 -10,1 -15,2 -5,0 -9,1 -13,1 -4,0 -8,0 -13,0 -1,0 -2,1 -3,1 -1,0 -2,0 -3,1zm-6 -42c9,-1 18,-1 26,-2 8,0 17,0 26,-1 7,-1 10,-5 9,-12 0,-3 -1,-6 -2,-8 0,-3 -1,-5 -3,-8 -8,-14 -19,-17 -34,-11 -9,4 -15,10 -18,17 -2,7 -4,16 -4,25zm210 122c0,10 0,20 0,28 -1,9 -1,18 0,27 0,7 0,15 1,23 1,8 1,16 0,24 0,3 -1,6 -1,9 -1,4 -3,7 -6,9 -5,6 -11,8 -18,7 -8,-1 -13,-5 -17,-12 -1,-2 -2,-5 -2,-8 0,-2 -1,-5 -2,-7 -1,-46 -2,-91 -4,-135 -2,-45 0,-90 4,-136 0,-5 1,-9 1,-11 2,-10 6,-16 10,-20 4,-4 11,-7 20,-8 35,-5 65,4 91,28 10,9 17,19 21,30 5,12 7,24 7,37 1,9 0,19 -2,28 -1,10 -3,19 -5,28 -5,21 -16,35 -31,44 -16,9 -30,14 -44,15 -4,0 -8,0 -12,0 -3,0 -7,0 -11,0zm-4 -45c7,-1 12,-1 17,-1 4,0 9,0 13,-1 5,-1 10,-3 15,-6 4,-2 7,-6 9,-12 5,-11 8,-22 9,-34 2,-11 0,-23 -4,-34 -3,-11 -10,-20 -20,-25 -10,-6 -22,-7 -35,-5 -1,20 -1,39 -2,58 -1,19 -1,39 -2,60zm264 -81c4,2 7,4 10,5 3,1 6,3 8,4 15,8 25,20 28,35 4,15 1,29 -10,43 -10,13 -22,22 -36,27 -14,5 -30,8 -46,10 -5,0 -9,0 -14,-1 -5,0 -9,-1 -14,-1 -14,-2 -23,-5 -29,-11 -6,-6 -9,-16 -9,-29 0,-25 0,-50 0,-75 0,-25 0,-50 -1,-75 0,-18 9,-27 27,-27 13,0 26,1 39,3 15,2 28,7 39,16 11,9 18,20 20,33 2,8 1,16 -1,22 -2,7 -5,14 -11,21zm-70 80c17,4 33,3 48,-2 8,-3 16,-8 21,-14 9,-8 8,-14 -3,-19 -20,-11 -41,-14 -64,-9 0,8 0,15 0,22 -1,8 -1,15 -2,22zm0 -90c2,1 3,2 4,3 5,-3 11,-6 15,-8 5,-3 10,-5 15,-9 8,-6 8,-13 0,-21 -10,-7 -21,-10 -33,-6 0,7 -1,14 -1,20 0,7 0,14 0,21zm206 -4c8,0 13,0 16,1 24,1 43,9 55,22 12,13 16,30 11,50 -3,15 -12,28 -25,41 -14,12 -29,20 -44,24 -16,3 -29,1 -38,-5 -10,-6 -16,-16 -17,-30 -1,-7 -1,-14 -1,-21 0,-6 0,-13 0,-21l-3 -112c0,-6 1,-11 3,-16 4,-9 11,-12 21,-11 11,0 17,4 19,13 2,3 2,6 2,8 0,3 1,5 1,9l0 48zm5 41c-2,9 -3,20 -2,31 0,12 2,21 4,26 13,-5 23,-13 28,-27 2,-4 3,-8 4,-12 0,-4 -1,-8 -5,-12 -7,-6 -17,-8 -29,-6zm132 63c0,3 0,6 0,9 0,3 -1,5 -2,8 -4,9 -11,14 -22,14 -11,0 -18,-6 -21,-16 0,-2 -1,-4 -1,-7 0,-2 0,-4 0,-6 0,-24 0,-49 0,-73 0,-24 0,-48 -1,-72 0,-4 0,-7 0,-10 0,-4 1,-7 1,-10 2,-15 9,-22 24,-22 14,0 22,8 22,23 0,7 0,18 0,34 1,15 1,32 1,48 0,17 0,33 0,48 0,15 -1,25 -1,32zm143 -242c2,-2 3,-4 3,-7 1,-2 2,-4 3,-6 6,-12 14,-15 25,-10 10,5 13,12 9,24 -6,23 -19,36 -39,36 -10,1 -20,-1 -28,-4 -8,-4 -15,-10 -20,-19 -2,-4 -4,-8 -5,-12 -1,-10 2,-17 11,-21 4,-1 8,-1 12,0 5,1 8,4 11,8 2,3 4,6 7,8 2,3 6,3 11,3zm-42 184c6,-12 12,-22 17,-33 6,-11 12,-21 19,-33 3,-6 8,-12 12,-18 5,-6 10,-12 14,-17 4,-5 9,-8 14,-10 5,-2 10,-2 15,1 12,4 18,12 18,26l0 26c-1,20 -1,40 -1,60 0,19 -1,39 -1,59 0,2 0,4 0,6 0,3 -1,5 -1,8 -2,6 -5,12 -10,15 -5,4 -11,5 -17,4 -12,-2 -19,-10 -19,-24l0 -40c0,-6 0,-12 0,-18 -1,-6 -2,-13 -4,-20 -1,3 -3,6 -4,9 -2,2 -4,5 -6,9 -5,9 -10,18 -16,28 -6,9 -11,19 -17,28 -6,7 -11,13 -18,17 -9,5 -18,6 -27,2 -8,-3 -14,-10 -16,-21 -2,-15 -2,-29 -2,-41 1,-21 2,-41 2,-61 1,-21 2,-41 2,-62 1,-3 1,-5 1,-8 0,-2 1,-4 1,-6 4,-13 12,-18 24,-17 5,1 10,3 14,6 4,3 6,8 6,13 1,7 1,15 0,22 0,8 0,15 -1,22 0,12 0,23 -1,34 0,10 0,21 -1,33 1,0 1,0 1,0 1,1 1,1 2,1zm533 -34c13,10 21,21 24,34 3,13 2,27 -1,42 -2,10 -6,19 -11,27 -6,9 -14,14 -26,18 -12,3 -25,4 -37,3 -12,-1 -23,-6 -34,-15 -5,-4 -10,-9 -14,-16 -3,-5 -4,-11 -3,-16 2,-5 5,-9 10,-13 5,-3 11,-4 17,-4 5,0 10,3 13,8 4,8 10,12 16,13 6,1 13,0 21,-2 2,-4 3,-9 4,-14 1,-4 1,-9 1,-14 0,-7 -2,-13 -8,-17 -5,-3 -11,-5 -19,-3l-12 3c-13,2 -21,-3 -26,-13 -4,-11 0,-20 12,-27 5,-3 11,-6 16,-10 5,-3 10,-6 16,-10 4,-2 7,-6 10,-10 2,-4 2,-9 -1,-13 -4,-2 -8,-1 -14,2 -5,3 -11,5 -16,6 -11,5 -20,3 -27,-6 -6,-10 -5,-18 3,-26 4,-5 10,-9 17,-12 7,-3 15,-4 22,-5 8,-1 15,-1 22,0 8,1 14,4 19,7 17,11 23,26 19,43 -1,7 -3,13 -5,20 -3,6 -5,13 -8,20zm205 42c-6,7 -11,13 -15,18 -4,6 -9,11 -14,16 -4,4 -9,8 -13,12 -5,4 -10,8 -15,11 -15,9 -30,11 -44,4 -14,-6 -23,-18 -26,-36 -5,-25 -5,-48 1,-70 6,-23 18,-42 38,-59 17,-15 36,-24 60,-25 17,-1 33,5 47,17 3,3 7,6 10,9 4,3 7,7 11,11 2,3 4,7 5,10 2,4 3,8 3,12 0,8 1,15 0,22 0,7 0,14 0,21 0,11 0,22 0,34 1,12 1,23 1,34 0,3 0,7 0,11 1,4 1,8 1,12 -2,14 -10,21 -24,20 -13,0 -20,-7 -21,-20 -1,-8 -2,-16 -2,-23 -1,-8 -1,-16 -2,-24 0,-2 0,-4 0,-7 0,-2 0,-6 -1,-10zm-82 15c17,-11 31,-24 42,-40 11,-16 22,-32 32,-48 -7,-10 -16,-13 -25,-10 -11,4 -20,8 -26,14 -13,12 -21,24 -23,39 -2,14 -2,30 0,45zm245 -19c-8,5 -13,10 -18,16 -5,6 -6,13 -5,22 1,5 1,9 1,14 1,4 1,8 1,13 0,14 -7,22 -20,24 -6,1 -12,0 -17,-4 -4,-3 -7,-9 -9,-16 -1,-9 -2,-18 -2,-27 0,-9 0,-18 0,-28 0,-18 0,-36 0,-54 0,-19 1,-37 1,-56 0,-2 0,-4 0,-7 0,-2 0,-4 0,-6 2,-5 5,-10 9,-14 4,-3 9,-5 14,-5 5,0 10,2 15,5 4,3 6,8 7,14 1,5 2,11 1,17 0,6 0,11 0,17l0 27c3,-2 5,-4 6,-5 1,-1 3,-2 4,-4 6,-9 13,-18 20,-27 6,-9 13,-18 19,-27 2,-1 3,-3 3,-4 0,-1 1,-2 2,-3 9,-10 19,-12 29,-5 11,5 14,14 10,26 -1,2 -3,5 -4,7 -1,2 -2,5 -4,8 -4,5 -8,11 -12,17 -4,6 -8,12 -13,17 -4,5 -5,11 -3,18 6,15 12,30 18,45 5,16 11,31 16,46 5,15 1,25 -14,30 -14,3 -24,-3 -30,-17 -3,-9 -6,-18 -8,-27 -3,-9 -6,-18 -9,-28 -2,-3 -3,-6 -4,-9 -2,-3 -3,-6 -4,-10zm248 4c-6,7 -11,13 -15,18 -4,6 -9,11 -14,16 -4,4 -9,8 -13,12 -5,4 -10,8 -15,11 -15,9 -30,11 -44,4 -14,-6 -23,-18 -26,-36 -5,-25 -4,-48 1,-70 6,-23 18,-42 38,-59 17,-15 37,-24 60,-25 17,-1 33,5 47,17 3,3 7,6 10,9 4,3 8,7 11,11 2,3 4,7 5,10 2,4 3,8 3,12 0,8 1,15 0,22 0,7 0,14 0,21 0,11 0,22 0,34 1,12 1,23 1,34 0,3 0,7 0,11 1,4 1,8 1,12 -2,14 -10,21 -24,20 -13,0 -19,-7 -21,-20 -1,-8 -2,-16 -2,-23 -1,-8 -1,-16 -2,-24 0,-2 0,-4 0,-7 0,-2 0,-6 -1,-10zm-82 15c17,-11 31,-24 42,-40 11,-16 22,-32 32,-48 -7,-10 -15,-13 -25,-10 -11,4 -19,8 -26,14 -13,12 -21,24 -23,39 -2,14 -2,30 0,45z"/>
   <path class="fil3" d="M3827 2067c14,10 22,21 24,34 3,13 2,27 -1,42 -2,10 -6,19 -11,27 -6,9 -14,14 -25,18 -13,3 -25,4 -38,3 -12,-1 -23,-6 -34,-15 -5,-4 -10,-9 -14,-16 -3,-5 -4,-11 -2,-16 1,-5 4,-9 9,-13 6,-3 11,-4 17,-4 5,0 10,3 13,8 5,8 10,12 16,13 6,1 13,0 22,-2 1,-4 2,-9 3,-14 1,-4 2,-9 2,-14 0,-7 -3,-13 -8,-17 -6,-3 -12,-5 -20,-3l-12 3c-12,2 -21,-3 -26,-13 -4,-11 0,-20 12,-27 5,-3 11,-6 16,-10 5,-3 11,-6 16,-10 4,-2 7,-6 10,-10 2,-4 2,-9 -1,-13 -4,-2 -8,-1 -14,2 -5,3 -11,5 -16,6 -11,5 -20,3 -27,-6 -6,-10 -5,-18 3,-26 4,-5 10,-9 17,-12 7,-3 15,-4 22,-5 8,-1 15,-1 23,0 7,1 13,4 18,7 17,11 23,26 19,43 -1,7 -3,13 -5,20 -2,6 -5,13 -8,20zm-2803 481c10,4 16,8 20,13 3,5 4,12 3,22 -2,9 -6,15 -14,18 -8,4 -16,3 -23,-4 -1,-2 -3,-3 -5,-4 -1,-1 -3,-1 -5,-1 -14,0 -28,0 -41,0 -14,0 -28,1 -42,2 -5,0 -9,0 -11,1 -5,0 -8,2 -10,7 -5,12 -13,16 -23,14 -10,-2 -16,-9 -16,-21 -2,-12 -1,-20 3,-24 4,-5 11,-9 22,-12 2,-1 4,-2 7,-2 2,0 5,-1 7,-2 1,-13 2,-26 2,-38 1,-12 1,-25 2,-38 1,-5 1,-11 2,-16 0,-5 0,-11 1,-16 3,-25 15,-45 34,-59 16,-12 33,-15 51,-9 17,6 28,19 33,38 1,8 2,15 2,21 1,7 1,14 1,21 0,13 0,27 0,40 0,14 -1,27 -1,41 0,3 0,6 1,8zm-42 2c0,-1 0,-2 1,-3 0,-1 0,-2 0,-3 0,-16 0,-32 1,-48 0,-16 0,-32 0,-48 0,-3 0,-7 0,-11 0,-4 0,-7 -2,-11 -3,-10 -9,-13 -19,-8 -13,8 -20,18 -20,32 -2,15 -3,29 -3,43 -1,14 -2,28 -3,42 0,3 0,5 0,8 0,3 0,6 1,9 7,-1 14,-1 22,-1 8,0 15,0 22,-1zm114 -22c-3,-16 -5,-32 -4,-47 0,-15 3,-29 9,-44 10,-26 28,-43 55,-51 8,-3 16,-3 24,-1 27,7 45,24 52,51 5,23 7,45 6,66 -2,22 -8,43 -18,64 -5,10 -12,19 -21,24 -8,6 -17,9 -27,10 -10,0 -19,-1 -29,-5 -9,-4 -18,-11 -25,-20 -6,-7 -11,-15 -14,-23 -3,-9 -6,-16 -8,-24zm94 -75c0,-1 -1,-3 -1,-4 0,-2 0,-4 -2,-6 -6,-14 -16,-17 -27,-10 -8,6 -14,13 -17,21 -6,15 -8,30 -7,44 1,14 5,28 13,42 0,3 2,6 6,9 3,4 7,6 12,6 5,0 9,-3 12,-8 2,-3 4,-7 5,-10 10,-26 12,-54 6,-84zm481 105c2,4 5,7 8,8 2,1 6,2 10,3 9,1 18,0 26,-5 8,-4 14,-10 19,-16 6,-7 9,-15 10,-24 2,-8 0,-16 -4,-24 -4,-9 -10,-15 -17,-20 -8,-4 -16,-5 -25,-3 -3,1 -6,1 -9,2 -3,0 -6,1 -9,3 -12,2 -20,-2 -26,-11 -2,-5 -3,-10 -2,-15 1,-5 3,-10 7,-14 2,-2 5,-3 7,-5 3,-1 5,-3 7,-5 7,-6 15,-11 22,-17 7,-6 14,-12 21,-19 5,-6 9,-11 12,-18 3,-7 4,-15 2,-24 -9,3 -18,5 -26,8 -9,3 -17,8 -24,15 -13,11 -24,12 -35,3 -11,-11 -11,-23 1,-36 2,-2 4,-4 6,-6 2,-2 5,-3 8,-5 10,-4 20,-9 30,-13 10,-4 20,-8 32,-10 13,-4 26,-2 37,6 11,8 17,19 19,33 1,15 -1,28 -6,39 -4,12 -11,23 -19,34 -1,3 -3,5 -5,7 -2,2 -4,5 -6,8 2,2 3,3 5,4 2,1 4,2 5,3 11,8 19,18 26,28 7,11 11,23 12,35 2,11 1,23 -2,36 -3,12 -9,23 -18,34 -24,29 -54,42 -90,37 -20,-3 -35,-11 -45,-25 -9,-13 -14,-29 -14,-46 -1,-10 4,-17 14,-22 12,-5 22,-4 31,3 8,6 10,15 7,26 -1,4 -2,7 -2,8zm215 -148c-2,2 -4,5 -7,9 -3,4 -6,7 -8,8 -10,10 -21,10 -30,1 -5,-4 -8,-8 -8,-13 -1,-6 1,-11 5,-16 15,-21 31,-43 49,-65 7,-9 16,-13 28,-9 12,3 18,12 18,26 0,15 -1,29 -1,43 0,14 -1,28 -1,42 -1,21 -2,41 -2,61 0,20 0,41 0,61 0,3 0,6 0,9 0,2 1,5 2,9 0,7 -2,13 -6,19 -4,6 -10,9 -17,9 -7,1 -13,-1 -18,-5 -5,-4 -7,-10 -7,-18 0,-25 0,-49 1,-73 0,-23 0,-47 0,-71 1,-3 1,-7 1,-13 0,-5 0,-10 1,-14zm475 138c10,4 16,8 20,13 3,5 4,12 3,22 -2,9 -6,15 -14,18 -8,4 -16,3 -23,-4 -1,-2 -3,-3 -4,-4 -2,-1 -4,-1 -6,-1 -14,0 -28,0 -41,0 -14,0 -28,1 -42,2 -5,0 -9,0 -11,1 -4,0 -8,2 -10,7 -5,12 -13,16 -22,14 -11,-2 -17,-9 -17,-21 -2,-12 0,-20 3,-24 4,-5 11,-9 22,-12 2,-1 5,-2 7,-2 2,0 5,-1 7,-2 1,-13 2,-26 2,-38 1,-12 2,-25 2,-38 1,-5 1,-11 2,-16 0,-5 1,-11 1,-16 4,-25 15,-45 34,-59 16,-12 33,-15 51,-9 17,6 28,19 33,38 1,8 2,15 2,21 1,7 1,14 1,21 0,13 0,27 0,40 0,14 0,27 -1,41 0,3 0,6 1,8zm-42 2c0,-1 1,-2 1,-3 0,-1 0,-2 0,-3 0,-16 1,-32 1,-48 0,-16 0,-32 0,-48 0,-3 0,-7 0,-11 0,-4 0,-7 -2,-11 -3,-10 -9,-13 -18,-8 -14,8 -21,18 -21,32 -2,15 -2,29 -3,43 -1,14 -2,28 -3,42 0,3 0,5 0,8 0,3 0,6 1,9 7,-1 15,-1 22,-1 8,0 15,0 22,-1zm156 -34c1,8 2,14 5,19 3,5 6,11 10,16 7,7 15,9 25,5 10,-5 18,-12 24,-22 2,-2 3,-5 4,-7 2,-3 3,-5 4,-8 7,-10 15,-12 25,-8 5,3 8,6 10,10 2,4 2,9 1,14 -5,17 -15,31 -27,43 -13,12 -29,19 -48,21 -16,2 -30,-3 -41,-14 -7,-7 -13,-14 -18,-21 -4,-7 -8,-15 -11,-24 -4,-14 -8,-29 -10,-43 -2,-14 -1,-29 2,-44 8,-35 29,-56 65,-63 5,-2 10,-2 15,-1 5,1 10,2 14,4 16,5 28,15 37,30 8,16 12,31 10,47 -2,21 -13,34 -34,39 -5,2 -10,3 -15,3 -5,0 -10,1 -15,1 -5,1 -9,1 -13,1 -4,0 -8,0 -13,0 -1,1 -2,1 -3,1 -1,0 -2,1 -3,1zm-6 -41c9,-1 18,-1 26,-2 8,0 17,0 26,-1 7,-1 10,-5 9,-12 0,-3 -1,-6 -2,-8 0,-3 -1,-5 -3,-8 -7,-14 -19,-17 -34,-11 -9,4 -15,10 -18,17 -2,7 -4,16 -4,25zm227 32c-7,5 -13,10 -18,16 -5,5 -6,13 -5,22 1,5 1,9 2,13 0,5 0,9 0,14 0,14 -7,22 -20,24 -6,1 -12,0 -17,-4 -4,-4 -7,-9 -8,-16 -2,-9 -2,-19 -2,-27 0,-9 0,-18 0,-28 0,-18 0,-36 0,-55 0,-18 0,-36 1,-55 0,-2 -1,-5 -1,-7 0,-2 0,-4 1,-6 1,-6 4,-10 8,-14 4,-3 9,-5 14,-5 6,0 10,2 15,5 4,3 6,8 7,14 1,5 2,11 2,17 -1,5 -1,11 -1,17l0 27c3,-3 5,-4 6,-5 1,-1 3,-3 4,-4 7,-9 13,-18 20,-27 6,-9 13,-18 20,-27 1,-2 2,-3 2,-4 0,-1 1,-2 2,-3 9,-10 19,-12 29,-5 11,5 14,14 10,26 -1,2 -2,5 -3,7 -1,2 -3,5 -5,7 -4,6 -8,12 -12,18 -4,6 -8,12 -13,17 -4,5 -5,11 -3,18 6,15 12,30 18,45 5,16 11,31 16,46 5,15 1,25 -14,30 -14,3 -24,-3 -29,-17 -4,-10 -7,-19 -9,-27 -3,-9 -6,-18 -9,-28 -2,-3 -3,-6 -4,-9 -2,-3 -3,-7 -4,-10zm248 3c-6,8 -11,14 -15,19 -4,6 -9,11 -14,16 -4,4 -9,8 -13,12 -5,4 -10,8 -15,11 -15,9 -30,11 -44,4 -14,-6 -23,-18 -26,-36 -5,-25 -4,-48 1,-71 6,-22 19,-41 38,-58 17,-16 37,-24 60,-25 18,-1 33,5 47,17 3,3 7,6 11,9 3,3 7,7 10,10 2,4 4,7 5,11 2,4 3,8 3,12 1,7 1,15 0,22 0,6 0,14 0,21 0,11 0,22 0,34 1,11 1,23 1,34 0,3 0,7 0,11 1,4 1,8 1,12 -2,14 -10,21 -24,20 -12,0 -19,-7 -21,-20 -1,-8 -2,-16 -2,-23 0,-8 -1,-16 -2,-24 0,-2 0,-4 0,-7 0,-2 0,-6 -1,-11zm-82 16c17,-11 31,-24 42,-40 11,-16 22,-32 32,-48 -7,-10 -15,-14 -25,-10 -11,4 -19,8 -26,14 -13,11 -21,24 -23,39 -2,14 -2,29 0,45zm228 -142c12,2 23,5 34,9 11,4 21,9 30,17 21,17 32,39 32,67 0,21 -4,40 -13,57 -9,17 -23,31 -42,42 -6,3 -11,6 -16,9 -5,2 -11,5 -16,7 -15,5 -26,4 -36,-2 -9,-6 -14,-17 -14,-32 -2,-23 -3,-46 -4,-69 -2,-23 -3,-45 -3,-69 0,-13 0,-26 1,-39 0,-12 2,-25 5,-39 5,-27 16,-49 33,-66 17,-18 38,-32 63,-43 2,-2 5,-3 8,-3 4,-1 7,-2 10,-2 16,-2 26,4 29,17 2,13 -5,22 -20,27 -6,3 -13,5 -19,8 -6,3 -12,6 -17,10 -32,23 -47,54 -45,94zm-2 49c1,18 2,36 3,54 0,18 1,37 4,56 30,-12 45,-34 46,-63 0,-14 -5,-25 -15,-34 -9,-9 -22,-13 -38,-13zm191 164c0,10 0,20 0,28 -1,9 0,18 0,27 0,7 1,15 1,23 1,8 1,16 0,23 0,4 0,7 -1,10 -1,4 -3,7 -6,9 -4,6 -10,8 -18,7 -8,-1 -13,-5 -16,-12 -2,-2 -2,-5 -3,-8 0,-2 -1,-5 -1,-8 -2,-45 -3,-90 -5,-135 -1,-44 0,-89 5,-135 0,-5 0,-9 1,-11 2,-10 5,-16 9,-20 4,-4 11,-7 20,-8 35,-5 66,4 91,28 10,9 17,19 22,30 4,11 6,24 6,37 1,9 0,18 -1,28 -2,10 -4,19 -6,28 -5,21 -15,35 -31,44 -15,9 -30,14 -44,15 -4,0 -8,0 -11,0 -4,0 -8,0 -12,0zm-4 -45c7,-1 13,-1 17,-1 5,0 9,0 13,-1 5,-1 10,-3 15,-6 4,-3 8,-6 10,-12 4,-11 7,-22 9,-34 1,-11 0,-23 -4,-34 -4,-11 -10,-20 -21,-25 -10,-6 -22,-7 -35,-5 0,19 -1,39 -2,58 0,19 -1,39 -2,60zm247 -34c-5,-1 -9,0 -12,2 -3,2 -6,5 -8,8 -6,10 -11,19 -15,29 -4,10 -9,19 -16,28 -8,11 -18,14 -30,9 -13,-7 -16,-17 -9,-30 4,-9 8,-18 13,-26 5,-9 10,-17 15,-27 -4,-3 -7,-6 -10,-8 -4,-3 -7,-6 -9,-9 -9,-12 -13,-26 -12,-40 1,-15 7,-28 17,-38 12,-14 26,-24 41,-31 15,-7 32,-8 52,-5 13,3 22,7 26,12 4,6 7,15 8,28 0,16 1,31 1,44 0,13 0,26 0,38 0,11 -1,23 -2,35 0,11 -2,23 -4,36 -2,15 -10,22 -24,21 -6,-1 -11,-3 -15,-7 -4,-4 -6,-10 -6,-16 -1,-7 -1,-15 -1,-22 0,-7 0,-14 0,-22l0 -9zm6 -95c-11,-1 -21,1 -31,7 -11,6 -17,13 -21,20 -2,5 -1,11 1,16 3,5 8,8 14,9 6,1 12,0 21,-2 8,-1 12,-5 13,-12 1,-6 1,-12 1,-18 1,-7 1,-13 2,-20zm-3059 507c-3,-16 -5,-32 -5,-47 1,-15 4,-29 10,-44 10,-26 28,-43 54,-51 8,-3 16,-3 25,-1 27,7 44,24 51,51 6,23 8,45 6,66 -1,21 -7,43 -17,64 -6,10 -13,18 -21,24 -9,6 -18,9 -27,9 -10,1 -20,-1 -29,-5 -10,-4 -18,-10 -25,-19 -6,-8 -11,-15 -14,-24 -3,-8 -6,-16 -8,-23zm94 -75c-1,-1 -1,-3 -1,-4 0,-2 -1,-4 -2,-6 -7,-14 -16,-17 -28,-10 -8,6 -13,13 -17,21 -6,15 -8,30 -7,44 2,14 6,28 13,42 1,3 3,6 6,9 4,4 8,6 13,6 5,0 9,-3 12,-8 2,-3 4,-7 5,-10 10,-26 12,-54 6,-84zm155 -23l-26 0c-4,0 -6,-1 -9,0 -3,0 -6,0 -9,-1 -5,-1 -10,-4 -13,-7 -3,-4 -5,-8 -5,-14 -1,-11 4,-19 16,-22 1,-1 2,-1 2,-1 1,0 2,-1 3,-1 15,-2 30,-3 45,-4 16,-1 31,-2 46,-3 3,0 6,0 9,0 2,0 5,0 9,1 6,0 10,3 14,7 4,5 6,9 6,15 0,11 -6,18 -18,21 -4,2 -7,2 -11,2 -3,0 -7,1 -11,1 -1,13 -1,26 -2,39 0,12 0,25 0,37 -1,12 -1,23 -1,33 0,11 0,21 0,32 0,5 0,9 -1,11 -2,14 -10,20 -23,20 -6,0 -11,-2 -15,-6 -4,-3 -7,-9 -7,-16 0,-16 1,-32 1,-48 0,-16 0,-31 0,-47 1,-8 1,-16 1,-24 0,-8 -1,-16 -1,-25z"/>
   <path class="fil3" d="M1180 2846c3,2 7,4 10,5 3,1 6,3 9,4 7,5 12,9 16,14 3,4 5,8 4,13 -1,4 -3,8 -6,12 -2,4 -6,6 -10,8 -5,2 -9,1 -14,-1 -7,-3 -14,-6 -21,-9 -7,-3 -14,-6 -20,-10 -24,-14 -27,-33 -11,-56l50 -65c2,-1 3,-3 5,-5 2,-2 3,-4 5,-5 10,-7 19,-7 28,0 9,9 11,19 5,30 -3,5 -7,10 -10,14 -4,4 -8,9 -12,15 -4,5 -9,11 -14,17 -4,5 -9,12 -14,19zm80 -18c5,4 10,7 15,10 4,3 9,7 14,10 14,8 18,18 13,29 -2,6 -6,11 -12,15 -6,3 -12,3 -17,0 -12,-7 -22,-14 -33,-22 -10,-7 -20,-15 -30,-23 -4,-3 -6,-7 -5,-12 0,-5 2,-10 4,-15 7,-12 15,-23 24,-33 9,-10 19,-20 31,-29 4,-4 9,-6 14,-5 6,1 10,3 14,7 10,9 10,19 0,31 -2,2 -4,5 -6,7 -2,2 -4,4 -6,6 -2,3 -5,6 -7,8 -3,3 -6,6 -8,8 -2,2 -3,4 -5,8zm146 -125c-1,15 -2,31 -2,46 0,15 -1,30 -2,45 14,-1 27,-2 39,-3 3,-1 7,-1 10,-2 3,0 6,0 10,0 16,1 24,8 24,21 2,13 -5,21 -20,23 -7,2 -13,2 -20,3 -7,0 -13,1 -20,2 -7,2 -15,2 -24,3 1,15 1,32 1,53 0,20 0,38 0,53 8,-1 14,-1 20,-1 6,-1 12,-1 18,-2 6,0 12,0 17,-1 6,-1 12,-1 18,-1 8,0 14,2 18,6 5,5 7,10 7,17 0,7 -3,13 -8,17 -5,4 -11,7 -18,8 -12,0 -22,1 -33,1 -10,0 -20,1 -32,2 -8,1 -15,1 -22,0 -8,-1 -14,-5 -20,-12 -4,-4 -6,-7 -8,-11 -1,-3 -2,-8 -2,-13 0,-20 0,-43 -1,-70 0,-27 0,-50 0,-70 0,-21 0,-42 0,-63 1,-22 1,-43 2,-64 0,-11 2,-19 6,-24 5,-5 12,-7 24,-8 10,-1 21,-2 31,-3 11,0 21,-1 32,-2 3,0 6,0 8,0 3,0 5,1 9,2 12,3 17,11 16,24 -2,12 -9,19 -21,21 -8,0 -15,1 -23,1 -7,0 -15,0 -22,1 -2,0 -4,0 -6,0 -2,0 -4,1 -6,1zm223 114c-6,7 -12,13 -17,19 -6,6 -11,12 -16,18 -1,0 -2,2 -3,7 -2,5 -2,10 -2,14 -1,13 -1,26 -1,40 0,13 -1,27 -1,40 0,3 0,6 0,8 0,3 -1,5 -1,9 -4,10 -10,16 -20,16 -11,0 -18,-6 -21,-17 -1,-3 -1,-6 -1,-8 0,-3 0,-5 0,-8 1,-21 1,-41 2,-60 1,-20 1,-40 2,-60 0,-25 0,-50 0,-75 0,-25 0,-50 1,-75 0,-3 0,-7 0,-10 0,-3 1,-6 2,-9 3,-12 11,-17 22,-15 10,2 16,8 18,19 0,3 1,6 1,9 0,3 0,6 0,9l0 100c2,-4 5,-6 7,-8 1,-1 3,-3 4,-5 14,-17 28,-35 42,-53 14,-17 28,-35 42,-53 6,-10 14,-14 23,-13 7,1 12,5 15,12 3,6 3,12 0,19 -3,6 -7,13 -13,21 -7,10 -14,19 -22,29 -8,10 -15,20 -23,30 -5,7 -6,13 -3,21 7,23 15,46 24,68 8,22 18,45 28,66 3,6 5,11 7,16 2,5 4,10 7,15 7,16 4,27 -9,34 -5,2 -10,3 -16,1 -5,-2 -9,-7 -13,-14 -11,-23 -21,-46 -32,-70 -10,-23 -19,-47 -27,-72l-6 -15zm648 111c20,2 32,12 36,30 2,13 -3,23 -14,29 -10,5 -19,3 -29,-6 -2,-2 -4,-4 -5,-6 -2,-1 -4,-2 -8,-2 -25,0 -49,0 -73,0 -24,0 -49,-1 -73,-1 -1,0 -3,0 -6,2 -1,2 -2,7 -3,14 -4,9 -11,14 -23,14 -11,-1 -17,-7 -19,-16 -2,-11 -3,-22 -3,-32 -1,-7 1,-14 6,-19 4,-6 10,-9 18,-9 2,0 3,0 4,0 2,-1 3,-1 4,-1 0,-2 0,-4 1,-6 0,-2 0,-3 0,-5 2,-23 3,-47 3,-72 1,-25 2,-49 3,-72 2,-13 3,-27 4,-40 1,-14 6,-27 13,-39 15,-27 36,-41 64,-41 15,0 30,1 45,3 24,4 38,18 44,42 2,10 4,20 5,30 2,11 3,21 3,31 2,26 2,54 2,82 -1,29 0,56 0,82 0,2 0,3 1,4 0,1 0,2 0,4zm-47 -3c0,-3 0,-6 0,-9 1,-3 0,-6 0,-9 0,-18 0,-38 0,-59 0,-21 -1,-41 -1,-59 -1,-10 -1,-20 -1,-30 1,-11 0,-21 -1,-31 -2,-14 -4,-23 -9,-27 -4,-3 -13,-5 -27,-5l-13 0c-12,0 -19,5 -23,16 -2,4 -4,9 -6,13 -2,5 -3,10 -3,15 -2,15 -3,32 -4,49 -1,17 -2,33 -3,48 -1,11 -1,23 -2,35 0,12 -1,23 -1,34 0,4 0,7 0,10 1,3 1,6 2,9l92 0zm136 5c-4,-16 -5,-32 -5,-47 0,-15 4,-29 9,-44 10,-26 28,-43 55,-51 8,-3 16,-3 25,-1 27,7 44,24 51,51 5,23 7,45 6,66 -1,21 -7,43 -18,64 -5,10 -12,18 -21,24 -8,6 -17,9 -27,9 -9,1 -19,-1 -29,-5 -9,-3 -17,-10 -25,-19 -6,-8 -10,-15 -14,-24 -3,-8 -6,-16 -7,-23zm93 -75c0,-1 0,-3 0,-4 0,-2 -1,-4 -2,-6 -7,-14 -16,-17 -28,-10 -8,6 -14,13 -17,21 -6,15 -8,30 -7,44 1,14 6,28 13,42 1,3 3,6 6,9 3,4 7,6 12,6 5,0 9,-3 13,-8 2,-3 3,-7 5,-10 9,-26 11,-54 5,-84zm94 41c0,-21 4,-40 12,-56 7,-17 19,-32 35,-45 13,-10 26,-14 41,-14 14,0 27,5 39,16 8,6 16,14 22,25 4,7 5,13 4,19 -1,6 -5,11 -10,14 -5,3 -11,4 -17,2 -6,-1 -11,-5 -15,-10 -2,-2 -3,-4 -4,-6 -2,-3 -3,-4 -5,-6 -8,-10 -18,-11 -28,-3 -12,9 -20,21 -24,36 -4,16 -4,32 0,49 2,8 4,14 9,19 5,5 11,8 18,9 16,4 29,0 40,-12 2,-2 4,-5 6,-8 2,-2 3,-5 5,-9 10,-11 19,-13 30,-7 11,6 14,16 10,30 -5,15 -16,28 -32,38 -16,10 -32,16 -48,16 -19,-1 -36,-6 -50,-16 -14,-9 -24,-23 -29,-40 -3,-7 -5,-14 -6,-21 -1,-6 -2,-13 -3,-20zm276 -64l-27 0c-3,0 -6,-1 -9,0 -2,0 -5,0 -9,-1 -5,-1 -9,-4 -12,-7 -4,-4 -5,-8 -5,-14 -2,-11 4,-19 16,-22 1,-1 2,-1 2,-1 0,0 1,-1 2,-1 16,-2 31,-3 46,-4 15,-1 30,-2 45,-3 4,0 7,0 9,0 3,0 6,0 9,1 6,0 11,3 15,7 3,5 5,9 5,15 0,11 -6,18 -18,21 -3,2 -6,2 -10,2 -4,0 -8,1 -12,1 0,14 -1,26 -1,39 0,12 0,25 0,37 -1,12 -1,23 -1,33 0,11 0,21 0,32 0,5 -1,9 -1,11 -2,14 -10,20 -23,20 -6,0 -11,-2 -16,-5 -4,-4 -6,-10 -6,-17 0,-16 0,-32 1,-48 0,-16 0,-31 0,-47 1,-8 1,-16 1,-24 -1,-8 -1,-16 -1,-25zm261 80c-6,8 -11,14 -15,19 -4,5 -9,11 -14,16 -4,4 -8,8 -13,12 -5,4 -10,7 -15,11 -15,9 -30,10 -44,4 -14,-6 -23,-18 -26,-36 -5,-25 -4,-49 1,-71 6,-22 19,-41 38,-58 17,-16 37,-24 60,-25 18,-1 33,5 47,17 4,3 7,6 11,9 3,3 7,6 10,10 2,4 4,7 5,11 2,4 3,8 3,12 1,7 1,14 0,21 0,7 0,14 0,22 0,11 0,22 0,34 1,11 1,23 1,34 0,3 0,7 0,11 1,4 1,8 1,12 -2,14 -10,21 -24,19 -12,0 -19,-6 -21,-19 -1,-8 -2,-16 -2,-24 0,-7 -1,-15 -2,-23 0,-2 0,-4 0,-7 0,-2 0,-6 -1,-11zm-82 16c17,-11 31,-25 42,-40 11,-16 22,-32 33,-48 -8,-10 -16,-14 -26,-10 -11,4 -19,8 -26,14 -13,11 -21,24 -23,39 -2,14 -2,29 0,45zm290 -55c4,2 7,3 10,5 3,1 6,2 8,4 15,8 25,20 28,35 4,15 1,29 -10,43 -10,13 -22,22 -36,27 -14,5 -30,8 -46,9 -5,0 -9,0 -14,0 -5,0 -9,-1 -14,-2 -14,-1 -23,-4 -29,-10 -6,-6 -9,-16 -9,-29 0,-25 0,-50 0,-75 0,-25 0,-50 -1,-75 0,-18 9,-27 27,-27 13,0 26,1 39,3 15,2 28,7 39,16 11,9 18,20 20,33 2,8 1,15 -1,22 -2,7 -5,14 -11,21zm-70 80c17,4 33,3 48,-2 8,-3 16,-8 21,-14 9,-8 8,-14 -3,-20 -20,-10 -41,-13 -64,-9 0,8 0,16 0,23 -1,7 -1,15 -2,22zm0 -90c2,1 3,2 4,3 5,-3 11,-6 16,-9 4,-2 9,-5 14,-8 8,-7 8,-13 0,-21 -10,-8 -21,-10 -33,-7 0,8 -1,15 -1,21 0,7 0,14 0,21zm227 45c-7,6 -13,11 -18,17 -4,5 -6,13 -5,22 1,5 1,9 2,13 0,5 0,9 0,14 0,14 -6,22 -20,23 -6,2 -12,1 -16,-3 -5,-4 -8,-9 -9,-16 -2,-10 -2,-19 -2,-28 0,-8 0,-18 0,-27 0,-18 0,-37 0,-55 0,-18 0,-36 1,-56 0,-2 0,-4 -1,-6 0,-2 0,-4 1,-6 1,-6 4,-10 8,-14 4,-3 9,-5 14,-5 6,0 11,1 15,5 4,3 7,8 7,14 2,5 2,10 2,16 -1,6 -1,12 -1,18l0 27c3,-3 5,-5 6,-6 2,0 3,-2 4,-3 7,-9 13,-18 20,-27 7,-9 13,-18 20,-27 1,-2 2,-3 2,-4 1,-1 1,-2 3,-3 8,-10 18,-12 28,-5 11,5 14,14 10,25 -1,3 -2,6 -3,8 -1,2 -3,5 -5,7 -4,6 -8,12 -12,18 -4,6 -8,12 -12,17 -5,5 -6,11 -3,18 6,15 11,30 17,45 6,15 11,31 16,46 6,15 1,25 -14,29 -13,4 -23,-2 -29,-16 -4,-10 -7,-19 -9,-28 -3,-8 -6,-18 -9,-27 -1,-3 -3,-6 -4,-9 -1,-3 -3,-7 -4,-11zm249 4c-6,8 -11,14 -16,19 -4,5 -9,11 -14,16 -4,4 -8,8 -13,12 -5,4 -10,7 -15,11 -15,9 -30,10 -44,4 -14,-6 -23,-18 -26,-36 -5,-25 -4,-49 1,-71 6,-22 19,-41 39,-58 16,-16 36,-24 59,-25 18,-1 34,5 47,17 4,3 7,6 11,9 3,3 7,6 10,10 2,4 4,7 6,11 1,4 2,8 2,12 1,7 1,14 1,21 -1,7 -1,14 -1,22 0,11 0,22 1,34 0,11 0,23 0,34 0,3 0,7 1,11 0,4 0,8 0,12 -2,14 -10,21 -24,19 -12,0 -19,-6 -20,-19 -2,-8 -3,-16 -3,-24 0,-7 -1,-15 -1,-23 0,-2 0,-4 0,-7 0,-2 -1,-6 -1,-11zm-83 16c18,-11 32,-25 43,-40 10,-16 21,-32 32,-48 -8,-10 -16,-14 -26,-10 -11,4 -19,8 -26,14 -13,11 -21,24 -23,39 -2,14 -2,29 0,45zm301 -88c-3,-3 -6,-6 -8,-9 -3,-2 -6,-5 -10,-9 2,12 2,21 -2,28 -4,6 -10,13 -16,20 -7,7 -14,15 -21,22 -7,8 -13,15 -20,23 -4,6 -9,9 -16,11 -6,2 -12,1 -17,-3 -6,-4 -9,-9 -10,-15 -1,-6 1,-13 7,-20 5,-7 11,-13 17,-20 5,-6 11,-12 16,-19 2,-2 3,-4 5,-6 1,-2 4,-4 6,-7 -5,-5 -10,-10 -16,-14 -5,-4 -10,-9 -15,-13 -3,-3 -6,-5 -8,-7 -3,-2 -5,-5 -6,-7 -4,-6 -5,-11 -4,-18 0,-6 3,-11 9,-15 11,-8 21,-7 30,4 4,3 7,7 11,10 3,3 7,7 12,11 1,-4 1,-7 1,-9 0,-3 1,-5 2,-7 3,-7 7,-12 14,-15 7,-3 14,-2 20,3 10,9 20,19 30,28 10,10 20,20 29,29 10,10 12,22 5,34 -11,25 -26,47 -46,65 -6,7 -14,9 -22,6 -8,-2 -13,-6 -15,-14 -2,-8 0,-15 5,-22 5,-8 11,-15 16,-22 6,-7 12,-15 17,-23z"/>
  </g>
 </g>
</svg>
