<?xml version="1.0" encoding="UTF-8"?>
<!DOCTYPE svg PUBLIC "-//W3C//DTD SVG 1.1//EN" "http://www.w3.org/Graphics/SVG/1.1/DTD/svg11.dtd">
<!-- Creator: CorelDRAW X6 -->
<svg xmlns="http://www.w3.org/2000/svg" xml:space="preserve" width="45mm" height="45mm" version="1.1" style="shape-rendering:geometricPrecision; text-rendering:geometricPrecision; image-rendering:optimizeQuality; fill-rule:evenodd; clip-rule:evenodd"
viewBox="0 0 4500 4500"
 xmlns:xlink="http://www.w3.org/1999/xlink">
 <defs>
  <style type="text/css">
   <![CDATA[
    .str0 {stroke:black;stroke-width:75}
    .fil2 {fill:black}
    .fil0 {fill:#E94F42}
    .fil1 {fill:#FEFEFE;fill-rule:nonzero}
   ]]>
  </style>
 </defs>
 <g id="Слой_x0020_1">
  <metadata id="CorelCorpID_0Corel-Layer"/>
  <path class="fil0 str0" d="M371 280c0,0 -121,140 -126,669 -6,529 -23,2140 -25,2323 -2,182 -116,533 15,701 131,168 95,285 709,291 614,7 1936,20 2185,23 249,3 836,152 1001,-61 165,-213 191,-676 198,-1284 6,-609 -149,-1351 -98,-1743 52,-391 133,-749 39,-840 -94,-92 -504,-169 -1367,-178 -862,-9 -1804,-19 -2019,-21 -214,-3 -512,120 -512,120z"/>
  <g id="_520260800">
   <path class="fil1" d="M1007 727c0,-61 9,-98 29,-129 6,-10 15,-18 24,-26 11,-8 22,-3 28,11 2,7 3,14 6,20 7,14 21,21 35,17 13,-4 21,-17 20,-32 -5,-30 -15,-58 -41,-71 -28,-16 -54,-16 -81,3 -30,20 -49,52 -62,88 -22,70 -22,139 -2,208 11,39 30,73 62,98 34,27 79,24 108,-6 29,-29 38,-67 39,-107 0,-15 -11,-26 -24,-29 -13,-1 -25,5 -30,18 -3,7 -4,15 -7,24 -3,12 -5,26 -11,39 -10,19 -26,22 -41,9 -13,-12 -24,-26 -32,-42 -15,-31 -20,-67 -20,-93zm283 102c4,10 8,17 10,25 8,24 15,47 23,69 8,19 21,25 38,22 16,-5 24,-19 17,-38 -13,-39 -27,-77 -42,-116 -4,-9 -3,-15 3,-23 12,-13 22,-29 32,-44 5,-6 7,-12 10,-19 5,-13 0,-26 -13,-32 -12,-8 -26,-5 -36,6 -3,3 -4,6 -6,9 -17,22 -34,46 -51,69 -2,3 -6,5 -12,11 0,-13 0,-24 0,-34 0,-15 1,-30 -2,-44 -1,-15 -13,-24 -27,-24 -14,0 -27,10 -29,24 -2,5 0,12 0,17 -2,48 -2,94 -2,141 0,22 0,46 3,69 2,18 16,28 33,25 15,-1 25,-12 25,-30 0,-11 -1,-23 -3,-34 -2,-23 10,-35 29,-49zm189 -4c-1,0 -2,-1 -4,-1 2,-28 3,-56 3,-85 1,-18 3,-37 1,-56 0,-14 -11,-23 -25,-24 -14,-1 -26,6 -30,21 -1,5 -1,12 -3,18 -1,53 -3,104 -5,157 -1,17 0,34 3,52 5,26 30,38 54,24 9,-5 16,-13 23,-22 15,-24 29,-47 42,-71 5,-8 9,-15 13,-23 5,18 5,34 5,49 0,18 0,34 0,50 0,18 9,29 24,31 15,2 30,-8 34,-24 1,-7 1,-13 1,-18 2,-50 2,-101 3,-151 0,-11 0,-23 0,-34 0,-15 -8,-28 -23,-33 -14,-6 -26,0 -36,12 -12,13 -24,29 -34,45 -17,28 -31,55 -46,83zm382 59c-1,-4 -1,-7 -1,-10 1,-35 1,-69 1,-103 0,-18 0,-35 -4,-53 -11,-50 -65,-68 -107,-38 -25,19 -39,44 -43,76 -1,14 -2,27 -4,40 -1,33 -3,64 -5,97 -6,3 -12,3 -17,5 -28,9 -35,18 -33,45 1,17 9,26 21,28 13,3 22,-2 29,-18 3,-6 7,-10 13,-10 4,-1 9,-1 14,-1 35,-1 70,-2 106,-2 5,0 10,3 12,6 9,9 19,11 29,6 10,-4 17,-12 18,-24 2,-22 -4,-34 -29,-44zm-53 3c-19,1 -38,1 -57,2 -1,-9 -1,-15 -1,-21 3,-37 5,-72 8,-108 1,-18 11,-32 26,-41 11,-6 20,-2 24,10 2,9 2,19 2,28 0,40 -1,82 -1,122 0,3 -1,5 -1,8zm198 -58c4,10 7,17 10,25 7,24 15,47 22,69 8,19 22,25 38,22 17,-5 24,-19 18,-38 -14,-39 -28,-77 -43,-116 -4,-9 -2,-15 4,-23 11,-13 21,-29 31,-44 5,-6 8,-12 10,-19 5,-13 0,-26 -12,-32 -13,-8 -27,-5 -37,6 -2,3 -3,6 -6,9 -16,22 -34,46 -50,69 -3,3 -7,5 -13,11 0,-13 0,-24 0,-34 0,-15 1,-30 -1,-44 -1,-15 -14,-24 -28,-24 -14,0 -26,10 -29,24 -1,5 0,12 0,17 -1,48 -1,94 -1,141 0,22 0,46 2,69 3,18 17,28 33,25 15,-1 25,-12 25,-30 0,-11 -1,-23 -2,-34 -3,-23 10,-35 29,-49zm292 6c1,11 1,18 1,23 1,20 3,39 5,59 1,16 13,25 27,25 16,1 27,-9 30,-25 0,-10 -1,-20 -1,-29 0,-29 -2,-58 -2,-87 0,-18 2,-36 0,-54 0,-10 -5,-21 -10,-29 -7,-10 -17,-16 -26,-25 -18,-15 -37,-23 -61,-22 -29,2 -54,12 -75,32 -50,44 -62,102 -50,165 7,45 51,64 89,40 14,-9 25,-19 35,-29 13,-12 23,-26 38,-44zm-105 20c-5,-40 -3,-78 29,-107 9,-7 22,-14 33,-17 13,-5 24,0 33,12 -27,40 -52,85 -95,112zm650 -245c13,0 23,0 34,0 13,0 25,0 38,-3 15,-4 23,-16 21,-30 -1,-13 -11,-24 -26,-24 -24,-1 -49,-2 -74,0 -32,3 -47,18 -51,49 -1,15 -1,32 -1,47 -1,25 -2,50 -2,75 0,24 12,38 31,36 8,-2 14,-7 20,-10 11,-11 24,-18 40,-19 11,-2 18,2 21,12 1,5 3,10 3,15 0,32 -5,63 -19,92 -6,13 -15,23 -30,28 -12,-10 -14,-23 -14,-37 0,-12 -7,-21 -18,-26 -12,-4 -22,0 -29,8 -11,7 -13,17 -13,30 2,21 11,41 25,59 19,26 47,31 76,18 20,-9 35,-22 46,-39 32,-47 39,-100 32,-155 -7,-39 -35,-71 -90,-62 -6,0 -12,1 -20,1 0,-21 0,-43 0,-65zm144 131c2,20 4,39 6,59 1,12 5,25 9,38 6,24 18,46 34,65 34,38 82,39 116,3 14,-15 26,-33 34,-51 24,-48 33,-99 25,-152 -8,-53 -26,-100 -77,-127 -39,-22 -87,-18 -113,25 -6,11 -11,23 -17,35 -12,34 -16,69 -17,105zm169 -5c-4,44 -11,85 -39,122 -17,21 -31,20 -45,-5 -7,-15 -15,-32 -18,-48 -10,-43 -9,-86 0,-129 1,-8 5,-18 8,-27 10,-25 33,-32 55,-15 10,8 17,20 23,31 7,11 9,24 12,37 2,11 2,22 4,34zm353 -173c-1,-14 -5,-24 -16,-29 -10,-5 -20,-5 -29,3 -6,5 -10,12 -12,19 -26,46 -50,94 -75,141 -31,61 -65,123 -98,185 -13,24 -9,43 9,50 17,9 31,0 44,-24 15,-31 31,-62 48,-93 40,-77 80,-152 121,-229 5,-8 6,-17 8,-23zm-264 74c1,53 39,81 83,63 22,-8 39,-22 52,-42 16,-27 14,-60 -7,-84 -5,-6 -11,-11 -17,-16 -22,-19 -43,-20 -66,-4 -30,22 -42,52 -45,83zm57 8c5,-14 7,-23 11,-35 8,4 13,6 18,9 2,7 -7,17 -29,26zm165 262c35,1 73,-30 80,-67 4,-21 -1,-40 -16,-57 -28,-30 -88,-35 -111,2 -10,17 -18,35 -19,55 0,39 27,67 66,67zm-7 -61c2,-7 3,-15 7,-22 2,-7 13,-7 19,-1 6,5 3,11 -2,15 -5,5 -12,8 -19,12 -1,-1 -3,-2 -5,-4zm-2136 340c-12,2 -22,3 -31,3 -11,0 -21,-1 -32,-1 0,-12 0,-20 0,-31 0,-16 0,-32 -2,-49 -1,-13 -11,-24 -23,-25 -13,-1 -26,8 -29,20 -2,7 -2,12 -2,18 0,49 0,97 0,146 0,21 -1,43 0,64 0,14 8,24 19,27 13,3 27,-2 32,-15 3,-5 3,-13 3,-21 2,-25 3,-50 3,-76 21,-2 42,-3 64,-4 0,14 0,25 1,36 0,17 0,33 2,48 1,17 16,29 30,27 15,-2 25,-13 25,-29 -1,-49 -2,-100 -2,-149 -2,-21 -2,-44 -3,-65 -1,-14 -13,-22 -25,-23 -13,0 -24,9 -28,23 0,5 0,11 0,16 0,20 -1,39 -2,60zm257 67c1,11 1,18 1,23 1,20 2,39 5,59 1,16 12,25 26,25 17,1 28,-9 31,-25 0,-10 -2,-20 -2,-29 0,-29 -1,-58 -1,-87 0,-17 1,-36 0,-54 0,-10 -5,-21 -10,-29 -8,-10 -18,-16 -26,-25 -18,-15 -37,-23 -61,-22 -29,2 -54,12 -75,32 -51,44 -62,102 -51,165 8,45 52,64 90,40 13,-9 25,-19 35,-29 12,-12 22,-26 38,-44zm-105 20c-5,-40 -4,-78 29,-107 9,-7 21,-14 33,-17 12,-5 24,0 33,12 -27,41 -52,85 -95,112zm717 -27c-4,-10 -8,-17 -9,-23 -9,-32 -18,-63 -28,-93 -4,-13 -9,-24 -16,-34 -17,-19 -42,-17 -54,4 -4,7 -8,15 -9,23 -4,21 -8,42 -9,63 -5,48 -8,96 -11,144 -3,20 7,34 24,35 16,1 27,-9 30,-29 1,-17 2,-35 5,-53 1,-21 2,-42 4,-64 6,6 8,13 11,19 9,23 18,44 26,67 8,16 18,31 38,33 20,0 30,-16 35,-33 10,-30 19,-62 29,-93 2,-5 4,-12 5,-18 4,4 5,8 5,11 3,42 4,83 5,125 2,18 13,30 29,30 16,-1 27,-14 27,-33 -3,-60 -4,-122 -8,-183 0,-12 -3,-24 -8,-34 -9,-21 -32,-28 -50,-18 -10,6 -18,14 -25,23 -9,15 -16,31 -21,47 -10,27 -17,53 -25,84zm231 15c3,-2 5,-2 8,-3 11,0 21,0 33,-1 12,-1 26,-3 39,-5 24,-6 40,-25 43,-50 5,-41 -22,-85 -60,-99 -11,-3 -25,-6 -37,-3 -44,8 -73,36 -82,80 -9,38 -2,74 10,111 6,23 19,40 36,57 14,13 32,20 52,17 49,-4 82,-39 96,-80 3,-13 -3,-24 -14,-31 -12,-5 -24,-1 -32,10 -3,7 -7,13 -10,19 -7,13 -17,22 -31,28 -13,5 -22,4 -32,-6 -10,-13 -17,-27 -19,-44zm-7 -53c0,-24 6,-43 28,-53 20,-9 34,-4 44,14 2,6 5,12 6,20 1,9 -3,14 -11,15 -23,1 -45,3 -67,4zm180 24c4,17 5,35 11,53 13,42 53,69 101,70 42,0 88,-30 102,-68 5,-16 1,-30 -13,-38 -12,-7 -27,-3 -37,9 -5,8 -9,15 -14,22 -14,15 -33,20 -52,15 -19,-4 -30,-18 -34,-36 -5,-21 -5,-42 0,-63 5,-18 15,-34 30,-45 13,-10 26,-9 36,4 5,4 7,10 11,15 10,14 28,19 42,10 13,-9 17,-25 7,-41 -7,-13 -16,-24 -28,-33 -30,-27 -70,-27 -102,-3 -41,33 -59,77 -60,129zm368 31c0,4 0,8 0,12 0,17 0,37 1,56 0,16 11,28 26,29 17,1 29,-9 32,-27 9,-65 7,-113 6,-194 -4,-34 -11,-46 -44,-52 -50,-9 -87,13 -118,45 -25,27 -28,70 -7,100 7,7 16,15 24,22 -11,23 -25,45 -35,68 -7,15 -2,30 11,38 14,6 29,3 40,-11 16,-22 23,-50 39,-73 5,-9 11,-15 25,-13zm7 -121c-1,17 -2,33 -4,48 -1,17 -28,19 -42,18 -17,-1 -24,-18 -19,-32 7,-19 39,-36 65,-34zm153 165c0,-7 -2,-14 -2,-21 -2,-58 3,-122 3,-185 0,-13 -11,-23 -25,-25 -12,-2 -24,3 -29,15 -4,7 -5,15 -5,24 -1,35 -1,71 -1,107 0,29 0,59 0,88 1,26 11,39 36,49 19,6 37,7 57,6 26,-2 54,-4 79,-5 4,6 6,9 9,12 6,11 17,16 30,12 13,-2 21,-11 23,-26 2,-32 -7,-48 -38,-51 -1,0 -3,-1 -5,-2 -4,-54 9,-139 5,-197 -1,-16 -13,-26 -28,-26 -14,0 -26,9 -29,23 -1,5 -1,10 -1,15 -2,61 -2,122 -8,185 -23,1 -46,9 -71,2zm-2164 203c-2,-49 17,-91 57,-120 14,-10 30,-16 47,-22 19,-7 27,-18 25,-34 -4,-17 -16,-25 -37,-23 -8,1 -17,3 -24,6 -61,28 -108,72 -122,140 -6,33 -7,67 -7,100 1,59 6,117 9,175 1,37 27,55 64,42 14,-5 28,-12 40,-20 48,-27 71,-71 71,-126 0,-34 -13,-63 -41,-85 -24,-19 -51,-28 -82,-33zm-2 63c40,-1 67,24 67,59 -2,38 -20,64 -58,81 -7,-48 -7,-95 -9,-140zm217 106c2,-2 5,-2 7,-3 11,0 22,0 33,-1 12,-1 26,-3 39,-5 24,-6 40,-25 43,-50 5,-41 -22,-85 -59,-99 -12,-3 -26,-6 -38,-3 -44,8 -73,36 -82,80 -9,38 -1,74 10,111 6,23 19,40 37,57 13,13 31,20 51,17 49,-4 82,-39 96,-80 4,-13 -3,-24 -14,-31 -11,-5 -24,-1 -31,11 -4,6 -8,12 -11,18 -7,13 -17,22 -31,28 -13,5 -21,4 -32,-6 -10,-13 -17,-27 -18,-44zm-8 -53c0,-24 6,-43 28,-53 20,-9 34,-4 44,14 2,6 5,12 6,20 1,9 -2,14 -11,15 -23,1 -44,3 -67,4zm310 -7c6,-19 14,-34 16,-51 5,-23 -4,-42 -24,-55 -25,-18 -80,-12 -102,12 -8,9 -10,23 -3,33 7,10 21,14 34,9 12,-4 29,-15 37,-12 9,12 -1,24 -11,31 -13,9 -26,16 -40,25 -14,8 -20,21 -15,34 5,12 18,19 32,17 5,-1 10,-3 15,-4 21,-4 36,6 36,27 0,11 -4,24 -7,35 -21,5 -36,4 -47,-14 -9,-12 -26,-12 -38,-5 -14,9 -18,24 -9,37 5,7 10,14 18,20 26,24 59,24 90,15 29,-7 42,-31 47,-57 9,-37 4,-72 -29,-97zm232 -56c0,11 1,20 0,29 -4,46 -8,92 -10,138 -2,10 -2,20 1,29 2,14 15,23 28,23 13,-1 25,-10 27,-24 1,-4 1,-8 1,-11 4,-53 8,-106 11,-159 1,-15 0,-31 -3,-47 -4,-20 -18,-35 -38,-35 -30,-1 -61,-1 -92,3 -22,2 -32,17 -34,39 -1,7 -1,14 -1,21 1,22 1,44 1,66 0,25 -2,49 -11,73 -6,0 -10,-2 -15,-2 -22,2 -34,21 -28,41 8,27 44,41 68,24 9,-8 19,-18 23,-28 9,-21 16,-43 19,-66 4,-28 1,-57 2,-88 0,-7 0,-16 0,-26 18,0 32,0 51,0zm152 98c-1,0 -2,-1 -4,-1 2,-28 3,-56 3,-85 1,-18 2,-37 1,-56 0,-14 -11,-23 -25,-24 -14,-1 -27,6 -30,21 -2,5 -2,12 -3,18 -1,53 -4,104 -5,157 -1,17 0,34 3,52 5,26 30,38 54,24 9,-5 16,-13 22,-22 16,-23 29,-47 43,-71 5,-8 9,-15 13,-23 5,18 5,34 5,49 0,18 0,34 0,50 0,18 9,29 24,31 15,2 30,-8 34,-24 1,-7 1,-13 1,-18 1,-50 1,-101 3,-151 0,-11 0,-23 0,-34 0,-15 -8,-28 -23,-33 -14,-6 -27,0 -37,12 -11,14 -24,29 -34,45 -16,28 -30,55 -45,83zm307 3c-3,-10 -7,-17 -8,-23 -9,-32 -18,-63 -28,-93 -4,-13 -9,-24 -17,-34 -16,-19 -41,-17 -54,4 -3,7 -7,15 -8,23 -4,21 -8,42 -9,63 -5,48 -8,96 -12,144 -2,20 8,34 24,35 17,1 28,-9 31,-29 1,-17 2,-35 5,-53 1,-21 2,-42 3,-64 7,6 9,13 12,19 8,23 17,44 26,67 8,16 18,31 38,33 20,0 30,-16 35,-33 10,-30 19,-62 29,-93 1,-5 4,-12 5,-18 4,4 5,8 5,11 3,42 4,83 5,125 1,18 13,30 29,30 15,-1 27,-14 27,-33 -3,-60 -4,-122 -8,-183 0,-12 -4,-24 -9,-34 -9,-21 -31,-28 -49,-18 -10,6 -19,14 -25,23 -9,15 -16,31 -21,48 -11,26 -17,52 -26,83z"/>
   <path class="fil1" d="M2404 1661c-2,0 -3,-1 -4,-1 1,-28 2,-56 2,-85 2,-18 3,-37 2,-56 0,-14 -12,-23 -26,-24 -13,-1 -26,6 -30,21 -1,5 -1,12 -2,18 -2,53 -4,104 -5,157 -2,17 0,34 2,52 5,26 30,38 54,24 9,-5 17,-13 23,-22 15,-23 29,-47 43,-71 5,-8 9,-15 12,-23 5,18 5,34 5,49 0,18 0,34 0,50 0,18 9,29 24,31 15,2 31,-8 34,-24 2,-7 2,-13 2,-18 1,-50 1,-101 2,-151 0,-11 0,-23 0,-34 0,-15 -7,-28 -23,-33 -13,-6 -26,0 -36,12 -11,14 -24,29 -34,45 -16,28 -30,55 -45,83zm250 -92c0,22 2,42 0,62 0,40 -1,80 -1,121 0,17 13,29 28,29 15,0 26,-10 29,-27 1,-4 1,-9 1,-14 0,-26 0,-54 1,-81 0,-32 1,-65 3,-97 10,-2 20,-2 27,-4 14,-4 23,-15 23,-28 0,-14 -10,-26 -25,-28 -8,-1 -15,-1 -23,-1 -39,3 -77,6 -116,9 -2,1 -3,1 -6,3 -14,3 -21,15 -20,28 0,13 9,24 23,27 7,1 15,0 22,1 12,0 23,0 34,0zm265 35c-12,2 -22,3 -30,3 -12,0 -22,-1 -33,-1 0,-12 0,-20 0,-31 0,-16 0,-32 -1,-49 -2,-13 -12,-24 -24,-25 -13,-1 -26,8 -29,20 -2,7 -2,12 -2,18 0,49 0,97 0,146 0,21 -1,43 0,64 0,14 8,24 19,27 13,3 27,-2 32,-15 4,-5 4,-13 4,-21 1,-25 2,-50 2,-76 22,-2 42,-3 64,-4 0,14 0,25 2,36 0,17 0,33 1,48 1,17 16,29 30,27 15,-2 25,-13 25,-29 -1,-49 -2,-100 -2,-149 -2,-21 -2,-44 -3,-65 -1,-14 -12,-22 -25,-23 -13,0 -24,9 -28,23 0,5 0,11 0,16 0,20 -1,39 -2,60zm98 90c5,19 13,40 28,59 36,47 102,42 129,-11 27,-53 29,-109 16,-165 -9,-34 -32,-57 -66,-66 -10,-2 -21,-2 -31,2 -33,10 -57,32 -70,65 -15,37 -15,74 -6,116zm120 -96c7,38 5,73 -8,107 -1,4 -4,9 -6,13 -9,12 -23,12 -32,2 -3,-4 -6,-6 -7,-11 -18,-35 -23,-72 -8,-110 4,-10 13,-20 22,-26 15,-9 27,-4 35,13 2,5 2,10 4,12zm93 45c1,26 1,46 2,67 2,18 3,35 7,53 2,16 19,27 35,24 15,-4 24,-16 23,-34 -3,-38 -7,-74 -8,-112 -1,-23 1,-47 3,-69 1,-15 7,-20 21,-18 8,1 15,6 21,10 22,11 45,-1 45,-25 0,-15 -7,-29 -22,-34 -12,-5 -26,-8 -40,-9 -45,-5 -79,23 -83,69 -3,27 -3,55 -4,78zm189 51c5,19 13,40 28,59 36,47 102,42 129,-11 27,-53 29,-109 15,-165 -8,-34 -31,-57 -65,-66 -10,-2 -21,-2 -32,2 -32,10 -56,32 -69,65 -15,37 -15,74 -6,116zm120 -96c7,38 5,73 -8,107 -1,4 -4,9 -6,13 -9,12 -23,12 -32,2 -4,-4 -6,-6 -7,-11 -18,-35 -23,-72 -8,-110 4,-10 13,-20 22,-26 15,-9 27,-4 35,13 2,5 2,10 4,12zm-1977 623c8,-2 14,-3 19,-6 63,-20 124,-100 93,-187 -17,-47 -49,-70 -97,-75 -15,-1 -30,-2 -45,-5 -16,-2 -33,-1 -48,8 -50,26 -78,69 -84,125 -8,61 29,116 87,137 5,2 10,3 16,6 0,7 0,15 0,23 0,29 -1,58 -1,85 0,23 15,37 34,33 14,-1 23,-11 24,-28 1,-19 1,-38 1,-56 0,-21 1,-39 1,-60zm3 -207c34,-2 46,8 55,38 12,44 -11,88 -56,106 -2,-48 -2,-96 1,-144zm-59 1c-2,48 -2,96 -2,144 -11,3 -17,-2 -24,-7 -39,-36 -25,-114 26,-137zm273 89c-1,0 -3,-1 -4,-1 1,-28 3,-55 3,-84 1,-19 2,-38 1,-57 0,-14 -11,-23 -25,-24 -14,-1 -27,6 -30,22 -2,5 -2,11 -3,17 -1,53 -4,105 -5,158 -1,16 0,34 2,51 6,27 31,38 55,24 8,-5 16,-13 22,-21 15,-24 29,-48 43,-72 5,-8 9,-15 13,-23 5,18 5,34 5,49 0,18 0,34 0,51 0,17 9,29 24,30 15,2 30,-8 34,-24 1,-6 1,-13 1,-18 1,-50 1,-100 2,-151 0,-11 0,-22 0,-34 0,-15 -7,-27 -22,-32 -14,-7 -27,0 -37,11 -11,14 -24,29 -34,45 -16,28 -30,56 -45,83zm251 -92c0,22 1,42 0,62 0,40 -2,81 -2,121 0,18 13,29 28,29 15,0 26,-10 29,-27 1,-3 1,-8 1,-13 0,-27 0,-55 1,-82 0,-32 2,-64 3,-97 10,-1 20,-1 28,-4 14,-4 22,-15 22,-28 0,-13 -10,-26 -25,-27 -7,-2 -15,-2 -22,-2 -40,3 -77,7 -116,9 -3,1 -4,1 -7,3 -13,4 -21,15 -20,29 0,12 9,24 23,26 7,1 15,0 23,1 11,0 22,0 34,0zm264 36c-11,1 -21,2 -30,2 -11,0 -22,-1 -33,-1 0,-11 0,-20 0,-30 0,-17 0,-33 -1,-49 -1,-14 -11,-24 -24,-26 -13,-1 -25,8 -29,21 -1,6 -1,11 -1,17 0,49 0,97 0,146 0,22 -2,43 0,64 0,14 7,24 19,27 12,4 26,-1 31,-15 4,-5 4,-13 4,-20 1,-26 2,-51 2,-77 22,-1 42,-3 65,-4 0,14 0,25 1,37 0,16 0,32 1,47 1,17 16,29 30,27 15,-1 26,-13 26,-29 -2,-49 -3,-100 -3,-149 -1,-21 -1,-44 -3,-65 -1,-14 -12,-22 -25,-23 -12,0 -24,9 -27,23 0,5 0,11 0,16 0,20 -2,39 -3,61zm151 74c3,-1 5,-1 8,-3 11,0 21,0 33,-1 12,-1 26,-2 39,-5 23,-6 40,-25 42,-50 5,-41 -21,-85 -59,-98 -11,-4 -25,-7 -38,-4 -44,9 -73,36 -81,80 -9,38 -2,75 10,111 6,23 19,40 36,57 14,14 32,20 52,17 49,-3 82,-39 95,-80 4,-13 -2,-24 -13,-30 -12,-5 -24,-2 -32,10 -4,6 -7,12 -10,19 -7,12 -18,21 -31,27 -13,5 -22,4 -32,-6 -10,-13 -17,-26 -19,-44zm-7 -53c0,-24 6,-43 27,-53 21,-9 34,-4 44,14 3,6 6,13 7,20 1,9 -3,14 -12,15 -22,2 -44,3 -66,4zm180 24c4,18 5,35 11,53 13,43 53,69 101,70 41,0 88,-30 102,-68 5,-16 1,-30 -13,-37 -12,-8 -27,-4 -37,8 -6,8 -9,16 -14,22 -14,15 -33,20 -52,15 -19,-4 -30,-18 -34,-35 -5,-22 -5,-43 0,-63 5,-19 15,-34 30,-46 13,-10 25,-8 36,4 5,4 7,10 11,15 10,14 28,19 41,10 14,-8 18,-25 8,-41 -8,-13 -16,-24 -28,-33 -30,-26 -70,-26 -102,-2 -41,32 -59,76 -60,128zm414 21c1,12 1,18 1,23 2,20 3,39 5,59 2,17 13,25 27,25 16,2 28,-8 30,-25 0,-10 -1,-20 -1,-29 0,-29 -1,-58 -1,-87 0,-17 1,-36 0,-54 0,-10 -5,-21 -10,-29 -8,-10 -18,-16 -27,-25 -18,-15 -36,-23 -60,-21 -29,1 -54,11 -76,31 -50,44 -62,102 -50,165 7,45 51,64 89,40 14,-8 25,-18 35,-29 13,-12 23,-26 38,-44zm-104 21c-5,-41 -4,-79 29,-107 8,-8 21,-14 32,-18 13,-5 24,0 33,12 -26,41 -52,85 -94,113zm-2152 473c13,-18 19,-34 15,-54 -6,-33 -36,-58 -75,-63 -16,-3 -33,-4 -49,-4 -23,0 -35,13 -35,34 2,64 1,127 1,191 0,34 14,48 49,51 11,1 24,2 35,2 42,-2 80,-14 105,-46 26,-36 16,-78 -23,-100 -6,-4 -14,-6 -23,-11zm-89 102c1,-19 2,-37 2,-57 29,-6 56,-2 82,12 13,6 15,15 4,25 -7,7 -18,14 -28,17 -17,7 -37,8 -60,3zm0 -115c0,-17 0,-34 1,-53 15,-3 29,-1 42,9 11,9 11,18 0,27 -12,7 -25,14 -38,21 -1,-1 -3,-2 -5,-4zm625 -21c13,-18 25,-32 36,-47 10,-12 19,-24 28,-36 7,-14 5,-28 -6,-38 -11,-7 -24,-9 -36,0 -5,4 -9,9 -12,13 -22,27 -43,55 -65,83 -20,29 -16,53 14,70 17,10 36,18 53,25 12,5 24,0 30,-10 8,-8 10,-21 3,-31 -5,-6 -13,-13 -20,-18 -8,-3 -15,-6 -25,-11zm102 -23c2,-5 3,-7 6,-10 6,-6 14,-14 20,-21 5,-5 10,-10 15,-17 10,-12 10,-29 0,-39 -10,-10 -25,-12 -36,-2 -28,23 -53,48 -70,79 -6,12 -8,27 2,34 25,20 51,41 79,57 14,9 33,-3 38,-19 6,-15 -2,-28 -17,-37 -12,-7 -25,-16 -37,-25zm211 86c0,6 1,12 1,19 0,27 0,55 2,83 1,19 12,29 29,30 15,0 27,-11 29,-29 1,-11 0,-23 0,-34 0,-24 -2,-46 -2,-65 28,-13 52,-23 75,-37 11,-6 22,-16 30,-26 36,-54 35,-110 4,-165 -17,-28 -42,-43 -72,-47 -9,-1 -16,-2 -25,-2 -2,-4 -2,-5 -2,-8 -3,-21 -13,-31 -30,-31 -15,1 -26,12 -29,31 -1,5 -1,10 -2,15 -58,17 -97,52 -117,107 -22,61 6,122 61,144 15,5 31,10 48,15zm66 -210c32,-7 45,1 58,27 7,20 12,41 6,62 -10,33 -30,49 -69,57 1,-49 3,-99 5,-146zm-65 147c-46,-5 -69,-37 -54,-78 9,-28 29,-47 58,-63 1,49 -1,94 -4,141zm289 74c-1,0 -3,-1 -4,-1 1,-28 3,-55 3,-84 1,-19 2,-38 1,-57 0,-14 -11,-23 -25,-24 -14,-1 -27,6 -31,21 -1,5 -1,12 -2,18 -1,53 -4,105 -5,157 -1,17 0,34 2,52 5,27 31,38 55,24 8,-5 16,-13 22,-21 15,-24 29,-48 43,-72 5,-8 9,-15 13,-23 5,18 5,34 5,49 0,18 0,34 0,51 0,17 8,29 24,30 15,2 30,-8 34,-24 1,-6 1,-13 1,-18 1,-50 1,-100 2,-151 0,-11 0,-22 0,-34 0,-15 -7,-27 -22,-33 -14,-6 -27,0 -37,12 -11,14 -24,29 -34,45 -16,28 -30,56 -45,83zm301 -42c6,-19 14,-34 16,-51 5,-23 -4,-41 -24,-55 -25,-18 -80,-12 -102,12 -8,9 -10,23 -3,33 7,10 21,14 34,9 12,-4 29,-15 37,-12 9,12 -1,25 -11,31 -13,9 -26,16 -40,25 -14,8 -20,21 -15,34 5,12 18,20 32,17 5,-1 10,-2 15,-4 21,-3 36,7 36,27 0,11 -4,24 -7,35 -21,5 -36,4 -47,-13 -9,-13 -26,-13 -38,-5 -14,8 -18,23 -9,36 5,8 10,14 18,20 26,24 59,24 90,15 29,-7 42,-31 47,-56 9,-38 4,-73 -29,-98zm155 46c4,10 7,18 10,25 7,24 15,47 23,69 7,19 21,26 37,22 17,-5 24,-19 18,-38 -14,-39 -28,-77 -43,-116 -4,-9 -2,-15 4,-22 11,-14 21,-29 31,-44 5,-7 8,-13 10,-19 6,-14 0,-27 -12,-33 -13,-8 -27,-5 -37,6 -2,3 -3,6 -6,9 -16,23 -34,47 -50,69 -3,3 -7,5 -13,12 0,-14 0,-24 0,-34 0,-16 1,-31 -1,-44 -1,-16 -14,-24 -28,-24 -14,0 -26,10 -29,24 -1,5 0,11 0,16 -1,48 -1,94 -1,141 0,23 0,46 2,69 3,18 17,28 33,25 15,-1 25,-12 25,-30 0,-11 -1,-23 -2,-34 -3,-23 10,-35 29,-49zm214 110c-13,29 -25,61 -48,88 -9,11 -18,21 -25,32 -9,16 -5,32 7,41 13,10 29,7 41,-7 25,-31 49,-63 65,-100 34,-75 58,-153 82,-231 3,-7 4,-15 3,-22 0,-13 -9,-23 -19,-26 -12,-3 -22,-1 -29,8 -5,5 -8,11 -10,18 -13,40 -24,80 -37,119 -1,7 -5,12 -7,18 -22,-17 -34,-37 -42,-59 -9,-25 -13,-51 -11,-77 1,-15 -8,-27 -22,-29 -12,-3 -26,4 -32,16 -3,5 -4,12 -4,18 0,49 7,97 38,137 13,19 32,35 50,56zm321 -212c0,11 1,20 0,29 -4,47 -7,92 -10,138 -1,11 -1,21 1,29 3,14 15,23 28,23 14,-1 25,-10 28,-24 1,-4 1,-7 1,-11 4,-53 8,-106 10,-159 1,-15 0,-31 -2,-46 -4,-21 -18,-36 -38,-36 -30,-1 -62,-1 -92,3 -23,2 -33,18 -34,39 -1,7 -1,14 -1,21 1,22 1,44 1,66 0,25 -3,49 -11,73 -7,0 -11,-1 -16,-1 -21,1 -34,20 -27,40 7,28 44,41 68,24 9,-8 19,-18 22,-28 9,-21 17,-43 19,-65 4,-29 2,-58 3,-89 0,-7 0,-16 0,-26 17,0 31,0 50,0zm150 24c0,-23 0,-42 0,-62 -1,-16 -11,-26 -26,-27 -16,-2 -29,8 -32,23 -1,12 -1,22 -1,32 0,39 -1,77 0,115 0,21 0,44 1,65 4,34 37,50 68,43 10,-3 19,-6 29,-10 49,-17 81,-67 61,-125 -11,-31 -36,-49 -71,-53 -9,-1 -18,-1 -29,-1zm-1 132c0,-26 0,-50 0,-78 10,1 17,0 24,1 15,2 20,7 22,20 8,29 -7,48 -46,57zm218 -150c0,22 1,42 0,62 0,40 -2,81 -2,121 0,18 13,29 28,29 15,0 27,-10 29,-27 1,-3 1,-8 1,-13 0,-27 0,-55 2,-82 0,-32 1,-64 2,-97 10,-1 20,-1 28,-4 14,-4 22,-15 22,-28 0,-14 -10,-26 -25,-27 -7,-2 -15,-2 -22,-2 -39,3 -77,7 -116,9 -3,1 -4,1 -6,3 -14,3 -22,15 -21,29 0,12 9,24 23,26 8,1 15,0 23,1 11,0 22,0 34,0zm202 110c3,-1 6,-1 8,-3 11,0 21,0 33,-1 12,-1 26,-2 39,-5 24,-6 40,-25 43,-50 5,-41 -22,-85 -60,-99 -11,-3 -25,-6 -37,-3 -44,9 -73,36 -82,80 -9,38 -1,75 10,111 6,23 19,40 36,57 14,14 32,20 52,17 49,-3 82,-39 96,-80 4,-13 -3,-24 -14,-30 -11,-5 -24,-2 -32,10 -3,6 -7,12 -10,19 -7,12 -17,21 -31,27 -13,5 -22,4 -32,-6 -10,-13 -17,-27 -19,-44zm-7 -53c0,-24 6,-43 28,-53 20,-9 34,-4 44,14 2,6 5,13 6,20 1,9 -3,14 -11,15 -23,1 -44,3 -67,4zm336 -47c-15,21 -29,38 -43,57 -13,18 -7,42 13,47 11,3 21,0 29,-8 25,-24 44,-52 58,-83 7,-15 5,-31 -6,-43 -24,-25 -50,-50 -76,-73 -15,-12 -36,-4 -43,15 -2,5 -2,12 -4,20 -11,-10 -20,-18 -29,-26 -11,-13 -26,-14 -39,-5 -12,10 -15,28 -6,41 4,7 11,12 18,18 12,11 26,23 40,35 -6,7 -10,12 -14,17 -14,16 -29,32 -43,49 -12,17 -10,35 4,45 14,10 33,4 43,-10 16,-20 34,-39 52,-58 16,-16 29,-31 22,-60 10,9 17,15 24,22z"/>
  </g>
  <path class="fil2" d="M2878 3171c-34,-46 -162,-58 -285,-71 -122,-13 -321,0 -396,0 -74,0 -68,52 -318,23 -249,-29 -286,-25 -277,12 9,36 -21,140 -2,172 20,33 189,72 288,72 99,0 366,-21 467,-26 102,-5 228,-46 294,-28 65,18 166,26 182,21 17,-5 47,-175 47,-175z"/>
  <path class="fil1" d="M1826 3203c0,3 1,5 1,8 -1,13 -1,26 -2,39 0,6 0,13 0,19 0,6 4,10 9,10 6,0 10,-3 10,-9 0,-1 0,-2 0,-3 1,-19 2,-38 2,-56 0,-5 0,-10 -1,-15 -2,-8 -7,-13 -16,-13 -7,0 -14,0 -21,1 -4,0 -9,1 -13,2 -7,3 -11,8 -12,15 0,4 -1,8 -1,12 0,13 0,25 -1,38 0,6 0,13 0,20 0,5 3,9 8,10 5,1 9,-2 10,-8 1,-2 1,-4 1,-6 1,-13 1,-27 1,-40 1,-7 1,-15 2,-23 8,-2 15,-1 23,-1zm81 79c4,0 7,1 11,0 12,0 29,-8 34,-26 1,-8 3,-17 3,-26 0,-11 -4,-22 -13,-30 -11,-11 -25,-15 -41,-12 -8,0 -11,4 -13,12 -1,2 -1,4 -1,5 -4,41 -1,82 0,122 1,2 1,5 2,7 3,6 12,7 16,3 2,-3 3,-6 3,-9 0,-7 -1,-14 -1,-21 0,-8 0,-15 0,-25zm-1 -20c0,-19 1,-36 1,-53 12,-2 22,4 25,13 4,11 2,21 -2,31 -2,5 -6,7 -11,8 -4,1 -8,1 -13,1zm89 -11c2,7 5,15 10,21 13,17 36,15 46,-4 10,-18 10,-38 5,-58 -3,-12 -11,-20 -23,-23 -3,-1 -7,-1 -11,0 -11,4 -20,12 -24,23 -6,13 -6,27 -3,41zm43 -34c2,14 2,26 -3,38 0,2 -1,3 -2,5 -3,4 -8,4 -11,1 -2,-2 -3,-3 -3,-4 -6,-13 -8,-26 -3,-39 2,-4 5,-7 8,-9 5,-4 10,-2 12,4 1,2 1,4 2,4zm108 24c-1,-4 -2,-6 -3,-8 -3,-12 -6,-23 -10,-33 -1,-5 -3,-9 -6,-12 -5,-7 -14,-6 -19,1 -1,3 -2,5 -3,8 -1,7 -3,15 -3,23 -2,17 -3,34 -4,51 -1,7 3,12 8,12 6,0 10,-3 11,-10 1,-6 1,-13 2,-19 0,-8 1,-15 1,-23 3,2 3,5 4,7 3,8 7,16 10,24 2,5 6,11 13,11 7,0 11,-5 13,-11 3,-11 6,-22 10,-33 0,-2 1,-4 2,-7 1,2 1,3 1,4 1,15 2,30 2,45 1,6 5,10 10,10 6,0 10,-5 10,-11 -1,-22 -1,-44 -3,-66 0,-4 -1,-8 -3,-12 -3,-7 -11,-9 -17,-6 -4,2 -7,5 -9,8 -3,6 -6,11 -8,17 -3,10 -6,19 -9,30zm90 10c2,7 5,15 10,21 13,17 36,15 46,-4 10,-18 10,-38 6,-58 -4,-12 -12,-20 -24,-23 -3,-1 -7,-1 -11,0 -11,4 -20,12 -24,23 -6,13 -6,27 -3,41zm43 -34c2,14 2,26 -3,38 0,2 -1,3 -2,5 -3,4 -8,4 -11,1 -2,-2 -3,-3 -3,-4 -6,-13 -8,-26 -3,-39 2,-4 5,-7 8,-9 5,-4 10,-2 12,4 1,2 1,4 2,4zm90 24c1,4 3,6 4,9 2,8 5,17 8,25 2,6 7,8 13,7 6,-2 8,-7 6,-13 -5,-14 -10,-27 -15,-41 -1,-3 -1,-6 1,-8 4,-5 8,-11 11,-16 2,-2 3,-4 4,-7 2,-5 0,-9 -4,-11 -5,-3 -10,-2 -13,2 -1,1 -2,2 -3,3 -5,8 -12,17 -17,25 -1,1 -3,1 -5,4 0,-5 0,-9 0,-12 0,-6 1,-11 0,-16 -1,-5 -5,-8 -10,-8 -5,0 -10,3 -10,8 -1,2 0,4 0,6 -1,17 -1,33 -1,50 0,8 0,16 1,24 1,7 6,10 12,9 5,0 9,-4 9,-10 0,-4 -1,-8 -1,-13 -1,-8 3,-12 10,-17zm74 10c2,7 4,15 10,21 13,17 36,15 46,-4 9,-18 10,-38 5,-58 -3,-12 -11,-20 -23,-23 -4,-1 -8,-1 -11,0 -12,4 -20,12 -25,23 -5,13 -5,27 -2,41zm42 -34c3,14 2,26 -2,38 -1,2 -2,3 -2,5 -4,4 -9,4 -12,1 -1,-2 -2,-3 -2,-4 -7,-13 -8,-26 -3,-39 1,-4 4,-7 8,-9 5,-4 9,-2 12,4 1,2 1,4 1,4zm135 44c0,-2 0,-3 0,-4 0,-12 0,-24 0,-36 0,-7 0,-13 -1,-19 -4,-18 -23,-24 -38,-14 -9,7 -14,16 -15,27 -1,5 -1,10 -2,14 0,12 -1,23 -1,35 -3,1 -5,1 -7,2 -9,3 -12,6 -11,16 0,6 3,9 7,10 5,0 8,-1 11,-7 1,-2 2,-3 4,-3 1,-1 3,-1 5,-1 13,0 25,-1 38,-1 1,0 3,2 4,3 3,3 7,4 10,2 4,-2 6,-5 6,-9 1,-8 -1,-12 -10,-15zm-19 1c-6,0 -13,0 -20,1 0,-4 0,-6 0,-8 1,-13 2,-26 3,-38 0,-7 4,-12 9,-15 4,-2 7,-1 8,4 1,3 1,7 1,10 0,14 0,29 0,43 0,1 -1,2 -1,3zm80 14c6,0 10,-5 11,-10 0,-7 -5,-12 -11,-12 -6,0 -11,5 -11,11 0,6 6,11 11,11zm2 -52c5,1 10,-4 10,-10 0,-5 -4,-9 -10,-9 -5,-1 -10,3 -10,9 -1,6 4,10 10,10z"/>
  <path class="fil1" d="M911 3599c5,-9 11,-17 14,-27 11,-29 6,-60 -14,-77 -19,-16 -41,-22 -65,-16 -7,1 -12,3 -18,4 -15,3 -22,11 -22,26 -2,51 -4,102 -5,153 0,35 2,71 3,106 0,18 17,33 33,32 15,0 32,-1 48,-3 38,-6 68,-24 79,-64 4,-13 5,-28 5,-42 -1,-24 -4,-48 -23,-66 -10,-10 -23,-17 -35,-26zm-67 157c0,-30 0,-58 -1,-84 0,-9 4,-14 11,-18 14,-6 29,-9 44,-9 9,0 16,4 20,14 11,23 13,47 3,71 -7,13 -19,21 -33,23 -14,2 -27,2 -44,3zm1 -154c1,-13 2,-22 2,-31 1,-13 2,-26 2,-39 1,-10 3,-13 14,-13 17,0 26,12 24,28 -1,12 -6,21 -13,30 -8,9 -16,16 -29,25zm197 116c-1,0 -2,-1 -3,-1 1,-21 2,-41 2,-62 1,-14 2,-28 1,-42 0,-10 -8,-16 -19,-17 -10,-1 -19,5 -22,16 -1,3 -1,8 -2,13 0,38 -2,76 -3,115 -1,12 0,25 2,38 3,19 22,27 39,17 7,-4 12,-9 17,-16 11,-17 21,-35 31,-52 4,-6 7,-11 9,-17 4,13 4,25 4,36 0,13 0,25 0,37 0,13 7,21 18,22 11,2 22,-5 25,-17 0,-5 0,-9 0,-13 1,-37 1,-74 2,-111 0,-8 0,-16 0,-25 0,-11 -5,-20 -16,-24 -10,-4 -20,0 -27,9 -8,10 -18,21 -25,33 -12,20 -22,40 -33,61zm241 -72c0,8 1,15 0,21 -3,34 -5,67 -7,101 -1,8 -1,15 1,22 1,10 11,16 20,16 10,-1 18,-7 20,-17 1,-3 1,-6 1,-9 3,-38 6,-77 8,-116 0,-11 0,-23 -2,-34 -3,-15 -13,-26 -28,-26 -22,-1 -45,-1 -67,2 -17,2 -24,13 -25,29 -1,5 -1,10 -1,15 1,16 1,33 1,48 0,19 -2,36 -8,54 -5,0 -8,-1 -12,-1 -15,1 -24,15 -20,29 6,21 32,31 50,18 6,-6 14,-13 17,-20 6,-16 12,-32 13,-48 3,-22 1,-43 2,-65 0,-5 0,-12 0,-19 13,0 23,0 37,0zm181 0c0,8 1,15 0,21 -2,34 -5,67 -7,101 -1,8 -1,15 1,22 2,10 11,16 20,16 10,-1 19,-7 20,-17 1,-3 1,-6 1,-9 3,-38 6,-77 8,-116 1,-11 0,-23 -2,-34 -3,-15 -13,-26 -28,-26 -22,-1 -45,-1 -67,2 -17,2 -24,13 -25,29 -1,5 -1,10 -1,15 1,16 1,33 1,48 0,19 -2,36 -8,54 -5,0 -8,-1 -11,-1 -16,1 -25,15 -21,29 6,21 33,31 50,18 7,-6 14,-13 17,-20 6,-16 12,-32 14,-48 2,-22 1,-43 1,-65 0,-5 0,-12 0,-19 13,0 24,0 37,0zm185 79c1,8 1,13 1,17 1,14 2,28 4,43 1,12 9,18 19,18 12,1 21,-6 22,-18 0,-7 -1,-15 -1,-21 0,-21 0,-43 0,-64 0,-13 0,-27 0,-39 0,-8 -4,-16 -8,-22 -5,-7 -13,-12 -19,-18 -13,-11 -27,-17 -44,-16 -22,1 -40,8 -56,23 -37,33 -45,75 -37,121 6,33 38,47 66,30 10,-7 18,-14 26,-22 9,-9 16,-19 27,-32zm-76 15c-4,-30 -3,-57 21,-79 6,-5 16,-10 24,-12 9,-4 17,0 24,9 -19,29 -38,62 -69,82zm300 21c-1,-3 -1,-6 -1,-7 1,-26 1,-51 1,-76 0,-13 0,-26 -3,-39 -8,-37 -48,-49 -78,-27 -19,13 -29,32 -32,55 0,10 -1,20 -2,29 -1,24 -3,47 -4,71 -5,2 -9,2 -13,4 -20,7 -26,13 -24,33 1,12 7,19 16,21 9,1 15,-2 21,-13 2,-5 5,-8 9,-8 3,-1 7,-1 10,-1 26,-1 52,-1 78,-1 3,0 7,2 9,4 6,7 14,8 21,5 8,-3 12,-9 13,-18 2,-16 -3,-25 -21,-32zm-39 2c-14,1 -27,1 -41,2 -1,-7 -1,-11 -1,-16 2,-27 3,-53 5,-79 1,-13 9,-23 20,-30 8,-4 14,-2 17,8 2,6 2,13 2,20 0,29 -1,60 -1,89 0,2 -1,4 -1,6zm151 -56c11,2 14,9 13,19 -2,19 -3,40 -3,59 -1,12 7,19 17,21 9,1 18,-5 21,-15 1,-6 1,-11 2,-16 0,-12 1,-24 2,-37 0,-3 1,-7 2,-9 6,-6 13,-11 21,-17 2,5 3,8 4,11 8,20 16,41 23,62 4,9 12,16 21,14 10,-1 16,-8 17,-19 0,-4 -1,-10 -3,-13 -8,-23 -15,-46 -25,-68 -8,-15 -10,-29 3,-43 7,-7 11,-17 15,-25 6,-13 -1,-26 -13,-28 -10,-1 -16,3 -22,11 -9,14 -18,29 -27,43 -3,4 -5,10 -13,14 0,-6 0,-10 0,-14 1,-11 2,-23 3,-35 0,-13 -7,-22 -18,-22 -11,-1 -20,7 -22,20 0,11 0,22 -1,33 -1,3 -2,7 -3,12 -12,-14 -22,-26 -32,-38 -7,-6 -11,-14 -18,-20 -7,-8 -17,-9 -26,-4 -7,7 -10,18 -5,27 2,4 5,7 8,10 10,12 19,24 30,37 -18,30 -28,61 -36,94 -3,13 1,23 12,26 11,4 20,-2 24,-14 3,-7 5,-15 7,-22 5,-19 12,-38 22,-54zm255 -43c0,-1 0,-1 0,-1 27,0 53,0 79,0 10,0 17,-6 21,-14 2,-11 1,-21 -9,-25 -5,-4 -13,-6 -20,-6 -17,0 -35,2 -53,2 -29,0 -59,-1 -87,-2 -12,0 -20,6 -24,16 -3,9 2,21 12,26 8,2 17,3 25,4 18,0 38,0 56,0zm241 139c6,-1 10,-2 14,-4 46,-15 90,-73 68,-138 -13,-34 -36,-50 -71,-54 -11,-1 -22,-2 -33,-4 -12,-1 -24,-1 -35,6 -37,19 -57,51 -62,91 -5,45 21,86 64,101 4,1 7,2 12,4 0,6 0,11 0,17 0,21 -1,42 -1,63 0,16 11,26 25,24 10,-1 16,-9 17,-21 1,-14 1,-27 1,-41 0,-15 1,-29 1,-44zm2 -152c25,-1 34,7 41,28 8,33 -9,65 -42,78 -1,-35 -1,-71 1,-106zm-43 1c-1,35 -1,71 -1,106 -8,2 -13,-2 -18,-6 -28,-26 -18,-83 19,-100zm198 66c-1,0 -2,-1 -3,-1 1,-21 2,-41 2,-62 1,-14 2,-28 1,-42 0,-10 -9,-16 -19,-17 -10,-1 -19,5 -22,16 -1,3 -1,8 -2,13 -1,38 -3,76 -4,115 0,12 0,25 2,38 4,19 22,27 40,17 6,-4 12,-9 17,-16 11,-17 21,-35 31,-52 4,-6 6,-11 9,-17 4,13 4,25 4,36 0,13 0,25 0,37 0,13 6,21 17,22 11,2 22,-5 25,-17 1,-5 1,-9 1,-13 1,-37 1,-74 2,-111 0,-8 0,-16 0,-25 0,-11 -6,-20 -17,-24 -10,-4 -19,0 -26,9 -9,10 -18,21 -25,33 -12,20 -22,40 -33,61zm218 -31c4,-14 10,-25 12,-38 3,-16 -3,-30 -18,-40 -18,-13 -59,-8 -74,9 -7,7 -8,17 -3,24 5,7 15,10 25,7 9,-3 21,-12 27,-9 7,9 -1,18 -8,23 -9,6 -19,12 -30,18 -10,6 -14,15 -11,25 4,9 14,14 24,12 4,-1 8,-2 11,-2 15,-3 26,4 26,19 0,8 -2,18 -4,26 -16,4 -27,3 -35,-10 -7,-9 -19,-9 -28,-4 -10,7 -13,18 -6,27 3,5 7,10 12,15 20,17 44,17 67,11 21,-6 30,-23 34,-42 6,-28 3,-53 -21,-71zm111 33c3,8 5,13 7,19 6,17 11,34 17,51 5,13 16,18 28,15 12,-3 17,-14 12,-27 -10,-29 -20,-57 -31,-85 -3,-7 -2,-11 3,-17 8,-10 16,-21 23,-32 4,-5 5,-9 7,-14 4,-10 0,-19 -9,-24 -9,-5 -19,-4 -27,5 -2,2 -2,4 -4,6 -12,17 -25,34 -37,51 -2,2 -5,4 -9,8 0,-10 0,-17 0,-25 0,-11 1,-22 -1,-32 -1,-11 -10,-17 -21,-17 -10,0 -19,7 -21,17 -1,4 0,8 0,12 -1,35 -1,69 -1,103 0,17 0,34 2,51 2,13 12,20 24,18 11,-1 19,-9 19,-22 0,-8 -1,-16 -2,-25 -2,-16 7,-25 21,-36zm154 81c-9,21 -18,45 -35,64 -6,8 -13,16 -18,24 -7,11 -4,23 5,30 10,7 22,5 30,-5 18,-23 36,-46 48,-74 25,-54 42,-111 60,-168 2,-6 3,-11 2,-17 0,-9 -7,-17 -14,-18 -8,-3 -16,-1 -21,5 -4,4 -6,8 -8,13 -9,29 -17,59 -26,88 -1,4 -4,8 -6,12 -16,-12 -25,-26 -30,-43 -7,-18 -10,-37 -9,-56 1,-11 -5,-19 -15,-21 -10,-2 -20,2 -24,12 -2,3 -3,8 -3,13 0,36 5,71 28,100 10,14 24,26 36,41zm233 -155c0,8 1,15 0,21 -2,34 -5,67 -7,101 -1,8 -1,15 1,22 2,10 11,16 20,16 10,-1 19,-7 20,-17 1,-3 1,-6 1,-9 3,-38 6,-77 8,-116 1,-11 0,-23 -2,-34 -3,-15 -13,-26 -28,-26 -22,-1 -45,-1 -67,2 -17,2 -24,13 -25,29 -1,5 -1,10 -1,15 1,16 1,33 1,48 0,19 -2,36 -8,54 -5,0 -8,-1 -11,-1 -16,1 -25,15 -21,29 6,21 33,31 50,18 7,-6 14,-13 17,-20 6,-16 12,-32 14,-48 2,-22 0,-43 1,-65 0,-5 0,-12 0,-19 13,0 23,0 37,0zm108 17c0,-16 0,-30 0,-45 -1,-12 -9,-19 -20,-20 -11,-1 -21,6 -23,17 -1,9 -1,16 -1,23 0,29 0,57 0,84 0,16 0,33 1,48 3,25 27,37 50,32 8,-2 14,-5 21,-8 36,-12 59,-49 45,-91 -8,-23 -26,-36 -52,-39 -6,-1 -13,-1 -21,-1zm-1 97c0,-19 0,-37 0,-57 7,1 13,0 17,1 11,1 15,4 17,15 6,21 -6,35 -34,41zm157 -110c0,16 1,31 0,46 0,29 -1,59 -1,88 0,13 9,21 21,21 11,0 19,-7 21,-19 1,-3 1,-7 1,-10 0,-20 0,-40 1,-60 0,-23 0,-47 1,-71 8,-1 15,-1 21,-3 10,-3 16,-11 16,-20 0,-10 -7,-20 -18,-20 -6,-1 -11,-1 -17,-1 -28,1 -56,4 -85,6 -1,1 -2,1 -4,2 -10,3 -16,11 -15,21 0,9 7,18 17,19 5,1 11,0 16,1 9,0 17,0 25,0z"/>
 </g>
</svg>
