<?xml version="1.0" encoding="UTF-8"?>
<!DOCTYPE svg PUBLIC "-//W3C//DTD SVG 1.1//EN" "http://www.w3.org/Graphics/SVG/1.1/DTD/svg11.dtd">
<!-- Creator: CorelDRAW X6 -->
<svg xmlns="http://www.w3.org/2000/svg" xml:space="preserve" width="45mm" height="45mm" version="1.1" style="shape-rendering:geometricPrecision; text-rendering:geometricPrecision; image-rendering:optimizeQuality; fill-rule:evenodd; clip-rule:evenodd"
viewBox="0 0 4500 4500"
 xmlns:xlink="http://www.w3.org/1999/xlink">
 <defs>
  <style type="text/css">
   <![CDATA[
    .str0 {stroke:black;stroke-width:75}
    .fil2 {fill:black}
    .fil0 {fill:#E94F42}
    .fil1 {fill:#FEFEFE;fill-rule:nonzero}
   ]]>
  </style>
 </defs>
 <g id="Слой_x0020_1">
  <metadata id="CorelCorpID_0Corel-Layer"/>
  <g id="_525285160">
   <path class="fil0 str0" d="M214 3507c-2,-257 -116,-2889 -10,-3025 131,-168 96,-284 709,-291 614,-6 1937,-20 2186,-23 248,-2 822,-45 988,168 165,213 204,569 210,1178 3,215 162,2206 -143,2593 -309,392 -674,161 -1536,170 -863,9 -1550,17 -1765,19 -599,6 -633,-242 -639,-789z"/>
   <g>
    <g>
     <path class="fil1" d="M858 861c-18,-30 -43,-50 -76,-55 -26,-3 -51,-5 -78,-7 0,-40 0,-92 0,-135 39,0 58,0 78,0 10,1 21,1 31,1 35,-1 58,-13 58,-28 -2,-16 -26,-30 -60,-31 -101,-4 -112,-4 -123,-4 -29,0 -45,18 -44,47 2,28 2,66 2,94 0,72 0,145 0,218 0,7 -2,16 -3,22 -6,26 4,43 29,47 37,5 73,2 107,-11 30,-11 53,-29 72,-54 22,-33 26,-75 7,-104zm-58 73c-25,29 -57,38 -97,38 0,-37 0,-71 0,-106 32,-9 60,-8 87,7 26,14 30,38 10,61zm139 18c5,19 12,40 27,58 36,46 100,41 127,-11 26,-52 29,-106 15,-162 -8,-33 -31,-55 -64,-64 -10,-3 -21,-3 -31,1 -32,10 -56,32 -68,64 -15,36 -15,73 -6,114zm117 -94c8,37 5,72 -7,105 -1,4 -4,9 -6,13 -9,12 -23,12 -31,2 -4,-4 -6,-6 -8,-11 -17,-35 -22,-70 -7,-108 4,-9 12,-19 21,-25 15,-9 27,-4 35,12 2,5 2,10 3,12zm200 66c3,10 7,17 9,24 8,24 15,46 23,68 7,19 21,25 37,21 16,-5 23,-18 17,-37 -14,-38 -27,-75 -42,-113 -4,-9 -2,-15 4,-23 11,-13 21,-28 31,-43 5,-6 7,-12 10,-18 4,-14 0,-26 -13,-33 -12,-7 -26,-4 -36,7 -2,2 -3,6 -6,8 -16,23 -33,46 -49,68 -3,3 -6,5 -13,11 0,-13 0,-23 0,-33 0,-15 2,-30 -1,-43 -1,-15 -13,-24 -27,-24 -14,0 -26,10 -28,24 -2,5 0,11 0,16 -2,47 -2,93 -2,138 0,23 0,46 3,68 2,18 16,27 32,25 15,-1 25,-12 25,-30 0,-11 -2,-22 -3,-33 -2,-22 10,-35 29,-48zm310 6c1,11 1,17 1,22 2,20 3,38 5,58 1,16 13,25 26,25 16,1 27,-9 30,-25 0,-10 -1,-20 -1,-28 0,-29 -2,-57 -2,-85 0,-18 2,-36 0,-54 0,-9 -5,-21 -9,-28 -8,-10 -18,-16 -26,-25 -18,-15 -36,-22 -60,-21 -28,1 -53,11 -74,31 -49,43 -60,100 -49,162 7,45 50,63 87,40 14,-9 25,-19 35,-29 12,-12 22,-26 37,-43zm-102 20c-5,-40 -4,-77 28,-105 9,-8 21,-14 32,-18 12,-5 24,0 32,13 -26,39 -50,82 -92,110zm380 -126c0,11 2,19 0,28 -3,46 -7,90 -9,136 -2,10 -2,20 1,28 2,14 15,23 27,23 14,-2 25,-10 27,-24 1,-4 1,-7 1,-11 4,-52 8,-104 10,-156 2,-14 0,-31 -2,-45 -4,-20 -17,-35 -37,-35 -30,-1 -61,-1 -90,2 -23,3 -33,18 -34,39 -1,7 -1,13 -1,21 1,21 1,43 1,64 0,25 -2,48 -11,72 -6,0 -10,-1 -15,-1 -21,1 -33,19 -27,39 7,27 43,41 67,24 8,-8 18,-18 22,-28 9,-21 16,-42 19,-64 3,-28 1,-57 2,-86 0,-8 0,-16 0,-26 17,0 31,0 49,0zm542 100c4,10 7,17 10,24 7,24 15,46 22,68 7,19 21,25 37,21 16,-5 24,-18 17,-37 -13,-38 -27,-75 -42,-113 -3,-9 -2,-15 4,-23 11,-13 21,-28 31,-43 5,-6 7,-12 10,-18 5,-14 0,-26 -13,-33 -12,-7 -26,-4 -35,7 -3,2 -4,6 -7,8 -16,23 -33,46 -49,68 -2,3 -6,5 -12,11 0,-13 0,-23 0,-33 0,-15 1,-30 -2,-43 -1,-15 -13,-24 -27,-24 -13,0 -26,10 -28,24 -1,5 0,11 0,16 -1,47 -1,93 -1,138 0,23 0,46 2,68 2,18 16,27 32,25 15,-1 25,-12 25,-30 0,-11 -1,-22 -3,-33 -2,-22 10,-35 29,-48zm209 113c10,0 19,2 28,0 35,-1 82,-22 94,-72 5,-23 10,-47 9,-71 0,-32 -10,-62 -35,-84 -32,-30 -70,-41 -113,-35 -24,3 -32,12 -37,35 -2,5 -2,10 -2,15 -11,112 -3,225 0,337 2,6 3,14 5,20 9,16 32,20 44,6 6,-6 8,-16 8,-23 1,-20 -1,-40 -1,-58 -1,-23 0,-44 0,-70zm-5 -55c1,-52 4,-100 5,-147 32,-6 61,10 69,37 10,28 5,57 -6,85 -5,14 -17,20 -31,22 -10,2 -21,2 -37,3zm354 -52c1,11 1,17 1,22 1,20 3,38 5,58 1,16 12,25 26,25 16,1 27,-9 30,-25 0,-10 -2,-20 -2,-28 0,-29 -1,-57 -1,-85 0,-18 1,-36 0,-54 0,-9 -5,-21 -10,-28 -7,-10 -17,-16 -26,-25 -17,-15 -36,-22 -59,-21 -28,1 -53,11 -74,31 -50,43 -61,100 -50,162 8,45 51,63 88,40 14,-9 25,-19 35,-29 12,-12 22,-26 37,-43zm-103 20c-5,-40 -3,-77 29,-105 8,-8 21,-14 32,-18 12,-5 23,0 32,13 -26,39 -51,82 -93,110zm381 85c8,-3 14,-4 19,-6 62,-20 121,-98 91,-184 -17,-46 -48,-68 -95,-73 -15,-2 -30,-3 -44,-5 -17,-3 -33,-1 -47,7 -50,26 -77,68 -83,123 -8,60 28,114 85,134 5,3 10,4 16,6 0,8 0,15 0,23 0,28 -1,57 -1,84 0,22 15,36 33,32 14,-1 22,-11 24,-27 1,-19 1,-37 1,-56 0,-20 1,-38 1,-58zm3 -204c33,-1 45,9 54,37 11,44 -11,87 -56,105 -1,-48 -1,-95 2,-142zm-58 1c-2,47 -2,95 -2,142 -11,2 -17,-2 -23,-7 -38,-35 -25,-112 25,-135zm308 -2c0,21 1,41 0,60 0,40 -2,79 -2,119 0,17 13,28 28,28 14,0 26,-9 28,-26 1,-3 1,-8 1,-13 0,-26 0,-53 1,-80 0,-31 2,-63 3,-96 10,-1 20,-1 27,-3 14,-4 22,-15 22,-27 0,-14 -10,-26 -24,-28 -8,-1 -15,-1 -23,-1 -38,3 -75,6 -113,9 -3,1 -4,1 -6,2 -14,4 -21,15 -20,29 0,12 8,23 22,26 7,1 15,0 22,1 11,0 22,0 34,0zm326 100c1,11 1,17 1,22 2,20 3,38 5,58 2,16 13,25 26,25 16,1 28,-9 30,-25 0,-10 -1,-20 -1,-28 0,-29 -1,-57 -1,-85 0,-18 1,-36 0,-54 0,-9 -5,-21 -10,-28 -8,-10 -18,-16 -26,-25 -18,-15 -36,-22 -60,-21 -28,1 -53,11 -74,31 -49,43 -60,100 -49,162 7,45 50,63 88,40 13,-9 24,-19 34,-29 12,-12 22,-26 37,-43zm-102 20c-5,-40 -4,-77 28,-105 9,-8 21,-14 32,-18 13,-5 24,0 32,13 -26,39 -50,82 -92,110zm-2613 516c4,10 8,18 10,25 7,24 15,46 22,68 8,19 21,25 37,21 16,-5 24,-18 18,-37 -14,-38 -28,-75 -42,-114 -4,-8 -3,-15 3,-22 11,-14 21,-28 31,-43 5,-6 8,-13 10,-19 5,-13 0,-26 -12,-32 -13,-7 -26,-5 -36,6 -3,3 -4,7 -6,9 -16,22 -34,46 -50,68 -2,2 -6,5 -12,11 0,-14 0,-23 0,-33 0,-15 1,-30 -1,-44 -2,-14 -14,-23 -28,-23 -13,0 -25,10 -28,23 -1,5 0,12 0,17 -1,46 -1,92 -1,138 0,22 0,46 2,68 3,17 16,27 32,25 15,-2 25,-13 25,-30 0,-11 -1,-22 -2,-33 -3,-23 10,-35 28,-49zm577 0c4,10 8,18 10,25 8,24 15,46 22,68 8,19 21,25 38,21 16,-5 23,-18 17,-37 -14,-38 -27,-75 -42,-114 -4,-8 -3,-15 3,-22 12,-14 22,-28 31,-43 5,-6 8,-13 10,-19 5,-13 0,-26 -12,-32 -12,-7 -26,-5 -36,6 -2,3 -4,7 -6,9 -16,22 -33,46 -50,68 -2,2 -6,5 -12,11 0,-14 0,-23 0,-33 0,-15 1,-30 -1,-44 -1,-14 -14,-23 -27,-23 -14,0 -26,10 -29,23 -1,5 0,12 0,17 -1,46 -1,92 -1,138 0,22 0,46 3,68 2,17 16,27 32,25 14,-2 24,-13 24,-30 0,-11 -1,-22 -2,-33 -3,-23 10,-35 28,-49zm311 7c1,11 1,17 1,22 1,20 3,38 5,58 1,16 12,25 26,25 16,1 27,-9 30,-25 0,-10 -2,-20 -2,-29 0,-28 -1,-56 -1,-85 0,-17 1,-36 0,-53 0,-10 -5,-21 -10,-28 -7,-10 -17,-16 -26,-25 -17,-15 -36,-22 -59,-21 -28,1 -53,11 -74,31 -50,43 -61,100 -50,162 8,44 51,63 88,39 14,-8 25,-18 35,-28 12,-13 22,-26 37,-43zm-103 19c-5,-39 -3,-76 29,-105 8,-7 21,-13 32,-17 12,-5 23,0 32,12 -26,40 -51,83 -93,110zm317 -44c15,4 18,12 17,26 -2,26 -3,53 -3,79 -2,16 8,26 22,28 12,2 24,-7 28,-21 1,-7 1,-13 3,-21 0,-16 1,-32 2,-49 0,-4 1,-10 4,-12 7,-8 17,-15 27,-23 2,6 5,10 6,15 10,27 21,54 31,83 5,12 16,21 27,18 14,-1 23,-11 24,-24 0,-6 -1,-14 -4,-19 -11,-29 -21,-60 -35,-90 -9,-21 -12,-40 5,-58 9,-10 15,-22 20,-33 8,-18 -1,-35 -17,-38 -14,-2 -22,4 -30,15 -12,19 -23,39 -36,57 -5,6 -7,14 -17,19 0,-8 0,-14 0,-19 1,-15 3,-31 4,-47 0,-17 -10,-30 -25,-30 -15,-1 -26,10 -28,28 -2,15 -2,29 -3,44 -1,4 -2,9 -4,16 -16,-18 -29,-34 -43,-50 -8,-9 -15,-19 -23,-28 -10,-11 -24,-12 -35,-5 -10,9 -13,24 -7,36 2,5 7,9 11,14 13,16 26,32 39,49 -23,40 -37,82 -48,126 -4,18 3,31 16,35 15,5 27,-3 34,-19 3,-9 6,-19 8,-29 8,-26 16,-51 30,-73zm450 73c-1,-4 -1,-8 -1,-10 1,-35 1,-68 1,-101 0,-18 0,-35 -4,-52 -11,-50 -64,-67 -105,-37 -24,18 -38,43 -42,74 -1,13 -2,27 -3,39 -2,32 -4,63 -5,95 -7,3 -13,3 -18,5 -27,9 -34,18 -32,45 1,16 9,25 21,27 13,2 21,-2 29,-17 2,-6 6,-10 12,-10 4,-1 9,-1 14,-1 34,-2 69,-3 103,-3 5,0 10,4 13,6 8,9 18,11 28,6 10,-3 16,-12 18,-23 2,-22 -4,-33 -29,-43zm-52 2c-18,1 -37,1 -55,3 -2,-9 -2,-15 -2,-21 3,-36 5,-71 8,-107 1,-17 11,-30 26,-39 11,-6 19,-3 23,10 3,8 3,18 3,27 0,39 -2,80 -2,120 0,2 -1,5 -1,7zm143 -28c5,18 12,39 27,58 36,46 100,41 127,-11 26,-52 29,-107 15,-162 -9,-33 -31,-56 -64,-64 -10,-3 -21,-3 -31,1 -32,10 -56,32 -68,64 -15,36 -15,73 -6,114zm117 -94c7,37 5,72 -7,105 -2,4 -4,9 -7,12 -8,13 -22,13 -30,3 -4,-4 -7,-6 -8,-11 -17,-35 -22,-71 -7,-108 3,-10 12,-20 21,-26 15,-8 27,-4 34,13 3,4 3,9 4,12zm250 64c-4,-10 -7,-16 -9,-22 -8,-31 -17,-62 -27,-92 -4,-12 -9,-23 -16,-33 -16,-18 -41,-16 -53,4 -4,7 -7,15 -9,23 -3,20 -7,41 -8,62 -5,47 -8,94 -11,141 -3,20 7,33 23,35 16,1 27,-9 30,-29 1,-17 2,-34 5,-52 1,-21 2,-42 3,-63 6,6 9,13 11,19 9,22 18,43 26,65 8,16 18,31 37,32 20,0 30,-14 35,-32 10,-29 19,-60 28,-91 2,-5 4,-11 5,-18 4,4 5,8 5,12 3,40 4,81 5,122 2,17 13,30 29,30 15,-2 26,-14 26,-33 -3,-59 -4,-119 -8,-180 0,-11 -3,-23 -8,-33 -9,-20 -31,-28 -49,-18 -9,7 -18,14 -24,23 -9,14 -16,31 -21,47 -10,26 -16,51 -25,81zm278 109c-12,28 -24,60 -47,86 -8,12 -17,21 -24,33 -9,14 -5,30 7,39 12,10 29,7 40,-6 24,-31 48,-62 64,-99 33,-73 57,-149 80,-226 3,-8 4,-15 3,-22 0,-13 -9,-23 -19,-25 -11,-4 -21,-1 -28,7 -5,5 -8,11 -10,18 -13,39 -24,79 -36,117 -1,6 -5,11 -7,17 -21,-16 -34,-35 -41,-58 -9,-24 -13,-49 -11,-75 1,-15 -8,-26 -21,-29 -13,-2 -26,4 -32,17 -3,4 -4,11 -4,17 0,48 7,95 37,135 14,18 32,34 49,54zm-2581 328c6,-19 14,-34 16,-50 5,-22 -3,-41 -23,-54 -25,-18 -79,-11 -100,12 -9,9 -10,22 -4,32 8,10 21,14 33,9 13,-4 29,-15 38,-11 8,11 -2,23 -12,30 -12,8 -26,16 -39,25 -14,7 -20,20 -15,33 5,11 19,19 32,16 5,-1 10,-2 15,-3 20,-4 35,6 35,26 0,11 -4,24 -7,35 -21,5 -35,3 -47,-14 -8,-12 -24,-12 -37,-5 -13,9 -17,24 -8,36 5,7 10,14 17,20 26,23 58,23 89,15 28,-8 41,-31 46,-56 8,-37 3,-71 -29,-96zm256 51c2,12 2,18 2,23 1,19 2,38 5,58 1,16 12,24 26,24 16,2 27,-8 29,-24 0,-10 -1,-20 -1,-29 0,-28 -1,-57 -1,-85 0,-17 1,-36 0,-53 0,-10 -5,-21 -10,-28 -8,-10 -17,-17 -26,-25 -17,-15 -36,-22 -59,-21 -29,1 -54,11 -75,31 -49,43 -60,100 -49,162 7,44 51,63 88,39 13,-9 24,-18 34,-28 13,-13 23,-26 37,-44zm-102 20c-5,-39 -4,-76 28,-105 9,-7 21,-13 32,-17 13,-5 24,0 33,12 -26,40 -51,83 -93,110zm305 -26c4,10 8,18 10,25 8,23 15,46 23,68 7,18 21,25 37,21 16,-5 23,-19 17,-37 -14,-38 -27,-76 -42,-114 -4,-8 -3,-15 4,-22 11,-14 21,-28 31,-43 4,-6 7,-13 9,-19 5,-13 0,-26 -12,-32 -12,-7 -26,-5 -36,6 -2,3 -3,6 -6,9 -16,22 -33,46 -49,68 -3,2 -7,5 -13,11 0,-14 0,-24 0,-33 0,-15 1,-30 -1,-44 -1,-15 -14,-23 -27,-23 -14,0 -26,10 -29,23 -1,5 0,11 0,16 -1,47 -1,93 -1,139 0,22 0,46 3,68 2,17 16,27 32,24 15,-1 24,-12 24,-29 0,-11 -1,-22 -2,-34 -2,-22 10,-34 28,-48zm311 6c1,12 1,18 1,23 1,19 3,38 5,58 1,16 12,24 26,24 16,2 27,-8 30,-24 0,-10 -2,-20 -2,-29 0,-28 -1,-57 -1,-85 0,-17 1,-36 0,-53 0,-10 -5,-21 -10,-28 -7,-10 -17,-17 -26,-25 -17,-15 -35,-22 -59,-21 -28,1 -53,11 -74,31 -49,43 -61,100 -49,162 7,44 50,63 87,39 14,-9 25,-18 35,-28 12,-13 22,-26 37,-44zm-103 20c-5,-39 -3,-76 29,-105 8,-7 21,-13 32,-17 12,-5 23,0 32,12 -26,40 -51,83 -93,110z"/>
     <path class="fil1" d="M1810 1902c7,-19 14,-34 16,-50 5,-22 -3,-41 -23,-54 -25,-18 -79,-11 -100,12 -9,9 -10,22 -4,32 8,10 21,14 34,9 12,-4 28,-15 37,-11 8,11 -2,23 -11,30 -13,8 -26,16 -40,25 -14,7 -20,20 -15,33 5,11 19,19 32,16 5,-1 10,-2 15,-3 20,-4 35,6 35,26 0,11 -4,24 -6,35 -21,5 -36,3 -47,-14 -9,-12 -25,-12 -37,-5 -14,9 -18,24 -9,36 5,7 10,14 17,20 26,23 58,23 89,15 29,-8 41,-31 46,-56 9,-37 4,-71 -29,-96zm143 103c-12,29 -25,61 -47,87 -9,11 -17,21 -25,32 -8,15 -5,31 8,40 12,9 28,7 39,-7 25,-31 48,-61 64,-99 34,-72 57,-149 81,-226 2,-7 3,-15 2,-22 0,-12 -8,-22 -18,-25 -11,-3 -21,-1 -29,8 -5,5 -7,11 -10,17 -12,40 -23,79 -35,117 -2,7 -5,12 -8,18 -21,-16 -33,-36 -41,-58 -8,-25 -12,-50 -11,-76 1,-15 -7,-26 -21,-28 -12,-3 -26,4 -32,16 -2,5 -4,11 -4,17 0,48 8,95 37,135 14,19 33,35 50,54zm605 -64c13,-17 19,-33 15,-53 -6,-32 -36,-57 -74,-62 -16,-2 -32,-4 -48,-4 -22,0 -35,13 -35,34 3,63 2,125 2,188 0,33 13,47 48,49 11,1 23,3 34,3 41,-3 78,-14 103,-46 26,-35 16,-77 -22,-98 -6,-4 -14,-6 -23,-11zm-87 100c1,-18 2,-36 2,-55 29,-7 55,-3 81,11 12,6 14,15 3,24 -7,8 -17,14 -27,18 -17,6 -37,7 -59,2zm0 -112c0,-18 0,-34 1,-52 15,-4 28,-1 41,8 11,9 11,18 0,26 -11,8 -25,14 -37,21 -2,-1 -3,-2 -5,-3zm515 -198c5,-1 10,-2 16,-2 22,-2 46,-3 68,-4 21,-1 35,-14 32,-32 -1,-18 -16,-28 -37,-26 -20,2 -38,2 -58,3 -17,2 -34,3 -50,4 -22,4 -30,14 -30,34 -3,54 -4,109 -5,165 -1,52 -3,134 -3,187 0,22 12,36 29,36 17,1 30,-15 30,-36 0,-43 1,-114 1,-156 0,-9 1,-16 1,-25 5,-1 10,-3 14,-3 13,0 28,0 42,0 16,0 28,-9 32,-23 2,-16 -6,-29 -23,-34 -9,-3 -19,-2 -29,-2 -11,-1 -22,0 -36,0 1,-22 1,-43 2,-64 2,-7 3,-15 4,-22zm233 335c-4,-47 -9,-139 -8,-139 0,-9 0,-19 0,-29 0,-14 2,-27 0,-41 -1,-14 -11,-22 -23,-23 -14,-2 -26,5 -31,16 -1,5 -2,10 -2,14 -3,65 -3,130 4,194 0,7 2,12 3,18 5,15 17,23 32,22 16,-2 26,-16 25,-32zm-69 -295c0,14 13,28 29,27 15,0 31,-19 30,-35 0,-15 -12,-26 -27,-26 -18,-1 -32,15 -32,34zm252 87c-6,0 -10,0 -14,0 -34,-6 -59,10 -79,39 -28,39 -37,84 -29,131 6,35 27,61 64,68 17,3 36,3 53,2 12,0 22,-2 35,1 19,5 34,-6 36,-26 1,-10 -2,-19 -2,-29 -2,-32 -6,-63 -6,-96 -1,-77 -1,-156 -1,-234 0,-6 -1,-11 -3,-18 -3,-12 -12,-18 -24,-19 -11,-2 -21,3 -26,13 -3,6 -5,15 -5,21 0,25 1,50 1,74 0,24 0,47 0,73zm5 183c-16,0 -31,1 -45,0 -13,0 -23,-8 -25,-22 -7,-37 1,-71 27,-98 8,-10 15,-8 26,0 8,8 13,16 13,29 0,29 2,58 4,91zm176 -43c2,-1 5,-1 7,-3 11,0 21,0 32,-1 13,-1 26,-2 39,-5 23,-6 39,-24 42,-49 5,-40 -21,-83 -58,-97 -12,-3 -25,-6 -37,-3 -44,8 -72,36 -81,79 -8,37 -1,73 10,109 6,22 19,39 36,55 13,14 31,20 51,17 48,-3 80,-38 93,-79 4,-12 -2,-23 -13,-29 -11,-5 -24,-1 -31,10 -4,6 -7,12 -10,18 -7,13 -17,21 -31,27 -12,5 -21,4 -31,-6 -10,-12 -17,-26 -18,-43zm-8 -52c0,-23 7,-42 28,-52 19,-9 33,-4 43,14 2,6 5,12 6,19 1,9 -2,14 -11,15 -22,2 -43,3 -66,4zm198 -68c0,0 0,0 0,0 0,58 0,116 0,174 0,4 0,9 0,13 2,18 13,29 28,31 16,0 28,-12 29,-28 2,-14 0,-28 0,-43 0,-105 0,-211 0,-317 0,-7 0,-13 -2,-20 -3,-14 -14,-22 -26,-22 -15,0 -26,9 -29,24 -1,5 -1,10 -1,15 0,58 1,115 1,173zm-2931 565c-11,1 -21,2 -29,2 -12,0 -21,-1 -33,-1 0,-11 0,-20 0,-29 0,-17 0,-33 -1,-49 -1,-13 -11,-23 -23,-24 -13,-2 -25,7 -29,19 -1,7 -1,12 -1,18 0,48 0,95 0,143 0,21 -1,42 0,63 0,14 7,24 19,26 12,4 25,-1 30,-15 4,-5 4,-12 4,-20 1,-24 3,-49 3,-75 21,-1 40,-2 63,-4 0,14 0,25 1,36 0,16 0,32 1,47 1,16 16,29 30,26 15,-1 24,-12 24,-28 -1,-49 -2,-98 -2,-146 -1,-21 -1,-43 -2,-64 -2,-14 -13,-21 -25,-23 -13,0 -24,9 -27,23 0,5 0,11 0,16 0,19 -2,38 -3,59zm276 65c1,12 1,18 1,23 2,19 3,38 5,58 1,16 13,24 26,24 16,2 27,-8 30,-24 0,-10 -1,-20 -1,-29 0,-28 -2,-56 -2,-85 0,-17 2,-36 0,-53 0,-10 -5,-21 -9,-28 -8,-10 -18,-17 -26,-25 -18,-15 -36,-22 -60,-21 -28,1 -53,11 -74,31 -49,43 -60,100 -49,162 7,44 50,63 87,39 14,-9 25,-18 35,-28 12,-13 22,-26 37,-44zm-102 20c-5,-39 -4,-76 28,-105 9,-7 21,-13 32,-17 12,-5 24,0 32,12 -26,40 -50,83 -92,110zm740 -141c5,-7 8,-13 12,-19 20,-38 25,-88 15,-129 -7,-30 -26,-51 -57,-54 -13,-3 -28,0 -42,5 -36,13 -60,40 -74,77 -7,20 -1,35 15,41 16,6 29,0 38,-18 1,-4 3,-9 5,-13 9,-14 20,-27 36,-34 14,-5 18,-3 23,12 9,26 2,51 -9,75 -13,26 -34,56 -59,72 -14,10 -18,26 -9,38 7,13 24,18 39,10 5,-2 10,-6 15,-8 16,-9 22,-6 26,11 9,29 5,60 -9,89 -10,21 -24,27 -47,21 -18,-5 -27,-19 -26,-41 0,-12 -3,-23 -16,-28 -12,-7 -26,-4 -34,7 -5,6 -9,16 -9,24 -1,8 1,17 2,24 9,39 34,61 71,69 41,10 75,2 101,-33 40,-57 37,-143 -7,-198zm236 72c13,-17 19,-33 15,-53 -6,-32 -36,-57 -74,-62 -16,-2 -32,-4 -48,-4 -23,0 -35,13 -35,34 3,63 1,125 1,188 0,33 14,47 49,49 11,1 23,2 34,2 41,-2 78,-13 103,-45 26,-35 16,-77 -23,-98 -6,-4 -13,-6 -22,-11zm-88 100c2,-18 3,-36 3,-55 28,-7 54,-3 80,11 13,6 15,14 4,24 -7,8 -17,14 -27,18 -18,6 -37,7 -60,2zm0 -112c0,-18 0,-34 2,-52 15,-4 28,-1 40,8 12,9 12,18 0,26 -11,8 -24,14 -37,21 -1,-1 -2,-2 -5,-3zm260 69c3,-1 5,-1 8,-3 11,0 21,0 32,-1 12,-1 26,-2 38,-5 24,-6 40,-25 42,-49 5,-40 -21,-83 -58,-97 -11,-3 -25,-6 -37,-3 -43,8 -72,36 -80,79 -9,37 -2,73 10,109 6,22 18,39 35,55 14,14 31,20 51,17 48,-3 80,-38 94,-79 4,-12 -2,-23 -14,-29 -11,-5 -23,-2 -30,10 -4,6 -8,12 -10,18 -8,12 -18,21 -31,27 -13,5 -21,4 -31,-6 -10,-12 -17,-26 -19,-43zm-7 -52c0,-24 6,-42 27,-52 20,-9 33,-4 43,14 3,6 5,12 6,19 2,9 -2,14 -11,15 -22,1 -43,3 -65,4zm328 -7c6,-19 13,-34 16,-50 5,-22 -4,-41 -24,-54 -24,-18 -79,-11 -100,12 -8,9 -10,22 -4,32 8,10 21,14 34,9 12,-4 28,-15 37,-11 9,11 -1,23 -11,30 -13,8 -26,16 -40,25 -13,7 -20,20 -15,33 5,11 19,19 33,16 4,-1 9,-2 14,-3 20,-4 35,6 35,26 0,11 -4,24 -6,35 -21,5 -36,3 -47,-14 -9,-12 -25,-12 -37,-5 -14,9 -18,24 -9,36 5,7 10,14 17,20 26,23 58,23 89,15 29,-8 41,-31 46,-56 9,-37 4,-71 -28,-96zm299 100c-1,-4 -1,-8 -1,-10 1,-35 1,-68 1,-102 0,-17 0,-34 -4,-51 -11,-50 -64,-67 -105,-38 -24,19 -38,44 -42,75 -1,13 -2,27 -3,39 -2,32 -4,63 -5,95 -7,3 -13,3 -18,5 -27,9 -34,18 -32,45 1,16 9,24 21,27 13,2 21,-3 29,-17 2,-7 6,-10 12,-10 4,-2 9,-2 14,-2 34,-1 69,-2 103,-2 5,0 10,4 13,6 8,9 18,11 28,6 10,-3 16,-12 18,-23 2,-22 -4,-33 -29,-43zm-52 2c-18,1 -37,1 -55,3 -2,-9 -2,-15 -2,-21 3,-36 5,-71 8,-107 1,-17 11,-31 26,-39 11,-6 19,-3 23,10 3,8 3,18 3,27 0,39 -2,80 -2,120 0,2 -1,5 -1,7zm197 -60c-1,0 -2,-2 -4,-2 2,-27 3,-54 3,-82 1,-19 2,-38 1,-56 0,-14 -11,-22 -25,-24 -13,-1 -26,7 -29,21 -2,5 -2,12 -3,18 -1,52 -4,102 -5,154 -1,16 0,34 3,51 5,26 29,37 53,23 8,-5 16,-12 22,-21 15,-23 28,-47 42,-70 5,-7 9,-15 12,-22 5,17 5,33 5,48 0,17 0,33 0,49 0,18 9,29 24,30 15,2 30,-7 33,-24 1,-6 1,-12 1,-17 2,-49 2,-99 3,-148 0,-11 0,-22 0,-33 0,-15 -7,-28 -22,-33 -14,-6 -26,0 -36,12 -11,13 -24,28 -34,44 -16,27 -29,54 -44,82zm312 -56c-11,1 -21,2 -30,2 -11,0 -21,-1 -32,-1 0,-11 0,-20 0,-29 0,-17 0,-33 -1,-49 -2,-13 -11,-23 -24,-24 -12,-2 -24,7 -28,19 -1,7 -1,12 -1,18 0,48 0,95 0,143 0,21 -2,42 0,63 0,14 7,24 18,26 12,4 26,-1 31,-15 4,-5 4,-12 4,-20 1,-24 2,-49 2,-75 21,-1 41,-2 63,-4 0,14 0,25 1,36 0,16 0,32 2,47 1,16 16,29 29,26 15,-1 25,-12 25,-28 -1,-49 -2,-98 -2,-146 -2,-21 -2,-43 -3,-64 -1,-14 -12,-21 -25,-23 -12,0 -23,9 -27,23 0,5 0,11 0,16 0,19 -1,38 -2,59zm195 59c4,10 8,18 10,25 8,23 15,46 22,68 8,18 21,25 38,21 16,-5 23,-19 17,-37 -14,-38 -27,-75 -42,-114 -4,-8 -3,-15 4,-22 11,-14 21,-28 30,-43 5,-6 8,-13 10,-19 5,-13 0,-26 -12,-32 -12,-7 -26,-5 -36,6 -2,3 -4,6 -6,9 -16,22 -33,46 -50,68 -2,2 -6,5 -12,11 0,-14 0,-24 0,-33 0,-15 1,-30 -1,-44 -1,-15 -14,-23 -27,-23 -14,0 -26,10 -29,23 -1,5 0,11 0,16 -1,47 -1,93 -1,139 0,22 0,46 3,68 2,17 16,27 32,24 14,-1 24,-12 24,-29 0,-11 -1,-22 -2,-34 -3,-22 10,-34 28,-48zm207 14c2,-1 5,-1 7,-3 12,0 21,0 33,-1 12,-1 26,-2 38,-5 23,-6 39,-24 42,-49 5,-40 -21,-83 -58,-97 -11,-3 -25,-6 -37,-3 -44,8 -72,36 -81,79 -8,37 -1,73 10,109 6,22 19,39 36,55 14,14 31,20 51,17 48,-3 80,-38 94,-79 3,-12 -3,-23 -14,-29 -11,-5 -23,-2 -31,10 -3,6 -7,12 -10,18 -7,12 -17,21 -31,27 -12,5 -21,4 -30,-6 -10,-12 -18,-26 -19,-43zm-7 -52c0,-24 6,-42 27,-52 20,-9 33,-4 43,14 3,6 5,12 6,19 1,9 -2,14 -11,15 -22,1 -43,3 -65,4z"/>
    </g>
    <path class="fil2" d="M2895 3133c-35,-48 -172,-60 -301,-74 -130,-14 -342,0 -421,0 -79,0 -72,55 -337,24 -265,-31 -304,-26 -295,12 10,38 -21,149 -1,183 21,35 201,76 306,76 105,0 387,-22 495,-27 108,-6 242,-49 311,-30 70,19 176,28 194,23 18,-6 49,-187 49,-187z"/>
    <path class="fil1" d="M1780 3168c0,3 0,6 0,8 0,14 -1,28 -1,41 0,7 -1,14 -1,21 1,7 5,10 10,11 6,0 10,-4 11,-10 0,-1 0,-2 0,-4 1,-20 2,-39 2,-59 0,-5 0,-10 -1,-15 -2,-10 -8,-14 -17,-14 -8,0 -15,-1 -22,0 -5,0 -10,2 -14,3 -8,3 -12,8 -13,16 0,4 -1,9 -1,13 -1,13 -1,26 -1,39 -1,7 -1,15 -1,22 0,6 4,10 9,11 6,0 10,-3 11,-9 1,-2 1,-4 1,-6 1,-14 1,-29 1,-43 1,-8 1,-16 2,-24 8,-2 16,-2 25,-1zm86 84c4,0 7,0 11,0 13,-1 31,-9 36,-28 2,-9 4,-18 3,-27 0,-12 -4,-24 -13,-32 -12,-12 -27,-16 -44,-14 -9,1 -12,5 -14,14 0,2 0,3 0,5 -5,43 -2,86 0,130 0,2 1,5 2,7 3,6 12,8 16,3 2,-3 3,-7 3,-9 1,-8 0,-16 0,-23 -1,-8 0,-16 0,-26zm-2 -22c0,-19 1,-38 2,-56 12,-2 23,4 26,14 4,11 2,22 -2,33 -2,5 -7,8 -12,9 -4,0 -8,0 -14,0zm95 -11c2,7 5,15 11,22 13,18 38,16 48,-4 10,-20 11,-41 6,-62 -3,-13 -12,-21 -25,-25 -3,-1 -8,-1 -11,1 -13,4 -22,12 -26,25 -6,13 -6,27 -3,43zm45 -36c3,14 2,28 -3,40 0,2 -1,4 -2,5 -3,5 -9,5 -12,1 -1,-1 -2,-2 -3,-4 -6,-13 -8,-27 -3,-41 2,-4 5,-8 9,-10 5,-4 10,-2 13,4 1,2 1,4 1,5zm115 25c-1,-4 -3,-6 -3,-9 -3,-12 -7,-23 -10,-35 -2,-5 -4,-9 -7,-13 -6,-7 -15,-6 -20,2 -1,3 -3,5 -3,9 -2,7 -3,15 -4,23 -1,18 -2,36 -4,54 -1,8 3,13 9,14 6,0 11,-4 11,-11 1,-7 1,-13 2,-20 1,-8 1,-16 2,-24 2,2 3,5 4,7 3,8 7,16 10,25 3,6 7,12 14,12 8,0 12,-5 13,-12 4,-11 8,-23 11,-35 1,-2 2,-4 2,-7 2,2 2,3 2,5 1,15 2,31 2,46 1,7 5,12 11,12 6,-1 10,-5 10,-13 -1,-22 -2,-45 -3,-69 0,-4 -1,-9 -3,-12 -4,-8 -12,-11 -19,-7 -4,2 -7,5 -9,8 -4,6 -6,12 -8,18 -4,10 -6,20 -10,32zm96 11c2,7 5,15 10,22 14,18 39,16 49,-4 10,-20 11,-41 6,-62 -4,-13 -12,-21 -25,-25 -4,-1 -8,-1 -12,1 -12,4 -21,12 -26,25 -5,13 -5,27 -2,43zm45 -36c3,14 2,28 -3,40 0,2 -1,4 -2,5 -4,5 -9,5 -12,1 -2,-1 -3,-2 -3,-4 -7,-13 -9,-27 -3,-41 2,-4 5,-8 8,-10 6,-4 11,-2 13,4 1,2 1,4 2,5zm96 25c1,4 2,7 3,10 3,9 6,17 9,26 3,7 8,9 14,8 6,-2 9,-7 7,-14 -6,-15 -11,-29 -16,-44 -2,-3 -1,-6 1,-9 4,-5 8,-10 12,-16 2,-2 3,-5 4,-7 2,-5 0,-10 -5,-13 -5,-2 -10,-1 -14,3 -1,1 -1,2 -2,3 -6,9 -13,18 -19,26 -1,1 -2,2 -5,4 0,-5 0,-9 0,-12 0,-6 1,-12 0,-17 -1,-6 -6,-9 -11,-9 -5,0 -10,4 -11,9 0,2 0,4 0,6 0,18 0,36 0,53 0,9 0,18 1,26 1,7 6,11 12,10 6,-1 10,-5 10,-12 0,-4 -1,-8 -1,-12 -1,-9 3,-14 11,-19zm78 11c2,7 5,15 11,22 13,18 38,16 48,-4 10,-20 11,-41 6,-62 -3,-13 -12,-21 -25,-25 -3,-1 -8,-1 -11,1 -13,4 -22,12 -26,25 -6,13 -6,27 -3,43zm45 -36c3,14 2,28 -3,40 0,2 -1,4 -2,5 -3,5 -9,5 -12,1 -1,-1 -2,-2 -3,-4 -6,-13 -8,-27 -3,-41 2,-4 5,-8 8,-10 6,-4 11,-2 14,4 1,2 1,4 1,5zm143 46c0,-1 0,-3 0,-4 0,-13 0,-26 0,-39 0,-6 0,-13 -1,-19 -5,-19 -25,-26 -40,-15 -10,7 -15,17 -17,29 0,5 -1,10 -1,15 0,12 -1,24 -2,36 -2,1 -5,1 -7,2 -10,4 -13,7 -12,17 1,6 3,10 8,11 5,1 8,-1 11,-7 1,-2 2,-4 5,-4 1,0 3,0 5,0 13,-1 27,-1 40,-1 2,0 4,1 5,2 3,4 7,4 10,3 4,-2 7,-5 7,-9 1,-9 -1,-13 -11,-17zm-20 1c-7,0 -14,0 -21,1 0,-3 0,-6 0,-8 0,-14 1,-27 2,-41 1,-6 5,-12 10,-15 5,-2 8,-1 9,4 1,3 1,7 1,10 0,15 0,31 0,46 0,1 -1,2 -1,3zm85 15c6,0 10,-5 11,-11 0,-6 -5,-12 -11,-12 -7,0 -12,6 -12,12 0,5 6,11 12,11zm1 -55c6,1 11,-4 11,-10 0,-6 -4,-11 -10,-11 -6,0 -11,4 -11,10 0,6 4,11 10,11z"/>
    <path class="fil1" d="M1075 3548c5,-8 11,-17 15,-28 11,-30 6,-64 -15,-82 -21,-17 -44,-23 -69,-17 -7,1 -13,3 -19,4 -17,4 -24,12 -24,29 -1,53 -4,107 -5,162 0,37 2,75 3,112 1,19 18,35 35,34 16,0 34,-1 51,-3 41,-6 72,-26 84,-68 4,-13 6,-30 6,-45 -2,-25 -5,-51 -25,-70 -11,-10 -24,-18 -37,-28zm-71 168c0,-33 0,-62 -1,-90 0,-9 4,-15 11,-19 15,-7 31,-10 46,-10 10,0 18,5 22,15 12,24 14,50 3,75 -7,15 -20,23 -34,25 -15,3 -30,2 -47,4zm1 -165c1,-13 2,-22 2,-32 1,-14 1,-27 1,-41 1,-11 4,-14 16,-14 18,0 28,12 26,30 -1,12 -7,22 -15,31 -8,10 -17,18 -30,26zm208 124c0,0 -1,-1 -2,-1 1,-22 2,-43 2,-66 0,-15 1,-29 0,-44 0,-11 -8,-18 -19,-19 -11,-1 -21,5 -24,17 -1,4 -1,9 -1,14 -1,41 -3,81 -4,122 -1,13 0,26 2,40 3,21 23,30 42,19 6,-4 12,-10 17,-17 12,-18 23,-37 33,-56 4,-6 7,-11 10,-17 4,13 4,26 4,38 0,14 0,26 0,39 0,14 7,23 19,24 11,1 23,-6 26,-19 1,-5 1,-10 1,-14 1,-39 1,-78 2,-117 0,-9 0,-18 0,-27 0,-11 -6,-21 -18,-25 -10,-5 -20,0 -28,9 -9,11 -18,22 -26,35 -13,22 -24,43 -36,65zm256 -77c0,9 1,16 0,23 -3,36 -6,71 -7,107 -1,8 -1,16 1,23 1,11 11,17 21,17 11,0 20,-7 22,-18 1,-3 1,-6 1,-9 2,-41 5,-82 7,-123 1,-12 0,-25 -2,-36 -3,-16 -13,-28 -29,-28 -23,-1 -48,-1 -71,2 -18,2 -26,14 -27,31 -1,5 -1,10 -1,16 1,17 1,34 1,51 0,20 -2,38 -9,57 -4,0 -7,-1 -11,-1 -17,1 -27,15 -22,31 6,22 34,32 53,19 7,-6 15,-14 18,-22 6,-16 12,-33 14,-51 3,-22 1,-45 2,-68 0,-6 0,-13 0,-21 14,0 25,0 39,0zm193 0c0,9 1,16 0,23 -3,36 -6,71 -8,107 -1,8 -1,16 1,23 2,11 12,17 21,17 11,0 20,-7 22,-18 1,-3 1,-6 1,-9 3,-41 6,-82 8,-123 1,-12 0,-25 -2,-36 -3,-16 -14,-28 -30,-28 -23,-1 -48,-1 -71,2 -18,2 -25,14 -26,31 -1,5 -1,10 -1,16 1,17 1,34 1,51 0,20 -2,38 -9,57 -5,0 -8,-1 -12,-1 -17,1 -26,15 -22,31 6,22 35,32 53,19 7,-6 15,-14 18,-22 7,-16 13,-33 15,-51 3,-22 1,-45 2,-68 0,-6 0,-13 0,-21 13,0 24,0 39,0zm196 84c1,9 1,14 1,18 1,16 2,30 4,46 1,13 10,20 20,20 13,1 22,-7 24,-20 0,-8 -1,-16 -1,-23 0,-22 -1,-45 -1,-67 0,-14 1,-28 0,-42 0,-8 -4,-17 -8,-23 -6,-7 -14,-12 -21,-19 -13,-12 -28,-18 -47,-17 -22,1 -42,9 -58,25 -39,34 -48,79 -39,128 6,35 40,50 69,31 11,-7 20,-15 28,-22 9,-10 17,-21 29,-35zm-81 16c-4,-31 -3,-61 22,-83 7,-6 17,-11 26,-14 9,-4 18,0 25,10 -21,31 -40,66 -73,87zm318 23c-1,-3 -1,-6 -1,-8 1,-28 1,-54 1,-80 0,-14 0,-28 -3,-42 -9,-39 -51,-52 -83,-29 -19,15 -30,34 -33,59 -1,11 -2,21 -3,31 -1,26 -3,50 -4,75 -5,2 -10,2 -14,4 -21,7 -27,14 -25,36 1,12 7,19 16,21 10,2 17,-2 23,-14 2,-5 5,-7 10,-7 3,-1 7,-1 11,-1 27,-1 54,-2 82,-2 4,0 7,3 9,4 7,7 15,9 23,5 8,-3 13,-9 14,-18 2,-18 -3,-27 -23,-34zm-41 2c-15,0 -29,0 -44,1 -1,-6 -1,-11 -1,-16 2,-29 4,-56 6,-84 1,-14 9,-25 20,-32 9,-4 16,-2 19,8 2,7 2,15 2,22 0,31 -1,63 -1,95 0,2 -1,4 -1,6zm160 -60c12,3 15,10 14,20 -2,21 -3,42 -3,63 -1,13 7,21 17,22 10,1 20,-5 23,-16 1,-6 1,-11 2,-17 0,-12 1,-25 2,-39 0,-3 1,-8 3,-10 6,-6 13,-11 21,-17 2,5 4,8 5,11 8,22 17,43 25,66 4,10 12,17 21,15 11,-1 18,-9 19,-20 0,-5 -1,-11 -3,-15 -9,-23 -17,-48 -28,-71 -7,-17 -9,-31 4,-46 7,-8 12,-18 16,-26 6,-14 -1,-28 -14,-30 -10,-2 -17,3 -23,12 -10,15 -19,30 -29,45 -3,5 -5,11 -13,15 0,-6 0,-11 0,-15 1,-12 2,-24 3,-37 0,-14 -8,-24 -20,-24 -12,-1 -20,8 -22,22 -1,12 -1,23 -2,35 -1,3 -2,7 -3,13 -13,-15 -24,-28 -34,-40 -7,-7 -12,-15 -19,-22 -8,-9 -19,-10 -27,-4 -8,7 -11,19 -6,29 2,4 6,7 8,10 11,13 21,26 32,40 -19,31 -30,64 -38,99 -3,14 2,25 12,28 12,4 22,-2 27,-15 3,-8 5,-16 7,-23 5,-21 12,-41 23,-58zm271 -45c0,-1 0,-1 0,-1 28,0 55,0 84,0 10,0 17,-7 21,-16 3,-11 1,-21 -9,-26 -5,-4 -13,-6 -21,-6 -19,0 -37,2 -56,2 -31,0 -62,-1 -93,-2 -12,0 -21,6 -25,17 -3,9 2,22 13,27 8,3 17,4 26,5 20,0 40,0 60,0zm196 60c3,7 6,13 8,19 6,19 11,36 17,54 6,15 17,19 30,17 12,-4 18,-15 13,-30 -10,-30 -21,-59 -33,-90 -3,-7 -2,-12 3,-17 9,-11 17,-23 24,-35 4,-5 6,-9 8,-14 4,-11 0,-21 -10,-26 -9,-6 -20,-4 -28,5 -2,2 -3,5 -5,7 -13,18 -26,36 -39,54 -2,2 -5,4 -10,9 0,-11 0,-19 0,-27 0,-12 1,-23 -1,-34 -1,-12 -10,-19 -21,-19 -11,0 -21,8 -23,19 -1,4 0,9 0,13 -1,37 -1,73 -1,109 0,18 0,36 2,54 2,14 13,22 26,20 11,-1 19,-10 19,-24 0,-9 -1,-18 -2,-26 -2,-18 8,-28 23,-38zm144 90c8,0 15,0 23,0 27,-1 64,-18 74,-58 4,-18 8,-37 7,-56 0,-25 -8,-49 -28,-66 -25,-24 -55,-33 -90,-28 -18,2 -25,9 -29,28 -1,3 -1,7 -1,11 -9,89 -3,178 0,267 1,5 2,11 4,16 7,13 26,16 34,5 5,-5 7,-13 7,-19 1,-15 -1,-31 -1,-46 -1,-17 0,-34 0,-54zm-4 -45c1,-41 3,-79 4,-116 26,-5 48,8 55,29 8,23 4,45 -5,68 -4,11 -14,16 -24,18 -8,1 -17,1 -30,1zm259 -41c1,9 1,14 1,18 1,16 2,30 4,46 1,13 10,20 20,20 13,1 22,-7 24,-20 0,-8 -1,-16 -1,-23 0,-22 -1,-44 -1,-67 0,-14 1,-28 0,-42 0,-8 -4,-17 -8,-23 -6,-7 -14,-12 -20,-19 -14,-12 -29,-18 -47,-17 -23,1 -42,9 -59,25 -39,34 -48,79 -39,128 6,35 40,50 69,31 11,-7 20,-15 28,-22 10,-10 17,-21 29,-35zm-81 16c-4,-31 -3,-61 22,-83 7,-6 17,-11 26,-14 10,-4 18,0 25,10 -20,31 -40,66 -73,87zm280 68c6,-2 11,-3 15,-5 49,-16 96,-78 72,-146 -13,-36 -38,-54 -75,-58 -12,-1 -24,-2 -35,-4 -13,-2 -26,-1 -37,6 -40,21 -61,54 -66,97 -6,48 23,91 68,107 3,2 7,3 12,5 0,5 0,11 0,17 0,23 -1,45 -1,67 0,17 12,28 27,25 10,-1 17,-9 18,-21 1,-15 1,-30 1,-44 0,-16 1,-31 1,-46zm2 -162c27,-1 36,7 43,30 9,34 -9,68 -44,82 -1,-37 -1,-75 1,-112zm-46 1c-1,37 -1,75 -1,112 -9,2 -13,-2 -18,-6 -31,-27 -20,-88 19,-106zm223 -2c0,17 1,32 0,48 0,31 -1,63 -1,94 0,14 10,23 21,23 12,0 21,-8 23,-21 1,-3 1,-7 1,-11 0,-20 0,-42 1,-63 0,-25 1,-50 2,-76 8,-1 15,-1 21,-3 11,-3 18,-11 18,-21 0,-11 -8,-21 -20,-22 -6,-1 -11,-1 -17,-1 -31,2 -60,5 -90,7 -2,1 -3,1 -5,2 -11,3 -17,12 -16,23 0,9 7,18 18,20 6,1 12,0 17,1 9,0 18,0 27,0z"/>
   </g>
  </g>
 </g>
</svg>
