<?xml version="1.0" encoding="UTF-8"?>
<!DOCTYPE svg PUBLIC "-//W3C//DTD SVG 1.1//EN" "http://www.w3.org/Graphics/SVG/1.1/DTD/svg11.dtd">
<!-- Creator: CorelDRAW X7 -->
<svg xmlns="http://www.w3.org/2000/svg" xml:space="preserve" width="45mm" height="45mm" version="1.1" style="shape-rendering:geometricPrecision; text-rendering:geometricPrecision; image-rendering:optimizeQuality; fill-rule:evenodd; clip-rule:evenodd"
viewBox="0 0 4500 4500"
 xmlns:xlink="http://www.w3.org/1999/xlink">
 <defs>
  <style type="text/css">
   <![CDATA[
    .str0 {stroke:black;stroke-width:75}
    .fil1 {fill:black}
    .fil0 {fill:#E94F42}
    .fil2 {fill:#FEFEFE;fill-rule:nonzero}
   ]]>
  </style>
 </defs>
 <g id="Слой_x0020_1">
  <metadata id="CorelCorpID_0Corel-Layer"/>
  <path class="fil0 str0" d="M371 280c0,0 -121,140 -126,669 -6,529 -23,2140 -25,2323 -2,182 -116,533 15,701 131,168 95,285 709,291 614,7 1936,20 2185,23 249,3 836,152 1001,-61 165,-213 191,-676 198,-1284 6,-609 -149,-1351 -98,-1743 52,-391 133,-749 39,-840 -94,-92 -504,-169 -1367,-178 -862,-9 -1804,-19 -2019,-21 -214,-3 -512,120 -512,120z"/>
  <path class="fil1" d="M2944 3274c-33,-46 -162,-57 -285,-70 -122,-13 -322,0 -397,0 -75,0 -68,52 -318,23 -250,-29 -288,-25 -279,11 9,36 -20,141 -1,173 19,33 190,72 289,72 99,0 366,-21 468,-26 102,-5 228,-46 294,-28 65,18 166,26 183,21 16,-5 46,-176 46,-176z"/>
  <path class="fil2" d="M1890 3307c-5,0 -9,0 -12,0 -4,0 -8,0 -12,1l-2 23c0,7 0,14 0,21 0,6 0,13 0,20 0,1 0,2 0,3 0,1 -1,2 -1,3 -2,6 -5,8 -11,8 -5,-1 -8,-5 -8,-11 0,-3 0,-6 0,-10 0,-3 0,-7 0,-10 1,-6 1,-13 1,-19 0,-6 0,-12 0,-19l2 -12c0,-7 4,-12 11,-15 2,-1 4,-1 7,-2 2,0 4,-1 7,-1 3,0 6,0 10,0 3,0 7,0 10,0 9,0 15,4 16,13 1,5 2,10 2,15 -1,9 -1,19 -1,28 -1,9 -1,18 -1,28l0 3c-1,7 -4,10 -10,10 -6,-1 -9,-4 -10,-10 0,-4 0,-7 0,-10 1,-3 1,-7 1,-10 0,-7 0,-13 0,-20 0,-6 1,-13 1,-19 0,-2 0,-3 0,-4 0,-1 0,-2 0,-4zm81 79c0,5 0,9 0,13 0,4 0,8 0,12 0,4 0,7 0,11 1,3 1,7 0,10 0,2 0,3 0,5 -1,1 -2,3 -3,4 -2,2 -5,3 -8,3 -3,-1 -6,-3 -7,-5 -1,-2 -1,-3 -2,-4 0,-1 0,-2 0,-4 -1,-20 -1,-41 -2,-61 -1,-20 0,-40 2,-61 0,-2 0,-4 0,-5 1,-4 3,-7 4,-9 2,-2 5,-3 10,-4 15,-2 29,2 41,13 4,4 7,9 9,14 2,5 3,10 3,16 1,4 0,9 0,13 -1,4 -2,9 -3,13 -2,9 -7,16 -14,20 -7,4 -14,6 -20,6 -2,0 -3,1 -5,0 -2,0 -3,0 -5,0zm-2 -20c3,0 6,0 8,0 2,0 4,-1 6,-1 2,0 4,-1 6,-3 2,-1 4,-2 5,-5 2,-5 3,-10 4,-15 0,-6 0,-11 -2,-16 -2,-5 -5,-9 -9,-11 -5,-3 -10,-3 -16,-2 0,9 -1,17 -1,26 0,8 -1,18 -1,27zm90 -11c-1,-7 -2,-14 -2,-21 0,-7 2,-13 4,-20 5,-12 13,-19 25,-23 3,-1 7,-1 11,0 12,3 20,11 23,23 3,10 4,20 3,29 -1,10 -3,20 -8,29 -2,5 -6,9 -9,11 -4,3 -8,4 -13,5 -4,0 -8,-1 -13,-3 -4,-1 -8,-4 -11,-9 -3,-3 -5,-6 -6,-10 -2,-4 -3,-7 -4,-11zm43 -34c-1,0 -1,-1 -1,-2 0,0 0,-1 -1,-2 -3,-6 -7,-8 -12,-5 -4,3 -6,6 -8,10 -3,7 -4,13 -3,20 1,6 2,12 6,19 0,1 1,2 2,4 2,2 4,2 6,2 2,0 4,-1 6,-3 0,-2 1,-3 2,-5 4,-12 5,-24 3,-38zm108 24c2,-6 3,-11 4,-16 2,-4 3,-9 5,-14 2,-6 4,-11 8,-17 2,-3 5,-6 9,-8 3,-2 6,-2 10,-1 3,1 6,4 7,7 2,4 3,9 3,12 1,11 1,22 2,33 0,11 0,22 1,33 0,3 -1,6 -3,8 -2,2 -4,3 -6,3 -3,0 -6,-1 -8,-3 -1,-2 -2,-4 -3,-7 0,-8 0,-15 0,-23 -1,-7 -1,-14 -2,-22 0,-1 0,-3 -1,-4 -1,1 -1,3 -1,4 -1,1 -1,2 -1,3 -2,5 -4,11 -5,16 -2,6 -4,11 -5,17 -1,3 -3,6 -5,8 -2,2 -4,3 -8,3 -3,0 -6,-1 -8,-4 -2,-2 -4,-4 -5,-7 -2,-5 -3,-9 -5,-12 -2,-4 -3,-8 -5,-12 0,-1 -1,-2 -1,-3 -1,-1 -2,-3 -3,-4l-1 23c-1,3 -1,6 -1,9 0,3 -1,7 -1,10 -1,7 -4,11 -11,10 -6,-1 -9,-5 -8,-12 1,-9 1,-18 2,-26 0,-8 1,-17 2,-25 0,-4 1,-8 1,-12 1,-4 1,-7 2,-11 0,-1 1,-3 1,-4 1,-1 2,-3 2,-4 3,-4 6,-6 9,-6 4,0 7,1 10,4 3,4 5,8 6,12 2,6 4,11 5,17 2,5 4,11 5,17 0,1 1,2 1,3 1,1 2,3 2,5zm91 10c-2,-7 -3,-14 -2,-21 0,-7 1,-13 4,-20 4,-12 12,-19 24,-23 4,-1 8,-1 12,0 12,3 20,11 23,23 2,10 3,20 2,29 0,10 -3,20 -8,29 -2,5 -5,9 -9,11 -4,3 -8,4 -12,5 -5,0 -9,-1 -13,-3 -5,-1 -8,-4 -12,-9 -2,-3 -4,-6 -6,-10 -1,-4 -3,-7 -3,-11zm42 -34c0,0 0,-1 0,-2 0,0 -1,-1 -1,-2 -3,-6 -7,-8 -13,-5 -3,3 -6,6 -7,10 -3,7 -4,13 -4,20 1,6 3,12 6,19 1,1 1,2 3,4 1,2 3,2 6,2 2,0 4,-1 5,-3 1,-2 2,-3 2,-5 5,-12 6,-24 3,-38zm90 25c-3,2 -6,4 -8,7 -2,2 -3,6 -2,10 0,2 1,4 1,6 0,2 0,4 0,6 0,7 -3,10 -9,11 -3,0 -5,0 -8,-2 -2,-1 -3,-4 -4,-7 0,-4 0,-8 0,-12 0,-5 0,-9 0,-13 0,-8 0,-16 0,-25 0,-8 0,-16 0,-25 0,-1 0,-2 0,-3 0,-1 0,-2 0,-3 1,-2 2,-4 4,-6 2,-1 4,-2 6,-2 3,0 5,1 7,2 2,2 3,4 3,6 1,3 1,5 1,8 0,3 0,5 0,8l0 12c1,-1 2,-2 2,-2 1,-1 1,-1 2,-2 3,-4 6,-8 9,-12 3,-4 6,-8 9,-13 0,0 1,-1 1,-1 0,-1 1,-1 1,-2 4,-4 8,-5 13,-2 5,2 6,6 5,12 -1,1 -2,2 -2,3 0,1 -1,2 -2,3 -2,3 -4,6 -5,8 -2,3 -4,6 -6,8 -2,2 -3,5 -2,8 3,7 6,14 8,21 3,7 5,13 8,20 2,7 0,12 -7,14 -6,1 -10,-1 -13,-8 -1,-4 -3,-8 -4,-12 -1,-4 -3,-8 -4,-13 -1,-1 -1,-2 -2,-4 0,-1 -1,-3 -2,-4zm75 9c-2,-7 -3,-14 -2,-21 0,-7 1,-13 4,-20 4,-12 13,-19 24,-23 4,-1 8,-1 12,0 12,3 20,11 23,23 2,10 3,20 3,29 -1,10 -4,20 -8,29 -3,5 -6,9 -10,11 -4,3 -8,4 -12,5 -4,0 -9,-1 -13,-3 -4,-1 -8,-4 -12,-9 -2,-3 -4,-6 -6,-10 -1,-4 -2,-7 -3,-11zm42 -34c0,0 0,-1 0,-2 0,0 -1,-1 -1,-2 -3,-6 -7,-8 -13,-5 -3,3 -6,6 -7,10 -3,7 -4,13 -3,20 0,6 2,12 5,19 1,1 2,2 3,4 2,2 3,2 6,2 2,0 4,-1 5,-3 1,-2 2,-3 2,-5 5,-12 6,-24 3,-38zm135 43c5,2 8,4 9,6 2,3 2,6 1,10 0,4 -2,7 -6,8 -3,2 -7,1 -10,-2 -1,0 -1,-1 -2,-1 -1,-1 -2,-1 -3,-1 -6,0 -12,0 -18,0 -7,0 -13,1 -19,1 -3,0 -4,0 -5,0 -2,0 -4,1 -5,4 -2,5 -5,7 -10,6 -5,-1 -7,-4 -7,-10 -1,-5 0,-8 1,-10 2,-3 5,-4 10,-6 1,0 2,-1 3,-1 1,0 2,0 3,-1 1,-6 1,-11 1,-17 1,-5 1,-11 1,-17 1,-2 1,-5 1,-7 0,-3 0,-5 1,-7 1,-12 6,-21 15,-27 7,-6 15,-7 23,-4 8,3 13,8 15,17 0,4 1,7 1,10 0,3 0,6 0,9 0,6 0,12 0,18 0,6 0,12 0,19 0,1 0,2 0,3zm-19 1c0,0 0,-1 1,-1 0,0 0,-1 0,-2 0,-7 0,-14 0,-21 0,-7 0,-15 0,-22 0,-1 0,-3 0,-5 0,-2 0,-3 -1,-5 -1,-4 -4,-6 -8,-3 -6,3 -9,8 -9,14 -1,7 -2,13 -2,19 0,7 -1,13 -1,19 0,2 0,3 0,4 0,1 0,3 0,4 4,0 7,0 10,0 4,0 7,-1 10,-1zm80 15c-3,0 -5,-1 -7,-3 -3,-3 -4,-5 -4,-8 0,-3 1,-5 3,-7 2,-2 5,-4 8,-4 3,0 6,2 8,4 2,2 3,4 3,8 -1,3 -2,5 -4,7 -2,2 -4,3 -7,3zm2 -52c-3,0 -6,-1 -8,-3 -2,-2 -2,-4 -2,-7 0,-3 1,-6 3,-7 2,-2 5,-3 7,-3 3,0 5,1 7,3 2,2 3,5 3,7 0,3 -1,6 -3,8 -2,2 -5,2 -7,2z"/>
  <g id="_821758833456">
   <path class="fil2" d="M826 3629c6,5 13,10 19,13 6,4 11,8 16,13 10,9 15,20 18,31 2,12 4,23 5,36 0,15 -1,29 -5,42 -6,20 -15,35 -29,45 -14,9 -31,16 -50,19 -17,2 -33,3 -49,3 -8,0 -15,-3 -22,-9 -6,-7 -10,-14 -11,-23 0,-18 -1,-35 -2,-53 0,-17 -1,-35 -1,-53 1,-26 2,-51 3,-77 1,-25 2,-50 3,-76 0,-14 7,-23 22,-27 3,-1 6,-1 9,-2 3,-1 6,-1 9,-2 24,-5 46,0 65,16 10,9 16,20 19,35 2,14 1,28 -5,43 -2,4 -4,9 -6,13 -3,5 -5,9 -8,13zm-67 158c8,-1 16,-2 23,-2 7,0 14,0 21,-1 16,-2 26,-10 33,-23 9,-24 8,-48 -3,-72 -4,-9 -11,-13 -21,-13 -16,0 -30,3 -43,9 -7,3 -11,9 -11,17 1,14 1,28 1,41 0,14 0,29 0,44zm1 -155c11,-7 21,-16 28,-25 9,-9 14,-19 14,-29 2,-9 0,-16 -4,-21 -5,-5 -11,-7 -20,-7 -5,0 -9,1 -11,3 -2,2 -3,5 -4,10 0,7 0,13 0,19 0,6 -1,13 -1,20 0,5 -1,9 -1,13 0,5 -1,10 -1,17zm197 117c6,-11 11,-21 16,-31 5,-10 11,-20 17,-30 4,-7 8,-12 12,-18 5,-6 9,-11 13,-16 4,-4 8,-7 13,-9 4,-2 9,-1 14,1 11,4 17,12 17,24l0 25c-1,18 -1,37 -1,55 0,19 -1,37 -1,56 0,2 0,4 0,6 0,2 0,4 -1,7 -1,6 -4,11 -9,14 -5,3 -10,5 -16,3 -12,-1 -18,-8 -18,-22l0 -37c0,-5 0,-11 0,-17 0,-6 -1,-12 -3,-19 -1,3 -3,6 -4,8 -2,3 -4,6 -5,9 -5,8 -10,17 -16,26 -5,9 -10,18 -16,26 -5,7 -10,12 -17,16 -8,5 -16,6 -24,2 -8,-3 -13,-10 -15,-19 -2,-15 -3,-27 -2,-38 1,-20 1,-39 2,-58 0,-19 1,-38 2,-58 0,-2 1,-5 1,-7 0,-2 0,-4 0,-6 4,-11 11,-17 23,-15 5,0 9,2 13,5 3,3 5,7 5,12 1,7 1,14 1,21 -1,7 -1,14 -2,21 0,10 0,20 0,31 -1,10 -1,20 -2,31 1,0 1,0 2,0 0,0 0,1 1,1zm242 -73l-37 0 0 20c-1,11 -1,22 -1,33 1,10 0,21 -1,32 -1,8 -3,16 -6,24 -2,8 -5,16 -8,24 -1,3 -3,7 -7,10 -3,4 -6,7 -10,10 -4,3 -9,5 -14,5 -5,1 -10,0 -15,-1 -5,-2 -9,-5 -13,-9 -4,-3 -6,-8 -7,-13 -3,-7 -2,-14 2,-20 4,-5 10,-9 18,-9 2,0 3,0 5,0 2,1 4,1 6,1 3,-9 5,-18 6,-27 2,-9 2,-18 2,-27 0,-8 0,-16 0,-24 0,-8 0,-16 -1,-24 0,-3 0,-6 0,-8 0,-2 1,-5 1,-8 2,-17 10,-26 25,-28 11,-1 23,-2 34,-3 11,0 23,0 34,1 7,0 13,2 18,7 5,5 8,11 9,19 2,12 3,23 2,34 -1,20 -2,39 -3,58 -2,19 -3,39 -4,58 0,4 0,7 -1,9 -2,10 -9,16 -20,17 -5,0 -10,-1 -13,-4 -4,-3 -6,-7 -8,-12 -2,-6 -2,-13 -1,-22 2,-17 3,-34 4,-50 1,-17 3,-34 4,-51 0,-3 1,-7 0,-10 0,-3 0,-7 0,-12zm181 0l-37 0 0 20c0,11 0,22 0,33 0,10 0,21 -1,32 -2,8 -3,16 -6,24 -2,8 -5,16 -8,24 -2,3 -4,7 -7,10 -4,4 -7,7 -10,10 -4,3 -9,5 -14,5 -5,1 -11,0 -15,-1 -5,-2 -10,-5 -13,-9 -4,-3 -7,-8 -8,-13 -2,-7 -1,-14 3,-20 4,-5 10,-9 18,-9 1,0 3,0 5,0 1,1 3,1 6,1 3,-9 5,-18 6,-27 1,-9 2,-18 2,-27 0,-8 0,-16 0,-24 0,-8 0,-16 -1,-24 0,-3 0,-6 0,-8 0,-2 0,-5 1,-8 1,-17 9,-26 25,-28 11,-1 22,-2 34,-3 11,0 22,0 33,1 8,0 14,2 19,7 5,5 8,11 9,19 2,12 2,23 2,34 -1,20 -3,39 -4,58 -1,19 -2,39 -4,58 0,4 0,7 0,9 -2,10 -9,16 -21,17 -5,0 -9,-1 -13,-4 -3,-3 -6,-7 -7,-12 -2,-6 -2,-13 -1,-22 1,-17 2,-34 4,-50 1,-17 2,-34 3,-51 1,-3 1,-7 1,-10 0,-3 -1,-7 -1,-12zm186 80c-6,7 -11,13 -15,17 -4,5 -8,10 -13,15 -4,4 -8,8 -12,11 -4,4 -9,7 -14,11 -14,8 -28,10 -41,4 -13,-6 -21,-17 -24,-34 -5,-23 -4,-45 1,-66 5,-21 17,-39 35,-55 16,-14 34,-22 56,-23 17,-1 31,4 44,16 3,3 7,6 10,8 3,3 7,6 10,10 2,3 3,6 5,10 1,4 2,8 2,11 1,7 1,14 1,20 -1,7 -1,13 -1,20 0,10 0,21 1,32 0,11 0,21 0,32 0,3 0,6 0,10 1,4 1,7 1,11 -2,14 -9,20 -22,18 -12,0 -18,-6 -20,-18 -1,-7 -2,-15 -2,-22 0,-7 -1,-14 -1,-21 0,-2 0,-4 0,-7 0,-2 -1,-6 -1,-10zm-77 15c16,-11 29,-23 39,-38 10,-15 20,-30 30,-45 -6,-9 -14,-12 -24,-9 -10,3 -18,8 -24,13 -12,11 -19,23 -21,36 -2,14 -2,28 0,43zm301 20c9,4 15,8 18,12 3,5 4,12 3,20 -1,9 -5,15 -13,18 -7,4 -14,2 -21,-5 -1,-1 -3,-2 -4,-3 -2,-1 -4,-1 -5,-1 -13,0 -26,0 -39,0 -13,0 -26,1 -39,2 -5,0 -8,0 -10,0 -4,0 -8,3 -9,8 -5,10 -12,15 -22,13 -9,-2 -15,-9 -15,-21 -2,-10 0,-17 3,-22 3,-4 10,-8 21,-11 2,-1 4,-2 6,-2 2,0 4,0 7,-2 0,-12 1,-24 1,-35 1,-11 2,-23 2,-36 1,-5 1,-9 2,-14 0,-5 0,-10 1,-15 3,-24 14,-42 32,-56 15,-11 31,-13 47,-8 16,6 27,18 31,36 1,7 2,13 2,19 1,7 1,13 1,20 0,12 0,25 0,37 0,13 0,26 -1,39 0,3 0,5 1,7zm-39 2c0,-1 0,-2 0,-3 1,-1 1,-1 1,-3 0,-14 0,-29 0,-44 1,-16 1,-30 1,-45 0,-3 0,-7 0,-10 0,-4 -1,-8 -2,-11 -3,-9 -9,-12 -18,-7 -12,7 -18,17 -19,30 -1,13 -2,26 -3,39 0,13 -1,26 -2,40 0,2 0,5 0,7 0,3 0,6 0,9 7,-1 14,-1 21,-1 7,0 14,-1 21,-1zm151 -56c-5,9 -9,18 -12,27 -4,9 -7,18 -10,28 -1,4 -2,7 -3,11 -1,4 -2,7 -3,11 -5,13 -14,18 -25,14 -12,-3 -16,-12 -12,-26 4,-17 9,-33 14,-48 6,-16 13,-31 22,-46 -5,-7 -10,-13 -15,-19 -5,-6 -10,-12 -15,-18 -1,-2 -3,-4 -4,-5 -2,-2 -3,-3 -4,-5 -5,-11 -3,-20 5,-27 9,-6 18,-5 26,4 3,3 6,6 9,10 3,4 6,7 9,10 5,6 10,12 15,18 5,7 11,13 17,20 1,-5 2,-9 3,-12 0,-6 1,-11 1,-17 0,-5 0,-11 1,-16 1,-7 3,-12 7,-16 4,-4 8,-5 14,-5 5,0 10,2 13,6 4,4 5,10 5,16 0,7 -1,13 -1,18 0,6 -1,12 -1,18l0 13c3,-1 6,-4 7,-6 2,-3 4,-5 6,-7 4,-7 9,-14 13,-22 4,-7 8,-14 13,-21 6,-9 14,-13 22,-11 7,1 11,4 14,10 3,5 2,11 -1,18 -1,4 -4,8 -6,13 -3,4 -5,8 -8,12 -7,6 -10,13 -10,20 0,8 2,15 6,23 5,11 9,22 13,34 4,11 8,22 13,33 2,4 3,9 3,14 -2,11 -8,18 -18,19 -4,1 -8,0 -12,-2 -4,-3 -6,-7 -8,-12 -4,-11 -8,-21 -12,-31 -4,-10 -8,-20 -11,-31 -1,-2 -2,-3 -2,-5 -1,-2 -2,-4 -3,-6 -4,3 -7,6 -11,8 -3,3 -6,6 -9,9 -2,1 -3,5 -3,9 -1,7 -1,13 -2,19 0,6 0,12 0,18 -1,3 -1,6 -1,8 0,2 0,4 -1,8 -1,4 -4,8 -8,12 -4,3 -8,4 -13,3 -12,-2 -17,-9 -17,-21 0,-20 1,-39 3,-59 1,-11 -3,-17 -13,-20zm256 -42l-57 0c-4,-1 -8,-1 -12,-2 -4,-1 -8,-1 -13,-3 -5,-2 -8,-6 -10,-11 -2,-5 -3,-10 -2,-15 4,-10 12,-15 24,-15 15,0 29,1 44,1 15,0 29,1 44,1 9,0 18,-1 26,-1 9,-1 18,-1 27,-1 8,0 15,2 20,5 5,3 8,6 9,11 1,5 1,9 -1,14 -4,10 -11,15 -20,15l-79 0 0 1zm123 45c1,-19 4,-36 11,-52 7,-16 18,-30 33,-42 12,-9 25,-13 38,-13 14,0 26,5 37,15 8,5 14,13 21,24 3,6 5,12 3,17 -1,6 -4,10 -9,13 -5,3 -10,4 -16,3 -6,-2 -11,-5 -14,-10 -2,-2 -3,-4 -4,-6 -1,-2 -3,-4 -5,-5 -7,-9 -16,-10 -26,-3 -11,9 -18,20 -22,33 -3,15 -3,31 0,47 1,6 4,12 9,17 4,4 9,7 16,8 15,4 28,0 38,-11 2,-2 4,-5 5,-7 2,-3 3,-5 5,-8 9,-11 18,-13 28,-7 10,6 13,15 9,28 -5,14 -15,26 -29,35 -15,10 -30,15 -46,15 -18,-1 -33,-6 -46,-15 -14,-8 -23,-21 -28,-37 -2,-7 -4,-13 -5,-19 -1,-7 -2,-13 -3,-20zm245 92c-7,-8 -14,-15 -20,-21 -7,-7 -13,-13 -17,-20 -12,-15 -19,-31 -23,-48 -3,-17 -5,-35 -5,-53 0,-5 1,-9 3,-13 2,-5 5,-8 10,-10 4,-2 9,-3 14,-2 11,2 17,9 15,22 0,19 3,38 9,56 3,9 7,16 11,24 5,7 11,13 19,19 1,-2 2,-4 3,-6 1,-2 2,-4 3,-7 5,-14 9,-28 13,-43 4,-15 9,-30 13,-44 3,-6 5,-11 8,-13 5,-7 13,-9 21,-6 4,1 7,4 10,7 3,3 4,7 4,12 1,5 0,10 -2,16 -8,29 -18,58 -27,86 -10,28 -21,56 -33,83 -6,15 -13,27 -22,39 -8,12 -17,24 -26,35 -9,11 -19,13 -30,5 -4,-3 -7,-7 -8,-13 -1,-6 0,-11 3,-17 3,-4 6,-8 9,-12 3,-3 6,-7 9,-12 9,-10 16,-20 21,-32 5,-11 10,-22 15,-32zm211 -159c-9,-1 -17,-1 -25,-1 -7,0 -16,1 -24,4l-3 47c-1,14 -1,28 -1,42 0,14 0,28 -1,42 0,2 0,4 0,6 0,2 0,4 -2,6 -3,12 -10,18 -21,16 -12,-1 -18,-9 -18,-21 0,-7 0,-14 0,-21 0,-8 1,-15 1,-21 1,-13 1,-26 1,-39 0,-13 1,-26 1,-39l3 -25c2,-15 10,-26 24,-31 4,-2 9,-3 13,-4 5,-1 10,-2 15,-2 7,-1 14,-2 21,-1 7,0 14,0 21,0 19,0 30,9 34,28 1,9 2,19 2,29 0,20 -1,40 -2,59 0,19 -1,38 -1,58l0 6c-2,14 -9,21 -22,21 -11,-2 -18,-9 -19,-22 0,-6 0,-13 0,-20 1,-7 1,-13 1,-20 0,-14 1,-27 1,-41 1,-13 1,-27 2,-41 0,-2 -1,-4 -1,-7 0,-2 0,-5 0,-8zm108 88c1,7 2,13 5,18 2,5 6,10 9,15 7,7 15,8 23,4 10,-4 18,-11 23,-20 2,-2 3,-5 4,-7 1,-2 3,-4 4,-7 6,-9 14,-11 23,-7 4,2 7,5 9,9 2,4 2,8 1,13 -5,15 -13,29 -25,40 -12,12 -27,18 -45,19 -15,2 -28,-2 -38,-13 -7,-6 -12,-12 -17,-19 -4,-6 -7,-14 -10,-22 -4,-14 -7,-27 -9,-41 -2,-13 -1,-26 2,-41 7,-32 27,-52 60,-59 5,-1 10,-1 14,0 5,1 9,2 14,3 14,5 25,14 33,29 9,14 12,28 10,43 -2,20 -12,32 -31,37 -5,1 -10,2 -15,2 -4,1 -9,1 -14,2 -4,0 -8,1 -12,1 -4,0 -8,0 -12,0 -1,0 -2,1 -3,1 -1,0 -1,0 -3,0zm-5 -38c8,-1 17,-1 24,-2 8,0 16,0 25,-1 6,-1 9,-4 8,-11 -1,-3 -1,-6 -2,-8 0,-2 -1,-5 -3,-7 -7,-13 -18,-16 -32,-10 -8,4 -13,9 -16,16 -3,6 -4,14 -4,23zm176 113c0,10 0,19 -1,27 0,8 0,16 1,25 0,7 0,14 1,21 0,8 0,15 0,22 0,4 -1,7 -2,10 -1,3 -2,6 -5,8 -4,5 -10,7 -17,6 -7,-1 -12,-4 -15,-11 -1,-2 -2,-5 -2,-7 -1,-2 -1,-5 -2,-7 -1,-43 -2,-85 -4,-127 -1,-41 0,-83 4,-126 0,-5 1,-8 1,-11 2,-8 5,-14 9,-18 4,-4 10,-6 19,-8 33,-4 61,4 85,26 9,9 16,18 20,29 4,10 6,22 6,34 0,9 0,18 -2,26 -1,9 -3,18 -5,27 -5,19 -14,33 -29,41 -14,8 -28,13 -41,13 -4,1 -7,1 -11,1 -3,-1 -6,-1 -10,-1zm-4 -41c6,-1 12,-1 16,-1 4,0 8,-1 12,-1 5,-1 9,-3 14,-6 4,-2 7,-6 9,-11 4,-10 7,-21 8,-32 2,-10 0,-21 -3,-31 -3,-11 -10,-19 -19,-24 -10,-5 -21,-7 -33,-4 -1,18 -1,36 -2,53 -1,18 -1,37 -2,57zm277 -4c9,4 15,8 18,12 4,5 4,12 3,20 -1,9 -5,15 -13,18 -7,4 -14,2 -21,-5 -1,-1 -3,-2 -4,-3 -2,-1 -3,-1 -5,-1 -13,0 -26,0 -39,0 -13,0 -26,1 -39,2 -5,0 -8,0 -10,0 -4,0 -7,3 -9,8 -5,10 -12,15 -21,13 -10,-2 -16,-9 -16,-21 -1,-10 0,-17 3,-22 3,-4 10,-8 21,-11 2,-1 4,-2 6,-2 2,0 4,0 7,-2 0,-12 1,-24 2,-35 0,-11 1,-23 1,-36 1,-5 2,-9 2,-14 0,-5 1,-10 1,-15 3,-24 14,-42 32,-56 15,-11 31,-13 47,-8 17,6 27,18 31,36 1,7 2,13 2,19 1,7 1,13 1,20 0,12 0,25 0,37 0,13 0,26 -1,39 0,3 0,5 1,7zm-39 2c0,-1 0,-2 1,-3 0,-1 0,-1 0,-3 0,-14 0,-29 1,-44 0,-16 0,-30 0,-45 0,-3 0,-7 0,-10 0,-4 -1,-8 -2,-11 -3,-9 -9,-12 -17,-7 -13,7 -19,17 -20,30 -1,13 -2,26 -3,39 0,13 -1,26 -2,40 0,2 0,5 0,7 0,3 0,6 1,9 6,-1 13,-1 20,-1 7,0 14,-1 21,-1z"/>
   <path class="fil2" d="M3377 3836c0,10 0,19 0,27 -1,8 0,16 0,25 0,7 1,14 1,21 1,8 1,15 0,22 0,4 0,7 -1,10 -1,3 -3,6 -5,8 -5,5 -10,7 -17,6 -7,-1 -13,-4 -16,-11 -1,-2 -2,-5 -2,-7 0,-2 -1,-5 -1,-7 -2,-43 -3,-85 -4,-127 -2,-41 -1,-83 4,-126 0,-5 0,-8 1,-11 1,-8 4,-14 8,-18 4,-4 11,-6 19,-8 33,-4 61,4 85,26 10,9 16,18 20,29 4,10 6,22 6,34 1,9 0,18 -1,26 -2,9 -3,18 -5,27 -5,19 -15,33 -29,41 -15,8 -29,13 -41,13 -4,1 -8,1 -11,1 -4,-1 -7,-1 -11,-1zm-3 -41c6,-1 11,-1 15,-1 5,0 9,-1 12,-1 5,-1 10,-3 14,-6 4,-2 8,-6 9,-11 5,-10 7,-21 9,-32 1,-10 0,-21 -4,-31 -3,-11 -9,-19 -19,-24 -9,-5 -20,-7 -33,-4 0,18 -1,36 -2,53 0,18 -1,37 -1,57zm244 -39c-6,7 -10,13 -14,17 -4,5 -9,10 -14,15 -3,4 -7,8 -12,11 -4,4 -9,7 -14,11 -14,8 -27,10 -41,4 -13,-6 -21,-17 -24,-34 -4,-23 -4,-45 1,-66 5,-21 17,-39 36,-55 15,-14 34,-22 55,-23 17,-1 32,4 45,16 3,3 6,6 9,8 4,3 7,6 10,10 2,3 3,6 5,10 2,4 2,8 2,11 1,7 1,14 1,20 -1,7 -1,13 -1,20 0,10 0,21 1,32 0,11 0,21 0,32 0,3 0,6 1,10 0,4 0,7 0,11 -2,14 -9,20 -22,18 -12,0 -18,-6 -19,-18 -2,-7 -2,-15 -3,-22 0,-7 0,-14 -1,-21 0,-2 0,-4 0,-7 0,-2 0,-6 -1,-10zm-77 15c16,-11 29,-23 40,-38 10,-15 20,-30 30,-45 -7,-9 -15,-12 -24,-9 -10,3 -18,8 -24,13 -13,11 -20,23 -22,36 -2,14 -2,28 0,43zm233 -194c1,-2 2,-4 3,-6 0,-2 1,-4 2,-6 5,-11 13,-14 23,-10 10,5 12,12 9,23 -6,22 -18,33 -36,34 -10,0 -19,-1 -27,-4 -7,-4 -14,-10 -19,-18 -1,-3 -3,-7 -4,-11 -1,-9 2,-16 10,-20 4,-1 7,-1 11,0 5,1 8,4 10,8 2,3 4,5 7,7 2,3 6,3 11,3zm-40 172c6,-11 11,-21 16,-31 5,-10 11,-20 17,-30 4,-7 8,-12 12,-18 5,-6 9,-11 13,-16 4,-4 8,-7 13,-9 4,-2 9,-1 14,1 11,4 17,12 17,24l0 25c-1,18 -1,37 -1,55 0,19 -1,37 -1,56 0,2 0,4 0,6 0,2 -1,4 -1,7 -1,6 -4,11 -9,14 -5,3 -11,5 -16,3 -12,-1 -18,-8 -18,-22l0 -37c0,-5 0,-11 0,-17 0,-6 -1,-12 -3,-19 -2,3 -3,6 -4,8 -2,3 -4,6 -6,9 -4,8 -10,17 -15,26 -5,9 -10,18 -16,26 -5,7 -10,12 -17,16 -8,5 -17,6 -25,2 -8,-3 -12,-10 -14,-19 -2,-15 -3,-27 -2,-38 0,-20 1,-39 2,-58 0,-19 1,-38 2,-58 0,-2 0,-5 0,-7 0,-2 1,-4 1,-6 3,-11 11,-17 23,-15 4,0 9,2 12,5 4,3 6,7 6,12 1,7 1,14 0,21 0,7 0,14 -1,21 0,10 0,20 0,31 -1,10 -1,20 -2,31 1,0 1,0 2,0 0,0 0,1 1,1z"/>
  </g>
  <g id="_821758828368">
   <path class="fil2" d="M1239 716c0,11 1,22 4,35 2,13 6,26 12,38 5,12 13,23 25,33 13,12 24,10 32,-7 3,-5 5,-10 6,-15 1,-5 2,-10 3,-16 2,-3 2,-6 3,-9 0,-3 1,-6 2,-9 2,-6 5,-9 10,-12 4,-2 9,-3 14,-2 5,1 10,4 13,8 4,4 6,9 6,15 -1,15 -3,31 -8,45 -4,15 -12,27 -23,39 -11,12 -25,18 -41,19 -16,1 -31,-4 -44,-14 -13,-10 -23,-22 -30,-35 -8,-13 -14,-27 -18,-43 -16,-55 -16,-109 2,-163 5,-14 11,-27 19,-39 7,-12 17,-22 29,-30 20,-14 41,-15 63,-3 11,5 18,13 23,23 5,10 8,22 10,33 1,6 -1,12 -4,16 -3,5 -7,8 -12,9 -12,3 -21,-1 -28,-13 -1,-2 -2,-5 -2,-8 0,-2 -1,-5 -3,-8 -4,-12 -11,-15 -21,-8 -4,3 -7,6 -10,9 -3,4 -6,7 -9,11 -8,12 -14,26 -17,42 -4,16 -6,35 -6,59zm242 81c-7,6 -13,11 -18,17 -5,5 -6,13 -5,22 1,5 1,9 2,13 0,5 0,9 0,14 0,14 -7,22 -20,23 -6,2 -12,1 -17,-3 -4,-4 -7,-9 -8,-16 -2,-10 -2,-19 -2,-28 0,-9 0,-18 0,-27 0,-18 0,-37 0,-55 0,-18 0,-37 1,-56 0,-2 -1,-4 -1,-6 0,-2 0,-5 1,-6 1,-6 4,-10 8,-14 4,-3 9,-5 14,-5 6,0 10,1 15,5 4,3 6,8 7,14 1,5 2,10 2,16 -1,6 -1,12 -1,18l0 27c3,-3 5,-5 6,-6 1,-1 3,-2 4,-3 7,-9 13,-18 20,-27 6,-9 13,-18 19,-27 2,-2 3,-3 3,-4 0,-1 1,-2 2,-3 9,-10 19,-12 29,-5 11,5 14,14 10,25 -1,3 -2,5 -3,8 -1,2 -3,5 -5,7 -4,6 -8,12 -12,18 -4,6 -8,12 -13,17 -4,5 -5,11 -3,18 6,15 12,30 18,45 5,15 11,30 16,46 5,15 1,25 -14,29 -14,4 -24,-2 -29,-16 -4,-10 -7,-19 -9,-28 -3,-9 -6,-18 -9,-27 -2,-3 -3,-6 -4,-9 -2,-3 -3,-7 -4,-11zm167 -4c6,-11 12,-22 18,-32 5,-11 11,-22 18,-33 4,-7 8,-13 13,-19 4,-6 9,-11 14,-17 4,-4 8,-7 13,-9 5,-2 10,-2 15,1 12,4 18,12 18,25l0 27c-1,20 -1,40 -1,59 0,20 0,40 -1,60 0,2 0,4 0,6 0,2 0,5 -1,8 -1,6 -5,11 -10,15 -5,4 -11,5 -17,3 -12,-1 -18,-9 -18,-23l0 -40c0,-6 -1,-12 -1,-18 0,-7 -1,-13 -3,-21 -2,4 -3,7 -5,9 -1,3 -3,6 -5,9 -6,9 -11,19 -17,28 -5,10 -11,19 -17,29 -5,7 -11,13 -18,16 -9,6 -18,7 -26,3 -9,-4 -14,-11 -16,-21 -2,-16 -3,-29 -2,-41 0,-21 1,-42 2,-62 0,-20 1,-40 2,-62 0,-2 1,-5 1,-7 0,-2 0,-4 1,-6 3,-13 11,-19 23,-17 6,0 10,2 14,6 4,3 6,7 6,13 1,7 1,14 1,22 -1,7 -1,15 -2,22 0,11 0,22 0,33 -1,11 -1,22 -2,33 1,0 1,1 2,1 0,0 1,0 1,0zm319 46c10,4 17,8 20,13 3,5 4,12 3,21 -2,10 -6,16 -14,19 -8,4 -16,3 -23,-5 -1,-1 -3,-2 -4,-3 -2,-1 -4,-2 -6,-2 -14,0 -27,1 -41,1 -14,0 -28,1 -42,1 -5,0 -9,1 -11,1 -4,0 -8,3 -10,8 -5,11 -12,16 -22,14 -11,-2 -16,-9 -17,-22 -1,-11 0,-19 3,-23 4,-5 11,-9 23,-12 2,-2 4,-2 6,-2 2,0 5,-1 7,-2 1,-13 2,-26 2,-38 1,-12 2,-25 2,-38 1,-6 2,-11 2,-16 0,-5 1,-11 1,-16 4,-25 15,-45 34,-59 16,-12 33,-15 51,-9 17,6 28,19 33,38 1,8 2,14 3,21 0,7 0,14 0,21 0,13 0,26 0,40 0,13 0,27 -1,41 0,3 0,6 1,8zm-42 2c0,-1 1,-2 1,-3 0,-1 0,-2 0,-3 0,-16 1,-32 1,-48 0,-16 0,-32 0,-48 0,-3 0,-7 0,-11 0,-4 0,-8 -2,-11 -3,-10 -9,-13 -18,-8 -13,8 -20,18 -21,32 -1,14 -2,29 -3,42 -1,14 -2,29 -3,43 0,3 0,5 0,8 0,3 0,6 1,9 7,-1 15,-1 22,-1 8,0 15,0 22,-1zm175 -44c-7,6 -13,11 -18,17 -5,5 -6,13 -5,22 1,5 1,9 2,13 0,5 0,9 0,14 0,14 -6,22 -20,23 -6,2 -12,1 -17,-3 -4,-4 -7,-9 -8,-16 -2,-10 -2,-19 -2,-28 0,-9 0,-18 0,-27 0,-18 0,-37 0,-55 0,-18 0,-37 1,-56 0,-2 -1,-4 -1,-6 0,-2 0,-5 1,-6 1,-6 4,-10 8,-14 4,-3 9,-5 14,-5 6,0 10,1 15,5 4,3 6,8 7,14 1,5 2,10 2,16 -1,6 -1,12 -1,18l0 27c3,-3 5,-5 6,-6 1,-1 3,-2 4,-3 7,-9 13,-18 20,-27 6,-9 13,-18 20,-27 1,-2 2,-3 2,-4 0,-1 1,-2 3,-3 8,-10 18,-12 28,-5 11,5 14,14 10,25 -1,3 -2,5 -3,8 -1,2 -3,5 -5,7 -4,6 -8,12 -12,18 -4,6 -8,12 -13,17 -4,5 -5,11 -3,18 6,15 12,30 18,45 5,15 11,30 16,46 5,15 1,25 -14,29 -14,4 -23,-2 -29,-16 -4,-10 -7,-19 -9,-28 -3,-9 -6,-18 -9,-27 -2,-3 -3,-6 -4,-9 -1,-3 -3,-7 -4,-11zm248 4c-5,8 -11,14 -15,19 -4,5 -9,11 -14,16 -4,4 -8,8 -13,12 -5,4 -10,7 -15,11 -15,9 -30,10 -44,4 -14,-6 -23,-18 -26,-36 -5,-25 -4,-49 1,-71 6,-22 19,-41 38,-59 17,-15 37,-23 60,-24 18,-1 33,5 47,16 4,4 7,7 11,10 3,3 7,6 10,10 2,4 4,7 5,11 2,4 3,8 3,12 1,7 1,14 0,21 0,7 0,14 0,22 0,11 0,22 0,34 1,11 1,23 1,34 0,3 0,7 0,11 1,4 1,8 1,12 -2,14 -10,21 -24,19 -12,0 -19,-6 -21,-19 -1,-8 -2,-16 -2,-24 0,-7 -1,-15 -2,-23 0,-2 0,-4 0,-7 0,-2 0,-6 -1,-11zm-82 16c17,-11 31,-25 42,-40 11,-16 22,-32 33,-48 -8,-10 -16,-14 -26,-10 -11,3 -19,8 -26,14 -13,11 -21,24 -23,39 -2,14 -2,29 0,45zm526 11l64 0c3,0 5,0 7,-1 3,0 5,0 7,1 11,2 17,9 17,22 0,5 -2,10 -4,14 -3,4 -7,7 -12,9 -3,0 -6,0 -9,0 -3,0 -6,0 -9,0 -15,2 -30,3 -46,4 -15,2 -31,3 -46,4 -5,1 -11,1 -16,0 -5,-1 -9,-5 -13,-10 -6,-10 -5,-21 1,-32 7,-11 13,-23 20,-34 6,-12 13,-23 20,-34 8,-14 16,-27 25,-40 8,-13 15,-27 20,-42 5,-13 8,-26 9,-39 2,-21 -7,-27 -25,-21 -10,3 -18,8 -24,14 -7,5 -11,14 -14,25 -3,16 -12,23 -26,20 -13,-2 -19,-12 -17,-29 0,-3 1,-7 2,-12 3,-9 8,-18 14,-26 7,-8 14,-16 23,-22 9,-6 18,-11 27,-14 10,-4 19,-5 28,-4 18,2 32,9 43,22 12,14 16,33 14,58 -2,16 -5,31 -12,45 -6,15 -13,29 -21,42 -5,9 -11,18 -17,28 -6,9 -12,18 -17,27 -2,4 -4,8 -6,12 -2,4 -5,8 -7,13zm138 -101c1,-14 2,-28 4,-41 2,-14 5,-28 10,-41 5,-11 9,-20 13,-28 11,-17 24,-27 41,-29 17,-2 33,1 48,9 20,12 34,26 43,43 8,17 14,36 18,57 5,42 -1,82 -20,120 -4,7 -8,14 -12,21 -5,6 -10,13 -15,19 -13,14 -28,21 -45,21 -18,0 -33,-8 -46,-23 -12,-15 -21,-32 -27,-52 -1,-5 -2,-10 -4,-15 -1,-4 -2,-9 -3,-14 -1,-8 -2,-16 -2,-24 0,-7 -1,-15 -3,-23zm133 -4c-1,-4 -1,-9 -1,-13 0,-5 -1,-9 -2,-14 -1,-5 -2,-10 -3,-14 -1,-5 -3,-10 -6,-14 -2,-5 -5,-9 -8,-14 -3,-4 -7,-8 -11,-11 -8,-7 -16,-9 -24,-6 -8,2 -14,8 -18,18 -2,3 -3,7 -4,11 -1,4 -2,7 -3,11 -3,17 -5,34 -6,50 0,17 2,33 6,51 1,6 3,13 6,19 2,6 5,12 9,18 10,19 22,21 34,4 12,-14 19,-30 23,-46 4,-16 7,-33 8,-50zm297 -135c-1,2 -2,5 -3,8 -1,3 -2,6 -4,9 -16,31 -32,61 -47,90 -16,30 -32,60 -48,90 -6,13 -13,25 -19,37 -6,12 -12,24 -18,37 -10,19 -22,25 -35,18 -15,-6 -18,-19 -7,-39 13,-25 26,-49 39,-73 13,-24 26,-48 38,-73 10,-18 20,-36 29,-55 10,-18 20,-37 30,-55 2,-7 5,-12 9,-15 7,-6 15,-7 23,-2 7,3 12,11 13,23zm-208 58c2,-13 5,-24 10,-36 5,-11 14,-21 26,-29 18,-13 35,-12 51,3 3,2 5,4 8,6 2,2 4,4 6,7 8,9 13,19 14,31 1,12 -2,23 -9,34 -9,15 -23,26 -40,33 -9,4 -17,5 -25,4 -8,0 -15,-3 -21,-8 -6,-4 -11,-10 -14,-18 -4,-7 -6,-16 -6,-27zm45 6c18,-7 25,-14 23,-21l-14 -7c-2,5 -3,10 -4,14 -2,4 -3,9 -5,14zm129 206c-15,0 -27,-5 -37,-15 -9,-10 -14,-23 -14,-38 1,-8 2,-15 5,-22 3,-7 6,-14 10,-21 4,-8 11,-13 18,-16 8,-3 16,-5 24,-5 8,1 16,3 25,6 8,3 15,8 20,14 12,12 16,27 13,44 -4,15 -11,27 -24,38 -13,10 -26,15 -40,15zm-5 -48c1,1 2,1 2,2 1,0 2,0 2,1 3,-1 6,-3 8,-4 3,-2 5,-4 7,-6 6,-4 6,-8 1,-12 -2,-2 -4,-3 -8,-3 -3,0 -5,2 -7,4 -1,4 -2,7 -3,9 0,3 -1,6 -2,9zm-2757 341c0,-9 1,-17 1,-24 1,-8 1,-16 1,-24l0 -13c3,-11 10,-17 22,-17 5,0 9,2 13,5 4,3 6,7 6,12 1,9 1,18 1,26 0,9 1,17 1,26 0,19 0,38 1,58 0,20 1,39 1,59 0,13 -6,21 -20,22 -5,2 -10,0 -15,-4 -5,-4 -8,-10 -8,-16 -1,-6 -1,-12 -1,-19 0,-6 0,-12 0,-19 -1,-5 -1,-9 -1,-14 0,-5 0,-9 0,-15 -9,1 -18,1 -26,2 -8,0 -16,1 -25,1 0,11 0,21 0,31 -1,10 -1,20 -2,30 0,3 0,6 0,8 0,3 -1,5 -3,7 -2,6 -5,9 -10,11 -4,2 -9,3 -14,1 -10,-2 -15,-9 -15,-20 -1,-9 -1,-17 -1,-26 1,-8 1,-16 1,-25l0 -115c0,-6 0,-10 1,-14 1,-5 4,-9 8,-12 4,-3 9,-4 15,-3 11,1 17,8 18,19 1,7 1,13 1,20 0,6 0,12 0,19l0 24c5,0 9,0 13,0 4,1 8,1 13,1 3,0 7,0 11,-1 4,0 8,-1 13,-1zm221 52c-6,7 -11,14 -16,19 -4,5 -9,11 -14,16 -4,4 -8,8 -13,12 -5,4 -9,7 -15,11 -15,9 -30,10 -44,4 -14,-6 -23,-18 -26,-36 -5,-25 -4,-49 2,-71 5,-22 18,-42 38,-59 16,-15 36,-23 59,-24 18,-1 34,5 47,16 4,4 7,7 11,10 3,3 7,6 10,10 2,3 4,7 6,11 1,4 2,8 2,12 1,7 1,14 1,21 -1,7 -1,14 -1,21 0,12 0,23 1,35 0,11 0,23 0,34 0,3 0,7 1,11 0,4 0,8 0,11 -2,15 -10,22 -24,20 -12,0 -19,-6 -20,-20 -2,-7 -3,-15 -3,-23 0,-7 -1,-15 -1,-23 0,-2 0,-4 0,-7 0,-3 -1,-6 -1,-11zm-82 16c17,-11 31,-25 42,-41 10,-15 21,-31 32,-47 -8,-11 -16,-14 -26,-10 -11,3 -19,8 -26,14 -13,11 -20,24 -22,38 -2,15 -2,30 0,46zm567 -55c4,2 7,3 10,5 3,1 6,2 8,4 15,8 25,20 28,35 4,14 1,29 -10,43 -10,13 -22,22 -36,27 -14,5 -30,8 -46,9 -5,0 -9,0 -14,0 -5,-1 -9,-1 -14,-2 -14,-1 -23,-5 -29,-11 -6,-6 -9,-15 -9,-28 0,-25 0,-50 0,-75 0,-26 0,-51 -1,-76 0,-17 9,-26 27,-26 13,0 26,1 39,3 15,2 28,7 39,16 11,9 18,20 20,33 2,8 1,15 -1,22 -2,6 -5,13 -11,21zm-70 80c17,4 33,3 48,-2 8,-4 16,-8 21,-14 9,-8 8,-15 -3,-20 -20,-10 -41,-13 -64,-9 0,8 0,16 0,23 -1,7 -1,14 -2,22zm0 -90c2,0 3,1 4,3 5,-4 11,-6 15,-9 5,-2 10,-5 15,-8 8,-7 8,-14 0,-21 -10,-8 -21,-10 -33,-7 0,7 -1,14 -1,21 0,7 0,13 0,21zm161 32c0,-20 4,-39 12,-56 7,-16 19,-31 35,-45 13,-9 26,-13 41,-13 14,0 27,5 39,15 8,6 16,15 22,26 4,7 5,13 4,19 -1,6 -5,11 -10,14 -5,3 -11,4 -17,2 -6,-1 -12,-5 -15,-10 -2,-2 -3,-4 -4,-7 -2,-2 -3,-4 -5,-5 -8,-10 -18,-11 -28,-3 -12,9 -20,21 -24,36 -4,15 -4,32 0,49 1,7 4,13 9,18 5,5 11,9 18,10 16,4 29,0 40,-12 2,-3 4,-5 6,-8 2,-3 3,-6 5,-9 10,-11 19,-13 30,-7 11,6 14,16 10,30 -5,15 -16,28 -32,38 -16,10 -32,15 -48,15 -19,0 -36,-5 -50,-15 -14,-10 -24,-23 -29,-40 -3,-7 -5,-14 -6,-21 -1,-6 -2,-13 -3,-21z"/>
   <path class="fil2" d="M1622 1157c7,0 12,1 17,1 5,1 10,1 15,2 1,-4 2,-8 2,-12 1,-4 1,-8 3,-12 3,-11 8,-21 14,-30 6,-8 13,-16 22,-23 19,-12 36,-16 51,-12 16,4 29,15 40,34 4,8 7,15 9,23 2,9 4,17 5,26 3,14 4,28 3,42 -1,14 -5,28 -11,41 -5,12 -13,24 -23,34 -8,7 -16,11 -24,14 -9,2 -17,3 -26,1 -8,-1 -16,-4 -24,-10 -7,-5 -13,-12 -17,-20 -4,-8 -8,-15 -11,-23 -4,-8 -7,-17 -10,-26 -5,-1 -10,-1 -15,-2 -5,-1 -11,-1 -18,-3 0,9 0,18 0,27 0,9 0,18 1,27 0,2 0,5 1,7 0,2 0,3 -1,5 -1,6 -4,10 -7,13 -4,4 -8,5 -14,5 -11,2 -19,-3 -23,-15 -1,-2 -1,-5 -1,-7 0,-2 -1,-4 -1,-6 -1,-25 -2,-50 -2,-74 -1,-24 -2,-48 -2,-73l0 -14c0,-8 3,-14 8,-18 4,-5 10,-7 16,-6 7,0 12,2 16,8 4,5 6,11 6,18 0,10 0,19 1,29 0,9 0,19 0,29zm135 30c0,-11 -1,-21 -2,-31 -1,-9 -3,-19 -7,-28 -7,-15 -16,-17 -28,-6 -7,5 -11,11 -13,17 -6,17 -8,34 -6,49 3,16 9,32 17,47 2,4 5,6 9,6 5,1 9,-1 12,-4 5,-5 9,-11 11,-16 1,-6 2,-12 3,-17 1,-6 2,-11 4,-17zm434 12c-7,5 -13,11 -18,17 -4,5 -6,13 -5,22 1,4 1,9 2,13 0,4 0,9 0,14 0,14 -6,22 -20,23 -6,2 -12,0 -16,-3 -5,-4 -8,-9 -9,-17 -2,-9 -2,-18 -2,-27 0,-9 0,-18 0,-27 0,-18 0,-37 0,-55 0,-18 0,-37 1,-56 0,-2 0,-4 -1,-6 0,-2 0,-5 1,-7 1,-5 4,-9 8,-13 4,-4 9,-5 15,-5 5,0 10,1 14,5 4,3 7,7 7,13 2,6 2,11 2,17 -1,6 -1,12 -1,18l0 27c3,-3 5,-5 6,-6 2,-1 3,-2 4,-3 7,-9 13,-18 20,-27 7,-9 13,-18 20,-28 1,-1 2,-2 2,-3 1,-1 1,-2 3,-3 8,-10 18,-12 28,-5 11,5 14,13 10,25 -1,3 -2,5 -3,8 -1,2 -3,4 -5,7 -4,6 -8,12 -12,18 -3,6 -8,11 -12,17 -5,5 -6,11 -3,18 6,15 11,30 17,45 6,15 11,30 16,46 6,15 1,25 -14,29 -13,4 -23,-2 -29,-17 -4,-9 -7,-18 -9,-27 -3,-9 -6,-18 -9,-27 -1,-3 -3,-6 -4,-9 -1,-3 -3,-7 -4,-11zm124 22c-3,-17 -5,-32 -4,-47 0,-15 3,-30 9,-44 10,-26 28,-44 54,-51 8,-3 16,-3 25,-1 27,7 44,24 51,51 6,22 8,44 6,66 -1,21 -7,42 -17,64 -6,10 -13,18 -21,24 -9,5 -18,9 -27,9 -10,1 -19,-1 -29,-5 -10,-4 -18,-10 -25,-20 -6,-7 -11,-15 -14,-23 -3,-8 -6,-16 -8,-23zm94 -75c-1,-2 -1,-3 -1,-5 0,-1 -1,-3 -2,-5 -7,-14 -16,-17 -28,-10 -8,6 -13,13 -17,21 -5,15 -8,30 -6,44 1,14 5,28 12,42 1,2 3,5 6,9 4,4 8,6 13,6 5,0 9,-3 12,-8 2,-4 4,-7 5,-10 10,-26 12,-55 6,-84zm220 -28l-40 0 0 21c0,12 -1,23 0,35 0,12 0,23 -2,34 -1,9 -3,18 -6,26 -2,9 -5,17 -9,26 -1,4 -3,7 -7,11 -4,4 -7,7 -10,10 -5,4 -10,6 -16,6 -5,1 -11,0 -16,-2 -5,-2 -10,-5 -14,-9 -4,-4 -6,-8 -8,-13 -2,-8 -2,-15 3,-22 4,-6 10,-9 19,-10 2,0 4,0 5,0 2,1 4,1 7,1 3,-9 5,-19 7,-28 1,-10 2,-20 2,-30 0,-8 0,-17 0,-25 0,-9 -1,-17 -1,-26 0,-3 0,-6 0,-8 0,-3 0,-5 1,-9 1,-18 10,-28 26,-30 12,-2 24,-3 37,-3 12,0 24,0 36,1 8,0 14,2 19,8 6,5 9,11 10,19 2,13 3,26 2,37 -1,21 -2,42 -4,62 -1,21 -2,41 -4,63 0,3 0,6 -1,8 -2,12 -9,18 -21,19 -6,0 -10,-1 -14,-5 -4,-3 -7,-7 -8,-13 -2,-6 -2,-13 -1,-22 1,-19 3,-37 4,-55 1,-18 2,-36 4,-54 0,-3 1,-7 0,-11 0,-3 0,-7 0,-12zm216 0l-40 0 0 21c0,12 -1,23 0,35 0,12 0,23 -2,34 -1,9 -3,18 -6,26 -2,9 -5,17 -9,26 -1,4 -3,7 -7,11 -4,4 -7,7 -10,10 -5,4 -10,6 -16,6 -5,1 -11,0 -16,-2 -5,-2 -10,-5 -14,-9 -4,-4 -7,-8 -8,-13 -3,-8 -2,-15 3,-22 4,-6 10,-9 19,-10 2,0 4,0 5,0 2,1 4,1 7,1 3,-9 5,-19 7,-28 1,-10 2,-20 2,-30 0,-8 0,-17 0,-25 0,-9 -1,-17 -1,-26 0,-3 0,-6 0,-8 0,-3 0,-5 1,-9 1,-18 10,-28 26,-30 12,-2 24,-3 36,-3 13,0 25,0 37,1 7,0 14,2 19,8 6,5 9,11 10,19 2,13 3,26 2,37 -1,21 -2,42 -4,62 -1,21 -2,41 -4,63 0,3 0,6 -1,8 -2,12 -9,18 -21,19 -6,0 -10,-1 -14,-5 -4,-3 -7,-7 -8,-13 -2,-6 -2,-13 -1,-22 1,-19 2,-37 4,-55 1,-18 2,-36 4,-54 0,-3 1,-7 0,-11 0,-3 0,-7 0,-12zm137 91c0,7 2,14 4,19 3,5 6,10 10,16 8,7 16,9 25,5 11,-5 19,-12 25,-22 1,-3 2,-5 4,-7 1,-3 2,-5 4,-8 6,-10 15,-12 24,-8 5,3 8,6 10,10 2,4 3,9 1,14 -5,16 -14,31 -27,43 -13,12 -29,19 -48,20 -16,2 -29,-2 -40,-14 -8,-6 -14,-13 -18,-20 -5,-7 -8,-15 -11,-24 -5,-15 -8,-29 -10,-43 -2,-14 -1,-29 2,-44 7,-35 29,-56 64,-64 6,-1 11,-1 16,0 5,1 9,2 14,3 15,6 27,16 36,31 9,15 12,31 10,47 -2,21 -13,34 -33,39 -5,2 -11,2 -15,3 -5,0 -11,0 -16,1 -4,1 -9,1 -13,1 -4,0 -8,0 -13,0 -1,1 -2,1 -3,1 0,0 -1,0 -2,1zm-6 -41c9,-1 18,-2 26,-2 8,0 17,-1 26,-1 7,-1 10,-5 9,-12 -1,-4 -1,-6 -2,-9 -1,-2 -2,-4 -3,-7 -8,-14 -19,-18 -35,-11 -8,4 -14,10 -17,17 -3,7 -4,15 -4,25zm226 31c-7,5 -13,11 -17,17 -5,5 -7,13 -5,22 0,4 1,9 1,13 0,4 1,9 1,14 0,14 -7,22 -20,23 -7,2 -12,0 -17,-3 -5,-4 -8,-9 -9,-17 -1,-9 -2,-18 -2,-27 0,-9 0,-18 0,-27 0,-18 0,-37 0,-55 0,-18 0,-37 1,-56 0,-2 0,-4 0,-6 -1,-2 -1,-5 0,-7 1,-5 4,-9 9,-13 4,-4 9,-5 14,-5 5,0 10,1 14,5 4,3 7,7 8,13 1,6 1,11 1,17 0,6 0,12 0,18l0 27c2,-3 4,-5 6,-6 1,-1 2,-2 4,-3 6,-9 13,-18 19,-27 7,-9 13,-18 20,-28 1,-1 2,-2 3,-3 0,-1 1,-2 2,-3 9,-10 18,-12 29,-5 10,5 14,13 10,25 -2,3 -3,5 -4,8 -1,2 -2,4 -4,7 -4,6 -8,12 -12,18 -4,6 -8,11 -13,17 -5,5 -6,11 -3,18 6,15 12,30 17,45 6,15 11,30 17,46 5,15 0,25 -14,29 -14,4 -24,-2 -30,-17 -3,-9 -6,-18 -9,-27 -2,-9 -5,-18 -9,-27 -1,-3 -2,-6 -4,-9 -1,-3 -2,-7 -4,-11zm166 48c10,2 19,3 29,1 9,-1 18,-3 27,-3 2,-25 3,-50 4,-73 0,-24 1,-48 2,-73 0,-5 1,-9 1,-12 1,-5 4,-9 9,-12 4,-4 9,-5 14,-5 13,0 20,7 22,20 0,12 0,24 0,38 -1,13 -2,27 -2,41 -1,13 -2,27 -2,40 -1,13 -1,25 0,36 2,1 4,2 4,2 12,1 21,5 25,11 4,6 6,16 4,28 0,12 -6,19 -17,21 -11,3 -19,0 -24,-10 -2,-1 -3,-2 -4,-3 -1,-1 -2,-3 -3,-6 -10,1 -20,1 -31,2 -10,0 -21,1 -31,2 -17,2 -32,0 -45,-5 -10,-4 -17,-8 -21,-14 -5,-6 -7,-14 -8,-24l0 -70c0,-13 0,-27 0,-42 0,-14 1,-28 1,-42 0,-7 2,-13 4,-18 2,-5 5,-8 10,-10 4,-2 8,-3 13,-2 5,1 10,3 14,7 4,3 6,7 6,12 0,26 -1,50 -2,75 -1,24 -1,48 0,71 0,3 0,6 0,8 1,3 1,5 1,9zm230 -52c6,-11 11,-22 17,-32 6,-11 12,-22 18,-33 4,-7 8,-13 13,-19 5,-6 9,-11 14,-17 4,-4 8,-8 13,-10 5,-2 10,-1 16,1 12,4 17,13 17,26l0 27c0,20 -1,39 -1,59 0,20 0,40 -1,60 0,2 0,4 0,6 0,2 0,5 -1,7 -1,7 -4,12 -9,16 -6,3 -11,5 -17,3 -13,-1 -19,-9 -19,-23l0 -40c0,-6 0,-12 -1,-18 0,-7 -1,-13 -3,-21 -1,4 -3,7 -4,9 -2,3 -4,6 -6,9 -5,9 -11,19 -16,28 -6,10 -12,19 -18,29 -5,7 -11,12 -17,16 -10,6 -18,6 -27,3 -9,-4 -14,-11 -16,-21 -2,-16 -2,-29 -2,-41 1,-21 1,-42 2,-62 1,-20 1,-41 2,-62 1,-2 1,-5 1,-7 0,-2 0,-5 1,-6 3,-13 11,-19 24,-17 5,0 10,2 14,6 4,3 6,7 6,12 0,8 0,15 0,23 0,7 -1,15 -1,22 0,11 -1,22 -1,33 0,11 -1,22 -1,33 0,0 1,0 1,1 0,0 1,0 2,0zm201 -38c6,0 12,1 17,1 4,1 9,1 14,2 2,-4 3,-8 3,-12 0,-4 1,-8 2,-12 4,-11 8,-21 14,-30 6,-8 14,-16 23,-23 18,-12 35,-16 51,-12 15,4 29,15 40,34 4,8 7,15 9,23 2,9 3,17 5,26 2,14 3,28 2,42 -1,14 -4,28 -10,41 -5,12 -13,24 -24,34 -7,7 -15,11 -24,14 -8,2 -17,3 -25,1 -9,-1 -17,-4 -24,-10 -7,-5 -13,-12 -18,-20 -4,-8 -7,-15 -11,-23 -3,-8 -6,-17 -10,-26 -4,-1 -9,-1 -15,-2 -5,-1 -11,-1 -17,-3 0,9 0,18 0,27 0,9 0,18 1,27 0,2 0,5 0,7 0,2 0,3 0,5 -2,6 -4,10 -8,13 -3,4 -8,5 -13,5 -11,2 -19,-3 -24,-15 -1,-2 -1,-5 -1,-7 0,-2 0,-4 -1,-6 0,-25 -1,-50 -2,-74 0,-24 -1,-48 -2,-73l0 -14c1,-8 4,-14 8,-18 5,-5 10,-7 17,-6 7,0 12,2 16,8 4,5 6,11 6,18 0,10 0,19 0,29 1,9 1,19 1,29zm134 30c0,-11 0,-21 -1,-31 -1,-9 -4,-19 -8,-28 -6,-15 -15,-17 -27,-6 -7,5 -11,11 -13,17 -7,17 -9,34 -6,49 2,16 8,32 17,47 2,4 5,6 9,6 4,1 8,-1 11,-4 6,-5 9,-11 11,-16 2,-6 3,-12 4,-17 1,-6 2,-11 3,-17zm170 86c0,5 -2,9 -6,13 -2,6 -4,12 -7,18 -2,6 -4,12 -7,18 -1,5 -3,7 -5,9 -3,2 -5,3 -8,5 -3,1 -5,2 -6,4 -10,1 -17,0 -22,-3 -5,-3 -7,-7 -6,-12 2,-3 3,-7 4,-10 2,-3 3,-7 4,-10 2,-3 3,-6 4,-8 1,-3 1,-5 1,-9 -5,-4 -8,-9 -8,-15 0,-6 3,-11 9,-15 5,-4 12,-6 21,-6 6,-1 11,0 16,2 5,2 9,5 12,9 2,2 4,4 4,8l0 2zm-3053 293c4,1 7,3 10,4 3,2 5,3 8,4 15,9 25,21 28,36 4,14 0,29 -10,43 -10,13 -22,22 -36,27 -14,5 -30,8 -46,9 -5,0 -9,0 -14,0 -5,-1 -9,-1 -14,-2 -14,-1 -24,-5 -30,-11 -5,-6 -8,-15 -8,-28 0,-25 0,-51 0,-76 0,-25 0,-50 -1,-75 0,-18 9,-26 27,-26 13,0 26,1 39,3 15,1 28,7 39,16 11,9 18,20 20,33 1,8 1,15 -1,22 -2,6 -5,13 -11,21zm-70 80c17,4 33,3 48,-2 8,-4 15,-8 21,-14 9,-8 8,-15 -3,-20 -20,-11 -42,-14 -64,-9 0,8 0,16 0,23 -1,7 -1,14 -2,22zm0 -90c1,0 3,1 4,3 5,-4 10,-7 15,-9 5,-2 10,-5 15,-8 8,-7 8,-14 0,-21 -10,-8 -21,-10 -33,-7 -1,7 -1,14 -1,21 0,6 0,13 0,21zm227 45c-7,5 -13,11 -18,16 -5,6 -6,13 -5,23 1,4 1,9 2,13 0,4 0,9 0,13 0,15 -6,23 -20,24 -6,1 -12,0 -17,-3 -4,-4 -7,-9 -8,-17 -2,-9 -2,-18 -2,-27 0,-9 0,-18 0,-27 0,-19 0,-37 0,-55 0,-18 0,-37 1,-56 0,-2 -1,-4 -1,-6 0,-3 0,-5 1,-7 1,-5 4,-9 8,-13 4,-4 9,-5 14,-5 6,0 10,1 15,4 4,4 6,8 7,14 1,6 2,11 2,17 -1,6 -1,12 -1,18l0 27c3,-3 5,-5 6,-6 1,-1 3,-2 4,-3 7,-9 13,-19 20,-27 6,-9 13,-18 20,-28 1,-1 2,-2 2,-3 0,-1 1,-2 3,-4 8,-9 18,-11 28,-5 11,6 14,14 10,26 -1,3 -2,5 -3,8 -1,2 -3,4 -5,7 -4,6 -8,12 -12,18 -4,6 -8,11 -13,17 -4,5 -5,11 -3,17 6,16 12,31 18,46 5,15 11,30 16,45 5,16 1,26 -14,30 -14,3 -23,-2 -29,-17 -4,-9 -7,-18 -9,-27 -3,-9 -6,-18 -9,-27 -2,-3 -3,-7 -4,-9 -1,-3 -3,-7 -4,-11z"/>
   <path class="fil2" d="M1451 1520l-39 0 0 21c-1,12 -1,23 -1,35 1,11 0,23 -1,34 -1,9 -3,18 -6,26 -3,8 -6,17 -9,25 -1,4 -4,8 -7,12 -4,3 -7,7 -11,10 -4,4 -9,6 -15,6 -6,1 -11,0 -16,-2 -6,-2 -10,-5 -14,-9 -4,-4 -7,-8 -8,-14 -3,-7 -2,-15 2,-21 5,-6 11,-10 20,-10 2,0 3,0 5,0 2,1 4,1 7,1 3,-9 5,-19 6,-28 2,-10 2,-20 2,-30 0,-8 0,-17 0,-25 0,-9 0,-17 -1,-26 0,-3 0,-6 0,-8 0,-3 1,-6 1,-9 2,-18 11,-29 27,-31 12,-1 24,-2 36,-2 12,0 24,0 36,0 8,0 15,3 20,8 5,6 9,12 10,20 2,13 3,26 2,37 -1,21 -3,42 -4,62 -1,21 -3,41 -4,62 0,4 0,7 -1,9 -2,12 -9,18 -22,19 -5,0 -10,-2 -14,-5 -3,-3 -6,-7 -7,-13 -2,-6 -3,-13 -1,-22 1,-19 2,-37 4,-55 1,-18 2,-36 3,-54 1,-4 1,-7 1,-11 0,-3 -1,-7 -1,-12zm137 39c7,0 12,1 17,1 5,0 10,1 15,2 1,-4 2,-8 2,-12 1,-4 2,-8 3,-12 3,-11 8,-21 14,-30 6,-8 13,-16 22,-23 19,-12 36,-16 51,-12 16,3 29,15 40,34 4,7 7,15 9,23 2,9 4,17 5,26 3,13 4,27 3,42 -1,14 -5,28 -11,41 -5,12 -13,24 -23,34 -8,7 -15,11 -24,14 -9,2 -17,2 -26,1 -8,-1 -16,-4 -24,-10 -7,-5 -13,-12 -17,-20 -4,-8 -8,-15 -11,-23 -4,-8 -7,-17 -10,-26 -5,-1 -10,-1 -15,-2 -5,-1 -11,-2 -18,-3 0,9 0,18 0,27 0,9 1,18 1,27 0,2 0,4 1,6 0,2 0,4 -1,6 -1,6 -4,10 -7,13 -4,4 -8,5 -14,5 -11,1 -19,-3 -23,-15 -1,-2 -1,-5 -1,-7 0,-2 -1,-5 -1,-7 -1,-25 -2,-49 -2,-73 -1,-24 -2,-49 -2,-73l0 -14c0,-8 3,-14 8,-19 4,-4 10,-6 17,-5 6,0 11,2 15,7 4,6 6,12 6,19 0,9 0,19 1,28 0,10 0,20 0,30zm135 30c0,-11 -1,-21 -2,-31 -1,-9 -3,-19 -7,-28 -7,-15 -16,-17 -28,-6 -6,5 -11,11 -13,17 -6,17 -8,33 -6,49 3,16 9,32 17,47 2,4 5,6 10,6 4,0 8,-1 11,-4 5,-6 9,-11 11,-16 1,-6 2,-12 3,-17 1,-6 2,-11 4,-17zm190 -12c1,-14 1,-29 0,-44 -1,-14 -1,-29 0,-44 1,-13 9,-19 24,-19 14,0 22,6 22,19 0,12 0,24 0,36 0,12 0,24 0,36l0 99c0,6 0,10 0,12 -2,11 -10,16 -22,16 -13,0 -20,-5 -23,-16 -1,-3 -1,-8 -1,-14l0 -39 -16 0c-41,1 -66,-15 -77,-48 -4,-13 -6,-26 -7,-40 -1,-14 -1,-27 0,-41 0,-5 2,-9 7,-13 4,-4 9,-5 14,-5 14,-2 22,4 24,17 1,6 1,12 1,18 0,6 0,12 1,18 0,6 1,12 2,17 0,6 1,11 3,17 2,10 6,17 12,20 6,3 15,3 27,1 1,0 3,-1 4,-1 1,0 2,0 5,-2zm225 28c-6,7 -11,14 -16,19 -4,5 -9,10 -14,16 -4,4 -8,8 -13,12 -4,4 -9,7 -15,10 -15,10 -29,11 -44,5 -14,-6 -22,-18 -26,-36 -4,-25 -4,-49 2,-71 5,-22 18,-42 38,-59 16,-15 36,-23 59,-25 18,0 34,5 48,17 3,4 6,7 10,10 4,3 7,6 10,10 2,3 4,7 6,11 1,4 2,8 2,12 1,7 1,14 1,21 -1,7 -1,14 -1,21 0,12 0,23 1,34 0,12 0,23 0,35 0,3 0,7 1,11 0,3 0,7 0,11 -2,15 -10,21 -23,20 -13,0 -20,-6 -21,-20 -2,-8 -2,-15 -3,-23 0,-7 -1,-15 -1,-23 0,-2 0,-4 0,-7 0,-3 -1,-6 -1,-11zm-82 16c17,-11 31,-25 42,-41 11,-15 21,-31 32,-47 -7,-11 -16,-14 -26,-10 -10,3 -19,8 -26,14 -13,11 -20,24 -22,38 -2,15 -2,30 0,46zm272 -8c-5,-1 -9,-1 -12,1 -3,3 -6,6 -8,9 -6,9 -11,19 -15,29 -4,9 -9,19 -15,27 -9,11 -19,14 -31,9 -13,-6 -16,-16 -9,-30 4,-9 8,-17 13,-26 5,-8 10,-17 15,-26 -4,-3 -7,-6 -10,-9 -3,-2 -6,-5 -9,-9 -9,-12 -12,-25 -11,-40 1,-15 6,-27 16,-38 12,-13 26,-23 41,-30 15,-7 32,-9 52,-5 13,2 22,6 26,12 4,5 7,15 8,28 0,16 1,30 1,44 0,13 0,25 0,37 0,12 -1,24 -2,35 0,12 -1,24 -3,36 -2,16 -11,22 -25,21 -6,0 -11,-3 -15,-7 -4,-4 -6,-9 -6,-16 -1,-7 -1,-14 -1,-21 0,-8 0,-15 0,-22l0 -9zm6 -95c-11,-1 -21,1 -31,7 -10,6 -17,12 -20,20 -2,5 -2,10 1,16 2,5 7,8 13,8 6,1 12,1 21,-1 8,-2 12,-6 13,-12 1,-6 1,-12 1,-19 1,-6 1,-12 2,-19zm449 -124c-3,8 -6,14 -8,19 -2,5 -3,10 -5,15 -3,12 -3,21 0,28 3,7 10,13 21,19 5,1 9,3 13,5 4,2 8,3 12,5 28,14 44,37 46,68 2,14 2,30 0,49 -1,19 -5,35 -12,47 -7,14 -17,25 -30,32 -13,8 -26,10 -41,9 -16,-1 -29,-7 -41,-16 -11,-10 -19,-22 -24,-38 -2,-8 -4,-19 -6,-33 -2,-15 -4,-26 -5,-34 -2,-14 4,-24 19,-28 9,-4 17,-2 24,3 6,6 8,13 5,23 -1,3 -1,8 -1,13 0,6 1,11 2,17 1,6 2,12 3,17 2,5 3,10 4,13 4,10 11,16 22,18 10,2 18,-2 25,-11 7,-11 11,-25 12,-43 1,-18 0,-34 -4,-47 -3,-8 -10,-14 -21,-19 -5,-3 -10,-5 -15,-7 -5,-3 -10,-5 -16,-8 -26,-12 -39,-34 -39,-64 -1,-25 5,-47 19,-67 8,-15 20,-24 34,-26 14,-3 28,1 41,11 9,6 17,14 23,22 5,9 9,19 10,30 2,5 2,11 0,16 -2,14 -9,21 -21,21 -7,0 -12,-1 -16,-5 -4,-4 -7,-10 -8,-17 -1,-3 -1,-7 -2,-10 0,-3 -1,-6 -2,-9 -1,-3 -4,-6 -7,-8 -3,-3 -7,-6 -11,-10zm197 158c-4,13 -8,27 -12,41 -4,14 -8,28 -11,43 -2,4 -3,9 -3,14 0,4 -1,9 -2,13 -2,19 -11,27 -25,25 -7,0 -12,-3 -16,-8 -4,-5 -6,-12 -5,-21 1,-6 2,-13 3,-19 1,-6 3,-12 4,-19 9,-37 19,-74 31,-110 11,-36 25,-71 42,-106 4,-9 8,-18 13,-25 5,-8 10,-16 17,-23 10,-13 22,-18 35,-16 14,3 25,11 31,27 1,4 3,8 4,12 1,4 2,9 3,13 2,14 4,28 6,42 2,15 4,29 7,42 5,29 10,58 14,87 5,28 9,56 15,85 0,3 0,7 2,12 0,15 -7,23 -19,25 -6,2 -12,1 -17,-2 -4,-3 -8,-8 -9,-15 -2,-8 -4,-16 -5,-24 -2,-8 -3,-16 -5,-24 -2,-10 -4,-20 -5,-30 -2,-10 -3,-19 -5,-28 0,0 0,-2 -2,-4 -14,-2 -28,-3 -42,-4 -14,-1 -29,-2 -44,-3zm62 -151c-11,17 -20,34 -27,51 -7,17 -13,34 -20,52 11,4 22,6 33,7 10,0 21,0 31,-1 -2,-19 -5,-37 -7,-55 -1,-18 -5,-36 -10,-54zm135 92l0 -112c0,-3 0,-5 0,-7 0,-2 0,-5 0,-7 2,-6 5,-11 9,-14 4,-3 9,-5 14,-5 13,0 20,6 22,19 1,2 1,6 1,11 0,23 0,46 -1,70 0,24 0,47 0,70 0,16 0,34 0,54 1,20 1,38 2,53 1,9 2,15 4,16 2,2 7,3 17,3 5,0 10,-1 15,-1 4,0 9,-1 14,-1 4,0 8,0 12,-1 3,0 7,0 10,0 14,0 22,6 24,19 1,6 -1,12 -4,16 -3,4 -9,7 -16,8 -15,4 -29,5 -42,5 -12,1 -25,0 -39,-2 -22,-4 -35,-16 -38,-37 -1,-8 -2,-15 -3,-22 0,-7 -1,-14 -2,-21l0 -114 1 0zm237 -98c-1,16 -2,32 -2,46 -1,15 -1,30 -2,45 14,0 27,-1 39,-3 3,0 6,-1 10,-1 3,0 6,-1 10,-1 15,2 24,9 24,21 2,14 -5,22 -21,24 -6,1 -13,2 -19,2 -7,1 -14,2 -20,3 -7,1 -15,2 -24,3 1,14 1,32 2,54 0,21 0,39 0,54 7,-1 14,-1 20,-1 6,0 12,-1 18,-1 6,-1 11,-1 17,-2 6,0 11,-1 17,-1 8,0 15,2 19,6 5,4 7,10 7,17 -1,7 -3,13 -8,17 -5,5 -11,7 -19,7 -11,1 -22,2 -32,2 -10,1 -21,2 -32,2 -8,1 -15,1 -23,0 -7,0 -14,-4 -19,-12 -7,-8 -10,-16 -10,-23 0,-10 -1,-22 -1,-34 0,-13 0,-25 0,-38 0,-13 -1,-26 -1,-38 0,-12 0,-23 0,-33 0,-21 0,-42 0,-64 0,-21 1,-42 2,-63 0,-12 2,-20 6,-24 4,-5 12,-7 23,-8 11,-1 21,-2 32,-3 11,-1 21,-1 32,-2 3,0 6,0 8,0 2,0 5,1 8,2 13,3 18,11 16,24 -1,12 -8,19 -21,20 -7,1 -14,1 -22,1 -7,0 -15,1 -22,1 -2,0 -4,1 -6,1 -2,0 -4,0 -6,0zm218 280c0,5 -2,9 -6,13 -2,6 -4,12 -6,18 -3,6 -5,12 -8,18 -1,4 -3,7 -5,9 -2,2 -5,3 -8,5 -2,1 -4,2 -6,4 -9,1 -17,0 -22,-3 -5,-3 -7,-7 -5,-12 1,-4 2,-7 4,-10 1,-3 2,-7 4,-10 1,-3 2,-6 3,-8 1,-3 2,-6 2,-9 -6,-4 -8,-9 -8,-15 0,-6 2,-11 8,-15 6,-4 13,-6 21,-6 6,-1 12,0 17,2 5,2 8,5 11,8 3,2 4,5 4,9l0 2zm-2749 370c10,4 17,8 20,13 3,5 4,12 3,21 -1,9 -6,16 -14,19 -8,4 -16,2 -23,-5 -1,-1 -3,-2 -4,-3 -2,-1 -4,-2 -6,-2 -13,0 -27,0 -41,1 -14,0 -28,0 -42,1 -5,0 -9,0 -11,1 -4,0 -8,3 -10,8 -5,11 -12,16 -22,14 -11,-2 -16,-9 -17,-22 -1,-11 0,-19 3,-24 4,-4 11,-8 23,-12 2,-1 4,-2 6,-2 2,0 5,0 7,-2 1,-13 2,-25 2,-38 1,-12 2,-24 2,-38 1,-5 2,-10 2,-16 0,-5 1,-10 1,-15 4,-25 15,-45 34,-60 17,-12 34,-15 51,-9 17,6 29,19 33,39 1,7 2,14 3,21 0,6 0,13 0,21 0,13 0,26 0,40 0,13 0,27 -1,41 0,3 0,6 1,8zm-41 2c0,-2 0,-3 0,-3 0,-1 1,-2 1,-3 0,-16 0,-32 0,-48 0,-17 1,-33 1,-48 0,-4 0,-7 0,-11 0,-4 -1,-8 -2,-11 -4,-11 -10,-13 -19,-8 -13,7 -20,18 -21,32 -1,14 -2,28 -3,42 -1,14 -2,28 -3,43 0,2 0,5 0,8 0,2 0,5 1,9 7,-1 15,-1 22,-1 8,0 15,-1 23,-1zm114 -22c-4,-17 -5,-32 -5,-47 0,-15 4,-30 10,-44 9,-27 28,-44 54,-52 8,-2 16,-3 25,-1 27,8 44,25 51,52 5,22 7,44 6,66 -1,21 -7,42 -18,63 -5,11 -12,19 -21,25 -8,5 -17,8 -27,9 -9,1 -19,-1 -28,-5 -10,-4 -18,-10 -26,-20 -6,-7 -10,-15 -14,-23 -3,-8 -5,-16 -7,-23zm94 -75c-1,-2 -1,-3 -1,-5 0,-2 -1,-3 -2,-5 -7,-14 -16,-17 -28,-10 -8,6 -14,13 -17,21 -6,15 -8,29 -7,44 1,14 6,28 13,42 1,2 3,5 6,9 3,4 7,5 12,5 5,0 9,-2 13,-7 2,-4 3,-7 5,-10 10,-27 11,-55 6,-84zm437 53c-7,5 -13,11 -18,16 -5,6 -6,13 -5,23 1,4 1,9 2,13 0,4 0,9 0,13 0,15 -6,23 -20,24 -6,1 -12,0 -17,-3 -4,-4 -7,-9 -8,-17 -2,-9 -2,-18 -2,-27 0,-9 0,-18 0,-27 0,-19 0,-37 0,-55 0,-18 0,-37 1,-56 0,-2 -1,-4 -1,-6 0,-3 0,-5 1,-7 1,-5 4,-10 8,-13 4,-4 9,-6 14,-6 6,0 10,2 15,5 4,4 6,8 7,14 1,5 2,11 2,17 -1,6 -1,12 -1,18l0 27c3,-3 5,-5 6,-6 1,-1 3,-2 4,-3 7,-10 13,-19 20,-28 6,-8 13,-18 20,-27 1,-1 2,-2 2,-3 0,-1 1,-2 3,-4 8,-10 18,-11 28,-5 11,6 14,14 10,26 -1,3 -2,5 -3,7 -1,3 -3,5 -5,8 -4,6 -8,12 -12,18 -4,6 -8,11 -13,17 -4,5 -5,11 -3,17 6,16 12,31 18,46 5,15 11,30 16,45 5,16 1,25 -14,30 -14,3 -23,-2 -29,-17 -4,-9 -7,-18 -9,-27 -3,-9 -6,-18 -9,-27 -2,-3 -3,-7 -4,-10 -1,-3 -3,-6 -4,-10zm124 22c-3,-17 -5,-32 -5,-47 1,-15 4,-30 10,-44 10,-27 28,-44 54,-52 8,-2 16,-3 25,-1 27,8 44,25 51,52 6,22 8,44 6,66 -1,21 -7,42 -18,63 -5,11 -12,19 -20,25 -9,5 -18,8 -28,9 -9,1 -19,-1 -28,-5 -10,-4 -18,-10 -25,-20 -6,-7 -11,-15 -14,-23 -4,-8 -6,-16 -8,-23zm94 -75c-1,-2 -1,-3 -1,-5 0,-1 -1,-3 -2,-5 -7,-14 -16,-17 -28,-10 -8,6 -13,13 -17,21 -6,15 -8,29 -7,44 2,14 6,28 13,42 1,2 3,5 6,9 3,4 8,5 13,5 4,0 9,-2 12,-7 2,-4 4,-7 5,-10 10,-27 12,-55 6,-84z"/>
   <path class="fil2" d="M1894 1955c1,-9 1,-17 1,-25 1,-7 1,-15 1,-23l0 -13c3,-12 11,-18 22,-18 5,1 9,3 13,6 4,3 6,7 7,12 0,9 1,17 1,26 0,9 0,17 0,26 0,19 1,38 1,58 0,20 1,39 1,58 0,14 -6,22 -19,23 -6,1 -11,0 -16,-4 -5,-5 -7,-10 -8,-17 -1,-6 -1,-12 -1,-18 0,-6 0,-13 0,-19 -1,-5 -1,-9 -1,-14 0,-5 0,-10 0,-15 -9,1 -18,1 -26,2 -8,0 -16,0 -24,1 0,11 -1,21 -1,31 0,10 -1,19 -1,29 0,4 -1,7 -1,9 0,3 -1,5 -2,7 -2,5 -6,9 -10,11 -5,2 -10,2 -15,1 -10,-2 -15,-9 -15,-21 -1,-8 -1,-17 0,-25 0,-8 0,-17 0,-25l0 -115c0,-6 0,-10 1,-14 1,-5 4,-9 8,-12 5,-3 9,-4 15,-4 11,2 17,8 19,20 0,7 1,13 1,20 0,6 0,12 0,19l0 24c4,0 8,0 12,0 4,0 9,1 13,1 4,0 7,-1 11,-1 4,0 8,-1 13,-1zm138 96c10,2 19,3 28,1 10,-2 19,-3 28,-3 2,-26 3,-50 4,-74 0,-23 1,-47 2,-72 0,-5 0,-9 1,-12 1,-5 4,-9 8,-13 5,-3 10,-5 15,-5 13,0 20,7 22,21 0,11 0,24 0,37 -1,14 -2,28 -2,41 -1,14 -2,28 -2,41 -1,13 -1,25 0,36 2,1 4,2 4,2 12,1 21,5 25,11 4,6 6,16 4,28 0,12 -6,19 -18,21 -10,3 -18,0 -23,-10 -2,-1 -3,-3 -4,-4 -1,0 -2,-2 -3,-5 -10,1 -20,1 -31,2 -10,0 -21,1 -32,2 -16,1 -31,0 -44,-5 -10,-4 -17,-9 -21,-14 -5,-6 -7,-14 -8,-25l0 -69c0,-14 0,-28 0,-42 0,-14 1,-28 1,-42 0,-7 2,-13 4,-19 2,-4 5,-8 10,-10 4,-2 8,-2 13,-2 5,2 10,4 14,7 4,4 6,8 6,13 0,25 -1,50 -2,74 -2,25 -2,49 0,72 0,3 0,6 0,8 1,2 1,5 1,9zm311 -44c-6,7 -11,13 -16,19 -4,5 -9,10 -14,16 -4,4 -8,8 -13,11 -5,4 -9,8 -15,11 -15,10 -30,11 -44,5 -14,-6 -23,-18 -26,-36 -5,-25 -4,-49 2,-71 5,-22 18,-42 38,-59 16,-15 36,-23 59,-25 18,0 34,5 47,17 4,3 7,7 11,10 3,3 7,6 10,10 2,3 4,7 6,11 1,4 2,8 2,12 1,7 1,14 1,21 -1,7 -1,14 -1,21 0,11 0,23 1,34 0,12 0,23 0,35 0,3 0,6 1,10 0,4 0,8 0,12 -2,15 -10,21 -24,20 -12,0 -19,-7 -20,-20 -2,-8 -3,-15 -3,-23 0,-8 -1,-15 -1,-23 0,-2 0,-5 0,-7 0,-3 -1,-6 -1,-11zm-82 16c17,-11 31,-25 42,-41 10,-16 21,-31 32,-47 -8,-11 -16,-14 -26,-10 -11,3 -19,8 -26,14 -13,11 -20,24 -22,38 -2,15 -2,30 0,46zm550 -8c-6,-1 -10,-1 -13,1 -3,3 -5,5 -7,9 -6,9 -11,19 -15,28 -4,10 -9,20 -16,28 -8,11 -19,14 -30,9 -13,-7 -16,-16 -9,-30 4,-9 8,-18 13,-26 5,-8 10,-17 14,-26 -3,-3 -6,-6 -10,-9 -3,-3 -6,-6 -8,-9 -9,-12 -13,-25 -12,-40 1,-15 7,-27 16,-38 13,-13 27,-23 42,-30 14,-7 32,-9 51,-6 14,3 22,7 27,13 4,5 7,15 8,28 0,16 0,30 1,43 0,14 0,26 0,38 -1,12 -1,24 -2,35 -1,12 -2,24 -4,36 -2,15 -10,22 -25,21 -6,-1 -10,-3 -14,-7 -4,-4 -6,-9 -6,-16 -1,-7 -1,-14 -1,-21 0,-8 0,-15 0,-22l0 -9zm6 -95c-11,-1 -21,1 -32,7 -10,6 -17,12 -20,20 -2,5 -2,10 1,15 3,6 7,9 14,9 5,1 12,1 20,-1 8,-2 13,-6 14,-12 0,-6 1,-13 1,-19 0,-6 1,-12 2,-19zm187 35c0,-9 1,-17 1,-25 1,-7 1,-15 1,-23l0 -13c3,-12 10,-18 22,-18 5,1 9,3 13,6 4,3 6,7 6,12 1,9 1,17 1,26 0,9 1,17 1,26 0,19 0,38 1,58 0,20 1,39 1,58 0,14 -6,22 -20,23 -5,1 -10,0 -15,-4 -5,-5 -8,-10 -8,-17 -1,-6 -1,-12 -1,-18 0,-6 0,-13 0,-19 -1,-5 -1,-9 -1,-14 0,-5 0,-10 0,-15 -9,1 -18,1 -26,2 -8,0 -16,0 -25,1 0,11 0,21 0,31 -1,10 -1,19 -2,29 0,4 0,7 0,9 0,3 -1,5 -3,7 -2,5 -5,9 -10,11 -4,2 -9,2 -14,1 -10,-2 -15,-9 -15,-21 -1,-8 -1,-17 -1,-25 1,-8 1,-17 1,-25l0 -115c0,-6 0,-10 1,-14 1,-5 4,-9 8,-12 4,-3 9,-4 15,-4 11,2 17,8 18,20 1,7 1,13 1,20 0,6 0,12 0,19l0 24c5,0 9,0 13,0 4,0 8,1 13,1 3,0 7,-1 11,-1 4,0 8,-1 13,-1zm202 12c3,2 6,4 9,5 3,2 6,3 9,4 15,9 24,21 28,35 3,15 0,30 -11,43 -9,14 -21,23 -36,28 -14,5 -29,8 -46,9 -4,0 -9,0 -13,0 -5,-1 -10,-1 -14,-2 -14,-1 -24,-5 -30,-11 -6,-6 -9,-15 -9,-28 0,-26 0,-51 1,-76 0,-25 -1,-50 -2,-75 0,-18 9,-27 28,-27 12,0 25,1 38,3 16,2 29,8 39,17 11,9 18,20 21,33 1,8 1,15 -1,22 -2,6 -6,13 -11,20zm-70 81c17,3 33,3 47,-2 9,-4 16,-8 22,-14 8,-8 7,-15 -3,-20 -21,-11 -42,-14 -64,-9 0,8 -1,16 -1,23 0,7 -1,14 -1,22zm0 -90c1,0 2,1 4,2 5,-3 10,-6 15,-8 5,-2 10,-5 14,-8 9,-7 9,-14 0,-21 -10,-8 -21,-10 -32,-7 -1,7 -1,14 -1,21 0,6 0,13 0,21zm291 49c-6,7 -11,13 -16,19 -4,5 -9,10 -14,16 -4,4 -8,8 -13,11 -4,4 -9,8 -15,11 -15,10 -29,11 -44,5 -14,-6 -23,-18 -26,-36 -5,-25 -4,-49 2,-71 5,-22 18,-42 38,-59 16,-15 36,-23 59,-25 18,0 34,5 48,17 3,3 6,7 10,10 4,3 7,6 10,10 2,3 4,7 6,11 1,4 2,8 2,12 1,7 1,14 1,21 -1,7 -1,14 -1,21 0,11 0,23 1,34 0,12 0,23 0,35 0,3 0,6 1,10 0,4 0,8 0,12 -2,15 -10,21 -24,20 -12,0 -19,-7 -20,-20 -2,-8 -2,-15 -3,-23 0,-8 -1,-15 -1,-23 0,-2 0,-5 0,-7 0,-3 -1,-6 -1,-11zm-82 16c17,-11 31,-25 42,-41 11,-16 21,-31 32,-47 -7,-11 -16,-14 -26,-10 -10,3 -19,8 -26,14 -13,11 -20,24 -22,38 -2,15 -2,30 0,46zm227 70c0,11 0,20 0,29 0,8 0,17 0,26 0,8 1,15 1,23 1,8 1,16 0,24 0,3 0,7 -1,10 -1,3 -3,6 -6,9 -4,5 -10,7 -18,6 -7,-1 -13,-5 -16,-11 -1,-3 -2,-5 -3,-8 0,-3 0,-5 -1,-8 -1,-46 -3,-91 -5,-135 -1,-45 0,-90 5,-135 0,-5 0,-9 1,-12 2,-9 5,-16 9,-20 5,-4 11,-6 21,-8 35,-5 65,4 91,28 9,9 17,19 21,31 4,11 6,23 6,36 1,10 0,19 -1,28 -2,10 -4,19 -6,29 -5,20 -15,35 -31,44 -15,9 -30,13 -44,14 -4,1 -8,1 -11,1 -4,-1 -8,-1 -12,-1zm-4 -44c7,-1 13,-1 17,-1 5,0 9,-1 13,-1 5,-2 10,-4 15,-6 5,-3 8,-7 10,-12 4,-11 7,-23 9,-34 1,-12 0,-23 -4,-35 -3,-11 -10,-19 -20,-25 -11,-5 -22,-7 -36,-4 0,19 -1,38 -2,57 0,19 -1,39 -2,61zm247 -34c-5,-1 -9,-1 -12,1 -3,3 -6,5 -8,9 -6,9 -11,19 -15,28 -4,10 -9,20 -15,28 -9,11 -19,14 -31,9 -13,-7 -16,-16 -9,-30 4,-9 8,-18 13,-26 5,-8 10,-17 15,-26 -4,-3 -7,-6 -10,-9 -3,-3 -6,-6 -9,-9 -9,-12 -12,-25 -11,-40 1,-15 6,-27 16,-38 12,-13 26,-23 41,-30 15,-7 32,-9 52,-6 13,3 22,7 26,13 4,5 7,15 8,28 0,16 1,30 1,43 0,14 0,26 0,38 0,12 -1,24 -2,35 0,12 -1,24 -3,36 -2,15 -11,22 -25,21 -6,-1 -11,-3 -15,-7 -4,-4 -6,-9 -6,-16 -1,-7 -1,-14 -1,-21 0,-8 0,-15 0,-22l0 -9zm6 -95c-11,-1 -21,1 -31,7 -10,6 -17,12 -20,20 -2,5 -2,10 1,15 2,6 7,9 13,9 6,1 12,1 21,-1 8,-2 12,-6 13,-12 1,-6 1,-13 1,-19 1,-6 1,-12 2,-19zm-2455 449c3,2 6,4 9,5 3,2 6,3 9,4 15,9 24,20 28,35 3,15 0,30 -11,43 -9,14 -22,23 -36,28 -14,5 -29,8 -46,9 -4,0 -9,0 -14,-1 -4,0 -9,0 -13,-1 -14,-1 -24,-5 -30,-11 -6,-6 -9,-15 -9,-29 0,-25 0,-50 1,-75 0,-25 -1,-50 -2,-75 0,-18 9,-27 28,-27 12,0 25,1 38,3 15,2 28,8 39,17 11,9 18,20 21,33 1,8 1,15 -1,22 -2,6 -6,13 -11,20zm-70 80c17,4 33,4 47,-2 9,-3 16,-7 22,-13 8,-8 7,-15 -3,-20 -21,-11 -42,-14 -64,-9 0,8 -1,15 -1,23 0,7 -1,14 -1,21zm0 -90c1,1 2,2 4,3 5,-3 10,-6 15,-8 5,-2 10,-5 14,-8 9,-7 9,-14 0,-21 -10,-8 -21,-10 -32,-7 -1,7 -1,14 -1,21 0,6 0,13 0,20zm545 44c3,-12 6,-23 9,-34 3,-10 7,-21 10,-31 4,-13 10,-25 17,-38 5,-7 12,-12 20,-18 7,-4 15,-4 22,-2 8,3 13,8 17,16 4,9 7,18 7,27 1,24 2,48 3,73 0,24 1,48 3,71 0,7 -2,13 -6,18 -4,5 -9,7 -15,8 -7,0 -12,-2 -16,-6 -4,-5 -6,-11 -7,-18 -1,-16 -1,-33 -1,-49 -1,-16 -2,-32 -3,-49 0,-3 -1,-6 -4,-9 -1,3 -1,5 -2,8 -1,2 -1,4 -2,6 -4,13 -8,25 -11,37 -4,13 -8,25 -12,36 -2,8 -5,14 -9,19 -4,5 -10,7 -18,7 -8,-1 -14,-3 -19,-8 -4,-5 -8,-11 -11,-18 -3,-9 -7,-18 -10,-26 -4,-8 -7,-17 -11,-26 -1,-3 -2,-5 -3,-7 -1,-3 -3,-5 -6,-8l-3 51c-1,7 -2,14 -2,20 0,7 -1,14 -2,21 -2,17 -10,24 -23,23 -15,-1 -21,-11 -19,-28 1,-19 2,-38 4,-56 1,-19 3,-37 5,-57 0,-8 1,-17 3,-25 1,-8 2,-16 4,-24 0,-3 1,-6 3,-9 1,-3 2,-7 4,-10 5,-8 12,-12 20,-13 8,0 16,3 22,10 5,7 10,16 13,27 4,12 8,24 11,36 4,12 7,25 11,37 0,3 1,5 3,8 1,3 2,6 4,10zm284 6c-6,7 -11,13 -15,19 -5,5 -10,10 -15,16 -4,3 -8,7 -13,11 -4,4 -9,8 -15,11 -15,9 -29,11 -44,5 -14,-7 -22,-19 -26,-36 -4,-25 -4,-49 2,-71 5,-22 18,-42 38,-59 16,-15 36,-23 59,-25 18,0 34,5 48,17 3,3 6,7 10,9 4,3 7,7 10,11 2,3 4,7 6,11 2,4 2,8 2,12 1,7 1,14 1,21 0,7 -1,14 -1,21 0,11 1,23 1,34 0,12 0,23 0,34 0,4 1,7 1,11 0,4 0,8 0,12 -2,15 -10,21 -23,20 -13,0 -20,-7 -21,-20 -2,-8 -2,-15 -3,-23 0,-8 0,-15 -1,-23 0,-2 0,-5 0,-7 0,-3 0,-7 -1,-11zm-82 16c17,-12 31,-25 42,-41 11,-16 21,-32 32,-47 -7,-11 -16,-14 -26,-10 -10,3 -19,8 -25,14 -14,11 -21,24 -23,38 -2,15 -2,30 0,46zm177 -38c1,-9 1,-19 1,-30 0,-10 1,-21 2,-31 1,-19 8,-33 20,-43 13,-10 28,-14 45,-12 13,2 23,4 32,7 6,2 10,6 13,11 3,5 4,10 4,16 0,9 -4,16 -11,20 -7,5 -15,4 -24,0 -2,-2 -5,-3 -8,-5 -2,-1 -5,-2 -9,-3 -10,-2 -16,3 -16,14 -1,9 -2,18 -2,27 -1,9 -1,18 0,27 0,15 1,30 2,44 1,14 2,29 4,44 1,15 -5,24 -18,27 -7,1 -13,0 -18,-4 -5,-3 -9,-8 -10,-15 -1,-7 -2,-14 -3,-21 -1,-6 -1,-13 -2,-20 -1,-9 -1,-17 -1,-26 0,-8 0,-17 -1,-27zm292 22c-6,7 -11,13 -15,19 -4,5 -9,10 -14,16 -4,3 -9,7 -13,11 -5,4 -10,8 -15,11 -15,9 -30,11 -44,5 -14,-7 -23,-19 -26,-36 -5,-25 -5,-49 1,-71 6,-22 18,-42 38,-59 17,-15 36,-23 60,-25 17,0 33,5 47,17 3,3 7,7 10,9 4,3 7,7 11,11 2,3 4,7 5,11 2,4 3,8 3,12 0,7 0,14 0,21 0,7 0,14 0,21 0,11 0,23 0,34 0,12 1,23 1,34 0,4 0,7 0,11 0,4 1,8 1,12 -2,15 -10,21 -24,20 -13,0 -20,-7 -21,-20 -1,-8 -2,-15 -2,-23 -1,-8 -1,-15 -2,-23 0,-2 0,-5 0,-7 0,-3 0,-7 -1,-11zm-82 16c17,-12 31,-25 42,-41 11,-16 22,-32 32,-47 -7,-11 -16,-14 -25,-10 -11,3 -20,8 -26,14 -13,11 -21,24 -23,38 -2,15 -2,30 0,46z"/>
   <path class="fil2" d="M2710 2367c13,10 21,22 24,34 3,13 2,27 -1,43 -2,9 -6,18 -11,27 -6,8 -14,14 -26,17 -12,3 -24,4 -37,3 -12,-1 -23,-6 -34,-15 -5,-4 -10,-9 -14,-16 -3,-5 -4,-10 -3,-16 2,-5 5,-9 10,-12 6,-4 11,-5 17,-5 5,1 10,3 13,9 5,7 10,11 16,12 6,1 13,0 22,-2 1,-4 2,-9 3,-13 1,-5 2,-10 2,-14 0,-8 -3,-14 -8,-18 -6,-3 -12,-4 -20,-3l-12 3c-13,2 -21,-2 -26,-13 -4,-11 0,-20 12,-27 5,-3 11,-6 16,-9 5,-4 10,-7 16,-10 4,-3 7,-6 10,-11 2,-4 2,-9 -1,-13 -4,-1 -8,-1 -14,2 -5,3 -11,5 -16,7 -11,4 -20,2 -27,-7 -6,-9 -5,-18 3,-26 4,-4 10,-8 17,-11 7,-3 15,-5 22,-6 8,-1 15,-1 23,0 7,2 13,4 18,7 17,11 23,26 19,44 -1,6 -3,13 -5,19 -3,6 -5,13 -8,20zm124 34c6,-11 12,-22 18,-33 5,-10 11,-21 18,-32 4,-7 8,-13 13,-19 4,-6 9,-12 14,-17 4,-5 8,-8 13,-10 5,-2 10,-1 15,1 12,4 18,13 18,26l0 27c-1,19 -1,39 -1,59 0,20 0,40 -1,59 0,2 0,4 0,7 0,2 0,5 -1,7 -1,7 -5,12 -10,15 -5,4 -11,5 -17,4 -12,-1 -18,-9 -18,-24l0 -39c0,-6 -1,-12 -1,-19 0,-6 -1,-13 -3,-20 -2,3 -3,6 -5,9 -1,3 -3,6 -5,9 -6,9 -11,18 -17,28 -5,10 -11,19 -17,28 -5,7 -11,13 -18,17 -9,5 -18,6 -26,3 -9,-4 -14,-11 -16,-22 -2,-15 -3,-28 -2,-40 0,-21 1,-42 2,-62 0,-20 1,-41 2,-62 0,-3 1,-5 1,-7 0,-3 0,-5 1,-7 3,-12 11,-18 23,-17 6,1 10,3 14,6 4,4 6,8 6,13 1,7 1,15 1,22 -1,8 -1,15 -2,23 0,11 0,22 0,33 -1,11 -1,22 -2,33 1,0 1,0 2,0 0,1 1,1 1,1zm250 -45c0,-8 1,-16 1,-24 1,-7 1,-15 1,-23l0 -13c3,-12 10,-18 22,-18 5,1 9,3 13,6 4,3 6,7 6,12 1,9 1,17 1,26 0,8 1,17 1,26 0,19 0,38 1,58 0,20 1,39 1,58 0,14 -6,22 -20,23 -5,1 -10,0 -15,-4 -5,-5 -8,-10 -8,-17 -1,-6 -1,-12 -1,-18 0,-6 0,-13 0,-19 -1,-5 -1,-10 -1,-14 0,-5 0,-10 0,-15 -9,1 -18,1 -26,1 -8,1 -16,1 -25,2 0,10 0,21 0,31 -1,10 -1,19 -2,29 0,4 0,7 0,9 0,3 -1,5 -3,7 -2,5 -5,9 -10,11 -4,2 -9,2 -14,1 -10,-2 -15,-9 -15,-21 -1,-8 -1,-17 -1,-25 1,-8 1,-17 1,-25l0 -115c0,-6 0,-11 1,-14 1,-5 4,-9 8,-12 4,-3 9,-4 15,-4 11,2 17,8 18,20 1,7 1,13 1,19 0,7 0,13 0,20l0 23c5,0 9,1 13,1 4,0 8,0 13,0 3,0 7,0 11,0 4,0 8,-1 13,-2zm138 59c0,7 2,13 4,19 3,5 6,10 10,15 8,8 16,9 25,5 11,-4 19,-11 25,-21 1,-3 2,-5 4,-8 1,-2 2,-5 4,-7 6,-10 15,-13 24,-8 5,3 8,6 10,10 2,4 3,8 1,14 -5,16 -14,30 -27,43 -13,12 -29,19 -48,20 -16,2 -29,-3 -40,-14 -8,-7 -14,-13 -18,-20 -5,-7 -8,-15 -11,-24 -5,-15 -8,-29 -10,-43 -2,-15 -1,-29 2,-44 7,-35 29,-57 64,-64 6,-1 11,-1 16,0 5,1 9,2 14,3 15,5 27,16 36,31 9,15 12,30 11,46 -2,21 -14,35 -34,40 -5,1 -11,2 -15,2 -5,1 -11,1 -16,2 -4,1 -9,1 -13,1 -4,0 -8,0 -13,0 -1,0 -2,1 -2,1 -1,0 -2,0 -3,1zm-6 -42c9,0 18,-1 26,-1 8,-1 17,-1 26,-2 7,0 10,-4 9,-12 -1,-3 -1,-6 -2,-8 -1,-2 -2,-5 -3,-7 -8,-14 -19,-18 -35,-11 -8,4 -14,9 -17,17 -3,7 -4,15 -4,24zm-1845 461c4,2 7,3 10,4 3,2 6,3 10,4 6,5 12,10 16,14 3,4 4,9 4,13 -1,5 -3,9 -6,12 -3,4 -6,7 -11,8 -4,2 -9,2 -13,0 -7,-3 -14,-7 -21,-9 -7,-3 -14,-7 -21,-11 -23,-14 -27,-32 -11,-55l51 -66c1,-1 3,-3 4,-4 2,-2 4,-4 6,-5 9,-8 18,-8 27,0 10,8 11,18 5,29 -3,6 -6,10 -10,15 -4,4 -7,9 -11,14 -5,6 -10,12 -14,17 -5,6 -10,12 -15,20zm80 -18c5,3 10,6 15,10 5,3 10,6 15,10 13,7 17,17 13,28 -2,7 -6,12 -13,15 -6,3 -12,3 -17,0 -11,-7 -22,-14 -32,-21 -10,-8 -20,-16 -30,-23 -4,-4 -6,-8 -6,-13 1,-5 2,-10 5,-14 6,-13 14,-24 23,-34 10,-10 20,-19 31,-29 5,-3 10,-5 15,-4 5,0 10,3 14,6 9,10 9,20 0,31 -2,3 -4,5 -6,7 -2,2 -4,4 -6,6 -3,3 -5,6 -8,9 -3,3 -5,5 -8,8 -1,1 -3,4 -5,8zm175 -186c-3,7 -5,13 -7,18 -2,5 -4,10 -5,15 -4,12 -4,22 -1,29 3,7 10,13 21,18 5,2 9,4 13,5 4,2 8,4 12,6 28,14 44,36 47,67 1,14 1,30 0,49 -2,20 -6,35 -12,47 -8,14 -18,25 -30,33 -13,7 -27,10 -41,9 -16,-2 -30,-7 -42,-17 -11,-9 -19,-22 -24,-38 -2,-8 -4,-19 -6,-33 -2,-14 -3,-25 -5,-33 -2,-15 5,-24 19,-29 9,-3 17,-2 24,4 6,5 8,13 6,22 -2,4 -2,8 -2,14 1,5 1,11 2,17 1,5 2,11 4,16 1,6 2,10 4,13 4,10 11,16 21,18 10,2 19,-2 25,-11 7,-10 12,-25 13,-43 1,-18 -1,-34 -5,-47 -3,-8 -10,-14 -21,-19 -5,-2 -10,-5 -15,-7 -5,-2 -10,-5 -15,-8 -27,-12 -40,-33 -40,-64 -1,-24 6,-47 19,-67 9,-15 20,-23 34,-26 14,-2 28,1 41,11 9,7 17,14 23,23 6,8 9,18 11,30 1,5 1,10 0,15 -2,14 -9,21 -22,21 -7,1 -12,-1 -16,-5 -4,-4 -6,-9 -8,-17 0,-3 -1,-6 -1,-10 -1,-3 -1,-6 -3,-8 -1,-4 -3,-7 -7,-9 -3,-2 -7,-5 -11,-9zm124 145l0 -29 0 -10c2,-15 10,-22 22,-20 12,0 19,7 20,21 1,8 1,15 1,23 0,8 0,16 1,23 1,14 2,28 3,41 1,14 4,27 9,40 2,5 4,10 6,15 3,4 6,6 12,7 5,1 9,-1 13,-4 4,-4 7,-9 9,-14 4,-8 7,-16 10,-25 4,-8 6,-17 8,-26 2,-8 3,-16 4,-25 1,-8 2,-16 3,-25l3 -26c3,-16 11,-23 23,-21 6,1 11,4 14,8 4,4 5,10 5,17 -1,10 -2,19 -2,27 -1,9 -2,18 -3,27 -2,13 -5,26 -8,39 -3,14 -7,27 -12,40 -3,7 -7,14 -12,20 -4,7 -9,12 -15,18 -17,14 -34,19 -52,15 -17,-3 -31,-16 -41,-37 -6,-13 -10,-27 -13,-41 -2,-14 -4,-29 -6,-44 0,-3 -1,-6 -1,-10 0,-4 0,-8 0,-11 0,-4 0,-8 -1,-13zm263 152c0,10 0,20 -1,28 0,9 0,18 1,27 0,7 0,15 1,23 0,8 0,16 0,23 0,4 -1,7 -2,10 -1,4 -2,7 -5,9 -5,5 -11,8 -18,7 -8,-1 -13,-5 -17,-12 -1,-2 -2,-5 -2,-8 -1,-2 -1,-5 -2,-8 -1,-45 -3,-90 -4,-135 -2,-44 0,-89 4,-135 0,-5 1,-9 1,-11 2,-10 5,-16 10,-20 4,-4 11,-7 20,-8 35,-5 65,4 91,28 10,9 17,19 21,30 5,11 7,24 7,37 0,9 0,18 -2,28 -1,10 -3,19 -5,28 -6,21 -16,35 -31,44 -16,9 -31,14 -44,15 -4,0 -8,0 -12,0 -3,0 -7,0 -11,0zm-4 -45c6,-1 12,-1 17,-1 4,0 9,0 13,-1 5,-1 10,-3 14,-6 5,-3 8,-7 10,-12 5,-11 8,-22 9,-34 1,-11 0,-23 -4,-34 -3,-11 -10,-20 -20,-25 -10,-6 -22,-7 -35,-5 -1,19 -2,39 -2,58 -1,19 -1,39 -2,60zm201 -36c1,8 2,14 5,19 3,5 6,11 10,16 7,7 15,9 24,5 11,-5 19,-12 25,-22 2,-2 3,-5 4,-7 2,-3 3,-5 4,-8 7,-10 15,-12 25,-8 4,3 8,6 10,10 2,4 2,9 1,14 -6,17 -15,31 -27,43 -13,12 -29,19 -48,21 -16,1 -30,-3 -41,-14 -7,-7 -13,-14 -18,-21 -4,-7 -8,-15 -11,-24 -4,-14 -8,-29 -10,-43 -2,-14 -1,-29 2,-44 8,-35 29,-56 65,-63 5,-2 10,-2 15,-1 5,1 10,2 14,4 16,5 28,15 37,30 8,16 12,31 10,47 -2,21 -13,34 -34,39 -5,2 -10,3 -15,3 -5,0 -10,1 -15,1 -5,1 -9,1 -13,1 -4,0 -9,0 -13,0 -1,1 -2,1 -3,1 -1,0 -2,1 -3,1zm-6 -41c9,-1 18,-1 26,-2 8,0 17,0 26,-1 7,-1 10,-5 9,-12 0,-3 -1,-6 -2,-8 0,-3 -1,-5 -3,-8 -8,-14 -19,-17 -34,-11 -9,4 -15,10 -18,17 -3,7 -4,16 -4,25zm204 -22c0,4 0,8 1,10 0,3 0,7 0,10 1,17 1,34 2,51 0,17 0,35 0,52 0,4 -1,8 -2,14 -3,9 -10,14 -21,14 -10,0 -17,-5 -21,-16 0,-2 0,-3 0,-5 0,-1 0,-3 -1,-5 0,-29 -1,-57 -1,-85 -1,-29 -2,-57 -2,-85 0,-3 -1,-6 -1,-8 0,-2 0,-5 2,-7 2,-9 8,-15 19,-16 11,0 18,5 21,15 1,2 1,4 2,6 0,2 1,5 2,8 11,-4 20,-8 26,-11 7,-3 16,-6 28,-9 16,-3 26,1 29,14 2,6 1,11 -2,15 -3,5 -8,9 -16,11 -10,4 -17,7 -22,9 -6,2 -10,4 -14,6 -4,1 -8,3 -12,5 -4,2 -10,4 -17,7zm189 -48l0 -59c0,-10 0,-20 0,-29 -1,-10 -1,-20 -1,-30 0,-5 2,-10 4,-17 4,-8 11,-12 21,-11 11,2 17,7 20,16 0,3 1,5 1,7 1,2 1,4 1,7 0,32 0,63 0,94 0,31 0,62 1,94 0,13 0,26 1,38 1,12 2,25 4,38 0,4 0,8 1,12 0,4 0,8 0,12 -1,8 -4,14 -9,18 -6,4 -12,4 -20,3 -5,-2 -10,-2 -14,-2 -4,0 -8,1 -14,1 -7,0 -14,0 -21,0 -7,0 -14,-1 -21,-2 -15,-3 -27,-9 -35,-19 -9,-9 -14,-21 -17,-36 -3,-19 -3,-37 1,-55 4,-17 12,-34 23,-50 8,-11 17,-20 27,-25 10,-6 23,-8 36,-5l11 0zm4 146c-2,-26 -3,-51 -3,-73 0,-9 -3,-17 -11,-23 -8,-7 -14,-7 -20,0 -11,11 -18,23 -21,36 -3,13 -4,27 -1,42 2,12 9,18 21,18 5,1 10,1 16,1 6,-1 13,-1 19,-1zm140 -98c0,4 0,8 0,10 1,3 1,7 1,10 1,17 1,34 1,51 1,17 1,35 1,52 0,4 -1,8 -2,14 -3,9 -10,14 -21,14 -10,0 -17,-5 -21,-16 0,-2 0,-3 0,-5 0,-1 0,-3 -1,-5 0,-29 -1,-57 -2,-85 0,-29 -1,-57 -2,-85 0,-3 0,-6 0,-8 0,-2 0,-5 1,-7 2,-9 9,-15 20,-16 11,0 18,5 21,15 1,2 1,4 1,6 1,2 2,5 3,8 11,-4 20,-8 26,-11 6,-3 16,-6 28,-9 16,-3 26,1 29,14 2,6 1,11 -2,15 -3,5 -8,9 -16,11 -10,4 -17,7 -22,9 -6,2 -10,4 -14,6 -4,1 -8,3 -12,5 -4,2 -10,4 -17,7zm253 -18c2,-5 4,-10 6,-16 2,-6 4,-11 6,-17 6,-15 16,-20 30,-15 14,5 18,15 14,30l-27 75c-6,20 -14,41 -24,63 0,1 -2,4 -4,9 -2,4 -4,10 -5,15 -2,6 -4,11 -6,17 -2,6 -2,10 -2,13 1,16 2,31 2,47 0,16 1,31 3,46 0,12 -5,19 -14,23 -6,2 -11,2 -16,1 -5,-1 -8,-4 -11,-9 -5,-8 -8,-18 -9,-28 -1,-17 -1,-33 0,-49 0,-16 0,-32 -1,-48 -1,-11 -3,-20 -6,-27 -9,-23 -18,-46 -28,-68 -10,-23 -19,-45 -28,-68 -1,-2 -1,-3 -2,-5 0,-2 -1,-4 -1,-6 -1,-5 -1,-11 3,-17 3,-5 8,-9 14,-10 12,-4 21,1 26,14 4,7 6,14 8,20 1,7 4,14 6,20 5,13 11,26 17,38 6,12 12,25 17,37 7,-12 13,-25 18,-40 4,-15 9,-30 14,-45zm225 63c-3,-4 -6,-7 -9,-9 -2,-3 -6,-6 -10,-9 3,11 2,20 -1,27 -4,7 -10,14 -16,20 -8,8 -14,15 -21,23 -7,7 -13,15 -20,23 -4,5 -9,9 -16,11 -6,2 -12,1 -18,-3 -5,-4 -8,-9 -9,-16 -1,-6 1,-13 7,-20 5,-7 10,-13 16,-19 6,-6 12,-13 17,-20 1,-1 3,-3 5,-5 1,-2 3,-5 6,-7 -5,-6 -11,-10 -16,-15 -5,-4 -10,-8 -16,-13 -2,-3 -5,-5 -8,-7 -2,-2 -4,-4 -5,-7 -4,-5 -5,-11 -4,-17 0,-6 3,-12 8,-16 12,-7 22,-6 31,4 3,4 7,7 11,10 3,4 7,7 12,11 1,-3 1,-6 1,-9 0,-2 1,-5 2,-7 3,-7 7,-12 14,-15 7,-3 14,-2 20,3 10,10 20,19 30,29 10,9 20,19 29,29 10,10 11,21 5,33 -11,26 -27,47 -46,66 -6,6 -14,8 -22,6 -8,-2 -13,-7 -15,-15 -2,-7 -1,-15 5,-22 5,-7 10,-14 16,-22 6,-7 11,-14 17,-22z"/>
  </g>
 </g>
</svg>
