<?xml version="1.0" encoding="UTF-8"?>
<!DOCTYPE svg PUBLIC "-//W3C//DTD SVG 1.1//EN" "http://www.w3.org/Graphics/SVG/1.1/DTD/svg11.dtd">
<!-- Creator: CorelDRAW X6 -->
<svg xmlns="http://www.w3.org/2000/svg" xml:space="preserve" width="45mm" height="45mm" version="1.1" style="shape-rendering:geometricPrecision; text-rendering:geometricPrecision; image-rendering:optimizeQuality; fill-rule:evenodd; clip-rule:evenodd"
viewBox="0 0 4500 4500"
 xmlns:xlink="http://www.w3.org/1999/xlink">
 <defs>
  <style type="text/css">
   <![CDATA[
    .str0 {stroke:black;stroke-width:75}
    .fil0 {fill:#E94F42}
    .fil1 {fill:#FEFEFE;fill-rule:nonzero}
   ]]>
  </style>
 </defs>
 <g id="Слой_x0020_1">
  <metadata id="CorelCorpID_0Corel-Layer"/>
  <path class="fil0 str0" d="M371 280c0,0 -121,140 -126,669 -6,529 -23,2140 -25,2323 -2,182 -116,533 15,701 131,168 95,285 709,291 614,7 1936,20 2185,23 249,3 836,152 1001,-61 165,-213 191,-676 198,-1284 6,-609 -149,-1351 -98,-1743 52,-391 133,-749 39,-840 -94,-92 -504,-169 -1367,-178 -862,-9 -1804,-19 -2019,-21 -214,-3 -512,120 -512,120z"/>
  <g id="_521946312">
   <path class="fil1" d="M1007 1260c0,-61 9,-99 29,-129 6,-10 15,-19 24,-26 11,-8 22,-3 28,11 2,6 3,14 6,20 7,14 21,20 35,17 13,-4 21,-17 20,-32 -5,-30 -15,-58 -41,-72 -28,-15 -54,-15 -81,4 -30,20 -49,52 -62,88 -22,69 -22,139 -2,208 11,39 30,73 62,98 34,27 79,24 108,-6 29,-29 38,-67 39,-107 0,-15 -11,-27 -24,-29 -13,-1 -25,5 -30,18 -3,7 -4,15 -7,23 -3,13 -5,27 -11,39 -10,19 -26,23 -41,9 -13,-11 -24,-25 -32,-41 -15,-32 -20,-67 -20,-93zm283 102c4,10 8,17 10,25 8,24 15,46 23,69 8,19 21,25 38,21 16,-5 24,-18 17,-37 -13,-39 -27,-77 -42,-116 -4,-9 -3,-15 3,-23 12,-14 22,-29 32,-44 5,-6 7,-13 10,-19 5,-14 0,-26 -13,-33 -12,-7 -26,-5 -36,7 -3,2 -4,6 -6,9 -17,22 -34,46 -51,69 -2,2 -6,5 -12,11 0,-14 0,-24 0,-34 0,-15 1,-30 -2,-44 -1,-15 -13,-24 -27,-24 -14,0 -27,10 -29,24 -2,5 0,11 0,16 -2,48 -2,95 -2,141 0,23 0,47 3,70 2,17 16,27 33,25 15,-1 25,-13 25,-30 0,-12 -1,-23 -3,-34 -2,-23 10,-36 29,-49zm189 -4c-1,0 -2,-1 -4,-1 2,-28 3,-56 3,-85 1,-19 3,-38 1,-56 0,-14 -11,-23 -25,-24 -14,-2 -26,6 -30,21 -1,5 -1,11 -3,18 -1,53 -3,104 -5,157 -1,16 0,34 3,52 5,26 30,37 54,24 9,-5 16,-13 23,-22 15,-24 29,-48 42,-72 5,-7 9,-15 13,-22 5,17 5,34 5,49 0,17 0,34 0,50 0,18 9,29 24,30 15,3 30,-7 34,-24 1,-6 1,-12 1,-17 2,-51 2,-101 3,-151 0,-12 0,-23 0,-34 0,-15 -8,-28 -23,-33 -14,-6 -26,0 -36,11 -12,14 -24,29 -34,46 -17,27 -31,55 -46,83zm382 59c-1,-4 -1,-8 -1,-10 1,-35 1,-69 1,-103 0,-18 0,-36 -4,-53 -11,-51 -65,-68 -107,-38 -25,19 -39,44 -43,76 -1,13 -2,27 -4,40 -1,33 -3,64 -5,97 -6,2 -12,2 -17,5 -28,9 -35,17 -33,45 1,17 9,25 21,28 13,2 22,-3 29,-18 3,-6 7,-10 13,-10 4,-1 9,-1 14,-1 35,-1 70,-3 106,-3 5,0 10,4 12,7 9,8 19,11 29,6 10,-4 17,-13 18,-24 2,-23 -4,-34 -29,-44zm-53 2c-19,2 -38,2 -57,3 -1,-9 -1,-15 -1,-21 3,-37 5,-72 8,-109 1,-17 11,-31 26,-40 11,-6 20,-2 24,10 2,9 2,19 2,28 0,40 -1,82 -1,122 0,2 -1,5 -1,7zm198 -57c4,10 7,17 10,25 7,24 15,46 22,69 8,19 22,25 38,21 17,-5 24,-18 18,-37 -14,-39 -28,-77 -43,-116 -4,-9 -2,-15 4,-23 11,-14 21,-29 31,-44 5,-6 8,-13 10,-19 5,-14 0,-26 -12,-33 -13,-7 -27,-5 -37,7 -2,2 -3,6 -6,9 -16,22 -34,46 -50,69 -3,2 -7,5 -13,11 0,-14 0,-24 0,-34 0,-15 1,-30 -1,-44 -1,-15 -14,-24 -28,-24 -14,0 -26,10 -29,24 -1,5 0,11 0,16 -1,48 -1,95 -1,141 0,23 0,47 2,70 3,17 17,27 33,25 15,-1 25,-13 25,-30 0,-12 -1,-23 -2,-34 -3,-23 10,-36 29,-49zm292 6c1,11 1,17 1,23 1,20 3,39 5,59 1,16 13,25 27,25 16,1 27,-9 30,-25 0,-10 -1,-20 -1,-29 0,-29 -2,-58 -2,-87 0,-18 2,-37 0,-54 0,-10 -5,-22 -10,-29 -7,-10 -17,-17 -26,-25 -18,-16 -37,-23 -61,-22 -29,1 -54,12 -75,32 -50,44 -62,102 -50,165 7,45 51,64 89,40 14,-9 25,-19 35,-29 13,-13 23,-27 38,-44zm-105 20c-5,-40 -3,-78 29,-107 9,-8 22,-14 33,-18 13,-5 24,0 33,13 -27,40 -52,84 -95,112zm650 -246c13,0 23,0 34,0 13,0 25,0 38,-2 15,-4 23,-16 21,-30 -1,-13 -11,-24 -26,-24 -24,-1 -49,-3 -74,0 -32,2 -47,17 -51,49 -1,15 -1,31 -1,47 -1,25 -2,50 -2,75 0,24 12,38 31,35 8,-1 14,-6 20,-10 11,-10 24,-17 40,-19 11,-1 18,3 21,13 1,5 3,10 3,15 0,32 -5,63 -19,92 -6,13 -15,23 -30,28 -12,-10 -14,-23 -14,-37 0,-12 -7,-21 -18,-26 -12,-4 -22,0 -29,7 -11,8 -13,18 -13,30 2,22 11,42 25,60 19,26 47,31 76,17 20,-9 35,-21 46,-39 32,-46 39,-99 32,-155 -7,-39 -35,-70 -90,-61 -6,0 -12,1 -20,1 0,-21 0,-43 0,-66zm144 131c2,21 4,39 6,60 1,12 5,25 9,37 6,24 18,47 34,66 34,38 82,39 116,2 14,-15 26,-32 34,-50 24,-48 33,-99 25,-152 -8,-53 -26,-100 -77,-128 -39,-21 -87,-17 -113,26 -6,11 -11,22 -17,35 -12,34 -16,69 -17,104zm169 -5c-4,44 -11,86 -39,123 -17,21 -31,20 -45,-6 -7,-15 -15,-31 -18,-47 -10,-43 -9,-86 0,-129 1,-9 5,-19 8,-27 10,-26 33,-32 55,-16 10,9 17,21 23,32 7,11 9,24 12,36 2,12 2,23 4,34zm353 -172c-1,-14 -5,-24 -16,-29 -10,-5 -20,-5 -29,2 -6,5 -10,13 -12,19 -26,47 -50,95 -75,141 -31,62 -65,124 -98,185 -13,24 -9,43 9,51 17,9 31,0 44,-24 15,-32 31,-62 48,-93 40,-77 80,-153 121,-229 5,-8 6,-17 8,-23zm-264 74c1,53 39,81 83,63 22,-9 39,-23 52,-43 16,-26 14,-59 -7,-83 -5,-6 -11,-11 -17,-16 -22,-19 -43,-20 -66,-4 -30,21 -42,52 -45,83zm57 8c5,-14 7,-23 11,-36 8,4 13,7 18,9 2,8 -7,18 -29,27zm165 262c35,1 73,-31 80,-67 4,-22 -1,-40 -16,-57 -28,-30 -88,-35 -111,1 -10,18 -18,36 -19,56 0,39 27,67 66,67zm-7 -61c2,-7 3,-15 7,-22 2,-7 13,-7 19,-2 6,5 3,12 -2,15 -5,5 -12,9 -19,13 -1,-1 -3,-3 -5,-4zm-2136 340c-12,1 -22,3 -31,3 -11,0 -21,-2 -32,-2 0,-11 0,-20 0,-30 0,-16 0,-33 -2,-49 -1,-14 -11,-24 -23,-25 -13,-1 -26,7 -29,20 -2,6 -2,11 -2,18 0,49 0,97 0,146 0,21 -1,43 0,64 0,14 8,24 19,26 13,4 27,-1 32,-15 3,-5 3,-12 3,-20 2,-25 3,-50 3,-77 21,-1 42,-2 64,-3 0,13 0,25 1,36 0,16 0,33 2,48 1,16 16,29 30,26 15,-1 25,-12 25,-29 -1,-49 -2,-99 -2,-148 -2,-22 -2,-44 -3,-66 -1,-13 -13,-21 -25,-22 -13,0 -24,9 -28,22 0,5 0,12 0,17 0,20 -1,39 -2,60zm257 67c1,11 1,18 1,23 1,20 2,39 5,59 1,16 12,25 26,25 17,1 28,-9 31,-25 0,-10 -2,-20 -2,-29 0,-29 -1,-58 -1,-87 0,-18 1,-37 0,-54 0,-10 -5,-22 -10,-29 -8,-10 -18,-17 -26,-25 -18,-15 -37,-23 -61,-22 -29,1 -54,12 -75,32 -51,44 -62,102 -51,165 8,45 52,64 90,40 13,-9 25,-19 35,-29 12,-13 22,-26 38,-44zm-105 20c-5,-40 -4,-78 29,-107 9,-8 21,-14 33,-18 12,-5 24,0 33,13 -27,40 -52,84 -95,112zm717 -28c-4,-10 -8,-16 -9,-22 -9,-32 -18,-63 -28,-94 -4,-12 -9,-23 -16,-33 -17,-19 -42,-17 -54,3 -4,8 -8,15 -9,24 -4,20 -8,42 -9,63 -5,48 -8,96 -11,144 -3,20 7,34 24,35 16,1 27,-9 30,-29 1,-18 2,-35 5,-53 1,-21 2,-43 4,-64 6,6 8,12 11,19 9,22 18,44 26,67 8,16 18,31 38,32 20,0 30,-15 35,-32 10,-31 19,-62 29,-94 2,-5 4,-11 5,-17 4,3 5,7 5,11 3,42 4,83 5,125 2,17 13,30 29,30 16,-1 27,-14 27,-33 -3,-60 -4,-122 -8,-184 0,-11 -3,-24 -8,-34 -9,-20 -32,-27 -50,-17 -10,6 -18,14 -25,22 -9,15 -16,32 -21,48 -10,27 -17,53 -25,83zm231 15c3,-1 5,-1 8,-2 11,0 21,0 33,-1 12,-2 26,-3 39,-5 24,-7 40,-26 43,-51 5,-40 -22,-84 -60,-98 -11,-4 -25,-6 -37,-4 -44,9 -73,37 -82,81 -9,38 -2,74 10,111 6,22 19,40 36,56 14,14 32,20 52,18 49,-4 82,-39 96,-81 3,-12 -3,-24 -14,-30 -12,-5 -24,-1 -32,10 -3,7 -7,13 -10,19 -7,13 -17,22 -31,28 -13,5 -22,4 -32,-6 -10,-13 -17,-27 -19,-45zm-7 -52c0,-24 6,-43 28,-53 20,-9 34,-4 44,14 2,6 5,12 6,20 1,8 -3,14 -11,15 -23,1 -45,2 -67,4zm180 23c4,18 5,36 11,53 13,43 53,70 101,71 42,0 88,-30 102,-68 5,-16 1,-30 -13,-38 -12,-7 -27,-4 -37,9 -5,7 -9,15 -14,21 -14,15 -33,20 -52,15 -19,-3 -30,-17 -34,-35 -5,-21 -5,-43 0,-63 5,-19 15,-34 30,-45 13,-10 26,-9 36,4 5,3 7,10 11,15 10,14 28,19 42,10 13,-9 17,-25 7,-42 -7,-12 -16,-24 -28,-32 -30,-27 -70,-27 -102,-3 -41,33 -59,77 -60,128zm368 32c0,4 0,8 0,11 0,18 0,37 1,57 0,16 11,28 26,29 17,1 29,-9 32,-27 9,-65 7,-113 6,-195 -4,-34 -11,-45 -44,-51 -50,-9 -87,12 -118,45 -25,26 -28,69 -7,99 7,8 16,16 24,23 -11,23 -25,45 -35,68 -7,15 -2,30 11,38 14,6 29,2 40,-12 16,-21 23,-49 39,-72 5,-9 11,-16 25,-13zm7 -121c-1,16 -2,33 -4,48 -1,16 -28,19 -42,18 -17,-2 -24,-18 -19,-32 7,-19 39,-36 65,-34zm153 165c0,-8 -2,-14 -2,-21 -2,-58 3,-123 3,-185 0,-13 -11,-23 -25,-26 -12,-1 -24,4 -29,15 -4,8 -5,16 -5,24 -1,36 -1,72 -1,107 0,29 0,60 0,89 1,26 11,39 36,49 19,6 37,7 57,6 26,-3 54,-4 79,-5 4,6 6,9 9,11 6,12 17,17 30,13 13,-3 21,-11 23,-27 2,-31 -7,-47 -38,-50 -1,0 -3,-1 -5,-2 -4,-55 9,-139 5,-197 -1,-16 -13,-26 -28,-26 -14,0 -26,8 -29,22 -1,5 -1,10 -1,15 -2,62 -2,123 -8,186 -23,1 -46,8 -71,2zm-2164 203c-2,-49 17,-91 57,-120 14,-10 30,-16 47,-23 19,-6 27,-17 25,-34 -4,-16 -16,-25 -37,-22 -8,1 -17,2 -24,6 -61,28 -108,72 -122,140 -6,33 -7,67 -7,99 1,60 6,117 9,175 1,38 27,56 64,43 14,-5 28,-12 40,-20 48,-28 71,-72 71,-126 0,-34 -13,-63 -41,-86 -24,-18 -51,-27 -82,-32zm-2 63c40,-2 67,24 67,59 -2,38 -20,64 -58,80 -7,-47 -7,-94 -9,-139zm217 105c2,-1 5,-1 7,-2 11,0 22,0 33,-1 12,-2 26,-3 39,-5 24,-7 40,-26 43,-51 5,-40 -22,-84 -59,-98 -12,-4 -26,-6 -38,-4 -44,9 -73,37 -82,81 -9,38 -1,74 10,111 6,22 19,40 37,56 13,14 31,20 51,18 49,-4 82,-39 96,-81 4,-12 -3,-24 -14,-30 -11,-5 -24,-1 -31,10 -4,7 -8,13 -11,19 -7,13 -17,22 -31,28 -13,5 -21,4 -32,-6 -10,-13 -17,-27 -18,-45zm-8 -52c0,-24 6,-43 28,-53 20,-9 34,-4 44,14 2,6 5,12 6,20 1,9 -2,14 -11,15 -23,1 -44,2 -67,4zm310 -8c6,-19 14,-34 16,-50 5,-23 -4,-42 -24,-56 -25,-17 -80,-11 -102,13 -8,9 -10,23 -3,33 7,10 21,13 34,8 12,-3 29,-15 37,-11 9,11 -1,24 -11,31 -13,8 -26,16 -40,25 -14,7 -20,20 -15,34 5,12 18,19 32,17 5,-2 10,-3 15,-4 21,-4 36,6 36,27 0,11 -4,24 -7,35 -21,5 -36,4 -47,-14 -9,-12 -26,-12 -38,-5 -14,9 -18,24 -9,37 5,7 10,13 18,20 26,24 59,24 90,15 29,-8 42,-32 47,-57 9,-38 4,-72 -29,-98zm232 -55c0,11 1,20 0,29 -4,46 -8,92 -10,138 -2,10 -2,20 1,29 2,14 15,23 28,23 13,-2 25,-10 27,-24 1,-4 1,-8 1,-12 4,-52 8,-105 11,-158 1,-15 0,-32 -3,-47 -4,-20 -18,-35 -38,-35 -30,-1 -61,-1 -92,2 -22,3 -32,18 -34,40 -1,7 -1,13 -1,21 1,21 1,44 1,65 0,26 -2,50 -11,73 -6,0 -10,-1 -15,-1 -22,1 -34,20 -28,40 8,28 44,42 68,24 9,-7 19,-17 23,-27 9,-22 16,-43 19,-66 4,-29 1,-58 2,-88 0,-7 0,-16 0,-26 18,0 32,0 51,0zm152 98c-1,0 -2,-1 -4,-1 2,-28 3,-56 3,-85 1,-19 2,-38 1,-56 0,-14 -11,-23 -25,-24 -14,-2 -27,6 -30,21 -2,5 -2,11 -3,18 -1,53 -4,104 -5,157 -1,16 0,34 3,52 5,26 30,37 54,24 9,-5 16,-13 22,-22 16,-24 29,-48 43,-72 5,-7 9,-15 13,-22 5,17 5,34 5,49 0,17 0,34 0,50 0,18 9,29 24,30 15,3 30,-7 34,-23 1,-7 1,-13 1,-18 1,-50 1,-101 3,-151 0,-12 0,-23 0,-34 0,-15 -8,-28 -23,-33 -14,-6 -27,0 -37,11 -11,14 -24,29 -34,46 -16,27 -30,55 -45,83zm307 2c-3,-10 -7,-16 -8,-22 -9,-32 -18,-63 -28,-93 -4,-13 -9,-24 -17,-34 -16,-19 -41,-17 -54,3 -3,8 -7,15 -8,24 -4,20 -8,42 -9,63 -5,48 -8,96 -12,144 -2,20 8,34 24,35 17,1 28,-9 31,-29 1,-18 2,-35 5,-53 1,-21 2,-43 3,-64 7,6 9,13 12,19 8,22 17,44 26,67 8,16 18,31 38,32 20,0 30,-15 35,-32 10,-31 19,-62 29,-94 1,-5 4,-11 5,-17 4,4 5,7 5,11 3,42 4,83 5,125 1,17 13,30 29,30 15,-1 27,-14 27,-33 -3,-60 -4,-122 -8,-184 0,-11 -4,-24 -9,-34 -9,-20 -31,-27 -49,-17 -10,6 -19,14 -25,22 -9,16 -16,32 -21,48 -11,27 -17,53 -26,83z"/>
   <path class="fil1" d="M2404 2194c-2,0 -3,-1 -4,-1 1,-28 2,-56 2,-85 2,-19 3,-38 2,-56 0,-14 -12,-23 -26,-24 -13,-2 -26,6 -30,21 -1,5 -1,11 -2,18 -2,53 -4,104 -5,157 -2,16 0,34 2,52 5,26 30,37 54,24 9,-5 17,-13 23,-22 15,-24 29,-48 43,-72 5,-7 9,-15 12,-22 5,17 5,34 5,49 0,17 0,34 0,50 0,18 9,29 24,30 15,3 31,-7 34,-23 2,-7 2,-13 2,-18 1,-50 1,-101 2,-151 0,-12 0,-23 0,-34 0,-15 -7,-28 -23,-33 -13,-6 -26,0 -36,11 -11,14 -24,29 -34,46 -16,27 -30,55 -45,83zm250 -92c0,21 2,41 0,62 0,40 -1,80 -1,120 0,18 13,29 28,29 15,0 26,-10 29,-26 1,-4 1,-9 1,-14 0,-26 0,-54 1,-82 0,-31 1,-64 3,-97 10,-1 20,-1 27,-3 14,-4 23,-16 23,-28 0,-14 -10,-27 -25,-28 -8,-1 -15,-1 -23,-1 -39,2 -77,6 -116,9 -2,1 -3,1 -6,2 -14,4 -21,15 -20,29 0,13 9,24 23,27 7,1 15,0 22,1 12,0 23,0 34,0zm265 35c-12,1 -22,3 -30,3 -12,0 -22,-2 -33,-2 0,-11 0,-20 0,-30 0,-16 0,-33 -1,-49 -2,-14 -12,-24 -24,-25 -13,-1 -26,7 -29,20 -2,6 -2,11 -2,18 0,49 0,97 0,146 0,21 -1,43 0,64 0,14 8,24 19,26 13,4 27,-1 32,-15 4,-5 4,-12 4,-20 1,-25 2,-50 2,-77 22,-1 42,-2 64,-3 0,13 0,25 2,36 0,16 0,33 1,48 1,16 16,29 30,26 15,-1 25,-12 25,-29 -1,-49 -2,-99 -2,-148 -2,-22 -2,-44 -3,-66 -1,-13 -12,-21 -25,-22 -13,0 -24,9 -28,22 0,5 0,12 0,17 0,20 -1,39 -2,60zm98 90c5,18 13,40 28,59 36,46 102,41 129,-12 27,-52 29,-108 16,-165 -9,-34 -32,-56 -66,-65 -10,-3 -21,-3 -31,1 -33,10 -57,33 -70,66 -15,36 -15,74 -6,116zm120 -96c7,38 5,73 -8,107 -1,4 -4,9 -6,12 -9,13 -23,13 -32,3 -3,-4 -6,-6 -7,-11 -18,-36 -23,-72 -8,-110 4,-10 13,-20 22,-26 15,-9 27,-4 35,12 2,5 2,10 4,13zm93 45c1,25 1,46 2,67 2,18 3,35 7,53 2,16 19,26 35,24 15,-4 24,-17 23,-34 -3,-38 -7,-75 -8,-112 -1,-23 1,-47 3,-70 1,-15 7,-20 21,-17 8,1 15,6 21,10 22,11 45,-1 45,-25 0,-15 -7,-29 -22,-34 -12,-5 -26,-8 -40,-9 -45,-5 -79,23 -83,69 -3,27 -3,54 -4,78zm189 51c5,18 13,40 28,59 36,46 102,41 129,-12 27,-52 29,-108 15,-165 -8,-34 -31,-56 -65,-65 -10,-3 -21,-3 -32,1 -32,10 -56,33 -69,66 -15,36 -15,74 -6,116zm120 -96c7,38 5,73 -8,107 -1,4 -4,9 -6,12 -9,13 -23,13 -32,3 -4,-4 -6,-6 -7,-11 -18,-36 -23,-72 -8,-110 4,-10 13,-20 22,-26 15,-9 27,-4 35,12 2,5 2,10 4,13zm-1977 623c8,-2 14,-4 19,-6 63,-21 124,-100 93,-188 -17,-46 -49,-69 -97,-74 -15,-1 -30,-3 -45,-5 -16,-3 -33,-1 -48,7 -50,27 -78,70 -84,126 -8,61 29,116 87,136 5,3 10,4 16,7 0,7 0,15 0,22 0,29 -1,58 -1,86 0,23 15,36 34,33 14,-2 23,-12 24,-28 1,-19 1,-38 1,-57 0,-20 1,-39 1,-59zm3 -208c34,-1 46,9 55,38 12,45 -11,89 -56,107 -2,-48 -2,-97 1,-145zm-59 2c-2,48 -2,96 -2,144 -11,3 -17,-2 -24,-8 -39,-35 -25,-114 26,-136zm273 89c-1,0 -3,-1 -4,-1 1,-28 3,-56 3,-85 1,-18 2,-37 1,-56 0,-14 -11,-23 -25,-24 -14,-1 -27,6 -30,21 -2,5 -2,12 -3,18 -1,53 -4,104 -5,157 -1,17 0,34 2,52 6,26 31,38 55,24 8,-5 16,-13 22,-22 15,-24 29,-47 43,-71 5,-8 9,-15 13,-23 5,18 5,34 5,49 0,18 0,34 0,50 0,18 9,29 24,31 15,2 30,-8 34,-24 1,-7 1,-13 1,-18 1,-50 1,-101 2,-151 0,-11 0,-23 0,-34 0,-15 -7,-28 -22,-33 -14,-6 -27,0 -37,12 -11,13 -24,29 -34,45 -16,28 -30,55 -45,83zm251 -92c0,22 1,42 0,62 0,40 -2,80 -2,121 0,17 13,29 28,29 15,0 26,-10 29,-27 1,-4 1,-9 1,-14 0,-26 0,-54 1,-81 0,-32 2,-65 3,-97 10,-2 20,-2 28,-4 14,-4 22,-15 22,-28 0,-14 -10,-26 -25,-28 -7,-1 -15,-1 -22,-1 -40,3 -77,6 -116,9 -3,1 -4,1 -7,2 -13,4 -21,16 -20,29 0,13 9,24 23,27 7,1 15,0 23,1 11,0 22,0 34,0zm264 35c-11,2 -21,3 -30,3 -11,0 -22,-1 -33,-1 0,-12 0,-20 0,-31 0,-16 0,-32 -1,-49 -1,-14 -11,-24 -24,-25 -13,-1 -25,8 -29,20 -1,7 -1,12 -1,18 0,49 0,97 0,146 0,21 -2,43 0,64 0,14 7,24 19,27 12,3 26,-2 31,-15 4,-6 4,-13 4,-21 1,-25 2,-50 2,-76 22,-2 42,-3 65,-4 0,14 0,25 1,36 0,17 0,33 1,48 1,17 16,29 30,27 15,-2 26,-13 26,-29 -2,-49 -3,-100 -3,-149 -1,-21 -1,-44 -3,-65 -1,-14 -12,-22 -25,-23 -12,0 -24,9 -27,23 0,5 0,11 0,16 0,20 -2,39 -3,60zm151 75c3,-2 5,-2 8,-3 11,0 21,0 33,-1 12,-1 26,-3 39,-5 23,-6 40,-25 42,-51 5,-40 -21,-84 -59,-98 -11,-3 -25,-6 -38,-3 -44,8 -73,36 -81,80 -9,38 -2,74 10,111 6,23 19,40 36,57 14,13 32,20 52,17 49,-4 82,-39 95,-80 4,-13 -2,-24 -13,-31 -12,-5 -24,-1 -32,10 -4,7 -7,13 -10,19 -7,13 -18,22 -31,28 -13,5 -22,4 -32,-6 -10,-13 -17,-27 -19,-44zm-7 -53c0,-24 6,-43 27,-53 21,-9 34,-4 44,14 3,6 6,12 7,20 1,9 -3,14 -12,15 -22,1 -44,3 -66,4zm180 24c4,17 5,35 11,53 13,42 53,69 101,70 41,0 88,-30 102,-68 5,-16 1,-30 -13,-38 -12,-7 -27,-3 -37,9 -6,8 -9,15 -14,22 -14,15 -33,20 -52,15 -19,-4 -30,-18 -34,-36 -5,-21 -5,-42 0,-63 5,-18 15,-34 30,-45 13,-10 25,-9 36,4 5,4 7,10 11,15 10,14 28,19 41,10 14,-9 18,-25 8,-41 -8,-13 -16,-24 -28,-33 -30,-27 -70,-27 -102,-3 -41,33 -59,77 -60,129zm414 21c1,11 1,18 1,23 2,20 3,39 5,59 2,16 13,25 27,25 16,1 28,-9 30,-25 0,-10 -1,-20 -1,-29 0,-29 -1,-58 -1,-87 0,-18 1,-36 0,-54 0,-10 -5,-21 -10,-29 -8,-10 -18,-16 -27,-25 -18,-15 -36,-23 -60,-22 -29,2 -54,12 -76,32 -50,44 -62,102 -50,165 7,45 51,64 89,40 14,-9 25,-19 35,-29 13,-12 23,-26 38,-44zm-104 20c-5,-40 -4,-78 29,-107 8,-7 21,-14 32,-17 13,-5 24,0 33,12 -26,40 -52,85 -94,112zm-2152 474c13,-18 19,-34 15,-54 -6,-33 -36,-58 -75,-63 -16,-3 -33,-4 -49,-4 -23,0 -35,12 -35,34 2,64 1,127 1,191 0,34 14,48 49,51 11,1 24,2 35,2 42,-2 80,-14 105,-47 26,-35 16,-78 -23,-99 -6,-4 -14,-6 -23,-11zm-89 102c1,-19 2,-37 2,-57 29,-6 56,-3 82,11 13,7 15,15 4,26 -7,7 -18,13 -28,17 -17,6 -37,8 -60,3zm0 -115c0,-18 0,-34 1,-53 15,-4 29,-1 42,9 11,9 11,18 0,26 -12,8 -25,14 -38,22 -1,-1 -3,-3 -5,-4zm625 -21c13,-18 25,-32 36,-47 10,-12 19,-24 28,-36 7,-14 5,-28 -6,-38 -11,-8 -24,-9 -36,0 -5,4 -9,9 -12,12 -22,28 -43,56 -65,84 -20,28 -16,52 14,70 17,10 36,18 53,25 12,5 24,0 30,-10 8,-9 10,-21 3,-31 -5,-7 -13,-13 -20,-18 -8,-4 -15,-6 -25,-11zm102 -23c2,-5 3,-8 6,-10 6,-6 14,-14 20,-21 5,-5 10,-11 15,-17 10,-12 10,-29 0,-39 -10,-10 -25,-12 -36,-2 -28,22 -53,47 -70,79 -6,11 -8,26 2,34 25,20 51,40 79,57 14,8 33,-3 38,-19 6,-15 -2,-28 -17,-37 -12,-7 -25,-16 -37,-25zm211 86c0,6 1,12 1,19 0,27 0,55 2,83 1,19 12,29 29,30 15,0 27,-11 29,-29 1,-11 0,-23 0,-34 0,-24 -2,-47 -2,-66 28,-12 52,-22 75,-36 11,-6 22,-16 30,-27 36,-54 35,-109 4,-164 -17,-28 -42,-43 -72,-47 -9,-1 -16,-3 -25,-3 -2,-3 -2,-5 -2,-7 -3,-22 -13,-32 -30,-32 -15,2 -26,13 -29,32 -1,5 -1,10 -2,15 -58,16 -97,52 -117,107 -22,60 6,122 61,144 15,5 31,10 48,15zm66 -211c32,-6 45,2 58,28 7,20 12,40 6,62 -10,33 -30,49 -69,56 1,-49 3,-98 5,-146zm-65 148c-46,-5 -69,-37 -54,-78 9,-28 29,-47 58,-63 1,49 -1,94 -4,141zm289 74c-1,0 -3,-1 -4,-1 1,-28 3,-56 3,-85 1,-19 2,-37 1,-56 0,-14 -11,-23 -25,-24 -14,-1 -27,6 -31,21 -1,5 -1,12 -2,18 -1,53 -4,104 -5,157 -1,17 0,34 2,52 5,26 31,38 55,24 8,-5 16,-13 22,-22 15,-24 29,-48 43,-71 5,-8 9,-16 13,-23 5,18 5,34 5,49 0,18 0,34 0,50 0,18 8,29 24,31 15,2 30,-8 34,-24 1,-7 1,-13 1,-18 1,-50 1,-101 2,-151 0,-11 0,-23 0,-34 0,-15 -7,-28 -22,-33 -14,-6 -27,0 -37,12 -11,13 -24,29 -34,45 -16,28 -30,55 -45,83zm301 -42c6,-20 14,-35 16,-51 5,-23 -4,-42 -24,-56 -25,-17 -80,-11 -102,13 -8,9 -10,23 -3,33 7,10 21,14 34,9 12,-4 29,-16 37,-12 9,12 -1,24 -11,31 -13,8 -26,16 -40,25 -14,8 -20,20 -15,34 5,12 18,19 32,17 5,-1 10,-3 15,-4 21,-4 36,6 36,27 0,11 -4,24 -7,35 -21,5 -36,4 -47,-14 -9,-12 -26,-12 -38,-5 -14,9 -18,24 -9,37 5,7 10,14 18,20 26,24 59,24 90,15 29,-8 42,-31 47,-57 9,-38 4,-72 -29,-97zm155 46c4,10 7,17 10,25 7,24 15,47 23,69 7,19 21,25 37,22 17,-5 24,-19 18,-38 -14,-39 -28,-77 -43,-116 -4,-9 -2,-15 4,-23 11,-14 21,-29 31,-44 5,-6 8,-12 10,-19 6,-13 0,-26 -12,-32 -13,-8 -27,-5 -37,6 -2,2 -3,6 -6,9 -16,22 -34,46 -50,69 -3,3 -7,5 -13,11 0,-14 0,-24 0,-34 0,-15 1,-30 -1,-44 -1,-15 -14,-24 -28,-24 -14,0 -26,10 -29,24 -1,5 0,12 0,17 -1,47 -1,94 -1,141 0,22 0,46 2,69 3,18 17,28 33,25 15,-1 25,-13 25,-30 0,-11 -1,-23 -2,-34 -3,-23 10,-35 29,-49zm214 109c-13,29 -25,62 -48,88 -9,12 -18,22 -25,33 -9,15 -5,32 7,40 13,11 29,8 41,-6 25,-31 49,-63 65,-101 34,-74 58,-152 82,-230 3,-8 4,-15 3,-23 0,-12 -9,-22 -19,-25 -12,-4 -22,-1 -29,8 -5,5 -8,11 -10,17 -13,41 -24,81 -37,120 -1,6 -5,11 -7,18 -22,-17 -34,-37 -42,-60 -9,-25 -13,-50 -11,-76 1,-15 -8,-27 -22,-29 -12,-3 -26,3 -32,16 -3,5 -4,11 -4,18 0,49 7,97 38,137 13,19 32,35 50,55zm321 -211c0,11 1,20 0,29 -4,46 -7,92 -10,138 -1,10 -1,20 1,29 3,14 15,23 28,23 14,-1 25,-10 28,-24 1,-4 1,-8 1,-11 4,-53 8,-106 10,-159 1,-15 0,-32 -2,-47 -4,-20 -18,-35 -38,-35 -30,-1 -62,-1 -92,3 -23,2 -33,17 -34,39 -1,7 -1,14 -1,21 1,21 1,44 1,66 0,25 -3,49 -11,73 -7,0 -11,-2 -16,-2 -21,2 -34,20 -27,41 7,27 44,41 68,24 9,-8 19,-18 22,-28 9,-22 17,-43 19,-66 4,-29 2,-58 3,-88 0,-7 0,-16 0,-26 17,0 31,0 50,0zm150 24c0,-23 0,-42 0,-62 -1,-16 -11,-26 -26,-28 -16,-1 -29,9 -32,24 -1,12 -1,22 -1,32 0,39 -1,77 0,114 0,22 0,44 1,66 4,34 37,50 68,43 10,-3 19,-7 29,-11 49,-16 81,-66 61,-124 -11,-32 -36,-49 -71,-53 -9,-1 -18,-1 -29,-1zm-1 132c0,-27 0,-50 0,-78 10,1 17,0 24,1 15,1 20,6 22,20 8,29 -7,48 -46,57zm218 -150c0,21 1,42 0,62 0,40 -2,80 -2,121 0,17 13,29 28,29 15,0 27,-10 29,-27 1,-4 1,-9 1,-14 0,-26 0,-54 2,-82 0,-31 1,-64 2,-96 10,-2 20,-2 28,-4 14,-4 22,-15 22,-28 0,-14 -10,-26 -25,-28 -7,-1 -15,-1 -22,-1 -39,3 -77,6 -116,9 -3,1 -4,1 -6,2 -14,4 -22,16 -21,29 0,13 9,24 23,27 8,1 15,0 23,1 11,0 22,0 34,0zm202 110c3,-2 6,-2 8,-3 11,0 21,0 33,-1 12,-1 26,-3 39,-5 24,-7 40,-25 43,-51 5,-40 -22,-84 -60,-98 -11,-4 -25,-6 -37,-4 -44,9 -73,37 -82,81 -9,38 -1,74 10,111 6,22 19,40 36,56 14,14 32,21 52,18 49,-4 82,-39 96,-80 4,-13 -3,-24 -14,-31 -11,-5 -24,-1 -32,10 -3,7 -7,13 -10,19 -7,13 -17,22 -31,28 -13,5 -22,4 -32,-6 -10,-13 -17,-27 -19,-44zm-7 -53c0,-24 6,-43 28,-53 20,-9 34,-4 44,14 2,6 5,12 6,20 1,9 -3,14 -11,15 -23,1 -44,2 -67,4zm336 -47c-15,20 -29,38 -43,57 -13,17 -7,41 13,46 11,4 21,0 29,-7 25,-24 44,-52 58,-83 7,-15 5,-32 -6,-43 -24,-25 -50,-50 -76,-73 -15,-13 -36,-4 -43,15 -2,5 -2,11 -4,20 -11,-10 -20,-19 -29,-26 -11,-13 -26,-14 -39,-5 -12,10 -15,27 -6,41 4,7 11,12 18,18 12,11 26,23 40,35 -6,6 -10,11 -14,16 -14,17 -29,33 -43,50 -12,17 -10,35 4,45 14,10 33,4 43,-10 16,-20 34,-39 52,-58 16,-16 29,-32 22,-61 10,9 17,16 24,23z"/>
  </g>
 </g>
</svg>
