<?xml version="1.0" encoding="UTF-8"?>
<!DOCTYPE svg PUBLIC "-//W3C//DTD SVG 1.1//EN" "http://www.w3.org/Graphics/SVG/1.1/DTD/svg11.dtd">
<!-- Creator: CorelDRAW X6 -->
<svg xmlns="http://www.w3.org/2000/svg" xml:space="preserve" width="45mm" height="45mm" version="1.1" style="shape-rendering:geometricPrecision; text-rendering:geometricPrecision; image-rendering:optimizeQuality; fill-rule:evenodd; clip-rule:evenodd"
viewBox="0 0 4500 4500"
 xmlns:xlink="http://www.w3.org/1999/xlink">
 <defs>
  <style type="text/css">
   <![CDATA[
    .str0 {stroke:black;stroke-width:75}
    .fil2 {fill:black}
    .fil0 {fill:#E94F42}
    .fil1 {fill:#FEFEFE;fill-rule:nonzero}
   ]]>
  </style>
 </defs>
 <g id="Слой_x0020_1">
  <metadata id="CorelCorpID_0Corel-Layer"/>
  <g id="_367596328">
   <path class="fil0 str0" d="M4129 4220c0,0 121,-140 126,-669 6,-529 23,-2140 25,-2323 2,-182 116,-533 -15,-701 -131,-168 -95,-285 -709,-291 -614,-7 -1936,-20 -2185,-23 -249,-3 -836,-152 -1001,61 -165,213 -191,676 -198,1284 -6,609 149,1352 98,1743 -52,391 -133,749 -39,840 94,92 504,169 1367,178 862,9 1804,19 2019,21 214,3 512,-120 512,-120z"/>
   <g>
    <g>
     <path class="fil1" d="M728 782c-17,-27 -39,-45 -70,-49 -23,-4 -46,-5 -71,-7 0,-36 0,-83 0,-122 36,0 53,0 71,0 9,1 19,1 28,1 33,-1 53,-13 53,-26 -1,-15 -23,-27 -54,-28 -92,-4 -102,-4 -112,-4 -26,0 -41,16 -39,43 1,25 1,60 1,85 0,66 0,132 0,198 0,7 -1,15 -3,20 -5,24 4,40 26,43 34,5 67,2 98,-10 27,-10 48,-26 65,-50 20,-29 24,-67 7,-94zm-53 66c-22,27 -52,35 -89,35 0,-33 0,-64 0,-96 30,-8 55,-7 80,6 24,13 27,35 9,55zm149 -12c-1,0 -3,-1 -4,-1 1,-25 3,-49 3,-75 1,-17 2,-34 1,-51 0,-12 -10,-20 -23,-21 -12,-1 -23,5 -27,19 -1,4 -1,10 -2,16 -1,47 -3,93 -4,140 -2,15 0,30 2,46 4,24 27,34 48,21 8,-4 15,-11 20,-19 14,-21 26,-42 38,-64 5,-6 8,-13 12,-20 4,16 4,30 4,44 0,16 0,30 0,45 0,16 8,26 22,27 13,2 27,-7 30,-22 1,-5 1,-11 1,-15 1,-45 1,-90 2,-135 0,-10 0,-20 0,-30 0,-14 -6,-25 -20,-30 -12,-5 -24,0 -33,10 -10,13 -21,26 -30,41 -14,25 -27,49 -40,74zm291 -88c0,11 1,18 0,26 -3,42 -7,82 -9,124 -1,9 -1,18 1,26 2,12 14,20 25,20 12,-1 22,-9 24,-21 2,-4 2,-7 2,-11 3,-47 6,-94 9,-141 1,-14 0,-28 -3,-42 -3,-18 -15,-31 -33,-31 -27,-1 -55,-1 -82,2 -21,2 -30,16 -31,35 -1,7 -1,12 -1,19 1,19 1,39 1,58 0,23 -2,44 -10,66 -5,0 -9,-2 -13,-2 -19,2 -31,18 -25,36 7,25 39,38 61,22 8,-7 17,-16 20,-25 8,-19 15,-38 17,-58 3,-26 1,-52 2,-79 0,-7 0,-15 0,-24 16,0 28,0 45,0zm128 104c3,-1 5,-1 7,-2 10,0 19,0 29,-2 11,-1 24,-2 35,-4 21,-6 36,-23 38,-45 5,-36 -19,-75 -53,-88 -10,-3 -22,-5 -33,-3 -40,8 -65,33 -73,72 -8,34 -1,66 9,99 5,20 17,36 32,50 13,13 28,18 46,16 44,-3 73,-35 86,-72 3,-11 -3,-21 -13,-27 -10,-4 -21,-1 -28,9 -3,6 -6,11 -9,17 -6,11 -15,19 -28,25 -11,4 -19,3 -28,-6 -9,-11 -16,-23 -17,-39zm-6 -47c0,-22 5,-39 24,-48 18,-7 31,-3 40,13 2,5 4,11 5,18 1,8 -2,12 -10,13 -20,1 -39,2 -59,4zm226 -51c0,19 1,37 0,55 0,36 -1,72 -1,108 0,16 11,26 24,26 14,0 24,-9 26,-24 1,-3 1,-8 1,-12 0,-24 0,-48 1,-73 0,-28 1,-57 3,-87 9,-1 18,-1 24,-3 13,-3 21,-14 21,-25 0,-12 -9,-23 -23,-24 -7,-2 -13,-2 -20,-2 -35,3 -69,6 -104,8 -2,1 -3,1 -5,3 -12,3 -19,13 -18,25 0,12 8,22 20,24 7,1 14,0 20,1 10,0 21,0 31,0zm573 32c-10,1 -19,2 -27,2 -10,0 -19,-1 -30,-1 0,-10 0,-18 0,-27 0,-15 0,-30 -1,-44 -1,-12 -10,-21 -21,-23 -11,-1 -22,7 -26,18 -1,6 -1,10 -1,16 0,44 0,87 0,130 0,19 -1,39 0,58 0,12 7,21 17,23 11,4 23,-1 28,-13 3,-5 3,-11 3,-18 1,-23 3,-45 3,-69 19,-1 37,-2 57,-3 0,12 0,22 1,33 0,14 0,29 1,42 1,15 15,26 27,24 14,-1 23,-11 23,-26 -2,-44 -3,-89 -3,-133 -1,-19 -1,-39 -2,-58 -1,-12 -11,-19 -22,-20 -12,0 -22,8 -25,20 0,4 0,10 0,15 0,18 -1,34 -2,54zm223 59c2,10 2,16 2,20 1,18 2,35 4,53 1,15 11,23 24,23 14,1 24,-8 27,-23 0,-9 -1,-18 -1,-26 0,-26 -2,-51 -2,-77 0,-16 2,-33 0,-49 0,-9 -4,-19 -9,-25 -6,-9 -15,-15 -23,-23 -16,-13 -33,-20 -54,-19 -26,1 -48,10 -67,28 -45,39 -56,91 -45,147 6,41 46,58 79,36 13,-8 23,-17 32,-26 11,-11 20,-23 33,-39zm-93 18c-4,-36 -3,-70 26,-95 8,-7 19,-13 29,-16 12,-5 22,0 29,11 -23,36 -46,75 -84,100zm635 -119c0,6 1,13 1,19 -1,32 -2,66 -3,98 0,16 -1,33 -1,49 1,16 10,25 23,26 14,0 24,-9 26,-24 0,-3 0,-5 0,-8 1,-47 3,-94 5,-141 0,-13 -2,-25 -4,-36 -4,-22 -18,-34 -40,-34 -17,0 -35,-1 -52,2 -11,0 -24,3 -34,6 -16,7 -27,20 -29,38 -1,11 -2,20 -3,31 -1,31 -1,62 -2,93 -2,17 -2,35 -2,52 0,13 9,23 22,26 12,1 22,-7 26,-21 2,-4 2,-10 2,-14 1,-35 1,-68 2,-102 1,-19 2,-38 3,-57 21,-5 40,-4 60,-3zm130 108c2,-1 4,-1 6,-2 10,0 19,0 29,-2 12,-1 24,-2 35,-4 22,-6 36,-23 38,-45 5,-36 -19,-75 -52,-88 -10,-3 -23,-5 -34,-3 -39,8 -65,33 -73,72 -8,34 -1,66 9,99 6,20 17,36 33,50 12,13 28,18 46,16 43,-3 73,-35 85,-72 3,-11 -2,-21 -12,-27 -11,-4 -22,-1 -28,9 -4,6 -7,11 -9,17 -7,11 -16,19 -29,25 -11,4 -19,3 -28,-6 -9,-11 -15,-23 -16,-39zm-7 -47c0,-22 5,-39 24,-48 18,-7 31,-3 40,13 2,5 4,11 5,18 2,8 -2,12 -10,13 -20,1 -39,2 -59,4zm211 138c9,0 17,1 26,0 32,-1 74,-20 85,-67 5,-20 9,-42 8,-64 0,-29 -9,-56 -31,-76 -29,-27 -64,-37 -103,-31 -22,2 -30,10 -34,31 -1,5 -1,9 -1,14 -10,102 -4,204 0,306 1,6 2,13 4,18 8,15 29,18 40,6 5,-6 7,-15 7,-22 1,-17 -1,-35 -1,-52 -1,-21 0,-40 0,-63zm-4 -51c1,-47 3,-91 4,-133 29,-6 55,9 63,33 9,26 5,52 -5,78 -5,12 -16,18 -29,20 -9,1 -19,1 -33,2zm273 -92c11,-16 17,-30 14,-48 -6,-29 -33,-52 -68,-56 -14,-3 -29,-4 -44,-4 -20,0 -31,12 -31,31 2,57 1,113 1,170 0,31 12,43 44,45 10,1 21,3 31,3 37,-3 71,-13 93,-42 24,-31 15,-70 -20,-89 -5,-3 -12,-5 -20,-10zm-80 91c1,-17 3,-32 3,-50 25,-6 49,-3 73,10 11,5 13,13 3,22 -7,7 -16,12 -25,16 -16,5 -33,7 -54,2zm0 -102c0,-16 0,-30 1,-47 14,-4 26,-1 37,8 11,7 11,15 0,23 -10,7 -22,13 -33,19 -1,-1 -2,-2 -5,-3zm207 -5c0,-19 0,-37 0,-55 -1,-6 -1,-12 -3,-19 -2,-9 -11,-14 -21,-14 -12,-1 -21,3 -25,12 -2,6 -4,12 -4,18 2,43 3,85 4,128 0,16 0,31 1,47 3,32 27,46 63,40 35,-7 72,-41 79,-73 10,-47 -21,-79 -76,-82 -4,-2 -10,-2 -18,-2zm6 46c12,-2 23,-1 32,7 9,9 6,19 2,28 -6,14 -16,25 -32,31 -5,-12 -7,-44 -2,-66zm149 72c3,-29 1,-151 0,-184 0,-16 -10,-26 -24,-26 -15,0 -26,10 -27,25 -1,7 -1,15 -1,22 1,56 1,111 1,166 0,4 0,10 1,14 2,10 12,18 23,18 12,0 22,-5 25,-16 2,-5 2,-12 2,-19zm137 -275c-13,1 -17,-4 -22,-12 -5,-9 -17,-13 -26,-9 -8,4 -13,13 -12,23 1,5 3,10 6,14 12,21 31,28 55,27 22,-1 37,-16 43,-42 5,-12 0,-22 -10,-27 -11,-5 -22,-1 -28,12 -3,4 -4,10 -6,14zm-49 209c-1,0 -2,-1 -3,-1 1,-25 2,-49 2,-75 1,-17 2,-34 1,-51 0,-12 -10,-20 -22,-21 -13,-1 -24,5 -27,19 -1,4 -1,10 -2,16 -2,47 -4,93 -5,140 -1,15 0,30 2,46 5,24 27,34 49,21 7,-4 14,-11 20,-19 13,-21 26,-42 38,-64 5,-6 8,-13 11,-20 5,16 5,30 5,44 0,16 0,30 0,45 0,16 8,26 21,27 14,2 27,-7 30,-22 2,-5 2,-11 2,-15 1,-45 1,-90 2,-135 0,-10 0,-20 0,-30 0,-14 -7,-25 -20,-30 -13,-5 -24,0 -33,10 -10,13 -21,26 -30,41 -15,25 -27,49 -41,74zm-3055 345c0,7 1,13 1,19 -1,32 -3,66 -4,98 0,16 -1,33 -1,49 1,16 10,25 24,26 13,0 23,-9 26,-24 0,-3 0,-5 0,-8 1,-47 3,-94 4,-141 0,-12 -1,-25 -3,-36 -5,-22 -18,-33 -41,-33 -16,0 -34,-2 -51,1 -12,0 -24,3 -34,6 -17,7 -27,21 -29,39 -1,10 -2,20 -4,30 -1,31 -1,62 -2,93 -1,17 -1,35 -1,52 0,13 9,23 21,26 13,1 23,-7 26,-21 2,-4 2,-10 2,-14 2,-35 2,-68 3,-102 1,-19 2,-38 3,-57 20,-5 39,-4 60,-3zm82 121c4,17 11,36 25,53 32,42 91,37 115,-10 24,-47 26,-97 14,-147 -8,-30 -28,-51 -59,-59 -9,-2 -19,-2 -28,2 -29,9 -50,29 -61,58 -14,33 -14,66 -6,103zm107 -85c6,34 4,65 -7,95 -1,4 -3,8 -6,12 -8,11 -20,11 -28,2 -3,-3 -5,-6 -7,-10 -15,-32 -20,-64 -6,-98 3,-9 11,-18 19,-23 13,-8 25,-4 31,11 3,4 3,9 4,11zm154 60c3,9 7,15 9,22 7,21 13,42 20,62 7,17 19,22 34,19 14,-5 21,-17 15,-34 -12,-35 -24,-68 -38,-103 -3,-8 -2,-14 4,-20 10,-13 19,-26 28,-40 4,-5 6,-11 9,-17 4,-12 0,-23 -11,-29 -12,-6 -24,-4 -33,6 -2,2 -3,5 -6,8 -14,20 -30,41 -45,62 -2,2 -5,4 -11,10 0,-13 0,-22 0,-31 0,-13 1,-27 -1,-39 -1,-14 -12,-21 -25,-21 -12,0 -23,9 -26,21 -1,4 0,10 0,15 -1,42 -1,84 -1,125 0,21 0,42 3,62 2,16 14,25 29,23 13,-1 22,-12 22,-27 0,-10 -1,-21 -2,-31 -2,-20 9,-31 26,-43zm255 5c1,10 1,16 1,20 1,18 3,35 5,53 1,15 11,23 23,23 15,1 25,-8 27,-23 0,-9 -1,-18 -1,-26 0,-26 -1,-51 -1,-77 0,-16 1,-33 0,-48 0,-9 -4,-20 -9,-26 -7,-9 -16,-15 -23,-23 -16,-13 -33,-20 -54,-19 -26,1 -49,10 -68,28 -45,40 -55,91 -45,147 7,41 46,58 80,36 12,-8 22,-17 31,-26 12,-11 21,-23 34,-39zm-93 18c-5,-36 -3,-70 26,-95 8,-7 19,-13 29,-16 11,-5 21,0 29,11 -23,36 -46,75 -84,100zm291 -65c6,-17 13,-30 15,-45 4,-20 -4,-37 -22,-49 -22,-16 -71,-10 -91,11 -7,8 -9,20 -3,29 7,9 19,12 30,8 12,-3 26,-14 34,-10 8,10 -1,21 -10,27 -11,8 -24,15 -36,23 -12,6 -18,18 -13,30 4,10 16,17 29,15 4,-1 9,-2 13,-3 18,-4 32,5 32,23 0,10 -4,22 -6,32 -19,4 -32,3 -43,-12 -7,-12 -22,-12 -33,-5 -13,8 -16,21 -8,33 4,6 9,12 16,18 23,21 52,21 80,13 26,-7 38,-28 42,-50 8,-34 3,-65 -26,-88zm544 143c7,-3 12,-4 17,-6 56,-18 110,-89 83,-167 -16,-42 -44,-62 -87,-67 -13,-1 -27,-2 -40,-4 -15,-2 -29,-1 -43,7 -45,23 -69,61 -75,111 -7,55 26,104 78,122 4,3 9,4 14,6 0,7 0,13 0,20 0,26 -1,52 -1,76 0,21 14,33 30,30 13,-1 21,-10 22,-25 1,-17 1,-34 1,-51 0,-18 1,-34 1,-52zm2 -186c31,-1 42,8 50,34 10,40 -10,79 -51,95 -1,-43 -1,-86 1,-129zm-53 1c-1,43 -1,86 -1,129 -10,2 -15,-2 -21,-7 -35,-31 -23,-101 22,-122zm237 96c2,-1 4,-1 6,-2 10,0 19,0 30,-1 11,-2 23,-3 34,-5 22,-6 36,-22 39,-45 4,-36 -20,-75 -53,-88 -10,-3 -23,-5 -34,-3 -39,8 -65,33 -73,72 -8,34 -1,66 9,99 6,20 17,36 33,50 12,13 28,18 46,16 43,-3 73,-35 85,-72 3,-11 -2,-21 -12,-27 -10,-4 -22,-1 -28,9 -4,6 -7,11 -9,17 -7,11 -16,19 -28,25 -12,4 -20,3 -29,-6 -9,-11 -15,-23 -16,-39zm-7 -47c0,-22 5,-38 25,-47 18,-8 30,-4 39,12 2,6 4,11 6,18 1,8 -3,12 -11,13 -20,1 -39,3 -59,4zm155 21c4,16 5,32 10,47 12,38 47,62 90,63 37,0 79,-27 91,-61 5,-14 1,-26 -11,-33 -11,-7 -25,-4 -34,8 -4,6 -8,13 -12,19 -12,13 -29,18 -46,13 -17,-3 -27,-16 -31,-31 -4,-19 -4,-38 0,-56 5,-17 14,-31 27,-41 12,-9 23,-8 32,4 4,3 7,9 10,13 9,12 25,17 37,9 12,-8 16,-22 7,-37 -7,-11 -15,-21 -25,-29 -27,-24 -63,-24 -91,-3 -37,30 -53,69 -54,115zm287 -72c0,19 1,37 0,55 0,36 -1,72 -1,108 0,16 11,26 25,26 13,0 23,-9 25,-24 2,-3 2,-8 2,-12 0,-24 0,-48 1,-73 0,-28 1,-57 2,-87 9,-1 18,-1 25,-3 12,-3 20,-13 20,-25 0,-12 -9,-23 -23,-24 -6,-1 -13,-1 -20,-1 -35,2 -68,5 -103,7 -2,1 -4,1 -6,3 -12,3 -19,13 -18,25 0,12 8,22 20,24 7,1 14,0 21,1 10,0 20,0 30,0zm178 82c-1,0 -2,-1 -4,-1 2,-25 3,-49 3,-75 1,-17 2,-34 1,-51 0,-12 -10,-20 -23,-21 -12,-1 -23,6 -27,19 -1,4 -1,10 -2,16 -1,47 -3,93 -4,140 -2,15 0,30 2,46 4,24 27,34 48,22 8,-5 15,-12 20,-20 14,-21 26,-42 39,-64 4,-6 7,-13 11,-20 4,16 4,31 4,44 0,16 0,30 0,45 0,16 8,26 22,27 13,2 27,-7 30,-21 1,-6 1,-12 1,-16 1,-45 1,-90 2,-135 0,-10 0,-20 0,-30 0,-14 -6,-25 -20,-30 -12,-5 -23,0 -32,11 -11,12 -22,25 -31,40 -14,25 -27,49 -40,74z"/>
     <path class="fil1" d="M3132 1237c11,-16 17,-30 14,-48 -6,-29 -33,-52 -68,-56 -14,-2 -29,-4 -44,-4 -20,0 -31,12 -31,31 2,57 1,113 1,170 0,31 12,43 44,45 10,2 21,3 31,3 37,-3 71,-13 94,-42 23,-31 14,-70 -21,-89 -5,-3 -12,-5 -20,-10zm-80 91c2,-17 3,-32 3,-50 25,-6 49,-3 73,10 11,5 13,13 3,22 -7,7 -16,13 -25,16 -15,6 -33,7 -54,2zm0 -102c0,-16 0,-30 2,-47 13,-4 25,-1 37,8 10,8 10,15 0,23 -11,7 -23,13 -34,19 -1,-1 -2,-2 -5,-3zm304 56c1,10 1,16 1,20 1,18 2,35 5,53 1,15 11,23 23,23 15,1 25,-8 27,-23 0,-9 -1,-18 -1,-26 0,-26 -1,-51 -1,-77 0,-16 1,-33 0,-48 0,-9 -5,-20 -9,-26 -7,-9 -16,-15 -24,-23 -15,-13 -32,-20 -54,-19 -25,1 -48,10 -67,28 -45,40 -55,91 -45,147 7,41 46,58 80,36 12,-8 22,-17 31,-26 12,-11 21,-23 34,-39zm-93 18c-5,-36 -4,-70 26,-95 7,-7 19,-13 29,-16 11,-5 21,0 29,11 -24,36 -46,75 -84,100zm319 -114c0,10 1,18 0,25 -3,42 -7,82 -9,124 -1,9 -1,18 1,26 2,12 14,20 25,20 12,-1 22,-9 25,-21 1,-4 1,-7 1,-10 3,-48 7,-95 9,-142 1,-13 0,-28 -2,-42 -4,-18 -16,-31 -34,-31 -27,-1 -55,-1 -82,2 -20,2 -29,16 -31,35 -1,7 -1,12 -1,19 1,19 1,39 1,59 0,22 -2,43 -10,65 -5,0 -9,-1 -13,-1 -19,1 -30,18 -25,36 7,24 40,37 61,21 8,-7 17,-16 20,-25 8,-19 15,-38 17,-58 3,-26 1,-52 2,-79 0,-7 0,-14 0,-23 16,0 28,0 45,0zm181 105c0,4 0,7 0,10 0,16 0,33 1,50 0,15 10,26 24,27 15,1 26,-8 28,-24 8,-58 7,-101 6,-174 -4,-30 -10,-41 -40,-46 -45,-8 -77,11 -105,40 -23,24 -25,62 -6,89 6,7 14,14 21,20 -10,21 -22,40 -31,60 -7,14 -2,28 10,35 13,5 26,2 35,-11 15,-19 21,-44 35,-65 4,-7 10,-13 22,-11zm7 -108c-1,15 -2,30 -3,43 -1,15 -26,17 -39,16 -14,-1 -21,-16 -16,-28 6,-17 34,-33 58,-31zm-3375 531c0,20 -9,34 -23,47 -10,10 -21,7 -27,-5 0,-1 -1,-2 -1,-3 -7,-12 -17,-18 -30,-15 -13,4 -21,14 -20,27 2,14 7,26 19,35 24,16 49,21 77,9 24,-12 40,-31 49,-55 16,-40 15,-80 0,-120 -15,-38 -44,-57 -85,-64 -16,-4 -33,0 -46,9 -11,5 -14,14 -12,25 3,9 8,15 17,16 7,2 14,2 20,0 31,-6 55,12 57,43 -8,0 -17,1 -26,2 -16,3 -26,13 -25,25 1,14 12,24 29,24 9,0 17,0 27,0zm79 -14c4,16 5,32 10,47 11,39 47,62 90,63 37,0 79,-27 91,-60 5,-15 1,-27 -11,-34 -11,-7 -25,-3 -34,8 -4,6 -8,13 -12,19 -13,13 -29,18 -46,13 -17,-3 -27,-15 -31,-31 -4,-19 -4,-38 0,-56 5,-17 14,-31 27,-41 12,-9 23,-8 32,4 4,3 7,9 10,13 9,12 25,17 37,9 12,-8 16,-22 7,-37 -7,-11 -15,-21 -25,-29 -27,-24 -63,-24 -91,-2 -37,29 -53,68 -54,114zm287 -72c0,19 1,37 0,55 0,36 -1,72 -1,108 0,16 11,26 24,26 14,0 24,-9 26,-24 1,-3 1,-7 1,-12 0,-24 0,-48 2,-73 0,-28 1,-57 2,-86 9,-2 18,-2 25,-4 12,-3 20,-13 20,-25 0,-12 -9,-23 -23,-24 -6,-1 -13,-1 -20,-1 -35,2 -68,5 -103,7 -3,2 -4,2 -6,3 -12,3 -19,13 -18,26 0,11 8,21 20,23 7,1 14,0 21,1 10,0 20,0 30,0zm128 111c5,17 12,36 25,53 33,42 91,37 116,-10 23,-47 26,-96 13,-147 -8,-30 -28,-51 -58,-58 -9,-3 -19,-3 -28,1 -30,9 -51,29 -62,58 -14,33 -14,66 -6,103zm107 -85c7,34 4,65 -7,96 -1,3 -3,7 -5,11 -8,11 -21,11 -28,2 -4,-3 -6,-6 -7,-10 -16,-31 -20,-64 -7,-98 3,-9 11,-18 19,-23 14,-8 25,-4 32,11 2,4 2,9 3,11zm188 6c-10,1 -19,2 -27,2 -10,0 -19,-1 -29,-1 0,-10 0,-18 0,-27 0,-15 0,-29 -1,-44 -2,-12 -11,-21 -22,-22 -11,-2 -22,6 -26,18 -1,5 -1,10 -1,15 0,44 0,87 0,131 0,19 -1,38 0,57 0,12 7,21 17,23 11,4 24,-1 28,-13 4,-4 4,-11 4,-18 1,-22 2,-45 2,-68 19,-2 37,-3 57,-4 0,13 0,23 1,33 0,14 0,29 1,42 2,15 15,26 27,24 14,-1 23,-11 23,-26 -1,-44 -2,-89 -2,-132 -2,-19 -2,-40 -3,-59 -1,-12 -11,-19 -22,-20 -11,0 -21,8 -25,20 0,5 0,10 0,15 0,18 -1,35 -2,54zm75 40c4,16 5,32 11,47 11,39 47,62 89,63 38,0 79,-27 91,-60 5,-15 2,-27 -11,-34 -11,-7 -25,-3 -34,8 -4,6 -7,13 -12,19 -12,13 -29,18 -46,13 -17,-3 -27,-15 -30,-31 -5,-19 -5,-38 0,-56 4,-17 13,-31 27,-41 11,-9 22,-8 31,4 5,3 7,9 10,13 9,12 25,17 37,9 13,-8 16,-22 7,-37 -7,-11 -15,-21 -25,-29 -27,-24 -63,-24 -91,-2 -37,29 -52,68 -54,114zm292 14c3,9 6,15 9,22 6,21 13,42 20,62 7,17 19,22 34,19 14,-5 21,-17 15,-34 -12,-35 -24,-68 -38,-103 -3,-8 -2,-14 4,-20 10,-13 19,-26 28,-40 4,-5 6,-11 9,-16 4,-13 0,-24 -12,-30 -11,-6 -23,-4 -32,6 -2,2 -4,6 -6,8 -14,20 -30,41 -45,62 -2,2 -5,4 -11,10 0,-13 0,-22 0,-31 0,-13 1,-27 -1,-39 -1,-13 -12,-21 -25,-21 -12,0 -23,9 -26,21 -1,5 0,10 0,15 -1,42 -1,84 -1,125 0,21 0,42 2,62 3,16 15,25 30,23 13,-1 22,-11 22,-27 0,-10 -1,-20 -2,-31 -2,-20 9,-31 26,-43zm113 25c5,17 12,36 25,53 33,42 91,37 116,-10 23,-47 26,-96 13,-147 -7,-30 -28,-51 -58,-58 -9,-3 -19,-3 -28,1 -29,9 -51,29 -62,58 -13,33 -13,66 -6,103zm107 -85c7,34 5,65 -7,96 -1,3 -3,7 -5,11 -8,11 -20,11 -28,2 -4,-3 -6,-6 -7,-10 -16,-31 -20,-64 -7,-98 4,-9 12,-18 19,-23 14,-8 25,-4 32,11 2,4 2,9 3,11zm184 -153c-13,1 -17,-4 -22,-12 -5,-9 -17,-12 -26,-9 -7,4 -13,13 -12,24 1,4 3,10 6,13 12,21 31,28 55,27 22,-1 37,-16 44,-42 4,-12 0,-22 -11,-27 -11,-5 -22,-1 -28,12 -3,4 -4,10 -6,14zm-49 209c-1,0 -2,-1 -3,-1 1,-25 2,-49 2,-75 1,-17 2,-34 1,-51 0,-12 -10,-20 -22,-21 -13,-1 -24,6 -27,19 -1,5 -1,10 -2,16 -1,47 -4,93 -5,140 -1,15 0,31 2,46 5,24 27,34 49,22 8,-5 14,-12 20,-19 13,-22 26,-43 38,-64 5,-7 8,-14 11,-21 5,16 5,31 5,44 0,16 0,30 0,45 0,16 8,26 21,27 14,2 27,-7 31,-21 1,-6 1,-12 1,-16 1,-45 1,-90 2,-135 0,-10 0,-20 0,-30 0,-14 -7,-25 -20,-29 -13,-6 -24,0 -33,10 -10,12 -21,26 -30,40 -15,25 -27,50 -41,74zm638 9c2,10 2,16 2,20 1,18 2,35 4,53 1,15 11,23 24,23 14,1 24,-8 27,-23 0,-9 -2,-18 -2,-26 0,-25 -1,-51 -1,-77 0,-16 1,-33 0,-48 0,-9 -4,-19 -9,-26 -6,-9 -15,-15 -23,-23 -16,-13 -33,-20 -54,-19 -26,1 -48,10 -68,28 -44,40 -55,91 -44,147 6,41 46,58 79,36 13,-7 23,-16 32,-25 11,-12 20,-24 33,-40zm-93 18c-4,-36 -3,-69 26,-95 8,-7 19,-13 29,-16 11,-4 22,0 29,11 -23,36 -46,76 -84,100zm285 -77c-10,1 -19,2 -27,2 -10,0 -19,-1 -29,-1 0,-10 0,-18 0,-27 0,-15 0,-29 -2,-44 -1,-12 -10,-21 -21,-22 -11,-2 -22,6 -26,18 -1,5 -1,10 -1,15 0,44 0,87 0,131 0,19 -1,38 0,57 0,12 7,21 17,23 11,4 24,-1 28,-13 3,-4 3,-11 3,-18 2,-22 3,-45 3,-68 19,-2 37,-3 57,-4 0,13 0,23 1,33 0,14 0,29 1,42 1,15 15,26 27,24 14,-1 23,-11 23,-26 -1,-44 -3,-89 -3,-132 -1,-19 -1,-40 -2,-59 -1,-12 -11,-19 -22,-20 -12,0 -22,8 -25,20 0,5 0,10 0,15 0,18 -1,35 -2,54zm131 50c-1,0 -2,-1 -3,-1 1,-25 2,-49 2,-75 1,-17 3,-34 1,-51 0,-12 -10,-20 -22,-21 -12,-1 -24,6 -27,19 -1,5 -1,10 -2,16 -1,47 -4,93 -5,140 -1,15 0,31 3,46 4,24 26,34 48,22 8,-5 14,-12 20,-19 14,-22 26,-43 38,-64 5,-7 8,-14 11,-21 5,16 5,31 5,44 0,16 0,30 0,45 0,16 8,26 21,27 14,2 27,-7 31,-21 1,-6 1,-12 1,-16 1,-45 1,-90 2,-135 0,-10 0,-20 0,-30 0,-14 -7,-25 -20,-29 -13,-6 -24,0 -33,10 -10,12 -21,26 -30,40 -15,25 -27,50 -41,74zm269 3c-3,-9 -7,-15 -8,-21 -7,-28 -15,-56 -24,-83 -4,-11 -8,-21 -15,-30 -15,-17 -37,-15 -48,3 -4,7 -7,14 -8,22 -3,18 -7,37 -8,56 -4,42 -7,85 -10,128 -2,18 7,30 21,31 15,1 25,-8 27,-26 1,-15 2,-31 5,-47 1,-19 2,-38 3,-57 6,6 8,11 10,17 8,20 16,39 24,59 7,15 16,28 33,30 18,0 27,-14 32,-30 9,-27 17,-55 26,-83 1,-4 3,-10 4,-16 4,4 5,7 5,11 2,37 3,74 4,111 1,16 11,27 26,27 14,-1 24,-13 24,-29 -3,-54 -4,-109 -7,-164 0,-11 -3,-22 -8,-31 -8,-18 -28,-25 -44,-16 -9,6 -17,13 -22,21 -8,13 -15,28 -19,42 -9,24 -15,48 -23,75zm296 6c1,10 1,16 1,20 1,18 2,35 5,53 1,15 11,23 23,23 15,1 25,-8 27,-23 0,-9 -1,-18 -1,-26 0,-25 -1,-51 -1,-77 0,-16 1,-33 0,-48 0,-9 -5,-19 -9,-26 -7,-9 -16,-15 -24,-23 -15,-13 -32,-20 -54,-19 -25,1 -48,10 -67,28 -45,40 -55,91 -45,147 7,41 46,58 80,36 12,-7 22,-16 31,-25 12,-12 20,-24 34,-40zm-93 18c-5,-36 -4,-69 26,-95 7,-7 19,-13 29,-16 11,-4 21,0 29,11 -24,36 -46,76 -84,100zm229 31c0,-7 -1,-13 -1,-20 -2,-51 2,-108 2,-165 0,-11 -10,-20 -22,-22 -10,-1 -21,3 -26,13 -3,7 -4,14 -4,22 -2,31 -2,64 -2,95 0,26 0,53 0,79 2,23 11,35 33,44 17,5 33,6 51,5 23,-2 48,-3 70,-4 4,5 6,8 8,10 6,10 16,14 27,11 11,-2 19,-10 20,-23 3,-29 -5,-43 -33,-45 -1,0 -3,-2 -5,-3 -3,-48 8,-123 5,-175 -1,-15 -12,-24 -25,-24 -12,0 -24,8 -26,21 -1,4 -1,9 -1,13 -2,55 -2,109 -7,165 -21,1 -41,8 -64,3zm234 -58c-1,0 -2,-1 -3,-1 1,-25 2,-49 2,-75 1,-17 2,-34 1,-51 0,-12 -10,-20 -22,-21 -13,-1 -24,6 -27,19 -1,5 -1,10 -3,16 -1,47 -3,93 -4,140 -1,15 0,31 2,46 5,24 27,34 49,22 7,-5 14,-12 20,-19 13,-22 26,-43 38,-64 4,-7 8,-14 11,-21 5,16 5,31 5,44 0,16 0,30 0,45 0,16 8,26 21,27 14,2 27,-7 30,-21 1,-6 1,-12 1,-16 2,-45 2,-90 3,-135 0,-10 0,-20 0,-30 0,-14 -7,-25 -20,-29 -13,-6 -24,0 -33,10 -10,12 -21,26 -30,40 -15,25 -27,50 -41,74zm204 0c-1,0 -2,-1 -4,-1 2,-25 3,-49 3,-75 1,-17 2,-34 1,-51 0,-12 -10,-20 -23,-21 -12,-1 -23,6 -27,19 -1,5 -1,10 -2,16 -1,47 -3,93 -4,140 -1,15 0,31 2,46 4,24 27,34 48,22 8,-5 15,-12 20,-19 14,-22 26,-43 39,-64 4,-7 7,-14 11,-21 4,16 4,31 4,44 0,16 0,30 0,45 0,16 8,26 22,27 13,2 27,-7 30,-21 1,-6 1,-12 1,-16 1,-45 1,-90 2,-135 0,-10 0,-20 0,-30 0,-14 -6,-25 -20,-29 -12,-6 -23,0 -32,10 -11,12 -22,26 -31,40 -14,25 -27,50 -40,74zm-2797 413c11,-16 17,-31 14,-49 -6,-29 -33,-51 -68,-56 -14,-2 -29,-3 -44,-3 -20,0 -31,11 -31,30 2,57 1,114 1,171 0,30 12,43 44,45 10,1 21,2 31,2 37,-2 71,-12 94,-41 23,-32 14,-70 -21,-89 -5,-4 -12,-6 -20,-10zm-80 91c2,-17 3,-33 3,-51 25,-6 49,-2 73,10 11,6 13,14 3,23 -7,6 -16,12 -25,15 -15,6 -33,7 -54,3zm0 -103c0,-15 0,-30 2,-47 13,-3 25,-1 37,8 10,8 10,16 0,24 -11,6 -23,12 -34,19 -1,-1 -2,-2 -5,-4zm585 -4c33,2 66,6 97,8 1,2 1,3 3,4 3,22 6,44 11,67 3,18 7,37 11,56 3,14 16,21 29,19 14,-3 22,-14 22,-29 -2,-4 -3,-10 -3,-14 -11,-65 -21,-130 -32,-195 -6,-32 -10,-64 -15,-96 -2,-10 -4,-20 -8,-29 -14,-34 -52,-40 -75,-12 -15,15 -25,34 -34,55 -38,77 -61,161 -83,245 -3,15 -7,30 -8,44 -1,19 9,32 24,33 15,2 26,-9 28,-28 2,-10 3,-22 6,-32 9,-33 18,-66 27,-96zm69 -171c12,41 15,81 20,124 -23,1 -47,2 -73,-7 15,-40 30,-80 53,-117zm187 329c9,0 17,1 26,0 31,-1 74,-20 85,-66 5,-20 9,-43 8,-64 0,-29 -9,-56 -31,-76 -30,-27 -64,-37 -104,-32 -21,2 -29,10 -33,32 -1,4 -1,9 -1,13 -11,102 -4,205 0,307 1,5 2,12 4,18 8,14 29,18 39,5 6,-5 8,-14 8,-21 1,-18 -1,-36 -1,-53 -1,-20 0,-39 0,-63zm-4 -50c1,-47 3,-91 4,-134 29,-6 55,9 63,34 9,26 4,51 -6,77 -4,13 -15,18 -28,21 -9,1 -19,1 -33,2z"/>
     <path class="fil1" d="M2112 2149c3,15 4,31 10,47 11,38 47,61 90,63 37,0 79,-27 91,-61 4,-15 1,-27 -11,-34 -12,-7 -25,-3 -34,8 -5,7 -8,14 -12,19 -13,14 -30,18 -46,14 -17,-4 -27,-16 -31,-32 -4,-19 -4,-38 0,-56 5,-17 14,-30 27,-40 11,-9 23,-8 32,3 4,3 6,9 10,13 9,13 24,17 37,9 12,-7 16,-22 7,-37 -7,-11 -15,-21 -25,-29 -27,-23 -63,-23 -91,-2 -37,29 -53,68 -54,115zm270 25c2,-1 4,-1 7,-2 10,0 19,0 29,-1 11,-1 23,-2 35,-5 21,-5 36,-22 38,-44 4,-36 -19,-76 -53,-88 -10,-3 -22,-6 -34,-3 -39,7 -65,32 -73,71 -8,34 -1,67 9,99 6,21 17,36 33,51 12,12 28,18 46,16 44,-4 73,-35 85,-72 4,-12 -2,-22 -12,-27 -10,-5 -21,-1 -28,9 -4,5 -7,11 -9,17 -7,11 -16,19 -28,24 -11,5 -19,4 -28,-5 -9,-12 -16,-24 -17,-40zm-7 -47c0,-21 6,-38 25,-47 18,-8 30,-3 39,12 2,6 5,12 6,18 1,8 -3,13 -10,14 -21,1 -40,2 -60,3zm264 -19c-10,1 -19,2 -27,2 -10,0 -19,-1 -29,-1 0,-10 0,-18 0,-27 0,-14 0,-29 -1,-44 -1,-12 -10,-21 -21,-22 -12,-1 -23,7 -26,18 -1,6 -1,10 -1,16 0,43 0,86 0,130 0,19 -1,38 0,57 0,13 7,22 17,24 11,3 23,-1 28,-14 3,-4 3,-11 3,-18 1,-22 2,-45 2,-68 19,-1 37,-2 58,-4 0,13 0,23 1,33 0,15 0,29 1,43 1,14 14,26 27,23 13,-1 22,-11 22,-25 -1,-44 -2,-89 -2,-133 -1,-19 -1,-39 -2,-58 -1,-13 -11,-20 -23,-21 -11,0 -21,8 -24,21 0,4 0,10 0,14 0,18 -2,35 -3,54zm224 60c1,10 1,15 1,20 1,18 3,35 5,53 1,14 11,22 23,22 15,1 25,-8 27,-22 0,-9 -1,-18 -1,-26 0,-26 -1,-52 -1,-78 0,-15 1,-32 0,-48 0,-9 -4,-19 -9,-26 -7,-9 -16,-14 -23,-22 -16,-14 -33,-21 -54,-19 -26,1 -49,10 -68,28 -45,39 -55,91 -45,147 7,40 46,57 80,36 12,-8 23,-17 32,-26 11,-11 20,-24 33,-39zm-93 18c-5,-36 -3,-70 26,-96 8,-7 19,-12 29,-16 11,-4 21,0 29,12 -23,36 -46,75 -84,100zm319 -115c0,10 1,18 0,26 -3,41 -6,82 -9,123 -1,9 -1,18 1,26 3,13 14,20 25,20 13,-1 23,-9 25,-21 1,-3 1,-7 1,-10 3,-47 7,-94 9,-142 1,-13 0,-28 -2,-41 -4,-18 -16,-32 -34,-32 -27,-1 -55,-1 -82,3 -20,2 -29,15 -30,35 -1,6 -1,12 -1,19 1,19 1,39 1,58 0,22 -3,44 -10,65 -6,0 -9,-1 -14,-1 -19,1 -30,18 -25,36 7,25 40,37 61,21 8,-6 17,-15 20,-24 8,-19 15,-39 17,-59 3,-26 1,-51 2,-78 0,-7 0,-15 0,-24 16,0 28,0 45,0zm129 103c2,-1 4,-1 6,-2 11,0 20,0 30,-1 11,-1 23,-2 34,-5 22,-5 36,-22 39,-44 4,-36 -19,-76 -53,-88 -10,-3 -23,-6 -34,-3 -39,7 -65,32 -73,71 -8,34 -1,67 9,99 6,21 17,36 33,51 12,12 28,18 46,16 44,-4 73,-35 85,-72 3,-12 -2,-22 -12,-27 -10,-5 -22,-1 -28,9 -4,5 -7,11 -9,17 -7,11 -16,19 -28,24 -12,5 -19,4 -28,-5 -9,-12 -16,-24 -17,-40zm-7 -47c0,-21 6,-38 25,-47 18,-8 30,-3 39,12 2,6 4,12 6,18 1,8 -3,13 -11,14 -20,1 -39,2 -59,3zm-1004 437c0,-1 0,-1 0,-1 33,0 64,0 97,0 11,0 20,-8 25,-18 3,-12 1,-25 -11,-30 -6,-5 -15,-7 -24,-7 -22,0 -43,2 -64,2 -36,0 -72,-1 -107,-2 -15,0 -25,7 -29,19 -4,11 2,26 14,32 10,3 21,4 31,5 22,0 46,0 68,0zm-1001 240c-1,10 -1,23 -2,31 0,54 -1,108 -1,163 0,18 12,28 28,27 16,-1 27,-16 26,-33 -1,-6 -2,-13 -2,-20 0,-46 1,-92 2,-138 1,-31 2,-64 2,-97 0,-16 -8,-27 -20,-30 -12,-3 -24,1 -32,11 -19,24 -38,49 -56,73 -9,12 -6,25 4,34 10,9 23,9 35,-1 4,-3 12,-16 16,-20zm76 52c2,18 3,35 6,53 1,12 4,23 7,34 6,21 16,42 31,58 30,34 73,35 103,3 12,-14 24,-30 30,-45 22,-43 30,-89 23,-136 -7,-47 -24,-89 -69,-114 -34,-19 -77,-15 -101,23 -5,10 -10,20 -14,31 -12,31 -15,62 -16,93zm150 -4c-3,39 -9,76 -34,109 -15,19 -27,18 -40,-5 -6,-13 -13,-28 -17,-42 -9,-38 -7,-77 0,-115 2,-8 5,-17 8,-25 9,-22 30,-28 49,-13 9,8 15,18 21,28 6,10 8,21 10,33 2,10 2,20 3,30zm75 4c2,18 3,35 6,53 1,12 4,23 7,34 6,21 16,42 31,58 30,34 73,35 103,3 12,-14 24,-30 30,-45 22,-43 30,-89 23,-136 -7,-47 -24,-89 -69,-114 -34,-19 -77,-15 -101,23 -5,10 -10,20 -14,31 -12,31 -15,62 -16,93zm150 -4c-3,39 -9,76 -34,109 -15,19 -27,18 -40,-5 -6,-13 -13,-28 -17,-42 -9,-38 -7,-77 0,-115 2,-8 5,-17 8,-25 9,-22 30,-28 49,-13 9,8 15,18 21,28 6,10 8,21 10,33 2,10 2,20 3,30zm475 186c9,0 16,2 25,0 32,-1 75,-20 86,-66 4,-20 9,-43 8,-64 0,-29 -9,-56 -32,-76 -29,-27 -64,-37 -103,-32 -22,3 -29,10 -34,32 -1,4 -1,9 -1,13 -10,102 -3,205 0,307 1,6 2,12 4,18 8,14 30,18 40,5 5,-5 8,-14 8,-21 1,-18 -1,-36 -1,-53 -2,-20 0,-39 0,-63zm-5 -50c1,-47 3,-91 5,-134 29,-5 55,9 62,34 9,26 5,52 -5,77 -5,13 -16,18 -28,21 -9,1 -19,1 -34,2zm225 45c-11,26 -22,55 -43,78 -8,11 -15,20 -22,30 -8,13 -5,28 7,36 11,9 25,6 36,-6 22,-28 43,-56 58,-90 30,-66 52,-136 73,-205 2,-7 3,-14 2,-21 0,-11 -8,-20 -17,-22 -10,-3 -19,-1 -25,7 -5,4 -7,10 -9,15 -12,36 -22,72 -33,107 -1,6 -5,10 -7,16 -19,-15 -30,-33 -37,-53 -8,-22 -11,-45 -10,-69 1,-13 -7,-23 -19,-25 -11,-3 -24,3 -29,14 -2,5 -4,10 -4,16 0,44 7,86 34,122 12,17 29,32 45,50zm194 -236c-3,-44 14,-81 50,-107 12,-9 27,-14 42,-20 17,-6 24,-16 22,-30 -3,-15 -14,-23 -32,-21 -8,2 -16,3 -22,6 -55,25 -96,64 -109,125 -5,29 -6,59 -6,88 1,53 5,105 7,157 1,33 25,49 58,38 12,-5 24,-11 36,-18 42,-25 63,-64 63,-112 0,-31 -12,-57 -36,-77 -22,-17 -46,-25 -73,-29zm-3 56c36,-1 60,21 60,53 -1,34 -18,57 -52,72 -5,-43 -5,-84 -8,-125zm278 -9c0,10 1,18 0,26 -3,42 -7,82 -9,124 -1,9 -1,17 1,25 2,13 14,21 25,21 12,-2 22,-9 25,-22 1,-3 1,-7 1,-10 3,-47 6,-94 9,-141 1,-14 0,-29 -3,-42 -3,-18 -15,-31 -33,-31 -27,-2 -55,-2 -82,2 -20,2 -29,16 -31,35 -1,6 -1,12 -1,19 1,19 1,39 1,58 0,23 -2,44 -10,65 -5,0 -9,-1 -13,-1 -19,1 -30,18 -25,36 7,25 39,37 61,21 8,-6 17,-15 20,-24 8,-19 15,-38 17,-59 3,-25 1,-51 2,-78 0,-7 0,-15 0,-24 16,0 28,0 45,0zm128 103c3,-1 5,-1 7,-2 10,0 19,0 29,-1 12,-1 24,-2 35,-4 22,-6 36,-23 38,-45 5,-36 -19,-76 -52,-88 -11,-3 -23,-6 -34,-3 -39,8 -65,32 -73,72 -8,33 -1,66 9,98 5,21 17,36 32,51 13,12 29,18 47,16 43,-4 73,-35 85,-72 3,-11 -2,-22 -12,-27 -11,-5 -22,-1 -29,9 -3,5 -6,11 -9,17 -6,11 -15,19 -28,24 -11,5 -19,4 -28,-5 -9,-11 -15,-24 -17,-40zm-6 -47c0,-21 5,-38 24,-47 18,-8 31,-3 40,12 2,6 4,12 5,18 1,8 -2,13 -10,14 -20,1 -39,2 -59,3zm259 -177c-12,1 -16,-5 -21,-13 -5,-9 -17,-12 -26,-9 -8,5 -13,14 -12,24 1,5 3,10 6,14 12,21 31,28 55,26 22,-1 37,-15 43,-41 5,-12 0,-23 -10,-27 -11,-6 -22,-1 -28,11 -3,5 -4,10 -7,15zm-48 209c-1,0 -2,-1 -3,-1 1,-25 2,-50 2,-76 1,-17 2,-33 1,-50 0,-13 -10,-20 -22,-22 -13,-1 -24,6 -27,20 -1,4 -1,10 -2,15 -2,47 -4,94 -5,141 -1,14 0,30 2,46 5,23 27,33 49,21 7,-4 14,-11 20,-19 13,-21 26,-43 38,-64 4,-7 8,-14 11,-20 5,15 5,30 5,44 0,15 0,30 0,44 0,16 8,26 21,27 14,3 27,-6 30,-21 2,-6 2,-11 2,-16 1,-45 1,-89 2,-134 0,-11 0,-21 0,-31 0,-13 -7,-24 -20,-29 -13,-6 -24,0 -33,10 -10,13 -21,26 -30,41 -15,24 -27,49 -41,74z"/>
    </g>
    <path class="fil2" d="M2823 3367c-34,-47 -167,-59 -293,-73 -127,-13 -333,0 -410,0 -77,0 -70,54 -328,24 -258,-30 -296,-25 -287,12 9,37 -21,145 -1,178 20,34 195,74 297,74 103,0 378,-22 483,-27 105,-5 235,-47 303,-29 68,19 171,28 189,22 17,-5 47,-181 47,-181z"/>
    <path class="fil1" d="M1737 3401c0,2 1,5 1,7 -1,14 -1,27 -2,41 0,6 0,13 0,20 0,6 4,10 9,11 6,0 10,-4 11,-11 0,0 0,-1 0,-3 1,-19 1,-38 2,-58 0,-5 -1,-10 -1,-14 -2,-9 -8,-14 -17,-14 -7,0 -14,-1 -21,0 -5,0 -10,2 -14,3 -7,3 -11,8 -12,16 -1,4 -1,8 -1,12 -1,13 -1,26 -1,39 -1,7 -1,14 -1,21 0,5 4,9 9,10 5,1 9,-2 11,-8 0,-2 0,-4 0,-6 1,-14 1,-28 1,-42 1,-7 1,-15 2,-23 8,-2 16,-2 24,-1zm84 81c4,0 7,1 11,0 13,0 30,-8 35,-27 2,-8 3,-17 3,-26 0,-12 -4,-23 -13,-32 -12,-11 -26,-15 -42,-12 -9,0 -12,4 -14,12 -1,2 -1,4 -1,6 -4,42 -1,84 0,126 1,2 1,5 2,7 3,6 12,8 16,3 3,-3 4,-6 4,-9 0,-8 -1,-15 -1,-22 0,-8 0,-16 0,-26zm-2 -20c1,-20 2,-38 2,-55 12,-3 23,3 26,14 4,10 2,21 -2,31 -2,5 -7,8 -12,9 -4,0 -8,0 -14,1zm93 -12c2,7 5,15 10,22 13,17 37,15 48,-4 9,-19 10,-40 5,-60 -3,-13 -11,-21 -24,-24 -4,-1 -8,-1 -11,0 -12,4 -21,12 -26,24 -5,13 -5,27 -2,42zm44 -35c2,14 2,27 -3,40 -1,1 -1,3 -2,4 -4,5 -9,5 -12,1 -1,-1 -2,-2 -3,-4 -6,-13 -8,-26 -2,-40 1,-4 4,-7 7,-10 6,-3 11,-1 13,5 1,2 1,4 2,4zm112 24c-2,-3 -3,-6 -3,-8 -4,-11 -7,-23 -11,-34 -1,-5 -3,-9 -6,-12 -6,-7 -15,-6 -19,1 -2,3 -3,5 -4,9 -1,7 -2,15 -3,23 -2,17 -3,35 -4,52 -1,8 3,13 9,13 6,1 10,-3 11,-10 0,-7 1,-13 2,-20 0,-8 1,-15 1,-23 2,2 3,4 4,7 3,8 7,16 10,24 3,6 6,12 14,12 7,0 11,-5 13,-12 3,-11 6,-23 10,-34 1,-2 2,-4 2,-6 1,1 2,2 2,4 1,15 1,30 2,45 0,7 4,11 10,11 6,0 10,-5 10,-12 -1,-22 -1,-44 -3,-67 0,-4 -1,-9 -3,-12 -3,-8 -12,-11 -18,-7 -4,2 -7,5 -9,8 -3,6 -6,12 -8,18 -4,10 -6,19 -9,30zm93 11c2,7 4,15 10,22 13,17 37,15 47,-4 10,-19 11,-40 6,-60 -3,-13 -12,-21 -24,-24 -4,-1 -8,-1 -11,0 -12,4 -21,12 -26,24 -5,13 -5,27 -2,42zm44 -35c2,14 2,27 -3,40 -1,1 -1,3 -2,4 -4,5 -9,5 -12,1 -1,-1 -2,-2 -3,-4 -6,-13 -8,-26 -2,-40 1,-4 4,-7 7,-10 6,-3 11,-1 13,5 1,2 1,4 2,4zm93 25c1,4 3,6 3,9 3,9 6,17 9,25 3,7 8,10 14,8 6,-2 8,-7 6,-14 -5,-14 -10,-28 -16,-42 -1,-3 -1,-5 2,-8 4,-5 8,-11 11,-16 2,-3 3,-5 4,-7 2,-5 0,-10 -5,-12 -4,-3 -9,-2 -13,2 -1,1 -1,2 -2,3 -6,9 -13,17 -19,26 -1,1 -2,1 -4,4 0,-5 0,-9 0,-13 0,-5 0,-11 -1,-16 0,-5 -5,-9 -10,-9 -5,0 -10,4 -11,9 0,2 0,4 0,6 0,18 0,35 0,52 0,8 0,17 1,25 1,7 6,10 12,9 5,0 9,-4 9,-11 0,-4 0,-8 -1,-12 -1,-8 4,-13 11,-18zm76 10c2,7 5,15 10,22 14,17 38,15 48,-4 10,-19 11,-40 5,-60 -3,-13 -11,-21 -23,-24 -4,-1 -8,-1 -12,0 -12,4 -21,12 -25,24 -6,13 -6,27 -3,42zm44 -35c3,14 2,27 -3,40 0,1 -1,3 -2,4 -3,5 -8,5 -11,1 -2,-1 -3,-2 -3,-4 -7,-13 -9,-26 -3,-40 1,-4 5,-7 8,-10 5,-3 10,-1 13,5 1,2 1,4 1,4zm139 45c0,-1 0,-3 0,-4 0,-12 0,-25 0,-37 0,-7 0,-13 -1,-20 -4,-18 -24,-25 -39,-14 -9,7 -14,17 -16,28 0,5 -1,10 -1,15 -1,12 -2,23 -2,35 -2,1 -5,1 -7,2 -10,3 -12,7 -12,17 1,6 4,9 8,10 5,1 8,-1 11,-6 1,-3 2,-4 5,-4 1,-1 3,-1 5,-1 12,0 25,-1 38,-1 2,0 4,2 5,3 3,3 7,4 11,2 3,-1 6,-5 6,-9 1,-8 -1,-12 -11,-16zm-19 1c-7,1 -14,1 -21,1 0,-3 0,-6 0,-8 1,-13 2,-26 3,-39 0,-7 4,-12 9,-15 4,-3 8,-1 9,3 1,4 1,7 1,11 0,14 -1,30 -1,44 0,1 0,2 0,3zm83 15c5,0 10,-5 10,-11 0,-6 -4,-11 -10,-11 -7,0 -12,5 -12,11 0,5 6,11 12,11zm1 -54c5,1 10,-4 10,-10 0,-5 -4,-10 -10,-10 -5,0 -10,4 -10,10 -1,6 4,10 10,10z"/>
    <path class="fil1" d="M854 3695c5,-9 10,-17 14,-28 12,-29 6,-62 -14,-80 -20,-16 -43,-22 -68,-16 -6,1 -12,3 -18,4 -16,4 -23,11 -23,27 -1,53 -4,105 -5,158 0,37 2,74 3,110 1,18 18,33 34,32 16,0 33,-1 49,-2 40,-6 71,-25 82,-66 4,-14 6,-30 6,-44 -2,-25 -5,-50 -24,-69 -10,-9 -24,-17 -36,-26zm-70 163c0,-32 0,-60 0,-88 0,-9 3,-14 11,-18 14,-7 29,-10 45,-10 9,0 17,5 21,15 11,23 13,48 2,73 -6,14 -19,22 -33,24 -14,3 -28,2 -46,4zm1 -160c1,-14 2,-22 2,-32 1,-13 2,-26 2,-40 1,-10 4,-13 15,-13 18,0 27,11 25,28 -1,13 -6,22 -14,31 -8,9 -16,17 -30,26zm204 120c-1,0 -2,-1 -3,-1 1,-21 2,-42 2,-64 1,-14 2,-29 1,-43 0,-10 -9,-17 -19,-18 -11,-1 -20,5 -23,16 -1,4 -1,9 -2,13 -1,40 -3,79 -4,119 -1,13 0,26 2,40 4,20 23,28 41,18 7,-4 12,-10 17,-17 12,-18 22,-36 33,-54 3,-6 6,-11 9,-17 4,13 4,26 4,37 0,13 0,26 0,38 0,14 7,22 18,23 11,2 23,-6 26,-18 1,-5 1,-10 1,-13 1,-38 1,-77 2,-115 0,-8 0,-17 0,-25 0,-12 -6,-21 -18,-25 -10,-5 -20,0 -27,9 -9,10 -18,21 -26,34 -12,21 -23,42 -34,63zm249 -75c0,9 1,16 0,22 -3,35 -6,70 -8,105 -1,8 -1,15 1,22 2,10 12,17 21,17 11,-1 19,-8 21,-18 1,-3 1,-6 1,-9 3,-40 6,-80 8,-120 1,-11 0,-23 -2,-35 -3,-15 -13,-26 -29,-26 -23,-1 -46,-1 -69,1 -17,2 -25,14 -26,30 -1,6 -1,10 -1,16 1,16 1,33 1,50 0,19 -2,37 -9,55 -4,0 -7,-1 -11,-1 -16,1 -26,15 -21,30 6,21 33,32 52,18 6,-5 14,-13 17,-20 6,-17 12,-33 14,-50 3,-22 1,-44 2,-67 0,-5 0,-12 0,-20 13,0 24,0 38,0zm187 0c0,9 1,16 0,22 -3,35 -6,70 -7,105 -1,8 -1,15 0,22 2,10 12,17 21,17 11,-1 19,-8 21,-18 1,-3 1,-6 1,-9 3,-40 6,-80 8,-120 1,-11 0,-23 -2,-35 -3,-15 -13,-26 -29,-26 -22,-1 -46,-1 -69,1 -17,2 -25,14 -26,30 -1,6 -1,10 -1,16 1,16 1,33 1,50 0,19 -2,37 -8,55 -5,0 -8,-1 -12,-1 -16,1 -25,15 -21,30 6,21 34,32 52,18 6,-5 14,-13 17,-20 7,-17 12,-33 14,-50 3,-22 1,-44 2,-67 0,-5 0,-12 0,-20 13,0 24,0 38,0zm191 82c1,9 1,14 1,17 1,16 2,30 4,45 1,13 9,19 20,19 12,1 21,-6 23,-19 0,-7 -1,-15 -1,-22 0,-22 -1,-44 -1,-65 0,-14 1,-28 0,-41 0,-8 -4,-17 -8,-22 -5,-8 -13,-13 -20,-19 -13,-12 -27,-17 -45,-17 -22,1 -41,9 -58,24 -38,34 -46,77 -38,125 6,34 39,49 68,30 10,-6 19,-14 27,-21 9,-10 17,-20 28,-34zm-79 15c-4,-30 -3,-59 22,-80 7,-6 16,-11 25,-14 9,-4 18,0 25,10 -20,30 -39,64 -72,84zm310 22c-1,-2 -1,-5 -1,-7 1,-27 1,-53 1,-78 0,-14 0,-27 -3,-40 -8,-38 -49,-52 -81,-29 -19,14 -29,33 -32,57 -1,11 -2,21 -3,31 -1,24 -3,48 -4,73 -4,2 -9,2 -13,4 -21,7 -27,13 -25,34 1,13 7,19 16,21 10,2 17,-2 22,-13 2,-5 5,-8 10,-8 3,-1 7,-1 10,-1 27,-1 54,-2 80,-2 4,0 8,3 10,5 7,7 14,9 22,5 7,-3 12,-10 13,-18 2,-17 -3,-26 -22,-34zm-40 2c-14,1 -28,1 -43,2 -1,-6 -1,-11 -1,-16 2,-28 4,-54 6,-82 1,-13 9,-24 20,-30 9,-5 15,-2 18,7 2,7 2,15 2,21 0,31 -1,62 -1,93 0,1 -1,3 -1,5zm156 -58c11,3 14,10 13,20 -2,20 -3,41 -3,61 0,13 7,20 18,22 9,1 19,-6 22,-16 0,-6 0,-11 1,-16 0,-13 1,-25 2,-38 0,-3 1,-8 3,-10 6,-6 14,-11 21,-17 2,5 4,8 5,11 8,21 16,42 24,64 4,10 12,16 21,14 10,-1 17,-8 18,-19 0,-4 -1,-10 -3,-14 -9,-23 -16,-47 -27,-69 -7,-17 -9,-31 4,-45 7,-8 11,-17 15,-26 6,-13 -1,-27 -13,-28 -11,-2 -17,2 -23,11 -9,14 -18,29 -28,44 -3,5 -5,10 -13,14 0,-6 0,-10 0,-14 1,-12 2,-24 3,-36 0,-14 -8,-23 -19,-23 -11,-1 -20,7 -22,21 -1,11 -1,23 -2,34 -1,3 -2,7 -3,12 -12,-14 -23,-26 -33,-39 -7,-6 -11,-14 -18,-21 -8,-8 -18,-9 -27,-3 -7,6 -10,18 -6,27 2,4 6,7 9,11 11,12 20,24 31,38 -19,30 -29,63 -38,97 -2,13 2,24 13,27 11,3 21,-2 25,-15 3,-7 5,-15 7,-23 6,-20 13,-39 23,-56zm263 -44c0,-1 0,-1 0,-1 28,0 55,0 82,0 10,0 17,-6 21,-15 3,-10 1,-21 -8,-25 -6,-4 -14,-6 -21,-6 -18,0 -36,2 -55,2 -30,0 -61,-1 -90,-2 -12,0 -21,6 -25,16 -3,9 2,22 13,27 8,2 17,3 25,4 19,0 39,0 58,0zm201 12c29,2 56,5 83,6 1,2 1,3 2,4 3,19 5,38 9,57 3,15 6,32 10,47 3,12 13,18 25,16 11,-2 18,-11 18,-24 -1,-4 -2,-8 -2,-12 -10,-55 -18,-110 -28,-166 -5,-26 -8,-54 -12,-81 -2,-8 -4,-17 -7,-24 -12,-29 -45,-35 -64,-11 -12,14 -21,30 -28,47 -33,66 -53,137 -71,208 -3,12 -6,25 -6,37 -1,17 7,27 20,28 12,2 21,-8 23,-24 2,-8 3,-18 5,-27 8,-28 15,-55 23,-81zm59 -145c10,34 12,69 17,105 -20,1 -40,2 -62,-6 13,-34 25,-67 45,-99zm161 279c7,0 14,1 21,0 27,-1 63,-17 73,-56 4,-17 7,-36 6,-54 0,-25 -7,-48 -26,-65 -25,-23 -54,-32 -88,-27 -18,2 -25,9 -28,27 -1,4 -1,7 -1,11 -9,87 -3,174 0,260 1,5 2,11 3,16 7,12 25,15 34,4 5,-4 6,-12 6,-18 1,-15 0,-30 0,-45 -1,-17 0,-33 0,-53zm-4 -43c1,-40 3,-77 4,-113 24,-5 46,8 53,28 7,22 4,44 -5,66 -4,11 -13,15 -24,17 -7,1 -16,1 -28,2zm126 -56c3,13 4,27 9,40 9,32 40,52 76,53 31,0 66,-22 77,-51 4,-12 1,-23 -10,-29 -9,-5 -21,-2 -28,7 -4,6 -7,11 -11,16 -10,12 -24,15 -39,12 -14,-3 -23,-14 -25,-27 -4,-16 -4,-32 0,-48 3,-14 11,-25 22,-34 10,-8 19,-7 27,3 4,3 6,8 9,11 7,11 21,15 31,8 11,-7 13,-19 6,-31 -6,-10 -13,-18 -21,-25 -23,-20 -53,-20 -77,-2 -32,25 -45,58 -46,97zm231 22c2,-1 4,-1 6,-2 8,0 16,0 24,-1 10,-1 20,-2 30,-4 18,-4 30,-19 32,-38 4,-30 -16,-64 -44,-74 -9,-3 -19,-5 -29,-3 -33,7 -55,28 -62,61 -7,29 -1,56 8,84 5,17 14,30 27,43 11,10 24,15 39,13 38,-3 62,-29 73,-61 3,-9 -2,-18 -11,-23 -8,-4 -18,-1 -23,8 -3,5 -6,9 -8,14 -6,10 -13,16 -24,21 -9,4 -16,3 -24,-5 -7,-9 -13,-20 -14,-33zm-6 -40c0,-18 5,-32 21,-40 15,-7 26,-3 34,10 1,5 3,10 4,16 1,6 -2,10 -8,11 -17,1 -34,2 -51,3zm227 -16c-9,1 -17,2 -23,2 -9,0 -16,-1 -25,-1 0,-9 0,-15 0,-23 0,-12 0,-25 -1,-37 -1,-11 -9,-18 -18,-19 -10,-1 -19,5 -22,15 -1,5 -1,9 -1,13 0,37 0,74 0,111 0,16 -1,32 0,48 0,11 6,18 14,20 10,3 20,-1 24,-11 3,-4 3,-10 3,-15 1,-19 2,-38 2,-58 16,-1 31,-2 48,-3 0,10 0,19 1,27 0,13 0,25 1,37 1,12 13,21 23,20 12,-1 19,-10 19,-22 -1,-38 -2,-76 -2,-113 -1,-16 -1,-33 -2,-49 0,-11 -9,-16 -19,-17 -9,0 -18,6 -21,17 0,4 0,8 0,12 0,15 0,30 -1,46zm192 50c0,9 0,14 0,17 1,16 2,30 4,45 1,13 10,19 20,19 13,1 21,-6 23,-19 0,-7 -1,-15 -1,-22 0,-22 -1,-44 -1,-65 0,-14 1,-28 0,-41 0,-8 -4,-17 -7,-22 -6,-8 -14,-13 -20,-19 -14,-12 -28,-17 -46,-17 -22,1 -41,9 -57,24 -38,34 -47,77 -38,125 5,34 39,49 67,31 11,-7 19,-15 27,-22 9,-10 17,-20 29,-34zm-80 16c-3,-31 -2,-60 22,-81 7,-6 17,-11 25,-14 10,-4 18,0 25,10 -20,30 -39,64 -72,85zm273 -98c0,9 1,16 0,22 -2,36 -5,70 -7,105 -1,8 -1,15 1,22 2,10 11,17 21,17 10,-1 19,-8 21,-18 1,-3 1,-6 1,-9 2,-40 5,-80 7,-120 1,-11 0,-23 -2,-35 -3,-15 -13,-26 -28,-26 -23,-1 -47,-1 -70,1 -17,2 -25,14 -25,30 -1,6 -1,10 -1,16 1,16 1,33 1,50 0,19 -2,37 -9,55 -5,0 -8,-1 -11,-1 -17,1 -26,15 -21,30 5,21 33,32 51,19 7,-6 14,-14 17,-21 7,-17 13,-33 14,-50 3,-22 1,-44 2,-67 0,-5 0,-12 0,-20 14,0 24,0 38,0z"/>
   </g>
  </g>
 </g>
</svg>
