<?xml version="1.0" encoding="UTF-8"?>
<!DOCTYPE svg PUBLIC "-//W3C//DTD SVG 1.1//EN" "http://www.w3.org/Graphics/SVG/1.1/DTD/svg11.dtd">
<!-- Creator: CorelDRAW X6 -->
<svg xmlns="http://www.w3.org/2000/svg" xml:space="preserve" width="45mm" height="45mm" version="1.1" style="shape-rendering:geometricPrecision; text-rendering:geometricPrecision; image-rendering:optimizeQuality; fill-rule:evenodd; clip-rule:evenodd"
viewBox="0 0 4500 4500"
 xmlns:xlink="http://www.w3.org/1999/xlink">
 <defs>
  <style type="text/css">
   <![CDATA[
    .str0 {stroke:black;stroke-width:75}
    .fil2 {fill:black}
    .fil0 {fill:#E94F42}
    .fil1 {fill:#FEFEFE;fill-rule:nonzero}
   ]]>
  </style>
 </defs>
 <g id="Слой_x0020_1">
  <metadata id="CorelCorpID_0Corel-Layer"/>
  <g id="_367597480">
   <path class="fil0 str0" d="M300 339c0,0 141,-119 670,-119 530,0 2141,0 2324,0 182,0 534,-111 701,22 166,132 283,98 283,712 0,613 0,1936 0,2185 0,249 144,838 -71,1001 -214,163 -678,184 -1287,184 -608,0 -1349,-164 -1740,-116 -392,48 -751,125 -842,30 -90,-95 -163,-506 -163,-1369 0,-862 0,-1804 0,-2019 0,-214 125,-511 125,-511z"/>
   <g>
    <g>
     <path class="fil1" d="M1298 688c0,-34 -14,-49 -47,-57 -39,-7 -77,-6 -114,7 -13,5 -22,13 -26,25 -13,33 -11,92 -12,129 -2,58 -4,118 -5,176 -1,8 -1,17 -1,24 2,12 12,21 24,22 11,0 22,-7 25,-17 1,-5 2,-8 2,-12 2,-33 3,-64 4,-97 2,-55 3,-134 6,-189 0,-16 1,-16 17,-20 20,-7 40,-4 60,-1 16,2 17,2 17,17 0,89 -9,199 -4,288 2,14 14,22 25,22 12,0 22,-8 24,-20l5 -297zm83 319c8,0 16,2 25,0 30,-1 71,-19 82,-64 5,-19 9,-41 8,-62 0,-28 -9,-54 -31,-74 -28,-26 -62,-36 -100,-30 -20,2 -28,10 -32,30 -1,5 -1,9 -1,13 -10,99 -4,198 0,297 1,6 2,12 4,18 8,14 28,17 38,5 5,-5 8,-14 8,-21 1,-17 -1,-34 -1,-51 -2,-19 0,-38 0,-61zm-5 -49c1,-45 3,-88 5,-129 28,-5 53,9 60,33 9,25 5,50 -5,75 -4,12 -15,17 -27,19 -9,1 -19,1 -33,2zm201 -54c-1,0 -2,-1 -3,-1 1,-24 2,-48 2,-73 1,-16 3,-32 1,-49 0,-12 -9,-19 -21,-20 -12,-2 -23,5 -26,18 -2,4 -2,10 -3,15 -1,46 -3,91 -4,136 -1,14 0,30 2,45 5,23 26,32 47,20 8,-4 14,-10 20,-18 13,-21 25,-41 37,-62 4,-7 7,-13 10,-20 5,16 5,30 5,43 0,15 0,29 0,43 0,16 7,25 20,26 13,3 27,-6 30,-20 1,-6 1,-11 1,-15 1,-44 1,-87 2,-131 0,-10 0,-20 0,-29 0,-13 -6,-24 -20,-29 -11,-5 -22,0 -31,10 -10,12 -21,25 -29,39 -15,24 -27,48 -40,72zm588 -89c0,6 1,13 1,18 -1,32 -2,64 -3,95 0,16 -1,32 -1,48 1,15 9,24 22,25 13,0 23,-9 25,-24 0,-2 0,-4 0,-7 1,-46 4,-91 5,-137 0,-12 -1,-24 -4,-34 -4,-22 -17,-33 -39,-33 -16,0 -33,-1 -50,1 -11,0 -23,3 -32,7 -17,6 -26,19 -29,37 -1,9 -2,19 -3,29 -1,30 -1,60 -2,91 -1,16 -1,33 -1,49 0,13 9,23 21,25 11,1 21,-6 25,-19 2,-5 2,-10 2,-14 1,-34 1,-66 2,-99 1,-18 2,-37 3,-55 20,-5 38,-4 58,-3zm85 117c4,17 11,35 24,51 31,41 88,36 112,-9 22,-46 25,-94 13,-143 -8,-29 -28,-49 -57,-56 -9,-2 -18,-2 -27,1 -28,8 -49,28 -60,56 -13,32 -13,64 -5,100zm103 -82c7,32 4,63 -7,92 -1,3 -3,8 -5,11 -8,11 -20,11 -27,2 -3,-3 -6,-5 -7,-10 -15,-30 -19,-62 -6,-94 3,-9 11,-18 18,-23 13,-8 24,-3 31,11 2,4 2,9 3,11zm155 57c3,9 6,16 8,22 7,21 13,40 20,60 6,16 18,22 32,18 15,-4 21,-16 16,-32 -12,-34 -24,-67 -37,-100 -4,-8 -3,-13 3,-20 10,-12 18,-25 27,-38 4,-5 7,-11 9,-16 4,-12 0,-23 -11,-28 -11,-7 -23,-5 -32,5 -2,2 -3,5 -5,8 -14,19 -29,40 -44,59 -2,3 -5,5 -10,10 0,-12 0,-20 0,-29 0,-13 1,-26 -2,-38 -1,-13 -11,-21 -23,-21 -12,0 -23,9 -25,21 -2,4 0,10 0,14 -2,41 -2,81 -2,122 0,19 0,40 3,59 2,16 14,24 28,22 13,-1 22,-11 22,-26 0,-10 -1,-19 -3,-29 -2,-20 9,-31 26,-43zm184 95c-10,25 -21,53 -41,76 -7,10 -15,19 -22,28 -7,13 -4,28 7,35 11,9 25,7 35,-5 21,-27 42,-55 56,-87 30,-64 50,-132 71,-199 2,-7 3,-13 2,-20 0,-11 -7,-19 -16,-22 -10,-3 -19,-1 -25,7 -5,4 -7,10 -9,15 -11,35 -21,70 -31,103 -2,6 -5,10 -7,16 -18,-14 -29,-32 -36,-51 -7,-22 -11,-44 -10,-67 1,-13 -6,-23 -18,-25 -11,-2 -23,3 -28,14 -3,5 -4,10 -4,16 0,42 7,83 33,118 12,16 28,31 43,48zm252 -187c0,6 1,13 1,18 -1,32 -2,64 -3,95 0,16 -1,32 -1,48 1,15 9,24 22,25 13,0 23,-9 25,-24 0,-2 0,-4 0,-7 1,-46 4,-91 5,-137 0,-12 -1,-24 -4,-34 -4,-22 -17,-33 -39,-33 -16,0 -33,-1 -50,1 -11,0 -23,3 -32,7 -17,6 -26,19 -29,37 -1,9 -2,19 -3,29 -1,30 -1,60 -2,91 -1,16 -1,33 -1,49 0,13 9,23 21,25 11,1 21,-6 25,-19 2,-5 2,-10 2,-14 1,-34 1,-66 2,-99 1,-18 2,-37 3,-55 20,-5 38,-4 58,-3zm151 92c3,9 7,16 9,22 6,21 13,40 19,60 7,16 19,22 33,18 14,-4 21,-16 15,-32 -12,-34 -24,-67 -37,-100 -3,-8 -2,-13 3,-20 10,-12 19,-25 28,-38 4,-5 6,-11 8,-16 5,-12 0,-23 -11,-28 -10,-7 -22,-5 -31,5 -2,2 -3,5 -6,8 -14,19 -29,40 -43,59 -2,3 -5,5 -11,10 0,-12 0,-20 0,-29 0,-13 1,-26 -1,-38 -1,-13 -12,-21 -24,-21 -12,0 -23,9 -25,21 -1,4 0,10 0,14 -1,41 -1,81 -1,122 0,19 0,40 2,59 2,16 14,24 28,22 13,-1 22,-11 22,-26 0,-10 -1,-19 -2,-29 -2,-20 9,-31 25,-43zm161 12c2,-1 4,-1 7,-2 9,0 18,0 28,-1 11,-1 23,-2 34,-4 20,-6 34,-22 37,-44 4,-35 -19,-73 -52,-85 -9,-3 -21,-5 -32,-3 -38,8 -63,32 -71,70 -7,32 -1,64 9,95 5,20 16,35 31,49 12,12 28,18 45,16 42,-4 71,-34 83,-70 3,-11 -3,-21 -12,-26 -10,-4 -21,-1 -28,9 -3,5 -6,10 -8,16 -7,11 -15,18 -27,24 -11,4 -19,3 -28,-6 -8,-10 -15,-22 -16,-38zm-6 -45c0,-21 5,-37 23,-46 18,-8 30,-3 39,12 2,5 4,11 5,17 1,8 -2,12 -10,13 -19,1 -38,3 -57,4zm-2860 366c-2,-42 14,-78 49,-103 12,-9 26,-14 40,-20 16,-5 24,-15 22,-29 -3,-14 -14,-22 -32,-20 -7,2 -15,3 -20,6 -54,24 -94,62 -106,121 -5,28 -6,57 -6,86 1,51 5,101 7,151 1,32 24,48 56,37 12,-5 24,-11 35,-18 41,-24 60,-62 60,-108 0,-30 -10,-55 -34,-74 -21,-17 -45,-24 -71,-29zm-2 55c35,-1 57,20 57,51 -1,32 -17,55 -50,69 -5,-41 -5,-81 -7,-120zm189 76c-1,0 -2,-1 -3,-1 1,-24 2,-48 2,-73 1,-16 2,-33 1,-49 0,-12 -10,-20 -22,-21 -12,-1 -22,6 -26,19 -1,4 -1,9 -2,15 -1,46 -3,90 -4,136 -1,14 0,29 2,44 4,23 26,33 47,21 7,-4 14,-11 19,-18 13,-21 25,-42 37,-62 5,-7 8,-13 11,-20 4,15 4,29 4,42 0,16 0,30 0,44 0,15 8,25 21,26 13,2 26,-6 29,-21 2,-5 2,-10 2,-15 1,-43 1,-87 2,-130 0,-10 0,-20 0,-30 0,-13 -7,-24 -20,-28 -12,-5 -23,0 -31,10 -10,12 -21,25 -30,39 -14,24 -26,48 -39,72zm287 -85c0,10 1,17 0,25 -3,40 -6,79 -8,120 -2,8 -2,17 1,25 2,12 13,19 24,19 12,-1 21,-9 24,-20 1,-4 1,-7 1,-10 3,-46 6,-92 8,-137 1,-13 0,-27 -2,-41 -3,-17 -15,-30 -32,-30 -27,-1 -54,-1 -80,2 -19,2 -28,15 -29,34 -1,6 -1,12 -1,18 1,19 1,38 1,57 0,22 -2,42 -10,63 -5,0 -9,-1 -13,-1 -19,1 -29,17 -24,35 7,24 38,36 59,20 7,-6 16,-15 19,-24 8,-18 14,-37 17,-56 3,-25 1,-50 2,-76 0,-7 0,-14 0,-23 15,0 27,0 43,0zm130 100c2,-1 4,-1 6,-2 10,0 19,0 29,-1 10,-1 22,-2 33,-5 21,-5 35,-21 37,-43 5,-35 -18,-73 -51,-85 -10,-3 -22,-5 -32,-3 -39,7 -64,31 -71,69 -8,33 -1,65 9,96 5,20 16,35 31,49 12,12 27,17 45,15 42,-3 70,-33 82,-69 4,-11 -2,-21 -12,-26 -9,-5 -20,-2 -27,8 -3,6 -6,11 -9,17 -6,10 -15,18 -27,24 -11,4 -18,3 -27,-6 -9,-11 -15,-23 -16,-38zm-7 -46c0,-20 6,-37 24,-45 18,-8 30,-4 38,12 2,5 5,10 6,17 1,8 -2,12 -10,13 -20,1 -38,2 -58,3zm224 -49c0,19 1,36 0,54 0,34 -1,69 -1,104 0,15 11,25 24,25 13,0 23,-9 25,-23 1,-3 1,-7 1,-12 0,-23 0,-46 1,-70 0,-28 1,-56 3,-84 8,-1 17,-1 23,-3 12,-4 20,-13 20,-24 0,-12 -9,-23 -22,-24 -6,-1 -13,-1 -19,-1 -34,2 -67,5 -100,7 -2,1 -4,1 -6,2 -12,4 -18,14 -17,25 0,11 7,21 19,23 7,1 13,0 20,1 10,0 20,0 29,0zm267 88c1,10 1,16 1,20 1,17 2,34 4,51 1,14 11,22 23,22 14,1 24,-8 26,-22 0,-9 -1,-17 -1,-25 0,-25 -1,-50 -1,-75 0,-15 1,-31 0,-47 0,-8 -4,-18 -9,-25 -6,-8 -15,-14 -22,-21 -16,-13 -32,-20 -53,-19 -25,1 -46,10 -65,27 -43,38 -53,88 -43,143 6,39 44,55 77,35 12,-8 22,-17 30,-25 11,-11 20,-23 33,-39zm-90 18c-5,-35 -4,-68 25,-93 7,-6 18,-12 28,-15 11,-4 21,0 28,11 -23,35 -44,73 -81,97zm443 -75c-9,1 -18,2 -26,2 -9,0 -18,-1 -28,-1 0,-10 0,-17 0,-26 0,-14 0,-28 -1,-43 -1,-12 -10,-20 -21,-21 -11,-1 -21,6 -25,17 -1,6 -1,10 -1,15 0,43 0,84 0,126 0,19 -1,37 0,56 0,12 7,21 16,23 11,3 23,-1 28,-13 3,-5 3,-11 3,-18 1,-21 2,-43 2,-66 19,-1 36,-2 56,-3 0,12 0,21 1,31 0,14 0,29 1,42 1,14 14,25 26,22 13,-1 22,-10 22,-25 -1,-42 -3,-86 -3,-128 -1,-18 -1,-38 -2,-56 -1,-12 -11,-19 -21,-20 -11,0 -21,8 -24,20 0,4 0,9 0,14 0,17 -2,33 -3,52zm222 57c1,10 1,16 1,20 2,17 3,34 5,51 1,14 11,22 23,22 14,1 24,-8 26,-22 0,-9 -1,-17 -1,-25 0,-25 -1,-50 -1,-75 0,-15 1,-31 0,-47 0,-8 -5,-18 -9,-25 -7,-8 -15,-14 -23,-21 -15,-13 -32,-20 -52,-19 -25,1 -47,10 -65,27 -44,38 -54,88 -44,143 7,39 45,55 77,35 12,-8 22,-17 31,-25 11,-11 19,-23 32,-39zm-90 18c-4,-35 -3,-68 25,-93 8,-6 19,-12 28,-15 11,-4 21,0 29,11 -23,35 -45,73 -82,97zm474 -243c10,-1 18,-1 25,-1 9,0 17,0 24,0 18,-1 29,-11 30,-26 0,-14 -11,-25 -30,-25 -52,1 -105,2 -159,3 -15,0 -25,10 -26,23 -1,14 9,25 24,27 9,0 20,-1 30,-1 9,0 19,0 31,0 -1,12 -1,21 -2,31 -5,79 -8,159 -7,239 0,4 0,9 2,14 2,12 13,21 25,21 12,-1 21,-10 24,-22 1,-5 1,-11 0,-16 0,-82 2,-162 7,-244 1,-7 2,-15 2,-23zm148 112c-4,-32 -2,-66 -2,-99 0,-16 1,-31 0,-46 -1,-14 -11,-23 -23,-23 -13,-1 -24,7 -26,22 -1,2 -1,5 -1,7 0,50 -1,99 0,149 1,57 4,113 7,169 1,6 1,12 3,17 3,13 14,20 26,19 12,-1 20,-10 22,-22 0,-3 0,-6 0,-9 -1,-25 -2,-51 -4,-76 0,-8 -1,-15 3,-21 7,-19 18,-37 34,-50 8,-6 18,-16 30,-11 11,7 10,20 9,31 -2,33 -4,64 -5,97 -1,11 -1,21 -1,32 1,18 11,28 25,28 15,0 25,-12 26,-30 1,-41 5,-84 5,-125 1,-16 -3,-33 -8,-48 -12,-31 -46,-44 -76,-32 -14,5 -28,14 -44,21zm212 120c3,-1 5,-1 7,-2 10,0 18,0 28,-1 11,-1 23,-2 34,-5 21,-5 35,-21 37,-43 4,-35 -19,-73 -51,-85 -10,-3 -22,-5 -33,-3 -38,7 -63,31 -70,69 -8,33 -2,65 8,96 6,20 17,35 32,49 12,12 27,17 44,15 43,-3 71,-33 83,-69 3,-11 -2,-21 -12,-26 -10,-5 -21,-2 -27,8 -3,6 -7,11 -9,17 -6,10 -15,18 -27,24 -11,4 -19,3 -27,-6 -9,-11 -15,-23 -17,-38zm-6 -46c0,-20 5,-37 24,-45 17,-8 29,-4 38,12 2,5 4,10 5,17 1,8 -2,12 -9,13 -20,1 -39,2 -58,3zm296 39c1,10 1,16 1,20 1,17 2,34 4,51 1,14 11,22 23,22 14,1 24,-8 26,-22 0,-9 -1,-17 -1,-25 0,-25 -1,-50 -1,-75 0,-15 1,-31 0,-47 0,-8 -4,-18 -9,-25 -6,-8 -15,-14 -23,-21 -15,-13 -31,-20 -52,-19 -25,1 -46,10 -65,27 -43,38 -53,88 -43,143 6,39 44,55 77,35 12,-8 21,-17 30,-25 11,-11 20,-23 33,-39zm-90 18c-5,-35 -4,-68 25,-93 7,-6 18,-12 28,-15 11,-4 20,0 28,11 -23,35 -44,73 -81,97zm224 -134c0,23 0,44 1,64 0,31 1,61 2,92 0,20 8,40 27,51 25,15 53,15 82,12 14,-2 23,-17 20,-30 -2,-14 -13,-20 -29,-20 -10,0 -21,0 -30,-1 -18,-3 -19,-3 -20,-21 -1,-46 -1,-91 -2,-137 0,-3 2,-7 2,-10 8,0 13,0 18,0 17,-2 25,-11 25,-25 0,-13 -8,-23 -22,-25 -7,-1 -13,-1 -20,-2 0,-11 1,-20 1,-28 2,-31 3,-32 4,-61 0,-14 -8,-23 -20,-25 -12,-2 -23,4 -27,17 -3,4 -3,9 -4,13 -2,33 -2,36 -4,69 -1,5 -2,11 -3,17 -8,-1 -15,-2 -22,-1 -15,0 -26,10 -27,23 0,13 10,25 24,27 7,1 14,1 24,1zm180 53c32,-13 30,-13 72,-29 15,-5 24,-16 20,-29 -4,-13 -16,-19 -32,-16 -27,7 -35,14 -60,22 -2,-5 -3,-11 -4,-15 -3,-10 -13,-16 -23,-16 -11,1 -19,7 -22,17 -2,6 -1,11 -1,16 1,62 4,125 5,187 1,5 0,8 1,11 3,11 12,19 23,19 9,0 19,-6 22,-17 1,-4 3,-9 3,-15 0,-38 -2,-76 -3,-113 0,-6 -1,-13 -1,-22z"/>
     <path class="fil1" d="M3548 1386c2,-1 5,-1 7,-2 9,0 18,0 28,-1 11,-1 23,-2 34,-5 20,-5 34,-21 37,-43 4,-35 -19,-73 -51,-85 -10,-3 -22,-5 -33,-3 -38,7 -63,31 -71,69 -7,33 -1,65 9,96 5,20 16,35 31,49 12,12 28,17 45,15 42,-3 71,-33 83,-69 3,-11 -2,-21 -12,-26 -10,-5 -21,-2 -27,8 -4,6 -7,11 -9,17 -7,10 -15,18 -27,24 -11,4 -19,3 -28,-6 -8,-11 -15,-23 -16,-38zm-6 -46c0,-20 5,-37 24,-45 17,-8 29,-4 38,12 2,5 4,10 5,17 1,8 -2,12 -10,13 -19,1 -38,2 -57,3zm204 -94c0,-7 -1,-11 -1,-14 0,-35 0,-69 0,-103 0,-5 -1,-11 -2,-16 -2,-11 -11,-18 -21,-20 -12,-1 -21,6 -26,18 -2,4 -2,10 -2,15 0,79 1,159 1,237 0,15 1,75 3,89 1,13 12,21 25,20 12,0 21,-9 23,-22 1,-4 1,-9 0,-14 0,-26 0,-98 0,-125 0,-4 0,-9 1,-13 33,1 64,1 98,2 1,40 1,78 2,118 0,5 -1,12 0,17 2,14 14,24 28,23 13,-1 21,-10 22,-25 0,-5 0,-9 0,-13 0,-48 -1,-96 -1,-144 1,-48 4,-96 5,-143 0,-7 0,-12 -1,-18 -4,-13 -12,-19 -24,-19 -11,0 -22,6 -24,18 -3,6 -1,11 -3,16 0,32 -1,65 -1,96 -1,7 -2,14 -2,22 -33,-1 -66,-1 -100,-2zm391 18c-2,-12 -2,-36 -8,-57 -22,-74 -87,-116 -155,-118 -21,0 -45,14 -44,45 2,54 1,110 1,164 0,39 -2,79 -3,118 0,22 18,43 39,43 32,0 63,-6 89,-26 50,-40 74,-95 81,-169zm-157 141c1,-87 1,-173 2,-260 2,-1 5,-3 7,-3 53,10 94,53 95,108 2,38 -6,73 -26,104 -16,29 -38,48 -71,52 -3,0 -4,-1 -7,-1zm-3412 343c11,-15 17,-29 13,-46 -5,-29 -31,-51 -65,-55 -14,-2 -28,-3 -42,-3 -20,0 -31,11 -31,29 2,56 1,110 1,166 0,29 12,41 43,43 10,1 20,2 30,2 36,-2 69,-12 91,-40 22,-30 14,-67 -20,-86 -5,-3 -12,-5 -20,-10zm-77 88c1,-16 2,-31 2,-49 25,-5 48,-2 71,10 11,6 13,13 3,22 -6,6 -15,12 -24,15 -15,6 -32,7 -52,2zm0 -99c0,-15 0,-29 1,-45 13,-4 25,-1 36,7 10,8 10,16 0,23 -10,7 -22,12 -32,19 -2,-1 -3,-3 -5,-4zm413 49c4,9 7,16 9,22 7,21 13,40 20,60 6,16 18,22 32,18 15,-4 21,-16 16,-32 -12,-34 -24,-67 -37,-100 -4,-8 -3,-13 3,-20 10,-12 18,-25 27,-38 4,-5 7,-11 9,-16 4,-12 0,-23 -11,-29 -11,-6 -23,-4 -32,6 -2,2 -3,5 -5,8 -14,19 -29,40 -44,59 -2,3 -5,5 -10,10 0,-12 0,-21 0,-29 0,-13 1,-26 -2,-38 -1,-13 -11,-21 -23,-21 -12,0 -23,9 -25,21 -2,4 0,10 0,14 -2,41 -2,81 -2,122 0,19 0,40 3,59 2,16 14,24 28,22 13,-1 22,-11 22,-26 0,-10 -1,-19 -3,-29 -2,-20 9,-31 25,-43zm253 6c1,10 1,15 1,19 1,18 2,34 4,51 1,15 11,22 23,22 14,1 24,-7 26,-22 0,-8 -1,-17 -1,-25 0,-25 -1,-50 -1,-75 0,-15 1,-31 0,-46 0,-9 -4,-19 -9,-25 -6,-9 -15,-14 -22,-22 -16,-13 -32,-20 -53,-19 -25,1 -46,10 -65,28 -43,38 -53,88 -43,142 6,39 44,56 77,35 12,-8 22,-16 30,-25 11,-11 20,-23 33,-38zm-90 17c-5,-35 -4,-67 25,-92 7,-7 18,-12 28,-15 11,-5 21,0 28,10 -23,35 -44,73 -81,97zm175 -36c3,16 4,31 10,46 10,37 45,60 87,61 35,0 76,-26 88,-59 4,-14 1,-26 -11,-32 -11,-7 -24,-4 -33,7 -4,7 -7,13 -12,19 -12,13 -28,17 -44,13 -17,-4 -26,-16 -30,-31 -4,-18 -4,-37 0,-54 5,-16 13,-30 26,-39 11,-9 22,-8 31,3 4,3 6,9 10,13 8,12 24,16 35,9 12,-8 16,-22 7,-36 -7,-11 -14,-21 -24,-28 -26,-23 -61,-23 -88,-3 -36,29 -51,67 -52,111zm214 0c3,16 4,31 10,46 11,37 46,60 87,61 36,0 76,-26 88,-59 4,-14 1,-26 -11,-32 -11,-7 -24,-4 -33,7 -4,7 -7,13 -11,19 -12,13 -29,17 -45,13 -16,-4 -26,-16 -29,-31 -5,-18 -5,-37 0,-54 4,-16 13,-30 26,-39 11,-9 21,-8 30,3 4,3 7,9 10,13 9,12 24,16 36,9 12,-8 15,-22 6,-36 -6,-11 -14,-21 -24,-28 -26,-23 -61,-23 -88,-3 -36,29 -51,67 -52,111zm267 25c2,-1 4,-1 6,-2 10,0 19,0 28,-1 11,-1 23,-2 34,-4 21,-6 35,-22 37,-44 4,-35 -18,-73 -51,-85 -10,-3 -22,-5 -33,-3 -38,8 -63,32 -70,70 -8,32 -1,64 8,95 6,20 17,35 32,49 12,12 27,18 45,16 42,-4 70,-34 82,-70 3,-11 -2,-21 -12,-26 -10,-4 -20,-1 -27,9 -3,5 -7,10 -9,16 -6,11 -15,18 -27,24 -11,4 -18,3 -27,-6 -9,-11 -15,-22 -16,-38zm-7 -45c0,-21 6,-37 24,-46 17,-8 29,-3 38,12 2,5 4,11 6,17 1,8 -3,12 -10,13 -20,1 -38,3 -58,4zm413 33c4,9 7,16 9,22 7,21 13,40 20,60 6,16 18,22 32,18 14,-4 21,-16 16,-32 -12,-34 -24,-67 -37,-100 -4,-8 -3,-13 3,-20 10,-12 18,-25 27,-38 4,-5 7,-11 9,-16 4,-12 0,-23 -11,-29 -11,-6 -23,-4 -32,6 -2,2 -3,5 -5,8 -14,19 -29,40 -44,59 -2,3 -5,5 -11,10 0,-12 0,-21 0,-29 0,-13 2,-26 -1,-38 -1,-13 -12,-21 -24,-21 -11,0 -22,9 -25,21 -1,4 0,10 0,14 -1,41 -1,81 -1,122 0,19 0,40 3,59 2,16 14,24 28,22 13,-1 22,-11 22,-26 0,-10 -2,-19 -3,-29 -2,-20 9,-31 25,-43zm164 -3c-1,0 -3,-1 -4,-1 1,-24 3,-48 3,-73 1,-16 2,-32 1,-49 0,-12 -10,-19 -22,-20 -12,-2 -23,5 -26,18 -1,4 -1,10 -2,15 -1,46 -4,91 -5,136 -1,14 0,30 2,45 5,23 27,32 47,20 8,-4 14,-10 20,-18 13,-21 25,-41 37,-62 4,-7 7,-13 11,-20 4,16 4,30 4,43 0,15 0,29 0,43 0,16 8,25 21,26 13,3 26,-6 29,-20 1,-6 1,-11 1,-15 1,-44 1,-87 2,-131 0,-10 0,-20 0,-29 0,-13 -6,-24 -19,-29 -12,-5 -23,0 -32,10 -10,12 -21,25 -29,39 -14,24 -26,48 -39,72zm253 -49c-10,1 -18,2 -26,2 -10,0 -18,-1 -28,-1 0,-10 0,-17 0,-26 0,-14 0,-28 -1,-42 -1,-12 -10,-21 -21,-22 -11,-1 -22,6 -25,17 -1,6 -1,10 -1,16 0,42 0,83 0,126 0,18 -1,37 0,55 0,12 6,21 16,23 11,3 23,-1 27,-13 4,-4 4,-11 4,-17 1,-22 2,-44 2,-67 18,-1 36,-2 55,-3 0,12 0,22 1,32 0,14 0,28 1,41 2,14 15,25 27,23 13,-1 21,-11 21,-25 -1,-43 -2,-86 -2,-129 -1,-18 -1,-38 -2,-56 -1,-12 -11,-19 -22,-20 -11,0 -20,8 -24,20 0,4 0,10 0,14 0,17 -1,34 -2,52zm85 77c4,17 11,35 24,51 31,41 88,36 112,-9 23,-46 25,-94 13,-143 -8,-29 -27,-49 -57,-56 -8,-3 -18,-3 -27,1 -28,8 -49,28 -60,56 -13,32 -13,64 -5,100zm103 -82c7,32 5,63 -6,92 -1,3 -3,8 -6,11 -7,11 -19,11 -27,2 -3,-3 -5,-5 -6,-10 -16,-30 -20,-62 -7,-94 3,-9 11,-18 19,-23 13,-8 24,-3 30,11 2,4 2,9 3,11zm150 -25c0,18 2,36 0,53 0,35 -1,70 -1,104 0,16 11,25 24,25 13,0 23,-8 25,-22 1,-4 1,-8 1,-12 0,-23 0,-47 2,-71 0,-27 1,-56 2,-84 8,-1 17,-1 24,-3 12,-3 19,-13 19,-24 0,-12 -9,-23 -22,-24 -6,-1 -13,-1 -19,-1 -34,2 -66,5 -100,8 -2,1 -3,1 -6,2 -12,3 -18,13 -17,25 0,11 8,20 20,23 6,1 13,0 19,1 10,0 20,0 29,0zm176 94c2,-1 4,-1 6,-2 10,0 19,0 28,-1 11,-1 23,-2 34,-4 21,-6 35,-22 37,-44 5,-35 -18,-73 -51,-85 -10,-3 -22,-5 -33,-3 -38,8 -63,32 -70,70 -8,32 -1,64 8,95 6,20 17,35 32,49 12,12 27,18 45,16 42,-4 70,-34 82,-70 3,-11 -2,-21 -12,-26 -10,-4 -20,-1 -27,9 -3,5 -6,10 -9,16 -6,11 -15,18 -27,24 -11,4 -18,3 -27,-6 -9,-11 -15,-22 -16,-38zm-7 -45c0,-21 6,-37 24,-46 17,-8 29,-3 38,12 2,5 4,11 6,17 1,8 -3,12 -10,13 -20,1 -38,3 -58,4zm299 39c1,10 1,15 1,19 1,18 3,34 5,51 1,15 11,22 23,22 14,1 23,-7 26,-22 0,-8 -1,-17 -1,-25 0,-25 -2,-50 -2,-75 0,-15 2,-31 0,-46 0,-9 -4,-19 -8,-25 -7,-9 -15,-14 -23,-22 -15,-13 -32,-20 -52,-19 -25,1 -47,10 -65,28 -44,38 -54,88 -44,142 7,39 45,56 77,35 12,-8 22,-16 31,-25 11,-11 19,-23 32,-38zm-90 17c-4,-35 -3,-67 25,-92 8,-7 19,-12 28,-15 11,-5 21,0 29,10 -23,35 -45,73 -82,97zm244 -105c0,18 1,36 0,53 0,35 -1,70 -1,104 0,16 10,25 24,25 13,0 22,-8 25,-22 1,-4 1,-8 1,-12 0,-23 0,-47 1,-71 0,-27 1,-56 2,-84 9,-1 17,-1 24,-3 12,-3 19,-13 19,-24 0,-12 -8,-23 -21,-24 -7,-1 -13,-1 -20,-1 -34,2 -66,5 -100,8 -2,1 -3,1 -5,2 -12,3 -19,13 -18,25 0,11 8,20 20,23 6,1 13,0 19,1 10,0 20,0 30,0zm177 182c9,0 16,1 25,0 31,-1 72,-19 83,-64 4,-19 8,-41 7,-62 0,-28 -8,-54 -30,-74 -28,-26 -62,-36 -100,-30 -21,2 -28,10 -33,30 -1,5 -1,9 -1,13 -10,99 -3,198 0,297 1,6 2,12 4,18 8,14 29,17 39,5 5,-5 7,-14 7,-21 1,-17 -1,-34 -1,-51 -1,-19 0,-38 0,-61zm-4 -49c1,-45 3,-88 4,-129 28,-5 53,9 61,33 9,25 4,50 -5,75 -5,12 -16,17 -28,19 -8,1 -18,1 -32,2zm290 -45c1,10 1,15 1,19 1,18 2,34 5,51 1,15 10,22 22,22 15,1 24,-7 27,-22 0,-8 -2,-17 -2,-25 0,-25 -1,-50 -1,-75 0,-15 1,-31 0,-46 0,-9 -4,-19 -8,-25 -7,-9 -16,-14 -23,-22 -15,-13 -32,-20 -52,-19 -25,2 -47,10 -66,28 -43,38 -53,88 -43,142 6,39 44,56 77,35 12,-8 22,-16 31,-25 10,-11 19,-23 32,-38zm-90 17c-4,-35 -3,-67 25,-92 8,-7 18,-12 28,-15 11,-5 21,0 28,10 -22,35 -44,73 -81,97zm-1648 312c0,-1 0,-1 0,-1 31,0 62,0 93,0 11,0 20,-7 24,-17 3,-12 1,-24 -10,-29 -6,-5 -15,-7 -24,-7 -20,0 -41,2 -62,2 -34,0 -69,-1 -103,-2 -14,0 -24,7 -28,19 -3,10 2,25 14,30 10,3 20,4 29,5 22,0 45,0 67,0zm-1108 311c11,-16 16,-30 13,-47 -6,-29 -32,-50 -66,-55 -14,-2 -28,-3 -42,-3 -20,0 -30,11 -30,29 2,56 1,110 1,166 0,29 12,41 42,43 10,1 21,2 31,2 35,-2 68,-12 90,-40 23,-30 14,-67 -20,-86 -5,-3 -12,-5 -19,-9zm-78 88c2,-17 3,-32 3,-49 25,-6 47,-3 70,9 11,6 13,13 4,22 -7,7 -16,12 -24,15 -16,6 -33,7 -53,3zm0 -99c0,-16 0,-30 2,-46 13,-3 25,-1 35,8 10,7 10,15 0,22 -9,7 -21,12 -32,19 -1,-1 -2,-2 -5,-3zm225 -34c0,18 1,36 0,53 0,35 -2,70 -2,105 0,15 11,25 24,25 13,0 23,-9 25,-23 1,-3 1,-8 1,-12 0,-23 0,-47 2,-71 0,-27 1,-55 2,-84 8,-1 17,-1 24,-3 12,-3 19,-13 19,-24 0,-12 -8,-23 -22,-24 -6,-1 -13,-1 -19,-1 -34,2 -66,6 -100,8 -2,1 -3,1 -6,2 -12,3 -18,13 -17,25 0,11 8,21 20,23 6,1 13,0 19,1 10,0 20,0 30,0zm129 108c4,16 11,34 24,51 32,40 88,36 112,-10 23,-46 25,-94 13,-143 -8,-29 -27,-48 -57,-56 -8,-2 -18,-2 -27,1 -28,9 -49,28 -60,57 -13,31 -13,64 -5,100zm103 -83c7,33 5,63 -6,92 -1,4 -3,8 -6,11 -7,11 -19,11 -27,2 -3,-3 -5,-5 -6,-9 -16,-31 -20,-62 -7,-95 3,-9 11,-17 19,-23 13,-7 24,-3 30,11 2,4 2,9 3,11zm136 158c9,0 17,1 25,0 31,-1 72,-20 83,-65 4,-19 9,-41 8,-62 0,-28 -9,-54 -31,-73 -28,-27 -62,-36 -100,-31 -21,2 -28,10 -32,31 -2,4 -2,8 -2,13 -9,99 -3,197 0,296 2,6 3,12 5,18 7,14 28,17 38,5 5,-5 7,-14 7,-20 2,-18 -1,-35 -1,-51 -1,-20 0,-39 0,-61zm-4 -49c1,-46 3,-88 4,-130 29,-5 54,9 61,33 9,25 5,50 -5,75 -5,12 -15,17 -27,20 -9,1 -19,1 -33,2zm153 -26c5,16 11,34 24,51 32,40 88,36 112,-10 23,-46 25,-94 13,-143 -7,-29 -27,-48 -56,-56 -9,-2 -19,-2 -27,1 -29,9 -49,28 -60,57 -13,31 -13,64 -6,100zm104 -83c6,33 4,63 -7,92 -1,4 -3,8 -5,11 -8,11 -20,11 -27,2 -4,-3 -6,-5 -7,-9 -15,-31 -19,-62 -6,-95 3,-9 10,-17 18,-23 13,-7 24,-3 31,11 2,4 2,9 3,11z"/>
     <path class="fil1" d="M2074 2264c-12,1 -17,-4 -21,-12 -6,-9 -16,-12 -25,-9 -8,5 -13,13 -12,23 1,5 3,10 5,13 12,21 31,27 54,26 21,-1 36,-15 42,-40 4,-12 0,-22 -10,-26 -11,-5 -21,-1 -27,11 -3,4 -4,10 -6,14zm-47 202c-1,0 -2,-1 -3,-1 1,-24 2,-48 2,-73 1,-16 2,-32 1,-49 0,-12 -10,-19 -22,-20 -12,-1 -23,5 -26,18 -1,5 -1,10 -2,15 -1,46 -3,91 -5,136 -1,15 0,30 3,45 4,23 26,33 46,21 8,-5 14,-11 20,-19 13,-20 25,-41 37,-62 4,-6 8,-13 11,-19 4,15 4,29 4,42 0,15 0,29 0,44 0,15 8,25 21,26 13,2 26,-7 29,-21 1,-5 1,-11 1,-15 1,-44 1,-87 2,-131 0,-10 0,-19 0,-29 0,-13 -6,-24 -19,-28 -12,-6 -23,0 -32,9 -9,12 -20,25 -29,40 -14,23 -26,47 -39,71zm528 -130c-2,-43 15,-78 49,-104 12,-8 26,-14 41,-19 16,-6 24,-15 21,-29 -3,-15 -14,-22 -31,-20 -8,1 -15,2 -21,5 -53,24 -93,62 -105,121 -6,28 -7,58 -7,86 1,51 6,101 8,151 1,33 24,48 55,37 12,-4 24,-11 35,-17 41,-24 61,-62 61,-109 0,-29 -11,-54 -35,-74 -21,-16 -44,-24 -71,-28zm-2 54c35,-1 58,21 58,51 -1,33 -18,56 -50,70 -6,-41 -6,-82 -8,-121zm190 76c-2,0 -3,-1 -4,-1 1,-24 2,-48 2,-73 2,-16 3,-32 2,-49 0,-12 -10,-19 -22,-20 -12,-1 -23,5 -26,18 -1,5 -1,10 -2,15 -2,46 -4,91 -5,136 -1,15 0,30 2,45 5,23 26,33 47,21 8,-5 14,-11 20,-19 13,-20 25,-41 37,-62 4,-6 7,-13 11,-19 4,15 4,29 4,42 0,15 0,29 0,44 0,15 7,25 21,26 13,2 26,-7 29,-21 1,-5 1,-11 1,-15 1,-44 1,-87 2,-131 0,-10 0,-19 0,-29 0,-13 -6,-24 -19,-28 -12,-6 -23,0 -32,9 -10,12 -21,25 -29,40 -14,23 -26,47 -39,71zm287 -85c0,10 1,18 0,25 -4,41 -7,80 -9,120 -1,9 -1,18 1,25 2,12 13,20 24,20 12,-1 22,-9 24,-21 1,-3 1,-6 1,-10 3,-45 7,-91 9,-137 1,-13 0,-27 -2,-40 -4,-17 -16,-30 -33,-30 -26,-2 -53,-2 -79,2 -20,2 -29,15 -30,33 -1,7 -1,12 -1,19 1,18 1,38 1,56 0,22 -2,43 -10,64 -5,0 -8,-2 -13,-2 -18,2 -29,18 -24,35 7,24 39,36 59,21 8,-7 16,-15 20,-24 7,-18 14,-37 16,-57 3,-25 1,-50 2,-76 0,-6 0,-14 0,-23 15,0 27,0 44,0zm129 101c2,-2 5,-2 7,-3 10,0 18,0 28,-1 11,-1 23,-2 34,-4 20,-6 35,-22 37,-44 4,-34 -19,-72 -51,-84 -10,-4 -22,-6 -33,-4 -38,8 -63,32 -71,70 -7,33 -1,64 9,96 5,19 16,34 32,49 11,12 27,17 44,15 43,-3 71,-34 83,-70 3,-11 -2,-20 -12,-26 -10,-4 -21,-1 -27,9 -4,5 -7,11 -9,16 -7,11 -15,19 -27,24 -11,4 -19,3 -27,-5 -9,-11 -16,-23 -17,-38zm-6 -46c0,-21 5,-37 24,-46 17,-7 29,-3 38,12 2,6 4,11 5,18 1,7 -2,12 -10,13 -19,1 -38,2 -57,3zm224 -49c0,18 1,36 0,53 0,35 -1,70 -1,105 0,15 11,25 24,25 13,0 22,-9 25,-23 1,-3 1,-8 1,-12 0,-23 0,-47 1,-71 0,-27 1,-55 2,-84 9,-1 17,-1 24,-3 12,-3 20,-13 20,-24 0,-12 -9,-23 -22,-24 -7,-1 -13,-1 -20,-1 -34,2 -66,6 -100,8 -2,1 -3,1 -5,2 -12,3 -19,13 -18,25 0,11 8,21 20,23 6,1 13,0 19,1 10,0 20,0 30,0zm-1976 402c11,-15 16,-29 13,-46 -5,-29 -31,-50 -65,-55 -14,-2 -28,-3 -42,-3 -20,0 -31,11 -31,29 2,56 1,110 1,166 0,29 12,41 43,43 9,1 20,2 30,2 36,-2 69,-12 90,-40 23,-30 14,-67 -19,-86 -6,-3 -12,-5 -20,-10zm-77 89c1,-17 2,-32 2,-49 25,-6 48,-3 71,9 11,6 13,13 3,22 -6,7 -15,12 -24,15 -15,6 -32,7 -52,3zm0 -99c0,-16 0,-30 1,-46 13,-3 25,-1 36,7 10,8 10,16 0,23 -10,7 -22,12 -33,19 -1,-1 -2,-2 -4,-3zm595 -44c0,6 1,13 1,18 -1,32 -2,64 -3,96 0,15 -1,31 -1,47 1,15 9,24 22,25 14,0 23,-9 25,-24 0,-2 0,-4 0,-7 2,-46 4,-91 5,-137 0,-12 -1,-23 -3,-34 -5,-22 -18,-33 -40,-33 -16,0 -33,-1 -50,1 -10,0 -22,3 -32,7 -17,6 -26,19 -28,37 -2,9 -3,19 -4,29 -1,30 -1,60 -2,91 -1,16 -1,33 -1,49 0,13 9,23 21,25 12,1 21,-6 25,-19 2,-5 2,-10 2,-14 1,-34 1,-66 2,-99 1,-18 2,-36 3,-55 20,-5 38,-4 58,-3zm85 118c4,16 11,34 24,51 31,40 88,36 112,-10 23,-46 25,-94 13,-143 -8,-29 -27,-49 -57,-56 -8,-2 -18,-2 -27,1 -28,9 -49,28 -60,56 -13,32 -13,65 -5,101zm103 -83c7,32 4,63 -6,92 -1,4 -4,8 -6,11 -7,11 -19,11 -27,2 -3,-3 -5,-5 -7,-9 -15,-31 -19,-62 -6,-95 3,-9 11,-17 18,-23 13,-8 24,-3 31,11 2,4 2,9 3,11zm263 105c-1,-3 -1,-6 -1,-8 1,-31 1,-60 1,-90 0,-15 0,-30 -3,-45 -10,-44 -56,-59 -92,-33 -22,16 -34,38 -37,65 -1,12 -2,24 -4,35 -1,28 -3,56 -4,84 -5,2 -11,2 -15,4 -24,8 -31,16 -28,39 1,15 7,22 18,24 11,3 19,-2 25,-15 2,-5 6,-9 11,-9 3,-1 8,-1 12,-1 30,-1 61,-2 91,-2 5,0 9,3 11,6 8,7 16,9 25,5 9,-3 14,-11 15,-21 3,-19 -3,-29 -25,-38zm-45 3c-17,1 -33,1 -49,2 -1,-8 -1,-13 -1,-19 2,-31 4,-62 6,-93 1,-16 10,-28 23,-35 10,-6 17,-2 21,9 2,7 2,16 2,23 0,35 -1,71 -1,106 0,2 -1,4 -1,7zm241 -45c1,10 1,15 1,20 1,17 3,33 5,51 1,14 11,21 23,21 14,1 23,-7 26,-21 0,-9 -1,-18 -1,-25 0,-25 -2,-50 -2,-75 0,-16 2,-32 0,-47 0,-9 -4,-19 -8,-25 -7,-9 -15,-14 -23,-22 -15,-13 -32,-20 -52,-18 -25,1 -47,9 -66,27 -43,38 -53,88 -43,142 6,39 45,56 77,35 12,-8 22,-16 31,-25 10,-11 19,-23 32,-38zm-90 17c-4,-34 -3,-67 25,-92 8,-7 18,-12 28,-15 11,-5 21,0 29,11 -23,34 -45,72 -82,96zm230 78c8,0 16,1 25,0 30,-2 71,-20 82,-65 5,-19 9,-41 8,-62 0,-28 -9,-54 -31,-74 -28,-26 -62,-35 -100,-30 -20,2 -28,10 -32,30 -1,5 -1,9 -1,13 -10,99 -4,198 0,297 1,6 2,12 4,18 8,14 28,17 38,5 5,-5 8,-14 8,-20 1,-18 -1,-35 -1,-52 -2,-19 0,-38 0,-60zm-5 -49c1,-46 3,-88 5,-130 28,-5 53,9 60,33 9,25 5,50 -5,75 -4,12 -15,17 -27,19 -9,2 -19,2 -33,3zm154 -26c4,16 10,34 24,51 31,40 88,36 112,-10 22,-46 25,-94 13,-143 -8,-29 -28,-49 -57,-56 -9,-2 -18,-2 -27,1 -28,9 -49,28 -60,56 -13,32 -13,65 -5,101zm103 -83c6,32 4,63 -7,92 -1,4 -3,8 -5,11 -8,11 -20,11 -27,2 -4,-3 -6,-5 -7,-9 -15,-31 -19,-62 -6,-95 3,-9 11,-17 18,-23 13,-8 24,-3 31,11 2,4 2,9 3,11zm154 57c4,9 7,16 9,22 7,21 13,40 20,60 6,16 18,22 32,19 14,-5 21,-17 16,-33 -12,-34 -24,-66 -37,-100 -4,-8 -3,-13 3,-20 10,-12 18,-25 27,-38 4,-5 7,-11 9,-16 4,-12 0,-23 -11,-28 -11,-7 -23,-5 -32,5 -2,2 -3,6 -5,8 -14,19 -29,40 -44,59 -2,3 -5,5 -11,10 0,-12 0,-20 0,-29 0,-13 2,-26 -1,-38 -1,-13 -12,-21 -24,-21 -11,0 -22,9 -25,21 -1,4 0,10 0,14 -1,41 -1,82 -1,122 0,19 0,40 3,60 2,15 14,24 28,21 13,-1 22,-11 22,-26 0,-10 -2,-19 -3,-29 -2,-20 9,-31 25,-43z"/>
    </g>
    <path class="fil2" d="M2878 3221c-34,-46 -162,-58 -285,-71 -122,-13 -321,0 -396,0 -74,0 -68,52 -318,23 -249,-29 -286,-25 -277,12 9,36 -21,140 -2,172 20,33 189,72 288,72 99,0 366,-21 467,-26 102,-5 228,-46 294,-28 65,18 166,26 182,21 17,-5 47,-175 47,-175z"/>
    <path class="fil1" d="M1826 3253c0,3 1,5 1,8 -1,13 -1,26 -2,39 0,6 0,13 0,19 0,6 4,10 9,10 6,0 10,-3 10,-9 0,-1 0,-2 0,-3 1,-19 2,-38 2,-56 0,-5 0,-10 -1,-15 -2,-8 -7,-13 -16,-13 -7,0 -14,0 -21,1 -4,0 -9,1 -13,2 -7,3 -11,8 -12,15 0,4 -1,8 -1,12 0,13 0,25 -1,38 0,6 0,13 0,20 0,5 3,9 8,10 5,1 9,-2 10,-8 1,-2 1,-4 1,-6 1,-13 1,-27 1,-40 1,-7 1,-15 2,-23 8,-2 15,-1 23,-1zm81 79c4,0 7,1 11,0 12,0 29,-8 34,-26 1,-8 3,-17 3,-26 0,-11 -4,-22 -13,-30 -11,-11 -25,-15 -41,-12 -8,0 -11,4 -13,12 -1,2 -1,4 -1,5 -4,41 -1,82 0,122 1,2 1,5 2,7 3,6 12,7 16,3 2,-3 3,-6 3,-9 0,-7 -1,-14 -1,-21 0,-8 0,-15 0,-25zm-1 -20c0,-19 1,-36 1,-53 12,-2 22,4 25,13 4,11 2,21 -2,31 -2,5 -6,7 -11,8 -4,1 -8,1 -13,1zm89 -11c2,7 5,15 10,21 13,17 36,15 46,-4 10,-18 10,-38 5,-58 -3,-12 -11,-20 -23,-23 -3,-1 -7,-1 -11,0 -11,4 -20,12 -24,23 -6,13 -6,27 -3,41zm43 -34c2,14 2,26 -3,38 0,2 -1,3 -2,5 -3,4 -8,4 -11,1 -2,-2 -3,-3 -3,-4 -6,-13 -8,-26 -3,-39 2,-4 5,-7 8,-9 5,-4 10,-2 12,4 1,2 1,4 2,4zm108 24c-1,-4 -2,-6 -3,-8 -3,-12 -6,-23 -10,-33 -1,-5 -3,-9 -6,-12 -5,-7 -14,-6 -19,1 -1,3 -2,5 -3,8 -1,7 -3,15 -3,23 -2,17 -3,34 -4,51 -1,7 3,12 8,12 6,0 10,-3 11,-10 1,-6 1,-13 2,-19 0,-8 1,-15 1,-23 3,2 3,5 4,7 3,8 7,16 10,24 2,5 6,11 13,11 7,0 11,-5 13,-11 3,-11 6,-22 10,-33 0,-2 1,-4 2,-7 1,2 1,3 1,4 1,15 2,30 2,45 1,6 5,10 10,10 6,0 10,-5 10,-11 -1,-22 -1,-44 -3,-66 0,-4 -1,-8 -3,-12 -3,-7 -11,-9 -17,-6 -4,2 -7,5 -9,8 -3,6 -6,11 -8,17 -3,10 -6,19 -9,30zm90 10c2,7 5,15 10,21 13,17 36,15 46,-4 10,-18 10,-38 6,-58 -4,-12 -12,-20 -24,-23 -3,-1 -7,-1 -11,0 -11,4 -20,12 -24,23 -6,13 -6,27 -3,41zm43 -34c2,14 2,26 -3,38 0,2 -1,3 -2,5 -3,4 -8,4 -11,1 -2,-2 -3,-3 -3,-4 -6,-13 -8,-26 -3,-39 2,-4 5,-7 8,-9 5,-4 10,-2 12,4 1,2 1,4 2,4zm90 24c1,4 3,6 4,9 2,8 5,17 8,25 2,6 7,8 13,7 6,-2 8,-7 6,-13 -5,-14 -10,-27 -15,-41 -1,-3 -1,-6 1,-8 4,-5 8,-11 11,-16 2,-2 3,-4 4,-7 2,-5 0,-9 -4,-11 -5,-3 -10,-2 -13,2 -1,1 -2,2 -3,3 -5,8 -12,17 -17,25 -1,1 -3,1 -5,4 0,-5 0,-9 0,-12 0,-6 1,-11 0,-16 -1,-5 -5,-8 -10,-8 -5,0 -10,3 -10,8 -1,2 0,4 0,6 -1,17 -1,33 -1,50 0,8 0,16 1,24 1,7 6,10 12,9 5,0 9,-4 9,-10 0,-4 -1,-8 -1,-13 -1,-8 3,-12 10,-17zm74 10c2,7 4,15 10,21 13,17 36,15 46,-4 9,-18 10,-38 5,-58 -3,-12 -11,-20 -23,-23 -4,-1 -8,-1 -11,0 -12,4 -20,12 -25,23 -5,13 -5,27 -2,41zm42 -34c3,14 2,26 -2,38 -1,2 -2,3 -2,5 -4,4 -9,4 -12,1 -1,-2 -2,-3 -2,-4 -7,-13 -8,-26 -3,-39 1,-4 4,-7 8,-9 5,-4 9,-2 12,4 1,2 1,4 1,4zm135 44c0,-2 0,-3 0,-4 0,-12 0,-24 0,-36 0,-7 0,-13 -1,-19 -4,-18 -23,-24 -38,-14 -9,7 -14,16 -15,27 -1,5 -1,10 -2,14 0,12 -1,23 -1,35 -3,1 -5,1 -7,2 -9,3 -12,6 -11,16 0,6 3,9 7,10 5,0 8,-1 11,-7 1,-2 2,-3 4,-3 1,-1 3,-1 5,-1 13,0 25,-1 38,-1 1,0 3,2 4,3 3,3 7,4 10,2 4,-2 6,-5 6,-9 1,-8 -1,-12 -10,-15zm-19 1c-6,0 -13,0 -20,1 0,-4 0,-6 0,-8 1,-13 2,-26 3,-38 0,-7 4,-12 9,-15 4,-2 7,-1 8,4 1,3 1,7 1,10 0,14 0,29 0,43 0,1 -1,2 -1,3zm80 14c6,0 10,-5 11,-10 0,-7 -5,-12 -11,-12 -6,0 -11,5 -11,11 0,6 6,11 11,11zm2 -52c5,1 10,-4 10,-10 0,-5 -4,-9 -10,-9 -5,-1 -10,3 -10,9 -1,6 4,10 10,10z"/>
    <path class="fil1" d="M1292 3649c4,-9 10,-17 14,-27 11,-29 5,-60 -14,-77 -20,-16 -42,-22 -66,-16 -6,1 -12,3 -17,4 -16,3 -22,11 -22,26 -2,51 -5,102 -6,153 0,35 2,71 3,106 1,18 17,33 33,32 16,0 32,-1 48,-3 39,-6 68,-24 79,-64 4,-13 6,-28 6,-42 -2,-24 -5,-48 -23,-66 -10,-10 -23,-17 -35,-26zm-67 157c0,-30 0,-58 -1,-84 0,-9 3,-14 11,-18 14,-6 28,-9 43,-9 9,0 17,4 20,14 11,23 13,47 3,71 -6,13 -18,21 -32,23 -14,2 -28,2 -44,3zm0 -154c1,-13 2,-22 2,-31 1,-13 2,-26 2,-39 1,-10 4,-13 15,-13 17,0 26,12 24,28 -1,12 -7,21 -14,30 -7,9 -16,16 -29,25zm197 116c-1,0 -1,-1 -2,-1 1,-21 1,-41 1,-62 1,-14 2,-28 1,-42 0,-10 -8,-16 -18,-17 -10,-1 -19,5 -22,16 -1,3 -1,8 -2,13 -1,38 -3,76 -4,115 -1,12 0,25 2,38 4,19 22,27 40,17 6,-4 12,-9 16,-16 11,-17 22,-35 32,-52 3,-6 6,-11 9,-17 4,13 4,25 4,36 0,13 0,25 0,37 0,13 6,21 17,22 11,2 22,-5 25,-17 1,-5 1,-9 1,-13 1,-37 1,-74 2,-111 0,-8 0,-16 0,-25 0,-11 -6,-20 -17,-24 -10,-4 -19,0 -27,9 -8,10 -17,21 -24,33 -12,20 -23,40 -34,61zm242 -72c0,8 0,15 0,21 -3,34 -6,67 -8,101 -1,8 -1,15 1,22 2,10 11,16 20,16 11,-1 19,-7 21,-17 1,-3 1,-6 1,-9 2,-38 5,-77 7,-116 1,-11 0,-23 -2,-34 -3,-15 -13,-26 -28,-26 -22,-1 -45,-1 -67,2 -16,2 -24,13 -25,29 -1,5 -1,10 -1,15 1,16 1,33 1,48 0,19 -2,36 -8,54 -5,0 -7,-1 -11,-1 -16,1 -25,15 -20,29 5,21 32,31 49,18 7,-6 14,-13 17,-20 6,-16 12,-32 14,-48 3,-22 1,-43 2,-65 0,-5 0,-12 0,-19 13,0 23,0 37,0zm181 0c0,8 1,15 0,21 -3,34 -6,67 -8,101 0,8 0,15 1,22 2,10 11,16 21,16 10,-1 18,-7 20,-17 1,-3 1,-6 1,-9 3,-38 5,-77 7,-116 1,-11 0,-23 -2,-34 -2,-15 -13,-26 -27,-26 -22,-1 -45,-1 -68,2 -16,2 -24,13 -24,29 -1,5 -1,10 -1,15 1,16 1,33 1,48 0,19 -2,36 -9,54 -4,0 -7,-1 -11,-1 -16,1 -25,15 -20,29 5,21 32,31 50,18 6,-6 14,-13 16,-20 7,-16 12,-32 14,-48 3,-22 1,-43 2,-65 0,-5 0,-12 0,-19 13,0 23,0 37,0zm185 79c1,8 1,13 1,17 1,14 2,28 3,43 1,12 10,18 20,18 12,1 20,-6 22,-18 0,-7 -1,-15 -1,-21 0,-21 -1,-43 -1,-64 0,-13 1,-27 0,-39 0,-8 -4,-16 -7,-22 -6,-7 -13,-12 -20,-18 -13,-11 -26,-17 -44,-16 -21,1 -40,8 -55,23 -37,33 -45,75 -37,121 5,33 38,47 65,30 10,-7 19,-14 26,-22 9,-9 17,-19 28,-32zm-77 15c-3,-30 -3,-57 21,-79 7,-5 16,-10 24,-12 10,-4 18,0 24,9 -19,29 -37,62 -69,82zm300 21c-1,-3 -1,-6 -1,-7 1,-26 1,-51 1,-76 0,-13 0,-26 -2,-39 -9,-37 -48,-49 -79,-27 -18,13 -28,32 -31,55 -1,10 -2,20 -3,29 -1,24 -3,47 -4,71 -4,2 -9,2 -12,4 -21,7 -26,13 -24,33 1,12 6,19 15,21 9,1 16,-2 21,-13 2,-5 5,-8 10,-8 2,-1 6,-1 10,-1 26,-1 51,-1 77,-1 4,0 8,2 10,4 6,7 13,8 21,5 7,-3 12,-9 13,-18 1,-16 -3,-25 -22,-32zm-38 2c-14,1 -28,1 -42,2 -1,-7 -1,-11 -1,-16 2,-27 4,-53 6,-79 1,-13 8,-23 19,-30 8,-4 15,-2 18,8 2,6 2,13 2,20 0,29 -1,60 -1,89 0,2 -1,4 -1,6zm151 -56c11,2 13,9 12,19 -1,19 -2,40 -2,59 -1,12 6,19 16,21 9,1 19,-5 21,-15 1,-6 1,-11 2,-16 0,-12 1,-24 2,-37 0,-3 1,-7 3,-9 5,-6 13,-11 20,-17 2,5 4,8 5,11 7,20 15,41 23,62 4,9 12,16 20,14 10,-1 17,-8 18,-19 0,-4 -1,-10 -3,-13 -8,-23 -16,-46 -26,-68 -7,-15 -9,-29 4,-43 6,-7 11,-17 15,-25 5,-13 -1,-26 -13,-28 -11,-1 -17,3 -23,11 -9,14 -17,29 -26,43 -4,4 -6,10 -13,14 0,-6 0,-10 0,-14 1,-11 2,-23 3,-35 0,-13 -8,-22 -19,-22 -11,-1 -19,7 -21,20 -1,11 -1,22 -2,33 -1,3 -2,7 -3,12 -12,-14 -22,-26 -32,-38 -6,-6 -11,-14 -17,-20 -8,-8 -18,-9 -26,-4 -8,7 -10,18 -6,27 2,4 6,7 9,10 10,12 19,24 29,37 -18,30 -28,61 -36,94 -3,13 2,23 12,26 11,4 20,-2 25,-14 3,-7 5,-15 6,-22 6,-19 12,-38 23,-54zm255 -43c0,-1 0,-1 0,-1 26,0 52,0 79,0 9,0 16,-6 20,-14 3,-11 1,-21 -8,-25 -6,-4 -13,-6 -20,-6 -18,0 -36,2 -53,2 -30,0 -59,-1 -88,-2 -12,0 -20,6 -24,16 -2,9 2,21 12,26 9,2 17,3 25,4 19,0 38,0 57,0zm184 56c3,8 6,13 8,19 5,17 11,34 16,51 6,13 16,18 28,15 12,-3 18,-14 13,-27 -10,-29 -20,-57 -31,-85 -3,-7 -2,-11 2,-17 9,-10 16,-21 23,-32 4,-5 6,-9 8,-14 4,-10 0,-19 -9,-24 -10,-5 -20,-4 -27,5 -2,2 -3,4 -5,6 -12,17 -25,34 -37,51 -1,2 -4,4 -9,8 0,-10 0,-17 0,-25 0,-11 1,-22 -1,-32 -1,-11 -10,-17 -20,-17 -10,0 -19,7 -21,17 -1,4 0,8 0,12 -1,35 -1,69 -1,103 0,17 0,34 2,51 2,13 12,20 24,18 11,-1 18,-9 18,-22 0,-8 -1,-16 -2,-25 -2,-16 8,-25 21,-36zm137 -2c-1,0 -2,-1 -3,-1 1,-21 2,-41 2,-62 1,-14 1,-28 1,-42 0,-10 -9,-16 -19,-17 -10,-1 -19,5 -22,16 -1,3 -1,8 -2,13 -1,38 -3,76 -4,115 0,12 0,25 2,38 4,19 22,27 40,17 6,-4 12,-9 17,-16 11,-17 21,-35 31,-52 4,-6 6,-11 9,-17 4,13 4,25 4,36 0,13 0,25 0,37 0,13 6,21 17,22 11,2 22,-5 25,-17 1,-5 1,-9 1,-13 1,-37 1,-74 2,-111 0,-8 0,-16 0,-25 0,-11 -6,-20 -17,-24 -10,-4 -19,0 -26,9 -9,10 -18,21 -25,33 -12,20 -22,40 -33,61zm212 -42c-8,1 -16,2 -22,2 -8,0 -16,-1 -24,-1 0,-8 0,-15 0,-22 0,-12 0,-24 -1,-36 -1,-10 -8,-17 -17,-18 -10,-1 -19,5 -22,14 -1,5 -1,9 -1,13 0,36 0,71 0,107 0,16 0,32 0,47 0,10 6,18 14,20 10,2 20,-1 23,-11 3,-4 3,-10 3,-15 1,-19 2,-37 2,-56 16,-1 30,-2 47,-3 0,10 0,18 1,26 0,12 0,24 1,36 1,12 12,21 22,19 11,-1 18,-9 18,-21 -1,-36 -1,-73 -1,-109 -1,-16 -1,-32 -2,-48 -1,-10 -10,-16 -19,-17 -9,0 -17,7 -20,17 0,4 0,8 0,12 0,15 -1,29 -2,44zm70 66c4,13 9,29 20,43 27,34 75,30 95,-8 19,-39 21,-80 11,-121 -6,-25 -23,-42 -48,-48 -7,-2 -15,-2 -23,1 -24,7 -41,24 -51,48 -11,27 -11,54 -4,85zm87 -70c6,27 4,53 -5,78 -1,3 -3,6 -5,9 -6,9 -16,9 -23,2 -3,-3 -4,-5 -5,-8 -13,-26 -17,-53 -6,-81 3,-7 9,-14 16,-19 11,-6 20,-3 26,9 1,4 1,8 2,10z"/>
   </g>
  </g>
 </g>
</svg>
