<?xml version="1.0" encoding="UTF-8"?>
<!DOCTYPE svg PUBLIC "-//W3C//DTD SVG 1.1//EN" "http://www.w3.org/Graphics/SVG/1.1/DTD/svg11.dtd">
<!-- Creator: CorelDRAW X8 -->
<svg xmlns="http://www.w3.org/2000/svg" xml:space="preserve" width="503px" height="502px" version="1.1" style="shape-rendering:geometricPrecision; text-rendering:geometricPrecision; image-rendering:optimizeQuality; fill-rule:evenodd; clip-rule:evenodd"
viewBox="0 0 3474028 3467393"
 xmlns:xlink="http://www.w3.org/1999/xlink">
 <defs>
  <style type="text/css">
   <![CDATA[
    .str0 {stroke:black;stroke-width:61209.5}
    .fil0 {fill:#DEF2F7}
    .fil1 {fill:#F05C4F;fill-rule:nonzero}
   ]]>
  </style>
 </defs>
 <g id="Слой_x0020_1">
  <metadata id="CorelCorpID_0Corel-Layer"/>
  <path class="fil0 str0" d="M75565 2759257c-2187,-209671 -94581,-2357184 -8031,-2468284 106766,-137060 77704,-232318 578642,-237549 500938,-5232 1580542,-16511 1783513,-18624 202970,-2114 671476,-36914 806291,136750 134824,173663 166808,464759 171974,961363 1820,175549 131813,1800872 -117163,2116550 -252362,319970 -549652,131461 -1253553,138798 -703900,7337 -1265264,13213 -1440283,15042 -489194,5109 -516722,-197079 -521390,-644046z"/>
  <path class="fil1" d="M1717407 906814c0,-24468 -19571,-41590 -48927,-41590 -51375,0 -90517,107639 -298457,340047 -139452,156566 -269110,300906 -376749,305803 -31804,0 -48926,-4897 -48926,-29365 0,-12225 4888,-31796 12233,-51367 2441,-7345 2441,-12233 2441,-19570 0,-19579 -9786,-39150 -26908,-46487 -7337,-2448 -14682,-4888 -22019,-4888 -22019,0 -41590,12225 -51375,34244 -12226,31805 -17123,63609 -17123,92965 0,70946 53824,127210 154126,127210 163902,-4889 342495,-203044 503957,-406096l-506406 1335729c-12233,31804 12234,70945 46479,70945 22019,0 44038,-12233 51375,-34252l601811 -1587708c14682,-39142 24468,-68498 24468,-85620z"/>
  <path id="1" class="fil1" d="M2891673 894580c-26908,-19571 -66049,-9785 -100302,9786 -53823,31804 -124769,34244 -198155,31804 -181033,-4897 -362066,-97862 -530874,-97862 -112527,0 -176136,154126 -266653,322925 -12233,24467 -2448,56272 24460,68497 24467,12234 56272,2449 68505,-24459 39142,-78283 129658,-261764 173688,-261764 61161,0 423227,97853 530874,97853 61160,0 83171,-2448 124761,-9785 -110087,117432 -171248,181033 -227511,242194 -127218,134554 -239746,261764 -342496,398767l-188370 0c-26916,0 -51375,22011 -51375,51367 0,29356 24459,51375 51375,51375l112528 0c-119873,159022 -303346,508855 -401208,760834 -9785,26907 4897,58712 29356,68497 26916,9785 56272,-2448 68506,-29356 112527,-288672 269101,-594474 430563,-799975l176137 0c29356,0 51375,-22019 51375,-51375 0,-29356 -22019,-51367 -51375,-51367l-97854 0c88068,-110095 183482,-217734 286232,-327822 151669,-159014 298457,-313139 335150,-369403 24468,-34252 22019,-58712 -7337,-80731z"/>
 </g>
</svg>
