<?xml version="1.0" encoding="UTF-8"?>
<!DOCTYPE svg PUBLIC "-//W3C//DTD SVG 1.1//EN" "http://www.w3.org/Graphics/SVG/1.1/DTD/svg11.dtd">
<!-- Creator: CorelDRAW X7 -->
<svg xmlns="http://www.w3.org/2000/svg" xml:space="preserve" width="45mm" height="45mm" version="1.1" style="shape-rendering:geometricPrecision; text-rendering:geometricPrecision; image-rendering:optimizeQuality; fill-rule:evenodd; clip-rule:evenodd"
viewBox="0 0 4500 4500"
 xmlns:xlink="http://www.w3.org/1999/xlink">
 <defs>
  <style type="text/css">
   <![CDATA[
    .str0 {stroke:black;stroke-width:75}
    .fil0 {fill:#E94F42}
    .fil1 {fill:#FEFEFE;fill-rule:nonzero}
   ]]>
  </style>
 </defs>
 <g id="Слой_x0020_1">
  <metadata id="CorelCorpID_0Corel-Layer"/>
  <path class="fil0 str0" d="M371 280c0,0 -121,140 -126,669 -6,529 -23,2140 -25,2323 -2,182 -116,533 15,701 131,168 95,285 709,291 614,7 1936,20 2185,23 249,3 836,152 1001,-61 165,-213 191,-676 198,-1284 6,-609 -149,-1351 -98,-1743 52,-391 133,-749 39,-840 -94,-92 -504,-169 -1367,-178 -862,-9 -1804,-19 -2019,-21 -214,-3 -512,120 -512,120z"/>
  <g id="_48906328992">
   <path class="fil1" d="M918 1058c-2,12 -9,19 -22,19 -5,0 -10,-2 -15,-6 -4,-4 -7,-8 -7,-14 -3,-42 -3,-86 -1,-132 2,-47 4,-90 4,-131 0,-8 -1,-12 -2,-13 -2,-1 -6,-2 -13,-3 -10,-2 -19,-3 -28,-3 -9,-1 -18,0 -28,4 -7,2 -11,4 -13,5 -1,2 -2,6 -2,14 0,12 -1,26 -2,40 0,15 -1,30 -1,45 0,16 -1,31 -1,46 0,15 -1,28 -1,41 -1,15 -2,30 -2,44 0,14 -1,29 -1,44 0,2 -1,4 -1,5 0,2 -1,4 -1,6 -2,5 -5,9 -9,12 -4,2 -9,3 -14,3 -13,-1 -20,-7 -22,-19 0,-4 0,-7 0,-11 0,-4 0,-8 1,-11 1,-27 1,-54 2,-81 0,-26 1,-53 2,-80 0,-9 0,-18 1,-29 0,-10 0,-20 0,-31 1,-11 2,-21 3,-31 1,-10 4,-19 7,-27 4,-10 12,-18 24,-23 17,-6 34,-9 51,-10 17,0 35,1 53,4 15,4 26,9 32,17 7,8 10,20 10,35l-4 271zm55 -49c-4,-16 -5,-32 -5,-47 1,-15 4,-29 10,-44 10,-26 28,-43 54,-51 8,-3 16,-3 25,-1 27,7 44,24 51,51 6,23 8,45 6,66 -1,22 -7,43 -18,64 -5,10 -12,19 -20,24 -9,6 -18,9 -28,10 -9,0 -19,-1 -28,-5 -10,-4 -18,-11 -25,-20 -6,-7 -11,-15 -14,-23 -4,-9 -6,-16 -8,-24zm94 -75c-1,-1 -1,-3 -1,-4 0,-2 -1,-4 -2,-6 -7,-14 -16,-17 -28,-10 -8,6 -13,13 -17,21 -6,15 -8,30 -7,44 2,14 6,28 13,42 1,3 3,6 6,9 3,4 8,6 12,6 5,0 10,-3 13,-8 2,-3 3,-7 5,-10 10,-26 12,-54 6,-84zm195 16c13,10 21,21 24,34 2,13 2,27 -1,42 -2,10 -6,19 -12,27 -5,9 -14,14 -25,18 -12,3 -25,4 -37,3 -12,-1 -24,-6 -34,-15 -5,-4 -10,-9 -14,-16 -3,-5 -4,-11 -3,-16 1,-5 5,-9 10,-13 5,-3 11,-5 16,-4 6,0 10,3 14,8 4,7 9,12 15,13 6,1 14,0 22,-2 1,-5 3,-9 4,-14 1,-4 1,-9 1,-14 0,-8 -3,-13 -8,-17 -5,-4 -12,-5 -20,-3l-11 3c-13,2 -22,-3 -26,-13 -4,-11 0,-20 12,-27 5,-3 10,-7 16,-10 5,-3 10,-6 15,-10 4,-2 8,-6 10,-10 3,-4 3,-9 -1,-14 -3,-1 -8,0 -13,3 -6,3 -11,5 -16,6 -12,5 -21,3 -27,-7 -6,-9 -5,-17 3,-25 4,-5 9,-9 17,-12 7,-3 14,-5 22,-6 7,-1 15,0 22,1 7,1 14,4 19,7 16,11 23,26 19,43 -2,7 -3,13 -6,20 -2,6 -4,13 -7,20zm240 79c9,4 16,8 19,13 4,5 5,12 3,22 -1,9 -6,15 -14,18 -7,4 -15,3 -22,-4 -2,-2 -3,-3 -5,-4 -1,-1 -3,-1 -5,-1 -14,0 -28,0 -42,0 -14,0 -27,1 -41,2 -6,0 -9,0 -11,1 -5,0 -8,2 -10,7 -5,12 -13,16 -23,14 -10,-2 -16,-9 -17,-21 -1,-12 0,-20 4,-24 3,-5 11,-9 22,-12 2,-1 4,-2 7,-2 2,0 4,-1 7,-2 1,-13 1,-26 2,-38 1,-12 1,-25 2,-38 1,-5 1,-11 1,-16 1,-5 1,-11 2,-16 3,-25 14,-45 33,-59 17,-12 34,-15 51,-9 18,6 29,19 34,39 1,7 2,14 2,20 0,7 1,14 1,21 0,13 0,27 0,40 0,14 -1,27 -1,41 0,3 0,6 1,8zm-42 2c0,-1 0,-2 0,-3 1,-1 1,-2 1,-3 0,-16 0,-32 0,-48 1,-16 1,-32 1,-48 0,-3 0,-7 0,-11 0,-4 -1,-7 -2,-11 -3,-10 -10,-13 -19,-8 -13,8 -20,18 -21,32 -1,15 -2,29 -3,43 0,14 -1,28 -3,42 0,3 0,5 0,8 0,3 1,6 1,9 8,-1 15,-1 23,-1 7,0 15,0 22,-1zm158 47c0,10 -1,20 -1,28 0,9 0,18 1,27 0,7 0,15 1,23 0,8 0,16 0,23 0,4 -1,7 -2,10 -1,4 -3,7 -5,9 -5,6 -11,8 -19,7 -7,-1 -13,-5 -16,-12 -1,-2 -2,-5 -2,-8 -1,-2 -1,-5 -2,-8 -1,-45 -3,-90 -4,-135 -2,-44 -1,-89 4,-135 0,-5 0,-9 1,-11 2,-10 5,-16 9,-20 5,-4 11,-7 21,-8 35,-5 65,4 91,28 10,9 17,19 21,30 4,11 6,24 6,37 1,9 1,18 -1,28 -2,10 -4,19 -6,28 -5,21 -15,35 -31,44 -15,9 -30,14 -44,15 -4,0 -7,0 -11,0 -4,0 -7,0 -11,0zm-4 -45c6,-1 12,-1 16,-1 5,0 9,0 13,-1 6,-1 10,-3 15,-6 5,-3 8,-6 10,-12 5,-11 8,-22 9,-34 1,-11 0,-23 -4,-34 -3,-11 -10,-20 -20,-25 -11,-6 -22,-7 -35,-5 -1,19 -2,39 -2,58 -1,19 -2,39 -2,60zm283 -42c-6,8 -11,14 -16,19 -4,6 -9,11 -14,16 -4,4 -8,8 -13,12 -4,4 -9,8 -15,11 -15,9 -29,11 -44,4 -14,-6 -23,-18 -26,-36 -4,-25 -4,-48 2,-71 5,-22 18,-41 38,-58 16,-16 36,-24 59,-25 18,-1 34,5 48,17 3,3 6,6 10,9 4,3 7,7 10,10 2,4 4,7 6,11 1,4 2,8 2,12 1,7 1,15 1,22 -1,6 -1,14 -1,21 0,11 0,22 1,34 0,11 0,23 0,34 0,3 0,7 1,11 0,4 0,8 0,12 -2,14 -10,21 -23,20 -13,0 -20,-7 -21,-20 -2,-8 -2,-16 -3,-23 0,-8 -1,-16 -1,-24 0,-2 0,-4 0,-7 0,-2 -1,-6 -1,-11zm-82 16c17,-11 31,-24 42,-40 11,-16 21,-32 32,-48 -7,-10 -16,-14 -26,-10 -10,4 -19,8 -26,14 -13,11 -20,24 -22,39 -2,14 -2,29 0,45zm290 -55c3,2 6,4 9,5 3,1 6,3 9,4 15,8 24,20 28,35 3,15 0,29 -11,43 -9,13 -22,22 -36,27 -14,5 -29,8 -46,10 -4,0 -9,-1 -14,-1 -4,0 -9,-1 -13,-1 -14,-2 -24,-5 -30,-11 -6,-6 -9,-16 -9,-29 0,-25 0,-50 1,-75 0,-25 -1,-50 -2,-75 0,-18 9,-27 28,-27 12,0 25,1 38,3 15,2 28,7 39,16 11,9 18,20 21,33 1,8 1,16 -1,22 -2,7 -6,14 -11,21zm-70 80c17,4 33,3 47,-2 9,-3 16,-8 22,-14 8,-8 7,-14 -3,-20 -21,-10 -42,-13 -64,-8 0,7 -1,15 -1,22 0,8 -1,15 -1,22zm0 -90c1,1 2,2 4,3 5,-3 10,-6 15,-8 5,-3 10,-6 14,-9 9,-6 9,-13 0,-21 -10,-8 -21,-10 -32,-7 -1,8 -1,15 -1,21 0,7 0,14 0,21zm210 42c5,-12 11,-23 17,-33 5,-11 12,-22 18,-33 4,-6 8,-13 13,-19 5,-5 9,-11 14,-16 4,-5 8,-8 13,-10 5,-2 10,-2 16,1 11,4 17,12 17,25l0 27c0,20 -1,40 -1,60 0,19 0,39 -1,59 0,2 0,4 0,6 0,3 0,5 -1,8 -1,6 -4,11 -10,15 -5,4 -10,5 -16,4 -13,-2 -19,-10 -19,-24l0 -40c0,-6 0,-12 -1,-18 0,-6 -1,-13 -3,-20 -1,3 -3,6 -5,9 -1,2 -3,5 -5,8 -5,10 -11,19 -16,29 -6,9 -12,19 -18,28 -5,7 -11,13 -17,17 -10,5 -19,6 -27,2 -9,-3 -14,-11 -16,-21 -2,-15 -3,-29 -2,-41 1,-21 1,-41 2,-62 1,-20 1,-40 2,-61 1,-3 1,-5 1,-8 0,-2 0,-4 1,-6 3,-13 11,-18 24,-17 5,1 10,3 14,6 4,3 6,8 6,13 0,7 0,14 0,22 0,8 -1,15 -1,22 0,12 -1,23 -1,33 0,11 -1,22 -1,34 0,0 1,0 1,0 0,0 1,1 2,1zm215 -73l-26 0c-4,0 -7,0 -9,0 -3,0 -6,0 -9,-1 -5,-1 -10,-3 -13,-7 -3,-4 -5,-8 -5,-13 -1,-12 4,-20 16,-23 1,-1 2,-1 2,-1 1,0 2,0 3,-1 15,-1 30,-3 45,-4 16,-1 31,-2 46,-3 3,0 6,0 9,0 2,0 5,0 9,1 6,1 10,3 14,7 4,5 6,9 6,15 0,11 -6,18 -18,21 -4,2 -7,2 -11,2 -3,0 -7,1 -11,1 -1,14 -1,26 -2,39 0,13 0,25 0,38 -1,11 -1,22 -1,32 0,11 0,21 0,32 0,5 0,9 -1,11 -2,14 -10,21 -23,21 -6,0 -11,-2 -15,-6 -4,-4 -7,-10 -7,-17 0,-16 1,-32 1,-48 0,-16 0,-31 0,-47 1,-8 1,-16 1,-24 0,-8 -1,-16 -1,-25zm179 86c0,8 2,14 5,19 2,5 6,11 10,16 7,7 15,9 24,5 11,-5 19,-12 25,-22 1,-2 3,-5 4,-7 1,-2 3,-5 4,-8 7,-9 15,-12 25,-8 4,3 8,6 10,10 2,4 2,9 1,14 -6,17 -15,31 -28,43 -12,12 -28,19 -48,21 -15,2 -29,-3 -40,-14 -7,-7 -13,-14 -18,-21 -5,-7 -8,-15 -11,-24 -4,-14 -8,-29 -10,-43 -2,-14 -1,-29 2,-44 8,-35 29,-56 65,-63 5,-2 10,-2 15,-1 5,1 10,2 14,4 15,5 27,15 36,30 9,16 13,31 11,47 -2,21 -13,34 -34,40 -5,1 -10,2 -15,2 -5,0 -10,1 -16,1 -4,1 -8,1 -12,1 -4,0 -9,0 -13,0 -2,1 -3,1 -3,1 -1,0 -2,1 -3,1zm-6 -41c9,-1 18,-1 26,-2 8,0 17,0 26,-1 7,-1 10,-5 9,-12 0,-3 -1,-6 -2,-8 0,-3 -1,-5 -3,-8 -8,-14 -19,-17 -34,-11 -9,4 -15,10 -18,17 -3,7 -4,16 -4,25zm287 -50l-40 0 0 21c0,12 0,24 0,35 0,12 0,23 -2,34 -1,10 -3,18 -5,27 -3,8 -6,16 -9,25 -2,4 -4,8 -8,11 -3,4 -7,7 -10,11 -5,3 -10,5 -16,6 -5,0 -11,0 -16,-2 -5,-2 -10,-5 -14,-9 -4,-4 -6,-9 -8,-14 -2,-8 -1,-15 3,-21 4,-7 11,-10 19,-11 2,0 4,0 6,1 1,0 3,0 6,0 3,-9 6,-18 7,-28 1,-10 2,-19 2,-29 0,-9 0,-17 0,-26 0,-8 0,-17 -1,-26 0,-3 0,-6 0,-8 0,-2 0,-5 1,-8 1,-19 10,-29 27,-31 12,-1 24,-2 36,-3 12,0 24,0 36,1 8,0 14,3 20,8 5,5 8,12 10,20 1,13 2,25 1,36 -1,21 -2,42 -3,63 -2,20 -3,41 -4,62 0,4 -1,7 -1,9 -2,11 -10,17 -22,19 -5,0 -10,-2 -14,-5 -4,-4 -7,-8 -8,-13 -2,-6 -2,-14 -1,-23 1,-18 3,-37 4,-54 1,-18 3,-36 4,-55 1,-3 1,-7 0,-10 0,-4 0,-8 0,-13zm137 19c4,0 9,0 12,0 4,0 7,1 11,1 29,3 47,17 55,42 8,23 7,43 -4,61 -10,18 -24,30 -44,37 -4,1 -7,2 -11,4 -4,1 -7,2 -11,4 -13,3 -25,1 -35,-5 -11,-6 -17,-16 -19,-29 0,-9 -1,-17 -1,-26 0,-8 0,-17 0,-25 0,-16 -1,-31 0,-45 0,-15 0,-30 0,-45 0,-4 0,-8 0,-12 0,-4 1,-9 1,-13 2,-6 5,-11 9,-15 5,-3 10,-5 16,-4 13,1 19,9 21,22l0 48zm-1 104c30,-7 42,-21 36,-44 -1,-6 -3,-10 -5,-12 -2,-2 -6,-4 -12,-4 -3,-1 -6,-1 -9,-1 -3,1 -6,0 -10,0l0 61zm224 -90c0,-9 1,-17 1,-24 0,-8 1,-16 1,-23l0 -13c3,-12 10,-18 21,-18 6,1 10,2 14,5 3,3 5,7 6,13 1,8 1,17 1,25 0,9 0,18 1,26 0,19 0,39 1,59 0,19 0,39 1,58 0,14 -6,21 -20,23 -5,1 -10,-1 -15,-5 -5,-4 -8,-10 -8,-16 -1,-6 -1,-12 -1,-18 0,-7 0,-13 0,-20 -1,-4 -1,-9 -1,-14 0,-4 0,-9 0,-14 -10,0 -18,1 -26,1 -8,0 -16,1 -25,2 0,10 0,20 0,30 -1,10 -1,20 -2,30 0,3 0,6 0,9 -1,2 -1,5 -3,7 -2,5 -5,9 -10,11 -4,2 -9,2 -15,1 -9,-2 -14,-9 -14,-21 -1,-9 -1,-17 -1,-25 0,-9 1,-17 1,-26l0 -114c0,-6 0,-11 1,-14 1,-6 4,-10 8,-13 4,-3 9,-4 14,-3 12,1 18,8 19,20 1,6 1,13 1,19 0,6 0,13 0,19l0 24c5,0 9,0 13,1 4,0 8,0 13,0 3,0 7,0 11,0 4,-1 8,-1 13,-2zm135 -1c8,0 14,0 16,1 25,1 43,9 55,22 12,13 16,30 12,50 -4,15 -12,28 -26,41 -14,12 -29,20 -44,24 -16,3 -28,1 -38,-5 -10,-6 -16,-16 -17,-30 -1,-7 -1,-14 -1,-21 0,-6 0,-13 0,-21l-3 -112c0,-6 1,-11 3,-16 4,-9 11,-12 22,-11 10,0 16,4 18,13 2,3 2,6 2,8 0,2 1,5 1,9l0 48zm5 41c-2,9 -2,19 -2,31 0,12 2,21 4,26 14,-5 23,-14 28,-27 2,-4 3,-8 4,-12 1,-4 -1,-8 -5,-12 -7,-6 -17,-8 -29,-6zm132 63c0,3 0,6 0,9 0,2 -1,5 -2,8 -3,9 -11,14 -22,14 -11,0 -18,-6 -21,-16 0,-2 -1,-4 -1,-7 0,-2 0,-4 0,-6 0,-24 0,-49 0,-73 0,-24 0,-48 -1,-72 0,-4 0,-7 0,-10 0,-4 1,-7 1,-10 2,-15 10,-22 24,-22 15,0 22,8 22,23 0,7 0,18 0,34 1,15 1,31 1,48 0,17 0,33 0,48 0,15 0,25 -1,32z"/>
   <path class="fil1" d="M3651 997c1,8 2,14 5,19 3,5 6,11 10,16 7,7 15,9 25,5 10,-5 18,-12 24,-22 2,-2 3,-5 4,-7 2,-2 3,-5 4,-8 7,-9 15,-12 25,-8 5,3 8,6 10,10 2,4 2,9 1,14 -5,17 -14,31 -27,43 -13,12 -29,19 -48,21 -16,2 -30,-3 -41,-14 -7,-7 -13,-14 -18,-21 -4,-7 -8,-15 -10,-24 -5,-14 -8,-29 -10,-43 -2,-14 -2,-29 2,-44 7,-35 28,-56 64,-63 5,-2 10,-2 15,-1 5,1 10,2 15,4 15,5 27,15 36,30 9,16 12,31 10,47 -2,21 -13,34 -34,40 -5,1 -10,2 -15,2 -5,0 -10,1 -15,1 -5,1 -9,1 -13,1 -4,0 -8,0 -13,0 -1,1 -2,1 -3,1 -1,0 -2,1 -3,1zm-6 -41c9,-1 18,-1 26,-2 9,0 17,0 27,-1 6,-1 9,-5 9,-12 -1,-3 -2,-6 -2,-8 -1,-3 -2,-5 -3,-8 -8,-14 -20,-17 -35,-11 -9,4 -14,10 -17,17 -3,7 -5,16 -5,25zm-2159 455c-3,-16 -5,-32 -5,-47 1,-15 4,-29 10,-44 10,-26 28,-43 54,-51 8,-3 16,-3 25,-1 27,7 44,24 51,51 6,23 8,45 6,66 -1,21 -7,43 -18,64 -5,10 -12,18 -20,24 -9,6 -18,9 -27,9 -10,1 -20,-1 -29,-5 -10,-3 -18,-10 -25,-19 -6,-8 -11,-15 -14,-24 -4,-8 -6,-16 -8,-23zm94 -75c-1,-1 -1,-3 -1,-4 0,-2 -1,-4 -2,-6 -7,-14 -16,-17 -28,-10 -8,6 -13,13 -17,21 -6,15 -8,30 -7,44 2,14 6,28 13,42 1,3 3,6 6,9 4,4 8,6 13,6 5,0 9,-3 12,-8 2,-3 4,-7 5,-10 10,-26 12,-54 6,-84zm155 -23l-26 0c-4,0 -7,-1 -9,0 -3,0 -6,0 -9,-1 -5,-1 -10,-4 -13,-7 -3,-4 -5,-8 -5,-14 -1,-11 4,-19 16,-22 1,-1 2,-1 2,-1 1,0 2,-1 3,-1 15,-2 30,-3 45,-4 16,-1 31,-2 46,-3 3,0 6,0 9,0 2,0 5,0 9,1 6,0 10,3 14,7 4,5 5,9 5,15 0,11 -5,18 -17,21 -4,2 -7,2 -11,2 -3,0 -7,1 -11,1 -1,14 -1,26 -2,39 0,12 0,25 0,37 -1,12 -1,23 -1,33 0,11 0,21 0,32 0,5 0,9 -1,11 -2,14 -10,20 -23,20 -6,0 -11,-2 -15,-5 -4,-4 -7,-10 -7,-17 0,-16 1,-32 1,-48 0,-16 0,-31 0,-47 1,-8 1,-16 1,-24 0,-8 -1,-16 -1,-25zm198 76c-8,6 -14,11 -18,17 -5,5 -7,13 -5,22 0,5 1,9 1,13 1,5 1,9 1,14 0,14 -7,22 -20,23 -7,2 -12,1 -17,-3 -4,-4 -7,-9 -9,-16 -1,-10 -2,-19 -2,-28 0,-8 0,-17 0,-27 0,-18 0,-36 0,-55 0,-18 1,-36 1,-56 0,-2 0,-4 0,-6 -1,-2 0,-4 0,-6 2,-6 4,-10 9,-14 4,-3 9,-5 14,-5 5,0 10,1 14,5 5,3 7,8 8,14 1,5 2,10 1,16 0,6 0,12 0,18l0 27c2,-3 4,-5 6,-5 1,-1 2,-3 4,-4 6,-9 13,-18 19,-27 7,-9 14,-18 20,-27 2,-2 2,-3 3,-4 0,-1 1,-2 2,-3 9,-10 18,-12 29,-5 10,5 14,14 10,25 -2,3 -3,6 -4,8 -1,2 -2,5 -4,7 -4,6 -8,12 -12,18 -4,6 -8,12 -13,17 -5,5 -6,11 -3,18 6,15 12,30 17,45 6,15 11,31 17,46 5,15 0,25 -14,29 -14,4 -24,-2 -30,-16 -3,-10 -6,-19 -9,-28 -2,-8 -5,-18 -9,-27 -1,-3 -2,-6 -4,-9 -1,-3 -2,-7 -3,-11zm167 90c0,11 0,21 -1,29 0,9 0,18 1,27 0,7 0,15 1,23 1,8 1,15 0,23 0,4 -1,7 -2,10 -1,4 -2,7 -5,9 -5,5 -11,8 -18,7 -8,-1 -13,-5 -17,-12 -1,-2 -2,-5 -2,-8 0,-2 -1,-5 -2,-8 -1,-45 -2,-90 -4,-135 -2,-44 0,-89 4,-135 0,-5 1,-9 1,-12 2,-9 6,-15 10,-19 4,-4 11,-7 20,-8 35,-6 65,4 91,27 10,10 17,20 21,31 5,11 7,24 7,37 0,9 0,18 -2,28 -1,9 -3,19 -5,28 -5,21 -16,35 -31,44 -16,9 -30,14 -44,14 -4,1 -8,1 -12,1 -3,0 -7,-1 -11,-1zm-4 -44c7,-1 12,-1 17,-1 4,0 9,0 13,-1 5,-1 10,-3 15,-6 4,-3 7,-7 9,-12 5,-11 8,-22 9,-34 2,-12 0,-23 -4,-34 -3,-11 -10,-20 -20,-25 -10,-6 -22,-7 -35,-5 -1,19 -1,38 -2,58 -1,19 -1,39 -2,60zm198 -95c8,0 13,0 16,1 24,1 43,9 55,22 12,13 16,30 11,50 -3,15 -12,28 -25,41 -14,12 -29,20 -44,23 -16,4 -29,2 -39,-4 -9,-6 -15,-16 -16,-30 -1,-7 -1,-14 -1,-21 0,-7 0,-13 0,-21l-3 -112c0,-6 1,-11 3,-16 4,-9 11,-12 21,-11 11,0 17,4 19,13 1,3 2,6 2,8 0,2 0,5 1,8l0 49zm5 41c-2,9 -3,19 -2,31 0,12 1,21 4,26 13,-5 22,-14 28,-27 2,-4 3,-8 4,-12 0,-4 -1,-9 -5,-13 -7,-5 -17,-7 -29,-5zm132 63c0,3 0,6 0,9 0,2 -1,5 -2,8 -4,9 -11,14 -22,14 -11,0 -18,-6 -21,-16 -1,-2 -1,-4 -1,-7 0,-2 0,-4 0,-6 0,-25 0,-49 0,-73 0,-24 0,-48 -1,-73 0,-3 0,-6 0,-9 0,-4 0,-7 1,-10 1,-15 9,-22 24,-22 14,0 22,7 22,23 0,7 0,18 0,34 0,15 1,31 1,48 0,17 0,33 0,48 0,15 -1,25 -1,32zm114 -131l-27 0c-3,0 -6,-1 -9,0 -3,0 -6,0 -9,-1 -5,-1 -9,-4 -13,-7 -3,-4 -5,-8 -5,-14 -1,-11 4,-19 16,-22 1,-1 2,-1 3,-1 0,0 1,-1 2,-1 15,-2 30,-3 46,-4 15,-1 30,-2 45,-3 3,0 6,0 9,0 3,0 6,0 9,1 6,0 11,3 14,7 4,5 6,9 6,15 0,11 -6,18 -18,21 -3,2 -7,2 -10,2 -4,0 -8,1 -12,1 -1,14 -1,26 -1,39 -1,12 -1,25 -1,37 0,12 -1,23 -1,33 0,11 0,21 0,32 0,5 0,9 -1,11 -2,14 -9,20 -23,20 -5,0 -11,-2 -15,-5 -4,-4 -6,-10 -6,-17 0,-16 0,-32 0,-48 1,-16 1,-31 1,-47 0,-8 0,-16 0,-24 0,-8 0,-16 0,-25zm197 76c-7,6 -13,11 -18,17 -5,5 -6,13 -5,22 1,5 1,9 2,13 0,5 0,9 0,14 0,14 -7,22 -20,23 -6,2 -12,1 -17,-3 -4,-4 -7,-9 -8,-16 -2,-10 -2,-19 -2,-28 0,-8 0,-17 0,-27 0,-18 0,-36 0,-55 0,-18 0,-36 1,-56 0,-2 -1,-4 -1,-6 0,-2 0,-4 1,-6 1,-6 4,-10 8,-14 4,-3 9,-5 14,-5 6,0 10,1 15,5 4,3 6,8 7,14 1,5 2,10 2,16 -1,6 -1,12 -1,18l0 27c3,-3 5,-5 6,-5 1,-1 3,-3 4,-4 7,-9 13,-18 20,-27 6,-9 13,-18 19,-27 2,-2 3,-3 3,-4 0,-1 1,-2 2,-3 9,-10 19,-12 29,-5 11,5 14,14 10,25 -1,3 -2,6 -3,8 -1,2 -3,5 -5,7 -4,6 -8,12 -12,18 -4,6 -8,12 -13,17 -4,5 -5,11 -3,18 6,15 12,30 18,45 5,15 11,31 16,46 5,15 1,25 -14,29 -14,4 -24,-2 -29,-16 -4,-10 -7,-19 -9,-28 -3,-8 -6,-18 -9,-27 -2,-3 -3,-6 -4,-9 -2,-3 -3,-7 -4,-11zm167 -4c6,-11 12,-22 18,-32 5,-11 11,-22 18,-33 4,-6 8,-13 13,-19 4,-6 9,-11 14,-16 4,-5 8,-8 13,-10 5,-2 10,-2 15,1 12,4 18,12 18,25l0 27c-1,20 -1,40 -1,59 0,20 0,40 -1,60 0,2 0,4 0,6 0,3 0,5 -1,8 -1,6 -5,11 -10,15 -5,4 -11,5 -17,3 -12,-1 -18,-9 -18,-23l0 -40c0,-6 -1,-12 -1,-18 0,-6 -1,-13 -3,-20 -2,3 -3,6 -5,8 -1,3 -3,6 -5,9 -6,10 -11,19 -17,29 -5,9 -11,19 -17,28 -5,7 -11,13 -18,17 -9,5 -18,6 -26,2 -9,-4 -14,-11 -16,-21 -2,-15 -3,-29 -2,-41 0,-21 1,-41 2,-62 0,-20 1,-40 2,-61 0,-3 1,-6 1,-8 0,-2 0,-4 1,-6 3,-13 11,-18 23,-17 6,1 10,3 14,6 4,3 6,7 6,13 1,7 1,14 1,22 -1,8 -1,15 -2,22 0,11 0,22 0,33 -1,11 -1,22 -2,33 1,0 1,1 2,1 0,0 1,0 1,0zm-1225 235c0,3 0,7 -1,11 0,3 -1,7 -1,10 -3,38 -5,74 -6,111 -1,36 -1,73 -1,111 0,5 0,10 0,14 -2,12 -9,19 -22,20 -5,0 -10,-2 -14,-5 -5,-4 -7,-8 -9,-14 0,-3 -1,-7 -1,-12 0,-74 2,-146 6,-218 1,-5 1,-9 1,-13 0,-5 1,-10 1,-15l-28 0c-5,0 -10,0 -14,1 -5,0 -9,0 -13,0 -7,-1 -13,-4 -17,-8 -4,-5 -6,-10 -5,-17 1,-5 3,-10 7,-14 4,-4 10,-6 17,-6 24,-1 48,-1 72,-2 25,0 48,-1 72,-1 9,0 15,2 20,6 5,4 7,10 7,16 -1,15 -10,23 -27,24l-22 0c-3,0 -6,0 -10,0 -4,0 -8,1 -12,1zm-782 193c-3,-16 -5,-32 -5,-47 1,-15 4,-29 10,-44 10,-26 28,-43 54,-51 8,-3 16,-3 25,-1 27,7 44,24 51,51 6,23 8,44 6,66 -1,21 -7,43 -17,64 -6,10 -13,18 -21,24 -9,6 -18,9 -27,9 -10,1 -20,-1 -29,-5 -10,-4 -18,-10 -25,-19 -6,-8 -11,-15 -14,-24 -4,-8 -6,-16 -8,-23zm94 -75c-1,-1 -1,-3 -1,-5 0,-1 -1,-3 -2,-5 -7,-14 -16,-17 -28,-10 -8,6 -13,13 -17,21 -6,15 -8,30 -7,44 2,14 6,28 13,42 1,3 3,6 6,9 4,4 8,6 13,6 5,0 9,-3 12,-8 2,-3 4,-7 5,-10 10,-26 12,-54 6,-84zm155 -23l-26 0c-4,0 -7,-1 -9,0 -3,0 -6,0 -9,-1 -5,-1 -10,-4 -13,-7 -3,-4 -5,-8 -5,-14 -1,-11 4,-19 16,-22 1,-1 2,-1 2,-1 1,0 2,-1 3,-1 15,-2 30,-3 45,-4 16,-1 31,-2 46,-3 3,0 6,0 9,0 2,0 5,0 9,1 6,0 10,3 14,7 4,4 5,9 5,14 0,12 -5,19 -17,22 -4,2 -7,2 -11,2 -3,0 -7,1 -11,1 -1,13 -1,26 -2,39 0,12 0,25 0,37 -1,12 -1,22 -1,33 0,11 0,21 0,32 0,5 0,9 -1,11 -2,13 -10,20 -23,20 -6,0 -11,-2 -15,-6 -4,-4 -7,-9 -7,-16 0,-16 1,-32 1,-48 0,-16 0,-32 0,-47 1,-8 1,-16 1,-24 0,-8 -1,-16 -1,-25zm686 7c8,-3 14,-7 21,-10 6,-4 12,-7 19,-10 14,-5 27,-5 41,0 13,6 23,15 28,30 5,15 8,30 7,43 0,20 0,39 -1,57 -1,19 -2,38 -3,57 -1,8 -3,15 -7,20 -4,4 -9,7 -17,7 -14,0 -21,-8 -22,-25 0,-5 0,-10 0,-15 0,-4 0,-9 1,-14 0,-16 1,-30 2,-44 0,-15 1,-29 2,-44 0,-6 0,-11 0,-16 0,-5 -3,-9 -8,-12 -6,-3 -11,-3 -15,0 -5,3 -9,6 -12,10 -7,6 -14,12 -19,20 -5,8 -9,16 -13,25 -1,3 -2,6 -2,9 0,3 0,7 0,10 1,11 1,23 2,35 0,12 1,23 1,34l0 8c-2,12 -8,19 -20,20 -12,1 -20,-4 -23,-17 -2,-2 -2,-5 -2,-7 0,-3 -1,-5 -1,-9 -2,-25 -3,-50 -4,-76 -1,-26 -2,-51 -2,-77 -1,-23 -1,-46 -1,-68 1,-22 1,-44 1,-68 0,-3 0,-5 1,-6 1,-7 4,-12 8,-16 4,-3 10,-5 16,-4 12,0 19,7 20,21 1,7 1,14 1,21 -1,7 -1,14 -1,21 0,15 0,30 0,45 -1,15 0,30 2,45zm212 109c1,7 3,13 5,19 3,5 6,10 10,16 7,7 16,8 25,4 10,-4 19,-11 25,-21 1,-3 2,-5 4,-8 1,-2 2,-4 3,-7 7,-10 15,-13 25,-8 5,3 8,6 10,10 2,4 2,8 1,14 -5,16 -14,31 -27,43 -13,12 -29,19 -48,20 -16,2 -29,-3 -41,-14 -7,-6 -13,-13 -17,-20 -5,-7 -9,-15 -11,-24 -5,-15 -8,-29 -10,-43 -2,-15 -2,-29 2,-44 7,-35 28,-56 64,-64 5,-1 10,-1 15,0 5,1 10,2 15,3 15,6 27,16 36,31 9,15 12,31 10,46 -2,22 -13,35 -33,40 -6,1 -11,2 -16,2 -5,1 -10,1 -15,2 -5,1 -9,1 -13,1 -4,0 -8,0 -13,0 -1,1 -2,1 -3,1 0,0 -1,0 -3,1zm-6 -42c10,0 18,-1 27,-1 8,0 17,-1 26,-2 6,0 9,-4 9,-11 -1,-4 -2,-7 -2,-9 -1,-2 -2,-5 -3,-7 -8,-14 -20,-18 -35,-11 -8,4 -14,9 -17,17 -3,7 -5,15 -5,24zm536 22c1,-7 2,-14 4,-21 2,-7 3,-14 4,-21 5,-21 10,-41 14,-61 5,-20 10,-41 14,-61 1,-7 3,-14 5,-21 1,-7 3,-14 4,-22 1,-2 1,-4 1,-6 0,-2 1,-5 2,-7 2,-6 6,-10 11,-13 5,-4 10,-5 16,-3 6,1 10,4 14,9 4,4 5,10 4,16 -2,12 -5,22 -7,33 -2,10 -5,20 -7,32 -6,24 -11,48 -16,72 -5,24 -11,48 -16,72 -3,11 -6,22 -9,32 -3,11 -6,21 -10,31 -1,3 -2,6 -4,8 -1,2 -2,5 -4,7 -6,10 -13,14 -22,14 -10,0 -17,-4 -23,-14 -3,-7 -7,-14 -10,-21 -3,-7 -6,-14 -8,-21 -9,-34 -17,-67 -25,-101 -8,-33 -17,-66 -25,-100 -2,-6 -3,-12 -3,-18 -1,-7 -2,-13 -2,-20 -2,-5 -2,-10 0,-15 2,-12 9,-18 21,-18 13,-2 20,4 22,17 1,5 2,10 2,14 0,5 1,10 2,15 3,13 6,26 9,39 2,12 5,25 8,37 5,20 10,40 15,59 4,19 9,38 15,57l4 0z"/>
   <path class="fil1" d="M2765 1885c0,7 -1,13 -5,17 -3,5 -8,8 -15,9 -13,1 -21,-5 -26,-18 0,-2 -1,-5 -1,-7 -1,-2 -1,-4 -1,-7 -3,-25 -5,-51 -5,-77 0,-26 0,-52 1,-78 0,-3 1,-7 2,-12 5,-10 13,-14 25,-13 11,2 18,8 19,19 1,5 1,11 0,16 0,6 0,11 0,17l0 24c0,0 0,3 0,11 1,8 1,18 1,30 1,11 1,23 2,36 1,13 2,24 3,33zm-56 -236c0,-7 3,-14 8,-19 5,-6 11,-8 18,-8 6,0 11,2 15,6 5,4 7,9 7,15 1,7 -2,13 -7,19 -5,6 -11,9 -17,9 -6,0 -12,-2 -17,-6 -4,-5 -7,-10 -7,-16zm104 86c0,-23 -1,-46 -1,-69 0,-23 0,-46 0,-70 0,-5 0,-9 1,-11 2,-14 9,-20 22,-20 6,0 10,1 14,5 3,3 6,7 7,13 1,3 2,6 2,8 0,2 0,5 0,7l0 255c0,6 0,11 1,17 0,6 0,11 -1,17 -1,15 -9,22 -24,22 -13,-1 -20,-10 -21,-25l0 -10 0 -139zm96 0c0,-23 0,-46 -1,-69 0,-23 0,-46 0,-70 0,-5 0,-9 1,-11 2,-14 9,-20 23,-20 5,0 9,1 13,5 4,3 6,7 7,13 2,3 2,6 2,8 0,2 0,5 0,7l0 255c0,6 0,11 1,17 0,6 0,11 -1,17 -1,15 -9,22 -23,22 -14,-1 -21,-10 -22,-25l0 -10 0 -139zm226 90c-6,7 -11,13 -16,19 -4,5 -9,10 -14,16 -4,4 -8,7 -13,11 -5,4 -10,8 -15,11 -15,10 -30,11 -44,5 -14,-6 -23,-19 -26,-36 -5,-25 -4,-49 1,-71 6,-22 19,-42 39,-59 16,-15 36,-23 59,-25 18,0 34,5 47,17 4,3 7,7 11,10 3,3 7,6 10,10 2,3 4,7 6,11 1,4 2,8 2,12 1,7 1,14 1,21 -1,7 -1,14 -1,21 0,11 0,23 1,34 0,12 0,23 0,35 0,3 0,6 1,10 0,4 0,8 0,12 -2,15 -10,21 -24,20 -12,0 -19,-7 -20,-20 -2,-8 -3,-15 -3,-23 0,-8 -1,-15 -1,-23 0,-2 0,-5 0,-7 0,-3 -1,-6 -1,-11zm-83 16c18,-11 32,-25 43,-41 10,-16 21,-31 32,-47 -8,-11 -16,-14 -26,-10 -11,3 -19,8 -26,14 -13,11 -21,24 -23,38 -1,15 -1,30 0,46zm300 26c-3,2 -6,4 -8,5 -3,2 -6,3 -8,4 -4,2 -8,4 -12,6 -4,1 -8,3 -13,4 -22,6 -42,3 -57,-10 -16,-13 -24,-31 -22,-54 1,-22 7,-41 17,-57 10,-17 25,-31 43,-43 22,-13 45,-19 68,-19 26,2 39,16 40,41l0 27c-1,22 -1,44 -2,66 0,22 0,45 -1,68 -1,30 -7,58 -18,86 -4,11 -11,20 -20,27 -8,6 -17,11 -27,13 -10,2 -20,2 -30,-1 -11,-2 -20,-7 -29,-13 -21,-18 -31,-40 -30,-67 0,-8 2,-14 6,-19 4,-5 9,-7 14,-7 15,-1 23,6 25,23 1,6 2,11 3,17 1,6 4,11 9,15 16,14 28,11 38,-8 0,0 0,-1 0,-1 0,0 1,-1 1,-2 6,-15 9,-32 10,-49 1,-16 2,-34 3,-52zm0 -117c-12,1 -23,4 -32,9 -9,5 -18,12 -25,20 -5,8 -10,15 -13,23 -4,7 -5,16 -4,25 1,14 8,19 21,15 19,-5 31,-15 39,-30 5,-9 8,-19 10,-29 2,-10 3,-21 4,-33zm143 81c1,7 3,13 5,19 3,5 6,10 10,16 7,7 16,8 25,4 10,-4 19,-11 25,-21 1,-3 2,-5 3,-8 2,-2 3,-4 4,-7 7,-10 15,-13 25,-8 5,3 8,6 10,10 2,4 2,8 1,14 -5,16 -14,31 -27,43 -13,12 -29,19 -48,20 -16,2 -29,-3 -41,-14 -7,-6 -13,-13 -18,-20 -4,-7 -8,-15 -10,-24 -5,-15 -8,-29 -10,-43 -2,-15 -2,-29 2,-44 7,-35 28,-56 64,-64 5,-1 10,-1 15,0 5,1 10,2 15,3 15,6 27,16 36,31 9,15 12,31 10,46 -2,22 -13,35 -33,40 -6,1 -11,2 -16,2 -5,1 -10,1 -15,2 -5,1 -9,1 -13,1 -4,0 -8,0 -13,0 -1,1 -2,1 -3,1 0,0 -1,0 -3,1zm-6 -42c10,0 18,-1 26,-1 9,0 17,-1 27,-2 6,0 9,-4 9,-11 -1,-4 -2,-7 -2,-9 -1,-2 -2,-5 -3,-7 -8,-14 -20,-18 -35,-11 -9,4 -14,9 -17,17 -3,7 -5,15 -5,24zm-2737 378c-9,0 -18,0 -26,0 -8,0 -17,1 -26,3l-3 51c-1,15 -1,30 -1,45 0,15 -1,30 -1,45 0,2 0,4 0,6 0,3 -1,5 -2,7 -4,13 -11,19 -23,18 -13,-2 -19,-10 -19,-23 0,-7 0,-15 0,-23 0,-8 1,-15 1,-23 1,-14 1,-27 1,-41 0,-14 1,-28 1,-42l3 -26c2,-17 11,-28 26,-34 4,-1 9,-3 14,-4 5,-1 10,-2 16,-2 7,-1 14,-2 22,-2 8,1 16,1 23,1 20,0 32,10 36,30 2,10 3,20 3,31 -1,21 -2,42 -2,63 -1,20 -2,41 -2,62l0 7c-2,14 -10,22 -23,22 -13,-2 -20,-9 -21,-23 0,-7 0,-15 1,-22 0,-7 0,-14 0,-22 1,-14 1,-29 2,-43 0,-15 0,-29 1,-44 0,-2 0,-5 0,-8 -1,-2 -1,-5 -1,-9zm138 95c1,8 2,14 5,19 2,6 6,11 10,16 7,7 15,9 24,5 11,-5 19,-12 25,-22 2,-2 3,-5 4,-7 1,-2 3,-5 4,-8 7,-9 15,-12 25,-7 4,2 8,5 10,9 2,4 2,9 1,14 -6,17 -15,31 -27,43 -13,12 -29,19 -48,21 -16,2 -30,-3 -41,-14 -7,-7 -13,-14 -18,-21 -4,-6 -8,-15 -11,-24 -4,-14 -8,-29 -10,-43 -2,-14 -1,-29 2,-44 8,-35 29,-56 65,-63 5,-1 10,-2 15,-1 5,1 10,2 14,4 16,5 28,15 36,30 9,16 13,31 11,47 -2,21 -13,34 -34,40 -5,1 -10,2 -15,2 -5,0 -10,1 -15,1 -5,1 -9,1 -13,1 -4,0 -9,0 -13,0 -1,1 -2,1 -3,1 -1,0 -2,1 -3,1zm-6 -41c9,-1 18,-1 26,-2 8,0 17,0 26,-1 7,-1 10,-5 9,-12 0,-3 -1,-6 -2,-8 0,-3 -1,-5 -3,-8 -8,-14 -19,-17 -34,-11 -9,4 -15,10 -18,17 -3,7 -4,16 -4,25zm210 122c0,10 0,20 -1,28 0,9 0,18 1,27 0,7 0,15 1,23 1,8 1,16 0,23 0,4 -1,7 -2,10 -1,4 -2,7 -5,9 -5,6 -11,8 -18,7 -8,-1 -13,-5 -17,-12 -1,-2 -2,-5 -2,-8 0,-2 -1,-5 -2,-7 -1,-46 -2,-91 -4,-136 -2,-44 0,-89 4,-135 0,-5 1,-9 1,-11 2,-10 6,-16 10,-20 4,-4 11,-7 20,-8 35,-5 65,4 91,28 10,9 17,19 21,30 5,11 7,24 7,37 0,9 0,18 -2,28 -1,10 -3,19 -5,28 -5,21 -16,35 -31,44 -16,9 -30,14 -44,15 -4,0 -8,0 -12,0 -3,0 -7,0 -11,0zm-4 -45c7,-1 12,-1 17,-1 4,0 9,0 13,-1 5,-1 10,-3 14,-6 5,-2 8,-6 10,-12 5,-11 8,-22 9,-34 2,-11 0,-23 -4,-34 -3,-11 -10,-20 -20,-25 -10,-6 -22,-7 -35,-5 -1,19 -1,39 -2,58 -1,19 -1,39 -2,60zm264 -81c4,2 7,4 10,5 3,1 6,3 8,4 15,8 25,20 28,35 4,15 1,29 -10,43 -10,13 -22,22 -36,27 -14,5 -30,8 -46,10 -5,0 -9,-1 -14,-1 -5,0 -9,-1 -14,-1 -14,-2 -24,-5 -30,-11 -5,-6 -8,-16 -8,-29 0,-25 0,-50 0,-75 0,-25 0,-50 -1,-75 0,-18 9,-27 27,-27 13,0 26,1 39,3 15,2 28,7 39,16 11,9 18,20 20,33 2,8 1,16 -1,22 -2,7 -5,14 -11,21zm-70 80c17,4 33,3 48,-2 8,-3 15,-8 21,-14 9,-8 8,-14 -3,-20 -20,-10 -41,-13 -64,-8 0,7 0,15 0,22 -1,8 -1,15 -2,22zm0 -90c1,1 3,2 4,3 5,-3 10,-6 15,-8 5,-3 10,-5 15,-9 8,-6 8,-13 0,-21 -10,-7 -21,-10 -33,-6 -1,7 -1,14 -1,20 0,7 0,14 0,21zm206 -4c8,0 13,0 16,1 24,1 43,9 55,22 12,13 16,30 11,50 -3,15 -12,28 -25,41 -14,12 -29,20 -44,24 -16,3 -29,1 -39,-5 -9,-6 -15,-16 -16,-30 -1,-7 -1,-14 -1,-21 0,-6 0,-13 0,-21l-3 -112c0,-6 1,-11 3,-16 4,-9 11,-12 21,-11 11,0 17,4 19,13 2,3 2,6 2,8 0,3 0,5 1,9l0 48zm5 41c-2,9 -3,19 -2,31 0,12 1,21 4,26 13,-5 23,-13 28,-27 2,-4 3,-8 4,-12 0,-4 -1,-8 -5,-12 -7,-6 -17,-8 -29,-6zm132 63c0,3 0,6 0,9 0,3 -1,5 -2,8 -4,9 -11,14 -22,14 -11,0 -18,-6 -21,-16 -1,-2 -1,-4 -1,-7 0,-2 0,-4 0,-6 0,-24 0,-49 0,-73 0,-24 0,-48 -1,-72 0,-4 0,-7 0,-10 0,-4 1,-7 1,-10 1,-15 9,-22 24,-22 14,0 22,8 22,23 0,7 0,18 0,34 0,15 1,32 1,48 0,17 0,33 0,48 0,15 -1,25 -1,32zm158 -56c4,-12 7,-23 10,-34 3,-11 6,-21 10,-32 4,-12 10,-25 17,-37 4,-7 11,-13 20,-18 7,-4 14,-5 22,-2 7,3 13,8 16,16 5,9 7,18 7,26 1,25 2,49 3,73 1,24 2,48 3,72 0,7 -2,13 -6,18 -4,4 -9,7 -15,8 -6,0 -12,-3 -16,-7 -4,-4 -6,-10 -6,-17 -1,-17 -2,-33 -2,-49 0,-16 -1,-33 -2,-49 0,-3 -2,-6 -4,-9 -1,3 -2,5 -2,7 -1,3 -2,5 -2,7 -4,12 -8,25 -12,37 -3,12 -7,24 -11,36 -2,7 -5,13 -10,18 -4,5 -10,8 -18,8 -8,-1 -14,-4 -18,-9 -4,-5 -8,-10 -11,-17 -4,-9 -7,-18 -11,-26 -3,-8 -7,-17 -10,-26 -2,-3 -3,-5 -4,-8 -1,-2 -3,-5 -5,-7l-3 50c-1,8 -2,14 -3,21 0,7 0,14 -1,21 -2,16 -10,24 -24,23 -14,-2 -21,-11 -19,-28 2,-19 3,-38 4,-57 2,-18 3,-37 5,-56 1,-8 2,-17 3,-25 2,-8 3,-16 4,-24 1,-4 2,-7 3,-10 1,-3 3,-6 4,-9 5,-8 12,-12 20,-13 9,-1 16,3 23,10 5,7 9,16 13,27 3,11 7,24 11,36 4,12 7,24 10,37 1,2 2,5 3,8 2,2 3,6 4,10zm494 -75l-27 0c-3,0 -6,0 -9,0 -2,0 -5,0 -9,-1 -5,-1 -9,-3 -12,-7 -4,-4 -5,-8 -5,-13 -2,-12 4,-20 15,-23 2,-1 3,-1 3,-1 0,0 1,0 2,-1 16,-1 31,-3 46,-4 15,-1 30,-2 45,-3 4,0 7,0 9,0 3,0 6,0 9,1 6,1 11,3 15,7 3,5 5,9 5,15 0,11 -6,18 -18,22 -3,1 -7,1 -10,1 -4,0 -8,1 -12,1 0,14 -1,27 -1,39 0,13 -1,25 -1,38 0,11 -1,22 -1,32 0,11 0,21 0,32 0,5 0,9 -1,11 -2,14 -9,21 -22,21 -6,0 -11,-2 -16,-6 -4,-4 -6,-10 -6,-17 0,-16 0,-32 0,-48 1,-15 1,-31 1,-47 1,-8 1,-16 0,-24 0,-8 0,-16 0,-25zm180 167c0,10 0,20 0,28 -1,9 0,18 0,27 0,7 1,15 1,23 1,8 1,16 0,23 0,4 0,7 -1,10 -1,4 -3,7 -6,9 -4,6 -10,8 -18,7 -8,-1 -13,-5 -16,-12 -2,-2 -2,-5 -3,-8 0,-2 -1,-5 -1,-7 -2,-46 -3,-91 -5,-136 -1,-44 0,-89 5,-135 0,-5 0,-9 1,-11 2,-10 5,-16 9,-20 4,-4 11,-7 20,-8 35,-5 66,4 91,28 10,9 17,19 22,30 4,11 6,24 6,37 1,9 0,18 -1,28 -2,10 -4,19 -6,28 -5,21 -15,35 -31,44 -15,9 -30,14 -44,15 -4,0 -8,0 -11,0 -4,0 -8,0 -12,0zm-4 -45c7,-1 12,-1 17,-1 5,0 9,0 13,-1 5,-1 10,-3 15,-6 4,-2 8,-6 10,-12 4,-11 7,-22 9,-34 1,-11 0,-23 -4,-34 -4,-11 -10,-20 -21,-25 -10,-6 -22,-7 -35,-5 0,19 -1,39 -2,58 0,19 -1,39 -2,60zm202 -49c6,-12 12,-22 18,-33 5,-11 11,-21 18,-33 4,-6 8,-13 13,-18 4,-6 9,-12 14,-17 4,-5 8,-8 13,-10 5,-2 10,-2 15,1 12,4 18,12 18,26l0 26c0,20 -1,40 -1,60 0,19 0,39 -1,59 0,2 0,4 0,6 0,3 0,5 -1,8 -1,6 -4,12 -10,15 -5,4 -11,5 -17,4 -12,-2 -18,-10 -18,-24l0 -40c0,-6 0,-12 -1,-18 0,-6 -1,-13 -3,-20 -2,3 -3,6 -5,9 -1,2 -3,5 -5,9 -5,9 -11,18 -16,28 -6,9 -12,19 -18,28 -5,7 -11,13 -18,17 -9,5 -18,6 -26,2 -9,-3 -14,-11 -16,-21 -2,-15 -3,-29 -2,-41 1,-21 1,-41 2,-61 1,-21 1,-41 2,-62 0,-3 1,-5 1,-8 0,-2 0,-4 1,-6 3,-13 11,-18 24,-17 5,1 9,3 13,6 4,3 6,8 6,13 1,7 1,15 1,22 0,8 -1,15 -2,22 0,12 0,23 0,33 0,11 -1,22 -2,34 1,0 2,0 2,0 0,0 1,1 1,1z"/>
   <path class="fil1" d="M2976 2294c10,4 17,9 20,13 3,5 4,13 3,22 -1,9 -6,15 -14,19 -8,4 -15,2 -23,-5 -1,-2 -3,-3 -4,-4 -2,-1 -4,-1 -6,-1 -13,0 -27,0 -41,0 -14,0 -28,1 -42,2 -5,0 -9,0 -11,1 -4,0 -7,2 -9,8 -6,11 -13,15 -23,13 -11,-2 -16,-9 -17,-21 -1,-12 0,-20 3,-24 4,-5 11,-9 23,-12 2,-1 4,-2 6,-2 2,0 5,-1 8,-2 0,-13 1,-26 2,-38 0,-12 1,-25 1,-38 1,-5 2,-11 2,-16 0,-5 1,-10 1,-16 4,-25 15,-45 34,-59 17,-12 34,-15 51,-9 18,6 29,19 33,39 1,7 2,14 3,20 0,7 0,14 0,21 0,13 0,27 0,40 0,14 0,27 -1,41 0,4 0,6 1,8zm-41 2c0,-1 0,-2 0,-3 0,-1 1,-2 1,-3 0,-16 0,-32 0,-48 0,-16 1,-32 1,-48 0,-3 0,-7 0,-11 0,-4 -1,-7 -2,-11 -4,-10 -10,-13 -19,-7 -13,7 -20,17 -21,31 -1,15 -2,29 -3,43 -1,14 -2,28 -3,42 0,3 0,6 0,8 0,3 0,6 1,9 7,-1 15,-1 22,-1 8,0 15,0 23,-1zm155 4c10,3 20,3 29,2 9,-2 18,-3 28,-4 2,-25 3,-49 3,-73 0,-24 1,-48 2,-72 0,-6 1,-10 1,-12 2,-5 5,-10 9,-13 4,-3 9,-5 14,-5 13,0 21,7 22,21 1,11 1,23 0,37 -1,13 -1,27 -2,41 -1,14 -1,27 -2,40 -1,14 -1,26 0,36 3,1 4,2 4,2 13,1 21,5 25,11 5,7 6,16 5,29 -1,12 -7,18 -18,20 -11,4 -19,0 -24,-9 -1,-2 -2,-3 -3,-4 -1,-1 -2,-3 -4,-5 -10,0 -20,1 -30,1 -11,0 -22,1 -32,3 -17,1 -31,-1 -45,-5 -10,-4 -17,-9 -21,-15 -4,-5 -7,-13 -7,-24l0 -69c0,-14 0,-28 0,-42 0,-14 0,-28 1,-42 0,-8 1,-14 4,-19 2,-5 5,-8 9,-10 4,-2 9,-3 13,-2 6,1 10,4 14,7 4,3 6,8 6,13 0,25 0,50 -2,74 -1,24 -1,48 0,71 0,4 0,6 1,9 0,2 0,5 0,8zm311 -43c-6,7 -11,13 -15,18 -5,6 -9,11 -15,16 -4,4 -8,8 -12,12 -5,4 -10,8 -15,11 -15,9 -30,11 -44,4 -15,-6 -23,-18 -27,-36 -4,-25 -4,-48 2,-70 6,-23 18,-42 38,-59 17,-15 36,-24 59,-25 18,-1 34,5 48,17 3,3 7,6 10,9 4,3 7,7 11,11 2,3 3,6 5,10 2,4 3,8 3,12 0,8 0,15 0,22 0,6 0,14 0,21 0,11 0,22 0,34 0,12 1,23 1,34 0,3 0,7 0,11 0,4 1,8 1,12 -2,14 -10,21 -24,20 -13,0 -20,-7 -21,-20 -1,-8 -2,-16 -2,-23 -1,-8 -1,-16 -2,-24 0,-2 0,-4 0,-7 0,-2 0,-6 -1,-10zm-82 15c17,-11 31,-24 42,-40 11,-16 22,-32 32,-48 -7,-10 -16,-14 -26,-10 -10,4 -19,8 -25,14 -13,11 -21,24 -23,39 -2,14 -2,30 0,45zm241 -96l-27 0c-3,0 -6,0 -9,0 -3,0 -6,0 -9,-1 -5,-1 -9,-3 -13,-7 -3,-4 -5,-8 -5,-13 -1,-12 4,-20 16,-23 1,-1 2,-1 3,-1 0,0 1,0 2,-1 15,-1 30,-3 46,-4 15,-1 30,-2 45,-3 3,0 6,0 9,0 3,0 6,0 9,1 6,1 11,3 14,7 4,5 6,9 6,15 0,11 -6,18 -18,22 -3,1 -7,1 -11,1 -3,0 -7,1 -11,1 -1,14 -1,27 -1,39 -1,13 -1,25 -1,38 -1,11 -1,22 -1,32 0,11 0,21 0,32 0,5 0,9 -1,11 -2,14 -9,21 -23,21 -6,0 -11,-2 -15,-6 -4,-4 -6,-10 -6,-17 0,-16 0,-32 0,-48 0,-15 1,-31 1,-47 0,-8 0,-16 0,-24 0,-8 0,-16 0,-25zm180 73c6,-12 12,-22 17,-33 6,-11 12,-21 19,-33 3,-6 8,-13 12,-18 5,-6 10,-12 14,-17 4,-5 9,-8 14,-10 5,-2 10,-2 15,1 12,4 18,12 18,26l0 26c-1,20 -1,40 -1,60 0,19 -1,39 -1,59 0,2 0,4 0,6 0,3 -1,5 -1,8 -2,6 -5,12 -10,15 -5,4 -11,5 -17,4 -12,-2 -19,-10 -19,-24l0 -40c0,-6 0,-12 0,-18 -1,-6 -2,-13 -4,-20 -1,3 -3,6 -4,9 -2,2 -4,5 -6,9 -5,9 -10,18 -16,28 -6,9 -11,19 -17,28 -6,7 -11,13 -18,17 -9,5 -18,6 -27,2 -8,-3 -14,-11 -16,-21 -2,-15 -2,-29 -2,-41 1,-21 2,-41 2,-61 1,-21 2,-41 2,-62 1,-3 1,-5 1,-8 0,-2 1,-4 1,-6 4,-13 12,-18 24,-17 5,1 10,3 14,6 4,3 6,8 6,13 1,7 1,15 0,22 0,8 0,15 -1,22 0,12 0,23 -1,33 0,11 0,22 -1,34 1,0 1,0 1,0 1,0 1,1 2,1zm-2378 411c1,-14 1,-29 0,-44 -1,-14 -1,-29 0,-44 1,-13 9,-19 24,-19 14,0 21,6 21,19 1,12 1,24 1,36 0,12 0,24 0,36l0 100c0,5 0,9 -1,11 -2,11 -9,16 -21,16 -13,0 -20,-5 -23,-16 -1,-3 -1,-8 -1,-14l0 -39 -16 0c-41,1 -67,-15 -77,-48 -4,-13 -6,-26 -7,-40 -1,-14 -1,-27 0,-41 0,-5 2,-9 6,-13 5,-4 10,-5 15,-5 14,-2 22,4 24,17 1,6 1,12 1,18 0,6 0,12 0,18 1,6 2,12 2,17 1,6 2,11 3,17 3,10 7,17 13,20 5,3 14,3 27,1 1,0 2,-1 3,-1 1,0 3,0 6,-2zm144 20c6,-11 11,-22 17,-32 6,-11 12,-22 18,-33 4,-7 8,-13 13,-19 5,-6 9,-11 14,-17 4,-4 8,-8 13,-10 5,-2 10,-1 16,1 12,4 17,13 17,26l0 27c0,20 -1,39 -1,59 0,20 0,40 -1,60 0,2 0,4 0,6 0,2 0,5 -1,7 -1,7 -4,12 -9,16 -6,3 -11,5 -17,3 -13,-1 -19,-9 -19,-24l0 -39c0,-6 0,-12 -1,-18 0,-7 -1,-13 -3,-21 -1,4 -3,7 -4,9 -2,3 -4,6 -6,9 -5,9 -11,19 -16,28 -6,10 -12,19 -18,28 -5,8 -11,13 -17,17 -10,6 -18,6 -27,3 -9,-4 -14,-11 -16,-21 -2,-16 -2,-29 -2,-41 1,-21 1,-42 2,-62 1,-20 1,-41 2,-62 1,-2 1,-5 1,-7 0,-2 0,-5 1,-7 3,-12 11,-18 24,-16 5,0 10,2 14,6 4,3 6,7 6,12 0,8 0,15 0,23 0,7 -1,15 -1,22 0,11 -1,22 -1,33 0,11 -1,22 -1,33 0,0 1,0 1,1 0,0 1,0 2,0zm216 -72l-27 0c-3,-1 -6,-1 -9,-1 -3,1 -6,1 -9,0 -5,-1 -10,-4 -13,-7 -3,-4 -5,-8 -5,-14 -1,-12 4,-19 16,-23 1,0 2,-1 3,-1 0,0 1,0 2,-1 15,-1 30,-2 46,-3 15,-1 30,-2 45,-3 3,0 6,0 9,0 3,0 6,0 9,1 6,0 11,3 14,7 4,4 6,9 6,14 0,12 -6,19 -18,22 -4,1 -7,2 -11,2 -3,0 -7,0 -11,1 -1,13 -1,26 -1,39 -1,12 -1,25 -1,37 -1,11 -1,22 -1,33 0,10 0,21 0,32 0,5 0,8 -1,10 -2,14 -9,21 -23,21 -6,0 -11,-2 -15,-6 -4,-4 -6,-9 -6,-17 0,-15 0,-31 0,-47 0,-16 1,-32 1,-48 0,-7 0,-15 0,-23 0,-8 0,-16 0,-25zm261 80c-6,7 -11,14 -15,19 -5,5 -9,10 -15,16 -4,4 -8,8 -13,12 -4,4 -9,7 -14,10 -16,10 -30,11 -44,5 -15,-6 -23,-18 -27,-36 -4,-25 -4,-49 2,-71 5,-22 18,-42 38,-59 16,-15 36,-23 59,-24 18,-1 34,4 48,16 3,4 7,7 10,10 4,3 7,6 11,10 2,3 3,7 5,11 2,4 2,8 2,12 1,7 1,14 1,21 0,7 -1,14 -1,21 0,12 1,23 1,35 0,11 0,22 0,34 0,3 1,7 1,11 0,4 0,7 0,11 -2,15 -9,22 -23,20 -13,0 -20,-6 -21,-20 -1,-7 -2,-15 -3,-23 0,-7 0,-15 -1,-23 0,-2 0,-4 0,-7 0,-3 0,-6 -1,-11zm-82 16c17,-11 31,-25 42,-41 11,-15 22,-31 32,-47 -7,-11 -16,-14 -26,-10 -10,3 -19,8 -25,14 -14,11 -21,24 -23,38 -2,15 -2,30 0,46zm241 -96l-27 0c-3,-1 -6,-1 -9,-1 -3,1 -6,1 -9,0 -5,-1 -10,-4 -13,-7 -3,-4 -5,-8 -5,-14 -1,-12 4,-19 16,-23 1,0 2,-1 2,-1 1,0 2,0 3,-1 15,-1 30,-2 45,-3 16,-1 31,-2 46,-3 3,0 6,0 9,0 3,0 5,0 9,1 6,0 10,3 14,7 4,4 6,9 6,14 0,12 -6,19 -18,22 -4,1 -7,2 -11,2 -3,0 -7,0 -11,1 -1,13 -1,26 -1,39 -1,12 -1,25 -1,37 -1,11 -1,22 -1,33 0,10 0,21 0,32 0,5 0,8 -1,10 -2,14 -10,21 -23,21 -6,0 -11,-2 -15,-6 -4,-4 -6,-9 -6,-17 0,-15 0,-31 0,-47 0,-16 1,-32 1,-48 0,-7 0,-15 0,-23 0,-8 0,-16 0,-25zm178 86c1,7 2,14 5,19 2,5 6,10 10,16 7,7 15,9 24,5 11,-5 19,-12 25,-22 1,-3 3,-5 4,-8 1,-2 3,-4 4,-7 7,-10 15,-13 25,-8 4,3 8,6 10,10 2,4 2,9 1,14 -6,16 -15,31 -28,43 -12,12 -28,19 -48,20 -15,2 -29,-2 -40,-14 -7,-6 -13,-13 -18,-20 -4,-7 -8,-15 -11,-24 -4,-15 -8,-29 -10,-43 -2,-14 -1,-29 2,-44 8,-35 29,-56 65,-64 5,-1 10,-1 15,0 5,1 10,2 14,3 15,6 28,16 36,31 9,15 13,31 11,47 -2,21 -13,34 -34,39 -5,1 -10,2 -15,3 -5,0 -10,0 -15,1 -5,1 -9,1 -13,1 -4,0 -9,0 -13,0 -2,1 -3,1 -3,1 -1,0 -2,0 -3,1zm-6 -41c9,-1 18,-2 26,-2 8,0 17,-1 26,-1 7,-1 10,-5 9,-12 0,-4 -1,-6 -2,-9 0,-2 -1,-5 -3,-7 -8,-14 -19,-18 -34,-11 -9,4 -15,10 -18,17 -3,7 -4,15 -4,25zm287 -50l-40 0 0 21c0,12 0,23 0,35 0,11 0,23 -1,34 -2,9 -4,18 -6,26 -3,9 -6,17 -9,26 -2,3 -4,7 -8,11 -3,4 -7,7 -10,10 -5,4 -10,6 -15,6 -6,1 -12,0 -17,-2 -5,-2 -10,-5 -14,-9 -4,-4 -6,-8 -8,-14 -2,-7 -1,-15 3,-21 4,-6 11,-10 19,-10 2,0 4,0 6,0 1,1 3,1 6,1 3,-9 6,-19 7,-28 1,-10 2,-20 2,-30 0,-8 0,-17 0,-25 0,-9 0,-17 -1,-26 0,-3 0,-6 0,-8 0,-3 0,-6 1,-9 1,-18 10,-29 27,-30 12,-2 24,-3 36,-3 12,0 24,0 36,1 8,0 14,2 20,7 5,6 8,12 10,20 2,13 2,26 2,37 -2,21 -3,42 -4,62 -2,21 -3,41 -4,62 0,4 -1,7 -1,9 -2,12 -10,18 -22,19 -5,0 -10,-1 -14,-5 -4,-3 -7,-7 -8,-13 -2,-6 -2,-13 -1,-22 1,-19 3,-37 4,-55 1,-18 3,-36 4,-54 1,-3 1,-7 1,-11 -1,-3 -1,-7 -1,-12zm183 93c-5,-1 -9,-1 -12,2 -3,2 -5,5 -7,8 -6,9 -11,19 -15,29 -4,10 -10,19 -16,27 -9,12 -19,14 -31,9 -12,-6 -15,-16 -9,-29 4,-10 9,-18 14,-27 5,-8 9,-17 14,-26 -3,-3 -7,-6 -10,-9 -3,-2 -6,-5 -9,-9 -8,-12 -12,-25 -11,-40 1,-15 6,-27 16,-38 13,-13 26,-23 41,-30 15,-7 32,-9 52,-5 13,2 22,6 26,12 5,6 7,15 9,28 0,16 0,30 0,44 1,13 1,25 0,37 0,12 -1,24 -1,35 -1,12 -2,24 -4,36 -2,16 -10,23 -25,21 -6,0 -11,-3 -15,-7 -4,-4 -6,-9 -6,-16 0,-7 -1,-14 -1,-21 0,-8 0,-15 0,-22l0 -9zm6 -95c-10,-1 -21,1 -31,7 -10,6 -17,13 -20,20 -2,5 -2,10 1,16 2,5 7,8 14,9 5,0 12,0 20,-2 8,-2 13,-6 13,-12 1,-6 1,-12 2,-19 0,-6 1,-12 1,-19zm198 81c4,-12 7,-23 10,-33 3,-11 6,-22 10,-32 4,-13 10,-25 17,-38 5,-6 11,-12 20,-18 7,-3 14,-4 22,-1 8,2 13,7 16,15 5,10 7,18 7,27 2,24 3,49 3,73 1,24 2,48 3,71 0,8 -2,14 -6,18 -4,5 -9,8 -15,8 -6,0 -11,-2 -15,-6 -4,-5 -7,-10 -7,-18 -1,-16 -1,-32 -2,-49 0,-16 -1,-32 -2,-48 0,-4 -2,-7 -4,-9 -1,2 -2,5 -2,7 -1,2 -2,4 -2,6 -4,13 -8,25 -12,38 -3,12 -7,24 -11,36 -2,7 -5,13 -9,18 -5,5 -11,7 -19,7 -8,0 -14,-3 -18,-8 -4,-5 -8,-11 -11,-17 -4,-10 -7,-18 -11,-27 -3,-8 -7,-17 -10,-26 -1,-2 -3,-5 -4,-7 -1,-2 -2,-5 -5,-8l-3 51c-1,7 -2,14 -2,21 -1,6 -1,13 -2,20 -2,17 -10,24 -24,23 -14,-1 -20,-10 -18,-28 1,-19 2,-37 3,-56 2,-18 3,-37 5,-56 1,-9 2,-17 3,-26 2,-8 3,-16 4,-24 1,-3 2,-6 3,-9 2,-3 3,-6 4,-10 6,-7 12,-12 21,-12 8,-1 15,2 22,9 5,8 9,17 13,27 4,12 7,24 11,36 4,12 7,25 10,37 1,3 2,6 3,8 2,3 3,6 4,10zm233 76c0,5 -2,9 -6,13 -2,6 -4,12 -6,18 -3,6 -5,12 -8,18 -1,4 -3,7 -5,9 -2,2 -5,3 -8,5 -2,1 -4,2 -5,4 -10,1 -18,0 -23,-3 -5,-3 -6,-7 -5,-12 1,-4 2,-7 4,-10 1,-3 2,-7 4,-10 1,-3 2,-6 3,-8 1,-3 2,-6 2,-9 -6,-4 -8,-9 -8,-15 0,-6 3,-11 8,-15 6,-4 13,-6 21,-6 6,-1 12,0 17,2 5,2 9,5 11,8 3,2 4,5 4,9l0 2z"/>
   <path class="fil1" d="M1274 3038c1,-9 2,-17 2,-25 0,-7 0,-15 0,-23l0 -13c4,-12 11,-18 22,-18 5,1 10,3 13,6 4,3 6,7 7,12 1,9 1,17 1,26 0,9 0,17 1,26 0,19 0,38 0,58 1,20 1,39 2,58 0,14 -7,22 -20,23 -5,1 -10,0 -15,-4 -5,-5 -8,-10 -9,-17 0,-6 -1,-12 -1,-18 0,-6 0,-13 0,-19 0,-5 -1,-9 -1,-14 0,-5 0,-10 0,-15 -9,1 -17,1 -25,2 -8,0 -17,0 -25,1 0,11 0,21 -1,31 0,10 0,20 -1,29 0,4 0,7 -1,9 0,3 -1,5 -2,7 -2,6 -5,9 -10,11 -5,2 -10,2 -15,1 -10,-2 -15,-9 -15,-21 0,-8 0,-17 0,-25 0,-8 0,-17 0,-25l0 -115c0,-6 1,-10 1,-14 2,-5 4,-9 9,-12 4,-3 9,-4 14,-4 11,2 18,8 19,20 1,7 1,13 1,20 0,6 0,12 0,19l0 24c5,0 9,0 13,0 4,0 8,1 13,1 3,0 7,-1 11,-1 3,0 8,-1 12,-1zm221 52c-6,7 -11,14 -15,19 -4,5 -9,10 -14,16 -4,4 -9,8 -13,12 -5,3 -10,7 -15,10 -15,10 -30,11 -44,5 -14,-6 -23,-18 -26,-36 -5,-25 -5,-49 1,-71 6,-22 18,-42 38,-59 17,-15 36,-23 60,-25 17,0 33,5 47,17 3,4 7,7 10,10 4,3 8,6 11,10 2,3 4,7 5,11 2,4 3,8 3,12 0,7 1,14 0,21 0,7 0,14 0,21 0,12 0,23 0,34 1,12 1,23 1,35 0,3 0,6 0,10 1,4 1,8 1,12 -2,15 -10,21 -24,20 -13,0 -20,-6 -21,-20 -1,-8 -2,-15 -2,-23 -1,-8 -1,-15 -2,-23 0,-2 0,-4 0,-7 0,-3 0,-6 -1,-11zm-82 16c17,-11 31,-25 42,-41 11,-16 22,-31 32,-47 -7,-11 -16,-14 -25,-10 -11,3 -20,8 -26,14 -13,11 -21,24 -23,38 -2,15 -2,30 0,46zm281 -105c-9,-1 -18,-1 -26,-1 -8,0 -17,1 -26,4l-3 50c-1,16 -1,31 -1,45 0,15 0,30 -1,45 0,2 0,5 0,7 0,2 -1,4 -2,6 -3,13 -11,19 -23,18 -12,-2 -19,-9 -19,-23 0,-7 0,-14 0,-22 0,-8 1,-16 1,-23 1,-14 1,-28 1,-42 0,-14 1,-27 1,-41l3 -27c2,-16 11,-28 26,-34 5,-1 9,-2 14,-4 5,-1 10,-2 16,-2 7,-1 15,-1 23,-1 7,0 15,0 22,0 20,0 32,10 36,30 2,10 3,21 3,32 -1,21 -1,42 -2,62 -1,21 -1,41 -2,62l0 7c-2,15 -10,22 -23,22 -12,-1 -19,-9 -21,-23 0,-7 1,-14 1,-21 0,-8 0,-15 0,-22 1,-15 2,-29 2,-44 0,-14 1,-29 1,-43 0,-3 0,-5 0,-8 -1,-3 -1,-6 -1,-9zm140 81c6,-11 12,-22 17,-33 6,-10 12,-21 19,-32 4,-7 8,-13 13,-19 4,-6 9,-12 13,-17 4,-4 9,-8 14,-10 5,-2 10,-1 15,1 12,4 18,13 18,26l0 27c-1,20 -1,39 -1,59 0,20 0,40 -1,59 0,2 0,5 0,7 0,2 0,5 -1,7 -1,7 -5,12 -10,16 -5,3 -11,4 -17,3 -12,-1 -19,-9 -19,-24l0 -39c0,-6 0,-12 0,-19 0,-6 -2,-13 -4,-20 -1,3 -2,6 -4,9 -2,3 -3,6 -5,9 -6,9 -11,19 -17,28 -5,10 -11,19 -17,28 -5,8 -11,13 -18,17 -9,5 -18,6 -27,3 -8,-4 -13,-11 -15,-22 -2,-15 -3,-28 -2,-40 0,-21 1,-42 2,-62 0,-20 1,-41 2,-62 0,-2 1,-5 1,-7 0,-3 0,-5 1,-7 3,-12 11,-18 23,-16 6,0 10,2 14,5 4,4 6,8 6,13 1,8 1,15 1,23 -1,7 -1,15 -2,22 0,11 0,22 0,33 -1,11 -1,22 -2,33 1,0 1,0 2,1 0,0 0,0 1,0zm154 -9c0,-20 4,-39 12,-56 7,-17 19,-32 35,-45 13,-9 26,-14 41,-14 14,0 27,6 39,16 8,6 15,15 22,26 4,7 5,13 4,19 -1,6 -5,10 -10,14 -5,3 -11,4 -17,2 -6,-2 -12,-5 -16,-10 -1,-2 -2,-4 -3,-7 -2,-2 -3,-4 -5,-5 -8,-10 -18,-11 -28,-3 -12,9 -20,21 -24,36 -4,15 -4,32 0,49 1,7 4,13 9,18 5,5 11,8 18,10 16,4 29,0 40,-12 2,-3 4,-5 6,-8 1,-3 3,-6 5,-9 10,-11 19,-14 30,-7 11,6 14,16 10,30 -5,15 -16,28 -32,38 -16,10 -32,15 -48,15 -19,-1 -36,-6 -50,-15 -14,-10 -24,-23 -29,-40 -3,-8 -5,-14 -6,-21 -1,-7 -2,-14 -3,-21zm344 17c-6,7 -11,14 -15,19 -4,5 -9,10 -14,16 -4,4 -9,8 -13,12 -5,3 -10,7 -15,10 -15,10 -30,11 -44,5 -14,-6 -23,-18 -26,-36 -5,-25 -5,-49 1,-71 6,-22 18,-42 38,-59 17,-15 36,-23 60,-25 17,0 33,5 47,17 3,4 7,7 10,10 4,3 7,6 11,10 2,3 4,7 5,11 2,4 3,8 3,12 0,7 1,14 0,21 0,7 0,14 0,21 0,12 0,23 0,34 1,12 1,23 1,35 0,3 0,6 0,10 0,4 1,8 1,12 -2,15 -10,21 -24,20 -13,0 -20,-6 -21,-20 -1,-8 -2,-15 -2,-23 -1,-8 -1,-15 -2,-23 0,-2 0,-4 0,-7 0,-3 0,-6 -1,-11zm-82 16c17,-11 31,-25 42,-41 11,-16 22,-31 32,-47 -7,-11 -16,-14 -25,-10 -11,3 -20,8 -26,14 -13,11 -21,24 -23,38 -2,15 -2,30 0,46zm290 -56c4,2 7,4 10,5 3,2 5,3 8,4 15,9 25,21 28,35 4,15 0,30 -10,44 -10,13 -22,22 -36,27 -14,5 -30,8 -46,9 -5,0 -10,0 -14,0 -5,-1 -9,-1 -14,-2 -14,-1 -24,-5 -30,-11 -6,-6 -9,-15 -9,-28 0,-26 1,-51 1,-76 0,-25 0,-50 -2,-75 0,-18 10,-27 28,-27 13,0 26,1 39,3 15,2 28,8 39,17 11,9 17,20 20,33 1,8 1,15 -1,22 -2,6 -6,13 -11,20zm-70 81c17,4 33,3 47,-2 9,-4 16,-8 22,-14 9,-8 8,-15 -3,-20 -20,-11 -42,-14 -64,-9 0,8 0,16 -1,23 0,7 0,14 -1,22zm0 -90c1,0 3,1 4,3 5,-4 10,-7 15,-9 5,-2 10,-5 15,-8 8,-7 8,-14 0,-21 -10,-8 -21,-10 -33,-7 -1,7 -1,14 -1,21 0,6 0,13 0,21zm253 92c0,-9 1,-18 1,-26 0,-9 0,-17 -1,-26 0,-14 -1,-29 -1,-42 0,-14 -1,-28 -1,-43 0,-3 -1,-6 -1,-8 0,-3 0,-5 1,-8 0,-6 2,-11 6,-15 4,-4 9,-6 15,-7 14,0 22,7 24,21 1,8 1,16 1,24 0,9 0,17 1,26 1,15 1,30 1,45 0,15 0,30 1,45 0,4 1,9 2,16 3,1 5,2 6,2 10,0 16,-1 20,-3 3,-2 5,-8 7,-17 3,-21 4,-41 3,-60 -2,-20 -3,-40 -5,-60 -2,-13 3,-21 16,-25 8,-1 14,0 20,3 5,4 8,9 9,15 3,22 5,43 6,65 1,21 0,43 -3,64 -1,4 -2,8 -3,12 -1,4 -3,7 -4,11 -10,26 -29,37 -58,36 -14,-1 -28,-1 -42,-2 -14,-1 -27,-2 -40,-3 -35,-3 -56,-19 -63,-50 -2,-10 -3,-19 -4,-28 -1,-8 -2,-18 -3,-27 -1,-13 -2,-26 -2,-38 0,-13 -1,-26 -2,-39 0,-2 0,-4 0,-6 0,-3 1,-5 1,-8 2,-5 5,-9 9,-12 5,-3 10,-4 15,-4 5,0 10,2 15,6 4,3 6,8 6,13 0,20 1,40 2,62 2,21 4,41 6,60 1,14 4,22 8,26 5,3 15,5 31,5zm227 -51c6,-11 12,-22 18,-33 5,-10 11,-21 18,-32 4,-7 8,-13 13,-19 4,-6 9,-12 14,-17 4,-4 8,-8 13,-10 5,-2 10,-1 15,1 12,4 18,13 18,26l0 27c-1,20 -1,39 -1,59 0,20 0,40 -1,59 0,2 0,5 0,7 0,2 0,5 -1,7 -1,7 -4,12 -10,16 -5,3 -11,4 -17,3 -12,-1 -18,-9 -18,-24l0 -39c0,-6 -1,-12 -1,-19 0,-6 -1,-13 -3,-20 -2,3 -3,6 -5,9 -1,3 -3,6 -5,9 -5,9 -11,19 -17,28 -5,10 -11,19 -17,28 -5,8 -11,13 -18,17 -9,5 -18,6 -26,3 -9,-4 -14,-11 -16,-22 -2,-15 -3,-28 -2,-40 0,-21 1,-42 2,-62 0,-20 1,-41 2,-62 0,-2 1,-5 1,-7 0,-3 0,-5 1,-7 3,-12 11,-18 23,-16 6,0 10,2 14,5 4,4 6,8 6,13 1,8 1,15 1,23 -1,7 -1,15 -2,22 0,11 0,22 0,33 -1,11 -1,22 -2,33 1,0 1,0 2,1 0,0 1,0 1,0zm261 2c3,-12 6,-23 9,-34 3,-10 7,-21 11,-31 3,-13 9,-25 16,-38 5,-6 12,-12 20,-18 7,-4 15,-4 22,-2 8,3 13,8 17,16 4,9 7,18 7,27 1,24 2,49 3,73 0,24 1,48 3,71 0,8 -2,14 -6,18 -4,5 -9,7 -15,8 -7,0 -12,-2 -16,-6 -4,-5 -6,-10 -7,-18 -1,-16 -1,-32 -1,-49 -1,-16 -2,-32 -3,-49 0,-3 -1,-6 -4,-8 -1,2 -1,5 -2,7 -1,2 -1,4 -2,6 -4,13 -8,25 -11,37 -4,13 -8,25 -12,37 -2,7 -5,13 -9,18 -4,5 -10,7 -18,7 -8,0 -14,-3 -19,-8 -4,-5 -8,-11 -11,-17 -3,-10 -7,-18 -10,-27 -4,-8 -7,-17 -11,-26 -1,-2 -2,-5 -3,-7 -1,-3 -3,-5 -6,-8l-3 51c-1,7 -2,14 -2,21 0,6 -1,13 -2,20 -2,17 -9,24 -23,23 -15,-1 -21,-10 -19,-28 1,-19 3,-38 4,-56 1,-18 3,-37 5,-56 0,-9 1,-17 3,-26 1,-8 2,-16 4,-24 0,-3 1,-6 3,-9 1,-3 2,-6 4,-10 5,-8 12,-12 20,-13 8,0 16,3 22,10 5,8 10,17 13,27 4,12 8,24 11,36 4,12 7,25 11,37 0,3 1,6 3,8 1,3 2,6 4,10zm-2209 355c1,-8 2,-16 2,-24 0,-7 0,-15 0,-23l0 -13c4,-12 11,-18 22,-18 5,1 10,3 13,6 4,3 6,7 7,12 1,9 1,17 1,26 0,8 0,17 1,26 0,19 0,38 0,58 1,20 1,39 2,58 0,14 -7,22 -20,23 -5,1 -10,0 -15,-4 -5,-5 -8,-10 -9,-17 0,-6 -1,-12 -1,-18 0,-6 0,-13 0,-19 0,-5 -1,-10 -1,-14 0,-5 0,-10 0,-15 -9,1 -17,1 -25,1 -8,1 -17,1 -25,2 0,11 0,21 -1,31 0,10 0,19 -1,29 0,4 0,7 -1,9 0,3 -1,5 -2,7 -2,5 -5,9 -10,11 -5,2 -9,2 -15,1 -10,-2 -15,-9 -15,-21 0,-8 0,-17 0,-25 0,-8 0,-17 0,-25l0 -115c0,-6 1,-11 1,-14 2,-5 5,-9 9,-12 4,-3 9,-4 14,-4 11,2 18,8 19,20 1,7 1,13 1,19 0,7 0,13 0,20l0 23c5,0 9,1 13,1 4,0 8,0 13,0 3,0 7,0 11,0 3,0 8,-1 12,-2zm221 53c-6,7 -11,13 -15,19 -4,5 -9,10 -14,16 -4,4 -9,7 -13,11 -5,4 -10,8 -15,11 -15,10 -30,11 -44,5 -14,-7 -23,-19 -26,-36 -5,-25 -4,-49 1,-71 6,-22 18,-42 38,-59 17,-15 36,-23 60,-25 17,0 33,5 47,17 3,3 7,7 10,10 4,3 8,6 11,10 2,3 4,7 5,11 2,4 3,8 3,12 0,7 1,14 0,21 0,7 0,14 0,21 0,11 0,23 0,34 1,12 1,23 1,34 0,4 0,7 0,11 1,4 1,8 1,12 -2,15 -10,21 -24,20 -13,0 -19,-7 -21,-20 -1,-8 -2,-15 -2,-23 -1,-8 -1,-15 -2,-23 0,-2 0,-5 0,-7 0,-3 0,-6 -1,-11zm-82 16c17,-11 31,-25 42,-41 11,-16 22,-31 32,-47 -7,-11 -15,-14 -25,-10 -11,3 -20,8 -26,14 -13,11 -21,24 -23,38 -2,15 -2,30 0,46zm285 -22c4,-12 7,-23 10,-34 3,-10 6,-21 10,-31 4,-13 10,-25 17,-38 5,-6 11,-12 20,-18 7,-4 14,-4 22,-2 8,3 13,8 16,16 5,9 7,18 7,27 2,24 3,48 3,73 1,24 2,48 3,71 0,8 -2,13 -6,18 -4,5 -9,7 -15,8 -6,0 -12,-2 -15,-6 -4,-5 -7,-10 -7,-18 -1,-16 -2,-33 -2,-49 0,-16 -1,-32 -2,-49 0,-3 -2,-6 -4,-9 -1,3 -2,6 -2,8 -1,2 -2,4 -2,6 -4,13 -8,25 -12,37 -3,13 -7,25 -11,36 -2,8 -5,14 -9,19 -5,5 -11,7 -19,7 -8,0 -14,-3 -18,-8 -4,-5 -8,-11 -11,-18 -4,-9 -7,-17 -11,-26 -3,-8 -7,-17 -10,-26 -1,-3 -3,-5 -4,-7 -1,-3 -2,-5 -5,-8l-3 51c-1,7 -2,14 -3,20 0,7 0,14 -1,21 -2,17 -10,24 -24,23 -14,-1 -21,-11 -19,-28 2,-19 3,-38 4,-56 2,-19 3,-37 5,-57 1,-8 2,-16 3,-25 2,-8 3,-16 4,-24 1,-3 2,-6 3,-9 2,-3 3,-6 4,-10 6,-8 12,-12 21,-13 8,0 15,3 22,10 5,8 9,16 13,27 4,12 7,24 11,36 4,12 7,25 10,37 1,3 2,5 3,8 2,3 3,6 4,10z"/>
   <path class="fil1" d="M1954 3439c0,-8 1,-16 1,-24 0,-7 1,-15 1,-23l0 -13c3,-12 10,-18 21,-18 6,1 10,3 14,6 3,3 6,7 6,12 1,9 1,17 1,26 0,8 0,17 1,26 0,19 0,38 1,58 0,20 0,39 1,58 0,14 -6,22 -20,23 -5,1 -10,0 -15,-4 -5,-5 -8,-10 -8,-17 -1,-6 -1,-12 -1,-18 0,-6 0,-13 0,-19 -1,-5 -1,-10 -1,-14 0,-5 0,-10 0,-15 -10,1 -18,1 -26,2 -8,0 -16,0 -25,1 0,11 0,21 0,31 -1,10 -1,19 -2,29 0,4 0,7 0,9 -1,3 -1,5 -3,7 -2,5 -5,9 -10,11 -4,2 -9,2 -15,1 -9,-2 -14,-9 -14,-21 -1,-8 -1,-17 -1,-25 0,-8 1,-17 1,-25l0 -115c0,-6 0,-11 1,-14 1,-5 4,-9 8,-12 4,-3 9,-4 14,-4 12,2 18,8 19,20 1,7 1,13 1,19 0,7 0,13 0,20l0 23c5,0 9,1 13,1 4,0 8,0 13,0 3,0 7,0 11,0 4,0 8,-1 13,-2zm221 53c-6,7 -12,13 -16,19 -4,5 -9,10 -14,16 -4,4 -8,7 -13,11 -5,4 -10,8 -15,11 -15,10 -30,11 -44,5 -14,-7 -23,-19 -26,-36 -5,-25 -4,-49 1,-71 6,-22 19,-42 38,-59 17,-15 37,-23 60,-25 18,0 33,5 47,17 4,3 7,7 11,10 3,3 7,6 10,10 2,3 4,7 6,11 1,4 2,8 2,12 1,7 1,14 0,21 0,7 0,14 0,21 0,11 0,23 0,34 1,12 1,23 1,34 0,4 0,7 0,11 1,4 1,8 1,12 -2,15 -10,21 -24,20 -12,0 -19,-7 -21,-20 -1,-8 -2,-15 -2,-23 0,-8 -1,-15 -1,-23 0,-2 0,-5 0,-7 0,-3 -1,-6 -1,-11zm-83 16c18,-11 32,-25 42,-41 11,-16 22,-31 33,-47 -8,-11 -16,-14 -26,-10 -11,3 -19,8 -26,14 -13,11 -21,24 -23,38 -2,15 -2,30 0,46zm559 -105c-9,-1 -18,-1 -26,-1 -8,0 -17,1 -26,4l-3 50c-1,15 -1,30 -1,45 0,15 0,30 -1,45 0,2 0,4 0,7 0,2 -1,4 -2,6 -3,13 -11,19 -23,18 -12,-2 -19,-10 -19,-23 0,-7 0,-15 0,-23 0,-7 1,-15 1,-22 1,-14 1,-28 1,-42 0,-14 1,-28 1,-41l3 -27c2,-17 11,-28 26,-34 5,-1 10,-2 14,-4 5,-1 11,-2 16,-2 7,-1 15,-1 23,-1 7,0 15,0 22,0 20,0 32,10 36,30 2,10 3,20 3,32 -1,21 -1,42 -2,62 -1,20 -1,41 -2,62l0 7c-2,15 -10,22 -23,22 -12,-1 -19,-9 -21,-23 0,-7 1,-14 1,-21 0,-8 0,-15 0,-22 1,-15 2,-29 2,-44 0,-14 1,-29 1,-43 0,-3 0,-6 0,-8 0,-3 -1,-6 -1,-9zm97 107c-4,-17 -5,-32 -5,-47 0,-15 4,-30 10,-44 9,-27 28,-44 54,-52 8,-2 16,-3 25,-1 27,8 44,25 51,52 5,22 7,44 6,66 -1,21 -7,42 -18,63 -5,11 -12,19 -21,25 -8,5 -17,8 -27,9 -9,1 -19,-1 -28,-5 -10,-4 -18,-11 -26,-20 -6,-7 -10,-15 -13,-23 -4,-8 -6,-16 -8,-23zm94 -75c-1,-2 -1,-3 -1,-5 0,-2 -1,-3 -2,-5 -7,-14 -16,-17 -28,-10 -8,6 -14,13 -17,21 -6,15 -8,29 -7,44 2,14 6,28 13,42 1,2 3,5 6,9 3,3 7,5 12,5 5,0 9,-2 13,-7 2,-4 3,-7 5,-10 10,-27 12,-55 6,-84zm193 29c1,-14 1,-29 0,-44 -2,-15 -2,-29 0,-44 1,-13 9,-20 24,-20 14,0 21,7 21,20 1,12 1,24 1,36 0,12 0,24 0,35l0 100c0,6 0,10 -1,12 -2,11 -9,16 -21,16 -13,0 -21,-5 -23,-16 -1,-3 -1,-8 -1,-15l0 -38 -16 0c-41,0 -67,-15 -77,-48 -4,-13 -6,-26 -7,-40 -1,-14 -1,-28 0,-41 0,-5 2,-10 6,-13 5,-4 9,-6 15,-6 14,-1 22,5 23,18 2,6 2,12 2,18 0,6 0,12 0,18 1,6 2,11 2,17 1,6 2,11 3,16 3,11 7,18 13,21 5,3 14,3 27,1 1,0 2,-1 3,-1 1,0 3,0 6,-2zm156 -52l-26 0c-4,-1 -7,-1 -9,-1 -3,1 -6,0 -9,0 -5,-2 -10,-4 -13,-8 -3,-3 -5,-8 -5,-13 -1,-12 4,-19 16,-23 1,0 2,-1 2,-1 1,0 1,0 3,-1 15,-1 30,-2 45,-3 15,-1 31,-2 46,-4 3,0 6,0 9,0 2,0 5,1 9,1 6,1 10,3 14,8 4,4 5,9 5,14 0,11 -6,19 -17,22 -4,1 -7,2 -11,2 -3,0 -7,0 -11,1 -1,13 -1,26 -2,38 0,13 0,25 0,38 -1,11 -1,22 -1,33 0,10 0,21 0,31 0,6 0,9 -1,11 -2,14 -10,21 -23,21 -6,0 -11,-2 -15,-6 -5,-4 -7,-10 -7,-17 0,-16 1,-31 1,-47 0,-16 0,-32 0,-48 1,-8 1,-16 1,-23 -1,-8 -1,-17 -1,-25zm200 161c-7,-8 -14,-15 -21,-22 -7,-7 -13,-14 -18,-21 -12,-16 -20,-33 -24,-52 -4,-18 -6,-37 -6,-56 0,-6 1,-10 3,-14 3,-5 6,-9 11,-12 5,-2 10,-2 15,-1 12,2 18,10 17,23 -1,20 2,40 9,60 3,9 7,18 12,25 5,8 12,15 20,22 2,-3 3,-5 4,-7 1,-2 2,-5 2,-7 5,-15 10,-31 15,-47 4,-16 9,-31 14,-47 2,-7 5,-11 8,-14 6,-7 13,-9 23,-6 3,1 7,4 10,7 3,3 4,7 4,13 1,5 0,11 -2,18 -9,31 -19,61 -29,91 -10,30 -22,60 -35,90 -7,15 -14,29 -23,41 -9,13 -18,25 -28,38 -10,12 -21,13 -32,5 -5,-4 -8,-8 -9,-14 -1,-6 0,-12 3,-18 3,-5 7,-9 10,-13 3,-4 7,-8 10,-13 9,-10 16,-22 22,-34 5,-12 10,-24 15,-35zm154 -214c0,-15 0,-30 0,-46 0,-15 0,-30 1,-46 0,-2 0,-5 0,-8 0,-2 0,-5 1,-8 1,-6 4,-10 8,-13 5,-4 9,-5 15,-4 12,0 19,6 21,19 0,3 1,6 1,9 0,3 0,6 0,9l-3 178c0,6 0,10 0,15 0,4 1,9 1,14 0,7 -1,14 -5,19 -4,6 -10,9 -17,10 -7,0 -13,-2 -18,-6 -5,-5 -7,-11 -7,-20 0,-20 0,-41 1,-61 0,-20 0,-40 0,-61l1 0zm17 211c-7,-1 -12,-3 -16,-8 -4,-4 -6,-10 -5,-16 0,-6 2,-11 7,-15 5,-3 10,-5 16,-5 6,0 11,2 15,6 4,5 7,10 7,16 -1,7 -4,12 -8,17 -4,4 -10,6 -16,5z"/>
  </g>
 </g>
</svg>
