<?xml version="1.0" encoding="UTF-8"?>
<!DOCTYPE svg PUBLIC "-//W3C//DTD SVG 1.1//EN" "http://www.w3.org/Graphics/SVG/1.1/DTD/svg11.dtd">
<!-- Creator: CorelDRAW X6 -->
<svg xmlns="http://www.w3.org/2000/svg" xml:space="preserve" width="45mm" height="45mm" version="1.1" style="shape-rendering:geometricPrecision; text-rendering:geometricPrecision; image-rendering:optimizeQuality; fill-rule:evenodd; clip-rule:evenodd"
viewBox="0 0 4500 4500"
 xmlns:xlink="http://www.w3.org/1999/xlink">
 <defs>
  <style type="text/css">
   <![CDATA[
    .str0 {stroke:black;stroke-width:75}
    .fil2 {fill:black}
    .fil0 {fill:#E94F42}
    .fil1 {fill:#FEFEFE;fill-rule:nonzero}
   ]]>
  </style>
 </defs>
 <g id="Слой_x0020_1">
  <metadata id="CorelCorpID_0Corel-Layer"/>
  <g id="_525284968">
   <path class="fil0 str0" d="M4200 4161c0,0 -141,119 -670,119 -530,0 -2141,0 -2324,0 -182,0 -534,111 -701,-22 -166,-132 -283,-98 -283,-712 0,-613 0,-1936 0,-2185 0,-249 -144,-838 71,-1001 214,-163 678,-184 1287,-184 608,0 1349,164 1740,116 392,-48 751,-125 842,-30 90,95 163,506 163,1369 0,862 0,1804 0,2019 0,214 -125,511 -125,511z"/>
   <g>
    <g>
     <path class="fil1" d="M651 767c-19,-29 -43,-49 -75,-53 -26,-4 -50,-5 -76,-8 0,-38 0,-89 0,-131 38,0 56,0 76,0 9,1 20,1 30,1 35,-1 57,-13 57,-28 -2,-15 -26,-29 -58,-30 -99,-4 -110,-4 -121,-4 -28,0 -44,17 -42,46 1,27 1,64 1,92 0,70 0,141 0,213 0,7 -1,15 -3,21 -6,26 4,43 28,46 36,5 71,3 105,-11 29,-11 52,-27 70,-53 22,-31 26,-72 8,-101zm-57 71c-24,29 -56,37 -96,37 0,-36 0,-68 0,-103 32,-9 60,-8 86,7 25,13 29,37 10,59zm274 -107c0,10 1,19 0,27 -4,45 -7,88 -10,133 -1,10 -1,19 1,28 3,13 15,22 27,22 13,-2 24,-10 27,-23 1,-4 1,-8 1,-11 3,-51 7,-102 9,-152 2,-15 0,-31 -2,-45 -4,-19 -17,-34 -36,-34 -29,-1 -59,-1 -88,3 -22,2 -32,17 -33,37 -1,7 -1,13 -1,21 1,20 1,42 1,62 0,24 -2,47 -11,70 -6,0 -9,-1 -14,-1 -21,1 -33,19 -27,39 7,26 42,40 65,23 9,-8 18,-17 22,-27 9,-20 16,-41 18,-63 4,-27 1,-55 3,-84 0,-7 0,-16 0,-25 17,0 30,0 48,0zm158 47c0,-25 -1,-47 -1,-70 0,-19 -11,-33 -27,-33 -15,-1 -29,11 -30,30 0,6 0,11 0,17 1,59 4,118 5,179 1,5 1,11 2,17 5,12 16,19 29,18 12,0 23,-10 26,-22 1,-5 0,-10 0,-16 -1,-20 -1,-42 -1,-65 15,3 29,5 39,6 9,22 16,42 26,59 23,43 76,51 111,20 12,-12 23,-28 29,-43 14,-32 15,-67 9,-101 -2,-21 -7,-42 -16,-59 -27,-47 -67,-57 -112,-27 -22,16 -36,38 -44,64 -3,10 -4,20 -6,29 -14,-1 -23,-2 -39,-3zm164 37c-2,12 -5,27 -8,41 -3,7 -7,13 -13,19 -8,9 -21,8 -26,-2 -20,-37 -29,-76 -13,-117 2,-7 8,-15 16,-21 13,-12 26,-9 33,8 10,21 11,45 11,72zm303 66c-1,-3 -1,-7 -1,-9 1,-34 1,-67 1,-99 0,-17 0,-34 -3,-51 -11,-48 -63,-65 -103,-36 -24,18 -37,42 -41,72 -1,14 -2,27 -3,39 -2,31 -4,62 -5,93 -6,2 -12,2 -17,5 -27,8 -34,17 -32,43 2,16 9,24 21,27 12,2 20,-3 28,-17 2,-6 6,-10 12,-10 3,-1 8,-1 13,-1 34,-1 68,-2 101,-2 5,0 10,3 13,6 8,8 18,10 27,6 10,-4 16,-12 17,-23 3,-22 -3,-33 -28,-43zm-50 3c-18,1 -36,1 -55,2 -1,-8 -1,-14 -1,-20 3,-35 5,-69 7,-104 2,-17 11,-30 26,-39 11,-6 19,-2 23,10 2,8 2,18 2,27 0,38 -1,78 -1,117 0,2 -1,4 -1,7zm282 -50c2,11 2,17 2,22 1,19 2,38 4,57 2,16 12,24 26,24 15,1 26,-8 29,-24 0,-10 -2,-19 -2,-28 0,-28 -1,-55 -1,-83 0,-17 1,-35 0,-52 0,-10 -5,-21 -9,-28 -8,-10 -17,-16 -26,-24 -17,-15 -35,-22 -58,-21 -27,2 -52,11 -72,31 -48,42 -59,97 -48,158 7,43 49,61 85,38 14,-8 24,-18 34,-27 12,-12 22,-26 36,-43zm-100 20c-5,-39 -4,-75 28,-103 8,-7 20,-13 31,-17 12,-5 23,0 32,12 -26,39 -50,81 -91,108zm613 -84c-10,2 -20,3 -28,3 -11,0 -21,-1 -32,-1 0,-11 0,-20 0,-29 0,-16 0,-32 -1,-47 -1,-14 -11,-23 -23,-25 -12,-1 -24,8 -28,20 -1,6 -1,11 -1,17 0,47 0,93 0,140 0,20 -1,41 0,61 0,13 7,23 18,26 12,3 25,-2 30,-15 4,-5 4,-12 4,-19 1,-24 2,-49 2,-74 21,-1 40,-2 62,-3 0,13 0,24 1,35 0,15 0,31 1,45 2,16 16,28 29,26 15,-1 24,-12 24,-28 -1,-47 -2,-95 -2,-142 -1,-21 -1,-43 -2,-63 -2,-14 -12,-21 -25,-22 -12,0 -22,8 -26,22 0,5 0,11 0,15 0,20 -1,38 -3,58zm261 64c2,11 2,17 2,22 1,19 2,38 4,57 2,16 12,24 26,24 15,1 26,-8 29,-24 0,-10 -1,-19 -1,-28 0,-28 -2,-55 -2,-83 0,-17 2,-35 0,-52 0,-10 -5,-21 -9,-28 -8,-10 -17,-16 -26,-24 -17,-15 -35,-22 -58,-21 -27,2 -52,11 -72,31 -48,42 -59,97 -48,158 7,43 49,61 85,38 14,-8 24,-18 34,-27 12,-12 22,-26 36,-43zm-100 20c-5,-39 -3,-75 28,-103 8,-7 20,-13 31,-17 12,-5 23,0 32,12 -26,39 -50,81 -91,108zm633 -68c12,-17 18,-33 14,-52 -6,-31 -35,-55 -72,-60 -16,-3 -31,-4 -47,-4 -22,0 -34,12 -34,33 2,61 1,122 1,183 0,33 13,46 47,49 11,1 23,2 34,2 40,-2 76,-13 100,-45 26,-33 16,-75 -21,-95 -6,-4 -14,-6 -22,-11zm-86 98c1,-18 3,-35 3,-54 27,-6 53,-3 78,10 12,6 14,15 4,25 -8,7 -17,13 -27,16 -17,6 -36,8 -58,3zm0 -110c0,-17 0,-33 1,-51 15,-3 28,-1 40,9 11,8 11,17 0,25 -11,7 -24,13 -36,21 -1,-2 -2,-3 -5,-4zm243 -5c0,-20 0,-40 0,-59 -1,-7 -1,-13 -4,-21 -2,-9 -12,-15 -23,-15 -12,-1 -21,3 -26,13 -3,6 -4,13 -4,19 1,46 3,92 4,138 0,17 0,34 1,51 4,34 29,49 68,42 37,-7 77,-43 84,-78 11,-50 -22,-85 -81,-89 -5,-1 -11,-1 -19,-1zm6 50c13,-3 25,-2 35,7 10,10 6,20 1,30 -6,15 -17,27 -34,33 -6,-12 -7,-47 -2,-70zm160 77c3,-31 2,-163 0,-198 0,-17 -10,-28 -26,-28 -16,0 -28,11 -29,27 -1,7 -1,15 -1,24 1,59 1,118 1,177 0,5 0,11 1,16 3,11 13,19 26,19 12,0 22,-6 26,-17 2,-6 2,-13 2,-20zm172 -126c-11,2 -21,3 -29,3 -11,0 -21,-1 -31,-1 0,-11 0,-20 0,-29 0,-16 0,-32 -2,-47 -1,-14 -10,-23 -23,-25 -12,-1 -24,8 -27,20 -1,6 -1,11 -1,17 0,47 0,93 0,140 0,20 -2,41 0,61 0,13 7,23 18,26 12,3 25,-2 30,-15 3,-5 3,-12 3,-19 2,-24 3,-49 3,-74 20,-1 40,-2 61,-3 0,13 0,24 2,35 0,15 0,31 1,45 1,16 16,28 29,26 14,-1 24,-12 24,-28 -1,-47 -2,-95 -2,-142 -2,-21 -2,-43 -3,-63 -1,-14 -12,-21 -24,-22 -12,0 -23,8 -27,22 0,5 0,11 0,15 0,20 -1,38 -2,58zm109 86c5,18 12,39 26,57 35,45 98,40 125,-11 25,-51 27,-104 14,-158 -8,-33 -30,-55 -63,-63 -9,-2 -20,-2 -30,1 -31,10 -54,32 -66,63 -15,35 -15,71 -6,111zm114 -92c8,37 5,70 -7,103 -1,4 -3,8 -6,12 -8,12 -22,12 -30,2 -4,-3 -6,-6 -7,-10 -17,-34 -22,-69 -8,-105 4,-10 13,-20 21,-26 14,-8 27,-3 34,12 2,5 2,10 3,12zm106 50c3,17 4,34 10,51 12,41 51,66 97,67 40,0 84,-29 98,-65 5,-16 1,-29 -12,-36 -12,-7 -27,-4 -37,8 -4,7 -8,15 -13,21 -13,14 -31,19 -49,14 -18,-3 -29,-17 -33,-34 -5,-20 -5,-41 0,-60 5,-18 15,-33 29,-43 12,-10 24,-9 34,3 5,4 7,10 11,15 9,13 26,18 40,9 13,-8 16,-24 7,-39 -7,-13 -16,-23 -27,-32 -29,-25 -67,-25 -98,-2 -39,31 -56,73 -57,123zm-3367 506c4,17 5,34 11,51 12,41 51,66 97,67 40,0 84,-29 98,-65 4,-16 1,-29 -12,-36 -13,-8 -27,-4 -37,8 -5,7 -8,15 -13,21 -13,14 -31,19 -49,14 -19,-3 -29,-17 -33,-34 -5,-20 -5,-41 0,-60 5,-18 14,-33 29,-43 12,-10 24,-9 34,3 5,4 7,10 11,15 9,13 26,18 39,9 14,-8 17,-24 8,-40 -8,-12 -16,-22 -27,-31 -29,-25 -68,-25 -98,-2 -40,31 -56,73 -58,123zm260 42c5,18 12,39 27,57 35,44 97,40 124,-11 25,-51 28,-104 14,-158 -8,-33 -30,-55 -62,-63 -10,-2 -21,-2 -31,1 -31,10 -54,32 -66,63 -14,35 -14,71 -6,111zm115 -92c7,37 5,70 -8,103 -1,4 -3,8 -6,12 -8,12 -21,12 -30,2 -3,-3 -6,-6 -7,-10 -17,-34 -22,-69 -7,-105 3,-10 12,-20 20,-26 15,-8 27,-3 34,12 2,5 2,10 4,12zm452 50c4,17 5,34 11,51 12,41 51,66 97,67 40,0 84,-29 98,-65 5,-16 1,-29 -12,-36 -12,-8 -27,-4 -37,8 -4,7 -8,15 -13,21 -13,14 -31,19 -49,14 -18,-3 -29,-17 -33,-34 -5,-20 -5,-41 0,-60 5,-18 15,-33 29,-43 12,-10 24,-9 34,3 5,4 7,10 11,15 9,13 26,18 40,9 13,-8 16,-24 7,-40 -7,-12 -16,-22 -27,-31 -29,-25 -67,-25 -98,-2 -39,31 -56,73 -58,123zm334 14c3,10 7,17 9,24 8,23 15,45 22,67 7,18 21,24 36,20 16,-4 23,-18 17,-36 -13,-37 -26,-73 -41,-111 -3,-8 -2,-14 4,-22 11,-13 20,-27 30,-42 5,-6 7,-12 10,-18 5,-13 0,-25 -12,-31 -12,-8 -26,-5 -35,6 -3,2 -4,6 -6,8 -16,22 -33,45 -49,66 -2,3 -6,5 -12,11 0,-13 0,-23 0,-32 0,-15 1,-29 -1,-42 -1,-15 -13,-23 -27,-23 -13,0 -25,9 -27,23 -2,4 0,10 0,15 -2,46 -2,91 -2,135 0,22 0,45 3,67 2,17 16,26 31,24 15,-1 24,-12 24,-29 0,-11 -1,-22 -2,-33 -2,-21 10,-33 28,-47zm195 -3c-1,0 -2,-2 -3,-2 1,-26 2,-53 2,-80 1,-19 3,-37 1,-55 0,-13 -10,-21 -24,-23 -13,-1 -25,6 -29,21 -1,5 -1,11 -2,17 -1,50 -4,100 -5,151 -1,15 0,32 2,49 5,26 29,36 52,23 9,-5 16,-12 22,-20 15,-23 28,-46 41,-69 5,-7 9,-15 12,-22 5,17 5,33 5,47 0,17 0,33 0,48 0,17 9,28 23,29 15,3 29,-7 33,-23 1,-6 1,-12 1,-16 1,-49 1,-97 2,-145 0,-11 0,-22 0,-33 0,-14 -7,-26 -21,-31 -14,-6 -26,0 -36,11 -10,13 -22,27 -32,43 -16,27 -29,53 -44,80zm381 56c-1,-3 -1,-7 -1,-9 1,-34 1,-67 1,-99 0,-17 0,-34 -4,-51 -11,-48 -63,-65 -102,-36 -25,18 -38,42 -41,72 -2,14 -3,27 -4,39 -1,31 -4,61 -5,93 -6,2 -12,2 -17,5 -26,8 -34,17 -31,43 1,16 8,24 20,27 12,2 21,-3 28,-17 2,-6 6,-10 12,-10 4,-1 9,-1 13,-1 34,-1 68,-2 102,-2 5,0 9,3 12,6 8,8 18,10 28,6 9,-4 15,-12 17,-23 2,-22 -4,-33 -28,-43zm-51 3c-18,1 -36,1 -54,2 -1,-8 -1,-14 -1,-20 2,-35 4,-69 7,-104 1,-17 11,-30 25,-39 11,-6 19,-2 23,10 3,8 3,18 3,26 0,39 -2,79 -2,118 0,2 -1,4 -1,7zm204 -56c4,10 7,17 10,24 7,23 14,45 22,67 7,18 20,24 36,20 16,-4 23,-18 17,-36 -14,-37 -27,-73 -41,-111 -4,-8 -3,-14 3,-22 11,-13 21,-27 30,-42 5,-6 8,-12 10,-18 5,-13 0,-25 -12,-31 -12,-8 -25,-5 -35,6 -2,2 -4,6 -6,8 -16,22 -33,45 -48,67 -3,2 -6,4 -12,10 0,-13 0,-23 0,-32 0,-15 1,-29 -2,-42 -1,-15 -13,-23 -26,-23 -13,0 -25,9 -28,23 -1,4 0,10 0,15 -1,46 -1,91 -1,135 0,22 0,45 2,67 3,17 16,26 32,24 14,-1 24,-12 24,-29 0,-11 -1,-22 -3,-33 -2,-21 10,-33 28,-47zm143 28c5,18 12,39 26,57 35,44 98,40 125,-11 25,-51 27,-104 14,-158 -8,-33 -30,-55 -63,-63 -9,-2 -20,-2 -30,1 -31,10 -54,32 -66,63 -15,35 -15,71 -6,111zm114 -92c8,37 5,70 -7,103 -1,4 -3,8 -6,12 -8,12 -22,12 -30,2 -4,-3 -6,-6 -7,-10 -17,-34 -22,-69 -7,-105 3,-10 12,-20 20,-26 15,-8 27,-3 34,12 2,5 2,10 3,12zm218 -164c-13,1 -18,-5 -23,-13 -6,-10 -18,-13 -28,-10 -8,5 -14,15 -13,26 1,4 3,10 6,14 13,23 34,30 59,29 24,-1 40,-17 47,-45 5,-13 0,-24 -11,-29 -12,-6 -24,-1 -30,12 -4,5 -5,11 -7,16zm-52 225c-1,0 -2,-2 -4,-2 2,-26 3,-53 3,-80 1,-19 2,-37 1,-55 0,-13 -11,-21 -24,-23 -13,-1 -26,6 -29,21 -1,5 -1,11 -3,17 -1,50 -3,100 -4,151 -2,15 0,32 2,49 5,26 29,36 52,23 8,-5 16,-12 22,-20 14,-23 27,-46 41,-69 5,-7 8,-15 12,-22 5,17 5,33 5,47 0,17 0,33 0,48 0,17 8,28 23,29 14,3 28,-7 32,-23 1,-6 1,-12 1,-16 2,-49 2,-97 3,-145 0,-11 0,-22 0,-33 0,-14 -8,-26 -22,-31 -13,-6 -25,0 -35,11 -11,13 -23,27 -33,43 -15,27 -29,53 -43,80zm590 -138c-1,11 -1,25 -2,34 0,58 -1,116 -1,175 0,19 13,30 30,29 17,-1 29,-17 28,-35 -2,-7 -3,-15 -3,-22 0,-49 1,-99 3,-148 1,-34 2,-69 2,-104 0,-18 -8,-29 -22,-33 -13,-3 -25,1 -33,12 -21,26 -41,52 -61,79 -9,12 -7,26 4,36 11,10 25,10 37,-1 5,-4 14,-17 18,-22zm169 -69c13,0 22,0 33,0 12,0 24,0 36,-2 15,-4 22,-16 21,-29 -1,-12 -11,-23 -26,-23 -22,-1 -47,-2 -71,0 -30,2 -44,17 -48,47 -1,14 -1,30 -1,45 -1,24 -3,48 -3,72 0,23 12,36 31,34 7,-1 13,-6 19,-10 11,-9 23,-17 38,-18 10,-1 17,3 20,12 1,5 3,10 3,15 0,30 -4,60 -18,88 -6,12 -14,22 -29,26 -12,-9 -13,-21 -13,-35 0,-12 -7,-20 -18,-25 -11,-4 -21,0 -28,7 -10,8 -12,17 -12,29 2,21 11,40 24,57 18,25 45,30 73,17 19,-9 33,-21 44,-38 31,-44 38,-95 31,-148 -7,-37 -34,-68 -86,-59 -6,0 -12,1 -20,1 0,-20 0,-41 0,-63z"/>
     <path class="fil1" d="M3967 1080c-1,-14 -5,-23 -15,-28 -10,-5 -20,-5 -28,2 -6,5 -10,12 -12,18 -24,45 -47,91 -72,136 -30,59 -62,118 -94,177 -12,23 -8,41 9,48 17,9 30,0 42,-23 14,-30 30,-59 46,-89 38,-74 77,-146 116,-220 5,-7 6,-15 8,-21zm-253 71c1,51 37,77 79,60 21,-8 38,-22 50,-41 16,-25 13,-57 -6,-80 -5,-6 -11,-10 -17,-15 -21,-18 -41,-20 -63,-4 -29,21 -41,50 -43,80zm54 7c5,-13 7,-22 11,-34 7,4 12,6 17,9 2,7 -6,17 -28,25zm158 251c34,1 70,-29 77,-64 4,-20 -1,-38 -15,-54 -27,-29 -85,-34 -107,1 -9,17 -16,34 -18,53 0,38 26,64 63,64zm-6 -58c1,-7 3,-14 6,-22 3,-6 13,-6 18,-1 6,5 4,11 -1,15 -5,5 -12,8 -18,12 -1,-1 -4,-3 -5,-4zm-2473 542c-1,-3 -1,-7 -1,-9 1,-34 1,-67 1,-99 0,-17 0,-34 -4,-51 -11,-48 -62,-65 -102,-36 -24,18 -38,42 -41,72 -2,14 -3,27 -4,39 -1,31 -4,61 -5,93 -6,2 -12,2 -17,5 -26,8 -34,17 -31,43 1,16 8,24 20,27 12,2 21,-3 28,-17 3,-6 6,-10 12,-10 4,-1 9,-1 14,-1 33,-1 67,-2 101,-2 5,0 10,3 12,6 8,8 18,10 28,6 9,-4 15,-12 17,-23 2,-22 -4,-33 -28,-43zm-51 3c-18,1 -36,1 -54,2 -1,-8 -1,-14 -1,-20 2,-35 5,-69 7,-104 1,-17 11,-30 25,-39 11,-6 20,-2 23,10 3,8 3,18 3,26 0,39 -2,79 -2,118 0,2 -1,4 -1,7zm278 -153c0,10 1,19 0,27 -4,45 -7,88 -10,133 -1,10 -1,19 2,28 2,13 14,22 26,22 13,-2 24,-10 27,-23 1,-4 1,-8 1,-11 3,-51 7,-102 10,-152 1,-15 0,-31 -3,-45 -4,-19 -17,-34 -36,-34 -29,-1 -59,-1 -88,3 -22,2 -32,17 -33,37 -1,7 -1,13 -1,21 1,20 1,42 1,62 0,24 -2,47 -11,70 -6,0 -9,-1 -14,-1 -21,1 -33,19 -27,39 7,26 42,40 65,23 9,-8 19,-17 22,-27 9,-20 16,-41 18,-63 4,-27 1,-55 3,-84 0,-7 0,-16 0,-25 17,0 30,0 48,0zm215 113c0,4 0,7 0,11 0,17 0,35 1,54 0,16 11,27 26,28 15,1 27,-9 30,-26 8,-62 7,-108 6,-187 -4,-32 -11,-43 -43,-49 -48,-8 -83,12 -113,43 -24,26 -27,67 -6,96 6,7 14,14 23,22 -11,21 -24,42 -34,64 -7,15 -2,30 11,37 13,6 28,2 37,-11 16,-21 23,-48 38,-70 5,-8 11,-14 24,-12zm7 -116c-1,16 -2,31 -3,46 -2,16 -28,18 -41,17 -16,-1 -23,-17 -19,-30 8,-18 38,-35 63,-33zm573 73c-7,2 -9,2 -11,3 -31,5 -43,-1 -49,-26 -3,-14 -4,-27 -6,-41 -1,-15 0,-29 -2,-44 -1,-14 -13,-23 -29,-22 -13,0 -25,10 -25,23 -2,33 -2,67 8,99 13,41 42,59 94,58 6,0 12,0 20,0 0,17 0,33 0,48 0,6 0,12 1,18 3,14 13,20 27,20 15,0 25,-7 27,-20 1,-5 1,-9 1,-14 0,-42 0,-83 0,-123 0,-29 0,-58 -1,-87 0,-16 -11,-24 -27,-24 -15,0 -27,10 -28,24 -4,35 3,73 0,108zm164 41c2,-2 5,-2 7,-3 11,0 21,0 31,-1 13,-1 26,-2 38,-5 23,-6 38,-24 41,-48 5,-39 -21,-81 -57,-94 -11,-4 -24,-6 -36,-4 -42,9 -70,35 -79,77 -8,37 -1,72 10,107 6,21 18,38 35,54 13,13 30,19 50,17 47,-4 78,-38 91,-77 4,-13 -2,-23 -13,-29 -11,-5 -23,-2 -30,9 -4,6 -7,12 -10,18 -7,12 -17,21 -30,27 -12,5 -20,4 -30,-6 -10,-12 -17,-26 -18,-42zm-7 -51c0,-23 6,-41 26,-51 19,-8 33,-3 42,13 3,6 5,13 6,20 2,8 -2,13 -10,14 -22,1 -43,3 -64,4zm268 37c3,10 7,17 9,24 8,23 15,45 22,67 7,18 21,24 36,20 16,-4 23,-18 17,-36 -13,-37 -26,-73 -41,-111 -4,-8 -2,-14 4,-22 11,-13 20,-27 30,-42 5,-6 7,-12 10,-18 4,-13 0,-25 -12,-31 -13,-8 -26,-5 -36,6 -2,2 -3,6 -6,8 -15,22 -32,45 -48,66 -2,3 -6,5 -12,11 0,-13 0,-23 0,-32 0,-15 1,-29 -1,-42 -1,-15 -13,-23 -27,-23 -13,0 -25,9 -27,23 -2,4 0,10 0,15 -2,46 -2,91 -2,135 0,22 0,45 3,67 2,17 15,26 31,24 15,-1 24,-12 24,-29 0,-11 -1,-22 -2,-33 -3,-21 10,-33 28,-47zm294 6c2,11 2,17 2,22 1,19 2,38 4,57 2,16 12,24 26,24 15,1 26,-8 29,-24 0,-10 -2,-19 -2,-28 0,-28 -1,-55 -1,-83 0,-17 1,-35 0,-52 0,-10 -5,-21 -9,-28 -8,-10 -17,-16 -26,-24 -17,-15 -35,-22 -58,-21 -27,2 -52,11 -72,31 -48,42 -59,97 -48,158 7,43 49,61 85,38 14,-8 24,-18 34,-27 12,-12 22,-26 36,-43zm-100 20c-5,-39 -4,-75 28,-103 8,-7 20,-13 31,-17 12,-5 23,0 32,12 -26,39 -50,81 -91,108zm-2171 508c5,18 13,39 27,57 35,44 98,40 124,-11 26,-51 28,-104 15,-158 -9,-33 -30,-55 -63,-63 -10,-2 -20,-2 -30,1 -32,10 -54,32 -67,63 -14,35 -14,71 -6,111zm115 -92c7,37 5,70 -7,103 -1,4 -4,8 -6,12 -9,12 -22,12 -30,2 -4,-3 -6,-6 -8,-10 -16,-34 -21,-69 -7,-105 4,-10 12,-20 21,-26 14,-8 26,-3 34,12 2,5 2,10 3,12zm181 -27c0,20 2,39 0,59 0,38 -1,77 -1,116 0,16 12,27 27,27 14,0 25,-9 27,-25 2,-4 2,-8 2,-13 0,-26 0,-52 1,-79 0,-30 1,-61 2,-93 10,-1 20,-1 27,-3 13,-4 22,-15 22,-27 0,-13 -10,-25 -25,-26 -7,-2 -14,-2 -21,-2 -38,3 -74,6 -111,9 -3,1 -4,1 -6,2 -14,4 -21,15 -20,28 0,12 9,23 22,25 7,2 14,0 22,2 11,0 21,0 32,0zm565 -119c12,0 22,0 33,0 12,0 24,0 36,-2 15,-4 22,-16 21,-29 -1,-12 -11,-23 -26,-23 -23,-1 -47,-3 -71,0 -30,2 -45,17 -48,47 -1,14 -1,30 -1,45 -2,24 -3,48 -3,72 0,23 12,36 30,34 8,-1 14,-6 20,-10 11,-9 23,-17 38,-18 10,-1 17,3 20,12 1,5 3,10 3,15 0,30 -5,60 -18,88 -6,12 -14,22 -29,26 -12,-9 -13,-21 -13,-35 0,-12 -7,-20 -18,-25 -11,-4 -21,0 -28,7 -10,7 -12,17 -12,29 2,21 11,40 24,57 18,25 45,30 73,17 19,-9 33,-21 44,-38 30,-44 38,-95 30,-148 -6,-37 -33,-68 -85,-59 -6,0 -12,1 -20,1 0,-21 0,-41 0,-63zm153 126c2,19 3,37 6,57 1,12 4,24 8,36 6,23 17,44 33,63 32,36 78,37 111,2 13,-15 25,-31 32,-48 23,-46 32,-96 24,-146 -7,-51 -25,-96 -73,-122 -38,-21 -83,-17 -109,24 -6,11 -11,22 -15,34 -13,32 -16,66 -17,100zm161 -5c-3,42 -9,82 -37,117 -16,21 -29,19 -42,-5 -8,-14 -15,-30 -18,-46 -10,-41 -9,-82 0,-123 1,-8 4,-18 8,-26 10,-24 31,-31 52,-15 10,9 17,19 23,30 6,11 8,23 11,35 2,11 2,22 3,33zm101 5c2,19 3,37 6,57 1,12 5,24 8,36 6,23 17,44 33,63 32,36 78,37 111,2 13,-15 25,-31 32,-48 23,-46 32,-96 25,-146 -8,-51 -26,-96 -74,-122 -38,-21 -83,-17 -109,24 -6,11 -11,22 -15,34 -13,32 -16,66 -17,100zm161 -5c-3,42 -9,82 -37,117 -16,21 -29,19 -42,-5 -7,-14 -15,-30 -18,-46 -10,-41 -9,-82 0,-123 1,-8 4,-18 8,-26 10,-24 31,-31 52,-15 10,9 17,19 23,30 6,11 8,23 11,35 2,11 2,22 3,33zm510 200c10,0 18,2 28,0 34,-1 79,-21 91,-71 5,-22 10,-46 9,-69 0,-31 -10,-60 -34,-82 -31,-29 -69,-40 -111,-34 -23,3 -31,11 -36,34 -1,5 -1,10 -1,15 -11,110 -4,219 0,329 1,6 2,14 4,20 9,15 32,19 43,6 6,-6 8,-16 8,-23 1,-20 -1,-39 -1,-57 -1,-22 0,-42 0,-68zm-5 -54c1,-51 4,-98 5,-144 31,-6 59,10 68,37 9,27 4,55 -6,83 -5,13 -17,19 -31,22 -9,1 -20,1 -36,2zm262 48c-12,28 -24,59 -46,85 -8,11 -17,20 -24,31 -8,15 -5,30 7,39 13,10 28,7 39,-6 24,-30 47,-61 63,-97 32,-71 55,-146 78,-221 3,-7 4,-14 3,-21 0,-12 -9,-22 -18,-25 -11,-3 -21,-1 -28,8 -5,5 -7,11 -10,17 -12,38 -23,77 -35,114 -1,6 -5,11 -7,17 -21,-16 -33,-35 -40,-57 -8,-24 -12,-48 -11,-73 1,-15 -7,-26 -20,-28 -12,-2 -26,4 -32,16 -2,5 -3,11 -3,17 0,47 7,93 36,131 13,18 31,34 48,53zm228 -253c-2,-47 16,-87 55,-115 13,-10 29,-16 44,-22 19,-6 27,-17 25,-32 -4,-16 -16,-24 -35,-22 -9,1 -17,2 -23,6 -59,27 -104,69 -117,134 -6,31 -8,64 -8,95 2,57 6,113 9,168 1,37 26,53 61,41 14,-4 27,-12 39,-19 46,-27 68,-69 68,-121 0,-32 -12,-60 -39,-82 -23,-18 -50,-26 -79,-31zm-2 60c39,-1 64,23 64,57 -1,36 -19,61 -56,77 -6,-46 -6,-90 -8,-134zm204 208c15,0 27,-13 27,-28 0,-16 -14,-28 -29,-27 -15,0 -26,13 -26,27 0,15 12,28 28,28zm-2457 368c12,-17 18,-32 15,-52 -6,-31 -35,-55 -73,-60 -15,-3 -31,-4 -47,-4 -22,0 -34,12 -34,33 3,61 2,122 2,183 0,33 13,46 47,49 11,1 23,2 33,2 40,-2 77,-13 101,-45 25,-33 15,-74 -22,-95 -6,-4 -13,-6 -22,-11zm-86 98c2,-18 3,-35 3,-54 28,-6 53,-3 78,11 12,6 15,14 4,24 -7,7 -17,13 -27,17 -16,6 -36,7 -58,2zm0 -110c0,-17 0,-32 2,-51 14,-3 27,-1 40,9 10,8 10,17 0,25 -11,7 -25,13 -37,21 -1,-1 -2,-3 -5,-4zm504 -217c5,-1 10,-3 16,-3 21,-1 44,-2 66,-3 21,-1 34,-14 31,-32 -1,-17 -15,-26 -36,-25 -19,2 -37,2 -56,4 -17,1 -34,2 -50,3 -20,4 -29,14 -29,33 -2,53 -4,107 -5,162 -1,51 -2,131 -2,182 0,21 11,35 28,35 16,1 29,-15 29,-35 0,-42 1,-111 1,-152 0,-9 1,-16 1,-24 5,-2 10,-4 13,-4 14,0 28,0 41,0 16,0 28,-8 32,-22 2,-15 -6,-29 -22,-33 -10,-3 -19,-2 -29,-2 -11,-1 -22,0 -35,0 1,-21 1,-42 2,-62 2,-8 3,-15 4,-22zm208 183c35,-14 32,-14 79,-32 17,-6 27,-18 22,-33 -3,-14 -17,-20 -35,-17 -30,7 -38,15 -66,24 -3,-6 -4,-12 -5,-17 -4,-10 -15,-18 -25,-18 -13,2 -22,9 -25,20 -2,6 -1,12 -1,18 1,69 4,139 5,207 1,5 0,9 1,12 4,13 14,21 26,21 10,0 21,-6 25,-18 1,-5 2,-11 2,-17 0,-42 -1,-85 -2,-126 0,-7 -1,-14 -1,-24zm177 78c3,-2 5,-2 8,-3 10,0 20,0 31,-1 12,-1 25,-2 37,-5 23,-6 39,-24 41,-48 5,-39 -20,-81 -56,-94 -11,-4 -24,-6 -37,-4 -42,8 -70,35 -78,77 -8,37 -1,72 10,107 6,21 18,38 35,54 13,13 30,19 49,17 47,-4 79,-38 92,-78 4,-12 -3,-22 -13,-28 -11,-5 -23,-2 -31,9 -3,6 -7,12 -9,18 -7,12 -17,21 -30,27 -12,5 -21,3 -31,-6 -9,-12 -16,-26 -18,-42zm-7 -51c0,-23 6,-41 27,-51 19,-8 32,-3 42,13 2,6 5,13 6,20 1,8 -3,13 -11,14 -22,1 -42,3 -64,4zm343 43c1,11 1,17 1,22 1,19 3,37 5,57 1,15 12,24 25,24 16,1 27,-9 29,-24 0,-10 -1,-20 -1,-28 0,-28 -1,-56 -1,-83 0,-17 1,-35 0,-52 0,-10 -5,-21 -10,-28 -7,-10 -17,-16 -25,-24 -17,-15 -35,-22 -58,-21 -28,2 -52,11 -72,31 -49,42 -60,97 -49,158 8,43 50,61 86,38 13,-8 24,-18 34,-27 12,-13 22,-26 36,-43zm-100 20c-5,-39 -4,-75 28,-103 8,-7 20,-13 31,-17 12,-5 23,0 31,12 -25,39 -49,81 -90,108zm270 -90c-5,-62 -3,-128 -3,-192 0,-6 0,-12 -2,-18 -3,-13 -13,-20 -26,-21 -13,0 -25,8 -28,21 -1,6 -1,12 -1,18 2,113 4,224 6,336 0,6 1,12 4,17 4,11 13,16 26,16 11,-2 21,-8 23,-19 3,-6 3,-12 3,-19 0,-13 0,-26 -2,-41 -1,-14 6,-24 20,-33 13,29 26,56 39,84 3,6 5,12 9,17 7,11 19,14 31,11 14,-5 21,-17 17,-31 -1,-6 -2,-10 -5,-15 -14,-33 -30,-66 -44,-97 -5,-11 -5,-20 5,-30 13,-16 26,-33 37,-50 10,-14 6,-29 -6,-37 -12,-7 -28,-6 -39,7 -9,11 -17,22 -26,33 -11,14 -27,30 -38,43zm328 70c1,11 1,17 1,22 1,19 2,37 5,57 1,15 12,24 25,24 16,1 27,-9 29,-24 0,-10 -1,-20 -1,-28 0,-28 -1,-56 -1,-83 0,-17 1,-35 0,-52 0,-10 -5,-21 -10,-28 -7,-10 -17,-16 -25,-24 -17,-15 -35,-22 -58,-21 -28,2 -52,11 -73,31 -48,42 -59,97 -48,158 7,43 49,61 86,38 13,-8 24,-18 33,-27 12,-12 22,-26 37,-43zm-101 20c-4,-39 -3,-75 28,-103 9,-7 21,-13 32,-17 12,-5 22,0 31,12 -25,39 -50,81 -91,108zm332 -149c-6,0 -9,0 -13,0 -34,-6 -58,10 -77,38 -28,38 -36,82 -29,128 6,35 27,60 63,66 17,4 35,4 52,2 12,0 21,-2 33,2 20,4 34,-6 35,-26 2,-9 -1,-19 -1,-29 -2,-31 -6,-61 -6,-93 -1,-76 -1,-153 -1,-229 0,-6 -1,-11 -2,-17 -4,-12 -12,-18 -25,-19 -10,-2 -20,3 -25,13 -2,6 -5,14 -5,20 0,25 1,49 1,73 0,23 0,46 0,71zm5 179c-15,0 -30,1 -43,0 -13,0 -23,-9 -26,-22 -6,-36 2,-69 27,-95 8,-10 15,-9 25,0 9,7 14,15 14,27 0,29 1,57 3,90z"/>
     <path class="fil1" d="M3130 2866c3,-2 5,-2 8,-3 10,0 20,0 31,-1 12,-1 25,-2 37,-5 23,-6 39,-24 41,-48 5,-39 -20,-81 -56,-94 -11,-4 -24,-6 -36,-4 -43,8 -71,35 -79,77 -8,37 -1,72 10,107 6,21 18,38 35,54 13,13 30,19 49,17 47,-4 79,-38 92,-77 4,-13 -2,-23 -13,-29 -11,-5 -23,-2 -31,9 -3,6 -7,12 -9,18 -7,12 -17,21 -30,27 -12,5 -21,3 -31,-6 -9,-12 -16,-26 -18,-42zm-7 -51c0,-23 6,-41 27,-51 19,-8 32,-3 42,13 2,6 5,13 6,20 1,8 -2,13 -11,14 -22,1 -42,3 -64,4zm185 -67c0,0 0,0 0,0 0,57 0,114 0,171 0,3 0,8 0,12 1,18 12,29 26,30 16,0 28,-11 29,-27 2,-14 0,-27 0,-42 0,-102 0,-206 0,-310 0,-6 0,-12 -2,-19 -2,-14 -13,-22 -25,-22 -15,0 -26,9 -28,24 -1,5 -1,10 -1,14 0,57 1,113 1,169zm257 19c-12,35 -23,74 -40,103 -13,-30 -27,-60 -41,-91 -6,-16 -9,-33 -17,-50 -6,-14 -19,-20 -32,-17 -15,4 -23,20 -21,34 1,5 3,9 4,13 23,55 46,110 69,166 3,9 6,21 7,32 1,40 0,79 1,119 1,12 5,24 11,35 6,11 21,14 33,9 10,-5 16,-15 16,-27 -2,-38 -3,-77 -6,-114 -1,-17 20,-59 22,-66 11,-26 21,-51 29,-78 11,-30 22,-60 33,-90 5,-17 -1,-32 -17,-38 -16,-4 -30,2 -36,19 -6,14 -10,27 -15,41z"/>
    </g>
    <path class="fil2" d="M2869 3277c-35,-47 -168,-59 -295,-73 -126,-13 -333,0 -410,0 -78,0 -71,54 -330,24 -258,-30 -297,-25 -287,12 9,37 -22,145 -2,179 20,34 196,74 299,74 102,0 378,-22 484,-27 105,-5 236,-48 304,-29 68,19 172,27 189,22 17,-5 48,-182 48,-182z"/>
    <path class="fil1" d="M1779 3311c0,3 1,6 1,8 -1,13 -1,27 -2,40 0,7 0,14 0,21 0,6 4,10 10,10 5,0 9,-4 10,-10 0,-1 0,-2 0,-3 1,-20 2,-39 2,-58 0,-5 0,-10 -1,-15 -2,-9 -8,-14 -17,-14 -7,0 -14,0 -21,1 -5,0 -10,1 -14,2 -7,3 -11,9 -12,16 -1,4 -1,8 -1,13 -1,13 -1,25 -1,38 -1,7 -1,15 -1,21 0,6 4,10 9,11 5,0 9,-3 11,-8 0,-2 0,-4 0,-6 1,-15 1,-28 1,-42 1,-8 1,-16 2,-24 8,-2 16,-1 24,-1zm85 82c3,0 6,0 10,0 13,-1 31,-8 35,-27 2,-9 4,-18 4,-27 0,-12 -4,-23 -13,-31 -12,-11 -27,-15 -43,-13 -9,1 -12,4 -14,13 0,2 0,4 0,5 -4,42 -2,85 0,127 0,2 1,5 2,7 3,6 12,7 16,2 2,-2 3,-6 3,-8 0,-8 0,-15 0,-22 -1,-8 0,-16 0,-26zm-2 -21c0,-19 1,-37 2,-55 12,-2 22,4 25,14 4,11 2,21 -2,32 -2,5 -6,7 -11,8 -4,1 -8,1 -14,1zm93 -11c2,7 4,15 10,22 13,17 37,15 47,-4 10,-20 11,-40 6,-61 -3,-12 -12,-21 -24,-24 -4,-1 -8,-1 -12,0 -12,4 -20,12 -25,24 -6,14 -6,28 -2,43zm44 -35c2,14 1,27 -3,39 -1,2 -2,3 -2,5 -4,4 -9,4 -12,1 -1,-2 -2,-3 -3,-4 -6,-13 -8,-27 -3,-41 2,-3 5,-7 8,-9 6,-4 10,-2 13,4 1,2 1,4 2,5zm112 24c-1,-4 -3,-6 -3,-8 -3,-12 -7,-24 -10,-35 -2,-4 -4,-8 -6,-12 -6,-7 -16,-6 -20,1 -2,3 -3,6 -4,9 -1,7 -2,15 -3,23 -2,18 -3,35 -4,53 -1,7 3,12 9,13 6,0 10,-3 11,-11 0,-6 1,-13 2,-19 0,-8 1,-16 1,-24 2,3 3,5 4,7 4,8 7,16 10,25 3,6 7,11 14,12 7,0 11,-6 13,-12 4,-11 7,-23 11,-35 0,-1 1,-4 1,-6 2,1 2,3 2,4 1,15 2,31 2,46 1,6 5,11 11,11 5,0 9,-5 9,-12 -1,-22 -1,-45 -2,-68 0,-4 -2,-8 -4,-12 -3,-7 -11,-10 -18,-7 -3,3 -7,6 -9,9 -3,5 -6,11 -8,17 -3,10 -6,20 -9,31zm93 11c2,7 5,15 11,22 13,17 37,15 47,-4 10,-20 11,-40 6,-61 -3,-12 -12,-21 -24,-24 -4,-1 -8,-1 -12,0 -12,4 -21,12 -25,24 -6,14 -6,28 -3,43zm44 -35c3,14 2,27 -2,39 -1,2 -2,3 -3,5 -3,4 -8,4 -11,1 -2,-2 -3,-3 -3,-4 -7,-13 -8,-27 -3,-41 2,-3 5,-7 8,-9 6,-4 10,-2 13,4 1,2 1,4 1,5zm94 24c1,4 3,7 4,10 2,8 5,17 8,25 3,7 8,9 14,8 6,-2 9,-7 6,-14 -5,-14 -10,-28 -16,-42 -1,-4 0,-6 2,-9 4,-5 8,-10 11,-16 2,-2 3,-5 4,-7 2,-5 0,-10 -4,-12 -5,-3 -10,-2 -14,2 -1,1 -1,3 -2,4 -6,8 -13,17 -19,25 -1,1 -2,2 -4,4 0,-5 0,-9 0,-12 0,-6 0,-11 -1,-16 0,-6 -5,-9 -10,-9 -5,0 -10,3 -11,9 0,1 0,4 0,6 0,17 0,34 0,51 0,9 0,17 1,26 1,6 6,10 12,9 5,0 9,-5 9,-11 0,-4 0,-8 -1,-13 -1,-8 4,-13 11,-18zm77 11c1,7 4,15 10,22 13,17 37,15 47,-4 10,-20 11,-40 6,-61 -3,-12 -12,-21 -24,-24 -4,-1 -8,-1 -12,0 -12,4 -20,12 -25,24 -6,14 -6,28 -2,43zm44 -35c2,14 1,27 -3,39 -1,2 -2,3 -3,5 -3,4 -8,4 -11,1 -1,-2 -2,-3 -3,-4 -6,-13 -8,-27 -3,-41 2,-3 5,-7 8,-9 6,-4 10,-2 13,4 1,2 1,4 2,5zm139 45c0,-2 0,-3 0,-4 0,-13 0,-25 0,-38 0,-6 0,-13 -1,-19 -4,-19 -24,-25 -39,-14 -10,7 -15,16 -16,28 -1,5 -1,10 -2,14 0,12 -1,24 -1,36 -3,1 -5,1 -7,2 -10,3 -13,6 -12,16 1,6 3,10 8,11 5,1 8,-1 11,-7 1,-2 2,-4 4,-4 2,0 3,0 5,0 13,0 26,-1 39,-1 2,0 4,1 5,2 3,4 7,5 10,3 4,-2 6,-5 7,-9 1,-8 -1,-13 -11,-16zm-19 1c-7,0 -14,0 -21,1 0,-4 0,-6 0,-8 0,-14 1,-27 2,-40 1,-7 4,-12 10,-15 4,-2 7,-1 9,4 1,3 1,7 1,10 0,15 -1,30 -1,45 0,1 0,2 0,3zm83 14c5,0 10,-4 10,-10 0,-7 -4,-12 -10,-12 -7,0 -12,5 -12,11 0,6 6,11 12,11zm1 -53c6,0 10,-4 10,-10 0,-6 -4,-11 -10,-11 -5,0 -10,4 -10,10 -1,6 4,11 10,11z"/>
    <path class="fil1" d="M1184 3644c5,-8 11,-17 15,-27 11,-30 6,-62 -15,-81 -20,-16 -43,-22 -67,-16 -7,1 -13,3 -19,4 -16,4 -22,12 -22,28 -2,52 -5,105 -6,158 0,37 2,74 3,110 1,18 18,34 34,33 16,0 33,-1 50,-3 40,-6 70,-25 82,-66 4,-13 6,-30 6,-44 -2,-25 -5,-50 -24,-69 -11,-9 -24,-17 -37,-27zm-69 164c0,-32 0,-60 -1,-88 0,-9 4,-14 11,-18 15,-7 30,-10 45,-10 10,0 17,5 21,15 12,23 14,48 3,73 -7,14 -19,22 -33,24 -15,3 -29,2 -46,4zm1 -161c1,-13 2,-22 2,-31 1,-14 1,-27 1,-40 1,-11 4,-14 16,-14 17,0 27,12 25,29 -1,12 -7,22 -15,31 -7,9 -16,17 -29,25zm204 121c-1,0 -2,-1 -3,-1 1,-21 2,-42 2,-64 1,-15 2,-29 1,-43 0,-11 -9,-17 -19,-18 -11,-1 -20,4 -23,16 -1,4 -1,8 -2,13 -1,40 -3,80 -4,120 -1,12 0,25 2,39 4,20 23,28 41,18 7,-4 12,-10 17,-16 12,-18 22,-37 33,-55 3,-5 6,-11 9,-17 4,13 4,26 4,37 0,14 0,26 0,39 0,13 7,22 18,22 12,2 23,-5 26,-18 1,-4 1,-9 1,-13 1,-38 1,-76 2,-115 0,-8 0,-17 0,-26 0,-11 -6,-21 -17,-24 -11,-5 -20,0 -28,8 -9,11 -18,22 -26,35 -12,21 -23,42 -34,63zm250 -75c0,9 1,15 0,22 -3,36 -6,70 -8,105 -1,8 -1,16 1,22 2,11 11,17 21,17 11,-1 19,-7 21,-18 1,-3 1,-5 1,-8 3,-40 6,-81 8,-121 1,-11 0,-24 -2,-35 -3,-15 -14,-27 -29,-27 -23,-1 -47,-1 -70,2 -17,2 -25,13 -25,30 -1,5 -1,10 -1,16 1,16 1,33 1,50 0,19 -2,37 -9,55 -5,0 -8,-1 -12,-1 -16,1 -25,15 -21,31 6,21 34,31 52,18 7,-6 14,-14 17,-21 7,-16 13,-33 15,-50 2,-22 1,-44 1,-67 0,-5 0,-12 0,-20 14,0 24,0 39,0zm188 0c0,9 1,15 0,22 -3,36 -6,70 -8,105 -1,8 -1,16 1,22 2,11 11,17 21,17 10,-1 19,-7 21,-18 1,-3 1,-5 1,-8 3,-40 6,-81 8,-121 0,-11 0,-24 -2,-35 -3,-15 -14,-27 -29,-27 -23,-1 -47,-1 -70,2 -17,2 -25,13 -26,30 -1,5 -1,10 -1,16 1,16 1,33 1,50 0,19 -2,37 -8,55 -5,0 -8,-1 -12,-1 -16,1 -25,15 -21,31 6,21 34,31 52,18 7,-6 14,-14 17,-21 7,-16 13,-33 14,-50 3,-22 1,-44 2,-67 0,-5 0,-12 0,-20 14,0 24,0 39,0zm191 82c1,9 1,14 1,18 1,15 2,29 4,44 1,13 10,20 20,20 12,1 21,-7 23,-20 0,-7 -1,-15 -1,-22 0,-21 -1,-43 -1,-65 0,-14 1,-28 0,-42 0,-7 -4,-16 -8,-22 -5,-7 -13,-12 -20,-19 -13,-11 -27,-17 -45,-16 -22,1 -42,9 -58,24 -38,33 -47,77 -38,125 6,35 39,49 68,31 10,-7 19,-15 27,-22 9,-10 17,-20 28,-34zm-79 16c-4,-31 -3,-60 22,-82 7,-5 16,-10 25,-13 9,-4 18,0 25,10 -20,30 -40,64 -72,85zm311 22c-1,-3 -1,-6 -1,-8 1,-27 1,-53 1,-78 0,-14 0,-27 -3,-41 -8,-38 -50,-51 -81,-28 -19,14 -30,33 -33,57 0,11 -1,21 -2,31 -1,25 -3,48 -4,73 -5,2 -10,2 -14,4 -21,7 -26,14 -24,35 1,12 6,19 16,21 9,1 16,-2 22,-14 2,-5 5,-7 9,-7 3,-1 7,-1 11,-1 27,-1 53,-2 80,-2 4,0 8,3 10,4 6,7 14,9 22,5 7,-3 12,-9 13,-18 2,-17 -3,-26 -22,-33zm-40 2c-14,0 -29,0 -43,1 -1,-6 -1,-11 -1,-16 2,-28 4,-54 6,-82 1,-13 8,-24 20,-31 8,-4 15,-1 18,8 2,7 2,14 2,21 0,31 -1,62 -1,93 0,2 -1,4 -1,6zm156 -59c12,3 15,10 14,20 -2,20 -3,41 -3,61 -1,13 6,21 17,22 9,1 19,-5 22,-16 1,-6 1,-10 2,-16 0,-12 1,-25 2,-38 0,-3 1,-8 3,-10 5,-6 13,-11 21,-17 2,5 3,8 4,11 8,21 17,42 24,64 4,10 13,17 21,15 11,-1 18,-9 18,-19 0,-5 0,-11 -2,-15 -9,-23 -17,-46 -27,-69 -8,-17 -10,-31 4,-45 6,-8 11,-18 15,-26 6,-13 -1,-27 -13,-29 -11,-2 -18,3 -23,12 -10,14 -19,29 -28,44 -4,4 -6,10 -13,14 0,-6 0,-11 0,-14 1,-12 1,-24 2,-37 0,-13 -7,-23 -19,-23 -11,-1 -20,8 -22,21 -1,12 -1,23 -2,35 -1,3 -1,7 -2,12 -13,-14 -23,-27 -34,-39 -7,-7 -11,-14 -18,-21 -8,-9 -18,-10 -27,-4 -7,7 -10,18 -6,28 2,4 6,7 9,10 11,13 20,25 31,39 -19,30 -29,63 -38,97 -2,14 2,24 13,27 11,4 21,-2 26,-14 2,-8 4,-16 6,-23 6,-20 13,-40 23,-57zm265 -44c0,-1 0,-1 0,-1 27,0 54,0 82,0 9,0 17,-6 21,-15 3,-10 1,-21 -9,-26 -6,-4 -13,-5 -21,-5 -18,0 -36,1 -54,1 -31,0 -62,-1 -91,-1 -13,0 -21,5 -25,16 -3,9 2,22 12,27 9,2 18,3 26,4 19,0 39,0 59,0zm249 145c6,-2 11,-3 15,-5 48,-16 93,-76 71,-143 -14,-35 -38,-52 -74,-56 -12,-1 -23,-2 -34,-4 -13,-2 -25,-1 -37,6 -38,20 -59,53 -64,95 -6,46 22,88 66,104 4,2 8,3 13,4 0,6 0,12 0,18 0,22 -1,44 -1,65 0,17 11,27 25,25 11,-1 18,-9 19,-22 1,-14 1,-28 1,-43 0,-15 0,-29 0,-44zm2 -158c26,-1 36,7 42,29 9,33 -8,67 -43,80 -1,-36 -1,-73 1,-109zm-45 1c0,36 0,73 0,109 -9,2 -14,-1 -19,-5 -29,-27 -19,-87 19,-104zm206 158c7,0 14,1 22,0 26,0 63,-17 72,-56 4,-17 8,-36 7,-54 0,-25 -8,-48 -27,-65 -25,-23 -54,-32 -88,-27 -18,2 -25,9 -29,27 0,4 0,7 0,11 -9,87 -3,174 0,261 0,5 1,11 3,15 7,13 25,16 34,5 5,-5 6,-12 6,-18 1,-15 0,-31 0,-45 -1,-17 0,-33 0,-54zm-4 -43c1,-40 3,-77 4,-113 24,-5 46,7 53,28 8,22 4,44 -5,66 -4,11 -13,16 -24,18 -7,1 -16,1 -28,1zm174 -47c-1,0 -2,-1 -3,-1 1,-21 2,-42 2,-64 1,-15 2,-29 1,-43 0,-11 -8,-17 -19,-18 -10,-1 -20,4 -23,16 -1,4 -1,8 -2,13 -1,40 -3,80 -4,120 -1,12 0,25 2,39 4,20 23,28 41,18 7,-4 13,-10 18,-16 11,-18 22,-37 32,-55 4,-5 7,-11 10,-17 3,13 3,26 3,37 0,14 0,26 0,39 0,13 7,22 19,22 11,2 23,-5 25,-18 1,-4 1,-9 1,-13 1,-38 1,-76 2,-115 0,-8 0,-17 0,-25 0,-12 -5,-22 -17,-25 -10,-5 -20,0 -28,8 -8,11 -18,22 -25,35 -13,21 -23,42 -35,63zm192 3c3,7 6,13 8,19 5,18 11,35 17,52 5,15 16,19 28,16 13,-3 19,-14 14,-28 -11,-30 -21,-58 -33,-88 -3,-7 -2,-12 3,-17 9,-11 16,-22 24,-34 4,-4 6,-9 8,-14 3,-11 0,-20 -10,-25 -9,-6 -20,-4 -28,5 -2,2 -2,5 -4,7 -13,17 -26,35 -39,52 -2,2 -4,4 -9,9 0,-11 0,-18 0,-26 0,-12 1,-23 -1,-34 -1,-11 -11,-18 -21,-18 -11,0 -20,8 -22,18 -1,4 0,9 0,13 -1,36 -1,72 -1,107 0,17 0,35 2,52 2,14 12,21 25,20 11,-1 19,-10 19,-23 0,-9 -1,-18 -2,-26 -2,-17 8,-27 22,-37z"/>
   </g>
  </g>
 </g>
</svg>
