<?xml version="1.0" encoding="UTF-8"?>
<!DOCTYPE svg PUBLIC "-//W3C//DTD SVG 1.1//EN" "http://www.w3.org/Graphics/SVG/1.1/DTD/svg11.dtd">
<!-- Creator: CorelDRAW X8 -->
<svg xmlns="http://www.w3.org/2000/svg" xml:space="preserve" width="503px" height="502px" version="1.1" style="shape-rendering:geometricPrecision; text-rendering:geometricPrecision; image-rendering:optimizeQuality; fill-rule:evenodd; clip-rule:evenodd"
viewBox="0 0 3474028 3467393"
 xmlns:xlink="http://www.w3.org/1999/xlink">
 <defs>
  <style type="text/css">
   <![CDATA[
    .str0 {stroke:black;stroke-width:61209.5}
    .fil0 {fill:#DEF2F7}
    .fil1 {fill:#F05C4F;fill-rule:nonzero}
   ]]>
  </style>
 </defs>
 <g id="Слой_x0020_1">
  <metadata id="CorelCorpID_0Corel-Layer"/>
  <path class="fil0 str0" d="M75565 2759257c-2187,-209671 -94581,-2357184 -8031,-2468284 106766,-137060 77704,-232318 578642,-237549 500938,-5232 1580542,-16511 1783513,-18624 202970,-2114 671476,-36914 806291,136750 134824,173663 166808,464759 171974,961363 1820,175549 131813,1800872 -117163,2116550 -252362,319970 -549652,131461 -1253553,138798 -703900,7337 -1265264,13213 -1440283,15042 -489194,5109 -516722,-197079 -521390,-644046z"/>
  <path class="fil1" d="M1717407 906814c0,-24468 -19571,-41590 -48927,-41590 -51375,0 -90517,107639 -298457,340047 -139452,156566 -269110,300906 -376749,305803 -31804,0 -48926,-4897 -48926,-29365 0,-12225 4888,-31796 12233,-51367 2441,-7345 2441,-12233 2441,-19570 0,-19579 -9786,-39150 -26908,-46487 -7337,-2448 -14682,-4888 -22019,-4888 -22019,0 -41590,12225 -51375,34244 -12226,31805 -17123,63609 -17123,92965 0,70946 53824,127210 154126,127210 163902,-4889 342495,-203044 503957,-406096l-506406 1335729c-12233,31804 12234,70945 46479,70945 22019,0 44038,-12233 51375,-34252l601811 -1587708c14682,-39142 24468,-68498 24468,-85620z"/>
  <path id="1" class="fil1" d="M2786475 860327c-26908,-9785 -56264,4897 -66050,31805l-352280 1015252c-227512,14683 -496621,-9785 -636064,-9785 283783,-315588 445245,-562670 621382,-951644 12233,-26916 0,-56272 -26908,-68505 -24459,-12226 -56264,0 -68498,24467 -181033,410993 -362066,672757 -680102,1012804 -19571,19579 -19571,53824 0,70946 9794,9786 24468,12234 36701,12234 149229,0 489276,22019 716796,14682l-181033 528417c-9786,26916 2440,56272 29356,66057 26907,9786 56263,-4896 66049,-31804l198155 -572455c73394,-7345 129666,-22019 161462,-44038 24468,-17123 29357,-48927 14683,-70946 -14683,-24460 -46479,-31805 -70946,-14674 -14682,9785 -36693,17122 -66049,22011l335150 -968766c9785,-26916 -4889,-56272 -31804,-66058z"/>
 </g>
</svg>
