<?xml version="1.0" encoding="UTF-8"?>
<!DOCTYPE svg PUBLIC "-//W3C//DTD SVG 1.1//EN" "http://www.w3.org/Graphics/SVG/1.1/DTD/svg11.dtd">
<!-- Creator: CorelDRAW X8 -->
<svg xmlns="http://www.w3.org/2000/svg" xml:space="preserve" width="503px" height="502px" version="1.1" style="shape-rendering:geometricPrecision; text-rendering:geometricPrecision; image-rendering:optimizeQuality; fill-rule:evenodd; clip-rule:evenodd"
viewBox="0 0 3474028 3467393"
 xmlns:xlink="http://www.w3.org/1999/xlink">
 <defs>
  <style type="text/css">
   <![CDATA[
    .str0 {stroke:black;stroke-width:61209.5}
    .fil0 {fill:#DEF2F7}
    .fil1 {fill:#F05C4F;fill-rule:nonzero}
   ]]>
  </style>
 </defs>
 <g id="Слой_x0020_1">
  <metadata id="CorelCorpID_0Corel-Layer"/>
  <path class="fil0 str0" d="M75565 2759257c-2187,-209671 -94581,-2357184 -8031,-2468284 106766,-137060 77704,-232318 578642,-237549 500938,-5232 1580542,-16511 1783513,-18624 202970,-2114 671476,-36914 806291,136750 134824,173663 166808,464759 171974,961363 1820,175549 131813,1800872 -117163,2116550 -252362,319970 -549652,131461 -1253553,138798 -703900,7337 -1265264,13213 -1440283,15042 -489194,5109 -516722,-197079 -521390,-644046z"/>
  <path class="fil1" d="M1776510 1171018c0,-195707 -149228,-318028 -366962,-318028 -210390,0 -366955,161463 -433012,374300 -7337,29356 7345,56264 36701,66049 26907,7337 56263,-7337 63600,-34244 51376,-171248 168808,-303354 335159,-303354 149229,0 261764,73386 261764,212837 0,327814 -440349,765722 -773059,1032375 -88068,73394 -273998,217726 -362066,276446 -26916,19571 -41590,41582 -41590,63601 0,24468 22019,41590 56264,41590 9785,0 19571,0 29356,-2448 205501,-46479 273998,-63601 428123,-63601 139444,0 308243,34244 491724,83171 34253,7345 66050,-14674 66050,-51367 0,-22019 -17123,-41590 -39142,-48935 -210389,-61160 -357169,-85619 -518632,-85619 -75842,0 -151677,7337 -237305,22019 56272,-44038 122321,-95414 193267,-154126 354729,-288672 809760,-748599 809760,-1110666z"/>
  <path id="1" class="fil1" d="M2830904 1195486c0,-198156 -151677,-342496 -374299,-342496 -95414,0 -178585,31805 -244642,85620 -90517,68506 -154126,176145 -188370,288680 -7337,29356 7337,56264 34244,66049 29356,7337 56272,-7337 63609,-34244 31805,-97862 80731,-183482 151677,-239754 51375,-39141 112536,-63600 185930,-63600 139443,0 269101,88068 269101,239745 0,124761 -78283,232408 -200604,305802 -105198,61153 -227519,100302 -337606,129658 -44030,12226 -61161,31796 -61161,70946 0,24459 29356,56264 73394,56264 225072,0 408545,73394 408545,281335 0,249530 -217726,469705 -489276,469705 -181033,-4889 -288672,-88068 -288672,-256868 0,-39141 19571,-110087 56264,-141891 12234,-9786 17122,-24468 17122,-39142 0,-29356 -22011,-51375 -51367,-51375 -12233,0 -24467,4897 -34253,14682 -56263,61152 -90516,134547 -90516,215278 0,222623 144340,357177 391422,362066 315588,0 594474,-244642 594474,-574904 -4888,-188370 -132106,-320476 -318028,-362066 61161,-22019 124762,-48927 181034,-83171 154117,-95413 251978,-229968 251978,-396319z"/>
 </g>
</svg>
