<?xml version="1.0" encoding="UTF-8"?>
<!DOCTYPE svg PUBLIC "-//W3C//DTD SVG 1.1//EN" "http://www.w3.org/Graphics/SVG/1.1/DTD/svg11.dtd">
<!-- Creator: CorelDRAW X6 -->
<svg xmlns="http://www.w3.org/2000/svg" xml:space="preserve" width="45mm" height="45mm" version="1.1" style="shape-rendering:geometricPrecision; text-rendering:geometricPrecision; image-rendering:optimizeQuality; fill-rule:evenodd; clip-rule:evenodd"
viewBox="0 0 4500 4500"
 xmlns:xlink="http://www.w3.org/1999/xlink">
 <defs>
  <style type="text/css">
   <![CDATA[
    .str0 {stroke:black;stroke-width:75}
    .fil2 {fill:black}
    .fil0 {fill:#E94F42}
    .fil1 {fill:#FEFEFE;fill-rule:nonzero}
   ]]>
  </style>
 </defs>
 <g id="Слой_x0020_1">
  <metadata id="CorelCorpID_0Corel-Layer"/>
  <g id="_367593496">
   <path class="fil0 str0" d="M300 4161c0,0 141,119 670,119 530,0 2141,0 2324,0 182,0 534,111 701,-22 166,-132 283,-98 283,-712 0,-613 0,-1936 0,-2185 0,-249 144,-838 -71,-1001 -214,-163 -678,-184 -1287,-184 -608,0 -1349,164 -1740,116 -392,-48 -751,-125 -842,-30 -90,95 -163,506 -163,1369 0,862 0,1804 0,2019 0,214 125,511 125,511z"/>
   <g>
    <g>
     <path class="fil1" d="M1062 710c0,-56 8,-90 27,-118 5,-9 13,-17 21,-24 11,-7 21,-2 26,11 2,5 3,12 6,18 6,13 19,18 32,15 11,-4 19,-15 18,-29 -4,-27 -14,-53 -38,-65 -25,-14 -49,-14 -73,3 -28,18 -45,47 -57,81 -21,63 -21,126 -2,189 10,36 28,67 56,90 31,24 73,22 99,-6 27,-26 35,-61 36,-97 0,-14 -10,-25 -22,-27 -11,-1 -23,5 -28,16 -2,7 -3,14 -5,22 -4,12 -5,24 -11,36 -9,17 -24,20 -38,8 -11,-11 -22,-23 -28,-38 -14,-29 -19,-61 -19,-85zm254 93c3,9 6,16 9,23 7,22 14,42 20,63 7,17 20,23 35,20 15,-5 22,-18 16,-35 -13,-35 -25,-70 -39,-106 -3,-8 -2,-13 3,-20 11,-13 20,-27 29,-41 5,-5 7,-11 9,-17 5,-13 0,-24 -11,-30 -12,-7 -24,-4 -33,6 -3,2 -4,6 -6,8 -15,21 -31,43 -46,63 -3,3 -6,5 -12,11 0,-13 0,-22 0,-31 0,-14 1,-28 -1,-41 -1,-13 -13,-22 -25,-22 -13,0 -24,10 -27,22 -1,5 0,11 0,15 -1,44 -1,87 -1,129 0,21 0,43 2,63 3,17 15,26 30,23 14,-1 23,-11 23,-27 0,-11 -1,-21 -2,-31 -2,-21 9,-32 27,-45zm167 -4c-1,0 -3,-1 -4,-1 1,-25 3,-50 3,-77 1,-17 2,-34 1,-52 0,-12 -11,-20 -23,-21 -13,-2 -24,5 -28,19 -1,5 -1,10 -2,16 -1,49 -4,96 -5,144 -1,15 0,31 2,47 5,24 28,35 50,22 8,-5 15,-11 21,-19 13,-22 26,-44 39,-66 4,-7 8,-14 11,-21 5,16 5,31 5,45 0,16 0,31 0,46 0,16 8,27 22,28 14,2 27,-7 31,-22 1,-6 1,-12 1,-16 1,-46 1,-92 2,-138 0,-11 0,-21 0,-31 0,-14 -7,-26 -20,-30 -13,-6 -25,0 -34,10 -10,13 -22,27 -31,42 -15,25 -27,50 -41,75zm343 55c-1,-4 -1,-7 -1,-10 1,-32 1,-63 1,-94 0,-16 0,-32 -4,-48 -10,-46 -59,-62 -97,-35 -23,17 -36,40 -40,69 -1,13 -2,25 -3,37 -1,30 -3,59 -5,89 -5,2 -11,2 -16,4 -25,8 -32,16 -30,42 2,15 8,23 20,25 11,2 20,-2 26,-16 3,-6 6,-9 12,-9 3,-2 8,-2 13,-2 32,-1 64,-2 96,-2 5,0 9,4 12,6 8,8 17,10 26,6 9,-4 15,-12 16,-22 3,-21 -3,-31 -26,-40zm-48 2c-18,1 -35,1 -52,2 -1,-8 -1,-14 -1,-19 2,-34 4,-66 7,-99 1,-16 10,-29 24,-37 10,-6 18,-2 22,9 2,8 2,17 2,25 0,37 -1,75 -1,112 0,2 -1,5 -1,7zm175 -53c3,9 7,16 9,23 7,22 14,42 21,63 7,17 19,23 34,20 15,-5 22,-18 16,-35 -12,-35 -25,-70 -39,-106 -3,-8 -2,-13 4,-20 10,-13 19,-27 28,-41 5,-5 7,-11 10,-17 4,-13 0,-24 -12,-30 -11,-7 -24,-4 -33,6 -3,2 -4,6 -6,8 -15,21 -31,43 -46,63 -2,3 -6,5 -12,11 0,-13 0,-22 0,-31 0,-14 2,-28 -1,-41 -1,-13 -12,-22 -25,-22 -13,0 -24,10 -27,22 -1,5 0,11 0,15 -1,44 -1,87 -1,129 0,21 0,43 3,63 2,17 15,26 30,23 13,-1 23,-11 23,-27 0,-11 -2,-21 -3,-31 -2,-21 9,-32 27,-45zm261 6c1,10 1,16 1,20 1,19 3,36 5,54 1,15 11,23 24,23 15,2 25,-8 28,-23 0,-9 -1,-18 -1,-26 0,-26 -2,-53 -2,-79 0,-17 2,-34 0,-50 0,-9 -4,-19 -9,-26 -7,-10 -16,-15 -24,-23 -16,-14 -33,-21 -55,-20 -27,1 -50,10 -69,29 -46,40 -57,93 -46,151 7,41 47,58 81,36 13,-8 23,-17 33,-26 11,-12 20,-24 34,-40zm-95 18c-5,-37 -4,-71 26,-98 8,-7 20,-12 30,-16 12,-4 22,0 30,12 -24,36 -47,77 -86,102zm593 -224c12,0 21,0 31,0 12,0 23,0 35,-3 14,-3 21,-15 20,-27 -2,-12 -11,-22 -25,-22 -22,-1 -45,-2 -68,0 -28,2 -42,16 -46,45 -1,14 -1,29 -1,42 -1,23 -2,46 -2,69 0,22 12,35 29,33 7,-2 12,-6 18,-10 11,-9 22,-16 37,-17 9,-1 16,2 18,12 2,4 4,9 4,13 0,29 -5,58 -17,84 -6,12 -14,21 -28,26 -12,-9 -13,-21 -13,-34 0,-11 -7,-19 -17,-24 -10,-3 -19,0 -26,7 -10,7 -12,16 -12,28 2,19 10,38 23,54 17,24 43,29 69,16 19,-8 32,-20 43,-36 28,-42 35,-91 28,-141 -5,-36 -32,-65 -81,-57 -6,0 -12,2 -19,2 0,-20 0,-40 0,-60zm126 119c2,19 4,36 6,54 1,12 4,23 8,35 6,22 16,43 31,60 31,34 75,35 106,2 12,-14 24,-30 31,-46 22,-44 30,-91 23,-139 -7,-48 -24,-91 -70,-116 -36,-20 -80,-16 -104,23 -6,10 -10,20 -15,32 -11,31 -15,63 -16,95zm154 -4c-3,40 -9,78 -35,111 -15,20 -28,19 -41,-4 -7,-14 -13,-29 -17,-44 -9,-39 -8,-78 0,-117 1,-8 5,-18 8,-26 9,-23 30,-28 50,-13 9,8 16,18 21,28 6,11 8,22 11,34 2,10 2,20 3,31zm318 -158c-1,-13 -5,-22 -15,-26 -9,-5 -18,-5 -26,2 -6,5 -10,11 -12,17 -23,43 -45,87 -68,129 -28,56 -60,113 -89,169 -12,22 -9,39 8,46 16,8 28,0 40,-22 14,-28 29,-56 44,-85 36,-70 73,-139 110,-209 5,-7 6,-15 8,-21zm-242 68c2,48 36,74 76,58 20,-9 36,-21 48,-40 15,-24 12,-54 -6,-75 -5,-6 -11,-11 -16,-15 -20,-18 -39,-19 -60,-4 -28,20 -39,47 -42,76zm52 7c5,-13 7,-21 11,-32 7,3 11,5 16,8 2,7 -6,16 -27,24zm151 239c32,1 67,-27 74,-61 3,-19 -2,-37 -15,-52 -26,-27 -81,-32 -102,2 -9,16 -16,32 -17,50 0,36 24,61 60,61zm-6 -55c1,-7 3,-14 6,-21 2,-5 13,-5 17,-1 6,5 4,10 -1,14 -5,5 -11,8 -17,11 -1,-1 -4,-2 -5,-3zm-2096 411c-10,1 -19,2 -27,2 -11,0 -20,-1 -30,-1 0,-10 0,-18 0,-28 0,-15 0,-30 -2,-44 -1,-13 -10,-22 -21,-23 -12,-2 -23,6 -27,18 -1,6 -1,10 -1,16 0,45 0,89 0,133 0,20 -1,40 0,59 0,13 7,22 17,24 12,4 24,-1 29,-14 3,-4 3,-11 3,-18 2,-23 3,-46 3,-70 19,-1 38,-2 58,-4 0,13 0,23 2,34 0,15 0,30 1,44 1,14 15,26 27,24 14,-1 23,-12 23,-27 -1,-45 -2,-91 -2,-136 -1,-19 -1,-40 -2,-59 -1,-13 -12,-20 -23,-21 -12,0 -22,8 -26,21 0,4 0,10 0,15 0,18 -1,35 -2,55zm229 61c2,10 2,16 2,21 1,18 2,35 4,54 1,15 12,23 24,23 15,1 26,-8 28,-23 0,-10 -1,-19 -1,-27 0,-26 -1,-53 -1,-79 0,-16 1,-34 0,-50 0,-9 -5,-19 -10,-26 -6,-9 -16,-15 -24,-23 -16,-14 -33,-21 -55,-20 -26,1 -49,11 -69,29 -46,40 -56,93 -46,151 7,41 47,58 82,37 12,-9 23,-18 32,-27 11,-11 21,-24 34,-40zm-95 18c-5,-37 -4,-71 26,-98 8,-6 20,-12 30,-16 12,-4 22,0 30,12 -24,37 -47,77 -86,102zm611 76c-12,27 -23,57 -44,81 -8,10 -16,19 -23,30 -8,13 -4,28 7,36 12,10 27,7 37,-5 23,-29 45,-58 60,-92 31,-68 53,-140 74,-211 3,-7 4,-14 3,-21 0,-11 -8,-20 -17,-23 -11,-3 -20,-1 -27,7 -5,5 -7,11 -9,16 -12,37 -22,74 -34,110 -1,5 -4,10 -6,16 -20,-15 -31,-34 -38,-54 -8,-23 -12,-46 -11,-70 1,-14 -7,-25 -19,-27 -12,-2 -24,4 -30,15 -3,5 -4,10 -4,16 0,45 7,89 35,126 13,17 30,32 46,50zm257 -126c-6,2 -8,2 -11,3 -28,5 -40,-1 -46,-25 -3,-13 -4,-26 -5,-39 -2,-14 0,-28 -3,-42 -1,-14 -12,-22 -27,-20 -13,0 -24,9 -24,21 -2,31 -2,64 8,95 12,39 40,56 89,55 6,0 12,0 19,0 0,16 0,31 0,45 0,6 0,12 1,18 3,13 13,19 26,19 14,0 23,-7 26,-19 1,-5 1,-9 1,-14 0,-40 0,-79 0,-117 0,-28 0,-55 -1,-83 0,-15 -11,-23 -26,-23 -15,0 -26,9 -27,23 -4,34 3,69 0,103zm234 32c1,10 1,16 1,21 1,18 2,35 4,54 1,15 12,23 25,23 14,1 25,-8 27,-23 0,-10 -1,-19 -1,-27 0,-26 -1,-53 -1,-79 0,-16 1,-34 0,-50 0,-9 -5,-19 -9,-26 -7,-9 -16,-15 -25,-23 -16,-14 -33,-21 -55,-20 -26,1 -49,11 -69,29 -46,40 -56,93 -46,151 7,41 47,58 82,37 13,-9 23,-18 32,-27 12,-11 21,-24 35,-40zm-96 18c-4,-37 -3,-71 27,-98 8,-6 19,-12 29,-16 12,-4 22,0 30,12 -24,37 -47,77 -86,102zm180 -38c3,16 4,32 10,49 12,39 49,63 92,64 38,0 81,-28 93,-62 5,-15 2,-28 -11,-35 -12,-7 -25,-3 -35,8 -4,7 -8,14 -12,20 -13,14 -30,18 -47,14 -18,-4 -28,-16 -31,-32 -5,-20 -5,-40 0,-58 4,-17 13,-31 27,-41 12,-10 23,-8 32,3 5,4 7,9 11,14 9,13 25,17 38,9 12,-8 16,-23 7,-38 -7,-11 -15,-22 -26,-30 -27,-24 -64,-24 -93,-2 -38,30 -54,70 -55,117zm294 -73c0,19 1,38 0,56 0,37 -2,74 -2,110 0,17 12,27 26,27 14,0 24,-9 26,-24 1,-4 1,-8 1,-13 0,-24 0,-49 1,-75 0,-28 2,-58 3,-88 9,-1 18,-1 25,-4 13,-3 21,-14 21,-25 0,-13 -9,-24 -23,-25 -7,-1 -14,-1 -21,-1 -36,2 -70,5 -106,8 -2,1 -3,1 -6,2 -12,3 -19,14 -18,26 0,12 8,22 21,24 7,2 14,0 21,2 10,0 20,0 31,0zm182 84c-2,0 -3,-2 -4,-2 1,-25 2,-50 2,-77 2,-17 3,-34 2,-51 0,-13 -11,-21 -23,-22 -13,-1 -25,6 -28,19 -1,5 -1,11 -2,16 -1,49 -4,96 -5,144 -1,15 0,31 2,47 5,25 28,35 50,22 8,-4 15,-11 21,-19 13,-22 26,-44 39,-66 4,-7 8,-14 11,-21 5,17 5,31 5,45 0,16 0,31 0,46 0,16 8,27 22,28 13,2 27,-7 31,-22 1,-6 1,-11 1,-16 1,-46 1,-92 2,-138 0,-10 0,-21 0,-31 0,-14 -7,-25 -21,-30 -12,-6 -24,0 -33,10 -10,13 -22,27 -31,42 -15,25 -28,50 -41,76zm206 16c2,-1 4,-1 7,-3 10,0 19,0 30,-1 11,-1 24,-2 35,-4 22,-6 37,-23 39,-46 5,-37 -19,-77 -54,-90 -10,-4 -23,-6 -34,-4 -40,9 -67,34 -75,74 -8,35 -1,68 9,101 6,21 18,37 34,52 12,13 28,19 47,16 45,-3 75,-35 87,-73 4,-12 -2,-22 -12,-28 -11,-5 -22,-1 -29,9 -4,6 -7,12 -9,17 -7,12 -16,20 -29,26 -12,4 -20,3 -29,-6 -9,-12 -16,-24 -17,-40zm-7 -49c0,-21 6,-39 25,-48 19,-8 31,-3 41,13 2,5 4,11 5,18 1,8 -2,13 -10,14 -21,1 -40,2 -61,3zm-2676 478c12,-16 17,-31 14,-49 -6,-30 -33,-53 -69,-58 -15,-2 -30,-3 -45,-3 -21,0 -32,11 -32,31 2,58 1,116 1,174 0,32 13,44 45,46 10,2 22,3 32,3 38,-3 73,-13 96,-43 24,-32 15,-71 -21,-91 -6,-3 -13,-5 -21,-10zm-82 93c2,-17 3,-33 3,-52 26,-5 50,-2 75,11 11,6 13,14 3,23 -7,7 -16,12 -25,16 -16,6 -35,7 -56,2zm0 -105c0,-16 0,-31 2,-48 13,-3 26,-1 38,8 10,8 10,16 0,24 -11,7 -23,13 -35,20 -1,-1 -2,-2 -5,-4zm166 79c5,17 12,37 26,54 33,42 93,38 118,-11 24,-48 27,-99 14,-150 -8,-31 -29,-52 -60,-60 -9,-2 -19,-2 -29,1 -29,9 -51,30 -63,60 -14,33 -14,68 -6,106zm110 -88c7,35 4,67 -7,98 -1,4 -4,8 -6,12 -8,11 -21,11 -29,2 -3,-4 -5,-6 -7,-10 -16,-33 -20,-66 -6,-101 3,-9 11,-18 19,-24 14,-8 25,-3 32,12 3,4 3,9 4,11zm435 21c11,-16 17,-31 13,-49 -5,-30 -33,-53 -69,-58 -14,-2 -29,-3 -44,-3 -21,0 -33,11 -33,31 3,58 2,116 2,174 0,32 12,44 44,46 11,2 22,3 33,3 38,-3 72,-13 95,-43 24,-32 15,-71 -21,-91 -5,-3 -12,-5 -20,-10zm-82 93c1,-17 2,-33 2,-52 27,-5 51,-2 75,11 12,6 14,14 4,23 -7,7 -17,12 -26,16 -16,6 -34,7 -55,2zm0 -105c0,-16 0,-31 1,-48 14,-3 27,-1 38,8 10,8 10,16 0,24 -10,7 -23,13 -34,20 -2,-1 -3,-2 -5,-4zm271 -3c-11,1 -20,2 -28,2 -10,0 -19,-1 -30,-1 0,-10 0,-18 0,-27 0,-15 0,-30 -1,-45 -1,-13 -10,-22 -22,-23 -11,-1 -23,7 -26,18 -1,6 -1,10 -1,16 0,45 0,89 0,134 0,19 -2,39 0,58 0,13 6,22 17,24 11,4 24,-1 29,-13 3,-5 3,-12 3,-19 1,-23 2,-46 2,-70 20,-1 38,-2 59,-3 0,12 0,23 1,33 0,15 0,30 1,44 1,15 15,26 28,24 14,-1 23,-12 23,-27 -1,-44 -2,-90 -2,-135 -2,-20 -2,-41 -3,-60 -1,-13 -11,-20 -23,-21 -11,0 -22,8 -25,21 0,4 0,10 0,15 0,18 -1,35 -2,55zm132 68c3,-1 5,-1 7,-2 11,0 20,0 30,-2 12,-1 24,-2 36,-4 22,-6 37,-23 39,-46 4,-37 -20,-77 -54,-90 -11,-3 -23,-6 -35,-3 -40,8 -66,33 -74,73 -9,35 -2,68 9,102 5,20 17,36 33,51 13,13 29,19 47,16 45,-3 75,-35 88,-73 3,-12 -3,-22 -13,-28 -10,-4 -22,-1 -29,9 -3,6 -7,12 -9,18 -7,11 -16,19 -29,25 -11,5 -19,3 -28,-6 -10,-11 -17,-24 -18,-40zm-7 -48c0,-22 6,-40 26,-49 18,-8 31,-3 40,13 2,6 5,11 6,18 1,8 -3,13 -11,14 -20,1 -40,2 -61,4z"/>
     <path class="fil1" d="M1590 1753c4,17 5,33 11,49 11,39 48,63 92,64 38,0 80,-27 93,-62 5,-15 1,-28 -11,-34 -12,-7 -26,-4 -35,8 -5,7 -8,13 -13,19 -12,14 -30,19 -47,14 -17,-3 -27,-16 -31,-32 -4,-20 -4,-39 0,-58 5,-17 14,-31 28,-41 11,-9 23,-8 32,3 5,4 7,9 10,14 10,13 26,17 38,9 13,-8 16,-23 7,-38 -7,-11 -15,-22 -25,-30 -28,-24 -65,-24 -93,-2 -38,30 -54,70 -56,117zm277 27c2,-1 4,-1 7,-2 10,0 19,0 30,-2 11,-1 24,-2 35,-4 22,-6 37,-23 39,-46 5,-37 -19,-77 -54,-90 -10,-3 -23,-6 -34,-3 -40,8 -67,33 -75,73 -8,35 -1,68 9,102 6,20 18,36 34,51 12,13 28,19 47,16 45,-3 75,-35 87,-73 4,-12 -2,-22 -12,-28 -11,-4 -22,-1 -29,9 -4,6 -7,12 -9,18 -7,11 -16,19 -29,25 -12,5 -20,3 -29,-6 -9,-11 -16,-24 -17,-40zm-7 -48c0,-22 6,-40 25,-49 19,-8 31,-3 41,13 2,6 4,11 5,18 1,8 -2,13 -10,14 -21,1 -40,2 -61,4zm278 -7c5,-17 12,-31 14,-46 5,-21 -3,-38 -21,-51 -23,-16 -74,-10 -94,12 -8,8 -9,20 -3,29 7,10 20,13 31,9 12,-4 27,-14 35,-11 8,11 -2,22 -11,28 -11,8 -24,15 -37,23 -12,7 -18,19 -13,31 4,11 17,18 30,16 4,-2 9,-3 13,-4 19,-3 33,6 33,24 0,11 -4,23 -6,33 -20,4 -34,3 -44,-13 -8,-11 -23,-11 -34,-4 -13,8 -17,21 -9,33 5,7 10,13 17,18 24,22 54,22 82,14 27,-7 38,-29 43,-52 8,-34 3,-66 -26,-89zm65 69c5,17 12,37 26,54 33,42 93,38 118,-11 24,-48 27,-99 14,-150 -8,-31 -29,-52 -60,-60 -9,-2 -19,-2 -29,1 -29,9 -51,30 -63,60 -14,33 -14,68 -6,106zm110 -88c7,35 4,67 -7,98 -1,4 -4,8 -6,12 -8,11 -21,11 -29,2 -3,-4 -5,-6 -7,-10 -16,-33 -20,-66 -7,-101 4,-9 12,-18 20,-24 14,-8 25,-3 32,12 3,4 3,9 4,11zm192 6c-10,1 -19,2 -27,2 -11,0 -20,-1 -30,-1 0,-10 0,-18 0,-27 0,-15 0,-30 -2,-45 -1,-13 -10,-22 -21,-23 -12,-1 -23,7 -27,18 -1,6 -1,10 -1,16 0,45 0,89 0,134 0,19 -1,39 0,58 0,13 7,22 17,24 12,4 24,-1 29,-13 3,-5 3,-12 3,-19 2,-23 3,-46 3,-70 19,-1 38,-2 58,-3 0,12 0,23 2,33 0,15 0,30 1,44 1,15 15,26 27,24 14,-1 23,-12 23,-27 -1,-44 -2,-90 -2,-135 -1,-20 -1,-41 -2,-60 -1,-13 -12,-20 -23,-21 -12,0 -22,8 -26,21 0,4 0,10 0,15 0,18 -1,35 -2,55zm189 0c-10,1 -19,2 -27,2 -11,0 -20,-1 -30,-1 0,-10 0,-18 0,-27 0,-15 0,-30 -2,-45 -1,-13 -10,-22 -21,-23 -12,-1 -23,7 -27,18 -1,6 -1,10 -1,16 0,45 0,89 0,134 0,19 -1,39 0,58 0,13 7,22 17,24 12,4 24,-1 29,-13 3,-5 3,-12 3,-19 2,-23 3,-46 3,-70 19,-1 38,-2 58,-3 0,12 0,23 2,33 0,15 0,30 1,44 1,15 15,26 27,24 14,-1 23,-12 23,-27 -1,-44 -2,-90 -2,-135 -1,-20 -1,-41 -2,-60 -1,-13 -12,-20 -23,-21 -12,0 -22,8 -26,21 0,4 0,10 0,15 0,18 -1,35 -2,55zm84 82c5,17 12,37 26,54 33,42 93,38 118,-11 24,-48 27,-99 14,-150 -8,-31 -29,-52 -60,-60 -9,-2 -19,-2 -29,1 -29,9 -51,30 -63,60 -14,33 -14,68 -6,106zm110 -88c7,35 4,67 -7,98 -1,4 -4,8 -6,12 -8,11 -21,11 -29,2 -3,-4 -5,-6 -7,-10 -16,-33 -20,-66 -7,-101 4,-9 12,-18 20,-24 14,-8 25,-3 32,12 3,4 3,9 4,11zm188 -156c-13,1 -18,-5 -22,-13 -6,-9 -18,-12 -27,-9 -8,5 -14,14 -12,24 1,5 3,10 5,14 13,22 33,29 57,28 23,-2 38,-17 45,-43 4,-13 0,-23 -11,-28 -11,-5 -23,-1 -29,12 -3,4 -4,10 -6,15zm-50 214c-1,0 -2,-1 -3,-1 1,-26 2,-51 2,-77 1,-18 2,-35 1,-52 0,-13 -10,-21 -23,-22 -13,-1 -24,6 -28,19 -1,5 -1,11 -2,17 -1,48 -3,95 -4,143 -2,15 0,31 2,48 4,24 27,34 49,21 8,-4 15,-11 21,-19 14,-22 26,-44 39,-66 5,-7 8,-13 12,-20 4,16 4,31 4,44 0,17 0,32 0,46 0,17 8,27 22,28 14,2 28,-7 31,-22 1,-6 1,-11 1,-16 1,-46 1,-92 3,-138 0,-10 0,-21 0,-31 0,-14 -7,-25 -21,-30 -13,-6 -24,0 -33,10 -11,13 -22,27 -32,42 -14,25 -27,50 -41,76zm421 0c-1,0 -2,-1 -3,-1 1,-26 2,-51 2,-77 1,-18 2,-35 1,-52 0,-13 -10,-21 -23,-22 -12,-1 -24,6 -27,19 -2,5 -2,11 -3,17 -1,48 -3,95 -4,143 -1,15 0,31 2,48 5,24 28,34 49,21 9,-4 15,-11 21,-19 14,-22 27,-44 39,-66 5,-7 8,-13 12,-20 4,16 4,31 4,44 0,17 0,32 0,46 0,17 8,27 22,28 14,2 28,-7 31,-22 1,-6 1,-11 1,-16 2,-46 2,-92 3,-138 0,-10 0,-21 0,-31 0,-14 -7,-25 -21,-30 -13,-6 -24,0 -33,10 -11,13 -22,27 -31,42 -15,25 -28,50 -42,76zm150 -16c1,23 1,41 2,61 2,16 3,32 6,48 2,15 17,24 32,22 14,-4 22,-15 21,-31 -2,-35 -6,-68 -7,-103 -1,-20 1,-42 2,-63 2,-14 7,-18 20,-16 7,1 14,6 20,9 19,11 40,-1 40,-23 0,-14 -6,-26 -20,-31 -11,-4 -24,-7 -37,-8 -41,-5 -72,21 -75,63 -3,25 -3,50 -4,72zm218 125c9,0 17,1 26,0 33,-1 76,-21 88,-68 4,-20 9,-43 8,-65 0,-30 -9,-58 -32,-79 -30,-27 -66,-38 -106,-32 -22,2 -30,11 -35,32 -1,5 -1,10 -1,14 -10,105 -3,210 0,314 1,6 2,13 5,19 8,15 30,18 40,5 6,-5 8,-15 8,-21 1,-19 -1,-37 -1,-54 -1,-21 0,-41 0,-65zm-5 -52c1,-48 4,-93 5,-137 30,-5 56,10 64,35 9,26 5,53 -5,79 -5,13 -17,19 -29,21 -9,1 -20,1 -35,2zm205 -41c3,-1 5,-1 7,-2 11,0 20,0 30,-2 12,-1 24,-2 36,-4 22,-6 37,-23 39,-46 5,-37 -20,-77 -54,-90 -11,-3 -23,-6 -35,-3 -40,8 -66,33 -74,73 -9,35 -2,68 9,102 6,20 17,36 33,51 13,13 29,19 47,16 45,-3 75,-35 88,-73 3,-12 -3,-22 -13,-28 -10,-4 -22,-1 -29,9 -3,6 -7,12 -9,18 -7,11 -16,19 -29,25 -11,5 -19,3 -28,-6 -10,-11 -17,-24 -18,-40zm-7 -48c0,-22 6,-40 26,-49 18,-8 31,-3 40,13 2,6 5,11 6,18 1,8 -3,13 -11,14 -20,1 -40,2 -61,4zm-3533 517c4,10 7,17 9,23 7,22 14,43 21,64 7,17 20,23 35,19 15,-4 21,-17 16,-34 -13,-36 -26,-70 -39,-106 -4,-8 -3,-14 3,-21 10,-12 20,-26 29,-40 4,-6 7,-12 9,-17 5,-13 0,-24 -11,-30 -12,-7 -25,-5 -34,6 -2,2 -3,5 -6,8 -15,20 -31,42 -46,63 -2,2 -5,4 -11,10 0,-12 0,-22 0,-31 0,-14 1,-27 -1,-40 -1,-14 -13,-22 -26,-22 -12,0 -24,9 -26,22 -1,4 0,10 0,15 -1,44 -1,86 -1,129 0,20 0,42 2,63 2,16 15,25 30,23 14,-1 23,-12 23,-28 0,-10 -1,-20 -2,-31 -3,-20 9,-32 26,-45zm257 -93c0,11 1,19 0,27 -3,42 -7,84 -9,126 -1,9 -1,19 1,27 2,12 14,20 25,20 13,-1 23,-9 26,-21 1,-4 1,-7 1,-11 3,-48 7,-96 9,-145 1,-14 0,-29 -2,-42 -4,-19 -16,-33 -35,-33 -27,-1 -56,-1 -84,3 -21,2 -30,16 -31,35 -1,7 -1,13 -1,20 1,20 1,40 1,60 0,23 -2,45 -10,67 -6,0 -9,-2 -14,-2 -20,2 -31,19 -25,37 7,26 40,38 62,22 8,-7 17,-16 20,-25 9,-20 15,-39 18,-60 3,-27 1,-53 2,-81 0,-7 0,-15 0,-24 16,0 29,0 46,0zm157 194c-12,26 -23,56 -44,80 -8,10 -16,20 -23,30 -8,14 -5,29 7,37 11,9 26,7 37,-6 23,-29 45,-58 60,-92 31,-68 53,-139 74,-211 3,-6 4,-13 3,-20 0,-12 -8,-21 -18,-23 -10,-4 -19,-1 -26,7 -5,4 -7,10 -9,16 -12,37 -22,73 -34,109 -1,6 -4,10 -6,16 -20,-15 -32,-33 -38,-54 -8,-23 -12,-46 -11,-70 1,-14 -7,-24 -19,-27 -12,-2 -25,4 -30,15 -3,5 -4,11 -4,16 0,45 7,89 35,126 12,17 30,32 46,51zm198 -242c-2,-45 15,-83 52,-109 12,-10 27,-15 42,-21 18,-6 26,-16 23,-31 -3,-15 -15,-23 -33,-21 -8,1 -16,2 -22,6 -56,25 -99,65 -111,128 -6,30 -7,61 -7,90 1,55 5,107 8,160 1,35 25,51 58,40 13,-5 26,-12 37,-19 44,-25 65,-65 65,-115 0,-31 -12,-57 -37,-78 -22,-17 -47,-25 -75,-30zm-2 57c37,-1 61,22 61,55 -1,34 -19,58 -53,73 -6,-44 -6,-86 -8,-128zm289 90c1,11 1,16 1,21 1,18 2,36 5,54 1,15 11,23 24,23 15,1 25,-8 27,-23 0,-9 -1,-18 -1,-27 0,-26 -1,-52 -1,-79 0,-16 1,-33 0,-49 0,-10 -5,-20 -9,-27 -7,-9 -16,-15 -24,-23 -16,-14 -34,-21 -56,-19 -26,1 -49,10 -69,28 -46,41 -56,94 -46,151 7,42 48,59 82,37 13,-8 23,-17 32,-27 12,-11 21,-24 35,-40zm-96 19c-4,-37 -3,-72 27,-98 8,-7 19,-13 30,-16 11,-5 22,0 30,11 -25,37 -48,77 -87,103zm557 -96c13,-16 23,-29 34,-42 9,-12 17,-22 25,-34 7,-12 4,-25 -6,-34 -9,-7 -22,-8 -32,0 -5,3 -8,8 -12,11 -19,25 -39,51 -58,76 -19,27 -15,48 12,65 15,9 33,16 49,23 10,4 22,0 27,-10 7,-8 10,-19 3,-28 -5,-6 -12,-12 -19,-17 -7,-3 -14,-5 -23,-10zm93 -21c3,-4 4,-7 6,-9 6,-6 13,-12 19,-19 4,-5 9,-10 13,-15 10,-12 10,-27 0,-36 -9,-9 -23,-11 -33,-2 -25,20 -48,43 -63,72 -6,11 -8,24 1,31 23,19 47,37 72,52 13,8 30,-2 35,-17 6,-14 -1,-26 -15,-34 -12,-6 -23,-15 -35,-23zm143 -24c6,-26 18,-46 35,-60 10,-9 22,-16 38,-10 11,5 24,-2 29,-14 5,-11 3,-25 -7,-33 -6,-5 -12,-8 -19,-10 -15,-4 -30,-3 -45,4 -33,16 -57,43 -72,77 -25,61 -25,122 -5,183 6,17 16,34 28,47 37,44 93,36 117,-16 12,-24 18,-48 15,-75 -4,-51 -34,-93 -91,-93 -7,0 -13,0 -23,0zm61 110c-2,8 -4,21 -10,33 -6,15 -17,17 -28,6 -7,-7 -12,-15 -15,-23 -5,-16 -10,-34 -13,-51 -3,-14 2,-16 13,-18 33,-6 53,13 53,53zm78 -74c2,18 3,36 5,54 2,11 5,23 9,34 5,22 16,43 31,60 31,35 74,36 105,3 13,-14 25,-30 31,-46 22,-44 30,-91 23,-140 -6,-48 -24,-90 -70,-116 -35,-19 -79,-16 -103,23 -6,11 -11,21 -15,32 -12,31 -15,64 -16,96zm154 -5c-4,41 -9,79 -36,112 -15,19 -27,18 -40,-5 -7,-14 -14,-28 -17,-43 -10,-40 -8,-79 0,-118 1,-8 4,-17 8,-25 9,-23 30,-29 49,-14 9,8 16,19 22,29 6,10 8,22 10,33 3,11 3,21 4,31zm301 72c4,16 5,32 11,48 11,39 48,63 92,64 38,0 80,-27 93,-62 5,-15 1,-27 -12,-34 -11,-7 -25,-4 -34,8 -5,7 -8,14 -13,19 -12,14 -30,19 -47,14 -17,-3 -28,-16 -31,-32 -5,-20 -5,-39 0,-58 5,-17 14,-31 28,-41 11,-9 23,-8 32,3 4,4 7,10 10,14 9,13 26,18 38,9 13,-8 16,-23 7,-38 -7,-11 -15,-21 -25,-29 -28,-25 -65,-25 -93,-3 -38,30 -54,70 -56,118zm277 26c2,-1 4,-1 7,-2 10,0 19,0 30,-1 11,-2 24,-3 35,-5 22,-6 37,-23 39,-46 5,-37 -19,-77 -54,-90 -10,-3 -23,-5 -34,-3 -40,8 -67,33 -75,73 -8,35 -1,68 9,102 6,20 17,37 34,51 12,13 28,19 47,17 45,-4 75,-36 87,-74 4,-12 -2,-22 -12,-28 -11,-4 -22,-1 -29,10 -4,5 -7,11 -9,17 -7,11 -17,19 -29,25 -12,5 -20,4 -29,-6 -9,-11 -16,-24 -17,-40zm-7 -48c0,-22 6,-39 25,-49 19,-8 31,-3 40,13 3,6 5,12 6,19 1,8 -2,12 -10,13 -21,1 -40,3 -61,4zm236 35c3,10 7,17 9,23 7,22 14,43 21,64 7,17 20,23 34,19 15,-4 22,-17 17,-34 -13,-36 -26,-70 -40,-106 -3,-8 -2,-14 4,-21 10,-12 19,-26 29,-40 4,-6 7,-12 9,-17 4,-13 0,-24 -12,-30 -11,-7 -24,-5 -33,6 -2,2 -3,5 -6,8 -15,20 -31,42 -46,63 -2,2 -6,4 -11,10 0,-12 0,-22 0,-31 0,-14 1,-27 -1,-40 -2,-14 -13,-22 -26,-22 -12,0 -24,9 -26,22 -1,4 0,10 0,15 -1,44 -1,86 -1,129 0,20 0,42 2,63 2,16 15,25 30,23 14,-1 23,-12 23,-28 0,-10 -1,-20 -2,-31 -3,-20 9,-32 26,-45zm190 101c-11,26 -23,56 -44,80 -8,10 -16,20 -23,30 -8,14 -4,29 7,37 12,9 27,7 37,-6 23,-29 45,-57 60,-92 31,-68 53,-139 75,-211 2,-6 3,-13 2,-20 0,-12 -8,-21 -17,-23 -11,-4 -20,-1 -27,7 -4,4 -7,10 -9,16 -11,37 -22,73 -33,109 -1,6 -5,10 -7,16 -20,-15 -31,-33 -38,-54 -8,-23 -12,-46 -10,-70 1,-14 -7,-24 -20,-27 -12,-2 -24,4 -30,15 -2,5 -3,11 -3,17 0,44 7,88 34,125 13,17 30,32 46,51z"/>
     <path class="fil1" d="M3613 2194c-10,1 -19,3 -27,3 -11,0 -20,-2 -30,-2 0,-10 0,-18 0,-27 0,-15 0,-30 -1,-45 -1,-13 -11,-22 -22,-23 -12,-1 -23,7 -27,18 -1,6 -1,11 -1,16 0,45 0,89 0,134 0,19 -1,39 0,59 0,12 7,21 18,24 11,3 24,-1 28,-14 4,-5 4,-12 4,-19 1,-23 2,-46 2,-70 20,-1 38,-2 59,-3 0,12 0,23 1,33 0,15 0,30 1,44 1,15 15,26 28,24 13,-1 23,-11 23,-26 -1,-45 -3,-91 -3,-136 -1,-20 -1,-40 -2,-60 -1,-13 -11,-20 -23,-21 -11,0 -22,8 -25,21 0,5 0,10 0,15 0,18 -1,36 -3,55zm270 106c-1,-3 -1,-7 -1,-9 1,-32 1,-63 1,-94 0,-17 0,-33 -4,-49 -10,-46 -59,-62 -97,-34 -23,17 -36,40 -39,69 -2,12 -3,25 -4,37 -1,29 -3,58 -4,88 -6,2 -12,2 -17,5 -25,8 -32,16 -29,41 1,15 8,23 19,25 12,3 20,-2 27,-16 2,-5 5,-9 11,-9 3,-1 8,-1 13,-1 32,-1 64,-2 96,-2 5,0 10,3 12,5 8,8 17,11 26,6 10,-3 15,-11 16,-22 3,-20 -3,-31 -26,-40zm-48 2c-18,2 -35,2 -52,3 -1,-8 -1,-14 -1,-20 2,-33 4,-65 7,-99 1,-16 10,-29 24,-37 10,-5 18,-2 22,10 2,8 2,17 2,25 0,37 -1,75 -1,111 0,3 -1,5 -1,7zm136 61c13,0 25,-12 25,-26 0,-15 -13,-27 -28,-25 -13,0 -24,11 -24,25 0,14 12,26 27,26zm-3508 233c0,-7 -1,-12 -1,-15 0,-37 0,-73 0,-108 0,-6 -1,-12 -2,-18 -3,-11 -12,-19 -22,-20 -13,-1 -23,6 -28,18 -2,5 -2,11 -2,16 0,84 1,168 1,251 0,16 1,79 3,94 2,14 13,22 27,21 12,0 22,-9 24,-23 1,-4 1,-9 0,-15 0,-27 0,-103 0,-132 0,-5 0,-9 1,-14 35,1 68,1 104,2 1,43 1,83 2,125 0,5 -1,12 0,18 2,15 15,25 29,24 14,-1 23,-10 24,-26 0,-5 0,-9 0,-14 0,-51 -1,-101 -1,-152 1,-51 3,-101 4,-152 0,-7 0,-12 -1,-18 -3,-14 -12,-21 -25,-21 -12,0 -23,7 -25,20 -3,5 -2,11 -3,17 0,33 -1,68 -1,101 -1,7 -2,15 -2,23 -36,-1 -70,-1 -106,-2zm246 132c-1,0 -2,-1 -3,-1 1,-25 2,-51 2,-77 1,-17 3,-35 1,-52 0,-13 -10,-21 -23,-22 -12,-1 -24,6 -27,20 -1,4 -1,10 -2,16 -2,48 -4,95 -5,144 -1,15 0,31 2,47 5,24 28,34 50,22 8,-5 15,-12 20,-20 14,-22 27,-43 40,-65 4,-7 8,-14 11,-21 5,16 5,31 5,45 0,16 0,31 0,46 0,16 8,26 22,27 13,3 27,-6 31,-21 1,-6 1,-12 1,-17 1,-46 1,-92 2,-138 0,-10 0,-20 0,-31 0,-13 -7,-25 -21,-30 -12,-5 -24,0 -33,11 -10,12 -22,26 -31,41 -15,26 -28,51 -42,76zm239 -14c14,4 17,12 16,25 -2,24 -3,49 -3,73 -2,15 8,24 20,27 12,1 23,-7 27,-20 1,-7 1,-13 2,-20 0,-14 1,-29 2,-46 0,-3 2,-9 4,-11 7,-7 16,-14 25,-21 2,6 5,9 6,14 9,25 19,51 29,77 4,12 15,20 25,17 13,-1 21,-10 22,-23 0,-5 -1,-12 -4,-17 -10,-27 -19,-56 -32,-84 -9,-19 -11,-37 5,-54 8,-9 14,-21 18,-31 7,-16 -1,-32 -16,-35 -13,-2 -21,4 -28,14 -11,18 -21,36 -33,53 -5,6 -7,13 -16,17 0,-6 0,-12 0,-17 1,-14 2,-29 3,-43 0,-17 -9,-28 -23,-28 -13,-1 -24,9 -26,25 -1,14 -1,28 -2,42 -1,3 -3,8 -4,15 -15,-18 -27,-33 -40,-48 -8,-8 -14,-17 -22,-25 -9,-10 -22,-11 -32,-5 -9,9 -13,22 -7,34 2,4 7,8 10,13 13,14 24,29 37,46 -22,36 -34,75 -45,117 -3,16 3,29 15,32 14,5 26,-2 31,-17 4,-9 6,-19 8,-28 7,-24 15,-47 28,-68zm311 -38c-10,2 -20,3 -28,3 -10,0 -19,-1 -30,-1 0,-11 0,-19 0,-28 0,-15 0,-30 -1,-45 -1,-13 -10,-22 -22,-23 -11,-1 -23,7 -26,18 -1,6 -1,11 -1,17 0,44 0,88 0,133 0,20 -1,39 0,59 0,12 7,22 17,24 11,3 24,-1 29,-14 3,-5 3,-11 3,-18 1,-23 3,-46 3,-71 19,-1 37,-2 58,-3 0,13 0,23 1,33 0,15 0,30 1,44 2,15 15,27 28,24 14,-1 23,-11 23,-26 -1,-45 -2,-91 -2,-136 -1,-20 -1,-40 -2,-60 -2,-12 -12,-19 -24,-21 -11,0 -21,9 -25,21 0,5 0,11 0,15 0,19 -1,36 -2,55zm135 52c-1,0 -3,-1 -4,-1 1,-25 3,-51 3,-77 1,-17 2,-35 1,-52 0,-13 -11,-21 -23,-22 -13,-1 -24,6 -28,20 -1,4 -1,10 -2,16 -1,48 -4,95 -5,144 -1,15 0,31 3,47 4,24 27,34 49,22 8,-5 15,-12 21,-20 14,-22 26,-43 39,-65 4,-7 8,-14 11,-21 5,16 5,31 5,45 0,16 0,31 0,46 0,16 8,26 22,27 14,3 27,-6 31,-21 1,-6 1,-12 1,-17 1,-46 1,-92 2,-138 0,-10 0,-20 0,-31 0,-13 -7,-25 -20,-30 -13,-5 -25,0 -34,11 -10,12 -22,26 -31,41 -15,26 -27,51 -41,76zm258 -214c-13,1 -17,-4 -22,-12 -6,-10 -17,-13 -27,-10 -8,5 -13,14 -12,24 1,5 3,11 6,14 12,22 32,29 56,28 23,-1 38,-16 45,-43 4,-12 0,-23 -11,-27 -11,-6 -23,-1 -28,11 -4,5 -5,11 -7,15zm-50 214c-1,0 -2,-1 -3,-1 1,-25 2,-51 2,-77 1,-17 2,-35 1,-52 0,-12 -10,-21 -23,-22 -12,-1 -24,6 -27,20 -1,4 -1,10 -3,16 -1,48 -3,95 -4,144 -1,15 0,31 2,47 5,24 28,34 50,22 8,-5 15,-12 20,-20 14,-22 27,-43 39,-65 5,-7 8,-14 12,-21 5,16 5,31 5,45 0,16 0,31 0,46 0,16 8,26 21,27 14,3 28,-6 31,-21 2,-6 2,-12 2,-17 1,-46 1,-92 2,-138 0,-10 0,-20 0,-31 0,-13 -7,-25 -21,-30 -12,-5 -24,0 -33,11 -11,12 -22,26 -31,41 -15,26 -28,51 -42,76zm557 -132c0,-7 -1,-12 -1,-15 0,-37 0,-73 0,-108 0,-6 -1,-12 -2,-17 -3,-12 -12,-20 -22,-21 -13,-1 -23,6 -28,18 -2,5 -2,11 -2,16 0,84 1,168 1,251 0,16 1,79 4,94 1,14 12,22 26,21 13,0 22,-9 24,-23 1,-4 1,-9 0,-15 0,-27 0,-103 0,-132 0,-5 0,-9 1,-14 35,1 68,1 104,2 1,43 1,83 2,125 0,5 -1,12 0,18 3,15 15,25 29,24 14,-1 23,-10 24,-26 0,-5 0,-9 0,-14 0,-51 -1,-101 -1,-152 1,-51 3,-101 5,-152 0,-7 0,-12 -2,-18 -3,-14 -12,-21 -25,-21 -11,0 -23,7 -25,20 -2,5 -1,11 -2,17 0,33 -2,68 -2,101 -1,7 -2,15 -2,23 -36,-1 -70,-1 -106,-2zm196 162c5,17 12,37 25,54 34,43 94,38 119,-10 24,-49 26,-99 14,-151 -8,-31 -29,-52 -60,-60 -9,-2 -20,-2 -29,1 -30,10 -52,30 -63,60 -14,34 -14,68 -6,106zm109 -87c7,34 5,66 -6,97 -2,4 -4,8 -6,12 -8,11 -21,11 -29,2 -3,-3 -6,-6 -7,-10 -16,-32 -21,-66 -7,-100 4,-9 12,-19 20,-24 14,-8 25,-4 32,11 2,5 2,9 3,12zm211 20c12,-16 18,-31 14,-49 -6,-30 -33,-53 -69,-58 -15,-2 -30,-3 -45,-3 -21,0 -32,11 -32,31 2,59 1,116 1,175 0,31 13,44 45,46 10,1 22,2 32,2 38,-2 73,-13 96,-42 24,-33 15,-72 -21,-91 -6,-4 -13,-6 -21,-11zm-81 94c1,-18 2,-34 2,-52 26,-6 50,-3 75,10 11,6 13,14 3,23 -7,7 -16,13 -25,16 -16,6 -35,7 -55,3zm0 -105c0,-16 0,-31 1,-48 14,-4 26,-2 38,8 10,8 10,16 0,24 -11,7 -23,12 -35,19 -1,-1 -2,-2 -4,-3zm157 32c2,23 2,41 3,61 1,16 2,32 6,48 2,15 17,25 32,22 14,-3 22,-15 20,-31 -2,-34 -5,-68 -6,-102 -2,-21 1,-43 2,-64 1,-13 7,-18 19,-16 7,2 14,6 20,10 20,10 40,-2 40,-23 0,-14 -6,-27 -19,-31 -12,-5 -24,-7 -37,-9 -42,-4 -73,21 -76,64 -2,24 -2,49 -4,71zm168 46c4,17 11,37 25,54 33,43 93,38 118,-10 25,-49 27,-99 14,-151 -8,-31 -29,-52 -60,-60 -9,-2 -19,-2 -28,1 -30,10 -52,30 -64,60 -13,34 -13,68 -5,106zm109 -87c7,34 5,66 -7,97 -1,4 -3,8 -6,12 -8,11 -20,11 -29,2 -3,-3 -5,-6 -6,-10 -17,-32 -21,-66 -7,-100 3,-9 11,-19 19,-24 14,-8 26,-4 32,11 3,5 3,9 4,12zm138 166c9,0 18,2 27,0 32,-1 76,-20 87,-67 5,-21 9,-44 8,-66 0,-30 -9,-58 -32,-78 -30,-28 -66,-38 -106,-32 -22,2 -30,10 -34,32 -1,4 -1,9 -1,14 -11,104 -4,209 0,314 1,5 2,12 4,18 8,15 30,18 40,6 6,-6 8,-15 8,-22 2,-18 -1,-37 -1,-54 -1,-21 0,-40 0,-65zm-4 -51c1,-49 3,-94 4,-137 30,-6 57,9 65,34 9,27 4,53 -6,80 -5,12 -16,18 -29,20 -9,2 -19,2 -34,3zm156 -28c5,17 12,37 26,54 33,43 93,38 118,-10 24,-49 27,-99 14,-151 -8,-31 -29,-52 -60,-60 -9,-2 -19,-2 -29,1 -29,10 -51,30 -63,60 -14,34 -14,68 -6,106zm110 -87c7,34 4,66 -7,97 -1,4 -4,8 -6,12 -8,11 -21,11 -29,2 -3,-3 -5,-6 -7,-10 -16,-32 -20,-66 -6,-100 3,-9 11,-19 19,-24 14,-8 25,-4 32,11 3,5 3,9 4,12zm273 111c-1,-3 -1,-7 -1,-9 1,-32 1,-63 1,-94 0,-16 0,-33 -4,-49 -10,-46 -60,-62 -98,-34 -23,17 -35,40 -39,69 -1,13 -2,25 -3,37 -1,30 -4,58 -5,88 -5,3 -11,3 -16,5 -25,8 -32,16 -30,41 1,15 8,23 20,26 11,2 19,-3 26,-16 3,-6 6,-10 12,-10 3,-1 8,-1 12,-1 33,-1 65,-2 97,-2 5,0 9,3 12,6 8,8 17,10 26,5 9,-3 15,-11 16,-22 2,-20 -3,-31 -26,-40zm-49 3c-17,1 -34,1 -51,2 -2,-8 -2,-14 -2,-20 3,-33 5,-65 7,-99 2,-16 11,-28 25,-36 10,-6 18,-3 21,9 3,8 3,17 3,25 0,37 -1,75 -1,112 0,2 -2,4 -2,7zm241 -132c-14,19 -26,35 -39,52 -13,16 -7,38 12,43 10,3 19,0 26,-7 23,-22 40,-47 53,-76 7,-14 5,-29 -6,-39 -22,-23 -45,-46 -69,-67 -14,-11 -33,-3 -39,14 -2,4 -2,10 -3,18 -11,-9 -19,-17 -27,-24 -10,-11 -24,-13 -36,-5 -11,10 -13,26 -5,38 3,6 10,11 16,17 11,10 24,20 37,32 -6,6 -10,10 -13,15 -13,15 -27,30 -39,45 -12,16 -9,32 3,41 13,9 30,3 39,-9 15,-19 31,-36 48,-53 15,-15 26,-29 20,-55 9,8 15,13 22,20z"/>
    </g>
    <path class="fil2" d="M2912 3200c-36,-49 -172,-61 -301,-75 -129,-14 -340,0 -419,0 -79,0 -72,55 -336,24 -264,-30 -304,-26 -294,12 9,39 -22,149 -1,183 20,34 200,76 304,76 105,0 387,-22 494,-28 108,-5 241,-48 311,-29 69,19 175,28 193,22 18,-5 49,-185 49,-185z"/>
    <path class="fil1" d="M1799 3234c0,3 1,6 1,8 -1,14 -1,28 -2,41 0,7 0,14 0,21 0,7 4,10 10,11 6,0 10,-4 11,-11 0,0 0,-1 0,-3 0,-20 1,-39 2,-59 0,-5 -1,-10 -2,-15 -2,-9 -7,-14 -17,-14 -7,0 -14,-1 -21,0 -5,0 -10,2 -15,3 -7,3 -11,9 -12,16 0,4 -1,9 -1,13 -1,13 -1,26 -1,39 -1,7 -1,15 -1,22 0,5 4,10 9,11 5,0 10,-3 11,-9 1,-2 1,-4 1,-6 1,-14 1,-29 1,-43 0,-8 1,-16 1,-24 9,-2 17,-1 25,-1zm86 84c4,0 7,0 11,0 13,-1 31,-9 36,-28 2,-9 4,-18 3,-27 0,-12 -3,-24 -13,-32 -12,-12 -27,-16 -43,-13 -9,0 -12,4 -14,13 -1,2 -1,4 -1,5 -4,43 -1,86 0,129 1,3 1,5 2,8 3,6 12,7 17,2 2,-2 3,-6 3,-9 0,-7 -1,-15 -1,-22 0,-8 0,-16 0,-26zm-2 -22c1,-19 2,-38 2,-56 13,-2 24,4 27,14 4,11 2,22 -3,33 -1,5 -6,7 -11,8 -4,1 -8,1 -15,1zm95 -11c2,7 5,15 11,22 13,18 38,16 48,-4 10,-20 11,-41 6,-62 -3,-13 -12,-21 -24,-24 -4,-1 -8,-1 -12,0 -13,4 -22,12 -26,25 -6,13 -6,27 -3,43zm45 -36c3,14 2,28 -3,40 0,2 -1,4 -2,5 -3,5 -8,5 -12,1 -1,-1 -2,-2 -3,-4 -6,-14 -8,-27 -2,-41 1,-4 4,-8 8,-10 5,-4 10,-2 13,4 1,2 1,4 1,5zm115 25c-1,-4 -3,-6 -3,-9 -4,-12 -7,-23 -11,-35 -1,-4 -3,-9 -6,-12 -6,-8 -15,-7 -20,1 -2,3 -3,6 -3,9 -2,7 -3,16 -4,24 -2,17 -3,35 -4,53 -1,8 3,13 9,14 6,0 10,-4 11,-11 1,-7 1,-14 2,-20 1,-8 1,-16 2,-24 2,2 3,5 4,7 3,8 6,16 10,25 3,6 6,12 14,12 8,0 11,-5 13,-12 4,-11 7,-23 11,-35 0,-2 1,-4 2,-7 1,2 2,3 2,5 1,15 1,31 2,46 0,7 4,12 11,12 5,-1 9,-6 9,-13 0,-22 -1,-45 -2,-69 0,-4 -2,-8 -4,-12 -3,-8 -11,-11 -18,-7 -4,2 -7,5 -10,9 -3,5 -6,11 -8,18 -3,9 -6,19 -9,31zm95 11c2,7 5,15 11,22 13,18 38,16 48,-4 10,-20 11,-41 6,-62 -3,-13 -12,-21 -24,-24 -4,-1 -9,-1 -12,0 -13,4 -22,12 -26,25 -6,13 -6,27 -3,43zm45 -36c3,14 2,28 -3,40 0,2 -1,4 -2,5 -3,5 -8,5 -12,1 -1,-1 -2,-2 -3,-4 -6,-14 -8,-27 -2,-41 1,-4 4,-8 8,-10 5,-4 10,-2 13,4 1,2 1,4 1,5zm96 25c1,4 2,7 3,10 3,9 6,17 9,26 3,7 8,9 14,8 6,-2 9,-7 7,-15 -6,-14 -11,-28 -16,-43 -2,-3 -1,-6 1,-8 4,-6 8,-11 12,-17 2,-2 3,-5 4,-7 2,-5 0,-10 -5,-12 -5,-3 -10,-2 -14,2 -1,1 -1,2 -2,3 -6,9 -13,18 -19,26 -1,1 -2,2 -5,5 0,-6 0,-9 0,-13 0,-6 1,-12 0,-17 -1,-5 -5,-9 -11,-9 -5,0 -10,4 -10,9 -1,2 0,5 0,6 -1,18 -1,36 -1,53 0,9 0,18 1,26 1,7 6,11 12,10 6,-1 10,-5 10,-12 0,-4 -1,-8 -1,-12 -1,-9 4,-14 11,-19zm78 11c2,7 5,15 10,22 14,18 39,16 49,-4 10,-20 11,-41 6,-62 -4,-13 -12,-21 -25,-24 -4,-1 -8,-1 -12,0 -12,4 -21,12 -26,25 -5,13 -5,27 -2,43zm45 -36c3,14 2,28 -3,40 0,2 -1,4 -2,5 -4,5 -9,5 -12,1 -2,-1 -2,-2 -3,-4 -7,-14 -8,-27 -3,-41 2,-4 5,-8 8,-10 6,-4 11,-2 13,4 1,2 1,4 2,5zm142 46c0,-1 0,-3 0,-4 0,-13 0,-26 0,-39 0,-6 0,-13 -1,-19 -4,-19 -24,-26 -40,-15 -10,8 -15,17 -16,29 -1,5 -1,10 -2,15 0,12 -1,24 -1,36 -3,1 -5,1 -7,2 -10,3 -13,7 -12,17 0,6 3,10 8,11 4,0 8,-1 11,-7 1,-2 2,-4 4,-4 2,0 4,0 5,0 14,-1 27,-1 40,-1 2,0 4,1 5,2 3,3 7,4 11,2 3,-1 6,-4 6,-9 1,-8 -1,-12 -11,-16zm-19 1c-7,0 -15,0 -22,1 0,-3 0,-6 0,-8 1,-14 2,-27 3,-41 0,-6 4,-12 10,-15 4,-2 7,-1 9,4 1,3 1,7 1,10 0,15 -1,31 -1,46 0,1 0,2 0,3zm84 15c6,0 11,-5 11,-11 0,-6 -5,-12 -11,-12 -6,0 -12,6 -12,12 0,5 6,11 12,11zm2 -55c5,1 10,-4 10,-10 0,-6 -4,-11 -10,-11 -6,0 -11,4 -11,10 0,7 4,11 11,11z"/>
    <path class="fil1" d="M916 3622c5,-9 12,-19 16,-30 12,-33 6,-69 -16,-89 -22,-18 -48,-24 -75,-18 -7,1 -14,3 -20,4 -18,5 -25,13 -25,31 -2,58 -6,116 -7,175 0,40 3,81 4,121 1,20 20,37 38,36 17,0 36,-1 54,-3 45,-7 78,-28 91,-73 4,-15 6,-33 6,-48 -2,-28 -5,-55 -26,-76 -12,-11 -26,-19 -40,-30zm-77 180c0,-34 0,-66 -1,-97 0,-9 4,-15 13,-20 15,-7 32,-10 49,-10 11,0 19,5 23,16 13,26 15,53 3,81 -7,16 -21,24 -36,26 -16,3 -32,2 -51,4zm1 -177c1,-14 2,-24 2,-35 1,-14 2,-29 2,-44 1,-11 4,-15 17,-15 19,0 30,13 28,32 -2,14 -8,24 -16,34 -9,10 -18,19 -33,28zm225 133c-1,0 -2,-1 -3,-1 1,-23 2,-46 2,-71 1,-15 2,-31 1,-47 0,-12 -9,-19 -21,-20 -12,-1 -22,5 -25,18 -1,4 -1,9 -2,15 -1,44 -4,87 -5,131 -1,14 0,29 3,44 4,22 25,31 45,20 7,-5 14,-11 19,-18 12,-20 24,-40 36,-60 4,-7 7,-13 10,-19 4,14 4,28 4,41 0,14 0,28 0,42 0,15 8,24 20,25 13,2 26,-6 29,-20 1,-5 1,-10 1,-15 1,-42 1,-84 2,-126 0,-10 0,-19 0,-29 0,-12 -6,-23 -19,-27 -12,-5 -22,0 -30,10 -10,11 -20,24 -29,38 -14,23 -25,46 -38,69zm276 -82c0,9 1,17 0,24 -3,39 -7,77 -9,116 -1,8 -1,17 1,24 3,12 13,19 24,19 11,-1 21,-8 23,-20 1,-3 1,-6 1,-9 3,-45 6,-89 8,-133 1,-13 0,-26 -2,-39 -3,-17 -15,-30 -31,-30 -26,-1 -52,-1 -77,3 -19,2 -28,14 -29,32 -1,7 -1,12 -1,18 1,18 1,37 1,55 0,21 -2,41 -9,61 -6,0 -9,-1 -13,-1 -18,1 -28,17 -23,34 6,23 37,35 57,20 7,-7 16,-15 19,-23 7,-18 13,-36 16,-55 3,-24 1,-49 2,-74 0,-6 0,-14 0,-22 14,0 26,0 42,0zm207 0c0,9 1,17 0,24 -3,39 -6,77 -8,116 -1,8 -1,17 1,24 2,12 12,19 23,19 11,-1 21,-8 23,-20 1,-3 1,-6 1,-9 3,-45 6,-89 8,-133 2,-13 0,-26 -2,-39 -3,-17 -14,-30 -31,-30 -26,-1 -52,-1 -77,3 -19,2 -28,14 -29,32 -1,7 -1,12 -1,18 1,18 1,37 1,55 0,21 -2,41 -9,61 -5,0 -9,-1 -13,-1 -18,1 -28,17 -23,34 6,23 37,35 57,20 7,-7 16,-15 19,-23 7,-18 14,-36 16,-55 3,-24 1,-49 2,-74 0,-6 0,-14 0,-22 15,0 26,0 42,0zm211 91c1,9 1,14 1,18 2,17 3,33 5,50 1,14 10,21 22,21 14,1 23,-7 25,-21 0,-8 -1,-17 -1,-24 0,-24 -1,-49 -1,-73 0,-15 1,-31 0,-45 0,-9 -4,-18 -8,-25 -7,-8 -15,-13 -23,-21 -14,-12 -30,-19 -50,-17 -24,1 -45,9 -63,26 -43,37 -52,85 -43,138 7,38 44,54 75,34 12,-8 21,-16 30,-25 10,-10 19,-22 31,-36zm-87 16c-4,-33 -3,-65 24,-89 8,-7 18,-12 28,-15 10,-4 20,0 27,11 -22,33 -43,70 -79,93zm343 25c-1,-4 -1,-7 -1,-9 1,-29 1,-58 1,-86 0,-15 0,-30 -3,-45 -10,-42 -55,-56 -90,-31 -21,16 -32,37 -35,63 -2,12 -3,23 -4,34 -1,27 -3,54 -4,81 -5,2 -10,2 -15,4 -23,8 -29,15 -27,38 1,14 7,21 18,23 10,2 18,-2 24,-14 2,-6 5,-9 11,-9 3,-1 7,-1 11,-1 30,-1 59,-2 89,-2 4,0 8,3 10,5 8,8 16,10 25,6 8,-4 13,-11 14,-21 2,-18 -3,-28 -24,-36zm-44 2c-16,1 -32,1 -48,2 -1,-8 -1,-13 -1,-18 2,-31 5,-60 7,-91 1,-14 9,-26 22,-33 9,-6 17,-3 20,8 2,7 2,16 2,23 0,34 -1,69 -1,102 0,2 -1,5 -1,7zm172 -65c13,4 16,11 15,23 -2,22 -3,45 -3,67 -1,14 7,22 19,24 10,1 21,-6 24,-18 1,-6 1,-11 2,-18 0,-13 1,-27 2,-42 0,-3 1,-8 3,-10 7,-7 15,-13 24,-19 2,5 4,8 5,12 8,24 18,47 26,71 4,11 14,18 23,16 12,-1 19,-10 20,-21 0,-6 -1,-12 -3,-16 -9,-25 -18,-52 -29,-77 -9,-18 -11,-34 4,-50 7,-8 13,-19 17,-28 6,-15 -1,-29 -15,-32 -12,-2 -19,4 -25,13 -11,16 -20,33 -31,49 -4,5 -6,11 -15,15 0,-6 0,-11 0,-15 2,-13 3,-27 4,-41 0,-14 -9,-25 -21,-25 -13,-1 -23,9 -25,23 -1,13 -1,26 -2,38 -1,3 -2,8 -3,14 -14,-16 -25,-30 -37,-43 -7,-8 -12,-16 -20,-23 -8,-10 -20,-11 -29,-5 -9,8 -12,20 -7,31 2,4 7,7 10,12 11,13 22,27 34,42 -21,33 -32,69 -42,107 -3,15 3,27 14,30 13,4 23,-2 29,-16 3,-9 5,-17 7,-25 6,-23 14,-44 25,-63zm292 -48c0,-1 0,-1 0,-1 30,0 60,0 90,0 11,0 19,-7 24,-17 3,-12 1,-23 -10,-28 -6,-5 -15,-7 -23,-7 -20,0 -40,2 -60,2 -34,0 -68,-1 -100,-2 -14,0 -23,7 -28,18 -3,11 2,24 14,30 9,3 19,4 28,5 22,0 44,0 65,0zm214 156c-10,24 -21,52 -40,74 -7,9 -15,18 -21,27 -7,13 -4,26 6,34 11,8 25,6 34,-5 21,-27 41,-53 55,-85 28,-62 49,-127 69,-193 2,-6 3,-12 2,-19 0,-10 -8,-19 -16,-21 -10,-3 -18,-1 -24,7 -5,4 -7,9 -9,14 -10,34 -20,68 -30,101 -1,5 -5,9 -7,14 -18,-13 -28,-30 -35,-49 -7,-21 -10,-42 -9,-65 1,-12 -6,-22 -18,-24 -10,-2 -22,3 -27,14 -2,4 -3,9 -3,15 0,41 6,81 31,115 12,15 28,29 42,46zm245 -93c-3,-8 -6,-14 -7,-19 -7,-26 -15,-52 -23,-78 -3,-10 -8,-20 -14,-28 -14,-16 -35,-14 -45,3 -3,6 -6,13 -8,20 -3,17 -6,35 -7,53 -4,40 -6,80 -9,120 -3,17 6,28 20,29 13,1 23,-7 25,-24 1,-15 2,-29 4,-44 1,-18 2,-36 3,-54 6,5 8,11 10,16 7,19 15,37 22,56 6,13 15,26 32,27 16,0 25,-13 29,-27 8,-26 16,-52 24,-78 1,-4 3,-10 4,-15 4,3 5,6 5,9 2,35 3,70 4,105 1,15 10,25 24,25 13,-1 22,-12 22,-27 -2,-51 -3,-103 -6,-154 0,-10 -3,-20 -7,-29 -8,-16 -27,-23 -42,-14 -8,5 -15,11 -21,19 -7,12 -13,26 -17,40 -9,22 -14,44 -22,69zm243 -49c-9,1 -17,2 -25,2 -9,0 -18,-1 -27,-1 0,-10 0,-17 0,-26 0,-13 0,-27 -1,-41 -1,-11 -10,-20 -20,-21 -11,-1 -21,7 -25,17 -1,5 -1,10 -1,15 0,41 0,81 0,122 0,18 -1,36 0,54 0,11 7,20 16,22 11,3 22,-1 27,-13 3,-4 3,-10 3,-17 1,-21 2,-42 2,-64 18,-1 35,-2 54,-3 0,12 0,21 1,31 0,13 0,27 1,40 1,13 13,24 25,22 13,-1 21,-11 21,-24 -1,-42 -2,-84 -2,-125 -1,-18 -1,-37 -2,-55 -1,-11 -11,-18 -21,-19 -11,0 -20,8 -23,19 0,5 0,10 0,14 0,17 -2,33 -3,51zm126 47c-1,0 -2,-1 -3,-1 1,-23 2,-46 2,-71 1,-15 3,-31 1,-47 0,-12 -9,-19 -21,-20 -11,-1 -22,5 -25,18 -1,4 -1,9 -2,15 -1,44 -3,87 -4,131 -1,14 0,29 2,44 4,22 25,31 45,20 8,-5 14,-11 19,-18 13,-20 24,-40 36,-60 4,-7 7,-13 11,-19 4,14 4,28 4,41 0,14 0,28 0,42 0,15 7,24 20,25 12,2 25,-6 28,-20 1,-5 1,-10 1,-15 1,-42 1,-84 2,-126 0,-10 0,-19 0,-29 0,-12 -6,-23 -19,-27 -11,-5 -22,0 -30,10 -10,11 -20,24 -29,38 -13,23 -25,46 -38,69zm212 3c3,9 6,15 8,21 7,20 13,39 19,58 7,16 18,21 32,18 14,-4 20,-16 15,-31 -12,-33 -24,-65 -36,-97 -3,-8 -2,-13 3,-19 9,-12 18,-25 26,-37 5,-6 7,-11 9,-16 4,-12 0,-22 -11,-27 -10,-7 -22,-5 -30,5 -2,2 -3,5 -6,7 -13,19 -28,39 -42,58 -2,2 -5,4 -10,10 0,-12 0,-20 0,-29 0,-12 1,-25 -1,-37 -1,-12 -12,-20 -24,-20 -11,0 -22,9 -24,20 -1,5 0,10 0,14 -1,40 -1,79 -1,118 0,19 0,39 2,58 2,15 14,23 28,21 12,-1 21,-10 21,-25 0,-10 -1,-19 -2,-29 -2,-19 8,-29 24,-41zm155 -3c-1,0 -2,-1 -3,-1 1,-23 2,-46 2,-71 1,-15 2,-31 1,-47 0,-12 -9,-19 -21,-20 -11,-1 -22,5 -25,18 -1,4 -1,9 -2,15 -1,44 -3,87 -4,131 -1,14 0,29 2,44 4,22 25,31 45,20 8,-5 14,-11 19,-18 13,-20 24,-40 36,-60 4,-7 7,-13 11,-19 4,14 4,28 4,41 0,14 0,28 0,42 0,15 7,24 20,25 12,2 25,-6 28,-20 1,-5 1,-10 1,-15 1,-42 1,-84 2,-126 0,-10 0,-19 0,-29 0,-12 -6,-23 -19,-27 -11,-5 -22,0 -30,10 -10,11 -20,24 -29,38 -13,23 -25,46 -38,69z"/>
   </g>
  </g>
 </g>
</svg>
