<?xml version="1.0" encoding="UTF-8"?>
<!DOCTYPE svg PUBLIC "-//W3C//DTD SVG 1.1//EN" "http://www.w3.org/Graphics/SVG/1.1/DTD/svg11.dtd">
<!-- Creator: CorelDRAW X6 -->
<svg xmlns="http://www.w3.org/2000/svg" xml:space="preserve" width="45mm" height="45mm" version="1.1" style="shape-rendering:geometricPrecision; text-rendering:geometricPrecision; image-rendering:optimizeQuality; fill-rule:evenodd; clip-rule:evenodd"
viewBox="0 0 4500 4500"
 xmlns:xlink="http://www.w3.org/1999/xlink">
 <defs>
  <style type="text/css">
   <![CDATA[
    .str0 {stroke:black;stroke-width:75}
    .fil2 {fill:black}
    .fil0 {fill:#E94F42}
    .fil1 {fill:#FEFEFE;fill-rule:nonzero}
   ]]>
  </style>
 </defs>
 <g id="Слой_x0020_1">
  <metadata id="CorelCorpID_0Corel-Layer"/>
  <g id="_367586248">
   <path class="fil0 str0" d="M4286 993c2,257 116,2889 10,3025 -131,168 -96,284 -709,291 -614,6 -1937,20 -2186,23 -248,2 -822,45 -988,-168 -165,-213 -204,-569 -210,-1178 -3,-215 -162,-2206 143,-2593 309,-392 674,-161 1536,-170 863,-9 1551,-17 1765,-19 599,-6 633,242 639,789z"/>
   <g>
    <g>
     <path class="fil1" d="M539 651c4,-7 9,-15 13,-25 10,-26 5,-55 -13,-72 -18,-14 -39,-20 -61,-14 -6,0 -11,2 -16,3 -15,3 -21,10 -21,25 -2,47 -4,95 -5,143 0,32 1,66 2,99 1,16 17,30 31,29 15,0 30,-1 45,-3 36,-5 64,-22 74,-59 3,-12 5,-27 5,-40 -2,-22 -4,-44 -21,-62 -10,-8 -22,-15 -33,-24zm-63 147c0,-28 0,-54 -1,-79 0,-7 4,-13 11,-16 13,-6 26,-9 40,-9 9,0 15,5 19,13 10,22 12,44 3,66 -7,13 -18,20 -31,22 -12,2 -25,2 -41,3zm1 -144c1,-12 2,-20 2,-28 1,-12 1,-25 1,-37 1,-9 4,-12 14,-12 16,0 24,11 23,26 -1,11 -6,20 -13,28 -7,8 -15,15 -27,23zm339 110c-3,-7 -5,-11 -6,-16 -6,-21 -12,-43 -19,-63 -3,-9 -6,-16 -11,-23 -12,-13 -29,-12 -37,2 -3,5 -5,11 -6,17 -3,13 -5,28 -6,43 -4,32 -5,65 -8,98 -2,13 5,23 16,24 11,0 19,-6 21,-20 1,-12 2,-24 3,-36 1,-15 2,-29 3,-44 4,4 6,8 8,13 6,15 12,30 18,45 5,12 12,22 25,23 14,0 21,-11 25,-23 6,-20 12,-42 19,-63 1,-4 3,-8 4,-12 2,2 3,5 3,7 2,29 3,57 4,86 0,12 8,20 19,20 11,-1 18,-9 18,-22 -1,-41 -2,-84 -5,-126 0,-7 -2,-16 -6,-23 -6,-14 -21,-19 -33,-12 -7,4 -13,10 -17,16 -6,10 -12,21 -15,32 -7,18 -11,36 -17,57zm230 5c1,8 1,12 1,16 1,13 2,26 3,40 1,11 9,17 19,17 11,1 18,-6 20,-17 0,-7 -1,-14 -1,-20 0,-20 -1,-39 -1,-59 0,-12 1,-25 0,-37 0,-7 -3,-15 -6,-20 -6,-7 -12,-11 -18,-17 -13,-10 -25,-16 -42,-15 -20,1 -37,8 -51,22 -35,30 -42,69 -35,112 5,31 36,44 61,28 10,-6 18,-13 24,-20 9,-8 16,-18 26,-30zm-71 14c-4,-28 -3,-53 20,-73 6,-5 14,-10 22,-12 9,-4 16,0 22,8 -18,28 -35,58 -64,77zm138 -29c3,13 4,25 8,37 9,29 36,47 69,48 28,0 60,-21 69,-47 4,-11 1,-20 -8,-25 -9,-6 -19,-3 -26,6 -3,5 -6,10 -9,14 -10,10 -23,14 -36,10 -13,-2 -20,-12 -23,-24 -3,-14 -3,-29 0,-43 4,-12 10,-23 21,-31 8,-6 17,-6 24,3 3,3 5,7 8,10 6,10 18,13 28,7 9,-6 12,-17 5,-28 -5,-9 -11,-16 -19,-22 -20,-19 -48,-19 -69,-2 -29,22 -41,52 -42,87zm224 -55c0,15 1,29 0,43 0,27 -1,55 -1,82 0,12 9,20 19,20 10,0 18,-7 20,-18 1,-3 1,-6 1,-10 0,-18 0,-37 0,-55 0,-22 1,-44 2,-67 7,-1 14,-1 19,-2 9,-3 15,-11 15,-19 0,-10 -6,-18 -17,-19 -5,-1 -10,-1 -15,-1 -27,2 -53,4 -79,6 -2,1 -3,1 -5,2 -9,2 -14,10 -13,20 0,8 6,16 15,18 5,0 10,0 16,0 7,0 15,0 23,0zm138 75c2,-1 4,-1 5,-1 8,0 15,0 23,-1 8,-1 18,-2 26,-4 17,-4 28,-17 30,-34 3,-28 -15,-58 -41,-67 -7,-3 -17,-4 -26,-3 -30,6 -49,25 -55,55 -6,26 -1,51 6,76 5,15 13,27 25,39 10,9 22,13 36,12 33,-3 56,-27 65,-55 3,-9 -2,-17 -9,-21 -8,-3 -17,-1 -22,7 -3,4 -5,8 -7,13 -5,8 -12,14 -21,19 -9,3 -15,2 -22,-5 -7,-8 -12,-18 -13,-30zm-5 -36c0,-16 4,-29 19,-36 14,-6 23,-3 30,10 2,4 4,8 4,13 1,6 -1,10 -7,11 -16,0 -30,1 -46,2zm166 106c7,0 13,1 20,0 24,-1 57,-16 65,-51 4,-15 7,-32 6,-49 0,-22 -7,-43 -24,-58 -22,-21 -49,-29 -79,-24 -16,1 -22,7 -26,24 -1,3 -1,7 -1,10 -7,78 -2,156 0,235 1,4 2,9 4,13 6,12 22,14 30,5 4,-5 6,-11 6,-17 1,-13 -1,-27 -1,-40 -1,-15 0,-30 0,-48zm-3 -39c0,-36 2,-69 3,-102 22,-4 42,7 48,26 7,19 4,39 -4,59 -4,9 -12,14 -22,15 -6,1 -14,1 -25,2zm116 -51c2,13 3,25 7,37 9,29 37,47 69,48 29,0 60,-21 70,-47 3,-11 1,-20 -9,-25 -8,-6 -19,-3 -26,6 -3,5 -6,10 -9,14 -9,10 -22,14 -35,10 -13,-2 -21,-12 -23,-24 -4,-14 -4,-29 0,-43 3,-12 10,-23 20,-31 9,-6 17,-6 24,3 4,3 5,7 8,10 7,10 19,13 28,7 10,-6 12,-17 6,-28 -6,-9 -12,-16 -19,-22 -21,-19 -49,-19 -70,-2 -28,22 -40,52 -41,87zm227 11c2,7 5,12 7,17 5,16 10,32 15,47 5,13 15,17 26,15 11,-4 16,-13 12,-26 -10,-27 -19,-52 -29,-79 -3,-6 -2,-10 2,-15 8,-10 15,-20 22,-31 3,-4 5,-8 7,-12 3,-10 0,-18 -9,-23 -9,-5 -18,-3 -25,5 -2,1 -2,4 -4,6 -11,15 -23,31 -35,47 -1,2 -4,3 -8,8 0,-10 0,-17 0,-24 0,-10 1,-20 -1,-30 -1,-10 -10,-16 -19,-16 -9,0 -18,7 -20,16 -1,4 0,8 0,11 -1,33 -1,65 -1,97 0,15 0,32 2,47 2,12 11,19 22,17 11,-1 18,-8 18,-20 0,-8 -1,-16 -2,-24 -2,-15 7,-24 20,-33zm91 20c3,12 8,27 19,40 25,32 69,28 88,-8 18,-36 20,-74 11,-112 -6,-24 -22,-39 -45,-45 -7,-2 -15,-2 -22,1 -22,7 -38,22 -47,44 -10,25 -10,51 -4,80zm82 -66c5,26 3,50 -6,73 0,3 -2,6 -4,9 -6,9 -15,9 -21,2 -3,-3 -5,-5 -6,-8 -12,-24 -15,-49 -5,-75 3,-7 9,-14 15,-18 10,-6 19,-3 24,9 2,3 2,7 3,8zm144 -117c-9,1 -13,-3 -16,-9 -5,-7 -13,-10 -20,-7 -6,3 -10,10 -10,18 1,4 3,8 5,10 9,17 24,22 42,21 17,-1 28,-12 33,-32 4,-9 0,-17 -7,-20 -9,-5 -18,-1 -22,8 -2,4 -3,8 -5,11zm-37 160c-1,0 -2,-1 -3,-1 1,-19 2,-37 2,-57 1,-13 2,-26 1,-39 0,-9 -8,-15 -17,-16 -10,-1 -18,4 -21,14 -1,4 -1,8 -1,12 -1,37 -3,72 -4,108 -1,11 0,23 2,35 3,18 20,26 37,16 6,-3 11,-8 15,-14 11,-17 20,-33 29,-49 4,-5 6,-10 9,-16 3,12 3,24 3,34 0,12 0,23 0,34 0,12 7,20 17,21 10,2 20,-5 23,-16 1,-5 1,-9 1,-12 1,-35 1,-69 2,-104 0,-7 0,-15 0,-23 0,-10 -6,-19 -16,-22 -9,-4 -18,0 -25,8 -8,9 -16,19 -23,30 -11,19 -21,38 -31,57zm326 -50c9,-13 17,-22 25,-32 7,-9 13,-17 19,-25 5,-10 3,-19 -5,-26 -6,-5 -16,-6 -24,0 -3,3 -6,6 -8,9 -15,18 -29,37 -44,56 -14,20 -11,36 9,48 12,7 24,12 36,18 8,3 17,0 21,-7 5,-6 7,-15 2,-22 -4,-4 -9,-8 -14,-12 -5,-2 -10,-4 -17,-7zm70 -16c1,-3 2,-5 4,-7 4,-4 9,-9 14,-14 3,-4 6,-7 10,-12 7,-8 7,-19 0,-26 -7,-7 -17,-9 -25,-2 -19,15 -36,33 -47,54 -5,8 -6,18 1,23 17,14 35,28 54,39 9,6 22,-2 25,-13 5,-10 0,-19 -11,-25 -8,-5 -17,-11 -25,-17zm173 -105c8,-1 14,-1 20,-1 7,0 13,0 19,0 14,-1 22,-8 23,-20 0,-11 -8,-20 -23,-20 -41,1 -83,2 -126,2 -12,0 -19,8 -20,19 -1,11 7,19 19,21 7,0 15,-1 23,-1 8,0 15,0 25,0 -1,10 -1,17 -2,24 -4,63 -4,135 -3,198 0,4 -1,8 0,11 2,10 11,16 19,16 11,0 18,-6 19,-17 1,-4 1,-8 1,-12 -1,-64 0,-137 4,-202 1,-6 2,-12 2,-18zm127 183c1,-1 3,-1 5,-1 8,0 14,0 22,-1 9,-1 18,-2 27,-4 16,-4 27,-17 29,-34 3,-28 -15,-58 -40,-67 -8,-3 -18,-4 -26,-3 -30,6 -50,25 -56,55 -6,26 -1,51 7,76 4,15 13,27 25,39 9,9 21,13 35,12 34,-3 56,-27 65,-55 3,-9 -1,-17 -9,-21 -8,-3 -16,-1 -22,7 -2,4 -5,8 -7,13 -5,8 -12,14 -21,19 -9,3 -15,2 -21,-5 -7,-8 -13,-18 -13,-30zm-6 -36c0,-16 5,-29 19,-36 14,-6 24,-3 30,10 2,4 4,8 5,13 1,6 -2,10 -8,11 -15,0 -30,1 -46,2zm213 -46c0,5 1,10 1,14 -1,25 -2,51 -3,75 0,12 -1,25 -1,38 1,12 8,19 18,20 11,0 18,-7 20,-19 0,-2 0,-3 0,-6 1,-36 3,-72 4,-108 0,-9 -1,-19 -3,-27 -3,-17 -14,-26 -31,-26 -13,0 -27,-1 -40,1 -8,0 -18,3 -25,5 -13,5 -21,16 -23,29 -1,8 -1,16 -2,23 -1,24 -1,48 -2,72 -1,13 -1,27 -1,39 0,11 7,18 16,20 10,1 18,-5 20,-15 2,-4 2,-8 2,-11 1,-27 1,-52 2,-78 1,-15 1,-29 2,-44 16,-4 30,-3 46,-2zm172 3c0,8 1,14 0,20 -3,32 -5,63 -7,95 -1,6 -1,13 1,19 2,10 10,16 19,16 9,-1 17,-7 19,-17 0,-2 0,-5 0,-7 3,-36 6,-73 7,-109 1,-10 0,-21 -1,-31 -3,-14 -12,-24 -26,-24 -21,-1 -42,-1 -63,1 -15,2 -22,12 -23,27 -1,5 -1,9 -1,14 1,15 1,31 1,45 0,17 -2,34 -8,50 -4,0 -7,-1 -10,-1 -15,1 -23,14 -19,28 5,19 30,28 46,16 6,-5 13,-12 16,-19 6,-15 11,-29 13,-45 2,-19 1,-39 1,-60 0,-5 0,-11 0,-18 12,0 22,0 35,0zm104 67c-1,0 -2,-1 -3,-1 1,-19 2,-37 2,-57 1,-13 2,-26 1,-39 0,-9 -8,-15 -17,-16 -10,-1 -18,4 -21,14 -1,4 -1,8 -2,12 -1,37 -2,72 -3,108 -1,11 0,23 2,35 3,18 20,26 37,16 6,-3 11,-8 15,-14 10,-17 20,-33 29,-49 4,-5 6,-10 9,-16 3,12 3,24 3,34 0,12 0,23 0,34 0,12 6,20 17,21 10,2 20,-5 23,-16 1,-5 1,-9 1,-12 1,-35 1,-69 1,-104 0,-7 0,-15 0,-23 0,-10 -5,-19 -15,-22 -10,-4 -18,0 -25,8 -8,9 -16,19 -23,31 -11,18 -21,37 -31,56zm158 44c0,-5 -1,-9 -1,-15 -1,-39 2,-83 2,-126 0,-8 -8,-15 -17,-17 -8,-1 -17,2 -20,10 -3,5 -3,11 -3,17 -1,24 -1,49 -1,73 0,19 0,40 0,60 1,18 7,26 25,33 13,5 25,5 38,5 18,-2 37,-3 54,-4 3,4 5,6 6,8 5,8 13,11 21,9 9,-2 15,-8 16,-19 1,-21 -5,-32 -26,-34 -1,0 -2,-1 -4,-2 -2,-37 6,-94 4,-134 -1,-11 -9,-18 -19,-18 -10,0 -18,6 -20,16 -1,3 -1,7 -1,10 -1,42 -1,83 -5,126 -16,1 -32,6 -49,2zm254 -37c1,8 1,12 1,16 0,13 1,26 3,40 1,11 9,17 18,17 11,1 19,-6 21,-17 0,-7 -1,-14 -1,-20 0,-20 -1,-39 -1,-59 0,-12 1,-25 0,-37 0,-7 -3,-15 -7,-20 -5,-7 -12,-11 -18,-17 -12,-10 -25,-15 -41,-15 -20,1 -37,8 -52,22 -34,30 -42,69 -34,112 5,31 35,44 61,28 9,-6 17,-13 24,-20 9,-8 15,-18 26,-30zm-72 14c-3,-28 -2,-53 20,-73 6,-5 15,-10 23,-12 8,-4 16,0 22,8 -18,28 -35,58 -65,77zm245 -77c-10,14 -19,26 -29,39 -9,12 -5,28 9,32 8,2 14,0 20,-5 17,-17 30,-36 39,-57 5,-10 4,-22 -4,-29 -17,-17 -34,-35 -52,-50 -10,-9 -25,-3 -29,10 -2,4 -2,8 -3,14 -7,-7 -13,-13 -19,-18 -8,-9 -18,-10 -27,-4 -9,7 -10,19 -4,29 2,4 7,8 12,12 8,8 18,15 27,24 -4,4 -7,8 -9,11 -10,11 -20,22 -29,34 -9,12 -7,24 2,31 10,6 22,2 29,-7 12,-14 24,-27 36,-40 11,-11 19,-21 15,-41 7,6 11,10 16,15zm-2986 481c3,16 4,31 10,47 11,38 47,61 89,62 37,0 78,-26 90,-60 5,-14 1,-27 -11,-33 -11,-7 -24,-4 -33,8 -5,6 -8,13 -13,19 -12,13 -29,17 -45,13 -17,-3 -27,-16 -30,-31 -5,-19 -5,-38 0,-56 4,-17 13,-30 26,-40 12,-9 23,-8 32,3 4,3 6,9 10,14 9,12 24,16 36,8 13,-7 16,-22 7,-36 -7,-11 -14,-22 -24,-29 -27,-24 -63,-24 -91,-3 -36,29 -52,68 -53,114zm294 14c4,8 7,15 9,22 7,21 14,41 20,61 7,17 19,22 34,19 14,-4 21,-17 15,-33 -12,-35 -24,-68 -38,-103 -3,-8 -2,-13 4,-20 10,-12 19,-26 28,-39 4,-6 6,-11 9,-17 4,-12 0,-23 -12,-29 -11,-6 -23,-4 -32,6 -2,2 -3,5 -6,8 -14,20 -30,41 -44,61 -2,2 -6,4 -11,10 0,-12 0,-21 0,-30 0,-13 1,-27 -1,-39 -2,-13 -13,-21 -25,-21 -12,0 -23,9 -26,21 -1,4 0,10 0,14 -1,43 -1,84 -1,125 0,20 0,42 3,62 2,15 14,24 29,22 13,-1 22,-11 22,-27 0,-10 -1,-20 -2,-30 -3,-20 9,-31 25,-43zm168 -4c-2,0 -3,-1 -4,-1 1,-24 2,-49 2,-75 2,-16 3,-33 2,-50 0,-12 -10,-20 -23,-21 -12,-1 -23,6 -26,19 -2,4 -2,10 -3,16 -1,46 -3,92 -4,139 -1,14 0,30 2,46 5,23 27,33 48,21 8,-5 14,-11 20,-19 13,-21 26,-42 38,-64 4,-6 8,-13 11,-20 5,16 5,30 5,44 0,15 0,30 0,44 0,16 7,26 21,27 13,2 27,-7 30,-21 1,-6 1,-11 1,-16 1,-44 1,-89 2,-133 0,-11 0,-21 0,-31 0,-13 -6,-24 -20,-29 -12,-5 -23,0 -32,10 -10,13 -21,26 -30,41 -15,24 -27,49 -40,73z"/>
     <path class="fil1" d="M1833 1250c-1,-4 -1,-7 -1,-9 1,-32 1,-62 1,-92 0,-15 0,-31 -3,-47 -10,-44 -58,-60 -95,-33 -22,17 -34,39 -38,67 -1,12 -2,24 -3,36 -1,29 -3,56 -4,85 -6,3 -11,3 -16,5 -24,8 -31,15 -29,40 1,15 8,22 19,25 11,2 19,-3 26,-16 2,-6 5,-9 11,-9 3,-1 8,-1 12,-1 31,-1 63,-2 94,-2 4,0 9,3 11,5 8,8 17,10 26,6 8,-4 14,-11 15,-21 2,-20 -3,-30 -26,-39zm-46 2c-17,1 -34,1 -51,2 -1,-8 -1,-13 -1,-19 3,-32 5,-63 7,-96 1,-15 10,-28 23,-35 11,-6 18,-3 22,8 2,8 2,17 2,25 0,36 -1,72 -1,108 0,2 -1,5 -1,7zm175 -51c3,8 6,15 9,22 6,21 13,41 20,61 6,17 19,22 33,19 15,-4 21,-17 16,-33 -12,-35 -25,-68 -38,-103 -3,-8 -2,-13 3,-20 10,-12 19,-26 28,-39 5,-6 7,-11 9,-17 5,-12 0,-23 -11,-29 -11,-6 -23,-4 -32,6 -3,2 -4,5 -6,8 -14,20 -30,41 -45,61 -2,2 -5,4 -11,10 0,-12 0,-21 0,-30 0,-13 1,-27 -1,-39 -1,-13 -12,-21 -24,-21 -13,0 -24,9 -26,21 -1,4 0,10 0,14 -1,43 -1,84 -1,125 0,20 0,42 2,62 2,15 15,24 29,22 13,-1 22,-11 22,-27 0,-10 -1,-20 -2,-30 -2,-20 9,-31 26,-43zm259 5c1,10 1,16 1,20 1,18 2,35 4,53 1,14 11,22 24,22 14,1 24,-8 26,-22 0,-9 -1,-18 -1,-26 0,-26 -1,-51 -1,-77 0,-16 1,-32 0,-48 0,-9 -4,-19 -9,-26 -7,-8 -15,-14 -23,-22 -16,-13 -33,-20 -54,-19 -25,1 -48,10 -67,28 -44,39 -54,90 -44,146 6,40 45,57 79,36 12,-8 22,-17 31,-26 11,-11 20,-23 34,-39zm-93 18c-4,-36 -3,-69 26,-95 7,-7 19,-12 29,-15 11,-5 21,0 29,11 -24,35 -46,74 -84,99zm592 12c6,-10 10,-19 15,-28 13,-21 26,-41 39,-62 18,-30 33,-63 36,-98 6,-56 -25,-86 -63,-91 -40,-4 -93,34 -104,75 -1,5 -2,9 -2,14 -2,17 6,30 19,32 14,3 26,-6 29,-22 6,-25 21,-37 42,-44 19,-7 30,2 29,24 -1,14 -4,29 -10,43 -11,35 -33,62 -51,93 -16,25 -30,51 -45,76 -6,12 -9,24 -1,36 8,14 20,14 33,12 34,-3 69,-5 103,-8 7,0 14,0 20,-2 12,-2 18,-13 18,-25 0,-13 -6,-23 -19,-25 -4,-1 -10,0 -15,0 -24,0 -47,0 -73,0zm135 -113c2,17 4,34 6,52 1,11 4,22 8,33 5,22 15,42 30,58 30,34 72,35 102,3 12,-14 24,-29 30,-45 22,-42 29,-88 23,-135 -7,-47 -24,-88 -68,-113 -35,-19 -77,-15 -101,23 -5,10 -10,20 -14,31 -11,30 -15,61 -16,93zm150 -5c-4,39 -9,76 -35,108 -14,19 -27,18 -39,-4 -7,-14 -13,-28 -17,-43 -9,-38 -8,-75 0,-113 1,-8 5,-17 8,-25 9,-22 29,-28 48,-13 9,8 16,18 21,28 6,10 8,21 10,32 2,10 2,20 4,30zm313 -153c-1,-12 -4,-21 -15,-25 -8,-5 -17,-5 -25,2 -6,4 -9,11 -11,17 -23,41 -44,83 -66,124 -28,55 -58,110 -87,164 -11,22 -8,38 8,45 15,8 28,0 39,-21 13,-28 28,-55 42,-83 36,-68 71,-135 107,-203 5,-6 6,-14 8,-20zm-234 66c1,47 34,71 73,56 19,-8 35,-20 46,-38 15,-24 12,-52 -5,-74 -5,-5 -10,-10 -16,-14 -19,-17 -38,-18 -58,-4 -27,19 -38,46 -40,74zm50 7c4,-13 7,-20 10,-31 7,3 11,5 16,7 2,7 -6,16 -26,24zm146 232c31,1 65,-27 71,-59 4,-19 -1,-36 -14,-51 -25,-26 -78,-31 -98,2 -9,15 -16,31 -17,49 0,34 23,59 58,59zm-6 -54c2,-7 3,-13 6,-20 2,-5 12,-5 17,-1 5,4 3,10 -1,13 -5,5 -11,8 -17,12 -1,-2 -3,-3 -5,-4zm-2136 287c-10,1 -19,2 -27,2 -10,0 -19,-1 -29,-1 0,-10 0,-18 0,-27 0,-14 0,-29 -1,-43 -1,-13 -10,-21 -21,-23 -11,-1 -22,7 -26,18 -1,6 -1,10 -1,16 0,43 0,86 0,129 0,19 -1,38 0,57 0,12 7,21 17,23 11,4 23,-1 28,-13 3,-4 3,-11 3,-18 1,-22 2,-44 2,-68 19,-1 37,-2 57,-3 0,12 0,22 1,32 0,15 0,29 1,43 2,14 15,25 27,23 14,-1 23,-11 23,-26 -2,-43 -3,-88 -3,-131 -1,-19 -1,-39 -2,-58 -1,-12 -11,-19 -22,-20 -11,0 -21,8 -25,20 0,4 0,10 0,14 0,18 -1,35 -2,54zm228 59c1,10 1,16 1,20 1,18 2,35 4,52 1,15 11,23 24,23 14,1 24,-8 26,-23 0,-9 -1,-17 -1,-25 0,-26 -1,-52 -1,-77 0,-16 1,-33 0,-48 0,-9 -4,-19 -9,-26 -7,-9 -15,-14 -23,-22 -16,-13 -33,-20 -54,-19 -25,1 -48,10 -67,28 -44,39 -54,90 -44,146 6,40 45,57 79,36 12,-8 22,-17 31,-26 11,-11 20,-23 34,-39zm-93 18c-4,-36 -3,-69 26,-95 7,-7 19,-12 29,-16 11,-4 21,0 29,12 -24,35 -46,74 -84,99zm570 -27c-1,0 -2,-1 -4,-1 2,-25 3,-49 3,-75 1,-17 2,-33 1,-50 0,-12 -10,-20 -22,-21 -13,-1 -24,5 -27,19 -1,4 -1,10 -2,15 -2,47 -4,93 -5,140 -1,14 0,30 2,45 5,24 27,34 48,22 8,-5 15,-11 20,-19 14,-21 26,-43 38,-64 5,-7 8,-13 11,-20 5,16 5,30 5,44 0,15 0,30 0,44 0,16 8,26 21,27 13,2 27,-7 30,-21 1,-6 1,-11 1,-16 1,-44 1,-89 2,-134 0,-10 0,-20 0,-30 0,-13 -6,-24 -20,-29 -12,-5 -23,0 -32,10 -10,13 -21,26 -30,40 -15,25 -27,49 -40,74zm150 -16c2,23 2,41 3,59 1,16 2,32 5,47 2,15 17,24 31,22 14,-4 22,-15 21,-31 -3,-33 -6,-65 -7,-99 -1,-20 1,-41 2,-61 1,-14 7,-18 19,-16 7,1 13,6 19,9 19,10 39,-1 39,-22 0,-14 -6,-26 -19,-30 -11,-5 -23,-7 -36,-8 -40,-5 -70,20 -73,61 -2,24 -2,48 -4,69zm217 122c9,0 17,1 25,0 32,-1 74,-20 85,-66 5,-20 9,-42 8,-63 0,-29 -9,-56 -31,-76 -29,-27 -64,-37 -103,-31 -21,2 -29,10 -33,31 -1,4 -1,9 -1,13 -10,102 -4,203 0,305 1,5 2,12 4,17 8,15 29,18 39,6 6,-6 8,-15 8,-21 1,-18 -1,-36 -1,-53 -1,-20 0,-39 0,-62zm-5 -50c1,-47 4,-91 5,-133 29,-6 54,9 62,34 9,25 5,51 -5,76 -5,13 -16,18 -28,21 -9,1 -19,1 -34,2zm229 44c-11,26 -22,55 -42,78 -8,10 -16,19 -23,29 -7,14 -4,28 7,36 11,9 26,7 36,-5 22,-28 43,-56 58,-90 30,-65 51,-135 72,-204 2,-6 4,-13 2,-20 0,-11 -7,-20 -16,-22 -10,-3 -19,-1 -26,7 -4,4 -7,10 -9,15 -11,36 -21,72 -32,106 -1,6 -5,10 -7,16 -19,-15 -30,-33 -37,-53 -7,-22 -11,-44 -10,-68 1,-13 -6,-23 -19,-25 -11,-3 -23,3 -29,14 -2,5 -3,10 -3,16 0,43 7,86 33,121 13,17 29,32 45,49zm247 -42c-37,0 -42,-3 -45,-35 -5,-43 -9,-92 -9,-137 0,-12 -11,-21 -23,-21 -12,-1 -24,7 -27,18 -1,6 -1,11 -1,16 1,29 2,58 4,87 1,21 4,41 8,61 8,37 29,53 70,57 30,2 62,4 93,5 32,1 54,-12 66,-40 3,-9 6,-18 7,-27 8,-48 3,-96 -3,-145 -1,-14 -16,-22 -32,-20 -14,4 -21,14 -19,28 4,46 9,89 2,135 -3,21 -8,24 -30,22 -2,0 -5,-1 -7,-2 -1,-5 -2,-12 -2,-18 -1,-33 -1,-68 -2,-101 -1,-19 -1,-38 -3,-56 -2,-14 -12,-23 -26,-23 -14,1 -25,10 -25,24 -1,6 0,11 0,18 1,32 2,64 4,96 1,19 0,39 0,58zm253 -55c3,9 6,16 9,23 6,21 13,41 20,61 6,17 19,22 33,19 15,-5 21,-17 16,-34 -12,-34 -25,-68 -38,-102 -3,-8 -2,-13 3,-20 10,-12 19,-26 28,-39 5,-6 7,-11 9,-17 4,-12 0,-23 -11,-29 -11,-7 -24,-4 -32,6 -3,2 -4,5 -6,7 -15,21 -30,42 -45,62 -2,2 -5,4 -11,10 0,-12 0,-21 0,-30 0,-14 1,-27 -1,-39 -1,-14 -12,-21 -24,-21 -13,0 -24,8 -26,21 -1,4 0,10 0,14 -1,43 -1,84 -1,125 0,20 0,41 2,61 2,16 15,25 29,23 13,-1 22,-11 22,-27 0,-10 -1,-20 -2,-30 -2,-20 9,-31 26,-44zm167 -3c-1,0 -2,-1 -3,-1 1,-25 2,-49 2,-75 1,-17 2,-33 1,-50 0,-12 -10,-20 -22,-21 -13,-1 -24,5 -27,19 -1,4 -1,10 -2,15 -1,47 -4,93 -5,140 -1,14 0,30 3,45 4,24 26,34 47,22 8,-5 15,-11 21,-19 13,-21 25,-43 37,-64 5,-7 8,-13 12,-20 4,16 4,30 4,44 0,15 0,30 0,44 0,16 8,26 21,27 14,2 27,-7 30,-21 1,-6 1,-11 1,-16 2,-44 2,-89 3,-134 0,-10 0,-20 0,-30 0,-13 -7,-24 -20,-29 -13,-5 -24,0 -33,10 -10,13 -21,26 -30,40 -14,25 -27,49 -40,74zm241 88c0,-1 0,-2 0,-2 0,-5 -1,-8 -4,-10 -6,-8 -18,-14 -32,-12 -19,0 -33,11 -33,24 0,6 3,11 9,16 0,8 -4,13 -6,20 -2,8 -6,14 -9,22 -3,11 9,19 31,17 4,-2 11,-6 16,-10 3,-2 5,-7 6,-10 5,-14 11,-27 15,-40 5,-5 7,-9 7,-15zm-2434 332c1,11 1,16 1,21 1,17 2,34 4,52 1,14 11,22 24,22 14,1 24,-8 26,-22 0,-9 -1,-18 -1,-26 0,-25 -1,-51 -1,-77 0,-15 1,-32 0,-48 0,-8 -4,-19 -9,-25 -6,-9 -15,-15 -23,-22 -16,-14 -32,-21 -54,-19 -25,1 -48,10 -67,27 -44,39 -54,91 -44,146 7,41 46,57 79,36 12,-8 22,-17 31,-25 11,-12 20,-24 34,-40zm-93 18c-4,-35 -3,-69 26,-94 8,-7 19,-13 29,-16 11,-5 21,0 29,11 -24,36 -46,75 -84,99zm630 -118c0,7 1,13 1,19 -1,32 -2,65 -3,97 0,16 -1,33 -1,49 1,16 10,25 23,26 14,0 24,-9 26,-25 0,-2 0,-4 0,-7 1,-47 3,-93 4,-140 0,-12 -1,-24 -3,-36 -4,-22 -18,-33 -40,-33 -17,0 -35,-1 -51,1 -12,0 -24,3 -34,7 -17,6 -27,20 -29,38 -1,10 -2,20 -3,30 -1,31 -1,62 -2,93 -2,16 -2,34 -2,51 0,13 9,23 22,25 12,1 22,-6 25,-20 3,-4 3,-10 3,-14 1,-34 1,-68 2,-101 1,-19 2,-38 3,-57 20,-5 39,-4 59,-3zm136 198c9,0 17,1 26,0 31,-2 74,-21 85,-66 4,-20 9,-43 8,-64 0,-29 -9,-56 -32,-76 -29,-26 -63,-36 -102,-31 -21,2 -29,10 -34,31 -1,5 -1,9 -1,14 -10,101 -3,203 0,304 1,6 2,12 5,18 7,14 29,18 39,6 5,-6 7,-15 7,-22 2,-17 -1,-35 -1,-52 -1,-20 0,-39 0,-62zm-4 -51c1,-47 3,-90 4,-132 29,-6 55,9 63,33 9,26 4,51 -6,77 -4,12 -15,18 -28,20 -9,1 -19,1 -33,2zm206 -55c-1,0 -2,-2 -3,-2 1,-24 2,-49 2,-74 1,-17 2,-34 1,-50 0,-13 -10,-20 -22,-22 -12,-1 -23,6 -27,19 -1,5 -1,10 -2,16 -1,47 -3,93 -5,139 -1,15 0,30 3,46 4,23 26,34 48,21 7,-4 14,-11 20,-19 13,-21 25,-42 38,-63 4,-7 7,-14 11,-20 4,15 4,30 4,43 0,16 0,30 0,45 0,15 8,25 21,27 14,2 27,-7 31,-22 1,-5 1,-11 1,-15 1,-45 1,-89 2,-134 0,-10 0,-20 0,-30 0,-14 -7,-25 -20,-29 -12,-6 -24,0 -33,10 -10,12 -21,25 -30,40 -14,25 -26,49 -40,74zm602 -92c0,7 2,13 2,19 -2,32 -3,65 -4,97 0,16 -1,33 -1,49 1,16 10,25 23,26 14,0 24,-9 26,-25 0,-2 0,-4 0,-7 1,-47 3,-93 5,-140 0,-12 -2,-24 -4,-36 -4,-22 -18,-33 -40,-33 -17,0 -34,-1 -51,1 -11,0 -24,3 -34,7 -16,6 -26,20 -29,38 -1,10 -2,20 -3,30 -1,31 -1,62 -2,93 -1,16 -1,34 -1,51 0,13 9,23 21,25 12,1 22,-6 26,-20 2,-4 2,-10 2,-14 1,-34 1,-68 2,-101 1,-19 2,-38 3,-57 20,-5 39,-4 59,-3zm87 121c5,16 12,35 25,52 32,41 90,37 115,-10 23,-47 25,-96 13,-146 -8,-30 -28,-50 -58,-58 -9,-2 -19,-2 -28,1 -29,9 -50,29 -61,58 -13,32 -13,66 -6,103zm106 -85c7,33 5,64 -6,95 -1,3 -4,7 -6,11 -8,11 -20,11 -28,2 -3,-3 -5,-6 -6,-10 -16,-31 -21,-64 -7,-97 3,-9 11,-18 19,-23 13,-8 24,-4 31,11 2,4 2,9 3,11zm159 59c3,9 6,16 9,22 6,21 13,41 20,62 6,16 19,22 33,19 15,-5 21,-17 16,-34 -12,-35 -25,-68 -38,-103 -3,-7 -2,-13 3,-20 10,-12 19,-25 28,-39 5,-5 7,-11 9,-16 5,-13 0,-24 -11,-29 -11,-7 -23,-5 -32,5 -3,2 -4,6 -6,8 -14,20 -30,41 -45,61 -2,3 -5,5 -11,10 0,-12 0,-21 0,-30 0,-13 1,-26 -1,-39 -1,-13 -12,-21 -24,-21 -13,0 -24,9 -26,21 -1,5 0,10 0,15 -1,42 -1,83 -1,125 0,20 0,41 2,61 2,16 15,25 29,22 13,-1 22,-11 22,-26 0,-11 -1,-21 -2,-31 -2,-20 9,-31 26,-43zm189 97c-11,26 -22,55 -42,78 -8,10 -16,19 -22,29 -8,13 -5,28 6,36 12,9 26,6 36,-6 22,-28 44,-56 58,-89 30,-66 51,-135 73,-204 2,-7 3,-14 2,-20 0,-11 -8,-20 -17,-23 -10,-3 -19,-1 -26,7 -4,5 -6,10 -8,16 -12,35 -22,71 -33,106 -1,5 -4,10 -6,15 -19,-14 -31,-32 -37,-52 -8,-22 -11,-45 -10,-68 1,-13 -7,-24 -19,-26 -11,-2 -24,4 -29,15 -3,4 -4,10 -4,15 0,44 7,86 34,122 12,17 29,31 44,49z"/>
     <path class="fil1" d="M3184 1873c0,7 1,13 1,19 -1,32 -2,65 -3,97 0,16 -1,33 -1,49 1,16 10,25 23,26 14,0 24,-9 26,-25 0,-2 0,-4 0,-7 1,-47 3,-93 4,-140 0,-12 -1,-24 -3,-36 -5,-22 -18,-33 -40,-33 -17,0 -35,-1 -52,1 -11,0 -23,3 -33,7 -17,6 -27,20 -29,38 -1,10 -2,20 -3,30 -1,31 -1,62 -3,93 -1,16 -1,34 -1,51 0,13 9,23 22,25 12,1 22,-6 25,-20 2,-4 2,-10 2,-14 2,-34 2,-68 3,-101 1,-19 2,-38 3,-56 20,-6 39,-5 59,-4zm155 95c3,9 7,16 9,22 7,21 13,41 20,62 7,16 19,22 34,19 14,-5 21,-17 15,-34 -12,-35 -24,-68 -38,-103 -3,-7 -2,-13 4,-20 10,-12 19,-25 28,-39 4,-5 6,-11 8,-16 5,-13 0,-24 -11,-29 -11,-7 -23,-5 -32,5 -2,2 -3,6 -6,8 -14,20 -30,41 -44,61 -2,3 -6,5 -11,10 0,-12 0,-21 0,-30 0,-13 1,-26 -1,-39 -2,-13 -13,-21 -25,-21 -12,0 -23,9 -26,21 -1,5 0,10 0,15 -1,42 -1,83 -1,125 0,20 0,41 2,61 3,16 15,25 29,22 14,-1 23,-11 23,-26 0,-11 -1,-21 -2,-31 -3,-20 8,-31 25,-43zm165 12c2,-1 5,-1 7,-2 10,0 19,0 29,-1 11,-1 23,-2 34,-5 22,-5 36,-22 38,-44 5,-36 -19,-75 -52,-87 -10,-4 -22,-6 -33,-4 -39,8 -65,33 -73,72 -8,33 -1,66 9,98 6,20 17,36 32,50 13,12 28,18 46,16 44,-4 73,-35 85,-72 3,-11 -2,-21 -12,-26 -11,-5 -22,-1 -28,9 -4,5 -7,11 -9,16 -7,11 -16,19 -28,25 -11,4 -19,3 -28,-6 -9,-11 -16,-23 -17,-39zm-6 -47c0,-21 5,-38 24,-46 18,-8 30,-4 39,12 2,5 5,11 6,18 1,7 -3,12 -10,13 -20,1 -39,2 -59,3zm-2343 518c-1,-3 -1,-7 -1,-9 1,-31 1,-61 1,-91 0,-16 0,-32 -4,-47 -10,-45 -58,-61 -94,-34 -23,17 -35,39 -38,67 -1,12 -3,25 -4,36 -1,29 -3,57 -4,86 -6,2 -11,2 -16,4 -24,8 -31,16 -29,40 1,15 8,23 19,25 11,2 19,-2 26,-16 2,-5 5,-9 11,-9 3,-1 8,-1 12,-1 32,-1 63,-2 94,-2 4,0 9,3 11,5 8,8 17,11 26,6 9,-3 14,-11 15,-21 3,-20 -3,-30 -25,-39zm-47 2c-17,1 -34,1 -50,2 -1,-7 -1,-13 -1,-19 2,-32 4,-63 6,-96 1,-15 10,-27 24,-35 10,-6 18,-2 21,9 2,8 2,16 2,24 0,36 -1,73 -1,108 0,3 -1,5 -1,7zm226 -90c11,-16 17,-30 14,-48 -6,-29 -33,-51 -67,-56 -15,-2 -29,-3 -44,-3 -20,0 -31,11 -31,30 2,57 1,112 1,169 0,30 12,43 44,45 10,1 21,2 31,2 37,-2 70,-12 92,-41 24,-31 15,-69 -20,-88 -5,-4 -12,-6 -20,-10zm-79 90c1,-17 2,-32 2,-50 26,-6 49,-2 73,10 11,6 13,13 3,22 -6,7 -15,13 -24,16 -16,5 -34,7 -54,2zm0 -101c0,-16 0,-30 1,-47 14,-4 26,-1 37,8 10,7 10,15 0,23 -10,7 -22,12 -33,19 -2,-1 -3,-2 -5,-3zm238 147c-11,25 -23,54 -43,78 -7,10 -15,19 -22,29 -8,13 -4,28 7,36 11,8 25,6 35,-6 23,-28 44,-56 58,-89 31,-66 52,-135 73,-204 2,-7 3,-14 2,-20 0,-12 -8,-20 -17,-23 -10,-3 -19,-1 -25,7 -5,4 -7,10 -9,16 -11,35 -21,71 -33,106 -1,5 -4,10 -6,15 -19,-14 -30,-32 -37,-52 -8,-23 -11,-45 -10,-68 1,-14 -7,-24 -19,-26 -11,-2 -23,3 -29,15 -2,4 -3,10 -3,15 0,44 6,86 33,122 12,16 29,31 45,49zm263 -105c17,-33 32,-65 48,-95 7,-15 2,-29 -11,-35 -13,-6 -27,-2 -35,13 -12,22 -21,46 -35,67 -13,-19 -22,-40 -32,-60 -6,-15 -18,-22 -31,-17 -12,3 -20,15 -18,29 0,4 2,10 5,14 12,24 23,48 38,71 6,12 7,22 -2,33 -13,16 -26,32 -40,48 -12,13 -12,29 0,39 10,9 26,8 37,-4 12,-13 24,-27 35,-41 4,-4 8,-10 13,-15 12,13 22,24 34,37 4,4 7,10 13,14 11,9 27,9 37,0 10,-10 10,-23 0,-34 -10,-12 -20,-23 -30,-34 -9,-10 -18,-20 -26,-30zm483 -129c-2,-44 14,-81 50,-106 12,-9 27,-15 41,-20 17,-6 25,-16 23,-30 -4,-15 -15,-23 -33,-21 -8,2 -15,3 -21,6 -55,25 -96,64 -108,124 -6,29 -7,59 -7,88 1,52 6,104 8,155 1,33 25,49 57,38 12,-5 24,-11 36,-18 42,-25 62,-64 62,-112 0,-30 -11,-55 -36,-75 -21,-17 -45,-25 -72,-29zm-2 55c35,-1 59,22 59,53 -1,33 -18,57 -52,71 -5,-42 -5,-83 -7,-124zm194 184c9,0 16,1 25,0 32,-1 74,-20 85,-65 5,-20 9,-43 8,-64 0,-29 -9,-56 -31,-76 -29,-27 -64,-37 -103,-31 -21,2 -29,10 -33,31 -1,5 -1,9 -1,14 -11,101 -4,203 0,304 1,6 2,12 4,18 8,14 29,18 39,5 6,-5 8,-14 8,-21 1,-18 -1,-35 -1,-52 -1,-20 0,-39 0,-63zm-5 -50c1,-47 4,-90 5,-132 29,-6 54,8 62,33 9,26 5,51 -5,77 -5,12 -16,18 -28,20 -9,1 -19,1 -34,2zm158 -27c4,17 11,36 24,53 32,41 90,37 115,-10 23,-47 26,-96 13,-146 -8,-30 -28,-50 -58,-58 -9,-2 -19,-2 -28,1 -29,9 -50,29 -61,58 -13,32 -13,66 -5,102zm105 -84c7,33 5,64 -6,94 -1,4 -4,8 -6,12 -8,11 -20,11 -28,2 -3,-3 -5,-6 -6,-10 -16,-31 -20,-64 -7,-97 3,-9 11,-18 19,-24 13,-7 24,-3 31,12 2,4 2,8 3,11zm189 113c-37,0 -41,-3 -45,-34 -4,-44 -9,-93 -9,-137 0,-13 -11,-21 -23,-21 -11,-2 -23,6 -27,17 -1,6 -1,12 -1,16 1,29 2,58 5,87 1,21 3,41 7,61 8,37 29,54 71,57 30,2 61,5 92,6 33,1 55,-13 66,-40 3,-9 7,-18 8,-27 8,-48 2,-96 -4,-145 -1,-15 -15,-22 -32,-20 -13,3 -21,13 -19,28 5,45 9,89 2,135 -3,21 -7,23 -30,22 -2,0 -4,-1 -6,-2 -2,-6 -3,-13 -3,-18 -1,-34 -1,-68 -2,-102 -1,-19 -1,-38 -2,-55 -2,-15 -12,-24 -27,-24 -13,1 -24,10 -24,25 -1,5 0,11 0,18 1,32 2,63 3,95 1,19 0,39 0,58zm232 -42c2,-1 4,-1 7,-2 10,0 19,0 29,-1 11,-1 23,-3 34,-5 21,-5 36,-22 38,-44 5,-36 -19,-75 -52,-87 -10,-4 -23,-6 -34,-4 -39,8 -64,33 -72,72 -8,33 -1,65 9,98 5,20 16,36 32,50 12,12 28,18 46,16 43,-4 72,-35 85,-72 3,-11 -3,-21 -13,-27 -10,-4 -21,-1 -28,9 -3,6 -6,12 -9,17 -6,11 -15,19 -27,25 -12,4 -19,3 -28,-6 -9,-11 -16,-23 -17,-39zm-7 -47c0,-21 6,-38 25,-47 18,-7 30,-3 39,13 2,5 4,11 5,18 2,7 -2,12 -10,13 -20,1 -39,2 -59,3zm235 35c3,9 6,15 8,22 7,21 14,41 21,61 6,17 18,23 33,19 14,-4 21,-16 16,-33 -13,-35 -25,-68 -38,-103 -4,-7 -3,-13 3,-20 10,-12 19,-25 28,-39 4,-5 7,-11 9,-16 4,-13 0,-24 -11,-29 -12,-7 -24,-5 -33,5 -2,2 -3,6 -5,8 -15,20 -30,41 -45,61 -2,2 -5,5 -11,10 0,-12 0,-21 0,-30 0,-13 1,-27 -1,-39 -1,-13 -12,-21 -25,-21 -12,0 -23,9 -25,21 -1,5 0,10 0,15 -1,42 -1,83 -1,125 0,20 0,41 2,61 2,15 14,24 29,22 13,-1 22,-11 22,-27 0,-10 -1,-20 -2,-30 -2,-20 9,-31 26,-43zm-1149 354c0,-1 0,-1 0,-1 33,0 64,0 96,0 11,0 20,-7 25,-17 3,-13 1,-25 -10,-31 -7,-4 -16,-6 -25,-6 -21,0 -42,2 -63,2 -36,0 -72,-1 -106,-2 -15,0 -25,6 -29,19 -4,11 2,25 14,31 10,3 20,4 30,5 23,0 46,0 68,0zm-1658 172c0,19 1,37 0,55 0,36 -1,71 -1,107 0,16 11,26 24,26 14,0 24,-9 26,-24 1,-3 1,-8 1,-12 0,-23 0,-48 1,-72 0,-28 1,-57 2,-86 9,-1 18,-1 25,-4 12,-3 20,-13 20,-24 0,-12 -9,-24 -22,-25 -7,-1 -14,-1 -21,-1 -34,2 -68,6 -102,8 -2,1 -3,1 -6,2 -12,4 -19,14 -18,26 0,11 8,21 21,23 6,1 13,0 20,1 10,0 20,0 30,0zm182 188c8,0 16,1 25,0 31,-1 74,-20 85,-66 4,-20 9,-42 8,-64 0,-29 -9,-55 -31,-75 -29,-27 -64,-37 -103,-32 -21,3 -29,10 -34,32 -1,4 -1,8 -1,13 -10,101 -3,203 0,304 1,6 3,13 5,18 8,15 29,18 39,6 5,-6 8,-15 8,-21 1,-18 -1,-36 -1,-53 -2,-20 0,-39 0,-62zm-5 -51c1,-46 3,-90 5,-132 29,-6 54,9 62,33 9,26 4,52 -6,77 -4,12 -15,18 -27,20 -9,1 -19,1 -34,2zm204 -40c2,-1 5,-1 7,-2 10,0 19,0 29,-1 11,-1 23,-2 34,-4 22,-6 36,-23 38,-45 5,-36 -19,-75 -52,-87 -10,-3 -22,-6 -33,-3 -40,7 -65,32 -73,71 -8,33 -1,66 9,98 6,20 17,36 32,50 13,13 28,18 46,16 43,-3 72,-35 85,-71 3,-12 -2,-22 -13,-27 -10,-5 -21,-1 -27,9 -4,5 -7,11 -9,16 -7,12 -16,19 -28,25 -11,4 -19,3 -28,-6 -9,-11 -16,-23 -17,-39zm-6 -46c0,-22 5,-38 24,-47 18,-8 30,-4 39,12 2,6 5,11 6,18 1,8 -3,12 -10,13 -20,1 -39,2 -59,4zm229 -51c0,19 1,37 0,55 0,36 -1,71 -1,107 0,16 11,26 25,26 13,0 23,-9 25,-24 1,-3 1,-8 1,-12 0,-23 0,-48 2,-72 0,-28 1,-57 2,-86 9,-1 18,-1 24,-4 13,-3 20,-13 20,-24 0,-12 -9,-24 -22,-25 -7,-1 -13,-1 -20,-1 -35,2 -68,6 -103,8 -2,1 -3,1 -5,2 -12,4 -19,14 -18,26 0,11 8,21 20,23 7,1 14,0 20,1 10,0 20,0 30,0zm180 16c0,-20 0,-37 0,-55 -1,-14 -10,-23 -24,-24 -13,-1 -25,8 -27,21 -2,10 -2,19 -2,28 0,34 -1,68 0,101 0,19 0,39 2,58 3,30 32,45 60,38 9,-2 17,-5 25,-9 44,-14 72,-59 54,-110 -9,-28 -31,-44 -62,-47 -8,-1 -16,-1 -26,-1zm-1 117c0,-23 0,-45 0,-69 9,1 15,0 21,1 13,1 18,6 20,18 7,25 -7,42 -41,50zm228 -33c0,3 0,6 0,10 0,15 0,33 2,49 0,15 10,25 23,26 14,2 26,-8 28,-23 8,-58 7,-100 5,-173 -3,-30 -10,-40 -39,-46 -44,-7 -77,12 -104,41 -23,23 -25,61 -6,88 6,6 13,13 21,20 -10,20 -22,39 -31,59 -7,14 -2,28 10,34 12,6 26,3 35,-10 14,-19 21,-44 34,-64 5,-8 10,-14 22,-11zm7 -107c-1,14 -2,29 -3,42 -1,14 -26,17 -38,16 -15,-2 -21,-16 -17,-28 7,-17 35,-33 58,-30zm542 53c11,-16 17,-30 13,-48 -5,-29 -32,-51 -66,-56 -15,-2 -29,-3 -44,-3 -20,0 -31,11 -31,30 2,57 1,113 1,170 0,30 12,42 43,44 11,1 22,2 32,2 36,-2 70,-12 92,-41 24,-31 15,-69 -20,-88 -5,-3 -12,-5 -20,-10zm-79 90c1,-16 2,-32 2,-50 26,-5 49,-2 73,10 11,6 13,14 3,23 -7,6 -16,12 -25,15 -15,6 -33,7 -53,2zm0 -101c0,-16 0,-30 1,-47 13,-3 26,-1 37,8 10,8 10,15 0,23 -10,7 -22,13 -34,19 -1,-1 -2,-2 -4,-3zm610 -45c0,7 1,14 1,19 -1,32 -2,65 -3,98 0,15 -1,32 -1,49 1,15 10,24 23,25 13,0 23,-9 26,-24 0,-3 0,-5 0,-8 1,-47 3,-93 4,-140 0,-12 -1,-24 -3,-35 -5,-23 -18,-34 -40,-34 -17,0 -35,-1 -52,1 -11,0 -23,4 -33,7 -17,7 -27,20 -29,38 -1,10 -2,20 -3,30 -2,31 -2,62 -3,93 -1,16 -1,34 -1,51 0,13 9,23 21,25 13,2 23,-6 26,-20 2,-4 2,-9 2,-14 1,-34 1,-68 2,-101 2,-19 3,-38 4,-56 20,-6 39,-5 59,-4zm87 121c4,16 11,35 25,52 32,41 90,37 114,-10 24,-47 26,-96 14,-146 -8,-30 -28,-50 -58,-58 -9,-2 -19,-2 -28,1 -29,9 -50,29 -61,58 -14,32 -14,66 -6,103zm106 -85c7,33 4,65 -7,95 -1,3 -3,8 -5,11 -8,11 -20,11 -28,2 -4,-3 -6,-5 -7,-10 -16,-31 -20,-63 -7,-97 4,-9 12,-18 19,-23 14,-8 25,-4 32,11 2,4 2,9 3,11zm270 108c-1,-3 -1,-7 -1,-9 1,-31 1,-61 1,-91 0,-16 0,-31 -4,-47 -10,-45 -58,-60 -94,-33 -23,16 -35,39 -38,66 -1,13 -2,25 -4,36 -1,29 -3,57 -4,86 -6,2 -11,2 -16,4 -24,8 -31,16 -29,41 1,14 8,22 19,24 11,2 19,-2 26,-16 2,-5 6,-8 11,-8 3,-2 8,-2 12,-2 32,-1 63,-2 94,-2 5,0 9,4 11,6 8,8 17,10 26,5 9,-3 14,-11 15,-21 3,-20 -3,-30 -25,-39zm-47 2c-17,1 -33,1 -50,3 -1,-8 -1,-14 -1,-19 2,-33 4,-64 6,-96 1,-16 10,-28 24,-36 10,-5 18,-2 21,9 2,8 2,17 2,25 0,35 -1,72 -1,108 0,2 -1,4 -1,6zm248 -45c1,10 1,15 1,20 1,18 2,34 4,52 1,15 11,22 24,22 14,2 24,-7 26,-22 0,-9 -1,-18 -1,-26 0,-25 -1,-51 -1,-76 0,-16 1,-33 0,-48 0,-9 -4,-19 -9,-26 -6,-9 -15,-15 -23,-22 -16,-14 -33,-20 -54,-19 -25,1 -48,10 -67,28 -44,39 -54,90 -44,146 6,40 45,57 79,35 12,-7 22,-16 31,-25 11,-11 20,-24 34,-39zm-93 18c-4,-36 -3,-70 26,-95 7,-7 19,-13 29,-16 11,-4 21,0 29,11 -24,36 -46,75 -84,100z"/>
     <path class="fil1" d="M3428 3116c9,0 17,1 26,0 31,-1 74,-20 85,-66 4,-20 9,-42 8,-64 0,-29 -9,-55 -32,-75 -29,-27 -63,-37 -102,-32 -21,3 -29,10 -34,32 -1,4 -1,8 -1,13 -10,101 -3,203 0,304 1,6 2,13 5,18 7,15 29,18 39,6 5,-6 7,-15 7,-21 2,-18 -1,-36 -1,-53 -1,-20 0,-39 0,-62zm-4 -51c1,-46 3,-90 4,-132 29,-6 55,9 63,33 9,26 4,52 -6,77 -4,12 -15,18 -28,20 -9,1 -19,1 -33,2zm157 -26c5,16 11,35 25,52 32,41 90,37 115,-10 23,-47 25,-96 13,-146 -8,-30 -28,-50 -58,-58 -9,-2 -19,-2 -28,1 -29,9 -50,29 -61,58 -14,32 -14,66 -6,103zm106 -85c7,33 5,65 -7,95 -1,3 -3,8 -5,11 -8,11 -20,11 -28,2 -3,-3 -6,-5 -7,-10 -15,-31 -20,-63 -6,-97 3,-9 11,-18 19,-23 13,-8 24,-4 31,11 2,4 2,9 3,11zm159 59c3,9 6,16 8,22 7,22 14,42 21,62 6,16 19,22 33,19 15,-5 21,-17 16,-34 -13,-34 -25,-68 -38,-102 -4,-8 -3,-14 3,-20 10,-13 19,-26 28,-39 4,-6 7,-12 9,-17 4,-12 0,-24 -11,-29 -11,-7 -24,-5 -33,5 -2,3 -3,6 -5,8 -15,20 -30,41 -45,62 -2,2 -5,4 -11,10 0,-13 0,-22 0,-31 0,-13 1,-26 -1,-39 -1,-13 -12,-21 -25,-21 -12,0 -23,9 -25,21 -1,5 0,10 0,15 -1,42 -1,84 -1,125 0,20 0,41 2,61 2,16 14,25 29,22 13,-1 22,-11 22,-26 0,-10 -1,-20 -2,-30 -2,-20 9,-32 26,-44z"/>
    </g>
    <path class="fil2" d="M2868 3407c-34,-47 -166,-59 -291,-72 -125,-14 -330,0 -406,0 -77,0 -70,53 -326,23 -256,-29 -294,-25 -285,12 9,37 -21,144 -1,177 19,33 194,73 295,73 102,0 375,-21 479,-26 104,-5 233,-48 301,-29 67,18 170,27 187,22 17,-5 47,-180 47,-180z"/>
    <path class="fil1" d="M1790 3440c0,3 1,6 1,8 -1,13 -1,27 -2,40 0,6 0,13 0,20 0,6 4,10 9,10 6,0 10,-3 11,-10 0,0 0,-1 0,-3 0,-19 1,-38 2,-57 0,-5 -1,-10 -2,-15 -1,-9 -7,-13 -16,-13 -7,0 -14,-1 -21,0 -5,0 -10,1 -14,3 -7,3 -11,8 -12,15 0,4 -1,9 -1,13 -1,12 -1,25 -1,38 0,7 0,14 0,21 0,5 3,9 8,10 5,1 9,-3 11,-8 1,-2 1,-4 1,-6 0,-14 0,-28 1,-41 0,-8 1,-16 1,-23 8,-3 16,-2 24,-2zm84 81c3,0 6,1 10,0 13,0 30,-8 35,-27 2,-8 4,-17 3,-26 0,-12 -4,-23 -13,-31 -12,-11 -26,-15 -42,-13 -9,1 -12,4 -14,13 0,2 0,4 0,5 -4,42 -1,84 0,125 0,3 1,5 2,8 3,6 12,7 16,2 2,-2 3,-6 3,-9 0,-7 0,-14 0,-21 -1,-8 0,-16 0,-26zm-2 -20c0,-20 1,-37 2,-55 11,-2 22,4 25,14 4,10 2,21 -2,31 -2,5 -7,8 -12,9 -3,0 -7,0 -13,1zm92 -11c2,6 4,14 10,21 13,17 37,15 47,-4 10,-19 10,-39 5,-60 -3,-12 -11,-21 -23,-24 -4,-1 -8,-1 -12,1 -12,3 -20,12 -25,23 -5,14 -5,27 -2,43zm43 -35c3,14 2,26 -3,39 0,1 -1,3 -2,4 -3,5 -8,5 -11,1 -2,-1 -3,-2 -3,-4 -6,-13 -8,-26 -3,-40 2,-3 5,-7 8,-9 5,-4 10,-2 13,4 1,2 1,4 1,5zm111 24c-1,-4 -2,-6 -3,-9 -3,-11 -6,-22 -10,-33 -1,-5 -3,-9 -6,-13 -6,-7 -15,-6 -19,2 -2,2 -3,5 -4,8 -1,8 -2,15 -3,23 -2,18 -3,35 -4,52 -1,8 3,13 9,13 6,1 10,-3 11,-10 0,-7 1,-13 1,-20 1,-7 1,-15 2,-23 2,2 3,5 4,7 3,8 6,16 10,24 2,6 6,12 13,12 8,0 11,-5 13,-12 4,-11 7,-22 11,-34 0,-2 1,-4 1,-6 2,1 2,3 2,4 1,15 2,30 2,45 1,7 5,11 11,11 5,0 9,-5 9,-12 -1,-22 -1,-44 -2,-66 0,-5 -2,-9 -4,-13 -3,-7 -11,-10 -18,-6 -3,2 -6,5 -9,8 -3,6 -6,11 -7,17 -4,10 -6,20 -10,31zm93 11c2,6 4,14 10,21 13,17 37,15 47,-4 10,-19 11,-39 6,-60 -4,-12 -12,-21 -24,-24 -4,-1 -8,-1 -12,1 -12,3 -20,12 -25,24 -5,13 -5,27 -2,42zm43 -35c3,14 2,26 -2,39 -1,1 -2,3 -3,4 -3,5 -8,5 -11,1 -2,-1 -2,-2 -3,-4 -6,-13 -8,-26 -3,-40 2,-3 5,-7 8,-9 6,-4 10,-2 13,4 1,2 1,4 1,5zm93 24c1,4 3,6 3,9 3,9 6,17 9,25 2,7 7,10 13,8 6,-2 9,-7 7,-14 -5,-14 -10,-27 -16,-42 -1,-3 -1,-5 2,-8 4,-5 7,-10 11,-16 2,-2 3,-4 4,-7 2,-5 0,-9 -5,-12 -4,-2 -9,-1 -13,3 -1,1 -2,2 -2,3 -6,8 -13,17 -19,25 -1,1 -2,2 -4,4 0,-5 0,-9 0,-12 0,-6 0,-11 -1,-16 0,-6 -5,-9 -10,-9 -5,0 -9,4 -10,9 -1,2 0,4 0,6 -1,17 -1,34 -1,51 0,8 0,17 1,25 1,7 6,10 12,9 5,0 9,-4 9,-11 0,-4 0,-8 -1,-12 -1,-8 4,-13 11,-18zm76 11c2,6 4,14 10,21 13,17 37,15 47,-4 10,-19 10,-39 5,-60 -3,-12 -11,-21 -23,-24 -4,-1 -8,-1 -12,1 -12,3 -20,12 -25,24 -5,13 -5,27 -2,42zm43 -35c3,14 2,26 -3,39 0,1 -1,3 -2,4 -3,5 -8,5 -11,1 -2,-1 -3,-2 -3,-4 -6,-13 -8,-26 -3,-40 2,-3 5,-7 8,-9 6,-4 10,-2 13,4 1,2 1,4 1,5zm138 44c0,-1 0,-3 0,-3 0,-13 0,-26 0,-38 0,-6 0,-13 -1,-19 -4,-18 -24,-25 -39,-14 -9,7 -14,16 -15,28 -1,5 -1,10 -2,14 0,12 -1,24 -2,35 -2,1 -4,1 -6,2 -10,3 -13,7 -12,17 1,6 3,9 8,10 4,1 8,-1 10,-7 1,-2 3,-3 5,-3 1,-1 3,-1 5,-1 13,0 26,-1 38,-1 2,0 4,2 5,3 3,3 7,4 11,2 3,-1 5,-5 6,-9 1,-8 -1,-12 -11,-16zm-19 1c-7,1 -14,1 -20,1 -1,-3 -1,-5 -1,-8 1,-13 2,-26 3,-39 0,-6 4,-12 10,-15 4,-2 7,-1 8,4 1,3 1,7 1,10 0,15 0,30 0,44 0,1 -1,2 -1,3zm82 15c6,0 10,-5 11,-11 0,-6 -5,-11 -11,-11 -6,0 -11,5 -11,11 0,5 5,11 11,11zm1 -53c6,0 11,-4 11,-10 0,-6 -5,-10 -10,-10 -6,-1 -11,3 -11,9 0,6 5,11 10,11z"/>
    <path class="fil1" d="M941 3732c5,-8 10,-17 14,-27 12,-30 6,-62 -14,-80 -20,-16 -43,-21 -67,-16 -7,1 -12,3 -18,4 -16,4 -23,11 -23,27 -2,52 -5,104 -5,157 0,36 1,73 2,109 1,18 18,33 34,32 16,0 34,-1 50,-3 39,-5 70,-24 81,-65 4,-13 6,-29 6,-43 -2,-25 -5,-50 -24,-68 -10,-10 -24,-17 -36,-27zm-69 162c0,-31 0,-60 -1,-87 0,-9 4,-14 11,-18 15,-7 30,-10 45,-10 9,0 17,5 21,15 11,23 13,48 2,72 -6,15 -18,22 -33,24 -14,3 -28,2 -45,4zm1 -159c1,-13 2,-22 2,-31 1,-13 2,-27 2,-40 1,-10 3,-13 15,-13 17,0 26,11 24,28 -1,12 -6,22 -14,30 -7,10 -16,17 -29,26zm202 119c-1,0 -2,-1 -3,-1 1,-21 2,-42 2,-63 1,-14 2,-29 1,-43 0,-10 -9,-17 -19,-18 -10,-1 -20,5 -23,16 -1,4 -1,9 -2,14 -1,39 -2,78 -3,118 -1,12 0,25 1,38 4,20 23,29 41,18 7,-3 12,-9 17,-16 11,-18 22,-36 32,-54 4,-5 7,-11 10,-17 3,14 3,26 3,37 0,14 0,26 0,38 0,13 7,22 18,23 12,2 23,-6 26,-18 1,-5 1,-10 1,-13 1,-38 1,-76 2,-114 0,-8 0,-17 0,-25 0,-12 -6,-21 -17,-25 -11,-5 -20,0 -28,9 -8,10 -18,21 -25,34 -12,20 -23,41 -34,62zm247 -74c0,9 1,15 0,22 -3,35 -6,69 -7,104 -1,8 -1,15 0,22 2,10 12,17 21,17 11,-1 19,-8 21,-18 1,-3 1,-6 1,-9 3,-39 6,-79 8,-119 1,-11 0,-23 -2,-35 -3,-15 -14,-26 -29,-26 -22,-1 -46,-1 -69,2 -17,2 -24,13 -25,29 -1,6 -1,10 -1,16 1,16 1,33 1,49 0,19 -2,37 -9,55 -4,0 -7,-1 -11,-1 -16,1 -26,15 -21,30 6,21 33,32 51,18 7,-5 14,-13 17,-21 7,-16 13,-32 14,-49 3,-21 1,-43 2,-66 0,-6 0,-12 0,-20 14,0 24,0 38,0zm186 0c0,9 1,15 0,22 -3,35 -6,69 -8,104 -1,8 -1,15 1,22 2,10 12,17 21,17 11,-1 19,-8 21,-18 1,-3 1,-6 1,-9 3,-39 6,-79 7,-119 1,-11 0,-23 -1,-35 -3,-15 -14,-26 -29,-26 -22,-1 -46,-1 -69,2 -17,2 -24,13 -25,29 -1,6 -1,10 -1,16 1,16 1,33 1,49 0,19 -2,37 -9,55 -5,0 -7,-1 -11,-1 -16,1 -26,15 -21,30 6,21 33,32 51,18 7,-5 14,-13 17,-21 7,-16 12,-32 14,-49 3,-21 1,-43 2,-66 0,-6 0,-12 0,-20 13,0 24,0 38,0zm190 82c1,8 1,13 1,17 0,15 1,29 3,44 1,12 10,19 20,19 12,1 21,-7 23,-19 0,-8 -1,-15 -1,-22 0,-21 -1,-43 -1,-65 0,-13 1,-27 0,-41 0,-7 -4,-16 -8,-21 -5,-8 -13,-13 -19,-19 -14,-12 -28,-17 -46,-16 -22,1 -40,8 -57,23 -37,33 -46,77 -37,124 5,34 38,48 67,30 10,-6 19,-14 26,-21 10,-10 17,-20 29,-33zm-79 15c-4,-31 -3,-59 22,-81 6,-5 16,-10 24,-13 10,-4 18,0 25,10 -20,30 -39,63 -71,84zm308 21c-1,-2 -1,-5 -1,-7 1,-27 1,-52 1,-78 0,-13 0,-26 -3,-39 -8,-38 -49,-51 -80,-29 -19,15 -30,33 -32,57 -1,10 -2,21 -3,30 -1,25 -3,49 -4,73 -5,2 -10,2 -13,4 -21,6 -27,13 -25,34 1,12 7,19 16,21 10,2 16,-2 22,-14 2,-4 5,-7 9,-7 3,-1 7,-1 11,-1 26,-1 53,-2 79,-2 4,0 8,3 10,5 6,6 14,8 21,5 8,-3 13,-10 14,-18 2,-17 -3,-26 -22,-34zm-40 2c-14,1 -28,1 -42,2 -1,-6 -1,-11 -1,-16 2,-27 3,-54 5,-81 1,-13 9,-24 20,-30 9,-5 15,-2 18,7 2,7 2,14 2,21 0,30 -1,61 -1,92 0,2 -1,3 -1,5zm155 -57c11,3 14,9 13,20 -2,19 -3,40 -3,60 -1,12 7,20 17,22 10,1 19,-6 22,-16 1,-6 1,-11 2,-16 0,-13 1,-25 2,-38 0,-3 1,-8 3,-10 5,-5 13,-11 20,-17 2,5 4,8 5,12 8,21 16,41 24,63 4,10 12,16 21,14 10,-1 17,-8 18,-19 0,-4 -1,-10 -3,-14 -9,-23 -16,-46 -27,-69 -7,-16 -9,-30 4,-44 7,-8 11,-17 15,-26 6,-13 -1,-26 -13,-28 -11,-2 -17,3 -23,11 -9,14 -18,29 -27,44 -4,4 -6,10 -13,14 0,-6 0,-11 0,-14 0,-12 1,-24 2,-36 0,-14 -7,-23 -19,-23 -11,-1 -19,8 -21,21 -1,11 -1,23 -2,34 -1,3 -2,6 -3,12 -12,-14 -23,-26 -33,-39 -7,-6 -11,-14 -18,-20 -8,-9 -18,-10 -27,-4 -7,6 -10,18 -5,27 2,4 5,7 8,11 11,12 20,24 31,37 -18,31 -29,63 -37,97 -3,13 2,23 12,26 11,4 21,-2 26,-14 2,-7 4,-15 6,-23 6,-19 12,-38 23,-55zm261 -44c0,-1 0,-1 0,-1 28,0 54,0 82,0 9,0 17,-6 20,-15 3,-10 1,-21 -8,-25 -6,-4 -13,-6 -21,-6 -18,0 -36,2 -54,2 -30,0 -60,-1 -90,-2 -12,0 -20,6 -24,16 -3,9 2,22 12,26 9,3 17,4 26,5 19,0 38,0 57,0zm186 -14c0,16 1,31 0,46 0,31 -1,61 -1,91 0,13 10,22 21,22 11,0 20,-8 22,-20 1,-3 1,-7 1,-10 0,-20 0,-41 1,-62 0,-23 1,-48 2,-73 7,-1 15,-1 20,-2 11,-3 17,-12 17,-21 0,-11 -7,-20 -19,-21 -5,-1 -11,-1 -17,-1 -29,2 -57,5 -87,7 -1,1 -2,1 -4,2 -11,2 -16,11 -15,21 0,10 6,18 17,20 5,1 11,0 17,1 8,0 17,0 25,0zm150 82c2,-1 4,-1 6,-2 8,0 16,0 24,-1 10,-1 20,-1 30,-3 18,-5 30,-19 32,-38 4,-30 -16,-63 -45,-74 -8,-3 -19,-5 -28,-3 -33,7 -55,28 -61,61 -7,28 -1,56 7,83 5,17 14,30 27,43 11,10 24,15 39,13 37,-3 62,-30 72,-61 3,-9 -2,-18 -10,-22 -9,-4 -18,-1 -24,7 -3,5 -6,10 -8,14 -5,10 -13,16 -23,21 -10,4 -16,3 -24,-5 -7,-9 -13,-19 -14,-33zm-6 -39c0,-18 5,-33 21,-40 15,-7 26,-3 33,10 2,5 4,10 5,15 1,7 -2,11 -9,12 -17,1 -33,2 -50,3zm232 -51c0,5 1,11 1,15 -1,28 -2,56 -3,83 0,13 -1,27 -1,42 1,13 8,20 20,21 11,0 19,-7 21,-20 0,-2 0,-4 0,-7 1,-40 3,-79 4,-119 0,-10 -1,-20 -3,-30 -3,-19 -15,-28 -34,-28 -14,0 -29,-1 -43,1 -10,0 -20,3 -29,6 -14,5 -22,17 -24,32 -1,8 -2,17 -3,25 -1,26 -1,53 -2,79 -1,14 -1,29 -1,43 0,12 8,20 18,22 11,1 19,-6 22,-17 2,-4 2,-8 2,-12 1,-29 1,-58 2,-86 1,-16 2,-32 2,-48 18,-4 34,-3 51,-2zm186 3c0,9 1,15 0,22 -2,35 -5,69 -7,104 -1,8 -1,15 1,22 2,10 11,17 21,17 10,-1 18,-8 20,-18 1,-3 1,-6 1,-9 3,-39 6,-79 8,-119 1,-11 0,-23 -2,-35 -3,-15 -13,-26 -28,-26 -23,-1 -47,-1 -69,2 -17,2 -25,13 -26,29 -1,6 -1,10 -1,16 1,16 1,33 1,49 0,19 -2,37 -8,55 -5,0 -8,-1 -12,-1 -16,1 -25,15 -21,30 6,21 34,32 51,18 7,-5 15,-13 17,-21 7,-16 13,-32 15,-49 3,-21 1,-43 2,-66 0,-6 0,-12 0,-20 13,0 23,0 37,0zm112 74c0,0 -1,-1 -2,-1 1,-21 2,-41 2,-63 0,-14 1,-29 0,-43 0,-10 -8,-17 -18,-18 -11,-1 -20,5 -23,16 -1,4 -1,9 -2,14 -1,39 -3,78 -4,118 -1,12 0,25 2,38 4,20 23,29 41,18 6,-3 12,-9 17,-16 11,-18 22,-36 32,-54 4,-5 7,-11 9,-17 4,14 4,26 4,37 0,14 0,26 0,38 0,13 7,22 18,23 11,2 23,-6 26,-18 1,-5 1,-10 1,-13 1,-38 1,-76 1,-114 0,-8 0,-17 0,-25 0,-12 -5,-21 -17,-25 -10,-5 -19,0 -27,9 -8,10 -18,21 -25,34 -13,20 -23,41 -35,62zm172 48c0,-5 -1,-10 -1,-16 -2,-43 2,-92 2,-139 0,-9 -8,-17 -19,-19 -8,-1 -18,3 -22,12 -2,5 -3,11 -3,18 -1,26 -1,54 -1,80 0,22 0,44 0,66 1,20 8,29 27,37 14,5 28,6 43,5 20,-2 40,-3 59,-4 3,5 5,7 7,8 5,9 13,13 23,10 9,-2 16,-9 17,-20 1,-24 -5,-36 -29,-38 -1,0 -2,-1 -4,-2 -2,-40 7,-104 4,-147 -1,-12 -9,-20 -21,-20 -10,0 -19,7 -21,17 -1,4 -1,8 -1,11 -2,47 -2,92 -6,139 -18,1 -35,7 -54,2zm277 -40c1,8 1,13 1,17 1,15 2,29 3,44 1,12 10,19 20,19 13,1 21,-7 23,-19 0,-8 -1,-15 -1,-22 0,-21 -1,-43 -1,-65 0,-13 1,-27 0,-41 0,-7 -4,-16 -7,-21 -6,-8 -14,-13 -20,-19 -14,-12 -28,-17 -46,-16 -21,1 -40,8 -56,23 -38,33 -47,77 -38,124 5,34 39,48 67,30 10,-6 19,-14 26,-21 10,-10 17,-20 29,-33zm-79 15c-4,-31 -3,-59 22,-81 7,-5 16,-10 25,-13 9,-4 18,0 24,10 -20,30 -39,63 -71,84z"/>
   </g>
  </g>
 </g>
</svg>
