<?xml version="1.0" encoding="UTF-8"?>
<!DOCTYPE svg PUBLIC "-//W3C//DTD SVG 1.1//EN" "http://www.w3.org/Graphics/SVG/1.1/DTD/svg11.dtd">
<!-- Creator: CorelDRAW X7 -->
<svg xmlns="http://www.w3.org/2000/svg" xml:space="preserve" width="45mm" height="45mm" version="1.1" style="shape-rendering:geometricPrecision; text-rendering:geometricPrecision; image-rendering:optimizeQuality; fill-rule:evenodd; clip-rule:evenodd"
viewBox="0 0 4500 4500"
 xmlns:xlink="http://www.w3.org/1999/xlink">
 <defs>
  <style type="text/css">
   <![CDATA[
    .fil2 {fill:black}
    .fil0 {fill:#E94F42}
    .fil3 {fill:#FEFEFE;fill-rule:nonzero}
    .fil1 {fill:black;fill-rule:nonzero}
   ]]>
  </style>
 </defs>
 <g id="Слой_x0020_1">
  <metadata id="CorelCorpID_0Corel-Layer"/>
  <g>
   <path class="fil0" d="M4149 259c0,0 122,141 128,676 5,535 22,2163 24,2348 2,184 118,539 -14,708 -133,170 -97,288 -717,295 -620,6 -1957,20 -2208,23 -252,2 -845,153 -1012,-62 -167,-215 -193,-683 -200,-1298 -6,-615 151,-1366 99,-1761 -53,-395 -135,-757 -39,-849 95,-93 509,-171 1381,-180 872,-9 1823,-19 2040,-22 217,-2 518,122 518,122z"/>
   <path id="1" class="fil1" d="M4315 935l-76 0 0 0 -1 -48 -1 -46 -3 -44 -2 -42 -3 -40 -4 -37 -4 -36 -4 -33 -5 -32 -5 -29 -5 -28 -5 -26 -6 -24 -5 -23 -6 -21 -5 -19 -6 -17 -5 -16 -6 -15 -5 -13 -5 -12 -5 -10 -4 -9 -4 -8 -4 -7 -3 -5 -3 -5 -2 -3 -1 -2 -2 -2 0 0 1 0 57 -49 1 1 2 2 2 4 3 4 3 5 4 6 4 7 5 8 5 10 5 11 6 12 5 13 6 15 6 16 6 18 6 19 6 21 6 22 6 24 6 26 6 27 5 30 5 31 5 32 5 35 4 37 3 39 3 41 3 43 2 45 2 47 1 50 0 0zm24 2347l-76 1 0 0 0 -22 0 -29 -1 -37 0 -44 -1 -51 0 -56 -1 -63 0 -68 -1 -72 -1 -77 -1 -80 -1 -84 -1 -87 -1 -89 -1 -91 -1 -93 0 -93 -1 -94 -1 -95 -1 -94 -1 -93 -1 -91 -1 -90 -1 -88 -1 -85 -1 -82 -1 -79 -1 -74 0 -70 -1 -64 -1 -59 0 -54 76 0 0 53 1 59 1 65 0 69 1 75 1 78 1 82 1 85 0 88 1 90 1 92 1 93 1 94 1 94 1 94 1 94 1 92 1 91 1 89 1 87 1 84 1 81 1 76 0 73 1 67 1 63 0 57 1 50 0 44 1 37 0 30 0 21 0 0zm-22 733l-60 -47 0 0 10 -14 8 -14 8 -16 7 -17 6 -18 4 -19 4 -19 3 -21 3 -21 1 -22 1 -22 0 -23 -1 -24 -1 -24 -1 -24 -2 -24 -3 -24 -3 -25 -3 -24 -3 -25 -4 -24 -3 -24 -4 -24 -3 -23 -3 -23 -4 -23 -2 -22 -3 -22 -2 -21 -2 -20 -1 -20 -1 -19 76 -1 1 17 1 17 1 19 2 20 3 20 3 22 3 22 3 23 3 23 4 24 3 24 4 25 3 25 3 25 3 26 3 25 2 26 2 25 1 26 1 25 0 25 -1 25 -2 25 -2 24 -4 24 -5 23 -6 23 -7 23 -9 21 -10 21 -12 21 -13 19 0 0zm-746 309l-1 -76 0 0 56 -1 52 -2 48 -2 45 -3 42 -3 38 -4 35 -5 33 -5 30 -5 27 -6 24 -7 23 -6 20 -8 18 -7 16 -8 15 -9 13 -8 12 -9 11 -10 11 -9 9 -11 10 -10 9 -12 8 -12 9 -13 9 -13 9 -14 10 -14 10 -15 11 -16 11 -16 13 -17 60 47 -12 15 -10 14 -10 15 -10 15 -9 14 -10 14 -9 14 -10 14 -10 14 -11 14 -11 13 -13 13 -13 13 -15 12 -16 12 -17 11 -19 11 -20 10 -22 9 -23 8 -26 8 -28 8 -29 6 -32 6 -35 6 -37 4 -41 4 -43 4 -46 3 -50 2 -53 2 -56 1 0 0zm-2209 23l-1 -76 0 0 27 0 33 -1 38 0 44 -1 49 0 53 -1 58 0 62 -1 66 -1 69 0 72 -1 75 -1 77 -1 80 -1 81 0 82 -1 84 -1 84 -1 85 -1 85 -1 84 -1 84 -1 83 0 82 -1 81 -1 78 -1 76 -1 74 -1 71 0 67 -1 65 -1 60 0 1 76 -61 0 -64 1 -67 1 -71 0 -74 1 -76 1 -79 1 -80 1 -82 0 -83 1 -84 1 -85 1 -84 1 -85 1 -85 1 -83 1 -83 0 -81 1 -79 1 -77 1 -75 1 -72 0 -69 1 -66 1 -62 0 -58 1 -54 1 -48 0 -44 1 -39 0 -32 0 -27 1 0 0zm-1042 -76l60 -47 0 0 13 16 16 14 18 12 21 12 22 10 25 9 27 7 28 7 30 5 32 4 32 2 34 2 35 1 36 0 36 -1 37 -2 37 -3 37 -3 38 -3 37 -4 37 -4 37 -4 36 -4 35 -4 35 -4 34 -4 33 -4 31 -3 30 -3 29 -2 27 -2 26 0 1 76 -23 0 -26 2 -27 2 -30 2 -30 4 -33 3 -33 4 -35 4 -35 4 -37 5 -37 4 -37 4 -38 4 -38 3 -39 3 -38 2 -38 2 -38 1 -37 1 -37 -1 -37 -2 -35 -3 -35 -4 -33 -6 -33 -7 -31 -9 -30 -11 -28 -12 -27 -15 -25 -18 -22 -20 -20 -22 0 0zm-208 -1322l76 -1 0 0 1 58 1 56 0 55 2 55 1 53 2 52 1 52 2 50 3 50 2 48 4 47 3 46 4 45 4 44 4 43 5 41 6 40 6 39 6 38 7 37 8 35 7 34 9 32 9 31 10 29 10 29 11 26 12 25 12 24 12 22 14 21 14 19 -60 47 -17 -23 -15 -24 -15 -26 -14 -27 -12 -28 -13 -29 -11 -31 -10 -32 -10 -33 -9 -34 -8 -36 -8 -36 -7 -38 -7 -39 -6 -41 -6 -41 -5 -43 -5 -43 -4 -45 -4 -46 -3 -47 -3 -48 -3 -48 -2 -50 -2 -51 -2 -52 -2 -53 -1 -54 -1 -54 -1 -56 -1 -56 -1 -58 0 0zm99 -1756l75 -10 0 0 5 40 3 41 2 43 1 45 0 46 -1 48 -1 49 -3 51 -3 52 -4 53 -4 54 -4 55 -6 56 -5 58 -6 57 -6 59 -6 59 -6 60 -6 60 -6 60 -6 61 -6 61 -5 61 -5 61 -5 61 -4 60 -3 61 -3 60 -3 59 -1 59 -1 58 0 57 -76 1 0 -58 1 -60 1 -60 3 -60 3 -61 4 -61 4 -61 4 -61 6 -61 5 -62 6 -61 6 -61 6 -61 6 -60 6 -60 6 -59 6 -58 6 -58 5 -57 5 -55 5 -55 4 -54 4 -52 3 -51 2 -50 2 -48 0 -47 0 -44 -1 -43 -2 -41 -3 -39 -4 -37 0 0zm-28 -882l53 55 0 0 -5 5 -5 7 -4 9 -4 11 -4 12 -3 15 -3 16 -2 17 -1 19 -1 21 0 22 0 23 1 24 2 25 2 27 3 27 3 29 3 29 4 30 4 31 4 32 5 32 5 33 5 34 5 35 5 34 5 36 6 36 5 36 5 36 5 37 5 37 -75 10 -5 -37 -5 -36 -5 -36 -5 -36 -6 -36 -5 -35 -5 -35 -5 -35 -5 -34 -5 -33 -5 -33 -4 -32 -4 -31 -4 -31 -4 -30 -3 -29 -3 -29 -2 -27 -1 -27 -1 -26 -1 -25 0 -24 1 -23 2 -22 2 -21 3 -20 5 -19 5 -18 7 -17 8 -16 10 -15 12 -14 0 0zm1408 -190l0 76 0 0 -80 1 -77 1 -75 2 -72 2 -70 3 -67 3 -65 3 -62 3 -59 4 -57 5 -55 4 -52 5 -50 5 -48 5 -45 6 -42 6 -41 6 -38 6 -36 7 -33 7 -32 6 -29 7 -27 8 -25 7 -22 7 -21 8 -18 7 -16 8 -13 7 -12 7 -9 7 -7 6 -53 -55 13 -11 14 -10 16 -10 18 -9 19 -9 21 -9 23 -8 25 -8 27 -8 28 -8 31 -7 33 -8 35 -7 37 -6 39 -7 42 -6 43 -6 46 -6 49 -5 50 -5 53 -5 56 -5 57 -4 60 -4 63 -4 65 -3 68 -3 70 -3 73 -2 75 -2 78 -1 81 -1 0 0zm2040 -22l1 76 0 0 -23 1 -27 0 -30 0 -35 0 -38 1 -42 0 -45 1 -48 0 -52 1 -54 0 -57 1 -60 1 -63 0 -65 1 -67 1 -69 0 -71 1 -73 1 -74 1 -76 0 -77 1 -79 1 -79 1 -81 1 -81 1 -81 0 -82 1 -83 1 -82 1 -82 1 -83 1 -82 1 0 -76 82 -1 82 -1 82 -1 83 -1 82 -1 82 0 82 -1 81 -1 80 -1 79 -1 79 -1 77 0 76 -1 74 -1 73 -1 71 0 69 -1 67 -1 65 -1 63 0 60 -1 57 0 55 -1 51 -1 49 0 45 0 41 -1 39 0 34 -1 31 0 26 0 23 -1 0 0zm547 135l-57 49 14 11 -1 -1 -2 -1 -4 -1 -6 -2 -7 -3 -8 -3 -10 -4 -11 -4 -12 -4 -14 -5 -14 -5 -16 -5 -16 -6 -17 -5 -18 -6 -18 -5 -20 -6 -19 -6 -20 -5 -21 -5 -21 -6 -21 -5 -21 -4 -22 -4 -21 -4 -21 -4 -22 -3 -20 -2 -21 -2 -20 -2 -20 -1 -19 0 -1 -76 22 1 22 1 22 1 23 2 22 3 23 3 23 4 23 4 22 5 23 5 22 5 22 5 21 6 21 5 20 6 20 6 20 6 18 5 18 6 16 6 16 5 15 5 14 5 13 5 11 4 10 4 9 3 8 3 6 2 4 2 3 1 1 1 14 10zm-14 -10l8 3 6 7 -14 -10z"/>
  </g>
  <path class="fil2" d="M2893 3249c-33,-46 -162,-57 -285,-71 -122,-13 -322,0 -397,0 -74,0 -68,52 -318,23 -250,-28 -287,-24 -278,12 9,36 -21,140 -2,173 20,32 190,72 289,72 99,0 366,-22 468,-26 102,-5 228,-47 294,-28 66,18 166,26 183,21 17,-5 46,-176 46,-176z"/>
  <path class="fil3" d="M1839 3282c-4,-1 -8,-1 -12,-1 -4,0 -8,1 -12,2l-1 23c-1,7 -1,13 -1,20 0,7 0,14 0,20 0,1 0,2 0,3 0,1 -1,2 -1,3 -2,6 -5,9 -10,8 -6,-1 -9,-4 -9,-10 0,-3 0,-7 0,-10 0,-4 0,-7 1,-11 0,-6 0,-12 0,-18 0,-7 0,-13 0,-19l2 -12c1,-8 5,-13 11,-15 3,-1 5,-2 7,-2 2,-1 4,-1 7,-1 3,-1 7,-1 10,-1 4,0 7,1 10,1 9,0 15,4 16,13 1,4 2,9 2,14 0,10 -1,19 -1,28 0,10 -1,19 -1,29l0 3c-1,6 -4,10 -10,10 -6,-1 -9,-4 -10,-11 0,-3 0,-6 1,-10 0,-3 0,-6 0,-9 0,-7 0,-14 0,-20 1,-7 1,-13 1,-20 0,-1 0,-2 0,-3 0,-2 0,-3 0,-4zm81 79c0,5 0,9 0,13 0,4 0,8 0,12 0,3 0,7 1,10 0,4 0,7 0,11 0,1 -1,3 -1,4 -1,2 -1,3 -3,4 -2,3 -4,4 -8,3 -3,0 -6,-2 -7,-5 -1,-1 -1,-2 -1,-3 0,-2 -1,-3 -1,-4 -1,-21 -1,-41 -2,-61 -1,-20 0,-41 2,-61 0,-3 0,-4 0,-5 1,-5 3,-8 5,-9 2,-2 5,-3 9,-4 16,-2 29,2 41,13 4,4 8,8 10,13 2,5 3,11 3,17 0,4 0,8 -1,13 -1,4 -2,8 -3,12 -2,10 -7,16 -14,20 -7,4 -13,6 -20,7 -1,0 -3,0 -5,0 -1,0 -3,0 -5,0zm-2 -20c3,-1 6,-1 8,-1 2,0 4,0 6,0 2,-1 4,-2 6,-3 3,-1 4,-3 5,-5 2,-5 3,-10 4,-16 1,-5 0,-10 -2,-15 -1,-5 -4,-9 -9,-12 -5,-2 -10,-3 -16,-2 0,9 0,18 -1,26 0,9 0,18 -1,28zm90 -11c-1,-8 -2,-15 -2,-21 0,-7 2,-14 4,-20 5,-12 13,-20 25,-23 4,-2 7,-2 11,-1 12,3 20,11 23,23 3,10 4,20 3,30 0,10 -3,19 -8,29 -2,5 -5,8 -9,11 -4,2 -8,4 -13,4 -4,0 -8,0 -13,-2 -4,-2 -8,-5 -11,-9 -3,-3 -5,-7 -6,-11 -2,-3 -3,-7 -4,-10zm43 -34c-1,-1 -1,-1 -1,-2 0,-1 0,-2 -1,-3 -3,-6 -7,-7 -12,-4 -4,3 -6,6 -8,9 -2,7 -3,14 -3,20 1,7 3,13 6,19 0,1 1,3 3,4 1,2 3,3 5,3 2,0 4,-1 6,-4 1,-1 1,-3 2,-4 5,-12 5,-25 3,-38zm108 23c2,-5 3,-10 5,-15 1,-5 3,-10 4,-14 2,-6 5,-12 8,-17 2,-3 5,-6 9,-8 3,-2 7,-2 10,-1 3,1 6,3 7,7 2,4 3,8 3,12 1,11 1,22 2,33 0,11 1,22 1,32 0,4 -1,6 -3,8 -1,2 -4,4 -6,4 -3,0 -6,-1 -7,-3 -2,-2 -3,-5 -4,-8 0,-7 0,-15 0,-22 0,-7 -1,-15 -1,-22 0,-2 -1,-3 -2,-4 0,1 -1,2 -1,3 0,1 -1,2 -1,3 -2,6 -3,11 -5,17 -2,5 -3,11 -5,16 -1,4 -2,6 -4,8 -2,3 -5,4 -9,4 -3,0 -6,-2 -8,-4 -2,-2 -4,-5 -5,-8 -2,-4 -3,-8 -5,-12 -1,-3 -3,-7 -5,-11 0,-2 -1,-3 -1,-4 -1,-1 -1,-2 -3,-3l-1 23c0,3 -1,6 -1,9 0,3 0,6 -1,9 -1,8 -4,11 -10,11 -7,-1 -10,-5 -9,-13 1,-8 1,-17 2,-25 0,-9 1,-17 2,-26 0,-4 1,-7 1,-11 1,-4 2,-8 2,-11 1,-2 1,-3 2,-4 0,-2 1,-3 1,-5 3,-3 6,-5 10,-5 3,-1 7,1 10,4 2,3 4,7 5,12 2,5 4,11 6,16 1,6 3,11 4,17 1,1 1,3 2,4 0,1 1,2 1,4zm91 11c-2,-8 -2,-15 -2,-21 0,-7 1,-14 4,-20 4,-12 13,-20 25,-23 3,-2 7,-2 11,-1 12,3 20,11 23,23 2,10 3,20 3,30 -1,10 -4,19 -8,29 -3,5 -6,8 -10,11 -4,2 -8,4 -12,4 -4,0 -9,0 -13,-2 -4,-2 -8,-5 -11,-9 -3,-3 -5,-7 -7,-11 -1,-3 -2,-7 -3,-10zm42 -34c0,-1 0,-1 0,-2 0,-1 -1,-2 -1,-3 -3,-6 -7,-7 -13,-4 -3,3 -6,6 -7,9 -3,7 -4,14 -3,20 0,7 2,13 5,19 1,1 2,3 3,4 2,2 3,3 6,3 2,0 4,-1 5,-4 1,-1 2,-3 3,-4 4,-12 5,-25 2,-38zm91 24c-4,2 -6,5 -8,7 -3,3 -3,6 -3,11 1,2 1,4 1,6 0,2 0,4 0,6 0,6 -3,10 -9,10 -3,1 -5,0 -7,-1 -2,-2 -4,-4 -4,-8 -1,-4 -1,-8 -1,-12 0,-4 0,-8 0,-12 0,-9 0,-17 0,-25 0,-8 0,-17 0,-25 0,-1 0,-2 0,-3 0,-1 0,-2 0,-3 1,-2 2,-4 4,-6 2,-2 4,-3 6,-3 3,0 5,1 7,3 2,1 3,3 3,6 1,2 1,5 1,8 0,2 0,5 0,8l0 12c1,-2 2,-2 2,-3 1,0 2,-1 2,-1 3,-5 6,-9 9,-13 3,-4 6,-8 9,-12 1,-1 1,-1 1,-2 0,0 1,-1 1,-1 4,-5 9,-5 13,-2 5,2 7,6 5,11 -1,1 -1,3 -2,4 0,1 -1,2 -2,3 -2,3 -3,5 -5,8 -2,3 -4,5 -6,8 -2,2 -3,5 -1,8 2,7 5,13 7,20 3,7 5,14 8,21 2,7 0,11 -6,13 -7,2 -11,-1 -14,-7 -1,-5 -3,-9 -4,-13 -1,-4 -2,-8 -4,-12 0,-1 -1,-3 -2,-4 0,-2 -1,-3 -1,-5zm74 10c-2,-8 -2,-15 -2,-21 0,-7 1,-14 4,-20 5,-12 13,-20 25,-23 3,-2 7,-2 11,-1 12,3 20,11 23,23 2,10 3,20 3,30 -1,10 -4,19 -8,29 -3,5 -6,8 -10,11 -4,2 -8,4 -12,4 -4,0 -9,0 -13,-2 -4,-2 -8,-5 -11,-9 -3,-3 -5,-7 -7,-11 -1,-3 -2,-7 -3,-10zm42 -34c0,-1 0,-1 0,-2 0,-1 0,-2 -1,-3 -3,-6 -7,-7 -13,-4 -3,3 -6,6 -7,9 -3,7 -4,14 -3,20 0,7 2,13 6,19 0,1 1,3 2,4 2,2 4,3 6,3 2,0 4,-1 5,-4 1,-1 2,-3 3,-4 4,-12 5,-25 2,-38zm135 43c5,2 8,4 9,6 2,2 2,5 2,10 -1,4 -3,7 -7,8 -3,2 -7,1 -10,-2 0,-1 -1,-1 -2,-2 -1,0 -1,0 -2,0 -7,0 -13,0 -19,0 -6,0 -13,0 -19,0 -2,0 -4,1 -5,1 -2,0 -3,1 -4,3 -3,6 -6,8 -11,7 -4,-1 -7,-4 -7,-10 -1,-5 0,-9 1,-11 2,-2 5,-4 10,-5 1,-1 2,-1 3,-1 1,0 2,0 4,-1 0,-6 0,-12 1,-17 0,-6 0,-11 0,-17 1,-3 1,-5 1,-8 0,-2 1,-4 1,-7 1,-11 6,-20 15,-27 7,-5 15,-6 23,-4 8,3 13,9 15,18 1,3 1,6 1,9 0,3 0,6 0,10 0,6 0,12 0,18 0,6 0,12 0,18 0,2 0,3 0,4zm-18 1c0,-1 0,-1 0,-2 0,0 0,0 0,-1 0,-7 0,-14 0,-22 0,-7 0,-14 0,-21 0,-2 0,-3 0,-5 0,-2 0,-4 0,-5 -2,-5 -5,-6 -9,-4 -6,4 -9,8 -9,15 -1,6 -1,13 -2,19 0,6 0,13 -1,19 0,1 0,2 0,4 0,1 0,2 0,4 4,-1 7,-1 11,-1 3,0 6,0 10,0zm80 15c-3,0 -6,-2 -8,-4 -2,-2 -4,-5 -4,-7 0,-3 2,-6 4,-8 2,-2 4,-3 8,-3 3,0 5,1 7,3 2,2 3,5 3,8 0,3 -1,6 -3,8 -2,2 -5,3 -7,3zm1 -52c-3,0 -5,-1 -7,-3 -2,-2 -3,-5 -3,-8 0,-3 1,-5 3,-7 2,-2 5,-2 7,-2 3,0 5,1 7,3 2,2 3,4 3,7 0,3 -1,5 -3,7 -2,2 -4,3 -7,3z"/>
  <path class="fil3" d="M1262 3655c6,5 12,9 18,13 6,3 12,8 17,13 9,9 15,19 17,31 3,11 5,23 6,35 0,16 -2,30 -6,43 -5,19 -15,34 -29,44 -14,10 -30,16 -50,19 -16,2 -32,3 -48,3 -8,1 -16,-2 -22,-9 -7,-6 -11,-14 -11,-22 -1,-18 -2,-36 -2,-53 -1,-18 -1,-36 -1,-53 0,-26 1,-52 2,-77 1,-25 2,-51 3,-77 0,-14 8,-23 23,-27 3,0 6,-1 8,-1 3,-1 6,-2 9,-2 24,-6 46,-1 66,15 10,9 16,21 18,35 3,14 1,29 -4,43 -2,5 -4,10 -7,14 -2,4 -5,8 -7,13zm-68 158c9,-2 17,-2 24,-2 7,0 14,-1 21,-2 15,-2 26,-10 32,-23 10,-23 9,-47 -3,-71 -4,-9 -10,-14 -20,-14 -16,0 -31,3 -44,9 -7,4 -11,10 -11,18 1,13 1,27 1,41 0,14 0,28 0,44zm1 -155c12,-8 21,-16 29,-25 8,-10 13,-20 14,-30 1,-9 -1,-15 -5,-20 -4,-5 -11,-8 -19,-8 -6,0 -10,1 -11,3 -2,2 -4,5 -4,10 0,7 0,13 -1,20 0,6 0,12 -1,19 0,5 0,10 0,14 -1,4 -1,10 -2,17zm198 116c5,-11 10,-21 16,-31 5,-9 11,-20 17,-30 3,-6 7,-12 12,-18 4,-5 8,-10 13,-15 3,-5 8,-8 12,-10 5,-1 10,-1 14,1 12,4 17,12 17,24l0 25c0,19 -1,37 -1,56 0,18 0,37 -1,55 0,2 0,4 0,6 0,2 0,5 -1,7 -1,6 -4,11 -9,14 -5,4 -10,5 -16,4 -11,-2 -17,-9 -17,-22l0 -37c0,-6 0,-12 -1,-18 0,-5 -1,-12 -3,-18 -1,3 -2,5 -4,8 -2,2 -3,5 -5,8 -5,9 -10,18 -15,26 -6,9 -11,18 -16,27 -5,7 -11,12 -17,16 -9,4 -17,5 -25,2 -8,-4 -13,-10 -15,-20 -2,-14 -2,-27 -2,-38 1,-20 2,-39 2,-58 1,-18 1,-38 2,-57 1,-3 1,-5 1,-7 0,-2 0,-4 1,-6 3,-12 10,-17 22,-16 5,1 9,2 13,6 4,3 6,7 6,12 0,6 0,13 0,20 0,7 -1,14 -1,21 0,11 -1,21 -1,31 0,10 -1,21 -1,31 0,0 1,0 1,0 0,1 1,1 2,1zm241 -72l-37 0 0 19c0,11 -1,22 0,33 0,11 0,21 -2,32 -1,9 -3,17 -5,24 -3,8 -5,16 -8,24 -2,4 -4,7 -7,11 -4,3 -7,6 -10,9 -4,3 -9,5 -14,6 -6,0 -11,0 -16,-2 -5,-2 -9,-5 -13,-8 -3,-4 -6,-8 -7,-13 -2,-8 -2,-14 2,-20 4,-6 10,-9 18,-10 2,0 4,0 5,1 2,0 4,0 6,0 3,-9 6,-17 7,-26 1,-9 2,-18 2,-27 0,-8 0,-16 0,-24 0,-8 -1,-17 -1,-25 0,-3 0,-5 0,-7 0,-3 0,-5 1,-8 1,-17 9,-27 25,-29 11,-1 22,-2 33,-2 12,0 23,0 34,0 7,0 14,3 19,8 5,5 8,11 9,18 2,12 2,24 2,34 -2,20 -3,39 -4,59 -1,19 -2,38 -4,58 0,3 0,6 -1,8 -1,11 -8,16 -20,18 -5,0 -9,-2 -13,-5 -4,-3 -6,-7 -7,-12 -2,-6 -2,-13 -1,-21 1,-18 2,-34 3,-51 2,-17 3,-34 4,-51 1,-3 1,-6 1,-10 -1,-3 -1,-7 -1,-11zm182 0l-37 0 0 19c-1,11 -1,22 -1,33 1,11 0,21 -1,32 -1,9 -3,17 -6,24 -2,8 -5,16 -8,24 -1,4 -3,7 -7,11 -3,3 -6,6 -9,9 -5,3 -10,5 -15,6 -5,0 -10,0 -15,-2 -5,-2 -9,-5 -13,-8 -4,-4 -6,-8 -7,-13 -3,-8 -2,-14 2,-20 4,-6 10,-9 18,-10 2,0 3,0 5,1 2,0 4,0 6,0 3,-9 5,-17 6,-26 2,-9 2,-18 2,-27 0,-8 0,-16 0,-24 0,-8 0,-17 -1,-25 0,-3 0,-5 0,-7 0,-3 1,-5 1,-8 2,-17 10,-27 25,-29 11,-1 23,-2 34,-2 11,0 23,0 34,0 7,0 13,3 18,8 5,5 8,11 9,18 2,12 3,24 2,34 -1,20 -2,39 -3,59 -2,19 -3,38 -4,58 0,3 0,6 -1,8 -2,11 -9,16 -20,18 -5,0 -10,-2 -13,-5 -4,-3 -6,-7 -8,-12 -2,-6 -2,-13 -1,-21 2,-18 3,-34 4,-51 1,-17 3,-34 4,-51 0,-3 1,-6 0,-10 0,-3 0,-7 0,-11zm185 79c-5,7 -10,13 -14,18 -4,5 -9,10 -14,15 -3,3 -7,7 -12,11 -4,3 -9,7 -13,10 -15,9 -28,10 -42,4 -13,-6 -21,-17 -24,-34 -4,-23 -4,-45 1,-66 6,-20 17,-39 36,-55 15,-14 34,-22 55,-23 17,0 32,5 45,16 3,3 6,6 9,9 4,2 7,6 10,9 2,3 4,7 5,11 2,3 2,7 2,11 1,6 1,13 1,20 0,6 -1,13 -1,19 0,11 1,21 1,32 0,11 0,22 0,32 0,3 1,7 1,10 0,4 0,8 0,11 -2,14 -9,20 -22,19 -12,0 -18,-6 -19,-19 -2,-7 -2,-14 -3,-21 0,-7 0,-15 -1,-22 0,-2 0,-4 0,-7 0,-2 0,-5 -1,-10zm-77 15c16,-10 30,-23 40,-38 10,-15 20,-29 30,-44 -7,-10 -15,-13 -24,-9 -10,3 -18,7 -24,13 -13,10 -20,22 -22,36 -1,13 -1,27 0,42zm301 20c9,4 16,8 19,13 3,5 4,11 2,20 -1,8 -5,14 -12,17 -8,4 -15,2 -22,-4 -1,-2 -2,-3 -4,-4 -1,0 -3,-1 -5,-1 -13,0 -26,0 -39,1 -13,0 -26,0 -39,1 -4,0 -8,0 -10,1 -4,0 -7,2 -9,7 -5,11 -12,15 -21,13 -10,-2 -15,-8 -16,-20 -1,-11 0,-18 3,-22 4,-5 11,-8 21,-11 2,-2 4,-2 6,-2 2,0 5,-1 7,-2 1,-12 1,-24 2,-36 1,-11 1,-23 2,-35 0,-5 1,-10 1,-15 0,-5 1,-10 2,-15 3,-23 13,-42 31,-55 15,-11 31,-14 48,-9 16,6 26,18 30,36 2,7 2,14 3,20 0,6 0,13 0,19 0,13 0,25 0,38 0,12 0,25 -1,38 0,3 1,6 1,7zm-39 2c0,-1 1,-2 1,-2 0,-1 0,-2 0,-3 0,-15 1,-30 1,-45 0,-15 0,-30 0,-45 0,-3 0,-6 0,-10 0,-4 0,-7 -2,-10 -3,-10 -9,-13 -17,-8 -12,7 -19,17 -20,30 -1,14 -2,27 -2,40 -1,13 -2,26 -3,39 0,3 0,5 0,8 0,2 0,5 1,8 7,0 14,-1 21,-1 7,0 14,0 20,-1zm152 -55c-5,8 -10,17 -13,26 -3,9 -7,18 -10,28 -1,4 -2,8 -3,11 -1,4 -2,8 -3,12 -5,12 -13,17 -25,13 -11,-3 -15,-11 -12,-25 4,-17 9,-33 15,-49 5,-16 12,-31 21,-46 -5,-6 -10,-13 -15,-19 -5,-6 -10,-12 -15,-18 -1,-2 -2,-3 -4,-5 -1,-1 -3,-3 -4,-5 -5,-10 -3,-19 6,-27 9,-6 18,-5 26,4 3,3 6,7 8,10 3,4 6,7 9,10 5,7 10,13 15,19 6,6 11,12 17,19 1,-5 2,-9 3,-12 1,-5 1,-11 1,-16 0,-6 0,-11 1,-17 1,-7 4,-12 7,-16 4,-3 9,-5 14,-4 6,0 10,2 14,6 3,4 5,9 5,16 -1,6 -1,12 -2,18 0,6 0,11 -1,17l0 14c4,-2 6,-4 8,-7 1,-2 3,-5 5,-7 5,-7 9,-14 13,-21 4,-8 9,-15 14,-22 6,-9 13,-12 22,-11 6,2 11,5 13,10 3,5 3,11 0,18 -2,4 -4,9 -7,13 -2,4 -5,8 -8,12 -7,7 -10,14 -10,21 1,7 3,14 6,22 5,12 10,23 14,34 4,12 8,23 12,34 2,4 3,8 3,14 -1,11 -7,17 -18,18 -4,1 -8,1 -12,-2 -3,-3 -6,-7 -8,-12 -4,-10 -7,-20 -11,-31 -4,-10 -8,-20 -12,-31 -1,-1 -1,-3 -2,-5 0,-1 -1,-3 -3,-6 -3,3 -7,6 -10,9 -4,2 -7,5 -10,8 -2,2 -3,5 -3,9 0,7 -1,13 -1,19 0,6 -1,12 -1,18 0,3 0,6 0,8 0,2 -1,5 -1,8 -2,5 -4,9 -8,12 -4,3 -9,4 -14,4 -11,-3 -17,-10 -16,-22 0,-19 1,-39 2,-59 2,-10 -3,-17 -12,-19zm255 -43l-56 0c-5,0 -9,-1 -13,-1 -4,-1 -8,-2 -12,-3 -5,-3 -9,-6 -11,-11 -2,-5 -2,-10 -1,-15 3,-11 11,-16 24,-16 14,1 28,1 43,2 15,0 30,0 45,0 8,0 17,0 26,-1 9,-1 18,-1 26,-1 8,0 15,2 21,6 4,2 7,6 8,10 1,5 1,10 0,15 -4,9 -11,14 -20,14l-80 0 0 1zm228 24c3,2 6,4 9,5 2,1 5,2 8,4 14,8 22,19 26,32 3,14 0,28 -10,41 -9,12 -20,20 -34,25 -13,5 -27,8 -43,9 -4,0 -8,0 -12,-1 -5,0 -9,0 -13,-1 -13,-1 -23,-5 -28,-10 -6,-6 -8,-15 -8,-27 0,-23 0,-47 0,-70 0,-24 0,-47 -1,-70 0,-17 8,-25 26,-25 11,0 23,1 36,2 14,2 26,7 36,16 10,8 17,18 19,31 1,7 1,14 -1,20 -2,6 -5,13 -10,19zm-66 75c16,4 31,3 45,-2 8,-3 14,-7 20,-13 8,-7 7,-13 -3,-18 -19,-10 -39,-13 -60,-8 0,7 0,14 0,21 -1,7 -1,13 -2,20zm0 -84c2,1 3,2 4,3 5,-3 10,-6 14,-8 5,-2 9,-5 14,-8 8,-6 8,-12 0,-19 -10,-8 -20,-10 -31,-7 0,7 -1,14 -1,20 0,6 0,12 0,19zm212 42l-22 0c-7,0 -12,-2 -16,-6 -5,-4 -7,-8 -8,-14 0,-5 1,-9 5,-13 4,-3 9,-6 16,-7 3,-1 7,-1 11,-1 3,-1 7,-1 10,-1 -1,-13 -6,-23 -15,-29 -8,-7 -19,-9 -31,-6 -6,1 -11,1 -17,0 -7,-1 -12,-5 -14,-14 -2,-9 1,-16 9,-20 12,-8 25,-11 38,-8 17,4 32,9 44,17 11,8 20,20 26,36 13,34 13,67 0,99 -8,20 -21,35 -40,45 -12,5 -23,7 -33,5 -10,-1 -20,-5 -30,-12 -5,-4 -9,-8 -11,-13 -2,-5 -4,-10 -5,-16 -1,-12 5,-19 17,-22 10,-2 18,2 24,12 0,1 0,1 0,1 1,1 1,1 1,2 3,5 6,8 10,9 4,1 8,-1 12,-5 6,-5 11,-11 14,-17 4,-6 5,-14 5,-22zm157 -45c1,-8 1,-15 1,-22 1,-7 1,-15 1,-22l0 -12c3,-11 10,-17 20,-17 5,1 9,3 13,5 3,3 5,7 6,12 0,8 1,16 1,24 0,8 0,16 1,24 0,18 0,36 0,55 0,18 1,36 1,54 0,13 -6,20 -18,21 -5,2 -10,0 -14,-4 -5,-4 -8,-9 -8,-15 -1,-6 -1,-11 -1,-17 0,-6 0,-12 0,-18 -1,-5 -1,-9 -1,-13 0,-4 0,-9 0,-14 -9,1 -17,1 -24,1 -7,1 -15,1 -23,2 0,10 0,19 -1,28 0,10 0,19 -1,28 0,3 0,6 -1,8 0,3 -1,5 -2,7 -2,5 -5,8 -9,10 -4,2 -9,2 -14,1 -9,-2 -14,-8 -14,-19 0,-8 -1,-16 0,-24 0,-8 0,-16 0,-24l0 -107c0,-5 1,-10 1,-13 1,-5 4,-8 8,-11 4,-3 8,-4 13,-3 11,1 17,7 18,18 1,6 1,12 1,18 0,6 0,12 0,18l0 22c4,0 8,0 12,1 4,0 8,0 12,0 3,0 6,0 10,0 4,-1 8,-1 12,-2zm64 34c1,-19 5,-37 11,-53 7,-15 18,-29 34,-42 11,-8 24,-13 38,-13 13,0 25,5 37,15 7,6 14,14 20,24 4,6 5,12 4,18 -2,5 -5,10 -10,13 -5,3 -10,4 -16,2 -6,-1 -10,-5 -14,-10 -1,-1 -3,-4 -4,-6 -1,-2 -3,-4 -4,-5 -8,-9 -17,-10 -26,-3 -11,9 -19,20 -23,34 -3,15 -3,30 0,46 2,7 4,12 9,17 4,5 10,8 16,9 15,4 28,0 38,-11 2,-3 4,-5 5,-8 2,-2 4,-5 5,-8 9,-10 18,-13 28,-6 10,5 13,14 9,27 -5,14 -14,26 -29,36 -15,9 -30,14 -45,14 -18,0 -34,-5 -47,-14 -13,-9 -22,-22 -27,-38 -3,-6 -4,-13 -5,-19 -1,-6 -2,-13 -4,-19z"/>
  <g>
   <path class="fil3" d="M1228 665c0,11 1,23 4,36 2,12 6,25 12,38 5,11 14,22 25,32 13,12 24,10 32,-7 3,-5 5,-10 6,-15 1,-5 2,-10 3,-15 2,-4 2,-7 3,-10 0,-3 1,-6 2,-9 2,-5 5,-9 10,-12 4,-2 9,-3 14,-2 5,1 10,4 13,8 4,4 6,9 6,15 -1,16 -3,31 -8,45 -4,15 -12,28 -23,39 -11,12 -25,18 -41,19 -16,1 -31,-4 -44,-14 -12,-10 -23,-22 -30,-35 -8,-13 -14,-27 -18,-42 -16,-56 -16,-110 2,-164 5,-14 11,-27 19,-39 7,-12 17,-22 29,-30 20,-14 41,-15 63,-3 11,5 18,13 23,23 5,11 8,22 10,34 1,6 -1,11 -3,15 -3,5 -8,8 -13,9 -12,4 -21,-1 -28,-13 -1,-2 -2,-5 -2,-7 0,-3 -1,-6 -2,-8 -5,-13 -12,-16 -22,-9 -4,3 -7,6 -10,10 -3,3 -6,7 -9,11 -8,11 -14,25 -17,41 -4,16 -6,36 -6,59zm242 82c-7,5 -13,10 -18,16 -5,5 -6,13 -5,22 1,5 1,9 2,13 0,5 0,9 0,14 0,14 -7,22 -20,24 -6,1 -12,0 -17,-4 -4,-4 -7,-9 -8,-16 -2,-9 -2,-19 -2,-27 0,-9 0,-18 0,-28 0,-18 0,-36 0,-55 0,-18 0,-36 1,-55 0,-2 -1,-5 -1,-7 0,-2 0,-4 1,-6 1,-6 4,-10 8,-14 4,-3 9,-5 14,-5 6,0 10,2 15,5 4,3 6,8 7,14 1,5 2,11 2,17 -1,5 -1,11 -1,17l0 27c3,-3 5,-4 6,-5 1,-1 3,-3 4,-4 7,-9 13,-18 20,-27 6,-9 13,-18 20,-27 1,-2 2,-3 2,-4 0,-1 1,-2 2,-3 9,-10 19,-12 29,-5 11,5 14,14 10,26 -1,2 -2,5 -3,7 -1,2 -3,5 -5,7 -4,6 -8,12 -12,18 -4,6 -8,12 -13,17 -4,5 -5,11 -3,18 6,15 12,30 18,45 5,16 11,31 16,46 5,15 1,25 -14,30 -14,3 -24,-3 -29,-17 -4,-10 -7,-19 -9,-27 -3,-9 -6,-18 -9,-28 -2,-3 -3,-6 -4,-9 -2,-3 -3,-7 -4,-10zm167 -4c6,-12 12,-23 18,-33 5,-11 11,-22 18,-33 4,-6 8,-13 13,-19 4,-5 9,-11 14,-16 4,-5 8,-8 13,-10 5,-2 10,-2 15,1 12,4 18,12 18,25l0 27c-1,20 -1,40 -1,60 0,19 0,39 -1,59 0,2 0,4 0,6 0,3 0,5 -1,8 -1,6 -4,11 -10,15 -5,4 -11,5 -17,4 -12,-2 -18,-10 -18,-24l0 -40c0,-6 -1,-12 -1,-18 0,-6 -1,-13 -3,-20 -2,3 -3,6 -5,9 -1,2 -3,5 -5,8 -5,10 -11,19 -17,29 -5,9 -11,19 -17,28 -5,7 -11,13 -18,17 -9,5 -18,6 -26,2 -9,-3 -14,-11 -16,-21 -2,-15 -3,-29 -2,-41 0,-21 1,-41 2,-62 0,-20 1,-40 2,-61 0,-3 1,-5 1,-8 0,-2 0,-4 1,-6 3,-13 11,-18 24,-17 5,1 9,3 13,6 4,3 6,8 6,13 1,7 1,14 1,22 -1,8 -1,15 -2,22 0,12 0,23 0,33 -1,11 -1,22 -2,34 1,0 1,0 2,0 0,0 1,1 1,1zm319 45c10,4 17,8 20,13 3,5 4,12 3,22 -1,9 -6,15 -14,18 -8,4 -16,3 -23,-4 -1,-2 -3,-3 -4,-4 -2,-1 -4,-1 -6,-1 -13,0 -27,0 -41,0 -14,0 -28,1 -42,2 -5,0 -9,0 -11,1 -4,0 -8,2 -10,7 -5,12 -12,16 -22,14 -11,-2 -16,-9 -17,-21 -1,-12 0,-20 3,-24 4,-5 11,-9 23,-12 2,-1 4,-2 6,-2 2,0 5,-1 7,-2 1,-13 2,-26 2,-38 1,-12 2,-25 2,-38 1,-5 2,-11 2,-16 0,-5 1,-11 1,-16 4,-25 15,-45 34,-59 17,-12 34,-15 51,-9 17,6 29,19 33,38 1,8 2,15 3,21 0,7 0,14 0,21 0,13 0,27 0,40 0,14 0,27 -1,41 0,3 0,6 1,8zm-41 2c0,-1 0,-2 0,-3 0,-1 1,-2 1,-3 0,-16 0,-32 0,-48 0,-16 1,-32 1,-48 0,-3 0,-7 0,-11 0,-4 -1,-7 -2,-11 -4,-10 -10,-13 -19,-8 -13,8 -20,18 -21,32 -1,15 -2,29 -3,43 -1,14 -2,28 -3,42 0,3 0,5 0,8 0,3 0,6 1,9 7,-1 15,-1 22,-1 8,0 15,0 23,-1zm174 -43c-7,5 -13,10 -18,16 -5,5 -6,13 -5,22 1,5 1,9 2,13 0,5 0,9 0,14 0,14 -6,22 -20,24 -6,1 -12,0 -16,-4 -5,-4 -8,-9 -9,-16 -2,-9 -2,-19 -2,-27 0,-9 0,-18 0,-28 0,-18 0,-36 0,-55 0,-18 0,-36 1,-55 0,-2 -1,-5 -1,-7 0,-2 0,-4 1,-6 1,-6 4,-10 8,-14 4,-3 9,-5 14,-5 6,0 10,2 15,5 4,3 7,8 7,14 1,5 2,11 2,17 -1,5 -1,11 -1,17l0 27c3,-3 5,-4 6,-5 1,-1 3,-3 4,-4 7,-9 13,-18 20,-27 6,-9 13,-18 20,-27 1,-2 2,-3 2,-4 0,-1 1,-2 3,-3 8,-10 18,-12 28,-5 11,5 14,14 10,26 -1,2 -2,5 -3,7 -1,2 -3,5 -5,7 -4,6 -8,12 -12,18 -4,6 -8,12 -12,17 -5,5 -6,11 -3,18 5,15 11,30 17,45 5,16 11,31 16,46 5,15 1,25 -14,30 -14,3 -23,-3 -29,-17 -4,-10 -7,-19 -9,-27 -3,-9 -6,-18 -9,-28 -1,-3 -3,-6 -4,-9 -1,-3 -3,-7 -4,-10zm248 3c-5,8 -11,14 -15,19 -4,6 -9,11 -14,16 -4,4 -8,8 -13,12 -5,4 -10,8 -15,11 -15,9 -30,11 -44,4 -14,-6 -23,-18 -26,-36 -5,-25 -4,-48 1,-71 6,-22 19,-41 38,-58 17,-16 37,-24 60,-25 18,-1 33,5 47,17 4,3 7,6 11,9 3,3 7,7 10,10 2,4 4,7 6,11 1,4 2,8 2,12 1,7 1,15 0,22 0,6 0,14 0,21 0,11 0,22 0,34 1,11 1,23 1,34 0,3 0,7 0,11 1,4 1,8 1,12 -2,14 -10,21 -24,20 -12,0 -19,-7 -21,-20 -1,-8 -2,-16 -2,-23 0,-8 -1,-16 -2,-24 0,-2 0,-4 0,-7 0,-2 0,-6 -1,-11zm-82 16c18,-11 32,-24 42,-40 11,-16 22,-32 33,-48 -8,-10 -16,-14 -26,-10 -11,4 -19,8 -26,14 -13,11 -21,24 -23,39 -2,14 -2,29 0,45zm526 11l64 0c3,0 5,0 7,0 3,-1 5,0 7,0 11,2 17,9 17,22 0,5 -2,10 -4,14 -3,5 -7,7 -12,9 -3,0 -6,1 -9,1 -3,0 -6,0 -9,0 -15,1 -30,2 -46,4 -15,1 -31,2 -46,4 -5,0 -10,0 -16,-1 -5,-1 -9,-4 -13,-10 -6,-10 -5,-21 1,-32 7,-11 13,-23 20,-34 6,-12 13,-23 20,-34 8,-13 16,-27 25,-40 8,-13 15,-27 20,-42 5,-13 8,-26 9,-39 2,-20 -7,-27 -25,-21 -10,4 -18,8 -24,14 -7,5 -11,14 -14,25 -3,16 -12,23 -26,20 -13,-2 -18,-12 -16,-29 0,-3 0,-7 1,-12 3,-9 8,-18 14,-26 7,-8 15,-16 23,-22 9,-6 18,-11 27,-14 10,-3 19,-5 28,-4 18,2 32,9 44,23 11,13 16,32 13,57 -1,16 -5,31 -12,46 -6,14 -13,28 -21,41 -5,9 -11,19 -17,28 -6,9 -11,18 -17,27 -2,4 -4,8 -6,12 -2,4 -5,9 -7,13zm139 -101c0,-14 1,-27 3,-41 2,-14 5,-28 10,-41 5,-10 9,-20 13,-28 11,-17 24,-26 41,-29 17,-2 33,1 48,10 20,11 34,25 43,42 8,17 14,37 18,58 6,41 -1,81 -20,119 -3,8 -7,14 -12,21 -5,7 -10,13 -15,19 -13,14 -28,21 -45,21 -18,0 -33,-8 -46,-23 -12,-15 -21,-32 -27,-52 -1,-5 -2,-10 -4,-14 -1,-5 -2,-10 -3,-15 -1,-8 -2,-16 -2,-23 0,-8 -1,-16 -2,-24zm132 -4c-1,-4 -1,-9 -1,-13 0,-4 -1,-9 -2,-13 -1,-6 -2,-11 -3,-15 -1,-5 -3,-9 -6,-14 -2,-5 -5,-9 -8,-13 -3,-5 -7,-8 -11,-12 -8,-6 -16,-9 -24,-6 -8,2 -14,8 -18,18 -1,3 -3,7 -4,11 -1,4 -2,8 -3,11 -3,17 -5,34 -6,50 0,17 2,34 6,51 1,6 3,13 6,19 3,6 5,12 9,18 10,19 22,21 34,4 12,-14 19,-30 23,-46 4,-16 7,-33 8,-50zm297 -135c-1,2 -2,5 -3,8 -1,3 -2,6 -4,10 -16,30 -31,60 -47,90 -16,29 -32,59 -48,90 -6,12 -13,24 -19,36 -6,12 -12,24 -18,37 -10,19 -22,25 -35,19 -15,-7 -17,-20 -7,-40 13,-24 26,-49 39,-73 13,-24 26,-48 38,-72 10,-19 20,-37 29,-56 10,-18 20,-37 30,-55 2,-7 6,-12 9,-15 7,-6 15,-7 23,-2 7,3 12,11 13,23zm-208 58c2,-12 5,-24 10,-35 6,-12 14,-22 26,-30 18,-13 35,-12 51,3 3,2 6,4 8,6 2,2 4,4 6,7 8,9 13,19 14,31 1,12 -2,23 -9,34 -9,15 -23,26 -40,34 -9,3 -17,4 -25,4 -8,-1 -15,-4 -21,-8 -6,-5 -11,-11 -14,-19 -4,-7 -6,-16 -6,-27zm45 6c18,-6 25,-13 23,-21l-14 -7c-2,6 -3,10 -4,14 -1,4 -3,9 -5,14zm129 206c-15,0 -27,-5 -37,-15 -9,-10 -14,-22 -14,-38 1,-7 2,-15 5,-22 3,-7 6,-14 10,-21 4,-7 11,-13 18,-16 8,-3 16,-5 24,-4 8,0 16,2 25,5 8,3 15,8 20,14 12,12 16,27 13,44 -4,15 -11,27 -24,38 -12,11 -26,16 -40,15zm-4 -48c0,1 1,2 2,2 0,0 1,1 1,1 3,-1 6,-2 8,-4 3,-2 5,-4 7,-6 6,-3 6,-7 1,-11 -2,-2 -4,-3 -8,-3 -3,0 -5,1 -7,4 -1,3 -2,6 -2,8 -1,3 -2,6 -2,9zm-2758 311c0,-8 1,-16 1,-24 1,-8 1,-15 1,-23l0 -13c3,-12 10,-18 22,-18 5,1 9,3 13,6 4,3 6,7 6,12 1,8 1,17 1,26 0,8 1,17 1,25 0,19 1,39 1,59 0,20 1,39 1,58 0,14 -6,22 -19,23 -6,1 -11,0 -16,-5 -5,-4 -8,-9 -8,-16 -1,-6 -1,-12 -1,-18 0,-7 0,-13 0,-20 -1,-4 -1,-9 -1,-13 0,-5 0,-10 0,-15 -9,0 -18,1 -26,1 -8,1 -16,1 -25,2 0,10 0,21 0,30 0,10 -1,20 -2,30 0,3 0,6 0,9 0,3 -1,5 -3,7 -2,5 -5,9 -9,11 -5,2 -10,2 -15,1 -10,-2 -15,-9 -15,-21 -1,-9 -1,-17 -1,-25 1,-8 1,-17 1,-25l0 -115c0,-6 0,-11 1,-14 1,-5 4,-9 8,-12 5,-3 9,-5 15,-4 11,1 17,8 18,20 1,7 1,13 1,19 0,6 0,13 0,20l0 23c5,0 9,0 13,1 4,0 8,0 13,0 3,0 7,0 11,0 4,-1 8,-1 13,-2zm221 53c-6,7 -11,13 -16,18 -4,6 -9,11 -14,16 -4,4 -8,8 -13,12 -4,4 -9,8 -15,11 -15,9 -30,11 -44,5 -14,-7 -23,-19 -26,-37 -5,-25 -4,-48 2,-70 5,-22 18,-42 38,-59 16,-15 36,-24 59,-25 18,-1 34,5 47,17 4,3 7,6 11,9 4,3 7,7 10,11 2,3 4,7 6,11 1,4 2,7 2,11 1,8 1,15 1,22 -1,7 -1,14 -1,21 0,11 0,23 1,34 0,12 0,23 0,34 0,4 0,7 1,11 0,4 0,8 0,12 -2,14 -10,21 -24,20 -12,0 -19,-7 -20,-20 -2,-8 -2,-16 -3,-23 0,-8 -1,-16 -1,-24 0,-1 0,-4 0,-6 0,-3 -1,-7 -1,-11zm-82 16c17,-12 31,-25 42,-41 11,-16 21,-32 32,-48 -7,-10 -16,-13 -26,-9 -10,3 -19,7 -26,13 -13,12 -20,25 -22,39 -2,15 -2,30 0,46zm567 -56c4,2 7,4 10,5 3,1 6,3 8,4 15,9 25,20 28,35 4,15 1,29 -10,43 -10,13 -22,22 -36,27 -14,5 -30,8 -46,10 -5,0 -9,0 -14,-1 -4,0 -9,-1 -14,-1 -14,-2 -23,-5 -29,-11 -6,-6 -9,-16 -9,-29 0,-25 0,-50 0,-75 1,-25 0,-50 -1,-75 0,-18 9,-27 27,-27 13,0 26,1 39,3 15,2 28,8 39,16 11,9 18,20 20,34 2,8 1,15 -1,21 -2,7 -5,14 -11,21zm-70 80c17,4 33,4 48,-2 8,-3 16,-8 21,-14 9,-7 8,-14 -2,-19 -21,-11 -42,-14 -65,-9 0,8 0,15 0,22 -1,8 -1,15 -2,22zm0 -90c2,1 3,2 4,3 5,-3 11,-6 16,-8 4,-3 9,-5 14,-9 8,-6 8,-13 0,-20 -10,-8 -21,-11 -33,-7 0,7 -1,14 -1,20 0,7 0,14 0,21zm161 33c0,-21 4,-39 12,-56 7,-17 19,-32 35,-45 13,-9 26,-14 41,-14 14,0 28,5 39,16 8,6 16,14 22,26 4,6 5,13 4,18 -1,6 -5,11 -10,14 -5,4 -11,4 -17,3 -6,-2 -11,-5 -15,-11 -2,-2 -3,-4 -4,-6 -2,-2 -3,-4 -5,-5 -8,-10 -17,-11 -28,-3 -12,9 -20,21 -24,35 -4,16 -4,32 0,50 2,7 5,13 9,18 5,5 11,8 18,9 16,4 29,0 40,-12 2,-2 4,-5 6,-7 2,-3 3,-6 5,-9 10,-12 19,-14 30,-7 11,6 14,16 10,29 -5,16 -16,28 -32,38 -16,11 -32,16 -48,16 -19,-1 -36,-6 -50,-16 -14,-9 -24,-22 -29,-40 -3,-7 -5,-14 -6,-20 -1,-7 -2,-14 -3,-21z"/>
   <path class="fil3" d="M1611 1076c7,1 12,1 17,2 5,0 10,1 15,1 1,-4 2,-8 2,-12 1,-4 1,-8 3,-12 3,-11 8,-21 14,-29 6,-9 13,-16 22,-23 19,-13 36,-17 51,-13 16,4 29,16 40,35 4,7 7,15 9,23 2,8 4,17 5,25 3,14 4,28 3,42 -1,14 -5,28 -11,41 -5,13 -13,24 -23,35 -8,7 -16,11 -24,13 -9,3 -17,3 -26,2 -8,-2 -16,-5 -24,-10 -7,-5 -13,-12 -17,-21 -4,-7 -8,-15 -11,-23 -4,-8 -7,-16 -10,-25 -5,-1 -10,-2 -15,-2 -5,-1 -11,-2 -18,-3 0,9 0,18 0,27 0,9 1,18 1,26 0,3 0,5 1,7 0,2 0,4 -1,6 -1,5 -4,10 -7,13 -4,3 -8,5 -14,5 -11,1 -19,-4 -23,-15 -1,-3 -1,-5 -1,-7 0,-3 -1,-5 -1,-7 -1,-25 -2,-50 -2,-74 -1,-24 -2,-48 -2,-72l0 -14c0,-8 3,-14 8,-19 4,-5 10,-7 16,-6 7,0 12,3 16,8 4,5 6,12 6,19 0,9 0,18 1,28 0,10 0,19 0,29zm135 31c0,-11 -1,-22 -2,-31 -1,-10 -3,-19 -7,-28 -7,-16 -16,-18 -28,-6 -6,5 -11,10 -13,16 -6,18 -8,34 -6,50 3,16 9,31 17,46 2,4 5,6 10,7 4,0 8,-1 11,-5 5,-5 9,-10 11,-15 1,-6 2,-12 3,-18 1,-5 2,-11 4,-16zm434 12c-7,5 -13,10 -18,16 -4,6 -6,13 -5,22 1,5 1,9 2,14 0,4 0,8 0,13 0,15 -6,22 -19,24 -7,1 -13,0 -17,-4 -5,-3 -8,-9 -9,-16 -2,-9 -2,-18 -2,-27 0,-9 0,-18 0,-27 0,-19 0,-37 0,-55 0,-18 0,-37 1,-56 0,-2 0,-4 -1,-7 0,-2 0,-4 1,-6 1,-5 4,-10 8,-13 5,-4 9,-6 15,-6 5,0 10,2 14,5 4,3 7,8 7,14 2,5 2,11 2,17 -1,6 -1,12 -1,18l0 26c3,-2 5,-4 6,-5 2,-1 3,-2 4,-4 7,-9 13,-18 20,-27 7,-9 13,-18 20,-27 1,-1 2,-3 2,-4 1,-1 1,-2 3,-3 8,-10 18,-12 28,-5 11,5 14,14 10,26 -1,2 -2,5 -3,7 -1,3 -3,5 -5,8 -4,6 -8,12 -11,17 -4,6 -9,12 -13,17 -5,6 -6,11 -3,18 6,15 11,30 17,46 6,15 11,30 16,45 6,15 1,25 -14,30 -13,3 -23,-3 -29,-17 -3,-9 -6,-18 -9,-27 -3,-9 -6,-18 -9,-27 -1,-4 -3,-7 -4,-10 -1,-3 -3,-6 -4,-10zm124 22c-3,-17 -5,-33 -4,-47 0,-15 3,-30 9,-45 10,-26 28,-43 54,-51 8,-3 17,-3 25,-1 27,7 44,24 52,52 5,22 7,44 5,65 -1,22 -7,43 -17,64 -6,11 -13,19 -21,24 -9,6 -18,9 -27,10 -10,0 -19,-1 -29,-5 -10,-4 -18,-11 -25,-20 -6,-7 -11,-15 -14,-23 -3,-8 -6,-16 -8,-23zm94 -76c-1,-1 -1,-2 -1,-4 0,-2 -1,-4 -2,-6 -7,-13 -16,-17 -28,-9 -8,5 -13,12 -16,20 -6,15 -9,30 -7,44 1,15 5,29 12,42 1,3 3,6 6,9 4,4 8,6 13,6 5,0 9,-2 12,-8 2,-3 4,-6 5,-10 10,-26 12,-54 6,-84zm220 -27l-40 0 0 20c0,12 -1,24 0,36 0,11 0,22 -2,34 -1,9 -3,18 -6,26 -2,8 -5,17 -9,25 -1,4 -3,8 -7,11 -4,4 -7,8 -10,11 -5,3 -10,5 -16,6 -5,0 -11,0 -16,-2 -5,-2 -10,-5 -14,-9 -4,-4 -6,-9 -8,-14 -2,-8 -2,-15 3,-21 4,-6 10,-10 19,-11 2,0 4,1 5,1 2,0 4,0 7,0 3,-9 5,-18 7,-28 1,-9 2,-19 2,-29 0,-9 0,-17 0,-26 0,-8 -1,-17 -1,-25 0,-4 0,-7 0,-9 0,-2 0,-5 1,-8 1,-19 10,-29 26,-31 12,-1 24,-2 37,-2 12,-1 24,-1 36,0 8,0 14,3 19,8 6,5 9,12 10,20 2,13 3,25 2,36 -1,22 -2,42 -4,63 -1,20 -2,41 -4,62 0,4 0,7 -1,9 -2,11 -9,17 -21,19 -6,0 -10,-2 -14,-5 -4,-3 -7,-8 -8,-13 -2,-6 -2,-14 -1,-23 1,-18 3,-36 4,-54 1,-18 3,-36 4,-55 1,-3 1,-6 0,-10 0,-4 0,-8 0,-12zm216 0l-40 0 0 20c0,12 -1,24 0,36 0,11 0,22 -2,34 -1,9 -3,18 -6,26 -2,8 -5,17 -9,25 -1,4 -3,8 -7,11 -4,4 -7,8 -10,11 -5,3 -10,5 -16,6 -5,0 -11,0 -16,-2 -5,-2 -10,-5 -14,-9 -4,-4 -7,-9 -8,-14 -2,-8 -2,-15 3,-21 4,-6 10,-10 19,-11 2,0 4,1 5,1 2,0 4,0 7,0 3,-9 5,-18 7,-28 1,-9 2,-19 2,-29 0,-9 0,-17 0,-26 0,-8 -1,-17 -1,-25 0,-4 0,-7 0,-9 0,-2 0,-5 1,-8 1,-19 10,-29 26,-31 12,-1 24,-2 37,-2 12,-1 24,-1 36,0 8,0 14,3 19,8 6,5 9,12 10,20 2,13 3,25 2,36 -1,22 -2,42 -4,63 -1,20 -2,41 -4,62 0,4 0,7 -1,9 -2,11 -9,17 -21,19 -6,0 -10,-2 -14,-5 -4,-3 -7,-8 -8,-13 -2,-6 -2,-14 -1,-23 1,-18 3,-36 4,-54 1,-18 2,-36 4,-55 0,-3 1,-6 0,-10 0,-4 0,-8 0,-12zm137 91c0,7 2,13 5,18 2,6 5,11 9,16 8,8 16,9 25,5 11,-4 19,-12 25,-22 1,-2 3,-5 4,-7 1,-2 2,-5 4,-7 6,-10 15,-13 25,-8 4,2 7,6 9,10 2,4 3,8 1,13 -5,17 -14,31 -27,43 -13,13 -29,19 -48,21 -16,2 -29,-3 -40,-14 -8,-7 -14,-13 -18,-20 -5,-7 -8,-15 -11,-25 -5,-14 -8,-28 -10,-43 -2,-14 -1,-29 2,-44 7,-35 29,-56 64,-63 6,-1 11,-1 16,0 5,1 9,2 14,3 15,5 27,15 36,31 9,15 12,30 11,46 -2,21 -14,34 -34,40 -5,1 -10,2 -15,2 -5,1 -11,1 -16,2 -4,0 -9,1 -13,1 -4,0 -8,0 -12,0 -2,0 -3,1 -3,1 -1,0 -2,0 -3,1zm-6 -42c9,-1 18,-1 26,-1 8,-1 17,-1 26,-2 7,-1 10,-4 9,-12 -1,-3 -1,-6 -2,-8 -1,-2 -2,-5 -3,-8 -8,-13 -19,-17 -35,-10 -8,3 -14,9 -17,16 -3,8 -4,16 -4,25zm226 32c-7,5 -13,10 -17,16 -5,6 -7,13 -5,22 0,5 1,9 1,14 0,4 1,8 1,13 0,15 -7,22 -20,24 -7,1 -12,0 -17,-4 -5,-3 -8,-9 -9,-16 -1,-9 -2,-18 -2,-27 0,-9 0,-18 0,-27 0,-19 0,-37 0,-55 0,-18 1,-37 1,-56 0,-2 0,-4 0,-7 -1,-2 0,-4 0,-6 1,-5 4,-10 9,-13 4,-4 9,-6 14,-6 5,0 10,2 14,5 5,3 7,8 8,14 1,5 1,11 1,17 0,6 0,12 0,18l0 26c2,-2 4,-4 6,-5 1,-1 2,-2 4,-4 6,-9 13,-18 19,-27 7,-9 14,-18 20,-27 1,-1 2,-3 3,-4 0,-1 1,-2 2,-3 9,-10 18,-12 29,-5 10,5 14,14 10,26 -2,2 -3,5 -4,7 -1,3 -2,5 -4,8 -4,6 -8,12 -12,17 -4,6 -8,12 -13,17 -5,6 -6,11 -3,18 6,15 12,30 17,46 6,15 11,30 17,45 5,15 0,25 -14,30 -14,3 -24,-3 -30,-17 -3,-9 -6,-18 -9,-27 -2,-9 -5,-18 -9,-27 -1,-4 -2,-7 -4,-10 -1,-3 -2,-6 -4,-10zm166 47c10,3 19,3 29,2 9,-2 18,-3 27,-4 2,-25 3,-49 4,-73 0,-24 1,-48 2,-72 0,-5 1,-9 1,-12 2,-5 4,-10 9,-13 4,-3 9,-5 14,-5 13,0 20,7 22,21 0,11 0,24 0,37 -1,14 -2,27 -2,41 -1,14 -2,27 -2,41 -1,13 -1,25 0,35 2,2 4,2 4,2 12,2 21,5 25,12 4,6 6,15 4,28 0,12 -6,19 -17,21 -11,3 -19,0 -24,-10 -1,-2 -3,-3 -4,-4 -1,-1 -2,-3 -3,-5 -10,0 -20,1 -31,1 -10,1 -21,1 -31,3 -17,1 -32,-1 -45,-5 -10,-4 -17,-9 -21,-15 -4,-5 -7,-13 -8,-24l0 -69c0,-14 0,-28 0,-42 0,-14 1,-28 1,-42 0,-7 2,-14 4,-19 2,-5 5,-8 10,-10 4,-2 8,-2 13,-2 5,2 10,4 14,7 4,3 6,8 6,13 0,25 -1,50 -2,74 -1,25 -1,48 0,71 0,4 0,7 0,9 1,2 1,5 1,8zm230 -51c6,-11 11,-22 17,-33 6,-10 12,-21 18,-33 4,-6 9,-12 13,-18 5,-6 9,-12 14,-17 4,-5 8,-8 13,-10 5,-2 10,-2 16,1 12,4 17,13 17,26l0 26c0,20 0,40 0,60 0,20 -1,39 -1,59 0,2 0,4 0,7 0,2 -1,4 -1,7 -2,7 -5,12 -10,15 -6,4 -11,5 -17,4 -13,-2 -19,-9 -19,-24l0 -40c0,-5 0,-12 0,-18 -1,-6 -2,-13 -4,-20 -1,3 -3,6 -4,9 -2,2 -4,5 -6,9 -5,9 -11,18 -16,28 -6,9 -12,19 -17,28 -6,7 -12,13 -18,17 -10,5 -18,6 -27,2 -9,-3 -14,-10 -16,-21 -2,-15 -2,-29 -2,-40 1,-22 2,-42 2,-62 1,-20 2,-41 2,-62 1,-3 1,-5 1,-8 0,-2 0,-4 1,-6 3,-13 11,-18 24,-17 5,1 10,3 14,6 4,3 6,8 6,13 0,7 0,15 0,22 0,8 -1,15 -1,23 0,11 0,22 -1,33 0,11 -1,22 -1,33 0,0 1,0 1,0 1,1 1,1 2,1zm201 -39c6,1 12,1 17,2 4,0 9,1 14,1 2,-4 3,-8 3,-12 0,-4 1,-8 2,-12 4,-11 8,-21 14,-29 6,-9 14,-16 23,-23 18,-13 35,-17 51,-13 15,4 29,16 40,35 4,7 7,15 9,23 2,8 3,17 5,25 2,14 3,28 2,42 -1,14 -4,28 -10,41 -5,13 -13,24 -24,35 -7,7 -15,11 -24,13 -8,3 -17,3 -25,2 -9,-2 -17,-5 -24,-10 -7,-5 -13,-12 -18,-21 -4,-7 -7,-15 -11,-23 -3,-8 -6,-16 -10,-25 -4,-1 -9,-2 -14,-2 -6,-1 -12,-2 -18,-3 0,9 0,18 0,27 0,9 0,18 1,26 0,3 0,5 0,7 1,2 0,4 0,6 -2,5 -4,10 -8,13 -3,3 -8,5 -13,5 -11,1 -19,-4 -24,-15 0,-3 -1,-5 -1,-7 0,-3 0,-5 -1,-7 0,-25 -1,-50 -2,-74 0,-24 -1,-48 -2,-72l0 -14c1,-8 4,-14 8,-19 5,-5 10,-7 17,-6 7,0 12,3 16,8 4,5 6,12 6,19 0,9 0,18 0,28 1,10 1,19 1,29zm134 31c0,-11 0,-22 -1,-31 -1,-10 -4,-19 -8,-28 -6,-16 -15,-18 -27,-6 -7,5 -11,10 -13,16 -7,18 -9,34 -6,50 3,16 8,31 17,46 2,4 5,6 9,7 4,0 8,-1 11,-5 6,-5 9,-10 11,-15 2,-6 3,-12 4,-18 1,-5 2,-11 3,-16zm170 86c0,5 -2,9 -6,13 -2,6 -4,12 -7,18 -2,6 -4,11 -7,17 -1,5 -3,8 -5,9 -3,2 -5,4 -8,5 -3,2 -5,3 -6,4 -10,2 -17,1 -22,-2 -5,-3 -7,-7 -6,-13 2,-3 3,-6 4,-10 2,-3 3,-6 4,-9 2,-4 3,-7 4,-9 1,-2 1,-5 1,-8 -5,-4 -8,-9 -8,-15 0,-6 3,-11 9,-15 5,-5 12,-7 21,-7 6,0 11,0 16,3 5,2 9,5 12,8 2,2 4,5 4,9l0 2zm-2534 255c7,6 13,10 20,14 7,4 13,9 18,14 10,10 16,21 19,33 2,12 4,25 6,38 0,17 -2,32 -6,46 -6,21 -17,37 -31,47 -15,11 -33,18 -54,21 -18,2 -35,3 -52,3 -8,1 -16,-2 -24,-9 -7,-7 -11,-15 -11,-25 -1,-19 -2,-38 -2,-56 -1,-19 -1,-38 -1,-57 0,-28 1,-55 2,-82 1,-27 2,-55 4,-83 0,-15 7,-24 23,-28 4,-1 7,-2 10,-2 3,-1 6,-2 9,-2 26,-6 49,0 70,17 11,9 17,21 20,37 3,15 1,31 -5,46 -2,5 -4,10 -7,15 -2,4 -5,9 -8,13zm-72 170c9,-2 18,-2 25,-2 8,0 15,-1 23,-2 16,-2 28,-11 34,-25 11,-25 10,-51 -3,-76 -4,-10 -11,-15 -22,-15 -17,0 -32,3 -46,10 -8,4 -12,10 -12,19 1,14 1,29 1,44 0,14 0,30 0,47zm1 -167c13,-8 23,-16 31,-26 9,-10 14,-21 15,-32 1,-9 -1,-16 -5,-22 -5,-5 -12,-8 -21,-8 -6,0 -10,1 -12,3 -2,2 -3,6 -4,11 0,7 0,14 0,21 -1,7 -1,14 -2,21 0,5 0,10 0,15 -1,4 -1,10 -2,17zm265 38c-5,7 -11,13 -17,19 -5,6 -11,12 -16,18 -1,0 -2,2 -3,7 -1,5 -2,9 -2,13 -1,14 -1,27 -1,40 0,14 0,27 -1,40 0,4 0,7 0,9 0,2 0,5 -1,8 -3,11 -10,16 -20,16 -10,0 -17,-5 -21,-17 0,-2 -1,-5 -1,-8 0,-2 0,-5 0,-8 1,-20 2,-40 2,-60 1,-20 2,-39 2,-59 0,-25 0,-50 0,-75 0,-25 1,-51 1,-76 0,-3 0,-6 0,-9 0,-3 1,-6 2,-9 4,-12 11,-17 22,-15 10,1 16,7 18,19 1,3 1,6 1,9 0,2 0,5 0,8l0 100c2,-3 5,-5 7,-7 2,-2 3,-4 5,-6 14,-17 27,-34 41,-52 14,-18 28,-36 42,-53 6,-10 14,-15 24,-13 6,1 11,5 14,11 3,6 3,13 0,19 -2,7 -7,14 -12,21 -8,10 -15,20 -23,30 -7,10 -15,20 -23,30 -5,6 -6,13 -3,20 7,23 15,46 24,69 8,22 18,44 28,66 3,5 5,10 7,15 2,5 5,10 7,16 7,15 4,27 -9,33 -5,3 -10,3 -15,1 -6,-2 -10,-6 -13,-14 -11,-23 -22,-46 -32,-69 -11,-23 -20,-47 -28,-72l-6 -15z"/>
   <path class="fil3" d="M1941 1614c2,-11 4,-21 6,-32 2,-10 3,-20 3,-31 0,-12 1,-25 1,-39 0,-14 1,-28 1,-43 0,-14 0,-29 0,-43 0,-14 0,-27 0,-39 0,-10 0,-19 2,-27 1,-7 3,-13 7,-17 4,-5 9,-9 15,-11 7,-3 15,-5 26,-6 9,-2 18,-3 27,-3 8,-1 17,-1 26,-1 31,-2 48,12 51,41 1,9 1,19 2,30 1,11 1,23 1,35 1,12 1,23 1,35 0,11 0,21 0,30 0,18 -1,37 -2,55 -1,19 -1,38 -2,57 -1,7 -1,14 -1,20 1,6 1,13 0,19 0,2 0,4 0,7 0,2 0,4 -1,6 -3,13 -11,18 -23,17 -6,0 -11,-2 -15,-5 -4,-4 -6,-9 -6,-16 0,-7 -1,-15 -1,-23 0,-7 0,-15 0,-23 2,-30 3,-63 3,-100 0,-37 1,-70 1,-100 1,-7 1,-13 0,-19 0,-6 -1,-12 -2,-18 -8,-2 -18,-2 -29,-2 -12,1 -23,3 -34,6l0 15c0,15 0,32 1,49 0,18 0,35 0,53 -1,18 -1,35 -2,53 -1,17 -3,33 -6,48 -1,7 -3,14 -4,21 -2,7 -4,14 -7,21 -1,6 -4,12 -9,18 -9,11 -19,17 -31,17 -12,0 -22,-6 -31,-17 -8,-10 -9,-19 -3,-28 5,-9 13,-13 24,-12 1,0 3,1 4,1 2,0 4,0 7,1zm306 -73c-8,0 -14,0 -21,0 -6,0 -13,0 -20,-1 -2,10 -3,19 -3,28 0,9 1,19 2,28 1,9 1,18 2,28 0,9 -1,18 -3,26 -3,11 -10,17 -21,17 -11,1 -18,-3 -21,-14 -2,-6 -3,-14 -3,-22 -2,-43 -3,-90 -3,-141 0,-50 1,-97 5,-140 0,-5 1,-10 4,-15 4,-10 12,-13 23,-11 11,2 17,8 18,18 1,3 1,6 1,9 -1,4 -1,7 -1,10 -1,20 -2,42 -1,67 0,25 0,47 0,66 7,0 13,0 19,0 7,0 13,0 20,1 0,-3 1,-9 2,-16 0,-7 1,-15 1,-23 0,-8 1,-15 2,-22 0,-7 1,-12 2,-15 4,-22 13,-42 27,-62 5,-6 11,-12 18,-17 30,-25 60,-22 90,10 11,12 19,26 24,42 4,15 7,31 8,49 0,12 -1,26 -2,43 -2,16 -4,32 -7,49 -3,17 -6,33 -11,48 -5,16 -10,29 -17,40 -6,12 -14,22 -23,29 -13,13 -27,19 -44,16 -16,-3 -28,-12 -38,-28 -6,-12 -11,-24 -15,-36 -4,-12 -7,-25 -9,-38 -2,-3 -3,-6 -3,-10 0,-3 -1,-7 -2,-13zm75 83c3,-5 6,-9 9,-11 2,-2 4,-5 6,-7 6,-11 12,-23 16,-38 5,-14 9,-30 12,-45 3,-16 5,-32 6,-48 1,-16 1,-30 0,-41 -1,-20 -7,-36 -17,-51 -5,-7 -11,-11 -17,-12 -6,0 -12,3 -18,9 -7,8 -13,17 -17,26 -4,9 -7,19 -8,29 -2,11 -3,24 -3,39 0,15 1,30 2,46 1,15 4,30 7,44 3,15 6,27 10,38 1,3 3,6 5,9 2,3 4,7 7,13zm195 -132c13,1 26,2 38,3 11,1 24,3 37,4 5,-22 7,-46 6,-72 -1,-27 0,-51 1,-75 0,-2 1,-5 2,-9 3,-15 11,-22 24,-20 6,0 11,3 15,7 4,4 6,9 6,17 0,9 0,18 0,26 -1,11 -2,24 -2,37 0,14 0,28 0,42 0,14 -1,28 -1,41 0,14 -1,27 -1,39 -1,15 -1,30 0,46 1,16 2,31 3,47 0,3 0,8 1,12 0,4 0,8 0,12 -2,13 -8,21 -20,22 -13,2 -22,-4 -25,-18 -1,-2 -1,-4 -1,-6 0,-3 0,-5 -1,-8 -1,-15 -1,-30 -2,-46 -1,-16 -2,-32 -3,-49 -5,0 -10,-1 -15,-1 -5,0 -10,0 -16,-1 -9,-1 -18,-2 -26,-3 -9,-1 -18,-2 -27,-4 -22,-2 -35,-16 -39,-40 -2,-17 -4,-35 -5,-54 -1,-16 -2,-31 -2,-45 0,-15 -1,-30 -1,-45 0,-16 6,-25 20,-27 13,-2 22,6 25,23 1,3 1,6 1,8 0,3 0,6 0,9 1,18 2,36 3,54 1,18 1,37 2,55 1,5 2,12 3,19zm251 39c-3,13 -7,26 -11,41 -4,14 -8,28 -12,43 -2,4 -2,9 -3,13 0,5 -1,10 -2,14 -2,19 -10,27 -25,25 -7,-1 -12,-3 -16,-8 -4,-5 -5,-12 -5,-21 1,-6 2,-13 3,-19 2,-6 3,-13 4,-19 9,-37 20,-74 31,-110 11,-36 25,-72 42,-106 4,-9 9,-18 13,-26 5,-7 10,-15 17,-22 10,-13 22,-18 36,-16 14,3 24,11 30,27 2,4 3,8 4,12 1,4 2,9 3,13 2,14 4,28 6,42 2,14 5,29 7,42 5,29 10,58 14,86 5,29 10,57 15,85 0,4 0,8 2,13 0,15 -6,23 -19,25 -6,1 -11,1 -16,-2 -5,-3 -8,-8 -10,-15 -2,-8 -3,-16 -5,-24 -2,-8 -3,-16 -5,-24 -2,-10 -3,-20 -5,-30 -2,-10 -3,-19 -4,-29 0,0 -1,-1 -2,-4 -14,-1 -28,-2 -43,-3 -14,-1 -28,-2 -44,-3zm62 -151c-11,17 -19,33 -26,51 -7,17 -14,34 -21,52 12,4 22,6 33,6 11,1 21,1 32,0 -3,-19 -5,-38 -7,-55 -2,-18 -6,-36 -11,-54zm182 154c-1,-2 -2,-3 -3,-3 -1,-1 -3,-2 -4,-2 -8,-4 -15,-11 -21,-20 -5,-9 -9,-18 -11,-29 -2,-10 -3,-21 -3,-32 0,-10 2,-19 4,-27 11,-43 38,-73 80,-91 16,-7 32,-8 46,-3 10,2 17,6 20,10 3,4 5,11 4,21 0,8 0,17 -1,28 0,11 0,22 -1,34 0,12 0,23 0,34 0,11 0,20 0,28l0 140c0,5 0,10 0,15 0,6 0,11 -1,16 -1,8 -5,14 -10,19 -5,5 -12,6 -19,5 -12,-3 -19,-13 -19,-30 1,-14 1,-27 1,-41 0,-14 0,-28 0,-43 0,-5 0,-10 0,-15 0,-4 1,-9 1,-14 -5,-2 -9,-2 -11,0 -2,1 -4,3 -5,6 -6,16 -11,32 -17,48 -6,16 -12,31 -17,46 -1,5 -3,9 -5,14 -1,4 -3,8 -5,12 -7,14 -16,18 -29,13 -6,-2 -10,-6 -12,-11 -3,-5 -3,-11 0,-18 5,-16 10,-31 15,-47 6,-15 11,-31 16,-46 1,-3 3,-6 4,-9 1,-2 2,-5 3,-8zm63 -51c0,-7 1,-16 1,-26 0,-10 1,-21 1,-31 0,-11 0,-21 0,-30 0,-10 0,-18 -1,-25 -15,6 -28,13 -37,24 -9,10 -16,22 -20,37 -1,4 -2,10 -2,16 0,7 1,13 3,19 1,6 3,11 6,16 3,4 7,6 12,6 6,0 12,-1 18,-2 6,-1 13,-3 19,-4zm-1804 559c0,11 -1,20 -1,29 0,9 0,17 1,27 0,7 0,14 1,22 0,8 0,16 0,24 0,3 -1,7 -2,10 -1,3 -3,6 -5,9 -5,5 -11,7 -19,6 -7,-1 -13,-4 -16,-11 -1,-3 -2,-5 -3,-8 0,-3 0,-5 -1,-8 -1,-45 -3,-90 -4,-135 -2,-44 -1,-89 4,-135 0,-5 0,-9 1,-12 2,-9 5,-16 9,-20 5,-4 11,-6 21,-7 35,-6 65,3 91,27 10,9 17,20 21,31 4,11 6,23 6,36 1,10 1,19 -1,29 -2,9 -4,19 -6,28 -5,20 -15,35 -31,44 -15,9 -30,14 -44,14 -4,1 -7,1 -11,1 -4,-1 -8,-1 -11,-1zm-4 -44c6,-1 12,-1 16,-1 5,0 9,-1 13,-1 6,-2 10,-4 15,-6 5,-3 8,-7 10,-12 5,-11 8,-23 9,-34 1,-12 0,-23 -4,-34 -3,-12 -10,-20 -20,-26 -11,-5 -22,-7 -35,-4 -1,19 -2,38 -2,57 -1,20 -2,40 -2,61zm283 -42c-6,7 -11,14 -16,19 -4,5 -9,11 -14,16 -4,4 -8,8 -13,12 -4,4 -9,7 -15,11 -15,9 -29,10 -44,4 -14,-6 -23,-18 -26,-36 -4,-25 -4,-49 2,-71 5,-22 18,-42 38,-59 16,-15 36,-23 59,-24 18,-1 34,5 48,16 3,4 6,7 10,10 4,3 7,6 10,10 2,3 4,7 6,11 1,4 2,8 2,12 1,7 1,14 1,21 -1,7 -1,14 -1,21 0,12 0,23 1,35 0,11 0,23 0,34 0,3 0,7 1,11 0,4 0,8 0,11 -2,15 -10,22 -24,20 -12,0 -19,-6 -20,-20 -2,-7 -2,-15 -3,-23 0,-7 -1,-15 -1,-23 0,-2 0,-4 0,-7 0,-3 -1,-6 -1,-11zm-82 16c17,-11 31,-25 42,-41 11,-15 21,-31 32,-47 -7,-11 -16,-14 -26,-10 -10,3 -19,8 -26,14 -13,11 -20,24 -22,39 -2,14 -2,29 0,45zm178 -33c1,-20 5,-39 12,-56 7,-16 19,-31 35,-45 13,-9 26,-13 41,-13 15,0 28,5 40,15 7,6 15,15 21,26 4,7 6,13 4,19 -1,6 -4,11 -10,14 -5,3 -11,4 -17,2 -6,-1 -11,-5 -15,-10 -2,-2 -3,-4 -4,-7 -2,-2 -3,-4 -5,-5 -8,-10 -17,-11 -28,-3 -12,9 -20,21 -24,36 -4,15 -4,32 0,49 2,7 5,13 9,18 5,5 11,9 18,10 16,4 29,0 41,-12 2,-3 3,-5 5,-8 2,-3 4,-6 6,-9 9,-11 19,-13 29,-7 11,6 14,16 10,30 -5,15 -16,28 -32,38 -15,10 -32,15 -48,15 -19,0 -36,-5 -50,-15 -14,-10 -24,-23 -29,-40 -3,-7 -5,-14 -6,-21 -1,-6 -2,-13 -3,-21zm317 -72c-9,-1 -18,-1 -26,-1 -9,0 -17,1 -27,4l-3 51c0,15 -1,30 -1,45 0,14 0,29 -1,45 0,2 0,4 0,6 0,2 0,4 -2,6 -3,14 -10,20 -22,18 -13,-2 -19,-9 -19,-22 0,-8 0,-15 0,-23 0,-8 0,-16 1,-23 1,-14 1,-28 1,-42 0,-13 0,-27 1,-41l3 -27c2,-16 10,-28 26,-33 4,-2 9,-3 14,-4 5,-2 10,-2 15,-2 7,-2 15,-2 23,-2 8,0 15,1 23,1 20,0 31,10 35,29 2,10 3,21 3,32 0,21 -1,42 -2,62 0,21 -1,42 -2,63l0 7c-2,14 -9,21 -22,21 -13,-1 -20,-9 -21,-22 0,-8 0,-15 0,-22 1,-7 1,-15 1,-22 0,-14 1,-29 1,-44 1,-14 1,-29 2,-43 0,-3 0,-5 -1,-8 0,-3 0,-6 0,-9zm140 175c0,11 -1,20 -1,29 0,9 0,17 1,27 0,7 0,14 1,22 0,8 0,16 0,24 0,3 -1,7 -2,10 -1,3 -3,6 -5,9 -5,5 -11,7 -19,6 -7,-1 -13,-4 -16,-11 -1,-3 -2,-5 -2,-8 -1,-3 -1,-5 -2,-8 -1,-45 -3,-90 -4,-135 -2,-44 -1,-89 4,-135 0,-5 0,-9 1,-12 2,-9 5,-16 9,-20 5,-4 11,-6 21,-7 35,-6 65,3 91,27 10,9 17,20 21,31 4,11 6,23 6,36 1,10 1,19 -1,29 -2,9 -4,19 -6,28 -5,20 -15,35 -31,44 -15,9 -30,14 -44,14 -4,1 -7,1 -11,1 -4,-1 -8,-1 -11,-1zm-4 -44c6,-1 12,-1 16,-1 5,0 9,-1 13,-1 6,-2 10,-4 15,-6 5,-3 8,-7 10,-12 5,-11 8,-23 9,-34 1,-12 0,-23 -4,-34 -3,-12 -10,-20 -20,-26 -11,-5 -22,-7 -35,-4 -1,19 -2,38 -2,57 -1,20 -2,40 -2,61zm158 -24c-3,-17 -5,-32 -4,-47 0,-15 3,-30 9,-44 10,-26 28,-44 54,-51 8,-3 17,-3 25,-1 27,7 44,24 52,51 5,22 7,44 6,66 -2,21 -8,42 -18,64 -6,10 -12,18 -21,24 -9,5 -18,9 -27,9 -10,1 -19,-1 -29,-5 -9,-4 -18,-10 -25,-20 -6,-7 -11,-15 -14,-23 -3,-8 -6,-16 -8,-23zm94 -75c-1,-2 -1,-3 -1,-5 0,-1 -1,-3 -2,-5 -6,-14 -16,-17 -28,-10 -7,6 -13,13 -16,21 -6,15 -9,30 -7,44 1,14 5,28 13,42 0,2 2,5 5,9 4,4 8,6 13,6 5,0 9,-3 12,-8 2,-4 4,-7 5,-10 10,-26 12,-55 6,-84zm259 95c9,4 16,8 19,13 4,5 5,12 3,21 -1,10 -6,16 -14,19 -7,4 -15,2 -22,-5 -2,-1 -3,-2 -5,-3 -1,-1 -3,-2 -5,-2 -14,0 -28,0 -42,1 -14,0 -27,1 -41,1 -6,0 -9,1 -11,1 -5,0 -8,3 -10,8 -5,11 -13,16 -23,14 -10,-2 -16,-9 -17,-22 -1,-11 0,-19 4,-23 3,-5 11,-9 22,-12 2,-2 4,-2 7,-2 2,0 4,-1 7,-2 1,-13 1,-26 2,-38 1,-13 1,-25 2,-38 1,-6 1,-11 1,-16 1,-6 1,-11 2,-16 3,-25 14,-45 34,-59 16,-12 33,-15 50,-9 18,6 29,18 34,38 1,7 2,14 2,21 0,7 1,13 1,21 0,13 0,26 0,40 0,13 -1,27 -1,41 0,3 0,6 1,8zm-42 2c0,-2 0,-3 1,-3 0,-1 0,-2 0,-3 0,-16 0,-32 0,-48 1,-16 1,-32 1,-48 0,-3 0,-7 0,-11 0,-4 -1,-8 -2,-11 -3,-10 -10,-13 -19,-8 -13,7 -20,18 -21,32 -1,14 -2,29 -3,42 0,14 -1,28 -2,43 0,3 0,5 0,8 0,2 0,5 0,9 8,-1 15,-1 23,-1 7,0 15,-1 22,-1zm239 -40c-6,7 -11,14 -16,19 -4,5 -9,11 -14,16 -4,4 -8,8 -13,12 -4,4 -9,7 -15,11 -15,9 -30,10 -44,4 -14,-6 -23,-18 -26,-36 -5,-25 -4,-49 2,-71 5,-22 18,-42 38,-59 16,-15 36,-23 59,-24 18,-1 34,5 47,16 4,4 7,7 11,10 3,3 7,6 10,10 2,3 4,7 6,11 1,4 2,8 2,12 1,7 1,14 1,21 -1,7 -1,14 -1,21 0,12 0,23 1,35 0,11 0,23 0,34 0,3 0,7 1,11 0,4 0,8 0,11 -2,15 -10,22 -24,20 -12,0 -19,-6 -20,-20 -2,-7 -3,-15 -3,-23 0,-7 -1,-15 -1,-23 0,-2 0,-4 0,-7 0,-3 -1,-6 -1,-11zm-82 16c17,-11 31,-25 42,-41 10,-15 21,-31 32,-47 -7,-11 -16,-14 -26,-10 -11,3 -19,8 -26,14 -13,11 -20,24 -22,39 -2,14 -2,29 0,45z"/>
   <path class="fil3" d="M2978 1936c-5,10 -10,19 -13,29 -4,9 -7,19 -11,30 -1,4 -2,8 -3,12 -1,4 -2,8 -4,12 -5,13 -14,18 -26,14 -12,-3 -16,-12 -13,-27 4,-18 10,-35 16,-52 6,-17 13,-33 22,-49 -5,-8 -10,-14 -15,-21 -6,-6 -11,-12 -16,-19 -2,-2 -3,-4 -5,-5 -1,-2 -3,-4 -4,-6 -5,-11 -3,-20 6,-28 10,-7 19,-6 28,4 3,3 6,6 9,10 3,4 6,8 9,11 6,7 11,14 17,20 5,7 11,14 18,21 1,-5 2,-10 3,-13 1,-6 1,-12 1,-18 0,-6 0,-12 1,-18 1,-7 4,-12 8,-16 4,-4 9,-6 15,-5 6,0 10,2 14,6 4,4 5,10 5,17 0,7 -1,13 -1,20 0,6 -1,12 -2,18l0 15c4,-2 7,-4 9,-7 1,-3 3,-5 5,-8 6,-7 10,-15 15,-23 4,-8 9,-15 14,-23 7,-9 14,-13 24,-11 6,1 11,4 14,10 3,6 3,12 0,19 -2,5 -5,10 -7,14 -3,5 -6,9 -9,13 -8,7 -11,15 -11,22 1,8 3,16 7,24 5,12 10,24 14,37 4,12 9,24 13,36 2,4 3,9 3,15 -1,11 -7,18 -18,19 -5,2 -9,1 -13,-2 -4,-3 -7,-7 -9,-13 -4,-11 -8,-22 -12,-33 -5,-11 -9,-22 -13,-33 -1,-2 -1,-4 -2,-5 0,-2 -1,-4 -3,-7 -4,4 -8,7 -11,9 -4,3 -7,6 -11,9 -2,2 -3,5 -3,10 0,7 -1,14 -1,20 0,7 0,13 0,20 -1,3 -1,6 -1,8 0,2 -1,5 -1,8 -2,6 -5,10 -9,13 -4,4 -9,5 -14,4 -13,-2 -19,-10 -18,-23 0,-21 1,-42 3,-63 1,-11 -3,-18 -14,-21zm264 101c-7,-8 -14,-15 -21,-22 -7,-7 -13,-14 -18,-21 -12,-16 -20,-33 -24,-52 -4,-18 -6,-37 -6,-56 0,-5 1,-10 3,-14 3,-5 6,-9 11,-11 5,-3 10,-3 15,-2 12,2 18,10 17,23 -1,20 2,41 9,60 3,10 7,18 12,26 5,7 12,14 20,21 2,-3 3,-5 4,-7 1,-2 2,-4 2,-7 5,-15 10,-31 15,-47 4,-15 9,-31 14,-47 3,-7 5,-11 8,-14 6,-7 13,-9 23,-6 4,2 7,4 10,7 3,3 4,8 4,13 1,5 0,11 -2,18 -9,31 -19,61 -29,91 -10,30 -22,60 -35,90 -6,15 -14,29 -23,41 -9,13 -18,25 -28,38 -10,12 -21,13 -32,5 -5,-3 -8,-8 -9,-14 -1,-6 0,-12 3,-18 3,-4 7,-9 10,-13 3,-4 7,-8 10,-12 9,-11 16,-22 22,-35 5,-12 10,-23 15,-35zm-1887 282c3,1 6,3 9,4 3,2 6,3 9,4 15,9 24,21 28,36 3,14 0,29 -11,43 -9,13 -21,22 -36,27 -14,5 -29,8 -46,9 -4,0 -9,0 -14,0 -4,-1 -9,-1 -13,-2 -14,-1 -24,-5 -30,-11 -6,-6 -9,-15 -9,-28 0,-25 0,-51 1,-76 0,-25 -1,-50 -2,-75 0,-18 9,-26 28,-26 12,0 25,1 38,3 16,1 29,7 39,16 11,9 18,20 21,33 1,8 1,15 -1,22 -2,6 -6,13 -11,21zm-70 80c17,4 33,3 47,-2 9,-4 16,-8 22,-14 8,-8 7,-15 -3,-20 -21,-11 -42,-13 -64,-9 0,8 -1,16 -1,23 0,7 -1,14 -1,22zm0 -90c1,0 2,1 4,3 5,-4 10,-7 15,-9 5,-2 10,-5 14,-8 9,-7 9,-14 0,-21 -10,-8 -21,-10 -32,-7 -1,7 -1,14 -1,21 0,6 0,13 0,21zm545 43c3,-12 6,-23 9,-33 3,-11 7,-22 11,-32 3,-13 9,-25 16,-38 5,-6 12,-12 20,-18 7,-3 15,-4 22,-2 8,3 13,8 17,16 4,10 7,18 7,27 1,24 2,49 3,73 0,24 1,48 3,71 0,8 -2,14 -6,18 -4,5 -9,8 -15,8 -7,0 -12,-2 -16,-6 -4,-5 -6,-10 -7,-18 -1,-16 -1,-32 -1,-49 -1,-16 -2,-32 -3,-49 0,-3 -1,-6 -4,-8 -1,2 -1,5 -2,7 -1,2 -1,4 -2,6 -4,13 -8,25 -11,38 -4,12 -8,24 -12,36 -2,7 -5,13 -9,18 -4,5 -10,7 -18,7 -8,0 -14,-3 -19,-8 -4,-5 -8,-11 -11,-17 -3,-10 -7,-18 -10,-27 -4,-8 -7,-17 -11,-26 -1,-2 -2,-5 -3,-7 -1,-3 -3,-5 -6,-8l-3 51c-1,7 -2,14 -2,21 0,6 -1,13 -2,20 -2,17 -9,24 -23,23 -15,-1 -21,-10 -19,-28 1,-19 3,-37 4,-56 1,-18 3,-37 5,-56 0,-9 1,-17 3,-26 1,-8 2,-16 4,-24 0,-3 1,-6 3,-9 1,-3 2,-6 4,-10 5,-8 12,-12 20,-12 8,-1 16,2 22,9 5,8 10,17 13,27 4,12 8,24 11,36 4,12 8,25 11,37 0,3 1,6 3,8 1,3 2,6 4,10zm284 6c-6,7 -11,14 -15,19 -5,5 -9,10 -15,16 -4,4 -8,8 -13,12 -4,4 -9,7 -14,10 -16,10 -30,11 -44,5 -15,-6 -23,-18 -27,-36 -4,-25 -4,-49 2,-71 5,-22 18,-42 38,-59 16,-15 36,-23 59,-25 18,0 34,5 48,17 3,4 6,7 10,10 4,3 7,6 10,10 2,3 4,7 6,11 2,4 2,8 2,12 1,7 1,14 1,21 0,7 -1,14 -1,21 0,12 1,23 1,34 0,12 0,23 0,35 0,3 1,7 1,11 0,3 0,7 0,11 -2,15 -10,21 -23,20 -13,0 -20,-6 -21,-20 -1,-8 -2,-15 -3,-23 0,-7 0,-15 -1,-23 0,-2 0,-4 0,-7 0,-3 0,-6 -1,-11zm-82 16c17,-11 31,-25 42,-41 11,-15 21,-31 32,-47 -7,-11 -16,-14 -26,-10 -10,3 -19,8 -25,14 -14,11 -21,24 -23,38 -2,15 -2,30 0,46zm177 -38c1,-9 1,-19 1,-29 0,-11 1,-21 2,-32 1,-18 8,-33 20,-43 13,-9 28,-13 45,-11 13,1 23,3 32,7 6,1 10,5 13,10 3,5 4,10 4,16 0,9 -4,16 -11,20 -7,5 -15,5 -24,0 -2,-1 -5,-3 -8,-4 -2,-2 -5,-3 -9,-4 -10,-2 -16,3 -16,14 -1,9 -2,18 -2,27 -1,9 -1,18 0,27 0,16 1,30 2,44 1,15 2,29 4,44 1,15 -5,24 -18,27 -7,1 -13,0 -18,-3 -5,-4 -9,-9 -10,-16 -1,-7 -2,-14 -3,-20 -1,-7 -1,-14 -2,-21 -1,-9 -1,-17 -1,-25 0,-9 0,-18 -1,-28zm292 22c-6,7 -11,14 -15,19 -4,5 -9,10 -14,16 -4,4 -9,8 -13,12 -5,4 -10,7 -15,10 -15,10 -30,11 -44,5 -14,-6 -23,-18 -26,-36 -5,-25 -4,-49 1,-71 6,-22 18,-42 38,-59 17,-15 36,-23 60,-25 17,0 33,5 47,17 3,4 7,7 10,10 4,3 8,6 11,10 2,3 4,7 5,11 2,4 3,8 3,12 0,7 1,14 0,21 0,7 0,14 0,21 0,12 0,23 0,34 1,12 1,23 1,35 0,3 0,7 0,11 1,3 1,7 1,11 -2,15 -10,21 -24,20 -13,0 -19,-6 -21,-20 -1,-8 -2,-15 -2,-23 -1,-7 -1,-15 -2,-23 0,-2 0,-4 0,-7 0,-3 0,-6 -1,-11zm-82 16c17,-11 31,-25 42,-41 11,-15 22,-31 32,-47 -7,-11 -16,-14 -25,-10 -11,3 -20,8 -26,14 -13,11 -21,24 -23,38 -2,15 -2,30 0,46zm280 -57c14,9 21,21 24,34 3,13 2,27 -1,42 -2,10 -6,19 -11,27 -6,8 -14,14 -25,17 -13,4 -25,5 -38,4 -12,-1 -23,-6 -34,-16 -5,-4 -10,-9 -14,-15 -3,-6 -4,-11 -3,-16 2,-6 5,-10 10,-13 6,-3 11,-5 17,-5 5,1 10,4 13,9 5,7 10,11 16,12 6,1 13,1 22,-1 1,-5 2,-10 3,-14 1,-5 2,-9 2,-14 0,-8 -3,-14 -8,-17 -6,-4 -12,-5 -20,-4l-12 3c-13,2 -21,-2 -26,-13 -4,-11 0,-20 12,-26 5,-4 11,-7 16,-10 5,-4 11,-7 16,-10 4,-3 7,-6 10,-11 2,-4 2,-8 -1,-13 -4,-1 -8,0 -14,3 -5,3 -11,5 -16,6 -11,5 -20,2 -27,-7 -6,-9 -5,-18 3,-26 4,-4 10,-8 17,-11 7,-3 15,-5 22,-6 8,-1 15,-1 23,1 7,1 13,3 18,6 17,12 23,26 19,44 -1,7 -3,13 -5,19 -3,7 -5,13 -8,21zm124 33c6,-11 12,-22 18,-32 5,-11 11,-22 18,-33 4,-7 8,-13 13,-19 4,-6 9,-11 14,-17 4,-4 8,-8 13,-10 5,-2 10,-1 15,1 12,4 18,13 18,26l0 27c-1,20 -1,39 -1,59 0,20 0,40 -1,59 0,2 0,5 0,7 0,2 0,5 -1,7 -1,7 -4,12 -10,16 -5,3 -11,4 -17,3 -12,-1 -18,-9 -18,-24l0 -39c0,-6 -1,-12 -1,-18 0,-7 -1,-13 -3,-21 -2,4 -3,7 -5,9 -1,3 -3,6 -5,9 -6,9 -11,19 -17,28 -5,10 -11,19 -17,28 -5,8 -11,13 -18,17 -9,6 -18,6 -26,3 -9,-4 -14,-11 -16,-22 -2,-15 -3,-28 -2,-40 0,-21 1,-42 2,-62 0,-20 1,-41 2,-62 0,-2 1,-5 1,-7 0,-2 0,-5 1,-7 3,-12 11,-18 23,-16 6,0 10,2 14,6 4,3 6,7 6,12 1,8 1,15 1,23 -1,7 -1,15 -2,22 0,11 0,22 0,33 -1,11 -1,22 -2,33 1,0 1,0 2,1 0,0 1,0 1,0zm250 -44c0,-9 1,-17 1,-25 1,-7 1,-15 1,-23l0 -13c3,-12 10,-17 22,-17 5,0 9,2 13,5 4,3 6,7 6,12 1,9 1,17 1,26 0,9 1,17 1,26 0,19 0,38 1,58 0,20 1,39 1,58 0,14 -6,22 -19,23 -6,2 -11,0 -16,-4 -5,-5 -8,-10 -8,-17 -1,-5 -1,-12 -1,-18 0,-6 0,-13 0,-19 -1,-5 -1,-9 -1,-14 0,-5 0,-10 0,-15 -9,1 -18,1 -26,2 -8,0 -16,0 -25,1 0,11 0,21 0,31 0,10 -1,20 -2,29 0,4 0,7 0,9 0,3 -1,5 -3,7 -2,6 -5,9 -9,11 -5,2 -10,3 -15,1 -10,-2 -15,-9 -15,-21 -1,-8 -1,-17 -1,-25 1,-8 1,-16 1,-25l0 -115c0,-6 0,-10 1,-14 1,-5 4,-9 8,-12 5,-3 9,-4 15,-3 11,1 17,7 18,19 1,7 1,13 1,20 0,6 0,12 0,19l0 24c5,0 9,0 13,0 4,0 8,1 13,1 3,0 7,-1 11,-1 4,0 8,-1 13,-1zm138 58c0,7 2,14 5,19 2,5 5,10 9,16 8,7 16,9 25,5 11,-5 19,-12 25,-22 1,-3 3,-5 4,-8 1,-2 2,-4 4,-7 6,-10 15,-13 25,-8 4,3 7,6 9,10 2,4 3,9 1,14 -5,16 -14,31 -27,43 -13,12 -29,19 -48,20 -16,2 -29,-3 -40,-14 -8,-6 -14,-13 -18,-20 -5,-7 -8,-15 -11,-24 -5,-15 -8,-29 -10,-43 -2,-14 -1,-29 2,-44 7,-35 29,-56 64,-64 6,-1 11,-1 16,0 5,1 9,2 14,3 15,6 27,16 36,31 9,15 13,31 11,47 -2,21 -14,34 -34,39 -5,1 -10,2 -15,3 -5,0 -10,0 -16,1 -4,1 -9,1 -13,1 -4,0 -8,0 -12,0 -2,1 -3,1 -3,1 -1,0 -2,0 -3,1zm-6 -42c9,0 18,-1 26,-1 8,0 17,-1 26,-1 7,-1 10,-5 9,-12 -1,-4 -1,-6 -2,-9 -1,-2 -2,-5 -3,-7 -8,-14 -19,-18 -35,-11 -8,4 -14,9 -17,17 -3,7 -4,15 -4,24zm-1526 431c4,2 8,4 10,5 3,1 7,3 10,4 6,5 12,9 16,14 3,4 4,8 4,13 -1,4 -3,8 -6,12 -3,3 -6,6 -11,8 -4,2 -8,1 -13,-1 -7,-3 -14,-6 -21,-9 -7,-3 -14,-6 -21,-10 -23,-14 -27,-33 -10,-56l50 -65c1,-1 3,-3 4,-5 2,-2 4,-4 6,-5 9,-7 18,-7 28,0 9,9 10,19 5,30 -4,5 -7,10 -11,14 -3,4 -7,9 -11,14 -5,6 -9,12 -14,18 -5,5 -10,12 -15,19zm80 -18c6,4 10,7 15,10 5,3 10,7 15,10 13,8 17,18 13,29 -2,6 -6,11 -13,15 -6,3 -12,3 -17,0 -11,-7 -22,-14 -32,-22 -10,-7 -20,-15 -30,-23 -4,-3 -6,-7 -6,-12 1,-5 2,-10 5,-15 6,-12 14,-23 24,-33 9,-10 19,-20 30,-29 5,-4 10,-6 15,-5 5,1 10,3 14,7 9,9 9,19 0,31 -2,2 -4,5 -6,7 -2,2 -4,4 -6,6 -3,3 -5,6 -8,8 -3,3 -5,6 -8,8 -1,2 -3,4 -5,8zm195 70c2,-7 3,-14 5,-21 1,-7 3,-14 4,-21 5,-20 10,-41 14,-61 5,-20 9,-40 14,-61 1,-7 3,-14 4,-21 2,-7 4,-14 5,-21 1,-2 1,-4 1,-7 0,-2 1,-4 2,-7 2,-5 5,-10 11,-13 5,-3 10,-4 16,-3 5,1 10,4 14,9 4,5 5,10 3,17 -2,11 -4,22 -6,32 -2,10 -5,21 -7,32 -6,24 -11,49 -16,73 -6,24 -11,48 -16,72 -3,11 -6,21 -9,32 -3,10 -7,20 -10,31 -1,2 -3,5 -4,7 -1,3 -3,5 -4,8 -6,9 -13,14 -23,14 -9,0 -16,-5 -22,-14 -4,-8 -7,-15 -10,-22 -4,-7 -6,-14 -8,-21 -9,-34 -17,-67 -25,-100 -9,-34 -17,-67 -26,-101 -1,-6 -2,-12 -3,-18 0,-6 -1,-13 -2,-19 -1,-6 -1,-11 0,-16 2,-12 10,-18 22,-18 13,-1 20,4 22,17 1,5 2,10 2,15 0,4 1,9 2,15 3,13 6,26 8,38 3,13 5,25 9,38 5,20 10,39 15,58 4,19 9,38 14,57l4 0z"/>
   <path class="fil3" d="M2120 2766c-4,13 -8,27 -12,41 -4,14 -8,28 -12,43 -1,5 -2,9 -2,14 -1,4 -2,9 -3,14 -2,18 -10,26 -25,24 -6,0 -11,-3 -15,-8 -4,-5 -6,-12 -5,-20 0,-7 1,-13 3,-20 1,-6 2,-12 4,-19 9,-37 19,-73 30,-110 11,-36 26,-71 43,-105 4,-10 8,-18 13,-26 4,-8 10,-16 16,-23 10,-12 22,-18 36,-15 14,2 24,11 31,26 1,4 2,8 3,12 1,5 2,9 4,14 2,13 4,27 6,42 2,14 4,28 7,42 5,29 10,57 14,86 4,28 9,56 14,85 0,3 1,7 2,13 0,14 -6,22 -19,24 -6,2 -11,1 -16,-2 -5,-3 -8,-8 -9,-14 -2,-8 -4,-16 -6,-25 -1,-8 -3,-16 -4,-24 -2,-10 -4,-20 -6,-30 -1,-9 -3,-19 -4,-28 0,0 -1,-2 -2,-4 -14,-1 -28,-3 -42,-4 -14,-1 -29,-2 -44,-3zm61 -150c-10,16 -19,33 -26,50 -7,17 -14,35 -20,52 11,4 22,7 32,7 11,0 21,0 32,-1 -3,-19 -5,-37 -7,-55 -2,-18 -6,-36 -11,-53zm291 -25c0,-7 1,-13 2,-16 4,-13 11,-18 24,-17 12,1 18,8 20,20 0,9 1,18 1,28 1,9 1,18 1,27 -1,40 -1,79 -1,117 1,38 1,77 3,117 0,9 -3,18 -10,26 -7,7 -16,11 -26,11 -5,1 -10,0 -13,-3 -4,-3 -7,-7 -10,-11 -10,-19 -20,-40 -31,-63 -11,-23 -22,-44 -31,-63 -6,-11 -11,-23 -16,-35 -5,-12 -10,-23 -16,-35 -1,-2 -2,-4 -4,-6 -1,-3 -2,-2 -2,3 0,10 0,21 0,30 0,10 -1,21 -1,31 0,17 1,36 1,57 1,22 1,41 1,58 0,6 0,11 -1,14 -3,11 -10,17 -20,17 -6,0 -10,-1 -15,-4 -4,-3 -7,-7 -8,-12 -1,-2 -1,-6 -1,-10 1,-45 1,-92 0,-141 0,-49 0,-96 1,-141l0 -7c2,-14 10,-22 23,-24 14,-2 23,3 28,16 6,13 11,25 15,38 5,12 10,24 15,36 11,28 23,55 35,81 12,26 23,53 33,80 2,-16 2,-34 3,-52 0,-18 0,-37 0,-56 0,-20 0,-38 0,-57 0,-19 0,-37 0,-54zm174 18c-4,7 -6,13 -8,18 -2,5 -4,10 -5,15 -3,12 -4,22 -1,28 3,7 10,13 22,19 4,2 8,4 12,5 4,2 8,4 12,6 29,13 44,36 47,67 1,14 1,30 0,49 -2,19 -5,35 -12,47 -7,14 -17,25 -30,33 -13,7 -27,10 -41,8 -16,-1 -30,-6 -41,-16 -12,-9 -20,-22 -25,-38 -2,-8 -4,-19 -6,-33 -1,-14 -3,-25 -4,-33 -2,-15 4,-24 18,-29 10,-3 17,-2 24,3 7,6 9,14 6,23 -1,4 -2,8 -1,14 0,5 1,10 1,16 1,6 3,12 4,17 1,6 3,10 4,13 4,10 11,16 21,18 10,2 19,-2 25,-11 8,-11 12,-25 13,-43 1,-18 -1,-34 -5,-47 -3,-8 -10,-14 -20,-19 -6,-2 -11,-5 -16,-7 -5,-3 -10,-5 -15,-8 -26,-12 -40,-34 -40,-64 0,-24 6,-47 19,-67 9,-15 20,-23 34,-26 14,-3 28,1 41,11 10,7 17,14 23,23 6,8 10,18 11,29 1,6 1,11 0,16 -2,14 -9,21 -22,21 -6,1 -12,-1 -16,-5 -4,-4 -6,-10 -8,-17 0,-3 -1,-6 -1,-10 0,-3 -1,-6 -3,-9 -1,-3 -3,-6 -6,-8 -4,-2 -7,-5 -11,-9zm243 138c-3,-3 -6,-6 -9,-9 -2,-2 -6,-5 -10,-9 3,12 2,21 -1,28 -4,6 -10,13 -16,20 -8,7 -15,14 -21,22 -7,8 -13,15 -20,23 -4,6 -9,9 -16,11 -6,2 -12,1 -18,-3 -5,-4 -8,-9 -9,-15 -1,-6 1,-13 7,-20 5,-7 10,-13 16,-20 6,-6 12,-12 17,-19 1,-2 3,-4 5,-6 1,-2 3,-4 6,-7 -5,-5 -11,-10 -16,-14 -5,-4 -10,-9 -16,-14 -2,-2 -5,-4 -8,-6 -2,-2 -4,-5 -5,-7 -4,-6 -5,-11 -4,-18 0,-6 3,-11 8,-15 12,-8 22,-7 31,4 3,3 7,7 11,10 3,3 7,7 12,11 1,-4 1,-7 1,-9 0,-3 1,-5 2,-7 3,-7 7,-12 14,-15 7,-3 14,-2 20,3 10,9 20,19 30,28 10,10 20,19 29,29 10,10 11,21 5,34 -11,25 -27,47 -46,65 -6,7 -14,9 -22,6 -8,-2 -13,-7 -15,-14 -2,-8 -1,-15 5,-22 5,-8 10,-15 16,-22 6,-7 11,-15 17,-23z"/>
  </g>
 </g>
</svg>
