<?xml version="1.0" encoding="UTF-8"?>
<!DOCTYPE svg PUBLIC "-//W3C//DTD SVG 1.1//EN" "http://www.w3.org/Graphics/SVG/1.1/DTD/svg11.dtd">
<!-- Creator: CorelDRAW X7 -->
<svg xmlns="http://www.w3.org/2000/svg" xml:space="preserve" width="45mm" height="45mm" version="1.1" style="shape-rendering:geometricPrecision; text-rendering:geometricPrecision; image-rendering:optimizeQuality; fill-rule:evenodd; clip-rule:evenodd"
viewBox="0 0 4500 4500"
 xmlns:xlink="http://www.w3.org/1999/xlink">
 <defs>
  <style type="text/css">
   <![CDATA[
    .fil2 {fill:black}
    .fil0 {fill:#E94F42}
    .fil3 {fill:#FEFEFE;fill-rule:nonzero}
    .fil1 {fill:black;fill-rule:nonzero}
   ]]>
  </style>
 </defs>
 <g id="Слой_x0020_1">
  <metadata id="CorelCorpID_0Corel-Layer"/>
  <g>
   <path class="fil0" d="M4149 4241c0,0 122,-141 128,-676 5,-535 22,-2163 24,-2348 2,-184 118,-539 -14,-708 -133,-170 -97,-288 -717,-295 -620,-6 -1957,-20 -2208,-23 -252,-2 -845,-153 -1012,62 -167,215 -193,683 -200,1298 -6,615 151,1366 99,1761 -53,395 -135,757 -39,849 95,93 509,171 1381,180 872,9 1823,19 2040,22 217,2 518,-122 518,-122z"/>
   <path id="1" class="fil1" d="M4315 3565l0 0 -1 50 -2 47 -2 45 -3 43 -3 41 -3 39 -4 37 -5 35 -5 32 -5 31 -5 30 -6 27 -6 26 -6 24 -6 22 -6 21 -6 19 -6 18 -6 16 -6 15 -5 13 -6 12 -5 11 -5 10 -5 8 -4 7 -4 6 -3 5 -3 5 -2 3 -2 2 -1 1 -57 -49 -1 0 0 0 2 -2 1 -2 2 -3 3 -5 3 -5 4 -7 4 -8 4 -9 5 -10 5 -12 5 -13 6 -15 5 -16 6 -17 5 -19 6 -21 5 -23 6 -24 5 -26 5 -28 5 -29 5 -32 4 -33 4 -36 4 -37 3 -40 2 -42 3 -44 1 -46 1 -48 0 0 76 0zm24 -2347l0 0 0 21 0 30 -1 37 0 44 -1 50 0 57 -1 63 -1 67 0 73 -1 76 -1 81 -1 84 -1 87 -1 89 -1 91 -1 92 -1 94 -1 94 -1 94 -1 94 -1 93 -1 92 -1 90 0 88 -1 85 -1 82 -1 78 -1 75 0 69 -1 65 -1 59 0 53 -76 0 0 -54 1 -59 1 -64 0 -70 1 -74 1 -79 1 -82 1 -85 1 -88 1 -90 1 -91 1 -93 1 -94 1 -95 1 -94 0 -93 1 -93 1 -91 1 -89 1 -87 1 -84 1 -80 1 -77 1 -72 0 -68 1 -63 0 -56 1 -51 0 -44 1 -37 0 -29 0 -22 0 0 76 1zm-22 -733l0 0 13 19 12 21 10 21 9 21 7 23 6 23 5 23 4 24 2 24 2 25 1 25 0 25 -1 25 -1 26 -2 25 -2 26 -3 25 -3 26 -3 25 -3 25 -4 25 -3 24 -4 24 -3 23 -3 23 -3 22 -3 22 -3 20 -2 20 -1 19 -1 17 -1 17 -76 -1 1 -19 1 -20 2 -20 2 -21 3 -22 2 -22 4 -23 3 -23 3 -23 4 -24 3 -24 4 -24 3 -25 3 -24 3 -25 3 -24 2 -24 1 -24 1 -24 1 -24 0 -23 -1 -22 -1 -22 -3 -21 -3 -21 -4 -19 -4 -19 -6 -18 -7 -17 -8 -16 -8 -14 -10 -14 0 0 60 -47zm-746 -309l0 0 56 1 53 2 50 2 46 3 43 4 41 4 37 4 35 6 32 6 29 6 28 8 26 8 23 8 22 9 20 10 19 11 17 11 16 12 15 12 13 13 13 13 11 13 11 14 10 14 10 14 9 14 10 14 9 14 10 15 10 15 10 14 12 15 -60 47 -13 -17 -11 -16 -11 -16 -10 -15 -10 -14 -9 -14 -9 -13 -9 -13 -8 -12 -9 -12 -10 -10 -9 -11 -11 -9 -11 -10 -12 -9 -13 -8 -15 -9 -16 -8 -18 -7 -20 -8 -23 -6 -24 -7 -27 -6 -30 -5 -33 -5 -35 -5 -38 -4 -42 -3 -45 -3 -48 -2 -52 -2 -56 -1 0 0 1 -76zm-2209 -23l0 0 27 1 32 0 39 0 44 1 48 0 54 1 58 1 62 0 66 1 69 1 72 0 75 1 77 1 79 1 81 1 83 0 83 1 85 1 85 1 84 1 85 1 84 1 83 1 82 1 80 0 79 1 76 1 74 1 71 0 67 1 64 1 61 0 -1 76 -60 0 -65 -1 -67 -1 -71 0 -74 -1 -76 -1 -78 -1 -81 -1 -82 -1 -83 0 -84 -1 -84 -1 -85 -1 -85 -1 -84 -1 -84 -1 -82 -1 -81 0 -80 -1 -77 -1 -75 -1 -72 -1 -69 0 -66 -1 -62 -1 -58 0 -53 -1 -49 0 -44 -1 -38 0 -33 -1 -27 0 0 0 1 -76zm-1042 76l0 0 20 -22 22 -20 25 -18 27 -15 28 -12 30 -11 31 -9 33 -7 33 -6 35 -4 35 -3 37 -2 37 -1 37 1 38 1 38 2 38 2 39 3 38 3 38 4 37 4 37 4 37 5 35 4 35 4 33 4 33 3 30 4 30 2 27 2 26 2 23 0 -1 76 -26 0 -27 -2 -29 -2 -30 -3 -31 -3 -33 -4 -34 -4 -35 -4 -35 -4 -36 -4 -37 -4 -37 -4 -37 -4 -38 -3 -37 -3 -37 -3 -37 -2 -36 -1 -36 0 -35 1 -34 2 -32 2 -32 4 -30 5 -28 7 -27 7 -25 9 -22 10 -21 12 -18 12 -16 14 -13 16 0 0 -60 -47zm-208 1322l0 0 1 -58 1 -56 1 -56 1 -54 1 -54 2 -53 2 -52 2 -51 2 -50 3 -48 3 -48 3 -47 4 -46 4 -45 5 -43 5 -43 6 -41 6 -40 7 -40 7 -38 8 -36 8 -36 9 -34 10 -33 10 -32 11 -31 13 -29 12 -28 14 -27 15 -26 15 -24 17 -23 60 47 -14 19 -14 21 -12 22 -12 24 -12 25 -11 26 -10 29 -10 29 -9 31 -9 33 -7 33 -8 35 -7 37 -6 38 -6 39 -6 40 -5 41 -4 43 -4 44 -4 45 -3 46 -4 47 -2 48 -3 50 -2 50 -1 52 -2 52 -1 53 -2 55 0 55 -1 56 -1 58 0 0 -76 -1zm99 1756l0 0 4 -37 3 -39 2 -41 1 -43 0 -44 0 -47 -2 -48 -2 -50 -3 -51 -4 -52 -4 -54 -5 -55 -5 -55 -5 -57 -6 -58 -6 -58 -6 -59 -6 -60 -6 -60 -6 -61 -6 -61 -6 -61 -5 -62 -6 -61 -4 -61 -4 -61 -4 -61 -3 -61 -3 -60 -1 -60 -1 -60 0 -58 76 1 0 57 1 58 1 59 3 59 3 60 3 61 4 60 5 61 5 61 5 61 6 61 6 61 6 60 6 60 6 60 6 59 6 59 6 57 5 58 6 56 4 55 4 54 4 53 3 52 3 51 1 49 1 48 0 46 -1 45 -2 43 -3 41 -5 40 0 0 -75 -10zm-28 882l0 0 -12 -14 -10 -15 -8 -16 -7 -17 -5 -18 -5 -19 -3 -20 -2 -21 -2 -22 -1 -23 0 -24 1 -25 1 -26 1 -27 2 -27 3 -29 3 -29 4 -30 4 -31 4 -31 4 -32 5 -33 5 -33 5 -34 5 -35 5 -35 5 -35 6 -36 5 -36 5 -36 5 -36 5 -37 75 10 -5 37 -5 37 -5 36 -5 36 -6 36 -5 36 -5 34 -5 35 -5 34 -5 33 -5 32 -4 32 -4 31 -4 30 -3 29 -3 29 -3 27 -2 27 -2 25 -1 24 0 23 0 22 1 21 1 19 2 17 3 16 3 15 4 12 4 11 4 9 5 7 5 5 0 0 -53 55zm1408 190l0 0 -81 -1 -78 -1 -75 -2 -73 -2 -70 -3 -68 -3 -65 -3 -63 -4 -60 -4 -57 -4 -56 -5 -53 -5 -50 -5 -49 -5 -46 -6 -43 -6 -42 -6 -39 -7 -37 -6 -35 -7 -33 -8 -31 -7 -28 -8 -27 -8 -25 -8 -23 -8 -21 -9 -19 -9 -18 -9 -16 -10 -14 -10 -13 -11 53 -55 7 6 9 7 12 7 13 7 16 8 18 7 21 8 22 7 25 7 27 8 29 7 32 6 33 7 36 7 38 6 41 6 42 6 45 6 48 5 50 5 52 5 55 4 57 5 59 4 62 3 65 3 67 3 70 3 72 2 75 2 77 1 80 1 0 0 0 76zm2040 22l0 0 -23 -1 -26 0 -31 0 -34 -1 -39 0 -41 -1 -45 0 -49 0 -51 -1 -55 -1 -57 0 -60 -1 -63 0 -65 -1 -67 -1 -69 -1 -71 0 -73 -1 -74 -1 -76 -1 -77 0 -79 -1 -79 -1 -80 -1 -81 -1 -82 -1 -82 0 -82 -1 -83 -1 -82 -1 -82 -1 -82 -1 0 -76 82 1 83 1 82 1 82 1 83 1 82 1 81 0 81 1 81 1 79 1 79 1 77 1 76 0 74 1 73 1 71 1 69 0 67 1 65 1 63 0 60 1 57 1 54 0 52 1 48 0 45 1 42 0 38 1 35 0 30 0 27 0 23 1 0 0 -1 76zm547 -135l-14 10 -1 1 -3 1 -4 2 -6 2 -8 3 -9 3 -10 4 -11 4 -13 5 -14 5 -15 5 -16 5 -16 6 -18 6 -18 5 -20 6 -20 6 -20 6 -21 5 -21 6 -22 5 -22 5 -23 5 -22 5 -23 4 -23 4 -23 3 -22 3 -23 2 -22 1 -22 1 -22 1 1 -76 19 0 20 -1 20 -2 21 -2 20 -2 22 -3 21 -4 21 -4 22 -4 21 -4 21 -5 21 -6 21 -5 20 -5 19 -6 20 -5 18 -6 18 -6 17 -5 16 -6 16 -5 14 -5 14 -5 12 -4 11 -4 10 -4 8 -3 7 -3 6 -2 4 -1 2 -1 1 -1 -14 11 57 49zm0 0l-6 7 -8 3 14 -10z"/>
  </g>
  <g>
   <path class="fil2" d="M2926 3270c-34,-46 -163,-58 -285,-71 -123,-13 -322,0 -397,0 -75,0 -68,52 -319,23 -250,-29 -287,-25 -278,12 9,36 -20,140 -1,173 19,32 189,72 289,72 99,0 366,-22 467,-27 102,-5 229,-46 294,-28 66,18 167,27 183,22 17,-5 47,-176 47,-176z"/>
   <path class="fil3" d="M1871 3302c-4,0 -8,0 -12,0 -3,0 -7,0 -11,2l-2 22c0,7 0,14 0,21 0,7 0,13 -1,20 0,1 0,2 0,3 0,1 0,2 -1,3 -1,6 -5,9 -10,8 -6,-1 -8,-4 -8,-10 0,-4 0,-7 0,-11 0,-3 0,-7 0,-10 0,-6 1,-12 1,-19 0,-6 0,-12 0,-18l1 -12c1,-8 5,-13 12,-16 2,0 4,-1 6,-1 3,-1 5,-1 7,-1 4,-1 7,-1 11,-1 3,0 7,0 10,0 9,0 14,5 16,14 1,4 1,9 1,14 0,9 0,19 -1,28 0,9 0,19 0,28l0 3c-1,7 -5,10 -11,10 -5,0 -9,-4 -9,-10 0,-3 0,-7 0,-10 0,-3 0,-6 0,-10 1,-6 1,-13 1,-19 0,-7 0,-13 1,-20 0,-1 0,-2 -1,-4 0,-1 0,-2 0,-4zm82 79c0,5 0,10 -1,13 0,4 0,8 1,13 0,3 0,6 0,10 0,3 0,7 0,11 0,1 0,3 -1,4 0,2 -1,3 -2,4 -2,2 -5,3 -8,3 -4,-1 -6,-2 -8,-5 0,-1 -1,-3 -1,-4 0,-1 0,-2 0,-3 -1,-21 -2,-41 -3,-61 0,-21 0,-41 3,-61 0,-3 0,-5 0,-6 1,-4 2,-7 4,-9 2,-2 5,-3 9,-3 16,-3 30,1 42,12 4,4 7,9 9,14 2,5 3,11 3,17 0,4 0,8 -1,12 0,5 -1,9 -2,13 -2,9 -7,16 -14,20 -7,4 -14,6 -20,6 -2,1 -4,1 -5,1 -2,0 -4,-1 -5,-1zm-2 -20c3,0 5,0 7,0 3,0 4,0 6,-1 3,0 5,-1 7,-2 2,-1 4,-3 4,-6 3,-5 4,-10 4,-15 1,-5 0,-10 -1,-15 -2,-5 -5,-9 -9,-12 -5,-2 -10,-3 -16,-2 -1,9 -1,17 -1,26 -1,9 -1,18 -1,27zm90 -10c-2,-8 -2,-15 -2,-22 0,-6 1,-13 4,-19 4,-12 13,-20 25,-24 3,-1 7,-1 11,0 12,3 20,11 23,23 2,10 3,20 3,30 -1,9 -4,19 -8,29 -3,4 -6,8 -10,11 -4,2 -8,4 -12,4 -4,0 -9,-1 -13,-2 -4,-2 -8,-5 -11,-9 -3,-4 -5,-7 -7,-11 -1,-4 -2,-7 -3,-10zm42 -34c0,-1 0,-2 0,-2 0,-1 -1,-2 -1,-3 -3,-6 -7,-8 -13,-4 -3,2 -6,6 -7,9 -3,7 -4,14 -3,20 0,6 2,13 5,19 1,1 2,3 3,4 2,2 3,3 6,3 2,0 4,-1 5,-4 1,-1 2,-3 3,-4 4,-12 5,-25 2,-38zm109 23c1,-5 3,-11 4,-15 1,-5 3,-10 5,-15 2,-5 4,-11 7,-17 3,-3 6,-5 9,-8 4,-1 7,-2 10,-1 4,2 6,4 8,8 2,4 3,8 3,12 1,11 1,22 1,33 1,10 1,21 2,32 0,3 -1,6 -3,8 -2,2 -4,3 -7,4 -3,0 -5,-1 -7,-3 -2,-2 -3,-5 -3,-8 0,-8 -1,-15 -1,-22 0,-8 0,-15 -1,-22 0,-2 0,-3 -2,-4 0,1 0,2 -1,3 0,1 0,2 0,3 -2,5 -4,11 -6,17 -1,5 -3,11 -5,16 -1,3 -2,6 -4,8 -2,2 -5,4 -8,4 -4,-1 -7,-2 -8,-4 -2,-2 -4,-5 -6,-8 -1,-4 -3,-8 -4,-12 -2,-4 -4,-8 -5,-12 -1,-1 -1,-2 -2,-3 0,-1 -1,-2 -2,-3l-1 22c-1,4 -1,7 -1,10 -1,3 -1,6 -1,9 -1,8 -5,11 -11,10 -6,0 -9,-4 -8,-12 0,-9 1,-17 1,-26 1,-8 2,-16 3,-25 0,-4 0,-8 1,-12 1,-3 1,-7 2,-10 0,-2 1,-3 1,-5 1,-1 1,-2 2,-4 2,-4 5,-5 9,-6 4,0 7,1 10,5 3,3 4,7 6,12 2,5 3,11 5,16 2,6 3,11 5,17 0,1 1,2 1,3 1,2 1,3 2,5zm90 11c-1,-8 -2,-15 -2,-22 0,-6 2,-13 4,-19 5,-12 13,-20 25,-24 4,-1 7,-1 11,0 12,3 20,11 24,23 2,10 3,20 2,30 0,9 -3,19 -8,29 -2,4 -5,8 -9,11 -4,2 -8,4 -13,4 -4,0 -8,-1 -13,-2 -4,-2 -8,-5 -11,-9 -3,-4 -5,-7 -6,-11 -2,-4 -3,-7 -4,-10zm43 -34c-1,-1 -1,-2 -1,-2 0,-1 0,-2 -1,-3 -3,-6 -7,-8 -12,-4 -4,2 -6,6 -8,9 -2,7 -3,14 -3,20 1,6 3,13 6,19 0,1 1,3 3,4 1,2 3,3 5,3 2,0 4,-1 6,-4 1,-1 1,-3 2,-4 5,-12 5,-25 3,-38zm90 24c-3,2 -6,5 -8,7 -2,3 -3,6 -2,10 0,2 0,4 0,6 1,2 1,4 1,6 0,7 -3,10 -9,11 -3,1 -6,0 -8,-2 -2,-1 -3,-4 -4,-7 0,-4 -1,-8 -1,-12 0,-4 0,-8 0,-12 0,-9 0,-17 0,-25 0,-9 0,-17 1,-26 0,0 0,-1 -1,-2 0,-2 0,-2 1,-3 0,-3 2,-5 3,-6 2,-2 5,-3 7,-3 2,0 5,1 6,2 2,2 4,4 4,7 0,2 1,5 0,7 0,3 0,6 0,8l0 12c1,-1 2,-2 3,-2 1,-1 1,-1 2,-2 3,-4 6,-8 9,-12 3,-4 6,-8 9,-12 0,-1 1,-1 1,-2 0,0 0,-1 1,-1 4,-5 8,-6 13,-3 5,3 6,7 4,12 0,1 -1,2 -1,3 -1,1 -1,2 -2,4 -2,2 -4,5 -6,8 -1,2 -3,5 -5,7 -3,3 -3,5 -2,8 3,7 5,14 8,21 3,7 5,14 7,21 3,6 1,11 -6,13 -6,1 -11,-1 -13,-8 -2,-4 -3,-8 -4,-12 -2,-4 -3,-8 -4,-12 -1,-2 -2,-3 -2,-5 -1,-1 -1,-2 -2,-4zm74 10c-1,-8 -2,-15 -2,-22 0,-6 2,-13 5,-19 4,-12 12,-20 24,-24 4,-1 7,-1 11,0 13,3 20,11 24,23 2,10 3,20 2,30 0,9 -3,19 -8,29 -2,4 -5,8 -9,11 -4,2 -8,4 -12,4 -5,0 -9,-1 -13,-2 -5,-2 -9,-5 -12,-9 -3,-4 -5,-7 -6,-11 -2,-4 -3,-7 -4,-10zm43 -34c0,-1 -1,-2 -1,-2 0,-1 0,-2 -1,-3 -3,-6 -7,-8 -12,-4 -4,2 -6,6 -8,9 -2,7 -3,14 -3,20 1,6 3,13 6,19 0,1 1,3 3,4 1,2 3,3 5,3 3,0 4,-1 6,-4 1,-1 2,-3 2,-4 5,-12 5,-25 3,-38zm135 43c4,1 7,3 9,6 1,2 2,5 1,9 0,4 -3,7 -6,9 -4,2 -7,1 -10,-3 -1,0 -2,-1 -2,-1 -1,-1 -2,-1 -3,-1 -6,0 -12,0 -19,0 -6,1 -12,1 -18,1 -3,0 -4,0 -5,1 -2,0 -4,1 -5,3 -2,5 -6,7 -10,6 -5,0 -7,-4 -8,-9 0,-5 0,-9 2,-11 2,-2 5,-4 10,-6 1,0 2,0 3,0 1,0 2,-1 3,-1 0,-6 1,-12 1,-18 0,-5 1,-11 1,-17 0,-2 1,-4 1,-7 0,-2 0,-5 0,-7 2,-11 7,-20 16,-27 7,-5 15,-7 23,-4 7,3 12,9 15,18 0,3 1,6 1,9 0,3 0,6 0,9 0,6 0,12 0,18 0,7 0,13 -1,19 0,1 1,3 1,4zm-19 0c0,0 0,-1 0,-1 0,0 1,-1 1,-1 0,-7 0,-15 0,-22 0,-7 0,-14 0,-22 0,-1 0,-3 0,-4 0,-2 0,-4 -1,-5 -1,-5 -4,-6 -8,-4 -6,3 -9,8 -10,14 0,7 -1,13 -1,20 0,6 -1,12 -1,19 0,1 0,2 0,3 0,2 0,3 0,4 3,0 7,0 10,0 3,0 7,0 10,-1zm80 15c-3,0 -5,-1 -8,-3 -2,-2 -3,-5 -3,-8 0,-2 1,-5 3,-7 2,-2 5,-3 8,-3 3,0 6,1 8,3 1,2 2,5 2,8 0,3 -1,5 -3,7 -2,2 -4,3 -7,3zm2 -52c-3,0 -6,-1 -8,-3 -2,-1 -3,-4 -2,-7 0,-3 1,-5 3,-7 2,-2 4,-3 7,-2 3,0 5,1 7,3 1,2 2,4 2,7 0,3 -1,5 -3,7 -2,2 -4,3 -6,2z"/>
   <path class="fil3" d="M1175 3606c5,5 11,9 17,12 6,4 11,8 15,12 9,9 14,18 17,29 2,11 4,22 5,33 0,15 -2,28 -5,40 -5,18 -14,32 -27,41 -13,9 -29,15 -47,18 -15,2 -30,3 -45,3 -7,0 -14,-2 -21,-8 -6,-6 -9,-14 -10,-22 0,-16 -1,-33 -2,-49 0,-16 0,-33 0,-49 0,-25 1,-48 2,-72 1,-23 2,-47 3,-71 0,-13 7,-22 20,-25 3,-1 6,-1 8,-2 3,0 6,-1 9,-2 22,-5 42,0 61,15 9,8 15,19 17,32 2,14 1,27 -4,40 -2,5 -4,9 -6,13 -3,4 -5,8 -7,12zm-63 147c8,-1 15,-1 22,-1 6,0 13,-1 19,-2 15,-2 25,-9 30,-22 10,-21 9,-44 -2,-66 -4,-9 -10,-13 -19,-13 -15,0 -29,3 -41,9 -6,3 -10,9 -10,16 1,13 1,26 1,38 0,13 0,27 0,41zm1 -144c11,-7 20,-15 26,-23 8,-9 13,-18 13,-28 2,-8 0,-14 -4,-19 -4,-4 -10,-7 -18,-7 -5,0 -9,1 -10,3 -2,2 -3,5 -4,9 0,7 0,13 0,18 0,6 -1,12 -1,18 0,5 -1,9 -1,13 0,4 -1,9 -1,16zm184 108c5,-10 10,-19 15,-28 4,-9 10,-19 15,-29 4,-5 8,-11 12,-16 4,-5 8,-10 12,-15 3,-4 7,-6 11,-8 5,-2 9,-2 14,1 10,3 15,11 15,22l0 23c0,17 -1,35 -1,52 0,17 0,34 -1,51 0,2 0,4 0,6 0,2 0,4 0,7 -2,5 -4,10 -9,13 -5,3 -10,4 -15,3 -11,-1 -16,-8 -16,-21l0 -34c0,-5 0,-11 0,-16 -1,-6 -2,-11 -3,-18 -2,3 -3,6 -4,8 -2,2 -3,5 -5,8 -5,8 -9,16 -14,24 -5,9 -10,17 -15,25 -5,6 -10,11 -16,14 -8,5 -16,6 -23,3 -7,-4 -12,-10 -14,-19 -1,-13 -2,-25 -1,-35 0,-19 1,-36 1,-54 1,-17 1,-35 2,-54 1,-2 1,-4 1,-6 0,-2 0,-4 1,-6 3,-11 9,-16 20,-14 5,0 9,2 12,5 4,3 6,6 6,11 0,6 0,13 0,19 0,7 -1,13 -1,20 0,9 0,19 -1,28 0,10 0,20 -1,29 1,0 1,0 1,1 1,0 1,0 2,0zm225 -67l-35 0 0 18c0,10 -1,21 0,31 0,10 0,20 -2,29 -1,8 -2,16 -5,23 -2,7 -5,15 -8,22 -1,4 -3,7 -6,10 -3,3 -6,6 -9,9 -4,3 -8,5 -13,5 -5,1 -10,0 -15,-2 -4,-1 -8,-4 -12,-7 -3,-4 -5,-8 -6,-12 -3,-7 -2,-13 2,-19 3,-5 9,-8 16,-9 2,0 4,0 5,1 2,0 4,0 6,0 3,-8 5,-16 6,-25 1,-8 2,-16 2,-25 0,-7 0,-15 0,-22 0,-8 -1,-15 -1,-23 0,-3 0,-5 0,-7 0,-2 0,-4 1,-7 1,-16 8,-25 23,-27 10,-1 21,-2 31,-2 11,0 21,0 32,0 6,0 12,3 17,7 4,5 7,11 8,17 2,12 3,23 2,32 -1,19 -2,37 -3,54 -1,18 -3,36 -4,55 0,3 0,6 -1,7 -1,10 -8,16 -19,17 -4,0 -8,-2 -12,-5 -3,-2 -5,-6 -6,-11 -2,-5 -2,-12 -1,-20 1,-16 2,-31 3,-47 1,-15 2,-31 4,-47 0,-3 0,-6 0,-9 0,-3 0,-7 0,-11zm169 0l-35 0 0 18c0,10 0,21 0,31 0,10 0,20 -1,29 -2,8 -3,16 -6,23 -2,7 -5,15 -7,22 -2,4 -4,7 -7,10 -3,3 -6,6 -9,9 -4,3 -8,5 -13,5 -5,1 -10,0 -14,-2 -5,-1 -9,-4 -12,-7 -4,-4 -6,-8 -7,-12 -3,-7 -2,-13 2,-19 4,-5 9,-8 17,-9 1,0 3,0 4,1 2,0 4,0 6,0 3,-8 5,-16 6,-25 1,-8 2,-16 2,-25 0,-7 0,-15 0,-22 0,-8 -1,-15 -1,-23 0,-3 0,-5 0,-7 0,-2 0,-4 1,-7 1,-16 9,-25 23,-27 10,-1 21,-2 31,-2 11,0 21,0 32,0 7,0 12,3 17,7 4,5 7,11 8,17 2,12 3,23 2,32 -1,19 -2,37 -3,54 -1,18 -3,36 -4,55 0,3 0,6 -1,7 -1,10 -8,16 -18,17 -5,0 -9,-2 -13,-5 -3,-2 -5,-6 -6,-11 -2,-5 -2,-12 -1,-20 1,-16 2,-31 3,-47 1,-15 2,-31 4,-47 0,-3 0,-6 0,-9 0,-3 0,-7 0,-11zm172 74c-5,6 -9,12 -13,16 -4,5 -8,10 -13,14 -3,4 -7,7 -11,10 -4,4 -8,7 -13,10 -13,8 -26,9 -38,4 -12,-6 -20,-16 -23,-32 -4,-21 -3,-42 1,-61 5,-19 16,-36 34,-51 14,-13 31,-21 51,-22 16,0 29,5 42,15 2,3 5,5 9,8 3,3 6,6 9,9 1,3 3,6 4,9 2,4 2,7 2,11 1,6 1,12 1,18 0,6 -1,12 -1,19 0,10 1,19 1,29 0,11 0,20 0,30 0,3 0,6 1,10 0,3 0,7 0,10 -2,13 -8,18 -20,17 -11,0 -17,-6 -19,-17 -1,-7 -1,-14 -2,-20 0,-7 0,-14 -1,-20 0,-2 0,-4 0,-7 0,-2 0,-5 -1,-9zm-71 14c15,-10 27,-22 36,-35 10,-14 19,-28 28,-42 -6,-9 -13,-12 -22,-8 -9,3 -17,7 -22,12 -12,9 -19,21 -20,33 -2,13 -2,26 0,40zm280 19c8,3 14,7 17,11 3,5 4,11 3,19 -2,8 -6,13 -12,16 -7,4 -14,2 -20,-4 -1,-1 -3,-2 -4,-3 -2,-1 -3,-1 -5,-1 -12,0 -24,0 -36,0 -12,0 -24,1 -36,1 -5,0 -8,1 -10,1 -4,0 -6,2 -8,7 -5,10 -11,14 -20,12 -9,-2 -14,-8 -15,-19 -1,-10 0,-16 3,-20 4,-5 10,-8 20,-11 2,-1 3,-2 5,-2 2,0 5,0 7,-1 0,-12 1,-23 2,-33 0,-11 1,-22 1,-33 1,-5 1,-10 2,-14 0,-5 0,-9 1,-14 3,-22 13,-39 29,-52 14,-10 29,-13 44,-7 16,5 25,16 29,33 1,6 2,13 2,18 1,6 1,12 1,18 0,12 0,23 0,35 0,12 0,24 -1,36 0,3 0,5 1,7zm-36 1c0,-1 0,-2 0,-2 0,-1 1,-2 1,-3 0,-13 0,-27 0,-41 0,-14 0,-28 0,-42 0,-3 0,-6 0,-10 0,-3 0,-6 -1,-9 -3,-9 -9,-12 -17,-7 -11,6 -17,16 -18,28 -1,12 -2,25 -2,37 -1,12 -2,24 -3,37 0,2 0,4 0,6 0,3 0,5 1,8 6,0 13,-1 19,-1 7,0 13,0 20,-1zm140 -51c-4,8 -8,16 -11,24 -3,9 -6,17 -9,27 -1,3 -2,6 -3,10 -1,3 -2,7 -3,10 -5,12 -13,17 -23,13 -11,-3 -15,-11 -12,-24 4,-15 9,-30 14,-45 5,-15 12,-29 20,-43 -5,-6 -9,-12 -14,-17 -4,-6 -9,-11 -14,-17 -1,-2 -2,-3 -4,-5 -1,-1 -2,-3 -3,-5 -5,-9 -3,-18 5,-25 8,-5 16,-4 24,4 3,3 5,6 8,9 3,4 5,7 8,10 5,6 10,11 14,17 5,6 11,12 16,18 1,-4 2,-8 3,-11 0,-5 1,-10 1,-16 0,-5 0,-10 1,-15 1,-6 3,-11 7,-15 3,-3 7,-5 12,-4 6,0 10,2 13,6 3,3 5,8 5,15 -1,5 -1,11 -2,16 0,6 0,11 -1,16l0 13c3,-1 6,-3 7,-6 2,-2 3,-4 5,-7 5,-6 9,-13 13,-19 3,-7 7,-14 12,-20 6,-9 13,-12 21,-11 5,2 10,5 12,10 3,4 3,10 0,16 -2,4 -4,8 -6,12 -3,4 -5,8 -8,12 -6,6 -9,12 -9,19 0,6 2,13 6,21 4,10 8,21 12,31 4,11 8,21 12,32 1,3 2,7 2,13 -1,10 -6,16 -16,17 -4,1 -8,0 -11,-2 -4,-3 -6,-6 -8,-11 -4,-10 -7,-19 -11,-29 -4,-9 -7,-19 -11,-29 0,-1 -1,-3 -1,-4 -1,-2 -2,-4 -3,-6 -3,3 -7,5 -10,8 -3,2 -6,5 -9,7 -2,2 -2,5 -2,9 -1,6 -1,12 -2,18 0,5 0,11 0,16 -1,3 -1,6 -1,8 0,2 0,4 -1,7 -1,5 -3,8 -7,11 -4,3 -8,4 -13,4 -11,-3 -16,-9 -15,-20 0,-18 1,-37 2,-55 2,-10 -2,-16 -12,-18zm238 -40l-52 0c-4,0 -8,-1 -12,-1 -3,-1 -7,-2 -11,-3 -5,-2 -8,-6 -10,-10 -2,-5 -3,-10 -2,-14 4,-10 11,-15 23,-15 13,1 26,1 40,2 14,0 28,0 42,0 8,0 16,0 24,-1 8,0 17,-1 25,-1 7,0 13,2 18,5 5,3 8,6 9,10 1,5 0,9 -1,14 -4,9 -10,13 -19,13l-74 0 0 1zm225 129c0,7 0,14 0,20 0,7 -1,14 -1,21 0,6 0,12 0,19 0,7 0,13 0,19 -2,12 -7,18 -17,20 -6,1 -11,0 -16,-4 -5,-4 -7,-10 -7,-18 0,-10 0,-20 0,-29 1,-10 1,-20 1,-30l0 -15c-2,-1 -4,-2 -6,-2 -2,-1 -4,-1 -5,-2 -20,-7 -36,-19 -47,-37 -11,-17 -15,-36 -13,-57 5,-39 24,-68 58,-85 9,-6 20,-7 33,-6 5,2 10,2 15,3 5,0 11,0 16,1 32,3 54,20 66,51 5,15 7,29 5,43 -2,13 -7,26 -13,38 -7,11 -15,21 -25,29 -10,8 -20,14 -31,17 -1,1 -3,2 -5,2 -2,0 -5,1 -8,2zm2 -141c-1,17 -2,33 -2,49 0,16 1,33 1,49 16,-6 27,-16 34,-29 7,-14 9,-28 5,-43 -3,-10 -7,-17 -13,-21 -5,-4 -13,-5 -25,-5zm-40 1c-9,4 -16,10 -21,18 -6,7 -9,16 -11,25 -2,9 -2,18 1,28 2,9 7,16 13,22 3,2 5,3 7,5 3,1 6,1 10,0 0,-16 0,-33 0,-49 0,-16 0,-32 1,-49zm201 139c-6,-7 -12,-14 -18,-20 -6,-6 -11,-12 -16,-18 -10,-14 -17,-29 -21,-45 -3,-16 -5,-32 -5,-49 0,-5 1,-9 3,-12 2,-5 5,-8 9,-10 4,-2 9,-2 13,-1 11,1 16,8 15,20 -1,17 2,35 8,52 2,8 6,15 10,22 5,7 10,13 18,18 1,-2 2,-4 3,-6 1,-1 1,-3 2,-6 5,-13 9,-26 13,-40 3,-14 7,-28 12,-41 2,-6 5,-10 7,-12 5,-7 12,-8 20,-6 3,2 6,4 9,6 2,3 4,7 4,12 0,4 0,9 -2,15 -8,27 -17,54 -26,80 -8,26 -19,52 -30,78 -6,13 -13,25 -20,36 -8,11 -16,21 -25,32 -8,11 -18,12 -27,5 -5,-3 -8,-7 -8,-12 -1,-6 0,-11 3,-16 2,-4 5,-8 8,-11 3,-3 6,-7 9,-11 8,-9 14,-19 19,-30 4,-11 9,-21 13,-30zm148 -141l-23 0c-3,0 -6,0 -8,0 -2,0 -5,0 -8,-1 -4,-1 -8,-3 -11,-6 -3,-3 -4,-7 -4,-12 -1,-10 3,-16 14,-19 1,-1 1,-1 2,-1 0,0 1,-1 2,-1 13,-1 26,-2 39,-3 14,-1 27,-2 40,-3 3,0 5,0 8,0 2,0 5,0 8,1 5,0 9,2 12,6 3,4 5,8 5,13 0,9 -5,16 -16,19 -3,1 -6,1 -9,1 -3,0 -6,1 -10,1 0,12 -1,23 -1,34 0,11 0,22 0,32 -1,10 -1,20 -1,29 0,9 0,18 0,27 0,5 -1,8 -1,10 -2,12 -8,18 -20,18 -5,0 -10,-2 -13,-5 -4,-4 -6,-9 -6,-15 0,-14 0,-27 1,-41 0,-14 0,-28 0,-41 1,-7 1,-14 0,-21 0,-7 0,-14 0,-22zm155 141c-6,-7 -12,-14 -18,-20 -6,-6 -11,-12 -16,-18 -10,-14 -17,-29 -21,-45 -3,-16 -5,-32 -5,-49 0,-5 1,-9 3,-12 2,-5 5,-8 9,-10 4,-2 9,-2 13,-1 11,1 16,8 15,20 -1,17 2,35 7,52 3,8 7,15 11,22 5,7 10,13 18,18 1,-2 2,-4 3,-6 1,-1 1,-3 2,-6 5,-13 9,-26 12,-40 4,-14 8,-28 13,-41 2,-6 5,-10 7,-12 5,-7 12,-8 20,-6 3,2 6,4 9,6 2,3 4,7 4,12 0,4 0,9 -2,15 -8,27 -17,54 -26,80 -8,26 -19,52 -30,78 -6,13 -13,25 -20,36 -8,11 -16,21 -25,32 -8,11 -18,12 -27,5 -5,-3 -8,-7 -9,-12 0,-6 1,-11 3,-16 3,-4 6,-8 9,-11 3,-3 6,-7 9,-11 8,-9 14,-19 19,-30 4,-11 9,-21 13,-30zm151 4c0,9 -1,17 -1,25 0,7 0,15 1,23 0,6 0,13 0,20 1,7 1,14 0,20 0,3 0,6 -1,9 -1,3 -2,6 -5,8 -4,4 -9,6 -16,5 -6,0 -11,-4 -14,-9 -1,-3 -2,-5 -2,-7 0,-3 -1,-5 -1,-7 -1,-40 -3,-79 -4,-118 -1,-38 0,-78 4,-117 0,-5 0,-8 1,-10 1,-8 4,-14 8,-18 4,-3 9,-5 17,-6 31,-5 57,3 80,24 8,8 14,17 18,26 4,10 6,21 6,32 0,8 0,16 -2,25 -1,8 -3,16 -4,24 -5,18 -14,31 -27,38 -14,8 -27,12 -39,13 -3,0 -6,1 -10,0 -3,0 -6,0 -9,0zm-4 -39c6,0 11,-1 15,-1 4,0 7,0 11,-1 4,-1 9,-2 13,-5 4,-2 7,-5 8,-10 4,-10 7,-20 8,-30 1,-10 0,-20 -3,-29 -3,-10 -9,-17 -18,-22 -9,-5 -19,-6 -30,-4 -1,16 -2,33 -2,50 -1,16 -1,34 -2,52zm119 -20c-3,-15 -4,-28 -4,-41 1,-13 3,-26 9,-39 8,-23 24,-37 47,-44 7,-3 14,-3 21,-1 24,6 39,21 45,45 5,19 6,38 5,57 -1,18 -6,37 -15,55 -5,9 -11,16 -18,21 -8,5 -16,8 -24,8 -8,1 -17,0 -25,-4 -8,-3 -15,-9 -22,-17 -5,-6 -9,-13 -12,-20 -3,-7 -5,-14 -7,-20zm82 -66c-1,-1 -1,-2 -1,-4 0,-1 0,-3 -2,-4 -5,-13 -13,-15 -24,-9 -7,5 -11,11 -14,18 -5,13 -7,26 -6,38 1,13 5,25 11,37 0,2 2,5 5,8 3,3 7,5 11,5 4,0 8,-3 11,-7 1,-3 3,-6 4,-9 8,-23 10,-47 5,-73z"/>
   <g id="_821722383584">
    <path class="fil3" d="M1403 819c-4,14 -8,27 -12,41 -4,15 -8,29 -12,43 -1,5 -2,10 -2,14 0,5 -1,10 -3,14 -2,19 -10,27 -24,25 -7,-1 -12,-4 -16,-9 -4,-4 -6,-11 -5,-20 1,-6 2,-13 3,-19 1,-6 3,-13 4,-19 9,-37 19,-74 31,-110 11,-36 25,-72 42,-106 4,-9 8,-18 13,-26 5,-8 10,-15 17,-23 10,-12 21,-17 35,-15 14,2 24,11 31,26 1,4 2,8 3,13 1,4 3,8 4,13 2,14 4,28 6,42 2,14 4,28 7,42 5,29 10,58 14,86 4,29 9,57 14,85 0,4 1,8 2,13 0,15 -6,23 -18,25 -6,1 -12,0 -17,-3 -5,-3 -8,-7 -9,-14 -2,-8 -4,-16 -6,-24 -1,-8 -3,-16 -4,-24 -2,-10 -4,-20 -5,-30 -2,-10 -4,-20 -5,-29 0,0 -1,-1 -2,-4 -14,-1 -28,-2 -42,-3 -14,-1 -29,-2 -44,-4zm61 -150c-10,16 -19,33 -26,50 -7,18 -13,35 -20,53 11,4 22,6 33,6 10,1 21,0 31,0 -2,-19 -5,-38 -7,-56 -2,-17 -5,-35 -11,-53zm189 77c12,2 23,5 34,9 11,4 21,10 30,17 21,17 32,39 32,67 0,21 -5,40 -14,57 -9,17 -23,31 -42,42 -5,3 -10,6 -16,9 -5,3 -10,5 -15,7 -15,5 -27,5 -36,-2 -9,-6 -14,-17 -15,-32 -1,-23 -3,-46 -4,-68 -1,-23 -2,-46 -3,-69 0,-13 1,-26 1,-39 1,-13 2,-26 5,-39 5,-27 17,-50 34,-67 17,-18 38,-32 62,-43 3,-2 6,-3 9,-3 3,-1 7,-1 10,-2 16,-2 25,4 29,18 2,12 -5,21 -20,26 -7,3 -13,6 -20,8 -6,3 -12,6 -17,10 -31,23 -46,55 -44,94zm-2 50c1,17 2,35 2,54 0,18 2,36 5,55 29,-12 44,-33 45,-63 0,-14 -5,-25 -14,-34 -10,-9 -22,-13 -38,-12zm147 95c-3,-17 -4,-33 -4,-47 0,-15 3,-30 9,-44 10,-27 28,-44 55,-52 8,-3 16,-3 24,-1 27,7 45,25 52,52 5,22 7,44 6,65 -2,22 -7,43 -18,64 -5,11 -12,19 -21,24 -8,6 -17,9 -27,10 -10,0 -19,-1 -29,-5 -9,-4 -18,-11 -25,-20 -6,-7 -10,-15 -14,-23 -3,-8 -6,-16 -8,-23zm94 -76c0,-1 -1,-2 -1,-4 0,-2 0,-4 -2,-5 -6,-14 -15,-18 -27,-10 -8,6 -14,12 -17,20 -6,16 -8,30 -7,44 1,15 6,29 13,42 0,3 2,6 6,9 3,4 7,6 12,6 5,0 9,-2 12,-8 2,-3 4,-6 5,-10 10,-26 12,-54 6,-84zm190 5c0,-8 1,-16 1,-24 0,-7 1,-15 1,-23l0 -13c3,-12 10,-18 21,-18 6,1 10,3 14,6 3,3 5,7 6,12 1,9 1,17 1,26 0,8 0,17 1,25 0,20 0,39 1,59 0,20 0,39 1,58 0,14 -7,22 -20,23 -5,1 -10,0 -15,-5 -5,-4 -8,-9 -9,-16 0,-6 0,-12 0,-18 0,-6 0,-13 0,-19 -1,-5 -1,-10 -1,-14 0,-5 0,-10 0,-15 -10,1 -18,1 -26,1 -8,1 -16,1 -25,2 0,10 0,21 0,31 -1,9 -1,19 -2,29 0,3 0,6 0,9 -1,3 -2,5 -3,7 -2,5 -5,9 -10,11 -4,2 -9,2 -15,1 -10,-2 -14,-9 -14,-21 -1,-8 -1,-17 -1,-25 0,-8 1,-17 1,-25l0 -115c0,-6 0,-11 1,-14 1,-5 4,-9 8,-12 4,-3 9,-4 14,-4 12,2 18,8 19,20 1,7 1,13 1,19 0,7 0,13 0,20l0 23c5,0 9,1 13,1 4,0 8,0 13,0 3,0 7,0 11,0 4,0 8,-1 13,-2zm137 59c1,7 3,13 5,19 3,5 6,10 10,15 7,8 16,9 25,5 10,-4 19,-12 25,-21 1,-3 2,-6 4,-8 1,-2 2,-5 4,-7 6,-10 14,-13 24,-8 5,2 8,6 10,10 2,4 2,8 1,14 -5,16 -14,30 -27,43 -13,12 -29,19 -48,20 -16,2 -29,-3 -41,-14 -7,-7 -13,-13 -17,-20 -5,-7 -9,-15 -11,-25 -5,-14 -8,-28 -10,-43 -2,-14 -2,-28 2,-44 7,-35 28,-56 64,-63 5,-1 10,-1 15,0 5,1 10,2 15,3 15,5 27,16 36,31 9,15 12,30 10,46 -2,21 -13,35 -33,40 -6,1 -11,2 -16,2 -5,1 -10,1 -15,2 -5,0 -9,1 -13,1 -4,0 -8,0 -13,0 -1,0 -2,1 -3,1 0,0 -1,0 -3,1zm-6 -42c10,0 18,-1 27,-1 8,-1 17,-1 26,-2 6,0 9,-4 9,-12 -1,-3 -2,-6 -2,-8 -1,-2 -2,-5 -3,-7 -8,-14 -20,-18 -35,-11 -8,4 -14,9 -17,16 -3,8 -5,16 -5,25zm268 30c3,-12 6,-23 9,-34 3,-10 7,-21 11,-31 3,-13 9,-26 16,-38 5,-7 12,-13 20,-18 7,-4 15,-4 22,-2 8,3 13,8 17,16 4,9 7,18 7,27 1,24 2,48 3,72 0,24 1,48 3,72 0,7 -2,13 -6,18 -4,5 -9,7 -15,8 -7,0 -12,-2 -16,-7 -4,-4 -6,-10 -7,-17 -1,-16 -1,-33 -1,-49 -1,-16 -2,-32 -3,-49 0,-3 -1,-6 -4,-9 -1,3 -1,5 -2,8 -1,2 -1,4 -2,6 -4,13 -8,25 -11,37 -4,12 -8,24 -12,36 -2,8 -5,14 -9,19 -4,5 -10,7 -18,7 -8,-1 -14,-3 -19,-8 -4,-5 -8,-11 -11,-18 -3,-9 -7,-18 -10,-26 -4,-8 -7,-17 -11,-26 -1,-3 -2,-5 -3,-8 -1,-2 -3,-4 -6,-7l-3 51c-1,7 -2,14 -2,20 0,7 -1,14 -2,21 -2,17 -9,24 -23,23 -15,-1 -21,-11 -19,-28 1,-19 3,-38 4,-56 1,-19 3,-38 5,-57 0,-8 1,-17 3,-25 1,-8 2,-16 4,-24 0,-3 1,-7 3,-10 1,-2 2,-6 4,-9 5,-8 12,-12 20,-13 8,0 16,3 22,10 5,7 10,16 13,27 4,12 8,24 11,36 4,12 8,25 11,37 0,3 1,5 3,8 1,3 2,6 4,10zm201 12c0,7 2,13 5,19 2,5 6,10 10,15 7,8 15,9 24,5 11,-4 19,-12 25,-21 1,-3 3,-6 4,-8 1,-2 3,-5 4,-7 7,-10 15,-13 25,-8 4,2 8,6 10,10 2,4 2,8 1,14 -6,16 -15,30 -28,43 -12,12 -28,19 -48,20 -15,2 -29,-3 -40,-14 -7,-7 -13,-13 -18,-20 -5,-7 -8,-15 -11,-25 -4,-14 -8,-28 -10,-43 -2,-14 -1,-28 2,-44 8,-35 29,-56 65,-63 5,-1 10,-1 15,0 5,1 10,2 14,3 15,5 27,16 36,31 9,15 13,30 11,46 -2,21 -13,35 -34,40 -5,1 -10,2 -15,2 -5,1 -10,1 -16,2 -4,0 -8,1 -12,1 -4,0 -9,0 -13,0 -2,0 -3,1 -3,1 -1,0 -2,0 -3,1zm-6 -42c9,0 18,-1 26,-1 8,-1 17,-1 26,-2 7,0 10,-4 9,-12 0,-3 -1,-6 -2,-8 0,-2 -1,-5 -3,-7 -8,-14 -19,-18 -34,-11 -9,4 -15,9 -18,16 -3,8 -4,16 -4,25zm256 -17c1,-8 2,-16 2,-24 0,-7 0,-15 0,-23l0 -13c4,-12 11,-18 22,-18 5,1 10,3 13,6 4,3 6,7 7,12 1,9 1,17 1,26 0,8 0,17 1,25 0,20 0,39 0,59 1,20 1,39 2,58 0,14 -7,22 -20,23 -5,1 -10,0 -15,-5 -5,-4 -8,-9 -9,-16 0,-6 -1,-12 -1,-18 0,-6 0,-13 0,-19 0,-5 -1,-10 -1,-14 0,-5 0,-10 0,-15 -9,1 -17,1 -25,1 -8,1 -17,1 -25,2 0,10 0,21 -1,31 0,9 0,19 -1,29 0,3 0,6 -1,9 0,3 -1,5 -2,7 -2,5 -5,9 -10,11 -5,2 -10,2 -15,1 -10,-2 -15,-9 -15,-21 0,-8 0,-17 0,-25 0,-8 0,-17 0,-25l0 -115c0,-6 1,-11 1,-14 2,-5 4,-9 9,-12 4,-3 9,-4 14,-4 11,2 18,8 19,20 1,7 1,13 1,19 0,7 0,13 0,20l0 23c5,0 9,1 13,1 4,0 8,0 13,0 3,0 7,0 10,0 4,0 9,-1 13,-2zm153 -27l-27 0c-3,-1 -6,-1 -9,-1 -2,0 -5,0 -9,0 -5,-2 -9,-4 -12,-8 -4,-3 -5,-8 -5,-13 -2,-12 4,-20 15,-23 2,-1 3,-1 3,-1 0,0 1,0 2,-1 16,-1 31,-2 46,-3 15,-1 30,-2 45,-4 4,0 7,0 9,0 3,0 6,1 9,1 6,1 11,3 15,8 3,4 5,9 5,14 0,11 -6,18 -18,22 -3,1 -7,2 -10,2 -4,0 -8,0 -12,1 0,13 -1,26 -1,38 0,13 -1,25 -1,38 0,11 -1,22 -1,33 0,10 0,21 0,31 0,5 0,9 -1,11 -1,14 -9,21 -22,21 -6,0 -11,-2 -16,-6 -4,-4 -6,-10 -6,-17 0,-16 0,-32 0,-47 1,-16 1,-32 1,-48 1,-8 1,-16 0,-24 0,-8 0,-16 0,-24zm-2624 429c0,-8 1,-16 1,-24 0,-8 1,-15 1,-23l0 -13c3,-12 10,-18 21,-18 6,1 10,3 14,6 3,3 5,7 6,12 1,8 1,17 1,26 0,8 0,17 1,25 0,19 0,39 1,59 0,19 0,39 1,58 0,14 -6,22 -20,23 -5,1 -10,0 -15,-5 -5,-4 -8,-9 -8,-16 -1,-6 -1,-12 -1,-18 0,-7 0,-13 0,-20 -1,-4 -1,-9 -1,-13 0,-5 0,-10 0,-15 -10,0 -18,1 -26,1 -8,1 -16,1 -25,2 0,10 0,21 0,30 -1,10 -1,20 -2,30 0,3 0,6 0,9 -1,3 -1,5 -3,7 -2,5 -5,9 -10,11 -4,2 -9,2 -15,1 -9,-2 -14,-9 -14,-21 -1,-9 -1,-17 -1,-25 0,-8 1,-17 1,-25l0 -115c0,-6 0,-11 1,-14 1,-5 4,-9 8,-12 4,-3 9,-5 14,-4 12,1 18,8 19,20 1,7 1,13 1,19 0,6 0,13 0,19l0 24c5,0 9,0 13,1 4,0 8,0 13,0 3,0 7,0 11,0 4,-1 8,-1 13,-2zm220 53c-5,7 -11,13 -15,18 -4,6 -9,11 -14,16 -4,4 -8,8 -13,12 -5,4 -10,8 -15,11 -15,9 -30,11 -44,4 -14,-6 -23,-18 -26,-36 -5,-25 -4,-48 1,-70 6,-22 19,-42 38,-59 17,-15 37,-24 60,-25 18,-1 33,5 47,17 4,3 7,6 11,9 3,3 7,7 10,11 2,3 4,7 5,11 2,4 3,7 3,11 1,8 1,15 0,22 0,7 0,14 0,21 0,11 0,23 0,34 1,12 1,23 1,34 0,4 0,7 0,11 1,4 1,8 1,12 -2,14 -10,21 -24,20 -12,0 -19,-7 -21,-20 -1,-8 -2,-16 -2,-23 0,-8 -1,-16 -2,-24 0,-2 0,-4 0,-6 0,-3 0,-7 -1,-11zm-82 15c18,-11 32,-24 42,-40 11,-16 22,-32 33,-48 -8,-10 -16,-13 -26,-9 -11,3 -19,7 -26,13 -13,12 -21,24 -23,39 -2,15 -2,30 0,45zm568 -55c4,2 7,4 10,5 3,1 5,3 8,4 15,9 25,20 28,35 4,15 0,29 -10,43 -10,13 -22,22 -36,27 -14,5 -30,8 -46,10 -5,0 -9,0 -14,-1 -5,0 -9,-1 -14,-1 -14,-2 -24,-5 -30,-11 -6,-6 -9,-16 -9,-29 0,-25 1,-50 1,-75 0,-25 0,-50 -1,-75 0,-18 9,-27 27,-27 13,0 26,1 39,3 15,2 28,8 39,16 11,9 17,20 20,34 1,7 1,15 -1,21 -2,7 -5,14 -11,21zm-70 80c17,4 33,4 48,-2 8,-3 15,-8 21,-14 9,-8 8,-14 -3,-19 -20,-11 -42,-14 -64,-9 0,8 0,15 0,22 -1,8 -1,15 -2,22zm0 -90c1,1 3,2 4,3 5,-3 10,-6 15,-8 5,-3 10,-5 15,-9 8,-6 8,-13 0,-20 -10,-8 -21,-11 -33,-7 -1,7 -1,14 -1,20 0,7 0,14 0,21zm161 33c0,-21 4,-39 11,-56 8,-17 20,-32 36,-45 13,-9 26,-14 41,-14 14,0 27,5 39,16 8,6 15,14 22,26 4,6 5,13 4,18 -1,6 -5,11 -10,14 -5,4 -11,4 -17,3 -7,-2 -12,-5 -16,-11 -1,-2 -2,-4 -4,-6 -1,-2 -3,-4 -5,-5 -7,-10 -17,-11 -27,-3 -12,9 -20,21 -24,35 -4,16 -4,32 0,50 1,7 4,13 9,18 5,5 10,8 18,9 16,4 29,0 40,-12 2,-2 4,-5 6,-7 1,-3 3,-6 5,-9 9,-12 19,-14 30,-7 10,6 14,16 10,29 -6,16 -16,28 -32,38 -16,11 -32,16 -48,16 -20,-1 -36,-6 -50,-16 -15,-9 -24,-22 -30,-40 -2,-7 -4,-14 -5,-20 -1,-7 -2,-14 -3,-21zm261 23c1,7 2,13 5,18 3,6 6,11 10,16 7,7 15,9 25,5 10,-4 18,-12 24,-22 2,-2 3,-5 4,-7 2,-2 3,-5 4,-7 7,-10 15,-13 25,-8 5,2 8,6 10,10 2,4 2,8 1,13 -5,17 -15,31 -27,43 -13,13 -29,19 -48,21 -16,2 -30,-3 -41,-14 -7,-7 -13,-13 -18,-20 -4,-7 -8,-15 -11,-25 -4,-14 -8,-28 -10,-43 -1,-14 -1,-29 2,-44 8,-35 29,-56 65,-63 5,-1 10,-1 15,-1 5,1 10,3 14,4 16,5 28,15 37,31 8,15 12,30 10,46 -2,21 -13,34 -34,40 -5,1 -10,2 -15,2 -5,0 -10,1 -15,2 -5,0 -9,1 -13,1 -4,0 -8,0 -13,0 -1,0 -2,1 -3,1 -1,0 -2,0 -3,1zm-6 -42c9,-1 18,-1 26,-1 8,-1 17,-1 26,-2 7,-1 10,-5 9,-12 0,-3 -1,-6 -2,-8 0,-2 -1,-5 -3,-8 -7,-13 -19,-17 -34,-10 -9,3 -15,9 -18,16 -2,8 -4,16 -4,25z"/>
    <path class="fil3" d="M2058 1269c3,-12 7,-23 10,-34 3,-10 6,-21 10,-32 4,-12 10,-25 17,-37 4,-7 11,-13 20,-18 7,-4 14,-5 22,-2 7,3 13,8 16,16 5,9 7,18 7,27 1,24 2,48 3,72 1,24 2,48 3,72 0,7 -2,13 -6,18 -4,4 -9,7 -15,8 -6,0 -12,-2 -16,-7 -4,-4 -6,-10 -7,-17 0,-16 -1,-33 -1,-49 0,-16 -1,-32 -2,-49 0,-3 -2,-6 -4,-9 -1,3 -2,5 -2,8 -1,2 -2,4 -2,6 -4,13 -8,25 -12,37 -3,12 -7,24 -11,36 -2,7 -5,14 -10,19 -4,4 -10,7 -18,7 -8,-1 -14,-4 -18,-8 -4,-5 -8,-11 -12,-18 -3,-9 -6,-18 -10,-26 -4,-8 -7,-17 -10,-26 -2,-3 -3,-5 -4,-8 -1,-2 -3,-4 -5,-7l-3 50c-1,8 -2,15 -3,21 0,7 0,14 -1,21 -2,16 -10,24 -24,23 -14,-2 -21,-11 -19,-28 2,-19 3,-38 4,-56 2,-19 3,-38 5,-57 1,-8 2,-17 3,-25 2,-8 3,-16 4,-24 1,-4 2,-7 3,-10 1,-3 3,-6 4,-9 5,-8 12,-12 20,-13 9,-1 16,3 23,10 5,7 9,16 12,27 4,12 8,24 12,36 3,12 7,24 10,37 1,3 2,5 3,8 2,2 3,6 4,10zm201 12c1,7 3,13 5,18 3,6 6,11 10,16 7,7 16,9 25,5 10,-4 19,-12 25,-22 1,-2 2,-5 4,-7 1,-2 2,-5 3,-7 7,-10 15,-13 25,-8 5,2 8,6 10,10 2,4 2,8 1,13 -5,17 -14,31 -27,43 -13,13 -29,19 -48,21 -16,2 -29,-3 -41,-14 -7,-7 -13,-13 -17,-20 -5,-7 -9,-15 -11,-25 -5,-14 -8,-28 -10,-43 -2,-14 -2,-29 2,-44 7,-35 28,-56 64,-63 5,-1 10,-1 15,-1 5,1 10,3 15,4 15,5 27,15 36,31 9,15 12,30 10,46 -2,21 -13,34 -33,40 -6,1 -11,2 -16,2 -5,0 -10,1 -15,2 -5,0 -9,1 -13,1 -4,0 -8,0 -13,0 -1,0 -2,1 -3,1 0,0 -1,0 -3,1zm-6 -42c10,-1 18,-1 27,-1 8,-1 17,-1 26,-2 6,-1 9,-5 9,-12 -1,-3 -2,-6 -2,-8 -1,-2 -2,-5 -3,-8 -8,-13 -20,-17 -35,-10 -8,3 -14,9 -17,16 -3,8 -5,16 -5,25zm210 122c0,10 0,20 0,28 -1,9 0,18 0,27 0,7 1,15 1,23 1,8 1,16 0,24 0,3 0,6 -1,10 -1,3 -3,6 -6,8 -4,6 -10,8 -18,7 -8,-1 -13,-5 -16,-12 -2,-2 -2,-5 -3,-7 0,-3 -1,-6 -1,-8 -2,-46 -3,-91 -5,-135 -1,-45 0,-90 5,-135 0,-6 0,-10 1,-12 2,-10 5,-16 9,-20 4,-4 11,-7 20,-8 35,-5 66,4 91,28 10,9 17,19 22,30 4,12 6,24 6,37 1,9 0,19 -1,28 -2,10 -4,19 -6,28 -5,21 -15,35 -31,44 -15,9 -30,14 -44,15 -4,0 -8,1 -11,0 -4,0 -8,0 -12,0zm-4 -45c7,0 13,-1 17,-1 5,0 9,0 13,-1 5,-1 10,-3 15,-6 4,-2 8,-6 10,-12 4,-11 7,-22 9,-34 1,-11 0,-23 -4,-34 -4,-11 -10,-19 -21,-25 -10,-6 -21,-7 -35,-4 0,19 -1,38 -2,57 0,19 -1,39 -2,60zm159 -24c-3,-16 -5,-32 -5,-47 1,-14 4,-29 10,-44 10,-26 28,-43 54,-51 8,-3 16,-3 25,-1 27,7 44,24 51,51 6,23 8,45 6,66 -1,22 -7,43 -17,64 -6,11 -13,19 -21,24 -9,6 -18,9 -27,10 -10,0 -20,-1 -29,-5 -10,-4 -18,-11 -25,-20 -6,-7 -11,-15 -14,-23 -3,-9 -6,-16 -8,-24zm94 -75c-1,-1 -1,-2 -1,-4 0,-2 -1,-4 -2,-6 -7,-13 -16,-17 -28,-9 -8,5 -13,12 -17,20 -6,15 -8,30 -7,44 2,14 6,29 13,42 1,3 3,6 6,9 4,4 8,6 13,6 5,0 9,-2 12,-8 2,-3 4,-6 5,-10 10,-26 12,-54 6,-84zm196 -31c-9,-1 -18,-1 -26,-1 -8,0 -17,1 -26,4l-3 50c-1,15 -1,30 -1,45 0,15 -1,30 -1,45 0,2 0,4 0,7 0,2 -1,4 -2,6 -4,13 -11,19 -23,18 -13,-2 -19,-10 -19,-23 0,-7 0,-15 0,-23 0,-8 0,-15 1,-23 1,-13 1,-27 1,-41 0,-14 0,-28 1,-42l3 -26c2,-17 11,-28 26,-34 4,-1 9,-3 14,-4 5,-1 10,-2 15,-2 8,-1 15,-2 23,-1 8,0 16,0 23,0 20,0 32,10 36,30 2,10 3,20 3,31 -1,22 -2,42 -2,63 -1,20 -2,41 -2,62l0 7c-2,15 -10,22 -23,22 -13,-2 -20,-9 -21,-23 0,-7 0,-14 1,-22 0,-7 0,-14 0,-21 1,-15 1,-29 2,-44 0,-15 0,-29 1,-44 0,-2 0,-5 0,-7 -1,-3 -1,-6 -1,-9zm140 175c0,10 0,20 -1,28 0,9 0,18 1,27 0,7 0,15 1,23 0,8 0,16 0,24 0,3 -1,6 -2,10 -1,3 -3,6 -5,8 -5,6 -11,8 -18,7 -8,-1 -13,-5 -17,-12 -1,-2 -2,-5 -2,-7 -1,-3 -1,-6 -2,-8 -1,-46 -3,-91 -4,-135 -2,-45 0,-90 4,-135 0,-6 1,-10 1,-12 2,-10 5,-16 10,-20 4,-4 11,-7 20,-8 35,-5 65,4 91,28 10,9 17,19 21,30 4,12 7,24 7,37 0,9 0,19 -2,28 -2,10 -3,19 -5,28 -6,21 -16,35 -31,44 -16,9 -31,14 -44,15 -4,0 -8,1 -12,0 -3,0 -7,0 -11,0zm-4 -45c6,0 12,-1 17,-1 4,0 9,0 12,-1 6,-1 11,-3 15,-6 5,-2 8,-6 10,-12 5,-11 8,-22 9,-34 1,-11 0,-23 -4,-34 -3,-11 -10,-19 -20,-25 -10,-6 -22,-7 -35,-4 -1,19 -2,38 -2,57 -1,19 -2,39 -2,60zm202 -49c6,-11 12,-22 17,-33 6,-10 12,-21 18,-33 4,-6 9,-12 13,-18 5,-6 10,-12 14,-17 4,-5 9,-8 14,-10 4,-2 10,-2 15,1 12,4 18,12 18,26l0 26c-1,20 -1,40 -1,60 0,20 -1,39 -1,59 0,2 0,4 0,7 0,2 -1,4 -1,7 -2,7 -5,12 -10,15 -5,4 -11,5 -17,4 -13,-2 -19,-9 -19,-24l0 -40c0,-6 0,-12 0,-18 -1,-6 -2,-13 -4,-20 -1,3 -3,6 -4,9 -2,2 -4,5 -6,9 -5,9 -10,18 -16,28 -6,9 -11,19 -17,28 -6,7 -11,13 -18,17 -9,5 -18,6 -27,2 -8,-3 -14,-10 -16,-21 -2,-15 -2,-29 -2,-40 1,-22 2,-42 2,-62 1,-20 2,-41 2,-62 1,-3 1,-5 1,-8 0,-2 1,-4 1,-6 4,-13 12,-18 24,-17 5,1 10,3 14,6 4,3 6,8 6,13 1,7 1,15 0,22 0,8 0,15 -1,22 0,12 0,23 -1,34 0,11 0,22 -1,33 1,0 1,0 1,0 1,1 1,1 2,1zm247 16c-5,-2 -9,-1 -12,1 -3,2 -5,5 -7,8 -6,10 -11,19 -15,29 -4,10 -9,19 -16,28 -9,11 -19,14 -31,9 -12,-7 -15,-17 -9,-30 4,-9 9,-18 14,-26 5,-8 10,-17 14,-26 -3,-4 -6,-7 -10,-9 -3,-3 -6,-6 -9,-9 -8,-12 -12,-25 -11,-40 1,-15 6,-28 16,-38 13,-13 26,-24 41,-30 15,-7 32,-9 52,-6 13,3 22,7 26,12 5,6 8,15 9,29 0,15 0,30 0,43 1,13 1,26 0,38 0,12 0,23 -1,35 -1,11 -2,23 -4,36 -2,15 -10,22 -25,21 -6,-1 -11,-3 -15,-7 -4,-4 -6,-9 -6,-16 0,-7 -1,-14 -1,-22 0,-7 0,-14 0,-22l0 -8zm6 -95c-10,-2 -21,1 -31,7 -10,5 -17,12 -20,19 -2,6 -2,11 1,16 3,5 7,8 14,9 5,1 12,0 20,-1 8,-2 13,-6 13,-13 1,-6 2,-12 2,-18 0,-6 1,-13 1,-19zm154 7l-27 0c-3,-1 -6,-1 -9,-1 -2,0 -5,0 -9,0 -5,-2 -9,-4 -12,-8 -4,-3 -5,-8 -5,-13 -2,-12 4,-20 15,-23 2,-1 3,-1 3,-1 0,0 1,0 2,-1 16,-1 31,-2 46,-3 15,-1 30,-3 45,-4 4,0 7,0 9,0 3,0 6,0 9,1 6,1 11,3 15,8 3,4 5,9 5,14 0,11 -6,18 -18,22 -3,1 -7,2 -10,2 -4,0 -8,0 -12,1 0,13 -1,26 -1,38 0,13 -1,25 -1,38 0,11 -1,22 -1,32 0,11 0,22 0,32 0,5 0,9 0,11 -2,14 -10,21 -23,21 -6,0 -11,-2 -16,-6 -4,-4 -6,-10 -6,-17 0,-16 0,-32 0,-47 1,-16 1,-32 1,-48 1,-8 1,-16 0,-24 0,-8 0,-16 0,-24zm180 72c6,-11 12,-22 18,-33 5,-10 11,-21 18,-33 4,-6 8,-12 13,-18 4,-6 9,-12 14,-17 4,-5 8,-8 13,-10 5,-2 10,-2 15,1 12,4 18,12 18,26l0 26c-1,20 -1,40 -1,60 0,20 0,39 -1,59 0,2 0,4 0,7 0,2 0,4 -1,7 -1,7 -4,12 -10,15 -5,4 -11,5 -17,4 -12,-2 -18,-9 -18,-24l0 -40c0,-6 -1,-12 -1,-18 0,-6 -1,-13 -3,-20 -2,3 -3,6 -5,9 -1,2 -3,5 -5,9 -5,9 -11,18 -17,28 -5,9 -11,19 -17,28 -5,7 -11,13 -18,17 -9,5 -18,6 -26,2 -9,-3 -14,-10 -16,-21 -2,-15 -3,-29 -2,-40 0,-22 1,-42 2,-62 0,-20 1,-41 2,-62 0,-3 1,-5 1,-8 0,-2 0,-4 1,-6 3,-13 11,-18 24,-17 5,1 9,3 13,6 4,3 6,8 6,13 1,7 1,15 1,22 -1,8 -1,15 -2,22 0,12 0,23 0,34 -1,11 -1,22 -2,33 1,0 1,0 2,0 0,1 1,1 1,1zm248 16c-5,-2 -10,-1 -12,1 -3,2 -6,5 -8,8 -6,10 -11,19 -15,29 -4,10 -9,19 -16,28 -8,11 -18,14 -30,9 -13,-7 -16,-17 -9,-30 4,-9 8,-18 13,-26 5,-8 10,-17 15,-26 -4,-4 -7,-7 -10,-9 -4,-3 -7,-6 -9,-9 -9,-12 -13,-25 -12,-40 1,-15 7,-28 17,-38 12,-13 26,-24 41,-30 15,-7 32,-9 52,-6 13,3 22,7 26,12 4,6 7,15 8,29 0,15 0,30 1,43 0,13 0,26 0,38 -1,12 -1,23 -2,35 0,11 -2,23 -4,36 -2,15 -10,22 -24,21 -6,-1 -11,-3 -15,-7 -4,-4 -6,-9 -6,-16 -1,-7 -1,-14 -1,-22 0,-7 0,-14 0,-22l0 -8zm6 -95c-11,-2 -21,1 -31,7 -11,5 -17,12 -21,19 -2,6 -1,11 1,16 3,5 8,8 14,9 5,1 12,0 20,-1 9,-2 13,-6 14,-13 0,-6 1,-12 1,-18 1,-6 1,-13 2,-19zm-3519 586c1,-10 1,-20 1,-30 0,-11 1,-21 2,-32 2,-18 9,-32 21,-42 12,-10 27,-14 45,-12 12,1 23,3 31,7 6,2 11,5 13,10 3,5 4,10 4,16 0,10 -3,16 -11,21 -7,4 -15,4 -23,-1 -3,-1 -6,-3 -8,-4 -3,-2 -6,-3 -9,-4 -11,-2 -16,3 -17,14 -1,9 -1,18 -2,27 -1,9 -1,18 0,28 1,15 1,29 2,44 1,14 3,28 4,44 1,14 -5,23 -18,26 -6,2 -12,0 -18,-3 -5,-4 -8,-9 -10,-16 -1,-7 -2,-14 -3,-20 0,-7 -1,-14 -2,-21 0,-9 -1,-17 -1,-25 0,-9 0,-18 -1,-27zm293 21c-6,8 -11,14 -16,19 -4,5 -9,11 -14,16 -4,4 -8,8 -13,12 -5,4 -10,7 -15,11 -15,9 -30,10 -44,4 -14,-6 -23,-18 -26,-36 -5,-25 -4,-49 1,-71 6,-22 19,-41 39,-59 16,-15 36,-23 59,-24 18,-1 34,5 47,16 4,4 7,7 11,10 3,3 7,6 10,10 2,4 4,7 6,11 1,4 2,8 2,12 1,7 1,14 1,21 -1,7 -1,14 -1,22 0,11 0,22 1,34 0,11 0,23 0,34 0,3 0,7 1,11 0,4 0,8 0,12 -2,14 -10,21 -24,19 -12,0 -19,-6 -20,-19 -2,-8 -3,-16 -3,-24 0,-7 -1,-15 -1,-23 0,-2 0,-4 0,-7 0,-2 -1,-6 -1,-11zm-83 16c18,-11 32,-25 43,-40 10,-16 21,-32 32,-48 -8,-10 -16,-14 -26,-10 -11,3 -19,8 -26,14 -13,11 -21,24 -23,39 -2,14 -2,29 0,45zm305 -101l-39 0 0 21c-1,12 -1,24 -1,35 1,12 0,23 -1,34 -1,9 -3,18 -6,26 -3,9 -6,17 -9,26 -1,4 -4,7 -7,11 -4,4 -7,7 -11,10 -4,4 -10,6 -15,6 -6,1 -11,0 -16,-2 -6,-2 -10,-5 -14,-9 -4,-3 -7,-8 -8,-13 -3,-8 -2,-15 2,-22 5,-6 11,-9 20,-10 2,0 3,0 5,0 2,1 4,1 6,1 4,-9 6,-19 7,-28 2,-10 2,-20 2,-29 0,-9 0,-18 0,-26 0,-9 0,-17 -1,-26 0,-3 0,-6 0,-8 0,-3 1,-5 1,-9 2,-18 11,-28 27,-30 12,-2 24,-2 36,-3 12,0 24,0 36,1 8,0 15,2 20,8 5,5 9,11 10,19 2,14 3,26 2,37 -1,21 -3,42 -4,62 -1,21 -3,42 -4,63 0,4 0,7 -1,9 -2,11 -9,17 -22,18 -5,0 -10,-1 -14,-5 -4,-3 -6,-7 -8,-12 -1,-6 -2,-14 0,-23 1,-19 2,-37 3,-55 2,-17 3,-36 4,-54 1,-3 1,-7 1,-10 0,-4 -1,-8 -1,-13zm137 91c1,7 3,14 5,19 3,5 6,11 10,16 7,7 16,9 25,5 10,-5 19,-12 24,-22 2,-3 3,-5 4,-7 2,-3 3,-5 4,-8 7,-10 15,-12 25,-8 5,3 8,6 10,10 2,4 2,9 1,14 -5,17 -14,31 -27,43 -13,12 -29,19 -48,20 -16,2 -30,-2 -41,-14 -7,-6 -13,-13 -18,-20 -4,-7 -8,-15 -10,-24 -5,-15 -8,-29 -10,-43 -2,-14 -2,-29 2,-44 7,-35 28,-56 64,-63 5,-2 10,-2 15,-1 5,1 10,2 15,4 15,5 27,15 36,30 9,15 12,31 10,47 -2,21 -13,34 -33,39 -6,2 -11,2 -16,3 -5,0 -10,1 -15,1 -5,1 -9,1 -13,1 -4,0 -8,0 -13,0 -1,1 -2,1 -3,1 0,0 -1,1 -3,1zm-6 -41c9,-1 18,-1 26,-2 9,0 17,-1 27,-1 6,-1 9,-5 9,-12 -1,-3 -2,-6 -2,-9 -1,-2 -2,-4 -3,-7 -8,-14 -20,-17 -35,-11 -9,4 -14,10 -17,17 -3,7 -5,15 -5,25z"/>
    <path class="fil3" d="M1424 1881c0,11 0,20 0,29 -1,9 0,18 0,27 0,7 1,15 1,23 1,7 1,15 0,23 0,4 0,7 -1,10 -1,3 -3,6 -6,9 -4,5 -10,7 -18,6 -8,-1 -13,-4 -16,-11 -2,-3 -2,-5 -3,-8 0,-2 -1,-5 -1,-8 -2,-45 -3,-90 -5,-135 -1,-44 0,-89 5,-135 0,-5 0,-9 1,-12 2,-9 5,-15 9,-19 4,-4 11,-7 20,-8 35,-6 66,4 91,27 10,10 17,20 22,31 4,11 6,23 6,37 1,9 0,18 -1,28 -2,9 -4,19 -6,28 -5,20 -15,35 -31,44 -15,9 -30,14 -44,14 -4,1 -8,1 -11,1 -4,0 -8,-1 -12,-1zm-4 -44c7,-1 12,-1 17,-1 5,0 9,0 13,-1 5,-1 10,-3 15,-6 4,-3 8,-7 10,-12 4,-11 7,-23 9,-34 1,-12 0,-23 -4,-34 -4,-11 -10,-20 -21,-25 -10,-6 -22,-8 -35,-5 0,19 -1,38 -2,57 0,20 -1,40 -2,61zm200 -36c1,7 3,14 5,19 3,5 6,11 10,16 7,7 16,9 25,5 10,-5 19,-12 25,-22 1,-3 2,-5 4,-7 1,-3 2,-5 4,-8 6,-10 14,-12 24,-8 5,3 8,6 10,10 2,4 3,9 1,14 -5,17 -14,31 -27,43 -13,12 -29,19 -48,20 -16,2 -29,-2 -41,-14 -7,-6 -13,-13 -17,-20 -5,-7 -9,-15 -11,-24 -5,-15 -8,-29 -10,-43 -2,-14 -1,-29 2,-44 7,-35 29,-56 64,-63 5,-2 11,-2 15,-1 5,1 10,2 15,4 15,5 27,15 36,30 9,15 12,31 10,47 -2,21 -13,34 -33,39 -6,2 -11,2 -16,3 -5,0 -10,1 -15,1 -5,1 -9,1 -13,1 -4,0 -8,0 -13,0 -1,1 -2,1 -3,1 0,0 -1,1 -3,1zm-6 -41c10,-1 18,-1 27,-2 8,0 17,-1 26,-1 6,-1 9,-5 9,-12 -1,-3 -2,-6 -2,-9 -1,-2 -2,-4 -3,-7 -8,-14 -20,-17 -35,-11 -8,4 -14,10 -17,17 -3,7 -5,15 -5,25zm210 27c6,-11 12,-22 18,-32 5,-11 11,-22 18,-33 4,-7 8,-13 13,-19 5,-6 9,-11 14,-17 4,-4 8,-7 13,-9 5,-2 10,-2 15,1 12,4 18,12 18,25l0 27c0,20 -1,40 -1,59 0,20 0,40 -1,60 0,2 0,4 0,6 0,2 0,5 -1,8 -1,6 -4,11 -10,15 -5,4 -11,5 -16,3 -13,-1 -19,-9 -19,-23l0 -40c0,-6 0,-12 -1,-18 0,-7 -1,-13 -3,-21 -2,4 -3,7 -5,9 -1,3 -3,6 -5,9 -5,10 -11,19 -16,28 -6,10 -12,19 -18,29 -5,7 -11,13 -18,16 -9,6 -18,7 -26,3 -9,-4 -14,-11 -16,-21 -2,-15 -3,-29 -2,-41 1,-21 1,-42 2,-62 1,-20 1,-40 2,-62 1,-2 1,-5 1,-7 0,-2 0,-4 1,-6 3,-13 11,-19 24,-17 5,0 10,2 13,6 4,3 6,7 6,13 1,7 1,14 1,22 0,7 -1,15 -2,22 0,11 0,22 0,33 0,11 -1,22 -2,33 1,0 2,1 2,1 0,0 1,0 1,0zm484 -58c4,2 8,4 11,5 3,1 6,3 9,4 7,5 12,9 16,14 3,4 4,8 4,13 -1,4 -3,8 -6,11 -3,4 -6,7 -11,9 -4,2 -8,1 -13,-1 -7,-3 -14,-6 -21,-9 -7,-3 -14,-6 -20,-10 -24,-14 -28,-33 -11,-56l50 -65c1,-1 3,-3 5,-5 1,-2 3,-4 5,-5 9,-7 19,-7 28,0 9,9 11,19 5,30 -4,5 -7,10 -11,14 -3,4 -7,9 -11,14 -5,6 -9,12 -14,18 -5,5 -9,12 -15,19zm80 -18c6,4 11,7 15,10 5,3 10,7 15,10 13,8 18,17 13,29 -2,6 -6,11 -12,15 -7,3 -13,3 -18,0 -11,-7 -22,-14 -32,-22 -10,-7 -20,-15 -30,-23 -4,-3 -6,-7 -6,-12 1,-5 2,-10 5,-15 7,-12 14,-23 24,-33 9,-10 19,-20 30,-29 5,-4 10,-6 15,-5 5,1 10,3 14,7 9,9 9,19 0,31 -2,2 -4,5 -6,7 -2,2 -4,3 -6,5 -3,4 -5,7 -8,9 -2,3 -5,6 -8,8 -1,2 -3,4 -5,8zm149 -123l-3 17c-1,9 -1,17 -1,26 0,8 0,17 -1,26 5,0 10,0 15,-1 5,0 9,0 14,1 4,0 8,0 12,-1 4,0 8,0 11,2 14,4 20,14 18,27 -3,12 -12,18 -25,18l-34 0c-1,0 -3,1 -5,1 -2,1 -4,2 -6,2 0,4 0,7 0,10 -1,3 -1,7 -1,10 0,17 0,38 0,62 -1,24 -1,45 -1,62 0,8 -2,15 -6,21 -5,6 -10,8 -18,7 -15,0 -22,-9 -22,-28 0,-21 0,-46 0,-74 0,-29 1,-54 2,-75 0,-22 1,-44 1,-66 0,-23 1,-44 3,-66 0,-15 7,-24 23,-27 7,-1 13,-1 20,-1 7,-1 14,-1 21,-2 8,-1 15,-1 23,-1 8,0 15,-1 23,-2 19,-1 29,6 30,21 1,7 0,13 -5,18 -5,4 -12,7 -21,8 -9,0 -18,1 -27,1 -9,0 -18,1 -27,2 -3,0 -8,0 -13,2zm309 117c-2,20 -4,40 -7,59 -3,20 -9,39 -18,57 -4,9 -8,18 -14,25 -5,8 -12,14 -21,20 -17,11 -34,14 -51,10 -17,-4 -30,-15 -37,-33 -9,-19 -15,-38 -18,-60 -6,-33 -10,-67 -11,-100 -1,-34 0,-68 4,-102 0,-4 1,-8 1,-12 1,-4 1,-8 3,-12 4,-17 14,-23 28,-20 14,3 19,13 17,29 -6,34 -9,68 -8,102 1,33 4,67 9,102 2,14 5,27 9,39 1,5 3,9 5,13 1,5 5,8 12,9 7,1 12,0 15,-4 3,-4 6,-8 9,-13 2,-3 5,-7 7,-11 2,-4 3,-8 4,-12 3,-15 6,-30 10,-45 4,-15 6,-30 7,-45 3,-21 5,-41 6,-62 2,-20 3,-40 4,-61 0,-2 0,-3 1,-3 0,-1 0,-2 0,-3 5,-15 14,-21 27,-19 13,2 19,10 19,24 -1,13 -2,26 -2,38 -1,13 -2,25 -3,38 -1,9 -2,18 -3,26 -1,8 -3,17 -4,26zm140 -114c0,3 0,6 -1,10 0,4 -1,7 -1,10 -3,38 -5,75 -6,111 -1,36 -1,73 -1,111 0,5 0,10 0,15 -2,12 -9,18 -22,20 -5,0 -10,-2 -14,-6 -5,-4 -7,-8 -9,-13 0,-4 -1,-8 -1,-13 0,-73 2,-146 6,-218 1,-4 1,-9 1,-13 0,-4 1,-9 1,-14l-29 0c-4,0 -9,0 -13,0 -5,0 -9,1 -13,1 -7,-2 -13,-5 -17,-9 -4,-4 -6,-10 -5,-16 1,-6 3,-11 7,-15 4,-4 10,-6 17,-6 24,-1 48,-1 72,-1 25,-1 48,-1 72,-2 9,0 15,2 20,6 5,5 7,10 7,17 -1,14 -10,22 -27,24l-22 0c-3,0 -6,0 -10,0 -4,0 -8,0 -12,1zm284 114c-2,20 -4,40 -7,59 -3,20 -9,39 -18,57 -4,9 -8,18 -14,25 -5,8 -12,14 -21,20 -17,11 -34,14 -51,10 -17,-4 -30,-15 -38,-33 -8,-19 -14,-38 -17,-60 -6,-33 -10,-67 -11,-100 -2,-34 0,-68 4,-102 0,-4 1,-8 1,-12 1,-4 1,-8 3,-12 4,-17 14,-23 28,-20 14,3 19,13 17,29 -6,34 -9,68 -8,102 1,33 4,67 9,102 2,14 5,27 9,39 1,5 3,9 5,13 1,5 5,8 12,9 7,1 11,0 15,-4 3,-4 6,-8 9,-13 2,-3 5,-7 7,-11 2,-4 3,-8 4,-12 3,-15 6,-30 10,-45 4,-15 6,-30 7,-45 3,-21 5,-41 6,-62 2,-20 3,-40 4,-61 0,-2 0,-3 1,-3 0,-1 0,-2 0,-3 5,-15 14,-21 27,-19 12,2 19,10 19,24 -1,13 -2,26 -2,38 -1,13 -2,25 -3,38 -1,9 -2,18 -3,26 -2,8 -3,17 -4,26zm139 31c-8,1 -14,3 -21,4 -6,1 -13,3 -20,5 0,6 0,13 0,20 0,6 0,13 1,20 1,10 1,20 2,30 1,9 2,19 3,29 1,16 -5,25 -20,26 -6,2 -12,0 -17,-4 -5,-4 -8,-10 -9,-17 -1,-17 -2,-35 -3,-52 -2,-17 -2,-34 -2,-51 -1,-30 -1,-59 0,-89 0,-29 1,-59 2,-88 0,-2 0,-3 0,-4 0,-2 0,-3 1,-4 1,-17 9,-26 24,-27 11,-1 23,-2 34,-2 12,0 23,0 35,1 11,1 22,4 30,9 9,5 16,12 21,19 6,8 10,16 12,25 3,9 4,17 4,25 -2,15 -4,30 -9,43 -4,14 -11,27 -20,38 -7,10 -8,19 -4,29 7,19 14,38 21,56 6,19 13,38 21,57 0,2 1,4 2,6 0,2 1,4 1,6 2,13 -3,21 -15,24 -11,4 -19,1 -26,-9 -1,-3 -2,-6 -3,-8 -1,-3 -3,-6 -4,-8 -6,-16 -12,-32 -17,-47 -6,-16 -12,-31 -17,-46 -2,-3 -3,-6 -4,-8 -1,-3 -2,-5 -3,-8zm-37 -158c-1,21 -1,41 -2,60 -1,19 -1,38 -2,57 2,0 4,1 5,1 1,0 3,0 4,-1 9,0 18,-4 26,-11 8,-7 16,-15 21,-25 6,-10 11,-21 13,-31 3,-11 3,-21 1,-30 -3,-11 -10,-18 -19,-18 -8,-2 -15,-2 -23,-2 -7,0 -15,0 -24,0zm174 40c8,-34 26,-60 56,-77 14,-7 29,-9 45,-5 16,4 28,13 36,27 13,23 22,49 26,77 3,21 5,45 6,73 0,28 -1,52 -5,72 -5,23 -15,45 -29,66 -9,12 -19,20 -31,25 -12,5 -25,5 -37,1 -11,-3 -20,-8 -27,-15 -6,-7 -12,-15 -16,-24 -14,-32 -24,-68 -28,-108 -4,-39 -3,-76 4,-112zm53 161c0,4 1,8 3,14 1,6 3,12 5,18 3,5 5,10 9,15 3,5 7,7 12,7 5,1 10,-1 14,-5 3,-4 6,-9 9,-14 2,-6 4,-12 6,-18 1,-6 3,-10 5,-14 7,-30 9,-62 6,-95 -3,-33 -10,-64 -21,-92 -2,-7 -7,-12 -13,-13 -6,-2 -11,0 -17,6 -11,9 -18,22 -22,41 -3,18 -5,37 -5,56 0,20 1,39 3,56 3,18 4,31 6,38zm282 -56c-3,-3 -6,-6 -9,-9 -3,-2 -6,-5 -10,-9 3,11 2,21 -2,27 -4,7 -9,14 -16,21 -7,7 -14,14 -20,22 -7,8 -14,15 -20,23 -4,6 -9,9 -16,11 -7,2 -13,1 -18,-3 -5,-4 -8,-9 -9,-15 -1,-6 1,-13 6,-20 6,-7 11,-13 17,-20 6,-6 12,-12 17,-19 1,-2 3,-4 4,-6 2,-2 4,-4 7,-7 -6,-5 -11,-10 -16,-14 -5,-5 -11,-9 -16,-14 -3,-2 -5,-5 -8,-7 -2,-1 -4,-4 -6,-6 -3,-6 -4,-11 -4,-18 1,-6 4,-11 9,-15 11,-8 22,-7 31,4 3,3 7,6 10,10 4,3 8,7 13,11 0,-4 1,-7 1,-9 0,-3 0,-5 2,-7 2,-7 7,-13 14,-16 7,-2 13,-1 19,4 11,9 21,19 31,28 10,10 19,19 29,29 9,10 11,21 5,34 -12,25 -27,47 -46,65 -7,7 -14,9 -23,6 -8,-2 -13,-7 -15,-14 -2,-8 0,-15 5,-22 6,-8 11,-15 17,-22 5,-7 11,-15 17,-23zm-2927 494c3,2 6,4 9,5 3,1 6,3 8,4 16,8 25,20 29,35 3,15 0,29 -11,43 -10,13 -22,22 -36,27 -14,5 -29,8 -46,10 -4,0 -9,-1 -14,-1 -4,0 -9,-1 -14,-1 -13,-2 -23,-5 -29,-11 -6,-6 -9,-16 -9,-29 0,-25 0,-50 0,-75 1,-25 0,-50 -1,-75 0,-18 9,-27 28,-27 12,0 25,1 38,3 15,2 28,7 39,16 11,9 18,20 21,33 1,8 1,16 -1,22 -2,7 -6,14 -11,21zm-71 80c18,4 33,3 48,-2 8,-3 16,-8 22,-14 8,-8 7,-14 -3,-20 -21,-10 -42,-13 -65,-8 0,7 0,15 0,22 0,8 -1,15 -2,22zm0 -90c2,1 3,2 4,3 6,-3 11,-6 16,-8 5,-3 9,-5 14,-9 9,-6 9,-13 0,-21 -10,-7 -21,-10 -33,-6 0,7 -1,14 -1,20 0,7 0,14 0,21zm508 76l64 0c3,0 5,0 8,0 2,-1 4,0 6,0 11,2 17,9 17,22 0,5 -1,10 -4,14 -3,5 -7,7 -12,9 -3,0 -6,1 -9,1 -2,0 -5,0 -9,0 -15,1 -30,2 -46,4 -15,1 -31,2 -46,4 -5,0 -10,0 -16,-1 -5,-1 -9,-4 -12,-10 -6,-10 -6,-21 1,-32 6,-11 13,-22 19,-34 6,-12 13,-23 20,-34 8,-13 16,-27 25,-40 8,-13 15,-27 21,-42 4,-13 7,-26 9,-39 1,-20 -8,-27 -26,-21 -9,4 -17,8 -24,14 -6,5 -11,14 -14,25 -3,16 -12,23 -25,20 -14,-2 -19,-12 -17,-29 0,-3 0,-7 2,-12 2,-9 7,-18 14,-26 6,-8 14,-15 22,-22 9,-6 18,-11 28,-14 9,-3 18,-5 28,-4 17,2 31,10 43,23 11,13 16,32 13,57 -1,16 -5,31 -11,46 -7,14 -14,28 -22,41 -5,9 -10,19 -16,28 -6,9 -12,18 -18,28 -2,3 -4,7 -6,11 -2,4 -4,9 -7,13zm139 -101c0,-14 2,-27 3,-41 2,-14 5,-28 11,-41 4,-10 8,-20 12,-27 11,-18 25,-27 41,-30 17,-2 33,1 48,10 20,11 34,25 43,42 9,17 15,37 18,58 6,41 -1,81 -20,119 -3,8 -7,15 -12,21 -4,7 -9,13 -15,19 -13,14 -28,22 -45,21 -17,0 -32,-8 -46,-23 -12,-15 -21,-32 -26,-51 -2,-6 -3,-11 -4,-15 -2,-5 -3,-10 -3,-15 -2,-8 -2,-16 -3,-23 0,-8 -1,-16 -2,-24zm132 -4c0,-4 -1,-9 -1,-13 0,-4 0,-9 -2,-13 -1,-6 -2,-11 -3,-15 -1,-5 -3,-9 -6,-14 -2,-5 -5,-9 -8,-13 -3,-5 -6,-8 -10,-12 -9,-6 -17,-8 -25,-6 -8,2 -14,8 -18,18 -1,3 -3,7 -4,11 -1,4 -2,8 -3,11 -3,17 -5,34 -5,50 -1,17 1,34 5,51 1,6 3,13 6,19 3,6 6,12 9,18 11,20 22,21 35,4 11,-14 18,-29 22,-46 4,-16 7,-32 8,-50z"/>
    <path class="fil3" d="M1805 2136c-2,2 -4,5 -7,9 -3,5 -6,7 -8,9 -10,9 -21,9 -30,1 -5,-4 -8,-9 -8,-14 -1,-5 1,-11 5,-16 15,-21 31,-43 49,-64 7,-10 16,-14 28,-10 12,3 18,12 18,26 0,15 -1,29 -1,44 0,14 -1,28 -1,42 -1,20 -2,40 -2,60 0,21 0,41 0,61 0,4 0,7 0,9 0,3 1,6 2,9 0,7 -2,14 -6,19 -4,6 -10,9 -17,10 -7,0 -13,-1 -18,-6 -5,-4 -7,-10 -7,-18 0,-24 0,-48 1,-72 0,-24 0,-48 0,-71 1,-4 1,-8 1,-13 0,-6 0,-11 1,-15zm132 47c-11,-10 -18,-22 -21,-34 -3,-13 -4,-25 -1,-36 3,-12 8,-23 16,-33 8,-10 18,-18 30,-24 9,-6 18,-9 28,-12 9,-2 19,-2 30,-1 5,1 10,3 15,5 4,3 8,6 11,12 0,2 2,4 5,7 15,18 16,38 3,59 -5,8 -10,16 -16,23 -5,8 -11,16 -18,23 3,2 5,3 7,5 3,2 5,3 8,5 19,14 30,30 34,50 4,20 0,38 -10,55 -6,10 -14,18 -22,23 -9,5 -18,10 -29,13 -14,4 -31,5 -49,4 -10,-1 -20,-4 -29,-10 -9,-6 -17,-14 -23,-23 -6,-9 -9,-20 -10,-32 0,-12 3,-25 11,-38 4,-7 9,-14 14,-20 5,-7 11,-13 16,-21zm42 23c-5,7 -10,13 -15,19 -6,6 -11,12 -15,20 -6,9 -7,17 -3,24 4,8 11,12 23,13 13,1 27,-2 39,-9 9,-6 15,-13 16,-23 1,-10 -3,-19 -12,-26 -5,-4 -10,-7 -15,-10 -6,-2 -12,-5 -18,-8zm20 -120c-6,0 -13,2 -20,8 -6,6 -11,13 -15,21 -4,8 -6,15 -5,22 0,7 5,11 14,13 4,-1 9,-5 15,-11 6,-7 11,-14 16,-22 4,-8 6,-15 7,-21 0,-6 -4,-10 -12,-10zm391 149c1,-9 1,-19 1,-30 0,-10 1,-21 2,-32 1,-18 8,-32 20,-42 12,-10 27,-14 45,-12 13,1 23,4 32,7 6,2 10,5 13,10 2,5 4,11 4,17 0,9 -4,16 -11,20 -7,4 -15,4 -24,-1 -3,-1 -5,-2 -8,-4 -2,-2 -5,-3 -9,-3 -10,-2 -16,2 -17,13 0,10 -1,19 -2,28 0,8 0,18 0,27 1,15 2,30 3,44 1,14 2,29 3,44 2,14 -4,23 -17,27 -7,1 -13,0 -18,-4 -5,-4 -9,-9 -10,-15 -1,-8 -2,-14 -3,-21 -1,-7 -1,-14 -2,-21 -1,-8 -1,-17 -1,-25 0,-8 0,-17 -1,-27zm147 39c-4,-16 -5,-32 -5,-47 1,-14 4,-29 10,-44 10,-26 28,-43 54,-51 8,-3 16,-3 25,-1 27,7 44,24 51,51 5,23 7,45 6,66 -1,22 -7,43 -18,64 -5,10 -12,19 -20,24 -9,6 -18,9 -28,10 -9,0 -19,-1 -28,-5 -10,-4 -18,-11 -26,-20 -6,-7 -10,-15 -13,-23 -4,-9 -6,-16 -8,-24zm94 -75c-1,-1 -1,-3 -1,-4 0,-2 -1,-4 -2,-6 -7,-14 -16,-17 -28,-10 -8,6 -14,13 -17,21 -6,15 -8,30 -7,44 2,14 6,28 13,42 1,3 3,6 6,9 3,4 7,6 12,6 5,0 9,-3 13,-8 2,-3 3,-6 5,-10 10,-26 12,-54 6,-84zm258 95c10,4 17,9 20,13 3,5 4,13 3,22 -1,9 -6,15 -14,19 -8,4 -15,2 -23,-5 -1,-2 -3,-3 -4,-4 -2,-1 -4,-1 -6,-1 -13,0 -27,0 -41,0 -14,0 -28,1 -42,2 -5,0 -9,0 -11,1 -4,0 -8,2 -10,8 -5,11 -12,15 -22,13 -11,-2 -16,-9 -17,-21 -1,-12 0,-20 3,-24 4,-5 11,-9 23,-12 2,-1 4,-2 6,-2 2,0 5,-1 7,-2 1,-13 2,-26 2,-38 1,-12 2,-25 2,-38 1,-5 2,-11 2,-16 0,-5 1,-10 1,-16 4,-25 15,-45 34,-59 17,-12 34,-15 51,-9 17,6 29,19 33,39 1,7 2,14 3,20 0,7 0,14 0,21 0,13 0,27 0,40 0,14 0,27 -1,41 0,4 0,6 1,8zm-41 2c0,-1 0,-2 0,-3 0,-1 1,-2 1,-3 0,-16 0,-32 0,-48 0,-16 1,-32 1,-48 0,-3 0,-7 0,-11 0,-4 -1,-7 -2,-11 -4,-10 -10,-13 -19,-7 -13,7 -20,17 -21,31 -1,15 -2,29 -3,43 -1,14 -2,28 -3,42 0,3 0,6 0,8 0,3 0,6 1,9 7,-1 15,-1 22,-1 8,0 15,0 23,-1zm177 42c-7,-8 -14,-16 -21,-23 -7,-7 -13,-14 -19,-21 -12,-16 -19,-33 -23,-51 -4,-19 -6,-38 -6,-57 0,-5 1,-10 3,-14 2,-5 6,-9 11,-11 4,-2 9,-3 14,-1 13,2 18,9 17,22 -1,21 2,41 9,61 3,9 7,17 12,25 5,8 12,15 21,21 1,-2 2,-5 3,-7 1,-2 2,-4 3,-7 5,-15 10,-30 14,-46 4,-16 9,-32 14,-48 3,-6 6,-11 8,-13 6,-8 14,-10 23,-6 4,1 7,3 10,6 3,4 5,8 5,13 0,6 0,12 -2,18 -9,31 -19,62 -29,92 -11,30 -22,60 -35,89 -7,15 -15,29 -24,42 -9,12 -18,25 -28,37 -10,12 -20,14 -32,5 -5,-3 -8,-8 -9,-14 -1,-6 0,-11 4,-17 3,-5 6,-9 9,-13 4,-4 7,-8 10,-13 10,-11 17,-22 22,-34 5,-12 11,-24 16,-35zm522 -58l-60 0c-5,0 -9,-1 -13,-2 -5,0 -9,-1 -14,-3 -5,-2 -9,-6 -11,-12 -2,-5 -3,-10 -2,-15 4,-12 13,-17 26,-17 15,0 31,1 47,1 15,1 31,1 47,1 9,0 19,-1 28,-1 10,-1 19,-1 28,-1 9,0 16,2 22,6 5,2 9,6 10,11 1,5 0,10 -1,15 -4,11 -12,16 -22,16l-85 0 0 1zm-2363 287c-2,2 -4,6 -7,10 -3,4 -5,7 -7,8 -11,9 -21,10 -31,1 -5,-4 -7,-8 -8,-14 -1,-5 1,-10 5,-15 15,-22 32,-43 49,-65 8,-10 17,-13 28,-10 12,4 18,13 18,27 0,15 0,29 -1,43 0,14 0,28 -1,42 -1,21 -1,41 -2,61 0,20 0,40 0,61 0,3 0,6 0,9 1,2 1,5 2,9 1,7 -1,13 -5,19 -5,6 -11,9 -18,9 -7,1 -13,-1 -18,-5 -4,-4 -7,-11 -7,-18 0,-25 1,-49 1,-73 0,-23 0,-47 0,-71 1,-3 1,-7 1,-13 0,-5 1,-10 1,-15zm91 47c0,-14 2,-28 3,-42 2,-13 5,-27 11,-40 4,-11 8,-20 12,-28 11,-17 25,-27 42,-29 16,-2 32,1 47,9 20,12 34,26 43,43 9,17 15,36 18,57 6,42 -1,82 -20,120 -3,7 -7,14 -12,21 -4,6 -9,13 -15,19 -13,14 -28,21 -45,21 -17,-1 -32,-8 -46,-23 -12,-15 -21,-32 -26,-52 -2,-5 -3,-10 -4,-15 -2,-4 -3,-9 -3,-15 -2,-7 -2,-15 -3,-23 0,-7 -1,-15 -2,-23zm132 -4c0,-5 -1,-9 -1,-13 0,-5 0,-9 -2,-14 -1,-5 -2,-10 -3,-15 -1,-4 -3,-9 -6,-13 -2,-5 -5,-9 -8,-14 -3,-4 -6,-8 -10,-11 -9,-7 -17,-9 -25,-7 -8,3 -14,9 -18,19 -1,3 -3,7 -4,11 -1,4 -2,7 -3,10 -3,18 -5,34 -5,51 -1,16 1,33 5,50 1,7 3,13 6,20 3,6 6,12 9,18 11,19 22,20 35,4 11,-15 18,-30 22,-46 4,-16 7,-33 8,-50zm90 4c0,-14 1,-28 3,-42 2,-13 5,-27 10,-40 5,-11 9,-20 13,-28 11,-17 25,-27 41,-29 17,-2 33,1 48,9 20,12 34,26 43,43 8,17 14,36 18,57 6,42 -1,82 -20,120 -3,7 -7,14 -12,21 -5,6 -10,13 -15,19 -13,14 -28,21 -45,21 -17,-1 -33,-8 -46,-23 -12,-15 -21,-32 -27,-52 -1,-5 -2,-10 -3,-15 -2,-4 -3,-9 -3,-15 -2,-7 -3,-15 -3,-23 0,-7 -1,-15 -2,-23zm132 -4c0,-5 -1,-9 -1,-13 0,-5 0,-9 -2,-14 -1,-5 -2,-10 -3,-15 -1,-4 -3,-9 -6,-13 -2,-5 -5,-9 -8,-14 -3,-4 -7,-8 -11,-11 -8,-7 -16,-9 -24,-7 -8,3 -14,9 -18,19 -1,3 -3,7 -4,11 -1,4 -2,7 -3,10 -3,18 -5,34 -5,51 -1,16 1,33 5,50 1,7 3,13 6,20 3,6 6,12 9,18 10,19 22,20 34,4 12,-15 19,-30 23,-46 4,-16 7,-33 8,-50zm89 4c1,-14 2,-28 4,-42 2,-13 5,-27 10,-40 5,-11 9,-20 13,-28 11,-17 24,-27 41,-29 17,-2 33,1 48,9 20,12 34,26 43,43 8,17 14,36 18,57 5,42 -1,82 -20,120 -4,7 -7,14 -12,21 -5,6 -10,13 -15,19 -13,14 -28,21 -45,21 -18,-1 -33,-8 -46,-23 -12,-15 -21,-32 -27,-52 -1,-5 -2,-10 -4,-15 -1,-4 -2,-9 -3,-15 -1,-7 -2,-15 -2,-23 0,-7 -1,-15 -3,-23zm133 -4c-1,-5 -1,-9 -1,-13 0,-5 -1,-9 -2,-14 -1,-5 -2,-10 -3,-15 -1,-4 -3,-9 -6,-13 -2,-5 -5,-9 -8,-14 -3,-4 -7,-8 -11,-11 -8,-7 -16,-9 -24,-7 -8,3 -14,9 -18,19 -2,3 -3,7 -4,11 -1,4 -2,7 -3,10 -3,18 -5,34 -6,51 0,16 2,33 6,50 1,7 3,13 6,20 2,6 5,12 9,18 10,19 22,20 34,4 12,-15 19,-30 23,-46 4,-16 7,-33 8,-50zm418 164c0,11 -1,20 -1,29 0,8 0,17 1,27 0,7 0,14 1,22 0,8 0,16 0,24 0,3 -1,7 -2,10 -1,3 -3,6 -5,9 -5,5 -11,7 -19,6 -7,-1 -13,-4 -16,-11 -1,-3 -2,-5 -2,-8 -1,-3 -1,-5 -2,-8 -1,-45 -3,-90 -4,-135 -2,-44 -1,-89 4,-135 0,-5 0,-9 1,-12 2,-9 5,-16 9,-20 5,-4 11,-6 21,-8 35,-5 65,4 91,28 10,9 17,20 21,31 4,11 6,23 6,36 1,10 1,19 -1,29 -2,9 -4,19 -6,28 -5,20 -15,35 -31,44 -15,9 -30,14 -44,14 -4,1 -7,1 -11,1 -4,-1 -7,-1 -11,-1zm-4 -44c6,-1 12,-1 16,-1 5,0 9,-1 13,-1 6,-2 10,-4 15,-6 5,-3 8,-7 10,-12 5,-11 8,-23 9,-34 1,-12 0,-23 -4,-34 -3,-12 -10,-20 -20,-26 -11,-5 -22,-7 -35,-4 -1,19 -2,38 -2,57 -1,19 -2,40 -2,61zm221 39c-7,-8 -14,-15 -21,-22 -7,-7 -13,-14 -18,-21 -12,-16 -20,-33 -24,-52 -4,-18 -6,-37 -6,-56 0,-5 1,-10 3,-14 3,-5 6,-9 11,-11 5,-3 10,-3 15,-2 12,2 18,10 17,23 -1,20 2,40 9,60 3,10 7,18 12,25 5,8 12,15 20,22 2,-3 3,-5 4,-7 1,-2 2,-4 2,-7 5,-15 10,-31 15,-47 4,-15 9,-31 14,-47 3,-7 5,-11 8,-14 6,-7 13,-9 23,-6 4,1 7,4 10,7 3,3 4,8 4,13 1,5 0,11 -2,18 -9,31 -19,61 -29,91 -10,30 -22,60 -35,90 -6,15 -14,29 -23,41 -9,13 -18,25 -28,38 -10,12 -21,13 -32,5 -5,-3 -8,-8 -9,-14 -1,-6 0,-12 3,-18 3,-4 7,-9 10,-13 3,-4 7,-8 10,-13 9,-10 16,-21 22,-34 5,-12 10,-24 15,-35zm195 -208c11,2 23,5 34,9 11,4 21,10 30,17 21,17 32,40 32,67 0,22 -5,41 -14,57 -9,17 -23,31 -42,42 -5,4 -10,7 -16,9 -5,3 -10,5 -15,7 -15,6 -27,5 -36,-1 -9,-7 -14,-17 -15,-32 -1,-23 -3,-46 -4,-69 -1,-23 -2,-46 -3,-69 0,-13 0,-26 1,-39 1,-13 2,-26 5,-39 5,-27 17,-49 34,-67 17,-17 38,-32 62,-43 3,-1 6,-2 9,-3 3,0 7,-1 10,-2 16,-2 25,4 29,18 1,13 -5,21 -20,27 -7,2 -13,5 -20,8 -6,2 -12,6 -17,10 -32,23 -46,54 -44,93zm-2 50c1,18 2,36 2,54 0,18 2,37 5,56 29,-13 44,-34 45,-64 0,-13 -5,-25 -14,-34 -10,-9 -23,-13 -38,-12zm237 -8l-39 0 0 21c-1,12 -1,23 -1,35 1,11 0,23 -1,34 -2,9 -4,18 -6,26 -3,9 -6,17 -9,26 -1,3 -4,7 -8,11 -3,4 -7,7 -10,10 -5,4 -10,6 -15,6 -6,1 -11,0 -17,-2 -5,-2 -9,-5 -13,-9 -4,-4 -7,-8 -8,-14 -3,-7 -2,-15 2,-21 4,-6 11,-10 19,-10 2,0 4,0 6,0 2,1 4,1 6,1 4,-9 6,-19 7,-28 2,-10 2,-20 2,-30 0,-8 0,-17 0,-25 0,-9 0,-17 -1,-26 0,-3 0,-6 0,-8 0,-3 1,-6 1,-9 2,-18 10,-29 27,-30 12,-2 24,-3 36,-3 12,0 24,0 36,1 8,0 15,2 20,7 5,6 9,12 10,20 2,13 2,26 2,37 -2,21 -3,42 -4,62 -1,21 -3,41 -4,62 0,4 0,7 -1,9 -2,12 -9,18 -22,19 -5,0 -10,-1 -14,-5 -4,-3 -6,-7 -8,-13 -2,-6 -2,-13 -1,-22 2,-19 3,-37 4,-55 2,-18 3,-36 4,-54 1,-3 1,-7 1,-11 -1,-3 -1,-7 -1,-12zm137 91c1,7 2,14 5,19 3,5 6,10 10,16 7,7 15,9 25,5 10,-5 18,-12 24,-22 2,-3 3,-5 4,-8 2,-2 3,-4 4,-7 7,-10 15,-13 25,-8 5,3 8,6 10,10 2,4 2,9 1,14 -5,16 -14,31 -27,43 -13,12 -29,19 -48,20 -16,2 -30,-2 -41,-14 -7,-6 -13,-13 -18,-20 -4,-7 -8,-15 -11,-24 -4,-15 -7,-29 -9,-43 -2,-14 -2,-29 2,-44 7,-35 28,-56 64,-64 5,-1 10,-1 15,0 5,1 10,2 15,3 15,6 27,16 36,31 9,15 12,31 10,47 -2,21 -13,34 -34,39 -5,1 -10,2 -15,3 -5,0 -10,0 -15,1 -5,1 -9,1 -13,1 -4,0 -8,0 -13,0 -1,1 -2,1 -3,1 -1,0 -2,0 -3,1zm-6 -41c9,-1 18,-2 26,-2 9,0 17,-1 27,-1 6,-1 9,-5 8,-12 0,-4 -1,-6 -1,-9 -1,-2 -2,-5 -3,-7 -8,-14 -20,-18 -35,-11 -9,4 -14,10 -17,17 -3,7 -5,15 -5,25z"/>
    <path class="fil3" d="M3300 2496c1,-2 2,-4 3,-6 0,-3 1,-5 3,-7 5,-12 13,-15 24,-10 10,5 13,13 9,24 -6,24 -19,36 -38,37 -11,0 -20,-1 -29,-5 -8,-3 -15,-10 -20,-19 -2,-3 -3,-7 -5,-12 -1,-9 3,-16 11,-21 4,-1 8,-1 12,0 5,2 8,4 11,8 2,4 4,6 7,9 2,2 6,3 12,2zm-43 184c6,-11 12,-22 17,-32 6,-11 12,-22 19,-33 4,-7 8,-13 13,-19 4,-6 9,-11 13,-17 4,-4 9,-8 14,-10 5,-2 10,-1 15,1 12,4 18,13 18,26l0 27c-1,20 -1,39 -1,59 0,20 0,40 -1,60 0,2 0,4 0,6 0,2 0,5 -1,7 -1,7 -5,12 -10,16 -5,3 -11,5 -17,3 -12,-1 -19,-9 -19,-24l0 -39c0,-6 0,-12 0,-18 0,-7 -2,-13 -3,-21 -2,4 -3,7 -5,9 -2,3 -3,6 -5,9 -6,9 -11,19 -17,28 -5,10 -11,19 -17,28 -5,8 -11,13 -18,17 -9,6 -18,6 -27,3 -8,-4 -13,-11 -15,-21 -2,-16 -3,-29 -2,-41 0,-21 1,-42 2,-62 0,-20 1,-41 2,-62 0,-2 1,-5 1,-7 0,-2 0,-5 1,-7 3,-12 11,-18 23,-16 6,0 10,2 14,6 4,3 6,7 6,12 1,8 1,15 1,23 -1,7 -1,15 -2,22 0,11 0,22 0,33 -1,11 -1,22 -2,33 1,0 1,0 2,1 0,0 0,0 1,0z"/>
   </g>
  </g>
 </g>
</svg>
