<?xml version="1.0" encoding="UTF-8"?>
<!DOCTYPE svg PUBLIC "-//W3C//DTD SVG 1.1//EN" "http://www.w3.org/Graphics/SVG/1.1/DTD/svg11.dtd">
<!-- Creator: CorelDRAW X7 -->
<svg xmlns="http://www.w3.org/2000/svg" xml:space="preserve" width="45mm" height="45mm" version="1.1" style="shape-rendering:geometricPrecision; text-rendering:geometricPrecision; image-rendering:optimizeQuality; fill-rule:evenodd; clip-rule:evenodd"
viewBox="0 0 4500 4500"
 xmlns:xlink="http://www.w3.org/1999/xlink">
 <defs>
  <style type="text/css">
   <![CDATA[
    .str0 {stroke:black;stroke-width:75}
    .fil2 {fill:black}
    .fil0 {fill:#E94F42}
    .fil3 {fill:#FEFEFE;fill-rule:nonzero}
    .fil1 {fill:#FEFEFE;fill-rule:nonzero}
   ]]>
  </style>
 </defs>
 <g id="Слой_x0020_1">
  <metadata id="CorelCorpID_0Corel-Layer"/>
  <path class="fil0 str0" d="M371 280c0,0 -121,140 -126,669 -6,529 -23,2140 -25,2323 -2,182 -116,533 15,701 131,168 95,285 709,291 614,7 1936,20 2185,23 249,3 836,152 1001,-61 165,-213 191,-676 198,-1284 6,-609 -149,-1351 -98,-1743 52,-391 133,-749 39,-840 -94,-92 -504,-169 -1367,-178 -862,-9 -1804,-19 -2019,-21 -214,-3 -512,120 -512,120z"/>
  <g id="_21487951184">
   <g>
    <path class="fil1" d="M1054 662c0,13 1,28 4,44 3,17 9,33 16,49 7,15 17,29 32,42 17,15 31,12 41,-9 4,-7 6,-13 7,-20 2,-6 3,-13 5,-19 2,-5 3,-9 3,-12 0,-4 1,-8 3,-12 3,-7 7,-12 12,-15 6,-3 12,-4 18,-3 7,2 13,5 17,10 5,5 7,11 7,19 0,20 -4,40 -9,58 -5,19 -15,35 -30,49 -14,16 -31,24 -52,25 -21,1 -39,-5 -56,-18 -16,-13 -29,-28 -39,-44 -10,-17 -17,-35 -23,-55 -20,-71 -20,-140 2,-208 7,-19 15,-36 25,-51 10,-15 22,-27 37,-38 25,-17 52,-18 81,-3 14,6 23,16 29,29 6,13 10,27 13,43 1,7 -1,14 -5,20 -3,6 -9,10 -15,11 -16,4 -27,-1 -36,-16 -2,-4 -3,-7 -3,-10 0,-4 -1,-7 -3,-10 -6,-16 -15,-20 -28,-12 -4,4 -8,9 -13,13 -4,4 -8,9 -11,14 -10,15 -17,33 -22,53 -5,20 -7,45 -7,76zm278 103c-9,7 -17,14 -23,21 -5,7 -8,17 -6,28 1,6 2,12 2,17 0,6 1,12 1,17 0,19 -9,29 -26,31 -8,1 -15,0 -21,-5 -6,-4 -10,-11 -11,-20 -2,-12 -3,-24 -3,-35 0,-12 0,-23 0,-35 0,-24 0,-47 0,-70 0,-23 0,-47 1,-71 0,-3 0,-6 0,-9 -1,-3 -1,-5 0,-8 2,-7 6,-12 11,-17 6,-4 12,-7 18,-7 7,0 13,2 19,7 5,4 8,10 9,17 2,7 2,14 2,22 0,7 -1,15 -1,22l0 34c4,-3 6,-5 8,-6 2,-2 3,-3 5,-5 8,-12 17,-23 25,-35 9,-11 17,-23 26,-34 1,-2 2,-3 3,-5 0,-1 1,-2 3,-4 11,-13 23,-15 36,-6 14,6 18,17 13,32 -2,4 -3,7 -4,10 -2,3 -3,6 -6,9 -5,8 -10,15 -15,23 -5,8 -11,15 -17,21 -5,7 -7,15 -3,23 7,20 15,39 22,58 7,20 14,39 21,58 6,20 0,32 -18,38 -18,5 -30,-3 -38,-21 -4,-12 -8,-24 -11,-35 -4,-11 -8,-23 -12,-35 -1,-4 -3,-8 -5,-12 -1,-3 -3,-8 -5,-13zm184 -5c7,-14 15,-28 22,-42 7,-13 15,-27 23,-41 5,-9 11,-17 17,-24 5,-8 11,-15 17,-22 5,-6 11,-10 17,-12 7,-3 13,-2 20,1 15,5 23,16 23,33l0 34c-1,25 -2,50 -2,76 0,25 0,50 -1,75 0,3 0,6 0,9 0,3 0,6 -1,9 -2,8 -6,15 -13,20 -7,4 -14,6 -21,4 -16,-2 -24,-12 -24,-30l0 -51c0,-7 -1,-15 -1,-23 0,-8 -2,-17 -4,-26 -2,4 -4,8 -6,11 -2,4 -4,7 -7,12 -7,11 -14,23 -21,36 -7,12 -14,24 -22,36 -7,9 -14,16 -23,21 -11,7 -23,8 -34,3 -11,-4 -17,-13 -20,-27 -2,-19 -3,-36 -2,-52 0,-27 1,-53 2,-79 1,-25 2,-52 3,-78 0,-4 1,-7 1,-10 0,-3 0,-6 1,-8 4,-16 14,-23 30,-22 7,1 13,4 18,8 5,4 8,10 8,16 0,10 1,19 0,29 0,9 -1,19 -2,28 0,14 0,29 0,42 -1,14 -1,28 -2,43 1,0 1,0 2,0 0,1 1,1 2,1zm376 58c13,5 21,11 26,17 4,7 5,16 3,27 -1,12 -7,20 -17,24 -10,5 -20,3 -29,-6 -2,-2 -4,-3 -6,-4 -2,-2 -4,-2 -7,-2 -18,0 -35,0 -53,0 -18,1 -35,1 -53,2 -7,0 -11,1 -14,2 -6,0 -10,3 -13,10 -6,14 -16,20 -29,17 -13,-2 -20,-11 -21,-27 -2,-15 0,-25 4,-31 5,-6 14,-11 29,-15 2,-2 5,-2 8,-2 3,0 6,-1 9,-3 1,-17 2,-33 3,-49 1,-15 2,-31 2,-48 1,-7 2,-14 2,-20 1,-7 1,-14 2,-21 4,-32 19,-57 43,-75 21,-16 43,-19 65,-12 23,8 37,24 43,49 1,10 2,19 3,27 0,8 0,17 0,27 0,16 0,33 0,51 0,17 0,34 -1,52 0,4 0,8 1,10zm-53 3c0,-2 0,-3 1,-4 0,-1 1,-2 1,-4 0,-20 0,-41 0,-61 1,-21 1,-41 1,-61 0,-5 0,-9 0,-14 0,-5 -1,-10 -3,-14 -4,-14 -12,-17 -24,-10 -17,9 -25,22 -26,40 -2,19 -3,37 -4,54 -1,18 -2,36 -4,55 0,3 0,6 0,10 0,3 1,7 1,11 10,-1 19,-1 29,-1 10,0 19,0 28,-1zm193 -56c-10,7 -17,14 -23,21 -6,7 -8,17 -6,28 0,6 1,12 1,17 1,6 1,12 1,17 0,19 -8,29 -25,31 -9,1 -16,0 -22,-5 -6,-4 -9,-11 -11,-20 -2,-12 -3,-24 -3,-35 0,-12 0,-23 0,-35 0,-24 0,-47 0,-70 0,-23 1,-47 2,-71 0,-3 0,-6 -1,-9 0,-3 0,-5 1,-8 1,-7 5,-12 10,-17 6,-4 12,-7 19,-7 7,0 13,2 18,7 6,4 9,10 10,17 1,7 2,14 1,22 0,7 0,15 0,22l0 35c3,-4 6,-6 7,-7 2,-2 4,-3 5,-5 9,-12 17,-23 26,-35 8,-11 17,-23 25,-34 2,-2 3,-3 3,-5 1,-1 2,-2 3,-4 11,-13 23,-15 37,-6 13,6 18,17 13,32 -2,4 -4,7 -5,10 -1,3 -3,6 -6,9 -5,8 -10,15 -15,23 -5,8 -10,15 -16,22 -6,6 -7,14 -4,22 8,20 15,39 22,58 7,20 14,39 21,58 7,20 1,32 -18,38 -17,5 -30,-3 -38,-21 -4,-12 -8,-24 -11,-35 -3,-11 -7,-23 -11,-35 -2,-4 -4,-8 -5,-12 -2,-3 -4,-8 -5,-13zm287 5c-8,9 -14,17 -20,24 -5,7 -12,14 -18,20 -5,5 -11,10 -17,16 -6,5 -12,9 -19,13 -19,12 -38,14 -56,6 -18,-8 -29,-23 -33,-46 -6,-32 -6,-62 2,-90 7,-28 23,-54 48,-75 21,-20 47,-30 76,-32 23,-1 43,6 61,21 4,5 8,9 13,12 4,4 9,9 13,14 3,4 5,9 7,14 2,5 3,10 3,15 1,9 1,18 1,27 -1,9 -1,18 -1,27 0,14 0,29 1,44 0,14 0,29 0,43 0,4 1,9 1,14 1,5 1,10 1,15 -3,19 -13,27 -31,26 -16,0 -24,-9 -26,-26 -2,-10 -3,-20 -3,-29 -1,-10 -1,-20 -2,-30 0,-3 0,-6 0,-9 0,-3 -1,-8 -1,-14zm-105 20c22,-14 40,-31 53,-51 14,-21 28,-41 41,-61 -9,-13 -20,-18 -32,-13 -14,5 -25,10 -33,18 -17,14 -27,31 -29,49 -3,19 -3,38 0,58zm649 -174c-3,3 -6,7 -9,12 -4,6 -7,9 -10,11 -13,12 -26,12 -39,1 -6,-5 -9,-11 -10,-18 -1,-6 1,-13 6,-20 19,-27 41,-54 63,-82 10,-13 21,-17 36,-13 15,5 22,16 22,35 0,18 0,36 0,55 -1,18 -1,36 -2,53 -1,26 -2,52 -2,78 -1,26 -1,51 -1,78 0,4 0,8 1,11 0,3 1,7 2,11 1,10 -2,18 -7,25 -6,7 -13,11 -22,12 -9,1 -17,-2 -23,-7 -6,-6 -9,-13 -9,-23 0,-32 0,-62 1,-93 0,-30 0,-60 0,-91 1,-4 2,-9 2,-16 0,-7 0,-13 1,-19zm85 59c1,-17 2,-35 4,-53 2,-17 7,-35 14,-51 6,-14 11,-26 16,-36 14,-22 31,-34 52,-37 22,-3 42,1 62,12 25,14 43,32 54,54 11,22 19,47 23,74 7,53 -1,104 -26,152 -4,10 -9,18 -15,27 -6,8 -12,16 -19,24 -16,18 -36,27 -58,27 -22,0 -41,-10 -58,-30 -16,-18 -27,-40 -34,-65 -2,-7 -3,-13 -5,-19 -2,-6 -3,-12 -4,-19 -1,-10 -2,-20 -3,-30 0,-10 -1,-19 -3,-30zm169 -5c-1,-5 -1,-11 -1,-17 0,-5 -1,-11 -3,-17 -1,-6 -3,-13 -4,-19 -1,-6 -4,-11 -7,-17 -3,-6 -7,-12 -11,-17 -4,-6 -8,-11 -13,-15 -11,-8 -21,-11 -32,-8 -10,3 -17,11 -22,23 -2,4 -4,9 -5,14 -2,5 -3,10 -4,14 -4,22 -7,43 -7,64 0,22 2,43 7,65 2,8 4,16 7,24 4,8 8,16 12,24 13,24 28,26 44,5 14,-19 24,-38 29,-59 5,-20 8,-42 10,-64zm349 -173c-2,4 -3,7 -4,11 -1,4 -2,8 -5,12 -20,39 -40,77 -60,115 -21,38 -41,76 -61,115 -8,16 -17,32 -25,47 -8,15 -15,30 -23,46 -13,25 -27,33 -44,24 -20,-8 -23,-25 -9,-50 17,-31 33,-62 50,-93 16,-31 32,-62 48,-93 13,-23 26,-47 38,-70 12,-24 24,-48 37,-71 3,-9 8,-15 13,-19 8,-8 18,-9 29,-3 9,5 14,14 16,29zm-265 75c2,-16 6,-31 12,-46 7,-14 18,-27 33,-37 23,-16 45,-15 66,3 3,3 7,5 9,8 3,2 6,5 9,9 10,12 15,25 17,40 1,15 -3,30 -11,43 -12,19 -29,34 -52,43 -11,4 -21,6 -31,5 -10,-1 -19,-4 -27,-10 -7,-6 -14,-14 -18,-23 -5,-10 -7,-22 -7,-35zm57 7c22,-8 32,-17 29,-26l-18 -9c-2,7 -3,13 -5,18 -2,5 -4,11 -6,17zm165 263c-19,0 -35,-6 -47,-19 -12,-12 -19,-28 -19,-48 1,-10 3,-19 7,-28 3,-9 7,-18 12,-27 6,-10 14,-16 24,-21 9,-4 20,-6 30,-5 11,0 21,3 32,7 10,4 19,10 26,17 15,16 20,35 16,57 -4,19 -14,35 -30,48 -16,14 -33,20 -51,19zm-6 -60c1,0 1,1 2,1 1,1 2,1 3,2 3,-1 7,-3 10,-5 3,-2 6,-5 9,-7 7,-5 7,-10 1,-15 -2,-3 -6,-4 -10,-4 -4,0 -7,1 -9,5 -2,4 -3,8 -4,11 -1,4 -1,7 -2,12zm-2123 451c1,-11 2,-22 2,-31 1,-10 1,-20 1,-30l0 -17c4,-15 13,-22 28,-22 6,1 12,3 17,7 4,3 7,9 8,15 1,11 1,22 1,33 0,11 1,22 1,33 0,25 1,49 1,75 0,25 1,50 2,74 0,18 -9,28 -25,29 -7,2 -14,0 -20,-5 -6,-6 -10,-13 -11,-21 0,-8 -1,-16 -1,-24 0,-8 0,-16 0,-24 -1,-6 -1,-12 -1,-18 0,-6 0,-12 0,-19 -12,1 -23,2 -33,2 -10,0 -21,1 -32,2 0,13 0,26 0,39 -1,13 -1,25 -2,38 0,4 0,8 -1,11 0,4 -1,7 -3,9 -2,7 -7,11 -13,14 -5,3 -12,3 -18,1 -13,-2 -19,-11 -19,-26 -1,-11 -1,-22 -1,-32 0,-11 1,-22 1,-33l0 -146c0,-8 0,-14 1,-18 2,-7 5,-12 11,-16 5,-3 11,-5 18,-4 14,2 22,10 24,25 1,9 1,17 1,25 0,8 0,16 0,24l0 31c6,0 12,0 17,0 5,1 10,1 16,1 4,0 9,0 14,-1 5,0 10,-1 16,-1zm252 66c-8,10 -14,18 -20,24 -5,7 -11,14 -18,21 -5,5 -10,10 -16,15 -6,5 -13,9 -19,14 -20,11 -38,13 -56,5 -19,-8 -30,-23 -34,-46 -6,-32 -5,-62 2,-90 7,-28 23,-53 49,-75 21,-20 46,-30 75,-32 23,-1 43,7 61,22 4,4 9,8 13,12 5,4 9,8 13,13 3,4 5,9 7,14 3,5 4,10 4,15 0,9 1,18 0,27 0,9 0,18 0,27 0,15 0,29 0,44 1,15 1,29 1,43 0,5 0,9 0,14 1,5 1,10 1,16 -2,18 -13,26 -30,25 -16,0 -25,-9 -27,-25 -1,-11 -2,-20 -3,-30 0,-10 -1,-20 -2,-30 0,-2 0,-5 0,-9 0,-3 0,-8 -1,-14zm-105 21c22,-15 40,-32 54,-52 14,-20 27,-41 41,-61 -9,-13 -20,-17 -33,-12 -13,4 -24,10 -33,17 -17,15 -26,31 -29,50 -2,18 -2,37 0,58zm744 -129l-50 0 0 26c-1,16 -2,30 -1,45 0,15 0,29 -2,44 -2,12 -4,23 -8,33 -3,11 -7,21 -11,32 -2,5 -5,10 -9,15 -5,5 -9,9 -14,13 -6,4 -12,7 -19,8 -7,1 -14,0 -21,-3 -7,-2 -13,-6 -18,-11 -5,-5 -8,-11 -10,-18 -3,-10 -2,-19 3,-27 6,-8 14,-12 25,-13 2,0 5,0 7,0 2,1 5,1 8,1 4,-12 7,-24 9,-36 2,-12 2,-25 2,-37 0,-11 0,-22 0,-33 0,-11 0,-22 -1,-33 0,-4 0,-8 0,-11 0,-3 1,-6 1,-10 2,-24 13,-37 35,-39 15,-2 30,-3 46,-4 15,0 31,0 46,1 10,0 18,3 25,10 7,7 11,15 13,25 2,17 3,33 2,47 -2,27 -3,54 -5,80 -2,26 -3,52 -5,79 0,5 0,9 -1,12 -3,14 -12,22 -28,24 -7,0 -13,-3 -18,-7 -5,-4 -8,-9 -10,-16 -2,-8 -3,-17 -1,-29 2,-24 3,-47 5,-70 2,-22 3,-46 5,-69 1,-4 1,-9 1,-13 -1,-5 -1,-10 -1,-16zm144 49c9,1 16,2 22,2 6,0 12,1 19,2 1,-5 3,-10 3,-15 0,-5 1,-10 3,-15 4,-15 10,-27 18,-38 7,-11 17,-21 29,-29 23,-16 45,-22 65,-17 20,5 37,20 51,44 5,10 9,20 11,30 3,11 5,21 7,32 3,18 4,36 3,54 -1,18 -6,36 -13,52 -7,16 -17,31 -31,45 -9,8 -19,14 -30,17 -11,3 -22,3 -33,2 -11,-2 -21,-6 -30,-13 -9,-7 -17,-16 -23,-27 -5,-9 -10,-19 -14,-29 -4,-10 -8,-21 -12,-32 -6,-1 -13,-2 -19,-3 -7,-1 -15,-2 -23,-4 0,12 0,24 0,35 0,11 0,22 1,33 0,4 0,7 1,9 0,3 0,5 -1,8 -2,7 -5,12 -9,16 -5,4 -11,7 -17,7 -15,1 -25,-5 -31,-19 -1,-4 -1,-7 -1,-10 0,-3 0,-6 -1,-8 -1,-32 -2,-63 -3,-94 -1,-31 -1,-62 -2,-93l0 -18c1,-10 4,-18 10,-24 6,-6 13,-8 21,-7 9,0 15,3 21,10 5,7 7,15 7,24 0,12 0,24 1,36 0,12 0,24 0,37zm172 39c0,-14 -1,-27 -2,-40 -1,-12 -4,-24 -9,-36 -9,-19 -20,-21 -36,-7 -8,7 -14,14 -16,21 -8,22 -11,43 -8,64 4,20 11,40 22,59 2,5 6,8 12,8 5,1 10,-1 14,-6 7,-6 12,-13 14,-20 2,-7 3,-15 5,-22 1,-7 2,-14 4,-21z"/>
    <path class="fil1" d="M2649 1138c15,2 30,6 44,11 14,5 27,12 38,22 27,22 41,50 41,86 0,26 -6,51 -17,72 -12,22 -30,39 -54,54 -7,4 -13,8 -20,11 -7,4 -14,6 -20,9 -19,7 -34,6 -46,-2 -12,-8 -18,-22 -19,-41 -2,-29 -3,-59 -5,-88 -2,-29 -3,-58 -4,-87 0,-17 1,-34 2,-50 0,-17 3,-33 6,-50 7,-35 21,-63 43,-85 22,-23 48,-41 79,-55 4,-2 8,-3 12,-4 4,-1 8,-2 12,-3 21,-2 33,5 37,23 3,16 -6,27 -25,34 -9,3 -17,7 -25,10 -8,4 -15,8 -22,13 -40,29 -59,69 -57,120zm-2 63c1,23 2,46 3,69 0,23 2,47 6,71 37,-16 57,-43 58,-81 0,-17 -6,-32 -19,-43 -12,-12 -28,-17 -48,-16zm239 202c-10,-10 -19,-20 -27,-28 -9,-9 -17,-18 -24,-28 -15,-20 -25,-42 -30,-65 -5,-24 -8,-48 -8,-72 0,-7 2,-13 4,-18 3,-7 8,-11 14,-14 6,-3 12,-4 19,-2 16,2 23,12 21,29 0,26 3,52 12,77 4,12 9,22 16,32 6,10 15,19 25,27 2,-3 4,-6 5,-9 1,-2 2,-5 3,-9 7,-19 13,-39 18,-59 6,-20 12,-40 19,-61 3,-8 6,-14 10,-17 7,-9 17,-12 29,-8 5,2 9,5 13,9 4,4 6,10 6,16 1,7 0,15 -3,23 -12,40 -24,79 -37,117 -13,38 -28,76 -45,114 -8,20 -18,37 -30,53 -11,16 -23,32 -36,48 -12,16 -26,18 -40,7 -7,-5 -11,-10 -12,-18 -1,-8 0,-15 4,-23 5,-6 9,-11 13,-16 4,-5 9,-11 13,-17 12,-13 21,-28 28,-43 6,-16 13,-31 20,-45zm215 -163c8,1 15,2 21,2 6,0 12,1 19,2 2,-5 3,-10 3,-15 1,-5 2,-10 3,-15 5,-15 11,-27 18,-38 8,-11 17,-21 29,-29 24,-16 45,-22 65,-17 20,5 37,20 51,44 5,10 9,20 12,30 2,11 4,21 6,32 3,18 4,36 3,54 -1,18 -5,36 -13,52 -7,16 -17,31 -30,45 -10,8 -20,14 -31,17 -11,3 -22,3 -32,2 -11,-2 -22,-6 -31,-13 -9,-7 -17,-16 -23,-27 -5,-9 -9,-19 -13,-29 -5,-10 -9,-21 -13,-32 -6,-1 -12,-2 -19,-3 -7,-1 -14,-2 -23,-4 0,12 0,24 0,35 0,11 1,22 2,33 0,4 0,7 0,9 1,3 0,5 0,8 -2,7 -5,12 -10,16 -5,4 -10,7 -17,7 -14,1 -24,-5 -30,-19 -1,-4 -2,-7 -2,-10 0,-3 0,-6 -1,-8 -1,-32 -1,-63 -2,-94 -1,-31 -2,-62 -3,-93l0 -18c1,-10 4,-18 10,-24 6,-6 13,-8 22,-7 8,0 15,3 20,10 5,7 7,15 7,24 0,12 1,24 1,36 1,12 1,24 1,37zm172 39c0,-14 -1,-27 -2,-40 -2,-12 -5,-24 -10,-36 -8,-19 -20,-21 -35,-7 -9,7 -14,14 -17,21 -8,22 -11,43 -7,64 3,20 10,40 21,59 3,5 7,8 12,8 6,1 11,-1 15,-6 7,-6 11,-13 14,-20 1,-7 3,-15 4,-22 1,-7 3,-14 5,-21zm-1652 388c16,3 30,6 44,11 14,6 27,13 39,22 26,22 40,50 40,86 0,27 -6,51 -17,72 -11,22 -29,40 -54,54 -7,4 -13,8 -20,11 -7,4 -13,7 -20,9 -19,7 -34,6 -46,-2 -11,-8 -18,-21 -19,-41 -1,-29 -3,-58 -5,-87 -1,-29 -3,-59 -3,-88 0,-17 0,-34 1,-50 1,-16 3,-33 6,-50 7,-34 21,-63 43,-85 22,-23 48,-41 80,-55 3,-2 7,-3 11,-4 4,-1 8,-2 13,-2 20,-3 32,5 36,22 3,16 -6,28 -25,34 -8,4 -17,7 -25,11 -8,3 -15,7 -22,12 -40,30 -59,70 -57,120zm-2 63c2,23 3,46 3,69 0,23 2,47 6,71 38,-16 57,-43 58,-80 0,-18 -6,-33 -18,-44 -13,-11 -29,-17 -49,-16zm214 209c0,13 -1,25 -1,36 0,11 0,23 1,34 0,10 0,19 1,29 1,10 1,21 0,31 0,4 -1,8 -2,12 -1,5 -4,8 -7,12 -6,6 -14,9 -23,8 -10,-1 -17,-6 -21,-15 -2,-3 -3,-6 -3,-10 -1,-3 -1,-6 -2,-10 -2,-58 -4,-115 -6,-172 -2,-57 0,-115 6,-173 0,-6 0,-11 1,-15 3,-12 7,-20 12,-25 6,-5 14,-8 26,-10 45,-7 83,5 116,35 13,12 22,25 27,39 6,15 9,30 9,47 0,12 0,24 -2,36 -2,12 -5,24 -7,36 -7,26 -20,45 -40,56 -20,12 -39,18 -56,19 -5,0 -10,1 -15,0 -4,0 -9,0 -14,0zm-5 -57c8,-1 15,-1 21,-1 6,0 11,-1 17,-2 6,-1 13,-4 18,-7 6,-4 11,-9 13,-15 6,-15 10,-29 11,-44 2,-15 0,-29 -5,-44 -4,-14 -12,-25 -26,-32 -13,-7 -27,-9 -44,-5 -1,24 -2,48 -3,73 -1,24 -2,50 -2,77zm172 -31c-4,-21 -6,-41 -6,-60 0,-18 4,-37 12,-56 13,-33 36,-55 69,-65 11,-4 21,-4 32,-2 35,10 56,32 66,66 6,29 9,57 7,84 -1,27 -9,55 -22,81 -7,14 -16,24 -27,31 -11,8 -22,12 -35,12 -12,1 -24,-1 -36,-6 -13,-5 -23,-13 -33,-25 -7,-9 -13,-19 -17,-30 -4,-10 -8,-20 -10,-30zm120 -95c-1,-2 -2,-4 -2,-6 0,-2 0,-5 -2,-7 -9,-18 -20,-22 -35,-13 -11,8 -18,17 -22,27 -8,19 -10,38 -9,56 2,18 7,36 17,54 0,3 3,7 7,11 4,5 10,8 16,8 6,0 12,-4 16,-11 2,-4 4,-8 6,-12 13,-34 15,-70 8,-107zm207 127c0,-11 0,-22 1,-33 0,-11 0,-22 -1,-33 -1,-18 -1,-36 -2,-54 0,-18 -1,-36 -2,-54 0,-4 0,-8 0,-11 -1,-3 0,-6 0,-9 0,-9 3,-15 9,-20 5,-5 12,-7 19,-8 18,0 28,9 30,26 1,10 2,21 2,31 0,11 0,22 1,32 1,20 1,39 1,58 0,19 1,38 1,57 0,5 1,12 3,21 3,1 6,2 8,2 12,1 21,0 25,-3 4,-3 7,-10 9,-22 4,-26 5,-52 3,-77 -1,-24 -3,-50 -6,-76 -2,-17 5,-27 22,-32 9,-1 17,0 24,4 7,4 11,11 12,19 4,28 6,56 8,83 2,27 0,54 -4,81 -1,5 -2,10 -4,16 -1,5 -3,10 -5,15 -12,32 -37,47 -74,45 -18,-1 -36,-2 -53,-2 -18,-1 -35,-2 -52,-4 -45,-4 -71,-25 -80,-65 -2,-11 -4,-23 -5,-34 -2,-12 -3,-23 -4,-35 -1,-17 -2,-33 -3,-49 0,-16 -1,-33 -2,-50 0,-2 0,-5 0,-8 0,-3 1,-6 2,-9 1,-7 5,-12 11,-16 6,-4 12,-5 19,-4 7,0 13,2 18,7 6,4 9,10 9,17 0,25 1,51 3,78 2,27 4,52 7,77 1,18 5,29 10,33 6,4 19,6 40,6zm281 -59c-9,6 -17,13 -23,21 -6,7 -8,16 -6,28 1,6 1,12 2,17 0,5 0,11 0,17 0,19 -8,29 -25,30 -8,2 -16,1 -21,-4 -6,-5 -10,-12 -12,-21 -1,-12 -2,-23 -2,-35 0,-11 0,-23 0,-34 0,-24 0,-47 0,-70 0,-24 0,-47 1,-72 0,-2 0,-5 -1,-8 0,-3 0,-6 1,-8 2,-7 5,-13 11,-17 5,-5 11,-7 18,-7 7,0 13,2 18,6 6,4 9,10 10,18 1,7 2,14 2,21 -1,8 -1,15 -1,23l0 34c3,-3 6,-6 8,-7 1,-1 3,-3 5,-4 8,-12 17,-24 25,-35 8,-11 17,-23 25,-35 2,-1 3,-3 3,-4 1,-1 2,-3 4,-5 10,-12 23,-14 36,-6 14,7 18,18 13,33 -2,3 -3,6 -5,9 -1,3 -3,7 -5,10 -5,7 -10,15 -15,23 -6,7 -11,14 -17,21 -6,7 -7,14 -4,23 8,19 15,39 22,58 8,19 15,39 21,58 7,19 1,32 -17,38 -18,4 -31,-3 -38,-22 -5,-11 -8,-23 -12,-34 -3,-12 -7,-23 -11,-35 -2,-4 -3,-8 -5,-12 -2,-4 -3,-8 -5,-13zm209 108c-10,-10 -19,-19 -28,-28 -8,-9 -16,-18 -23,-27 -15,-20 -25,-42 -30,-66 -5,-24 -8,-47 -8,-72 0,-7 1,-13 4,-18 3,-6 8,-11 14,-14 6,-3 12,-4 19,-2 16,3 23,12 21,29 -1,26 3,52 12,77 4,12 9,23 15,32 7,10 15,19 26,27 2,-3 3,-6 5,-8 1,-3 2,-6 3,-9 7,-20 13,-39 18,-60 6,-20 12,-40 18,-60 4,-9 7,-15 11,-18 7,-9 17,-12 29,-7 5,1 9,4 13,8 4,5 6,10 6,17 0,7 0,14 -3,23 -12,39 -24,78 -37,116 -13,39 -28,77 -45,115 -8,19 -18,37 -30,53 -11,16 -23,32 -36,48 -12,15 -26,17 -40,6 -7,-4 -11,-10 -12,-18 -1,-7 0,-15 4,-22 5,-6 9,-12 13,-17 4,-5 8,-10 13,-16 11,-14 21,-28 27,-44 7,-15 14,-30 21,-45zm-1832 271c20,1 39,1 59,1 19,0 38,0 58,1 0,-4 0,-8 0,-12 1,-5 1,-9 2,-13 0,-19 0,-37 1,-56 0,-18 0,-37 0,-55 1,-4 1,-7 1,-10 0,-3 0,-6 2,-9 2,-7 5,-12 10,-16 5,-4 11,-6 18,-6 14,0 23,8 28,23 0,4 1,11 1,20 -1,28 -2,56 -3,84 -1,27 -1,55 -2,83 0,28 0,56 0,83 1,28 1,56 1,84l0 15c-2,18 -11,27 -27,29 -7,1 -14,-1 -20,-6 -6,-5 -9,-12 -11,-21 -1,-3 -1,-6 -1,-10 1,-3 1,-6 1,-10 -1,-23 -1,-45 -1,-67 0,-23 -1,-46 -2,-69 -19,-1 -38,-1 -56,-1 -19,0 -38,-1 -57,-2 -1,4 -2,9 -2,15l0 146c1,6 1,11 0,16 -2,17 -11,25 -26,25 -8,1 -14,0 -20,-5 -5,-4 -8,-10 -9,-17 -1,-5 -2,-12 -2,-21 0,-10 -1,-20 -1,-31 -1,-10 -1,-20 -1,-30 0,-11 0,-18 0,-22 0,-45 0,-91 -1,-137 0,-46 0,-92 0,-138 0,-9 1,-15 2,-18 5,-15 16,-22 31,-20 13,2 21,9 24,23 1,8 2,14 2,19l0 118c0,2 0,4 1,7 0,2 0,5 0,10zm267 163c1,9 3,17 7,24 3,6 7,13 12,20 9,9 20,11 32,6 13,-6 24,-15 31,-28 2,-3 4,-6 5,-9 2,-3 4,-6 5,-10 9,-12 19,-16 32,-10 6,4 10,8 13,13 2,5 3,11 1,18 -7,21 -18,39 -35,55 -16,15 -37,24 -61,25 -20,3 -38,-3 -52,-17 -9,-9 -17,-17 -23,-26 -5,-9 -10,-19 -13,-31 -6,-19 -11,-37 -13,-55 -3,-18 -2,-37 2,-56 10,-45 37,-72 83,-81 6,-2 13,-2 19,-1 6,2 13,3 18,5 20,6 35,20 47,39 11,19 15,39 13,59 -3,27 -17,44 -43,51 -7,1 -13,3 -20,3 -6,0 -13,1 -19,2 -6,1 -12,1 -17,1 -5,0 -10,0 -16,0 -2,1 -3,1 -4,1 -1,0 -2,1 -4,2zm-7 -53c11,-1 23,-2 33,-2 11,-1 22,-1 34,-2 8,-1 12,-6 11,-15 -1,-5 -2,-8 -3,-11 0,-3 -2,-6 -3,-10 -10,-17 -25,-22 -45,-13 -10,5 -18,12 -22,21 -3,9 -5,20 -5,32zm307 -51c2,-7 5,-14 7,-21 2,-7 5,-14 8,-22 7,-18 19,-25 38,-19 18,7 24,20 18,39l-34 95c-9,26 -19,53 -31,81 -1,2 -2,5 -5,11 -2,6 -5,13 -7,20 -3,7 -5,14 -7,21 -2,7 -3,13 -3,17 1,20 2,39 3,60 0,20 1,40 3,59 0,14 -6,24 -18,29 -7,3 -13,3 -19,1 -7,-1 -12,-5 -15,-11 -6,-11 -10,-23 -11,-37 -1,-21 -1,-41 -1,-62 0,-20 0,-40 -1,-61 -1,-14 -4,-25 -7,-35 -12,-29 -24,-58 -36,-87 -12,-28 -24,-57 -36,-86 -1,-2 -2,-4 -2,-6 0,-3 -1,-5 -2,-7 -2,-8 0,-15 4,-23 4,-7 10,-11 18,-13 16,-4 27,2 34,18 4,9 7,18 9,26 2,9 5,17 8,26 7,17 14,33 22,48 7,16 15,32 21,48 10,-15 17,-33 23,-52 6,-19 12,-38 19,-57zm551 34l0 29c0,15 -1,29 -1,43 0,13 -1,28 -1,42 0,3 0,7 0,10 0,3 0,7 -2,10 -3,15 -12,23 -28,23 -16,0 -25,-9 -28,-26 -1,-3 -1,-8 -1,-16l4 -341c1,-17 5,-29 12,-35 7,-7 19,-10 36,-9 7,1 15,1 23,2 8,0 16,1 24,2 42,2 70,23 84,62 14,36 19,75 18,116 -3,47 -28,74 -75,81 -10,1 -20,3 -31,3 -11,1 -23,2 -34,4zm2 -211c-1,23 -1,45 -1,67 0,22 -1,44 -1,66 0,5 1,9 4,11 3,3 7,4 11,4 9,0 18,0 26,-1 9,-1 17,-2 26,-4 9,-3 13,-10 13,-22 3,-35 -3,-68 -16,-99 -4,-11 -10,-17 -19,-18 -7,-1 -13,-1 -20,-2 -7,0 -14,-1 -23,-2zm161 158c0,-29 0,-59 -1,-88 0,-30 0,-59 0,-89 0,-6 0,-11 1,-15 2,-17 12,-25 29,-25 7,0 12,2 17,6 5,4 8,10 9,17 2,4 3,7 3,10 0,3 0,6 0,10l0 324c0,8 0,15 1,23 0,7 0,14 -1,22 -2,18 -12,27 -30,27 -17,-1 -26,-12 -28,-31l0 -13 0 -178zm95 32l0 -37 0 -14c2,-18 12,-27 28,-25 15,0 23,9 25,26 1,11 1,21 1,31 0,10 1,20 1,29 1,17 3,35 4,52 2,17 6,35 12,51 2,7 5,13 8,19 3,5 8,8 14,9 7,1 13,-1 18,-6 5,-4 9,-10 11,-17 5,-10 9,-20 13,-31 4,-11 8,-22 10,-34 3,-10 4,-21 5,-31 1,-11 2,-21 4,-32l4 -35c4,-19 14,-28 29,-26 7,2 14,5 18,11 5,5 7,13 6,22 -1,12 -2,23 -3,34 -1,11 -2,22 -3,34 -3,17 -6,34 -10,51 -4,16 -9,33 -16,50 -4,9 -9,18 -14,26 -6,8 -12,15 -20,22 -22,19 -44,25 -66,20 -22,-5 -40,-21 -53,-48 -7,-17 -13,-34 -16,-52 -3,-18 -6,-37 -8,-56 0,-4 -1,-8 -1,-13 0,-5 0,-10 0,-14 0,-5 0,-10 -1,-16z"/>
    <path class="fil1" d="M2683 2475c-24,0 -43,-5 -58,-17 -14,-12 -23,-29 -25,-51 0,-9 1,-17 4,-25 1,-6 5,-10 10,-14 5,-3 11,-5 18,-5 6,1 12,3 17,7 4,4 7,9 9,16l0 12c1,6 2,10 4,14 2,4 5,6 11,8 15,2 25,0 33,-9 9,-11 12,-23 9,-37 -3,-13 -11,-22 -23,-27 -9,-5 -18,-9 -26,-13 -9,-4 -17,-9 -24,-15 -13,-9 -22,-19 -27,-30 -5,-11 -7,-22 -6,-33 1,-11 4,-22 9,-31 6,-10 12,-18 20,-25 12,-9 27,-13 45,-13 19,0 34,4 46,11 17,10 30,24 38,44 2,7 2,13 0,20 -3,7 -7,11 -14,14 -7,3 -14,4 -22,2 -7,-2 -13,-6 -17,-12 -2,-3 -4,-5 -5,-8 -1,-3 -3,-6 -5,-9 -5,-4 -10,-7 -16,-8 -6,-1 -11,0 -15,5 -4,4 -6,8 -6,14 0,5 3,9 9,13 6,5 13,9 21,13 7,4 14,8 20,13 22,11 38,25 48,43 10,17 13,38 8,62 -5,22 -16,40 -32,53 -16,13 -35,19 -58,18zm121 -138c0,-27 6,-50 15,-72 9,-21 24,-40 45,-57 16,-12 33,-18 52,-18 19,0 35,7 51,20 10,8 19,19 27,33 5,9 7,17 5,24 -1,8 -6,14 -12,18 -7,4 -14,5 -22,3 -8,-2 -15,-7 -20,-13 -2,-3 -3,-6 -5,-9 -2,-2 -4,-5 -6,-6 -10,-13 -22,-14 -36,-4 -15,12 -25,27 -30,45 -5,20 -5,41 0,63 2,10 6,17 11,24 6,6 14,10 23,12 20,5 38,0 52,-15 2,-4 5,-7 7,-11 2,-3 4,-7 7,-11 12,-14 24,-17 38,-9 13,8 17,20 12,38 -6,20 -20,36 -40,49 -20,13 -41,19 -62,19 -24,-1 -46,-7 -64,-19 -18,-12 -30,-29 -37,-51 -3,-10 -6,-18 -7,-27 -1,-8 -3,-17 -4,-26zm303 -110c9,-5 18,-9 26,-14 8,-4 16,-8 25,-12 17,-6 35,-6 52,0 17,7 29,20 36,38 7,20 10,38 9,56 0,24 -1,49 -2,73 -1,24 -2,48 -3,72 -1,10 -4,18 -9,25 -5,6 -12,9 -22,9 -17,0 -27,-10 -29,-31 0,-7 0,-13 0,-19 0,-6 1,-12 2,-19 1,-20 1,-38 2,-56 1,-19 2,-37 3,-57 1,-6 1,-13 0,-19 0,-7 -4,-12 -10,-16 -7,-3 -13,-3 -19,1 -6,3 -11,7 -15,12 -10,7 -18,16 -24,26 -7,9 -13,20 -17,32 -2,3 -2,7 -2,11 0,4 0,9 0,13 0,14 1,29 1,44 1,15 2,30 2,44l0 10c-2,15 -11,24 -25,25 -16,2 -26,-5 -30,-21 -2,-3 -3,-7 -3,-9 0,-3 0,-7 -1,-11 -2,-32 -3,-65 -4,-97 -2,-33 -3,-66 -4,-99 0,-29 -1,-58 0,-86 0,-29 0,-57 0,-87 0,-4 1,-7 2,-9 1,-8 5,-15 10,-19 6,-5 12,-7 20,-6 16,0 25,9 27,26 0,10 1,19 0,28 0,8 0,18 0,27 0,19 -1,38 -1,57 -1,19 1,38 3,58zm250 208c1,8 -1,16 -5,22 -5,5 -11,9 -20,11 -16,2 -27,-6 -33,-23 0,-3 -1,-6 -2,-9 0,-2 0,-5 0,-9 -4,-32 -7,-65 -7,-99 -1,-33 0,-66 2,-99 0,-3 1,-8 2,-15 6,-13 17,-18 32,-16 14,1 22,9 24,24 1,6 1,13 1,20 -1,8 -1,15 -1,21l0 31c0,0 0,5 1,15 0,10 0,22 1,37 0,15 1,30 2,47 2,16 3,30 3,42zm-70 -302c0,-9 3,-17 9,-24 7,-8 14,-11 24,-10 7,0 14,3 19,8 6,5 8,11 8,19 1,8 -2,16 -8,24 -7,7 -14,11 -22,11 -8,1 -16,-2 -21,-8 -6,-5 -9,-12 -9,-20zm163 152c6,-7 12,-14 20,-22 7,-8 13,-16 19,-24 5,-6 10,-11 14,-17 4,-5 9,-11 14,-17 6,-7 12,-11 19,-12 8,-1 15,0 21,5 15,10 17,23 7,39 -6,9 -13,18 -19,26 -7,9 -14,17 -21,26 -8,8 -10,19 -5,31 8,17 16,34 24,51 8,17 16,33 23,50 2,4 4,10 5,17 4,15 -1,25 -17,31 -15,4 -26,1 -33,-11 -3,-4 -6,-9 -9,-18 -7,-14 -14,-28 -21,-43 -7,-14 -14,-29 -21,-44 -14,9 -21,21 -20,34 1,8 1,15 1,22 0,7 0,14 0,21 0,9 -1,16 -2,20 -3,11 -11,17 -24,19 -14,0 -23,-5 -28,-16 -3,-5 -4,-11 -4,-18 -2,-59 -3,-117 -3,-175 0,-59 -1,-117 -3,-176 0,-8 0,-15 1,-19 2,-7 5,-12 11,-16 5,-5 11,-7 18,-7 15,2 25,10 28,23 1,4 1,11 1,19 0,34 0,67 0,101 0,34 1,67 4,100z"/>
   </g>
   <path class="fil2" d="M2893 2861c-35,-48 -169,-60 -297,-74 -128,-13 -336,0 -414,0 -78,0 -71,55 -332,24 -261,-30 -300,-25 -291,12 10,38 -21,147 -1,181 20,34 198,75 301,75 104,0 382,-22 488,-28 106,-5 238,-48 307,-29 68,19 173,28 191,23 17,-6 48,-184 48,-184z"/>
   <path class="fil3" d="M1794 2895c-4,0 -8,0 -12,0 -4,0 -8,0 -13,2l-1 23c0,7 0,15 0,22 0,7 -1,14 -1,21 0,1 0,2 0,3 0,1 0,2 -1,3 -1,6 -5,9 -11,8 -5,-1 -8,-4 -8,-11 0,-3 0,-7 0,-10 0,-4 0,-8 0,-11 0,-6 1,-13 1,-20 0,-6 0,-13 0,-19l1 -13c1,-8 5,-13 13,-16 2,0 4,-1 6,-1 3,-1 5,-1 7,-1 4,-1 7,-1 11,-1 4,0 8,0 11,0 9,0 15,5 17,14 1,5 1,10 1,15 0,10 0,20 -1,29 0,10 0,20 -1,30l0 3c-1,7 -4,10 -10,10 -6,0 -10,-4 -10,-10 0,-4 0,-7 0,-11 0,-3 0,-6 0,-10 1,-7 1,-14 1,-20 0,-7 0,-14 1,-21 0,-1 0,-2 -1,-4 0,-1 0,-2 0,-4zm85 83c0,5 0,9 0,13 0,4 0,8 0,13 0,3 0,7 1,11 0,3 0,7 0,11 0,1 -1,3 -1,4 -1,2 -2,3 -3,5 -2,2 -5,3 -8,3 -4,-1 -7,-3 -8,-6 -1,-1 -1,-2 -1,-3 0,-2 -1,-3 -1,-4 -1,-22 -1,-43 -2,-64 -1,-21 0,-42 2,-64 0,-2 0,-4 1,-5 0,-4 2,-8 4,-9 2,-2 5,-4 10,-4 16,-3 30,2 42,13 5,4 8,9 10,14 2,6 3,11 3,18 1,4 1,8 0,13 -1,4 -2,9 -3,13 -2,10 -7,17 -14,21 -8,4 -15,6 -21,7 -2,0 -4,0 -6,0 -1,0 -3,0 -5,0zm-2 -21c3,-1 6,-1 8,-1 2,0 4,0 6,0 3,-1 5,-2 7,-3 2,-1 4,-3 5,-6 2,-5 3,-10 4,-16 1,-5 0,-11 -2,-16 -1,-5 -5,-9 -9,-12 -5,-2 -11,-3 -17,-2 0,9 -1,18 -1,27 0,9 -1,19 -1,29zm94 -11c-2,-8 -2,-16 -2,-23 0,-7 1,-14 4,-20 5,-13 13,-21 26,-25 4,-1 8,-1 12,0 12,3 20,11 24,24 2,11 3,21 3,31 -1,10 -4,20 -9,30 -2,5 -6,9 -10,12 -4,2 -8,4 -12,4 -5,0 -9,0 -14,-2 -4,-2 -8,-5 -12,-10 -3,-3 -5,-7 -6,-11 -2,-3 -3,-7 -4,-10zm44 -36c0,-1 0,-1 0,-2 0,-1 -1,-2 -1,-3 -3,-6 -8,-8 -13,-4 -4,3 -7,6 -8,10 -3,7 -4,14 -3,20 0,7 2,14 6,20 0,1 1,3 2,4 2,2 4,3 6,3 3,0 5,-1 6,-4 1,-1 2,-3 2,-4 5,-13 6,-26 3,-40zm114 24c1,-5 3,-11 4,-16 1,-5 3,-9 5,-14 2,-6 4,-12 8,-18 2,-3 5,-6 9,-9 4,-1 7,-2 11,-1 3,2 6,4 7,8 3,4 4,8 4,13 0,11 1,22 1,34 0,11 1,22 1,34 0,3 -1,6 -2,8 -2,2 -5,3 -7,4 -3,0 -6,-1 -8,-3 -2,-2 -3,-5 -3,-8 0,-8 -1,-16 -1,-24 0,-7 0,-15 -1,-23 0,-1 -1,-3 -2,-4 0,1 0,3 -1,4 0,1 0,2 -1,3 -2,6 -3,11 -5,17 -2,6 -4,12 -5,17 -1,4 -3,7 -5,9 -2,2 -5,3 -8,3 -4,0 -7,-1 -9,-4 -2,-2 -4,-5 -5,-8 -2,-4 -4,-8 -5,-12 -2,-4 -4,-8 -5,-12 -1,-2 -1,-3 -2,-4 0,-1 -1,-2 -2,-3l-2 23c0,4 -1,7 -1,10 0,3 0,6 -1,10 -1,8 -4,11 -11,11 -7,-1 -10,-5 -9,-13 1,-9 1,-18 2,-27 1,-9 1,-18 2,-27 1,-4 1,-8 2,-11 0,-4 1,-8 2,-12 0,-1 0,-3 1,-4 1,-2 1,-3 2,-5 2,-4 6,-6 10,-6 3,0 7,1 10,5 2,3 5,7 6,12 2,6 4,12 5,17 2,6 4,12 5,18 1,1 1,2 2,4 0,1 1,2 2,4zm94 12c-2,-8 -2,-16 -2,-23 0,-7 1,-14 4,-20 5,-13 13,-21 26,-25 4,-1 7,-1 11,0 13,3 21,11 25,24 2,11 3,21 2,31 0,10 -3,20 -8,30 -2,5 -6,9 -10,12 -4,2 -8,4 -13,4 -4,0 -9,0 -13,-2 -5,-2 -9,-5 -12,-10 -3,-3 -5,-7 -6,-11 -2,-3 -3,-7 -4,-10zm44 -36c0,-1 0,-1 0,-2 0,-1 -1,-2 -1,-3 -3,-6 -8,-8 -13,-4 -4,3 -7,6 -8,10 -3,7 -4,14 -4,20 1,7 3,14 7,20 0,1 1,3 2,4 2,2 4,3 6,3 2,0 4,-1 6,-4 1,-1 2,-3 2,-4 5,-13 6,-26 3,-40zm94 25c-3,3 -6,5 -8,8 -2,3 -3,6 -2,10 0,3 0,5 0,7 0,2 1,4 1,6 0,7 -4,11 -10,11 -3,1 -6,0 -8,-1 -2,-2 -3,-5 -4,-8 -1,-4 -1,-9 -1,-13 0,-4 0,-8 0,-13 0,-8 0,-17 0,-26 0,-8 0,-17 1,-26 0,-1 0,-2 -1,-3 0,-1 0,-2 1,-3 0,-3 2,-5 4,-6 2,-2 4,-3 6,-3 3,0 5,1 7,2 2,2 3,4 4,7 0,2 0,5 0,8 0,3 0,5 0,8l0 13c1,-1 2,-2 3,-3 0,0 1,-1 2,-1 3,-5 6,-9 9,-13 3,-4 6,-9 9,-13 1,-1 1,-1 2,-2 0,0 0,-1 1,-1 4,-5 8,-6 13,-3 5,3 7,7 5,13 -1,1 -1,2 -2,3 0,1 -1,2 -2,4 -2,2 -4,5 -5,8 -2,3 -4,5 -6,8 -3,2 -3,5 -2,8 3,7 6,15 8,22 3,7 5,14 8,21 2,7 0,12 -7,14 -6,2 -11,-1 -14,-8 -1,-4 -2,-8 -4,-13 -1,-4 -2,-8 -4,-12 -1,-2 -1,-3 -2,-5 0,-1 -1,-3 -2,-5zm78 11c-2,-8 -2,-16 -2,-23 0,-7 1,-14 4,-20 5,-13 13,-21 26,-25 3,-1 7,-1 11,0 13,3 21,11 25,24 2,11 3,21 2,31 0,10 -3,20 -8,30 -2,5 -6,9 -10,12 -4,2 -8,4 -13,4 -4,0 -9,0 -13,-2 -5,-2 -9,-5 -12,-10 -3,-3 -5,-7 -6,-11 -2,-3 -3,-7 -4,-10zm44 -36c0,-1 0,-1 0,-2 0,-1 -1,-2 -1,-3 -3,-6 -8,-8 -13,-4 -4,3 -7,6 -8,10 -3,7 -4,14 -4,20 1,7 3,14 6,20 1,1 2,3 3,4 2,2 4,3 6,3 2,0 4,-1 6,-4 1,-1 2,-3 2,-4 5,-13 6,-26 3,-40zm141 45c5,2 8,4 9,6 2,2 2,6 2,10 -1,5 -3,7 -7,9 -4,2 -7,1 -11,-2 0,-1 -1,-1 -2,-2 0,0 -1,-1 -2,-1 -7,0 -13,0 -20,1 -6,0 -13,0 -19,0 -3,0 -5,0 -6,1 -2,0 -3,1 -4,3 -3,6 -6,8 -11,7 -5,-1 -8,-4 -8,-10 0,-6 0,-9 2,-11 1,-3 5,-4 10,-6 1,-1 2,-1 3,-1 1,0 3,0 4,-1 0,-6 0,-12 1,-18 0,-6 0,-12 1,-18 0,-2 0,-5 0,-7 1,-3 1,-5 1,-8 2,-12 7,-21 16,-28 8,-5 16,-7 24,-4 8,3 13,9 16,18 0,4 1,7 1,10 0,3 0,6 0,10 0,6 0,12 0,19 0,6 0,13 -1,19 0,2 1,3 1,4zm-20 1c0,-1 0,-1 1,-2 0,0 0,0 0,-1 0,-7 0,-15 0,-23 0,-7 0,-15 0,-22 0,-2 0,-4 0,-5 0,-2 0,-4 -1,-6 -1,-5 -4,-6 -9,-3 -6,3 -9,8 -9,15 -1,7 -1,13 -2,20 0,6 0,13 -1,20 0,1 0,2 0,3 0,2 0,3 0,5 4,-1 7,-1 11,-1 3,0 7,0 10,0zm84 15c-3,0 -6,-1 -8,-3 -3,-3 -4,-5 -4,-8 0,-3 1,-6 3,-8 3,-2 5,-3 9,-3 3,0 6,1 8,3 2,2 3,5 3,8 -1,4 -2,6 -4,8 -2,2 -4,3 -7,3zm1 -54c-3,0 -5,-1 -7,-3 -2,-2 -3,-5 -3,-8 0,-3 1,-5 3,-7 2,-2 5,-3 8,-2 3,0 5,1 7,3 2,2 3,4 3,7 0,3 -1,5 -4,7 -2,3 -4,3 -7,3z"/>
   <g>
    <path class="fil3" d="M1303 3351c15,0 30,1 45,1 15,0 29,0 44,1 0,-4 0,-7 1,-10 0,-3 0,-6 1,-10 0,-14 0,-28 0,-42 1,-14 1,-28 1,-42 1,-3 1,-5 0,-8 0,-2 1,-4 2,-7 1,-5 4,-9 8,-12 3,-3 8,-4 13,-4 11,0 18,6 21,17 1,3 1,8 1,16 0,21 -1,42 -2,63 0,21 -1,42 -2,64 0,21 1,42 1,63 0,21 0,43 0,64l0 11c-1,14 -8,21 -20,23 -6,0 -11,-1 -15,-5 -5,-4 -8,-9 -9,-16 -1,-2 -1,-5 0,-7 0,-3 0,-5 0,-8 -1,-17 -1,-35 -1,-52 0,-17 0,-34 -1,-52 -15,-1 -29,-1 -43,-1 -14,0 -29,0 -44,-1 0,3 -1,6 -1,12l0 110c1,5 1,9 0,13 -2,13 -8,19 -20,19 -6,1 -11,-1 -15,-4 -4,-3 -6,-7 -7,-13 -1,-3 -1,-9 -1,-16 -1,-8 -1,-15 -1,-23 -1,-8 -1,-16 -1,-24 0,-8 0,-13 0,-16 0,-35 0,-70 0,-105 -1,-35 -1,-70 -1,-105 0,-7 1,-11 2,-14 4,-11 12,-16 23,-15 11,1 17,7 19,17 1,7 1,11 1,15l0 90c0,1 1,3 1,5 0,2 0,4 0,8zm206 124c1,7 2,13 5,18 3,5 6,11 10,16 7,7 15,8 24,5 10,-5 18,-12 24,-22 1,-2 2,-5 4,-7 1,-2 2,-5 4,-7 6,-10 14,-12 24,-8 4,3 7,6 9,10 2,4 3,8 1,13 -5,16 -14,30 -26,42 -13,12 -28,19 -47,20 -15,2 -29,-3 -39,-14 -8,-6 -13,-13 -18,-19 -4,-7 -8,-15 -10,-24 -5,-14 -8,-28 -10,-42 -2,-14 -1,-28 2,-43 7,-34 28,-54 62,-61 6,-2 11,-2 15,-1 5,1 10,2 14,4 15,5 27,15 36,29 8,15 12,30 10,46 -2,20 -13,33 -33,38 -5,2 -10,2 -15,3 -5,0 -10,0 -15,1 -4,1 -9,1 -12,1 -4,0 -8,0 -13,0 -1,1 -2,1 -3,1 -1,0 -1,0 -3,1zm-6 -40c9,-1 18,-2 26,-2 8,0 17,-1 26,-1 6,-1 9,-5 8,-12 0,-3 -1,-6 -2,-8 0,-2 -1,-5 -3,-7 -7,-14 -19,-17 -33,-11 -9,4 -14,9 -17,16 -3,8 -5,16 -5,25zm237 -39c2,-5 4,-10 5,-16 2,-5 4,-11 7,-17 5,-14 14,-19 29,-14 13,5 18,15 13,30l-26 72c-6,20 -14,40 -23,62 -1,1 -2,4 -4,8 -2,5 -4,10 -6,15 -2,6 -3,11 -5,17 -2,5 -2,9 -2,13 1,14 2,29 2,45 0,15 1,30 2,45 0,11 -4,18 -13,22 -5,2 -10,3 -15,1 -5,-1 -9,-4 -11,-8 -5,-9 -8,-18 -9,-28 0,-16 -1,-32 0,-48 0,-15 0,-31 -1,-47 -1,-10 -3,-19 -6,-26 -9,-22 -18,-44 -27,-66 -9,-22 -18,-44 -27,-66 -1,-2 -2,-3 -2,-5 0,-2 -1,-3 -1,-5 -2,-6 -1,-12 3,-17 3,-6 7,-9 13,-10 12,-4 21,1 26,13 3,7 6,14 7,20 2,7 4,13 7,20 5,12 10,25 16,37 6,12 11,24 16,36 7,-12 13,-25 18,-40 4,-14 9,-29 14,-43zm156 142c0,4 -2,8 -6,12 -2,6 -4,12 -6,18 -3,5 -5,11 -8,17 -1,4 -2,7 -4,9 -3,1 -5,3 -8,4 -3,2 -5,3 -6,4 -9,1 -17,1 -21,-2 -5,-3 -7,-7 -6,-12 1,-3 3,-7 4,-10 1,-3 3,-6 4,-10 1,-3 2,-5 3,-8 1,-2 2,-5 2,-8 -5,-4 -8,-9 -8,-14 0,-6 3,-11 8,-15 6,-4 13,-7 21,-7 6,0 11,1 16,3 5,2 8,5 11,8 2,2 4,5 4,9l0 2zm365 -82c2,-7 3,-14 5,-21 1,-7 3,-14 4,-21 5,-20 9,-39 14,-59 4,-20 9,-39 13,-59 1,-7 3,-14 4,-21 2,-7 4,-14 5,-21 0,-2 1,-4 1,-6 0,-2 0,-5 2,-7 2,-5 5,-9 10,-13 5,-3 11,-4 16,-3 6,2 10,5 14,9 3,5 4,10 3,17 -2,10 -4,21 -6,31 -2,10 -5,20 -7,31 -6,24 -11,48 -16,71 -5,23 -10,47 -15,70 -3,11 -6,21 -9,31 -3,10 -6,20 -10,30 -1,3 -2,5 -3,8 -2,2 -3,4 -4,7 -6,9 -13,13 -22,13 -9,0 -17,-4 -23,-13 -3,-7 -6,-14 -9,-21 -3,-7 -6,-13 -8,-21 -8,-32 -16,-65 -25,-97 -8,-33 -16,-65 -24,-98 -1,-6 -2,-12 -3,-18 -1,-6 -1,-12 -2,-19 -1,-5 -1,-10 0,-15 2,-12 9,-17 21,-17 13,-2 20,4 22,16 1,5 1,10 1,14 0,5 1,10 2,15 4,13 6,25 9,37 2,13 5,25 8,37 5,19 10,38 14,57 5,18 10,37 15,56l3 0zm161 72c1,6 -1,12 -4,16 -4,5 -9,8 -15,9 -12,1 -21,-4 -25,-17 -1,-3 -1,-5 -2,-7 0,-2 0,-4 0,-7 -3,-25 -5,-50 -6,-75 0,-26 1,-51 2,-76 0,-3 1,-6 2,-12 4,-9 12,-13 24,-12 11,1 17,7 18,18 1,5 1,11 1,16 -1,6 -1,11 -1,16l0 23c0,0 0,4 1,12 0,7 0,17 1,28 0,11 1,23 2,36 1,12 1,23 2,32zm-54 -230c0,-7 2,-14 7,-19 5,-6 11,-8 18,-7 6,0 11,2 15,5 4,4 6,9 6,15 1,6 -1,12 -6,18 -6,6 -11,9 -17,9 -6,1 -12,-1 -16,-6 -5,-4 -7,-9 -7,-15zm80 84c0,-23 -1,-45 -1,-68 0,-22 0,-45 0,-67 0,-5 0,-9 1,-12 2,-13 9,-19 22,-19 5,0 9,1 13,5 3,3 6,7 7,12 1,3 2,6 2,8 0,3 0,5 0,8l0 247c0,6 0,12 0,17 1,6 1,11 0,17 -1,14 -9,21 -23,21 -13,-1 -20,-9 -21,-24l0 -10 0 -135zm72 0c0,-23 0,-45 0,-68 0,-22 0,-45 0,-67 0,-5 0,-9 0,-12 2,-13 10,-19 23,-19 5,0 9,1 13,5 3,3 6,7 7,12 1,3 2,6 2,8 0,3 0,5 0,8l0 247c0,6 0,12 0,17 1,6 0,11 0,17 -1,14 -9,21 -23,21 -13,-1 -20,-9 -22,-24l0 -10 0 -135zm200 87c-6,7 -11,13 -15,19 -5,5 -9,10 -14,15 -4,4 -8,8 -13,12 -4,3 -9,7 -14,10 -15,9 -29,11 -43,4 -14,-6 -23,-17 -26,-35 -4,-24 -4,-47 2,-69 5,-21 17,-40 37,-57 16,-15 35,-23 58,-24 17,-1 32,5 46,16 3,4 6,7 10,10 3,2 7,6 10,10 2,3 4,6 5,10 2,4 3,8 3,12 0,7 1,14 0,20 0,7 0,14 0,21 0,11 0,22 0,33 1,12 1,23 1,34 0,3 0,6 0,10 1,4 1,8 1,12 -2,14 -10,20 -23,19 -13,0 -19,-6 -21,-19 -1,-8 -2,-15 -2,-23 0,-7 -1,-15 -2,-22 0,-2 0,-5 0,-7 0,-3 0,-6 0,-11zm-80 16c16,-11 30,-24 40,-40 11,-15 22,-31 32,-46 -7,-10 -16,-14 -25,-10 -11,3 -19,8 -25,14 -13,11 -21,23 -22,37 -2,14 -2,29 0,45zm271 26c-3,2 -6,3 -9,4 -2,2 -5,3 -8,4 -3,2 -7,4 -11,6 -4,1 -8,3 -13,4 -21,6 -40,2 -55,-10 -16,-13 -23,-30 -22,-53 2,-21 7,-39 17,-56 10,-16 24,-29 42,-41 21,-13 43,-19 67,-18 25,2 37,15 38,39l0 26c-1,22 -1,44 -1,65 -1,22 -1,44 -2,66 -1,29 -7,57 -17,84 -5,11 -11,20 -19,26 -9,7 -18,11 -27,13 -10,2 -20,1 -30,-1 -10,-2 -19,-6 -27,-13 -21,-17 -31,-39 -30,-65 0,-7 2,-13 6,-18 4,-5 8,-7 14,-7 14,-2 22,6 24,22 1,6 2,11 3,17 1,5 4,10 9,15 15,13 27,10 36,-8 0,-1 1,-1 1,-2 0,0 0,0 0,-1 6,-15 10,-31 10,-48 1,-16 3,-33 4,-50zm0 -115c-12,1 -23,4 -32,9 -9,5 -17,12 -24,20 -5,7 -9,14 -13,22 -4,7 -5,15 -3,24 0,14 7,18 20,15 18,-5 30,-15 37,-29 6,-9 9,-19 11,-29 1,-10 3,-20 4,-32zm118 79c1,7 2,13 5,18 2,5 6,11 9,16 8,7 16,8 25,5 10,-5 18,-12 24,-22 1,-2 2,-5 3,-7 2,-2 3,-5 4,-7 7,-10 15,-12 24,-8 5,3 8,6 10,10 2,4 2,8 1,13 -5,16 -14,30 -26,42 -13,12 -29,19 -47,20 -16,2 -29,-3 -40,-14 -7,-6 -13,-13 -17,-19 -5,-7 -8,-15 -11,-24 -4,-14 -7,-28 -9,-42 -2,-14 -2,-28 2,-43 7,-34 28,-54 62,-61 5,-2 10,-2 15,-1 5,1 10,2 14,4 15,5 27,15 35,29 9,15 12,30 10,46 -1,20 -12,33 -32,38 -5,2 -10,2 -15,3 -5,0 -10,0 -15,1 -5,1 -9,1 -13,1 -4,0 -8,0 -12,0 -2,1 -2,1 -3,1 -1,0 -2,0 -3,1zm-6 -40c9,-1 18,-2 26,-2 8,0 16,-1 25,-1 7,-1 10,-5 9,-12 -1,-3 -1,-6 -2,-8 -1,-2 -2,-5 -3,-7 -8,-14 -19,-17 -34,-11 -8,4 -14,9 -16,16 -3,8 -5,16 -5,25zm210 103c0,4 -2,8 -6,12 -2,6 -4,12 -6,18 -2,5 -5,11 -7,17 -2,4 -3,7 -5,9 -3,1 -5,3 -8,4 -3,2 -4,3 -6,4 -9,1 -17,1 -21,-2 -5,-3 -7,-7 -6,-12 2,-3 3,-7 4,-10 1,-3 3,-6 4,-10 1,-3 2,-5 3,-8 1,-2 2,-5 2,-8 -5,-4 -8,-9 -8,-14 0,-6 3,-11 8,-15 6,-4 13,-7 21,-7 6,0 11,1 16,3 5,2 8,5 11,8 3,2 4,5 4,9l0 2zm-1945 329c2,-6 5,-12 7,-19 1,-6 4,-12 7,-18 4,-9 8,-18 12,-28 4,-9 9,-18 13,-27 1,-3 3,-6 7,-9 3,-4 7,-6 13,-6 5,0 9,2 13,5 3,3 6,7 7,11 1,4 0,9 -2,14 -10,19 -18,39 -26,59 -7,21 -15,41 -22,62 -2,5 -3,10 -5,14 -1,5 -3,9 -6,13 -7,11 -15,16 -24,15 -10,-1 -17,-7 -21,-18 -3,-11 -6,-21 -8,-31 -3,-10 -5,-20 -8,-30 0,-3 -1,-6 -2,-9 0,-2 -1,-5 -3,-8 -2,5 -4,10 -6,14 -1,5 -3,9 -4,15 -3,7 -5,14 -7,21 -2,8 -4,15 -6,23 -1,2 -2,4 -2,5 -1,2 -2,4 -3,5 -3,6 -6,10 -9,13 -3,4 -8,6 -13,6 -12,0 -20,-6 -26,-19 -5,-12 -10,-25 -14,-40 -5,-18 -10,-36 -14,-53 -5,-18 -9,-36 -14,-54 -2,-6 -3,-12 -3,-18 0,-11 6,-18 17,-20 11,-1 18,3 22,14 2,7 3,14 5,20 2,7 3,13 4,19 4,13 7,25 10,36 3,12 7,24 12,36 2,-7 4,-11 4,-15 6,-12 10,-24 14,-36 5,-12 9,-24 13,-36 3,-5 5,-9 5,-11 6,-10 14,-15 25,-14 5,1 10,3 13,6 3,3 5,7 7,12 1,8 3,16 5,24 1,8 3,16 4,24 1,5 2,10 3,15 1,6 2,12 3,17 1,0 2,1 3,1zm107 23c-3,-16 -4,-31 -4,-45 0,-15 3,-29 9,-43 10,-26 27,-43 53,-50 8,-3 16,-3 24,-1 27,7 43,23 50,50 5,22 7,43 6,64 -1,21 -7,41 -17,62 -5,10 -12,18 -20,24 -9,5 -18,8 -27,9 -9,0 -19,-1 -28,-5 -9,-4 -17,-10 -24,-19 -6,-7 -11,-15 -14,-23 -3,-8 -6,-16 -8,-23zm92 -73c-1,-1 -1,-3 -1,-4 0,-2 -1,-4 -2,-5 -6,-14 -15,-17 -27,-10 -8,6 -13,12 -16,20 -6,15 -8,29 -7,43 1,14 5,27 12,41 1,3 3,5 6,9 3,3 7,5 12,5 5,0 9,-2 12,-7 2,-4 4,-7 5,-10 10,-26 12,-53 6,-82zm110 -11c3,-4 7,-8 11,-12 5,-5 8,-8 11,-12 6,-5 12,-10 17,-14 6,-5 12,-9 18,-12 11,-6 21,-7 31,-3 10,3 18,9 24,19 5,7 9,14 10,23 2,8 3,16 3,24 -1,21 -2,40 -2,59 0,19 -2,39 -5,60 -3,19 -12,28 -25,26 -7,-2 -12,-5 -16,-11 -3,-6 -4,-13 -3,-22 2,-11 4,-24 5,-38 2,-15 3,-29 3,-42 1,-14 1,-25 0,-35 -1,-10 -3,-16 -7,-19 -5,1 -10,3 -14,7 -3,3 -6,6 -10,10 -13,16 -23,33 -30,51 -7,18 -12,38 -13,58 0,3 0,6 0,9 -1,3 -1,6 -2,9 -2,11 -8,17 -19,19 -11,0 -19,-6 -22,-17 -1,-2 -2,-7 -3,-13 -2,-27 -2,-54 -3,-82 0,-27 -1,-54 -2,-81 0,-6 1,-10 2,-12 3,-11 10,-16 21,-16 12,1 18,8 20,18 1,3 1,6 1,8 -1,3 -1,5 -1,8l0 33zm193 0c3,-4 6,-8 11,-12 4,-5 8,-8 11,-12 6,-5 11,-10 17,-14 5,-5 11,-9 17,-12 11,-6 22,-7 31,-3 10,3 18,9 24,19 5,7 9,14 10,23 2,8 3,16 3,24 -1,21 -1,40 -2,59 0,19 -2,39 -5,60 -3,19 -11,28 -25,26 -7,-2 -12,-5 -15,-11 -4,-6 -5,-13 -3,-22 2,-11 3,-24 5,-38 1,-15 2,-29 2,-42 1,-14 1,-25 0,-35 -1,-10 -3,-16 -6,-19 -6,1 -11,3 -14,7 -4,3 -7,6 -10,10 -13,16 -23,33 -31,51 -7,18 -11,38 -13,58 0,3 0,6 0,9 -1,3 -1,6 -2,9 -2,11 -8,17 -19,19 -11,0 -18,-6 -22,-17 -1,-2 -2,-7 -3,-13 -1,-27 -2,-54 -2,-82 -1,-27 -1,-54 -3,-81 0,-6 1,-10 2,-12 3,-11 10,-16 21,-16 12,1 19,8 21,18 0,3 0,6 0,8 0,3 0,5 0,8l0 33z"/>
    <path class="fil3" d="M2068 3873c-6,7 -11,13 -15,18 -4,5 -9,11 -14,16 -4,4 -8,7 -13,11 -4,4 -9,8 -14,11 -15,9 -29,10 -43,4 -14,-6 -22,-18 -26,-35 -4,-24 -4,-47 2,-69 5,-21 18,-40 37,-57 16,-15 35,-23 58,-24 17,-1 32,5 46,16 3,3 7,6 10,9 4,3 7,7 10,10 2,4 4,7 5,11 2,4 3,8 3,12 1,7 1,14 0,20 0,7 0,14 0,21 0,11 0,22 0,33 1,12 1,23 1,34 0,3 0,6 0,10 1,4 1,8 1,12 -2,14 -10,20 -23,19 -13,0 -19,-6 -21,-19 -1,-8 -2,-16 -2,-23 0,-7 -1,-15 -1,-23 0,-2 0,-4 0,-6 0,-3 -1,-6 -1,-11zm-80 15c16,-10 30,-24 41,-39 10,-15 21,-31 31,-46 -7,-11 -15,-14 -25,-10 -10,3 -19,8 -25,14 -13,10 -20,23 -22,37 -2,14 -2,29 0,44zm431 -120c8,-3 13,-6 15,-8 13,-6 25,-9 36,-10 12,0 25,2 38,6 12,3 23,11 31,26 6,10 10,22 11,35 2,13 2,26 0,40 -2,13 -6,26 -11,38 -6,12 -12,23 -21,31 -12,12 -25,20 -40,24 -14,3 -30,5 -47,4 -5,0 -9,0 -14,-1 -4,-1 -8,-1 -13,-2 -9,0 -15,-2 -19,-5 -4,-3 -6,-9 -7,-18 -1,-18 -2,-37 -2,-57l0 -224c0,-4 0,-7 1,-9 3,-13 10,-19 23,-17 5,0 9,2 13,6 3,3 5,8 6,13l0 36c-1,12 -1,25 -1,38 0,13 0,26 0,39 0,2 0,5 0,7 1,2 1,5 1,8zm1 139c17,6 33,6 50,0 17,-6 28,-19 33,-40 5,-18 6,-34 4,-49 -2,-10 -5,-17 -10,-20 -4,-3 -11,-5 -22,-4 -13,0 -23,4 -31,12 -9,7 -17,15 -25,24 -1,0 -1,3 -1,6 1,12 1,24 1,35 0,12 0,24 1,36zm200 -90c0,4 0,7 0,10 1,3 1,6 1,9 1,17 1,34 1,51 1,16 1,33 1,50 0,3 -1,8 -2,13 -3,10 -10,15 -20,15 -11,0 -17,-6 -21,-17 0,-1 0,-3 0,-4 0,-2 0,-4 -1,-5 0,-28 -1,-56 -1,-83 -1,-28 -2,-56 -2,-83 0,-3 -1,-5 -1,-7 0,-3 0,-5 2,-8 1,-9 8,-14 19,-15 10,0 17,5 20,14 1,2 1,4 2,7 0,2 1,4 2,7 11,-4 19,-7 25,-10 7,-3 16,-6 28,-9 15,-4 25,1 28,13 2,6 1,11 -2,16 -3,4 -8,8 -16,10 -9,4 -17,7 -22,9 -5,2 -9,4 -13,5 -4,2 -8,3 -12,5 -4,2 -9,5 -16,7zm87 73c-3,-16 -4,-31 -4,-45 0,-15 3,-29 9,-43 10,-26 27,-43 53,-50 8,-3 16,-3 24,-1 26,7 43,23 50,50 5,22 7,43 6,64 -1,21 -7,41 -17,62 -6,10 -12,18 -21,24 -8,5 -17,8 -26,9 -9,0 -19,-1 -28,-5 -9,-4 -18,-10 -25,-19 -5,-7 -10,-15 -13,-23 -3,-8 -6,-16 -8,-23zm92 -73c-1,-1 -1,-3 -1,-4 0,-2 -1,-4 -2,-5 -7,-14 -16,-17 -27,-10 -8,6 -13,12 -17,20 -5,15 -8,29 -6,43 1,14 5,27 12,41 1,3 3,5 6,9 3,3 7,5 12,5 5,0 9,-2 12,-7 2,-4 4,-7 5,-10 10,-26 12,-53 6,-82zm74 73c-3,-16 -4,-31 -4,-45 0,-15 4,-29 9,-43 10,-26 28,-43 53,-50 8,-3 16,-3 24,-1 27,7 43,23 50,50 6,22 8,43 6,64 -1,21 -7,41 -17,62 -5,10 -12,18 -20,24 -9,5 -17,8 -27,9 -9,0 -18,-1 -28,-5 -9,-4 -17,-10 -24,-19 -6,-7 -11,-15 -14,-23 -3,-8 -6,-16 -8,-23zm92 -73c-1,-1 -1,-3 -1,-4 0,-2 -1,-4 -2,-5 -6,-14 -15,-17 -27,-10 -8,6 -13,12 -16,20 -6,15 -8,29 -7,43 1,14 5,27 13,41 0,3 2,5 5,9 4,3 8,5 12,5 5,0 9,-2 12,-7 2,-4 4,-7 5,-10 10,-26 12,-53 6,-82zm69 40c1,-20 4,-38 12,-55 7,-16 18,-31 34,-44 12,-9 26,-13 40,-13 14,0 27,5 38,15 8,6 15,14 21,25 4,7 6,13 4,19 -1,5 -4,10 -9,13 -5,3 -11,4 -17,3 -6,-2 -11,-5 -15,-11 -1,-1 -3,-4 -4,-6 -1,-2 -3,-4 -5,-5 -7,-10 -16,-11 -27,-3 -11,9 -19,21 -23,35 -4,15 -4,31 0,48 1,7 4,13 9,18 4,5 10,8 17,9 16,4 29,0 40,-12 2,-2 3,-5 5,-7 2,-3 3,-6 5,-9 9,-11 19,-13 29,-7 10,6 14,16 10,29 -5,15 -16,27 -31,37 -15,10 -31,15 -47,15 -19,-1 -35,-6 -49,-15 -14,-9 -23,-22 -28,-39 -3,-7 -5,-14 -6,-20 -1,-7 -2,-13 -3,-20zm234 -84c7,-3 13,-7 19,-10 7,-4 13,-7 19,-9 14,-6 27,-6 40,0 13,5 23,14 28,28 5,15 7,29 6,43 0,19 0,37 -1,55 -1,19 -2,37 -2,56 -1,7 -3,14 -7,18 -4,5 -9,8 -17,8 -13,0 -20,-8 -22,-24 0,-6 0,-10 0,-15 0,-4 1,-9 1,-14 1,-15 2,-29 2,-43 1,-14 1,-28 2,-43 1,-5 1,-10 1,-15 -1,-5 -3,-9 -9,-12 -5,-3 -10,-2 -14,0 -5,3 -8,6 -12,10 -7,5 -13,12 -18,19 -5,8 -9,16 -12,25 -2,2 -2,5 -2,9 0,3 0,6 0,9 0,11 1,22 1,34 0,12 1,23 2,34l0 7c-2,12 -9,18 -20,20 -12,1 -20,-5 -23,-17 -1,-2 -2,-5 -2,-7 0,-2 0,-5 -1,-8 -1,-25 -2,-49 -3,-74 -1,-25 -2,-50 -3,-75 0,-23 0,-45 0,-66 0,-22 0,-44 0,-66 0,-4 1,-6 1,-7 2,-7 4,-12 9,-15 4,-4 9,-5 15,-4 12,0 19,6 20,20 0,7 1,14 0,20 0,7 0,14 0,21 0,15 0,30 -1,44 0,14 1,29 3,44z"/>
   </g>
  </g>
 </g>
</svg>
