<?xml version="1.0" encoding="UTF-8"?>
<!DOCTYPE svg PUBLIC "-//W3C//DTD SVG 1.1//EN" "http://www.w3.org/Graphics/SVG/1.1/DTD/svg11.dtd">
<!-- Creator: CorelDRAW X6 -->
<svg xmlns="http://www.w3.org/2000/svg" xml:space="preserve" width="45mm" height="45mm" version="1.1" style="shape-rendering:geometricPrecision; text-rendering:geometricPrecision; image-rendering:optimizeQuality; fill-rule:evenodd; clip-rule:evenodd"
viewBox="0 0 4500 4500"
 xmlns:xlink="http://www.w3.org/1999/xlink">
 <defs>
  <style type="text/css">
   <![CDATA[
    .str0 {stroke:black;stroke-width:75}
    .fil2 {fill:black}
    .fil0 {fill:#E94F42}
    .fil1 {fill:#FEFEFE;fill-rule:nonzero}
   ]]>
  </style>
 </defs>
 <g id="Слой_x0020_1">
  <metadata id="CorelCorpID_0Corel-Layer"/>
  <g id="_525275680">
   <path class="fil0 str0" d="M371 280c0,0 -121,140 -126,669 -6,529 -23,2140 -25,2323 -2,182 -116,533 15,701 131,168 95,285 709,291 614,7 1936,20 2185,23 249,3 836,152 1001,-61 165,-213 191,-676 198,-1284 6,-609 -149,-1351 -98,-1743 52,-391 133,-749 39,-840 -94,-92 -504,-169 -1367,-178 -862,-9 -1804,-19 -2019,-21 -214,-3 -512,120 -512,120z"/>
   <g>
    <g>
     <path class="fil1" d="M965 623c2,7 5,14 8,20 21,66 50,127 79,190 8,18 24,23 38,17 15,-8 20,-25 12,-45 -6,-13 -12,-28 -18,-41 -28,-59 -52,-118 -70,-180 -4,-11 -3,-19 4,-28 21,-27 41,-53 61,-80 6,-8 13,-17 17,-28 6,-17 -3,-37 -20,-41 -15,-2 -24,6 -32,18 -37,47 -74,95 -111,141 -4,6 -9,10 -16,18 0,-48 0,-92 0,-134 0,-8 0,-16 -1,-24 -3,-15 -12,-24 -24,-25 -13,-3 -25,5 -29,20 -3,8 -3,17 -3,25 -1,67 -1,134 -1,201 -2,53 -4,106 -6,160 0,7 0,15 2,22 4,14 14,22 28,22 13,0 22,-8 26,-21 1,-8 1,-15 1,-23 2,-35 2,-71 3,-107 0,-10 5,-28 7,-28 14,-16 29,-31 45,-49zm360 14c0,11 1,21 0,30 -4,49 -8,97 -11,146 -1,10 -1,21 2,30 2,15 16,24 29,24 14,-1 26,-11 29,-25 1,-4 1,-8 1,-12 4,-56 8,-111 11,-167 1,-16 0,-33 -3,-49 -4,-21 -18,-37 -39,-37 -32,-1 -65,-1 -97,3 -24,2 -35,18 -36,41 -1,8 -1,14 -1,22 1,23 1,47 1,69 0,27 -3,52 -12,77 -6,0 -10,-1 -16,-1 -22,1 -35,21 -29,42 8,29 47,44 72,25 9,-8 20,-18 24,-29 9,-23 17,-45 19,-69 4,-30 2,-61 3,-93 0,-8 0,-17 0,-27 19,0 33,0 53,0zm203 222c-13,31 -27,65 -51,93 -9,12 -18,22 -26,34 -9,16 -5,33 8,43 13,10 30,8 42,-7 27,-33 52,-66 69,-106 36,-78 61,-160 86,-242 3,-8 4,-16 3,-24 0,-13 -9,-24 -20,-27 -12,-4 -22,-1 -30,8 -6,6 -8,12 -11,19 -13,42 -25,85 -38,126 -2,6 -6,12 -8,18 -23,-17 -36,-38 -44,-62 -9,-27 -13,-53 -12,-81 1,-16 -8,-28 -23,-30 -13,-3 -27,4 -34,17 -3,5 -4,12 -4,18 0,52 8,102 40,145 14,20 34,37 53,58zm250 -278c-2,-52 17,-95 60,-126 14,-11 32,-17 49,-24 20,-6 29,-18 26,-36 -4,-17 -17,-26 -38,-23 -9,1 -19,2 -25,6 -65,29 -114,76 -129,147 -6,35 -8,71 -8,105 2,62 7,123 10,184 1,40 29,58 67,45 15,-5 29,-13 43,-21 50,-29 74,-76 74,-133 0,-35 -14,-66 -43,-90 -25,-19 -54,-29 -86,-34zm-2 66c42,-1 70,25 70,62 -2,40 -21,68 -61,85 -7,-50 -7,-99 -9,-147zm308 33c-12,2 -22,3 -31,3 -12,0 -23,-1 -35,-1 0,-12 0,-22 0,-32 0,-17 0,-35 -1,-52 -2,-14 -12,-25 -25,-26 -14,-2 -27,8 -31,21 -1,6 -1,12 -1,18 0,52 0,102 0,154 0,23 -2,45 0,68 0,14 8,25 20,27 13,4 28,-1 33,-15 4,-6 4,-14 4,-22 1,-26 2,-53 2,-80 23,-2 44,-3 68,-4 0,14 0,26 1,38 0,17 0,34 2,50 1,18 17,31 31,28 16,-1 27,-13 27,-30 -1,-52 -3,-105 -3,-157 -1,-22 -1,-46 -2,-69 -2,-14 -14,-22 -27,-23 -13,0 -25,9 -29,23 0,6 0,12 0,18 0,21 -1,41 -3,63zm178 60c-1,0 -3,-1 -4,-1 1,-30 3,-59 3,-89 1,-20 2,-40 1,-60 0,-14 -12,-24 -27,-25 -14,-1 -27,7 -31,23 -2,5 -2,11 -3,18 -1,56 -4,110 -5,166 -2,17 0,35 2,54 6,28 32,40 57,25 10,-5 18,-13 24,-22 16,-26 31,-51 45,-76 5,-8 9,-16 13,-24 6,19 6,36 6,52 0,19 0,36 0,53 0,18 9,30 25,32 16,2 32,-8 36,-25 1,-7 1,-14 1,-19 1,-53 1,-106 3,-159 0,-12 0,-24 0,-36 0,-16 -8,-29 -24,-34 -15,-7 -28,0 -39,12 -12,14 -25,30 -35,47 -18,30 -32,59 -48,88zm330 -27c-7,3 -9,3 -12,4 -33,6 -46,-1 -53,-29 -4,-14 -5,-29 -7,-45 -1,-16 0,-32 -2,-47 -2,-16 -15,-26 -32,-24 -15,0 -28,10 -28,25 -1,36 -1,73 9,108 15,45 47,65 104,64 6,0 13,0 21,0 0,19 0,36 0,52 0,7 0,14 1,20 4,15 15,22 31,22 16,0 26,-8 29,-22 1,-5 1,-10 1,-16 0,-45 0,-90 0,-134 0,-32 0,-64 -1,-95 0,-18 -12,-27 -29,-27 -18,0 -31,11 -32,27 -4,38 4,79 0,117zm245 -33c-12,2 -23,3 -32,3 -12,0 -22,-1 -34,-1 0,-12 0,-22 0,-32 0,-17 0,-35 -2,-52 -1,-14 -11,-25 -25,-26 -13,-2 -26,8 -30,21 -2,6 -2,12 -2,18 0,52 0,102 0,154 0,23 -1,45 0,68 0,14 8,25 20,27 14,4 28,-1 33,-15 4,-6 4,-14 4,-22 2,-26 3,-53 3,-80 23,-2 44,-3 68,-4 0,14 0,26 1,38 0,17 0,34 1,50 2,18 18,31 32,28 16,-1 27,-13 27,-30 -2,-52 -3,-105 -3,-157 -1,-22 -1,-46 -3,-69 -1,-14 -13,-22 -26,-23 -13,0 -25,9 -29,23 0,6 0,12 0,18 0,21 -2,41 -3,63zm172 -1c0,-23 0,-44 0,-65 -1,-8 -1,-15 -4,-22 -2,-11 -13,-18 -25,-18 -13,-1 -24,4 -29,15 -3,7 -4,14 -4,21 1,50 3,101 4,151 0,19 0,37 1,56 4,37 32,54 75,46 41,-8 84,-48 92,-86 12,-54 -24,-93 -89,-97 -5,-1 -11,-1 -21,-1zm7 54c14,-2 28,-1 38,8 11,11 7,23 2,33 -7,16 -19,29 -37,36 -7,-13 -8,-52 -3,-77zm176 85c3,-34 1,-179 0,-217 0,-19 -12,-31 -29,-31 -17,0 -31,12 -32,29 -1,8 -1,18 -1,27 1,65 1,130 1,195 0,5 0,12 1,17 3,12 15,21 28,21 14,0 25,-7 29,-18 3,-7 3,-15 3,-23zm183 -324c-15,1 -20,-6 -25,-15 -7,-11 -20,-15 -31,-11 -9,6 -16,16 -14,28 1,5 4,12 6,16 15,25 38,33 65,32 27,-1 44,-19 52,-49 5,-15 0,-27 -12,-32 -13,-7 -26,-1 -33,13 -4,6 -5,12 -8,18zm-57 246c-1,0 -3,-1 -4,-1 1,-30 3,-59 3,-89 1,-20 2,-40 1,-60 0,-14 -12,-24 -26,-25 -15,-1 -28,7 -32,23 -2,5 -2,11 -3,18 -1,56 -4,110 -5,166 -2,17 0,35 2,54 6,28 32,40 57,25 10,-5 18,-13 24,-22 16,-26 31,-51 45,-76 6,-8 10,-16 14,-24 5,19 5,36 5,52 0,19 0,36 0,53 0,18 9,30 25,32 16,2 32,-8 36,-25 1,-7 1,-14 1,-19 1,-53 1,-106 3,-159 0,-12 0,-24 0,-36 0,-16 -8,-29 -24,-34 -15,-7 -28,0 -39,12 -11,14 -25,30 -35,47 -17,30 -32,59 -48,88zm-1715 578c-1,-4 -1,-8 -1,-11 1,-37 1,-73 1,-109 0,-18 0,-37 -4,-55 -12,-53 -69,-72 -112,-40 -27,20 -41,46 -45,79 -2,15 -3,30 -4,43 -2,34 -4,67 -6,102 -6,3 -13,3 -18,5 -29,9 -37,19 -35,48 2,17 10,26 23,29 13,3 22,-3 30,-19 3,-6 7,-10 14,-10 4,-1 9,-1 14,-1 37,-2 74,-3 112,-3 5,0 10,4 13,7 9,9 20,11 30,6 11,-4 17,-13 19,-25 2,-24 -4,-36 -31,-46zm-55 2c-20,2 -40,2 -60,3 -1,-9 -1,-16 -1,-23 2,-38 5,-75 8,-114 1,-18 12,-33 28,-42 11,-7 21,-3 25,11 2,9 2,20 2,29 0,42 -1,86 -1,128 0,3 -1,6 -1,8zm198 -46c3,-1 6,-1 8,-3 12,0 23,0 35,-1 13,-1 28,-3 41,-5 25,-7 42,-27 45,-53 5,-43 -23,-89 -62,-104 -12,-4 -27,-6 -40,-4 -46,10 -77,39 -86,85 -9,40 -1,78 10,117 7,24 20,42 39,59 14,15 33,21 54,19 52,-4 86,-41 101,-85 4,-13 -3,-25 -15,-32 -12,-5 -25,-1 -33,11 -4,6 -8,13 -10,20 -8,13 -19,22 -34,29 -13,5 -22,4 -33,-7 -10,-13 -18,-28 -20,-46zm-7 -56c0,-25 6,-45 29,-55 21,-10 35,-4 46,14 3,7 5,13 7,21 1,10 -3,15 -12,16 -24,2 -47,3 -70,4zm205 25c4,19 5,38 12,56 13,45 55,73 106,74 44,0 93,-32 107,-71 5,-18 1,-32 -13,-40 -13,-8 -29,-4 -40,9 -5,8 -9,16 -14,23 -15,16 -35,21 -55,16 -20,-4 -32,-19 -36,-37 -5,-23 -5,-45 0,-67 6,-20 16,-35 32,-47 14,-11 27,-10 37,4 6,4 8,10 12,16 11,14 29,19 44,10 15,-9 19,-26 8,-44 -8,-13 -17,-25 -29,-34 -32,-28 -74,-28 -107,-3 -44,35 -63,81 -64,135zm340 31c3,-1 6,-1 8,-3 12,0 23,0 35,-1 13,-1 28,-3 41,-5 25,-7 42,-27 45,-53 5,-43 -23,-89 -62,-104 -12,-4 -27,-6 -40,-4 -46,10 -77,39 -86,85 -9,40 -1,78 10,117 7,24 20,42 39,59 14,15 33,21 54,19 52,-4 86,-41 101,-85 4,-13 -3,-25 -15,-32 -12,-5 -25,-1 -33,11 -4,6 -8,13 -10,20 -8,13 -19,22 -34,29 -13,5 -22,4 -33,-7 -10,-13 -18,-28 -20,-46zm-7 -56c0,-25 6,-45 29,-55 21,-10 35,-4 46,14 3,7 5,13 7,21 1,10 -3,15 -12,16 -24,2 -47,3 -70,4zm271 163c11,0 20,2 31,0 37,-1 87,-24 100,-78 6,-24 11,-50 10,-75 0,-35 -11,-67 -38,-91 -34,-31 -75,-43 -121,-37 -26,3 -35,12 -40,37 -1,6 -1,11 -1,16 -12,121 -4,241 0,362 1,7 2,15 5,21 9,17 34,21 46,7 7,-7 9,-17 9,-25 2,-22 -1,-43 -1,-63 -1,-23 0,-46 0,-74zm-5 -59c1,-56 4,-108 5,-158 35,-7 65,11 74,40 11,30 6,61 -6,91 -6,15 -19,21 -33,24 -11,1 -23,1 -40,3zm278 -163c0,22 1,43 0,65 0,42 -1,84 -1,127 0,18 13,30 29,30 16,0 28,-10 30,-28 2,-4 2,-9 2,-14 0,-28 0,-57 1,-86 0,-33 1,-68 3,-102 10,-2 21,-2 29,-4 14,-4 24,-16 24,-29 0,-15 -11,-28 -27,-30 -8,-1 -16,-1 -24,-1 -41,3 -80,7 -122,9 -2,2 -3,2 -6,3 -15,4 -23,16 -21,30 0,14 9,26 24,28 7,2 15,0 23,2 12,0 24,0 36,0zm-2341 589c4,11 8,19 10,27 8,25 16,49 24,73 8,19 23,26 40,22 17,-5 25,-20 19,-40 -15,-41 -30,-80 -46,-121 -4,-10 -2,-16 4,-24 12,-15 23,-31 34,-47 5,-6 8,-13 10,-20 5,-14 0,-27 -13,-34 -13,-8 -28,-5 -39,7 -2,2 -3,6 -6,9 -17,24 -36,49 -53,73 -3,2 -7,5 -13,12 0,-15 0,-25 0,-36 0,-16 1,-32 -2,-46 -1,-16 -14,-26 -29,-26 -14,0 -28,11 -30,26 -2,5 0,11 0,17 -2,50 -2,99 -2,148 0,24 0,49 3,73 3,19 17,29 34,26 16,-1 27,-13 27,-31 0,-12 -1,-24 -3,-36 -2,-24 11,-37 31,-52zm323 7c1,12 1,18 1,24 2,21 3,41 6,62 1,17 13,26 28,26 17,2 29,-9 31,-26 0,-11 -1,-21 -1,-30 0,-31 -1,-61 -1,-92 0,-18 1,-38 0,-57 0,-10 -6,-22 -11,-30 -8,-11 -18,-18 -28,-27 -18,-16 -38,-24 -63,-22 -31,1 -57,12 -80,33 -53,46 -65,107 -53,173 8,48 55,68 94,43 15,-10 27,-20 37,-31 14,-13 24,-28 40,-46zm-110 21c-5,-42 -4,-82 31,-113 9,-7 22,-14 34,-18 13,-5 25,0 34,13 -27,43 -54,89 -99,118zm330 -48c16,4 20,14 19,28 -3,28 -4,57 -4,85 -2,17 9,28 23,30 14,2 27,-7 31,-22 1,-8 1,-15 3,-23 0,-17 1,-34 2,-53 0,-4 2,-10 4,-13 8,-8 19,-16 29,-24 3,7 6,11 7,16 11,29 23,59 33,89 5,13 17,23 29,20 15,-1 24,-12 25,-27 0,-6 -1,-14 -4,-20 -11,-31 -22,-64 -37,-96 -10,-23 -13,-43 6,-62 9,-11 16,-24 21,-36 8,-19 -1,-37 -19,-40 -14,-3 -24,4 -31,16 -14,20 -26,41 -39,61 -5,6 -8,14 -18,20 0,-8 0,-15 0,-20 1,-16 2,-33 4,-50 0,-19 -11,-32 -27,-32 -16,-2 -28,10 -30,29 -2,16 -2,32 -3,48 -1,4 -3,9 -4,17 -17,-20 -32,-37 -46,-55 -10,-9 -16,-19 -26,-29 -10,-12 -25,-13 -37,-5 -10,9 -14,25 -8,38 3,6 8,10 12,15 15,17 28,34 43,53 -25,42 -40,87 -52,135 -4,19 3,33 17,37 16,6 29,-2 36,-20 4,-10 7,-21 9,-31 8,-28 17,-55 32,-79zm473 79c-1,-4 -1,-8 -1,-11 1,-37 1,-73 1,-109 0,-18 0,-37 -4,-55 -12,-53 -69,-72 -113,-40 -26,20 -41,46 -45,79 -1,15 -2,30 -4,43 -1,34 -3,67 -5,102 -6,2 -13,2 -18,5 -30,9 -37,19 -35,48 2,17 9,26 23,29 13,3 22,-3 30,-19 3,-6 7,-10 13,-10 4,-2 10,-2 15,-2 37,-1 74,-2 111,-2 6,0 11,4 14,6 9,10 19,12 30,7 11,-4 17,-13 19,-25 2,-24 -4,-36 -31,-46zm-56 2c-19,2 -39,2 -59,3 -2,-9 -2,-16 -2,-23 3,-38 6,-75 8,-114 2,-18 12,-33 28,-42 12,-7 21,-3 25,11 3,9 3,19 3,29 0,42 -1,86 -1,128 0,3 -2,6 -2,8zm144 -30c5,20 13,42 29,62 38,49 107,44 136,-12 28,-56 31,-114 16,-173 -9,-36 -33,-60 -69,-69 -10,-3 -22,-3 -33,1 -34,11 -60,34 -73,69 -16,38 -16,78 -6,122zm125 -101c8,40 6,77 -8,113 -1,4 -4,9 -6,13 -9,13 -24,13 -33,3 -4,-4 -7,-7 -8,-12 -19,-37 -24,-76 -8,-116 4,-10 13,-21 22,-27 16,-10 29,-4 37,13 3,5 3,10 4,13zm259 69c-4,-11 -8,-17 -9,-24 -10,-33 -19,-66 -30,-98 -4,-13 -9,-25 -17,-36 -17,-20 -44,-17 -57,4 -4,8 -8,16 -9,25 -4,22 -8,44 -9,67 -6,50 -8,100 -12,151 -3,21 8,35 25,37 17,1 29,-9 32,-31 1,-18 2,-37 5,-55 1,-23 3,-45 4,-68 7,7 9,13 12,20 9,24 18,46 28,70 8,17 18,33 39,35 22,0 32,-16 38,-35 10,-32 19,-65 30,-98 1,-5 4,-12 5,-18 4,4 6,8 6,12 2,43 4,87 5,131 1,18 13,31 30,31 16,-1 28,-14 28,-34 -2,-64 -4,-128 -8,-193 0,-12 -4,-26 -9,-36 -9,-21 -33,-29 -52,-19 -10,7 -20,15 -26,24 -9,16 -17,33 -23,51 -10,27 -17,55 -26,87z"/>
     <path class="fil1" d="M2257 1864c-14,30 -27,64 -51,92 -9,12 -18,23 -26,35 -9,16 -5,33 8,42 13,11 30,8 42,-7 27,-33 52,-66 69,-106 36,-78 61,-160 86,-242 3,-8 4,-16 3,-24 0,-13 -9,-24 -20,-26 -12,-4 -23,-2 -31,8 -5,5 -7,12 -10,18 -13,43 -25,85 -39,126 -1,7 -5,12 -7,19 -23,-18 -36,-39 -44,-63 -9,-26 -13,-53 -12,-80 1,-16 -8,-28 -23,-31 -13,-3 -27,4 -34,17 -3,6 -4,12 -4,19 0,51 8,102 40,144 14,20 34,37 53,59zm564 -138c1,26 1,47 3,70 1,18 2,37 6,56 3,17 20,27 37,25 16,-4 26,-17 24,-36 -2,-40 -6,-78 -8,-118 -1,-24 2,-49 3,-73 1,-16 8,-21 23,-18 7,1 15,6 22,10 23,12 46,-1 46,-26 0,-16 -6,-31 -22,-36 -13,-5 -28,-8 -43,-9 -47,-6 -83,24 -87,73 -3,27 -3,57 -4,82zm215 53c5,20 13,42 29,62 38,49 107,44 136,-12 28,-56 31,-114 16,-173 -9,-36 -33,-60 -69,-69 -10,-3 -22,-3 -33,1 -34,11 -59,34 -73,69 -16,38 -16,78 -6,122zm126 -101c8,40 5,77 -8,113 -2,4 -4,9 -7,13 -9,13 -24,13 -33,3 -4,-4 -7,-7 -8,-12 -19,-37 -24,-76 -8,-116 4,-10 13,-21 23,-27 15,-10 29,-4 37,13 2,5 2,10 4,13zm115 54c4,19 5,37 12,56 13,45 55,73 106,74 44,0 93,-32 107,-71 5,-18 1,-32 -13,-40 -13,-8 -29,-4 -40,9 -5,8 -9,16 -14,23 -15,16 -35,21 -55,16 -20,-4 -32,-19 -36,-37 -5,-23 -5,-46 0,-67 6,-20 16,-35 32,-47 14,-11 27,-10 37,4 6,4 8,10 12,15 11,15 29,20 44,11 15,-9 19,-26 8,-44 -8,-13 -17,-25 -29,-34 -32,-28 -74,-28 -107,-3 -44,35 -63,81 -64,135zm360 -84c0,22 2,43 0,65 0,42 -1,84 -1,127 0,18 13,30 29,30 16,0 28,-10 31,-28 1,-4 1,-9 1,-14 0,-28 0,-57 1,-86 0,-33 2,-68 3,-102 11,-2 21,-2 29,-4 15,-4 24,-16 24,-29 0,-15 -11,-28 -27,-30 -8,-1 -15,-1 -23,-1 -42,3 -81,7 -122,9 -3,2 -4,2 -7,3 -15,4 -22,16 -21,30 0,14 9,26 24,28 8,2 16,0 24,2 11,0 23,0 35,0zm230 45c0,-27 -2,-52 -2,-77 0,-20 -12,-36 -29,-36 -17,-1 -32,12 -33,33 0,7 0,12 0,19 1,65 4,130 5,196 2,5 2,12 3,18 5,14 17,21 32,20 13,0 25,-10 28,-24 1,-5 0,-10 0,-17 -2,-22 -2,-46 -2,-71 17,2 32,5 44,6 9,24 17,47 28,65 25,46 83,56 122,21 13,-13 25,-30 31,-46 16,-36 18,-74 11,-111 -3,-23 -8,-47 -19,-65 -29,-52 -72,-63 -121,-29 -26,17 -40,41 -49,70 -3,10 -4,21 -7,32 -15,-2 -25,-3 -42,-4zm180 41c-3,13 -6,29 -10,45 -2,8 -7,14 -14,21 -8,9 -23,8 -28,-3 -22,-41 -32,-83 -15,-128 3,-8 10,-16 18,-23 14,-13 29,-10 37,8 10,24 12,51 12,80zm-2842 580c15,-18 27,-33 39,-49 10,-13 19,-25 29,-38 8,-15 5,-30 -7,-40 -10,-8 -25,-9 -37,0 -5,4 -9,9 -13,13 -23,29 -45,58 -68,88 -21,30 -17,55 15,74 17,10 37,18 55,26 12,6 26,0 32,-10 8,-10 11,-23 3,-33 -5,-7 -13,-14 -21,-19 -8,-4 -16,-7 -27,-12zm107 -24c3,-5 4,-8 7,-10 7,-7 15,-15 21,-23 6,-5 11,-11 16,-17 11,-13 11,-31 0,-41 -10,-11 -26,-13 -38,-3 -29,24 -56,50 -73,84 -7,12 -9,27 1,35 27,22 55,43 84,60 14,9 34,-3 39,-20 7,-16 -1,-29 -17,-38 -13,-8 -26,-18 -40,-27zm328 39c-4,-11 -8,-19 -10,-27 -13,-48 -26,-97 -39,-146 -7,-25 -15,-51 -31,-72 -14,-20 -43,-22 -57,-2 -5,8 -9,16 -12,24 -8,32 -14,64 -21,95 -9,56 -17,112 -26,167 -4,33 -8,67 -11,100 -3,21 12,35 31,35 17,2 29,-11 30,-33 1,-16 1,-30 4,-46 9,-66 20,-134 30,-200 3,-11 4,-20 7,-30 7,19 12,38 17,58 18,69 40,135 68,198 5,14 17,22 30,20 14,-1 26,-10 30,-23 2,-8 5,-18 5,-27 8,-64 26,-124 49,-184 9,-21 17,-41 26,-65 2,13 3,24 4,34 7,52 14,102 20,153 4,34 8,69 11,103 1,21 14,37 33,37 18,-1 32,-17 30,-38 -6,-49 -12,-98 -18,-147 -7,-53 -12,-106 -20,-159 -4,-28 -5,-56 -20,-82 -13,-22 -41,-26 -58,-7 -8,9 -15,21 -19,32 -30,75 -62,151 -83,232zm274 -164c-20,94 -7,208 32,293 10,26 29,45 57,53 33,11 69,-4 91,-35 19,-27 32,-56 39,-88 10,-54 6,-138 -2,-194 -5,-35 -16,-69 -34,-102 -21,-38 -72,-49 -109,-30 -41,24 -65,60 -74,103zm70 216c-8,-43 -33,-206 24,-256 16,-15 35,-11 41,10 28,74 37,169 20,249 -9,19 -16,72 -46,68 -24,-2 -35,-54 -39,-71zm204 -128c-1,0 -1,0 -1,0 0,45 0,107 0,152 1,19 4,39 7,57 4,30 22,45 50,51 17,2 34,4 52,2 20,0 38,-2 57,-6 18,-3 27,-16 26,-32 -3,-16 -14,-27 -32,-27 -9,0 -18,2 -29,2 -13,1 -26,2 -40,2 -23,0 -26,-1 -27,-25 -2,-41 -3,-100 -3,-143 0,-62 1,-126 1,-188 0,-5 0,-9 -1,-14 -3,-16 -13,-26 -29,-26 -15,0 -28,10 -31,26 -1,6 0,11 0,18 0,50 0,101 0,151zm246 -88c-20,94 -7,208 31,293 11,26 29,45 57,53 33,11 69,-4 92,-35 18,-27 31,-56 38,-88 11,-54 7,-138 -1,-194 -6,-35 -16,-69 -35,-102 -21,-38 -71,-49 -108,-30 -41,24 -65,60 -74,103zm70 216c-8,-43 -33,-206 24,-256 15,-15 34,-11 41,10 27,74 37,169 19,249 -9,19 -15,72 -46,68 -24,-2 -34,-54 -38,-71zm314 -105c2,6 5,13 8,20 21,66 50,127 79,189 8,18 24,24 39,17 14,-8 19,-25 12,-45 -7,-13 -12,-28 -19,-41 -28,-58 -52,-118 -70,-180 -4,-11 -3,-19 4,-28 21,-26 41,-53 61,-79 6,-8 13,-18 17,-28 7,-17 -3,-37 -20,-41 -15,-3 -24,5 -32,17 -37,48 -74,95 -111,142 -4,5 -9,9 -16,17 0,-48 0,-91 0,-134 0,-8 0,-16 -1,-24 -3,-14 -12,-24 -24,-25 -13,-3 -25,5 -29,20 -3,8 -3,17 -3,25 -1,68 -1,134 -1,201 -2,53 -4,106 -6,161 0,6 0,14 2,21 4,15 14,22 28,22 13,0 22,-7 26,-21 1,-8 1,-14 1,-22 2,-36 2,-72 3,-108 0,-10 5,-27 7,-27 14,-16 29,-32 45,-49zm195 -111c-20,94 -7,208 31,293 11,26 30,45 57,53 33,11 69,-4 92,-35 18,-27 32,-56 38,-88 11,-54 7,-138 -1,-194 -5,-35 -16,-69 -35,-102 -21,-38 -71,-49 -108,-30 -41,24 -65,60 -74,103zm70 216c-8,-43 -33,-206 24,-256 16,-15 34,-11 41,10 28,74 37,169 20,249 -10,19 -16,72 -47,68 -24,-2 -34,-54 -38,-71zm-1894 397c0,-64 9,-103 30,-135 7,-11 16,-20 25,-28 12,-8 24,-3 29,12 3,6 4,14 7,21 8,15 23,21 37,17 13,-4 23,-17 21,-33 -5,-32 -16,-61 -43,-75 -30,-16 -57,-16 -85,4 -32,21 -52,54 -65,92 -24,73 -24,146 -3,219 12,41 32,77 65,103 36,28 84,25 114,-6 31,-31 40,-71 41,-113 0,-16 -12,-28 -25,-30 -13,-2 -27,5 -32,18 -2,8 -4,16 -6,25 -4,13 -6,28 -12,41 -11,20 -28,24 -44,10 -13,-12 -25,-27 -33,-44 -16,-33 -21,-70 -21,-98zm233 138c5,19 13,42 29,62 38,49 107,44 136,-12 28,-56 31,-114 16,-174 -9,-35 -33,-59 -69,-68 -10,-3 -22,-3 -33,1 -34,10 -59,34 -73,69 -15,38 -15,78 -6,122zm126 -101c8,40 5,77 -8,113 -2,4 -4,9 -7,13 -9,13 -24,13 -33,2 -4,-4 -7,-6 -8,-11 -19,-38 -24,-76 -8,-116 4,-10 13,-21 23,-28 15,-9 29,-4 37,14 2,5 2,10 4,13zm181 192c11,0 20,1 31,0 37,-1 87,-24 100,-78 6,-24 11,-50 10,-76 0,-34 -11,-66 -37,-90 -35,-32 -76,-43 -122,-37 -25,3 -35,12 -40,37 -1,6 -1,11 -1,16 -12,121 -4,241 0,362 1,6 2,14 5,21 9,17 34,21 46,7 7,-7 10,-18 10,-26 1,-21 -2,-42 -2,-62 -1,-24 0,-46 0,-74zm-5 -60c1,-55 4,-107 5,-157 35,-7 65,10 74,40 11,30 6,60 -6,91 -6,14 -19,21 -33,24 -11,1 -23,1 -40,2zm338 -63c-4,-11 -8,-17 -9,-24 -10,-33 -19,-66 -30,-98 -4,-13 -9,-25 -17,-36 -17,-20 -44,-17 -57,4 -4,8 -8,16 -9,25 -4,22 -8,44 -9,67 -6,50 -8,100 -12,151 -3,21 8,35 25,37 17,1 29,-10 32,-31 1,-18 2,-37 5,-55 1,-23 3,-45 4,-68 7,7 9,13 12,20 9,24 18,46 28,70 8,17 18,33 39,35 22,0 32,-16 38,-35 10,-32 19,-65 30,-98 1,-5 4,-12 5,-18 4,3 6,7 6,11 2,44 4,88 5,132 1,18 13,31 30,31 16,-1 28,-14 28,-34 -2,-64 -4,-129 -8,-193 0,-12 -4,-26 -9,-36 -9,-21 -33,-29 -52,-19 -10,7 -20,15 -26,24 -9,16 -17,33 -23,50 -10,28 -17,56 -26,88zm204 32c5,19 13,42 29,62 38,49 107,44 136,-12 28,-56 31,-114 16,-174 -9,-35 -33,-59 -69,-68 -10,-3 -22,-3 -33,1 -34,10 -59,34 -72,69 -16,38 -16,78 -7,122zm126 -101c8,40 5,77 -8,113 -2,4 -4,9 -7,13 -9,13 -24,13 -33,2 -4,-4 -7,-6 -8,-11 -18,-38 -24,-76 -8,-116 4,-10 13,-21 23,-28 16,-9 29,-4 37,14 2,5 2,10 4,13zm265 24c13,-19 20,-36 16,-57 -7,-35 -39,-61 -80,-66 -17,-3 -34,-4 -51,-4 -24,0 -38,13 -38,35 3,68 2,134 2,202 0,35 14,50 51,53 12,1 26,2 37,2 44,-2 84,-14 110,-49 28,-37 18,-82 -23,-104 -7,-4 -15,-7 -24,-12zm-94 107c1,-20 2,-38 2,-60 31,-6 59,-2 86,12 14,7 16,16 4,27 -8,8 -18,14 -29,18 -18,7 -39,8 -63,3zm0 -120c0,-19 0,-36 1,-56 16,-4 30,-1 44,9 12,9 12,19 0,28 -12,8 -27,15 -40,23 -1,-2 -3,-3 -5,-4zm213 90c5,19 13,42 29,62 39,49 107,44 137,-12 27,-56 30,-114 16,-174 -10,-35 -34,-59 -69,-68 -11,-3 -23,-3 -33,1 -35,10 -60,34 -73,69 -16,38 -16,78 -7,122zm126 -101c8,40 5,77 -8,113 -1,4 -4,9 -7,13 -9,13 -24,13 -33,2 -4,-4 -6,-6 -8,-11 -18,-38 -24,-76 -8,-116 4,-10 14,-21 23,-28 16,-9 29,-4 37,14 3,5 3,10 4,13zm279 -20c-15,21 -30,40 -45,60 -14,18 -7,43 14,49 12,4 22,0 30,-8 27,-25 47,-55 61,-88 8,-16 5,-33 -7,-45 -25,-26 -51,-53 -79,-77 -16,-13 -38,-4 -45,16 -3,6 -3,12 -4,22 -12,-11 -21,-20 -30,-28 -12,-14 -28,-15 -42,-6 -13,11 -15,30 -6,44 4,7 12,12 18,19 14,12 28,24 43,37 -7,6 -11,12 -15,17 -14,17 -30,34 -45,52 -13,18 -10,37 4,47 15,11 35,4 45,-10 17,-21 36,-41 54,-61 18,-17 31,-33 24,-64 11,10 18,16 25,24z"/>
    </g>
    <path class="fil2" d="M2940 3354c-38,-52 -184,-65 -323,-80 -139,-15 -366,0 -451,0 -84,0 -77,59 -361,26 -284,-33 -326,-28 -316,13 10,41 -23,159 -1,196 22,37 215,82 327,82 113,0 416,-24 531,-30 116,-6 259,-52 334,-32 74,21 189,30 208,25 19,-6 52,-200 52,-200z"/>
    <path class="fil1" d="M1744 3391c0,3 1,6 1,8 -1,15 -1,30 -2,45 0,7 0,15 0,22 0,7 4,11 11,12 6,0 10,-4 11,-11 0,-1 0,-2 0,-4 1,-21 2,-42 2,-64 0,-5 0,-11 -1,-16 -2,-10 -8,-15 -19,-15 -7,0 -15,0 -23,1 -5,0 -11,1 -15,3 -8,3 -12,9 -13,17 -1,4 -1,9 -2,14 0,14 0,28 -1,42 0,7 0,16 0,23 0,6 4,11 9,12 6,0 10,-3 12,-9 1,-2 1,-5 1,-7 1,-16 1,-31 1,-46 1,-8 1,-17 2,-26 9,-2 17,-2 26,-1zm93 90c4,0 7,0 12,0 14,-1 33,-9 38,-30 2,-9 4,-19 4,-29 0,-13 -4,-25 -15,-35 -13,-12 -28,-16 -46,-14 -10,1 -13,5 -15,14 -1,2 -1,4 -1,6 -5,47 -2,93 0,139 1,3 1,6 2,8 4,7 13,8 18,3 2,-3 3,-7 3,-10 1,-8 0,-16 0,-24 -1,-9 0,-18 0,-28zm-2 -23c0,-21 1,-41 2,-60 13,-3 25,4 28,15 4,11 2,23 -2,35 -2,5 -7,8 -13,9 -4,0 -9,0 -15,1zm102 -12c2,7 5,16 11,24 15,18 41,16 52,-5 11,-21 12,-44 6,-66 -3,-14 -12,-23 -26,-27 -4,-1 -9,-1 -13,1 -13,4 -23,13 -28,26 -6,15 -6,30 -2,47zm48 -39c3,15 2,30 -3,43 0,2 -2,4 -3,5 -3,5 -9,5 -12,1 -2,-1 -3,-2 -3,-4 -7,-14 -9,-29 -3,-44 1,-4 5,-8 8,-11 6,-4 11,-2 15,5 1,2 1,4 1,5zm123 27c-1,-5 -3,-7 -3,-10 -4,-12 -7,-25 -11,-37 -2,-5 -4,-10 -7,-14 -6,-7 -17,-6 -22,2 -1,3 -3,6 -3,9 -2,8 -3,17 -4,26 -2,19 -3,38 -4,58 -1,8 3,13 9,14 7,0 11,-4 12,-12 1,-7 1,-14 2,-21 1,-9 1,-17 2,-26 3,2 4,5 5,8 3,9 7,17 10,26 3,7 7,13 15,14 9,0 13,-6 15,-14 4,-12 7,-24 11,-37 1,-2 2,-5 2,-7 2,1 2,3 2,4 1,17 2,34 2,51 1,7 5,12 12,12 6,-1 11,-6 11,-13 -1,-25 -2,-50 -3,-75 0,-4 -2,-9 -4,-13 -3,-8 -13,-11 -20,-7 -4,2 -7,5 -10,9 -3,6 -6,12 -8,19 -4,11 -7,21 -11,34zm103 12c2,7 5,16 11,24 15,18 41,16 52,-5 11,-21 12,-44 6,-66 -3,-14 -12,-23 -26,-27 -4,-1 -9,-1 -13,1 -13,4 -22,13 -28,26 -6,15 -6,30 -2,47zm48 -39c3,15 2,30 -3,43 0,2 -1,4 -2,5 -4,5 -10,5 -13,1 -2,-1 -3,-2 -3,-4 -7,-14 -9,-29 -3,-44 1,-4 5,-8 8,-11 7,-4 12,-2 15,5 1,2 1,4 1,5zm103 27c1,4 3,7 4,10 3,10 6,19 9,28 3,8 9,10 15,9 7,-2 10,-8 7,-15 -5,-16 -11,-31 -17,-47 -2,-4 -1,-6 1,-9 5,-6 9,-12 13,-18 2,-3 3,-5 4,-8 2,-5 0,-10 -5,-13 -5,-3 -10,-2 -15,3 -1,1 -1,2 -2,3 -7,9 -14,19 -20,28 -1,1 -3,2 -5,5 0,-6 0,-10 0,-14 0,-6 0,-12 -1,-18 0,-6 -6,-9 -11,-9 -6,0 -11,4 -12,9 0,2 0,5 0,7 0,19 0,38 0,57 0,9 0,18 1,28 1,7 6,11 13,10 6,-1 10,-5 10,-12 0,-5 0,-10 -1,-14 -1,-9 4,-14 12,-20zm84 12c2,7 5,16 11,24 15,18 41,16 52,-5 11,-21 12,-44 7,-66 -4,-14 -13,-23 -27,-27 -4,-1 -9,-1 -13,1 -13,4 -22,13 -27,26 -7,15 -7,30 -3,47zm48 -39c3,15 2,30 -3,43 0,2 -1,4 -2,5 -4,5 -10,5 -13,1 -2,-1 -3,-2 -3,-4 -7,-14 -9,-29 -3,-44 1,-4 5,-8 8,-11 7,-4 12,-2 15,5 1,2 1,4 1,5zm153 49c0,-1 0,-3 0,-4 0,-14 0,-28 0,-41 0,-7 0,-14 -1,-22 -5,-20 -26,-27 -43,-15 -10,8 -16,18 -17,31 -1,5 -1,11 -2,16 0,13 -1,26 -2,39 -3,1 -5,1 -7,2 -11,4 -14,7 -13,18 0,7 3,10 8,11 5,1 9,-1 12,-7 1,-2 3,-4 5,-4 2,0 4,0 6,0 14,-1 28,-1 42,-1 2,0 4,1 5,2 4,4 8,5 12,3 4,-2 7,-5 7,-10 1,-9 -1,-14 -12,-18zm-21 1c-7,1 -15,1 -23,1 0,-3 0,-6 0,-8 1,-15 2,-29 3,-44 0,-7 4,-13 11,-16 4,-3 8,-1 9,4 1,4 1,8 1,11 0,16 0,33 0,49 0,1 -1,2 -1,3zm91 17c6,0 11,-5 12,-12 0,-7 -5,-13 -12,-13 -7,0 -13,6 -13,12 0,7 6,13 13,13zm2 -59c6,0 11,-5 11,-11 0,-6 -5,-12 -11,-12 -6,0 -12,5 -12,11 0,7 5,12 12,12z"/>
    <path class="fil1" d="M909 3757c5,-10 12,-19 16,-31 12,-32 6,-68 -16,-88 -22,-18 -47,-24 -74,-18 -8,1 -14,4 -20,5 -18,4 -25,12 -25,30 -3,58 -6,115 -7,174 0,40 2,81 3,121 1,20 20,36 38,35 18,0 37,-1 55,-3 44,-6 77,-27 90,-72 4,-15 6,-33 6,-48 -2,-28 -5,-55 -26,-76 -12,-10 -26,-19 -40,-29zm-76 179c0,-35 0,-66 -1,-96 0,-10 4,-16 12,-20 16,-8 33,-11 49,-11 11,0 19,5 23,16 13,26 15,53 4,81 -8,15 -21,24 -37,26 -16,3 -32,2 -50,4zm1 -176c1,-15 2,-24 2,-35 1,-14 2,-29 2,-44 1,-11 4,-14 17,-14 18,0 29,12 27,31 -1,14 -8,24 -16,34 -8,10 -18,18 -32,28zm224 132c-2,0 -3,-1 -4,-1 1,-23 2,-46 2,-70 2,-16 3,-32 2,-48 0,-11 -10,-18 -21,-19 -12,-1 -22,5 -26,17 -1,5 -1,10 -2,15 -1,44 -3,87 -4,131 -1,14 0,28 2,43 4,22 25,32 45,20 8,-4 14,-10 19,-18 13,-20 24,-40 36,-60 4,-6 7,-12 10,-18 4,14 4,28 4,40 0,15 0,29 0,42 0,15 8,25 20,26 13,2 26,-7 29,-20 1,-6 1,-11 1,-15 1,-42 1,-84 2,-126 0,-9 0,-19 0,-28 0,-13 -6,-23 -19,-27 -12,-6 -22,0 -30,9 -10,12 -20,24 -29,38 -13,23 -25,46 -37,69zm274 -82c0,10 1,17 0,24 -3,39 -6,77 -9,116 -1,8 -1,16 1,24 3,11 13,19 24,19 11,-1 20,-9 23,-20 1,-3 1,-7 1,-10 3,-44 6,-88 8,-132 1,-12 0,-26 -2,-39 -3,-16 -15,-29 -32,-29 -25,-1 -51,-1 -76,2 -19,2 -27,15 -28,33 -1,6 -1,11 -1,17 1,18 1,37 1,55 0,21 -2,41 -10,61 -5,0 -8,-1 -12,-1 -18,1 -29,16 -23,33 6,23 36,35 56,20 8,-6 16,-14 19,-23 7,-18 14,-36 16,-54 3,-25 1,-49 2,-74 0,-6 0,-13 0,-22 15,0 26,0 42,0zm206 0c0,10 1,17 0,24 -3,39 -6,77 -8,116 -2,8 -2,16 1,24 2,11 12,19 23,19 11,-1 21,-9 23,-20 1,-3 1,-7 1,-10 3,-44 6,-88 8,-132 1,-12 0,-26 -2,-39 -3,-16 -15,-29 -31,-29 -26,-1 -52,-1 -77,2 -19,2 -27,15 -28,33 -1,6 -1,11 -1,17 1,18 1,37 1,55 0,21 -2,41 -10,61 -5,0 -8,-1 -12,-1 -18,1 -29,16 -23,33 6,23 36,35 56,20 8,-6 16,-14 19,-23 7,-18 14,-36 16,-54 3,-25 1,-49 2,-74 0,-6 0,-13 0,-22 15,0 26,0 42,0zm210 90c1,10 1,15 1,19 1,17 2,33 4,50 2,13 11,20 22,20 14,2 24,-7 26,-20 0,-9 -1,-17 -1,-25 0,-24 -1,-48 -1,-72 0,-15 1,-30 0,-45 0,-8 -5,-18 -9,-24 -6,-9 -15,-14 -22,-21 -15,-13 -30,-19 -50,-18 -24,1 -45,9 -63,26 -42,37 -51,85 -42,138 6,37 43,53 74,33 12,-7 21,-16 30,-24 10,-10 19,-22 31,-37zm-87 17c-4,-33 -3,-65 24,-89 8,-6 18,-12 28,-15 10,-4 19,0 27,11 -22,33 -43,70 -79,93zm342 24c-1,-3 -1,-6 -1,-8 1,-29 1,-58 1,-86 0,-15 0,-29 -4,-44 -9,-42 -54,-57 -89,-32 -21,16 -32,37 -35,63 -1,12 -2,23 -3,34 -2,27 -4,53 -5,81 -5,2 -10,2 -14,4 -23,7 -30,14 -28,38 1,13 8,20 18,23 11,2 18,-3 24,-15 2,-5 6,-8 11,-8 3,-2 7,-2 11,-2 30,-1 59,-2 88,-2 5,0 9,4 11,6 7,7 16,9 24,5 8,-3 14,-11 15,-20 2,-19 -3,-28 -24,-37zm-44 2c-16,1 -32,1 -48,2 -1,-7 -1,-12 -1,-17 2,-31 4,-60 7,-91 1,-14 9,-26 22,-33 9,-5 16,-2 20,8 2,8 2,16 2,23 0,34 -1,69 -1,102 0,2 -1,4 -1,6zm171 -64c13,4 16,11 15,22 -2,22 -3,45 -3,68 -1,13 7,22 18,24 11,1 21,-7 25,-18 1,-6 1,-12 2,-18 0,-14 1,-27 2,-42 0,-3 1,-8 3,-10 6,-7 15,-13 23,-19 2,5 4,8 5,12 9,23 18,46 26,71 5,10 14,17 23,15 12,-1 19,-9 20,-21 0,-5 -1,-11 -3,-15 -9,-26 -18,-52 -29,-77 -8,-18 -11,-34 4,-49 7,-9 13,-19 17,-29 6,-14 -1,-29 -15,-31 -11,-2 -19,3 -25,13 -10,15 -20,32 -30,48 -5,5 -7,11 -15,15 0,-6 0,-11 0,-15 1,-13 2,-26 3,-40 0,-15 -8,-25 -21,-25 -12,-1 -22,8 -24,23 -1,12 -1,25 -2,38 -1,3 -2,7 -3,13 -14,-16 -25,-29 -37,-43 -7,-7 -13,-16 -20,-23 -8,-9 -20,-10 -29,-4 -9,7 -12,20 -6,30 2,5 6,8 9,12 11,14 22,27 33,42 -19,33 -31,69 -40,107 -4,14 2,26 13,29 13,4 23,-2 29,-16 3,-8 5,-16 7,-25 6,-22 14,-43 25,-62zm290 -48c0,-1 0,-1 0,-1 30,0 60,0 90,0 11,0 19,-7 23,-17 3,-11 1,-23 -9,-28 -6,-4 -15,-6 -23,-6 -20,0 -40,2 -60,2 -34,0 -67,-1 -100,-2 -13,0 -23,6 -27,18 -3,10 2,24 14,29 9,3 19,4 28,5 21,0 43,0 64,0zm315 110c-1,-3 -1,-6 -1,-8 1,-29 1,-58 1,-86 0,-15 0,-29 -3,-44 -9,-42 -54,-57 -89,-32 -21,16 -33,37 -36,63 -1,12 -2,23 -3,34 -1,27 -3,53 -4,81 -5,2 -11,2 -15,4 -23,7 -29,14 -27,38 1,13 7,21 18,23 10,2 18,-2 24,-15 2,-5 5,-8 10,-8 4,-2 8,-2 12,-2 29,-1 59,-2 88,-2 4,0 8,4 11,6 7,7 15,9 24,5 8,-3 13,-11 14,-20 2,-19 -3,-28 -24,-37zm-44 2c-16,1 -31,1 -47,2 -1,-7 -1,-12 -1,-17 2,-31 4,-60 6,-91 1,-14 10,-26 22,-33 10,-5 17,-2 20,8 2,8 2,16 2,23 0,34 -1,69 -1,102 0,2 -1,4 -1,6zm142 -36c2,-1 4,-1 7,-2 9,0 17,0 27,-1 10,-2 22,-3 32,-5 20,-5 34,-21 36,-42 4,-33 -18,-70 -49,-81 -10,-4 -21,-6 -32,-4 -36,8 -61,31 -68,68 -7,31 -1,61 9,92 5,19 15,33 30,47 11,12 26,17 43,15 41,-3 68,-33 80,-67 3,-11 -3,-20 -12,-26 -9,-4 -20,-1 -26,9 -3,5 -6,10 -9,16 -6,10 -14,17 -26,23 -10,4 -18,3 -26,-6 -8,-10 -15,-22 -16,-36zm-6 -44c0,-20 5,-36 23,-44 17,-8 28,-4 37,11 2,5 4,11 5,17 1,7 -2,11 -9,12 -19,2 -37,3 -56,4zm147 20c4,14 5,29 10,44 10,35 44,57 84,58 34,0 73,-25 85,-56 4,-14 1,-25 -11,-32 -10,-6 -23,-3 -31,8 -4,6 -8,12 -12,17 -11,13 -27,17 -43,13 -16,-3 -25,-15 -28,-29 -4,-18 -4,-36 0,-53 4,-16 12,-28 25,-38 11,-8 21,-7 29,4 5,3 7,8 10,12 8,12 23,16 34,9 12,-8 15,-21 7,-35 -7,-11 -14,-20 -23,-27 -25,-22 -59,-22 -85,-2 -35,27 -50,64 -51,107zm255 24c2,-1 4,-1 6,-2 9,0 18,0 27,-1 11,-2 22,-3 33,-5 20,-5 33,-21 35,-42 5,-33 -17,-70 -49,-81 -9,-4 -21,-6 -31,-4 -37,8 -61,31 -68,68 -8,31 -1,61 8,92 5,19 16,33 30,47 12,12 27,17 43,15 41,-3 69,-33 80,-67 3,-11 -2,-20 -11,-26 -10,-4 -20,-1 -27,9 -3,5 -6,10 -8,16 -6,10 -15,17 -26,23 -11,4 -18,3 -27,-6 -8,-10 -14,-22 -15,-36zm-7 -44c0,-20 6,-36 24,-44 16,-8 28,-4 36,11 2,5 4,11 5,17 2,7 -2,11 -9,12 -19,2 -37,3 -56,4zm200 129c9,0 16,1 24,0 30,-1 70,-19 80,-62 4,-19 8,-40 7,-60 0,-27 -8,-52 -29,-71 -27,-25 -60,-35 -96,-30 -20,2 -28,10 -32,30 -1,4 -1,8 -1,12 -9,96 -3,191 0,286 1,6 2,12 4,17 8,14 28,17 37,5 5,-5 7,-13 7,-19 1,-17 -1,-34 -1,-50 -1,-19 0,-36 0,-58zm-4 -48c1,-44 3,-85 4,-124 28,-6 52,8 59,31 8,24 4,48 -5,72 -4,12 -15,17 -26,19 -9,1 -18,1 -32,2zm205 -129c0,18 1,35 0,52 0,33 -1,67 -1,100 0,15 11,25 23,25 13,0 22,-9 24,-22 1,-4 1,-8 1,-12 0,-22 0,-45 1,-68 0,-26 1,-54 2,-81 9,-1 17,-1 24,-3 11,-3 18,-13 18,-23 0,-12 -8,-22 -21,-23 -6,-1 -12,-1 -18,-1 -33,2 -64,5 -97,7 -2,1 -3,1 -5,2 -12,3 -18,13 -17,24 0,11 7,20 19,22 6,1 13,0 19,1 9,0 19,0 28,0z"/>
   </g>
  </g>
 </g>
</svg>
