<?xml version="1.0" encoding="UTF-8"?>
<!DOCTYPE svg PUBLIC "-//W3C//DTD SVG 1.1//EN" "http://www.w3.org/Graphics/SVG/1.1/DTD/svg11.dtd">
<!-- Creator: CorelDRAW X6 -->
<svg xmlns="http://www.w3.org/2000/svg" xml:space="preserve" width="45mm" height="45mm" version="1.1" style="shape-rendering:geometricPrecision; text-rendering:geometricPrecision; image-rendering:optimizeQuality; fill-rule:evenodd; clip-rule:evenodd"
viewBox="0 0 4500 4500"
 xmlns:xlink="http://www.w3.org/1999/xlink">
 <defs>
  <style type="text/css">
   <![CDATA[
    .str0 {stroke:black;stroke-width:75}
    .fil2 {fill:black}
    .fil0 {fill:#E94F42}
    .fil1 {fill:#FEFEFE;fill-rule:nonzero}
   ]]>
  </style>
 </defs>
 <g id="Слой_x0020_1">
  <metadata id="CorelCorpID_0Corel-Layer"/>
  <g id="_367585048">
   <path class="fil0 str0" d="M371 4220c0,0 -121,-140 -126,-669 -6,-529 -23,-2140 -25,-2323 -2,-182 -116,-533 15,-701 131,-168 95,-285 709,-291 614,-7 1936,-20 2185,-23 249,-3 836,-152 1001,61 165,213 191,676 198,1284 6,609 -149,1352 -98,1743 52,391 133,749 39,840 -94,92 -504,169 -1367,178 -862,9 -1804,19 -2019,21 -214,3 -512,-120 -512,-120z"/>
   <g>
    <g>
     <path class="fil1" d="M1177 723c0,-57 9,-92 28,-121 6,-10 14,-18 23,-25 10,-7 21,-3 26,11 2,6 3,13 6,19 7,13 20,19 33,15 12,-3 20,-15 19,-30 -5,-28 -14,-54 -39,-68 -26,-14 -51,-14 -76,4 -29,19 -47,49 -59,83 -21,66 -21,132 -2,197 11,37 28,69 58,93 32,25 75,23 103,-6 27,-27 35,-63 37,-101 0,-14 -11,-25 -23,-28 -12,-1 -24,5 -29,17 -2,7 -3,14 -6,23 -3,12 -4,25 -10,37 -10,18 -25,21 -40,8 -12,-11 -22,-24 -29,-39 -15,-30 -20,-63 -20,-89zm254 97c4,10 8,17 10,24 7,23 14,44 21,65 8,18 21,24 36,21 16,-5 23,-18 17,-36 -13,-37 -26,-73 -41,-110 -3,-8 -2,-14 4,-21 11,-13 20,-28 30,-42 5,-6 7,-12 9,-18 5,-13 0,-25 -12,-31 -12,-7 -25,-5 -34,6 -3,3 -4,6 -6,9 -16,21 -32,44 -48,65 -2,2 -6,5 -12,11 0,-13 0,-23 0,-32 0,-15 1,-29 -1,-42 -1,-14 -13,-23 -26,-23 -13,0 -25,10 -28,23 -1,5 0,11 0,15 -1,46 -1,90 -1,134 0,21 0,44 3,65 2,17 15,27 31,24 14,-1 23,-12 23,-28 0,-11 -1,-22 -2,-32 -2,-22 10,-34 27,-47zm165 -4c-1,0 -2,-1 -4,-1 2,-26 3,-52 3,-80 1,-17 2,-35 1,-53 0,-13 -11,-22 -24,-23 -13,-1 -25,6 -28,20 -2,5 -2,11 -3,17 -1,50 -3,99 -5,149 -1,16 0,32 3,49 5,25 28,36 51,23 8,-5 16,-12 22,-21 14,-22 27,-45 40,-68 5,-7 8,-14 12,-21 5,17 5,32 5,46 0,17 0,33 0,48 0,17 8,28 22,29 15,2 29,-7 33,-23 1,-6 1,-12 1,-17 1,-47 1,-95 2,-143 0,-10 0,-21 0,-32 0,-14 -7,-26 -21,-31 -13,-6 -25,0 -35,11 -11,13 -23,27 -32,43 -16,26 -29,52 -43,78zm347 56c-1,-3 -1,-7 -1,-9 1,-33 1,-66 1,-98 0,-16 0,-33 -4,-50 -10,-48 -62,-64 -101,-36 -24,18 -37,42 -40,72 -2,13 -3,26 -4,38 -1,31 -4,61 -5,92 -6,2 -12,2 -16,5 -27,8 -34,16 -31,43 1,15 8,23 20,26 12,2 20,-3 27,-17 3,-6 6,-9 12,-9 4,-2 8,-2 13,-2 34,-1 67,-2 100,-2 5,0 10,4 12,6 9,8 18,11 28,6 9,-4 15,-12 16,-23 3,-21 -3,-32 -27,-42zm-50 3c-18,1 -36,1 -54,2 -1,-8 -1,-14 -1,-20 2,-35 5,-68 7,-103 1,-16 11,-29 25,-38 11,-6 19,-2 23,10 2,8 2,18 2,26 0,38 -1,78 -1,116 0,2 -1,4 -1,7zm173 -55c3,10 7,17 9,24 8,23 15,44 22,65 7,18 20,24 36,21 15,-5 22,-18 16,-36 -13,-37 -26,-73 -40,-110 -4,-8 -3,-14 3,-21 11,-13 21,-28 30,-42 5,-6 7,-12 10,-18 4,-13 0,-25 -12,-31 -12,-7 -25,-5 -35,6 -2,3 -3,6 -6,9 -15,21 -32,44 -47,65 -3,2 -6,5 -12,11 0,-13 0,-23 0,-32 0,-15 1,-29 -2,-42 -1,-14 -13,-23 -26,-23 -13,0 -25,10 -27,23 -1,5 0,11 0,15 -1,46 -1,90 -1,134 0,21 0,44 2,65 2,17 15,27 31,24 14,-1 24,-12 24,-28 0,-11 -1,-22 -3,-32 -2,-22 10,-34 28,-47zm262 6c1,11 1,17 1,21 2,20 3,37 5,56 1,16 12,24 25,24 16,2 26,-8 29,-24 0,-9 -1,-19 -1,-27 0,-27 -2,-55 -2,-82 0,-17 2,-35 0,-51 0,-10 -4,-21 -9,-28 -7,-9 -17,-15 -25,-24 -17,-14 -35,-21 -57,-20 -28,1 -52,11 -72,30 -48,42 -58,96 -48,156 8,43 49,61 85,38 13,-8 24,-18 33,-27 12,-12 22,-25 36,-42zm-99 19c-5,-38 -3,-74 28,-101 8,-7 20,-13 31,-17 12,-5 22,0 31,12 -25,38 -49,80 -90,106zm613 -164c-1,10 -1,25 -2,33 0,57 -2,114 -2,173 0,19 14,30 30,28 17,-1 29,-16 28,-34 -2,-7 -3,-14 -3,-22 0,-48 1,-97 3,-146 1,-34 2,-68 2,-103 0,-18 -8,-28 -21,-32 -14,-4 -25,1 -34,12 -20,25 -40,51 -59,77 -10,12 -8,27 3,36 11,10 25,10 37,-1 5,-4 13,-17 18,-21zm138 -68c12,0 22,0 33,0 11,0 23,0 35,-3 15,-3 22,-15 21,-28 -2,-12 -11,-23 -25,-23 -23,-1 -47,-2 -71,0 -30,2 -44,17 -48,46 -1,15 -1,30 -1,45 -1,23 -2,47 -2,71 0,23 12,36 30,33 7,-1 13,-5 19,-9 11,-10 22,-17 38,-18 9,-1 17,2 19,12 1,5 4,10 4,14 0,30 -5,60 -18,87 -6,12 -15,22 -29,27 -12,-10 -13,-22 -13,-35 0,-12 -7,-20 -18,-25 -11,-4 -20,0 -27,7 -10,7 -12,17 -12,29 2,20 10,39 24,56 17,25 44,30 71,16 19,-8 34,-20 44,-37 30,-44 37,-94 30,-146 -6,-37 -33,-67 -85,-59 -6,0 -12,2 -19,2 0,-21 0,-41 0,-62zm372 -44c-1,-14 -4,-23 -15,-28 -10,-5 -19,-5 -28,3 -6,4 -9,11 -12,17 -23,44 -46,90 -70,134 -30,58 -62,117 -93,175 -12,23 -8,41 9,48 16,8 29,0 41,-23 15,-30 30,-58 46,-88 38,-73 76,-144 114,-217 5,-7 6,-16 8,-21zm-250 70c1,50 37,76 79,59 20,-8 37,-21 49,-40 15,-25 13,-56 -6,-79 -5,-6 -11,-10 -17,-15 -20,-18 -41,-19 -62,-4 -29,20 -41,49 -43,79zm54 7c4,-13 7,-21 10,-33 8,3 12,6 17,8 2,7 -6,17 -27,25zm156 248c33,1 69,-29 76,-63 4,-20 -1,-38 -15,-54 -27,-28 -84,-33 -105,1 -10,17 -17,34 -18,53 0,37 25,63 62,63zm-6 -57c1,-7 2,-15 6,-22 2,-6 13,-6 18,-1 6,5 3,11 -2,14 -4,5 -11,9 -17,12 -2,-1 -4,-2 -5,-3zm-2097 381c0,7 1,14 1,20 -1,35 -2,70 -3,105 0,16 -2,34 -2,52 2,16 11,26 26,27 14,0 25,-9 27,-26 0,-2 0,-5 0,-8 1,-50 4,-100 5,-150 0,-13 -1,-26 -4,-38 -5,-23 -19,-35 -43,-35 -18,0 -37,-2 -55,1 -12,0 -25,3 -35,7 -18,7 -29,21 -31,41 -2,10 -3,21 -4,32 -1,33 -1,66 -2,99 -2,18 -2,37 -2,54 0,15 10,26 23,28 13,1 24,-7 28,-22 2,-4 2,-10 2,-15 1,-37 1,-72 2,-108 1,-20 3,-40 4,-60 21,-6 42,-5 63,-4zm131 211c10,0 18,1 28,0 33,-1 78,-21 90,-70 5,-21 10,-45 9,-68 0,-31 -10,-60 -34,-81 -31,-29 -68,-39 -109,-33 -23,2 -31,10 -36,33 -1,5 -1,10 -1,14 -11,109 -4,217 0,326 1,6 2,13 4,19 9,15 31,19 42,6 6,-6 8,-16 8,-23 2,-19 -1,-38 -1,-56 -1,-21 0,-42 0,-67zm-5 -53c2,-50 4,-97 5,-142 31,-6 59,9 67,36 10,27 5,54 -6,82 -5,13 -17,19 -30,21 -9,1 -20,1 -36,3zm207 -60c-1,0 -3,-1 -4,-1 1,-26 3,-53 3,-80 1,-18 2,-36 1,-54 0,-13 -11,-21 -24,-22 -13,-1 -25,6 -29,20 -1,5 -1,11 -2,17 -1,50 -4,99 -5,149 -1,15 0,32 3,49 4,25 28,35 51,22 8,-5 15,-12 21,-20 15,-23 28,-45 41,-68 5,-7 8,-14 12,-21 4,16 4,32 4,46 0,17 0,32 0,48 0,16 9,27 23,28 14,3 29,-7 32,-22 2,-6 2,-12 2,-17 1,-48 1,-95 2,-143 0,-11 0,-22 0,-32 0,-15 -7,-26 -22,-31 -13,-6 -25,0 -34,10 -11,14 -23,28 -32,43 -16,27 -29,53 -43,79zm644 -98c0,7 1,14 1,20 -1,35 -3,70 -4,105 0,16 -1,34 -1,52 1,16 11,26 25,27 14,0 25,-9 27,-26 0,-2 0,-5 0,-8 2,-50 4,-100 5,-150 0,-13 -1,-26 -3,-38 -5,-23 -19,-35 -43,-35 -18,0 -37,-2 -55,1 -12,0 -25,3 -36,7 -18,7 -29,21 -31,41 -1,10 -2,21 -3,32 -2,33 -2,66 -3,99 -1,18 -1,37 -1,54 0,15 9,26 23,28 13,1 23,-7 27,-22 2,-4 2,-10 2,-15 2,-37 2,-72 3,-108 1,-20 2,-40 3,-60 22,-6 42,-5 64,-4zm78 129c5,18 12,38 26,56 35,44 97,39 123,-11 25,-50 28,-102 15,-156 -9,-32 -30,-53 -62,-62 -10,-2 -21,-2 -30,1 -31,10 -54,31 -66,62 -14,35 -14,71 -6,110zm114 -91c7,36 4,70 -8,102 -1,3 -3,8 -6,12 -8,12 -21,12 -29,2 -4,-4 -6,-6 -8,-11 -16,-33 -21,-68 -7,-103 4,-10 12,-19 21,-25 14,-9 26,-4 33,12 2,4 2,9 4,11zm155 64c3,9 7,16 9,23 7,23 14,45 22,66 7,18 20,24 35,20 16,-4 23,-18 17,-35 -13,-37 -26,-73 -41,-110 -3,-8 -2,-14 4,-22 11,-13 20,-27 30,-41 5,-6 7,-12 9,-18 5,-13 0,-25 -12,-31 -11,-7 -25,-5 -34,6 -3,2 -4,6 -6,8 -16,22 -32,44 -48,66 -2,2 -6,4 -12,10 0,-13 0,-22 0,-32 0,-14 2,-28 -1,-41 -1,-15 -13,-23 -26,-23 -13,0 -25,9 -28,23 -1,4 0,10 0,15 -1,45 -1,89 -1,134 0,21 0,44 3,65 2,17 15,26 31,24 14,-1 24,-12 24,-29 0,-10 -2,-21 -3,-32 -2,-21 10,-33 28,-46zm188 103c-12,28 -24,59 -45,84 -9,10 -17,20 -24,31 -9,14 -5,30 7,38 12,9 27,7 38,-6 24,-30 47,-60 62,-95 32,-71 55,-145 78,-219 2,-7 3,-14 2,-21 0,-12 -8,-21 -18,-24 -11,-3 -20,-1 -27,7 -5,5 -7,11 -10,17 -12,38 -23,76 -34,113 -2,6 -5,11 -8,17 -20,-16 -32,-35 -39,-56 -8,-24 -12,-48 -11,-73 2,-14 -7,-25 -20,-27 -12,-3 -25,3 -31,15 -2,5 -3,11 -3,17 0,46 7,92 35,130 13,18 31,33 48,52zm261 -205c0,7 1,14 1,20 -1,35 -2,70 -3,105 0,16 -1,34 -1,52 1,16 10,26 25,27 14,0 25,-9 27,-26 0,-2 0,-5 0,-8 1,-50 4,-100 5,-150 0,-13 -1,-26 -4,-38 -5,-23 -19,-35 -43,-35 -18,0 -37,-2 -55,1 -12,0 -25,3 -35,7 -18,7 -29,21 -31,41 -2,10 -3,21 -4,32 -1,33 -1,66 -2,99 -2,18 -2,37 -2,54 0,15 10,26 23,28 13,1 24,-7 28,-22 2,-4 2,-10 2,-15 1,-37 1,-72 2,-108 2,-20 3,-40 4,-60 21,-6 42,-5 63,-4zm152 102c3,9 7,16 9,23 7,23 14,45 22,66 7,18 20,24 35,20 16,-4 23,-18 17,-35 -13,-37 -26,-73 -41,-110 -3,-8 -2,-14 4,-22 11,-13 20,-27 30,-41 5,-6 7,-12 9,-18 5,-13 0,-25 -12,-31 -11,-7 -25,-5 -34,6 -3,2 -4,6 -6,8 -16,22 -32,44 -48,66 -2,2 -6,4 -12,10 0,-13 0,-22 0,-32 0,-14 2,-28 -1,-41 -1,-15 -13,-23 -26,-23 -13,0 -25,9 -28,23 -1,4 0,10 0,15 -1,45 -1,89 -1,134 0,21 0,44 3,65 2,17 15,26 31,24 14,-1 24,-12 24,-29 0,-10 -2,-21 -3,-32 -2,-21 10,-33 28,-46zm162 13c2,-1 4,-1 7,-3 11,0 20,0 31,-1 12,-1 25,-2 37,-5 22,-6 38,-23 40,-47 5,-38 -20,-80 -56,-93 -10,-4 -24,-6 -35,-4 -42,9 -70,35 -78,76 -8,36 -1,71 10,105 6,22 18,38 34,54 13,13 30,19 49,17 47,-4 78,-37 91,-77 3,-12 -3,-22 -13,-28 -11,-5 -23,-1 -30,9 -4,6 -7,12 -10,18 -7,12 -16,20 -30,26 -12,5 -20,4 -29,-6 -10,-11 -17,-25 -18,-41zm-7 -50c0,-23 6,-41 26,-50 19,-9 32,-4 42,13 2,6 4,12 5,19 2,8 -2,13 -10,14 -22,1 -42,2 -63,4zm-2622 564c4,17 12,38 26,56 34,44 96,39 123,-11 25,-50 27,-103 14,-156 -8,-32 -30,-54 -62,-62 -10,-3 -20,-3 -30,1 -31,10 -53,31 -65,62 -15,35 -15,70 -6,110zm113 -91c7,36 5,69 -7,101 -1,4 -4,9 -6,12 -9,12 -22,12 -30,3 -4,-4 -6,-6 -7,-11 -17,-33 -22,-68 -7,-104 3,-9 12,-19 20,-25 14,-8 26,-3 33,12 3,5 3,10 4,12zm150 -27c0,20 1,39 0,58 0,38 -1,76 -1,114 0,17 12,28 26,28 14,0 25,-10 28,-25 1,-4 1,-9 1,-13 0,-25 0,-52 1,-78 0,-30 1,-61 2,-92 10,-1 19,-1 27,-3 13,-4 21,-14 21,-26 0,-13 -10,-25 -24,-27 -7,-1 -14,-1 -21,-1 -37,3 -73,6 -110,9 -2,1 -4,1 -6,2 -13,4 -20,14 -19,27 0,12 8,23 21,25 8,2 15,0 22,2 11,0 21,0 32,0zm556 -49c-2,10 -2,25 -3,33 0,57 -1,115 -1,173 0,19 13,30 30,29 17,-2 29,-17 27,-35 -1,-7 -2,-14 -2,-21 0,-49 1,-98 2,-147 2,-33 3,-68 3,-103 0,-17 -9,-28 -22,-32 -13,-3 -25,1 -33,12 -20,25 -41,51 -60,78 -9,12 -7,26 4,35 11,10 25,10 37,-1 5,-3 13,-16 18,-21zm71 56c3,19 4,37 6,56 1,12 5,24 9,36 6,22 16,44 32,62 32,35 77,36 109,2 14,-14 25,-31 33,-48 22,-45 31,-94 23,-144 -7,-50 -25,-94 -72,-120 -37,-21 -83,-17 -108,23 -6,11 -10,22 -15,34 -12,32 -16,65 -17,99zm160 -5c-4,42 -10,81 -37,116 -15,20 -29,19 -42,-5 -7,-14 -14,-30 -18,-45 -9,-41 -8,-81 0,-122 2,-8 5,-18 9,-26 9,-24 31,-30 51,-15 10,9 17,20 23,30 6,11 8,23 10,35 3,11 3,21 4,32zm70 5c3,19 4,37 6,56 2,12 5,24 9,36 6,22 16,44 32,62 32,35 77,36 110,2 13,-14 25,-31 32,-48 22,-45 31,-94 24,-144 -8,-50 -25,-94 -73,-120 -37,-21 -82,-17 -107,23 -6,11 -11,22 -16,34 -12,32 -15,65 -17,99zm160 -5c-3,42 -9,81 -37,116 -15,20 -28,19 -42,-5 -7,-14 -14,-30 -17,-45 -10,-41 -9,-81 0,-122 1,-8 4,-18 8,-26 9,-24 31,-30 51,-15 10,9 17,20 23,30 6,11 8,23 11,35 2,11 2,21 3,32z"/>
     <path class="fil1" d="M2018 1736c2,19 3,37 5,56 2,12 5,24 9,36 6,22 17,44 32,62 32,35 77,36 110,2 13,-14 25,-31 32,-48 23,-45 31,-94 24,-144 -7,-50 -25,-94 -73,-120 -37,-21 -82,-17 -107,23 -6,11 -11,22 -16,34 -12,32 -15,65 -16,99zm159 -5c-3,42 -9,81 -37,116 -15,20 -28,19 -41,-5 -8,-14 -15,-30 -18,-45 -10,-41 -9,-81 0,-122 1,-8 4,-18 8,-26 10,-24 31,-30 51,-15 10,9 17,20 23,30 6,11 8,23 11,35 2,11 2,21 3,32zm503 198c10,0 18,1 28,0 33,-1 78,-22 90,-70 5,-22 10,-46 9,-68 0,-31 -10,-60 -34,-81 -31,-29 -68,-40 -109,-34 -23,3 -31,11 -36,34 -1,4 -1,9 -1,14 -11,108 -4,217 0,325 1,6 2,13 4,19 9,16 31,19 42,6 6,-6 9,-15 9,-22 1,-19 -2,-39 -2,-56 -1,-22 0,-42 0,-67zm-4 -54c1,-50 3,-96 4,-142 31,-6 59,10 67,36 10,28 5,55 -6,82 -5,14 -17,19 -30,22 -9,1 -20,1 -35,2zm230 48c-12,27 -24,58 -46,83 -8,11 -16,21 -23,31 -9,15 -5,30 7,38 12,10 27,8 38,-5 24,-30 46,-60 62,-96 32,-70 55,-144 77,-218 3,-7 4,-14 3,-21 0,-12 -9,-22 -18,-24 -11,-4 -20,-1 -28,7 -4,5 -7,11 -9,17 -12,38 -23,76 -35,113 -1,6 -4,11 -7,17 -20,-16 -32,-35 -39,-57 -9,-23 -12,-47 -11,-72 1,-15 -7,-25 -20,-28 -12,-2 -25,4 -31,16 -3,5 -4,11 -4,17 0,46 7,91 36,129 13,18 31,34 48,53zm196 -250c-2,-47 16,-86 54,-114 13,-9 29,-15 44,-21 18,-6 26,-17 24,-32 -4,-16 -15,-24 -35,-22 -8,1 -16,3 -22,6 -59,26 -103,68 -116,133 -6,31 -7,63 -7,94 1,56 6,111 8,165 2,36 27,53 61,41 13,-5 26,-12 38,-19 46,-26 67,-68 67,-119 0,-33 -12,-60 -38,-81 -23,-18 -49,-27 -78,-31zm-2 59c38,-1 63,23 63,56 -1,36 -19,61 -55,77 -6,-46 -6,-90 -8,-133zm286 -9c0,10 1,19 0,27 -3,44 -7,87 -9,131 -1,10 -1,19 1,28 2,13 14,21 26,21 13,-1 24,-9 26,-23 2,-3 2,-7 2,-10 3,-50 7,-100 9,-151 1,-14 0,-29 -2,-44 -4,-19 -17,-33 -36,-33 -29,-1 -58,-1 -87,2 -22,3 -31,17 -32,37 -1,8 -1,13 -1,21 1,20 1,41 1,62 0,23 -3,46 -11,69 -6,0 -10,-1 -14,-1 -21,1 -32,19 -27,38 8,26 42,39 65,22 8,-7 18,-16 21,-26 9,-20 16,-40 18,-62 4,-27 1,-55 3,-83 0,-7 0,-16 0,-25 16,0 29,0 47,0zm128 109c2,-1 5,-1 7,-2 11,0 20,0 31,-1 12,-1 25,-3 37,-5 23,-6 38,-24 40,-48 5,-38 -20,-80 -56,-93 -10,-3 -23,-6 -35,-3 -42,8 -69,34 -78,76 -8,36 -1,70 10,105 6,21 18,38 34,54 13,13 30,19 49,16 47,-3 78,-37 91,-76 3,-12 -3,-23 -13,-29 -11,-4 -23,-1 -30,10 -4,6 -7,12 -10,18 -7,12 -16,20 -29,26 -12,5 -21,4 -30,-6 -10,-12 -17,-25 -18,-42zm-7 -50c0,-22 6,-40 26,-50 19,-8 32,-3 42,13 2,6 4,12 6,19 1,9 -3,13 -11,15 -22,1 -42,2 -63,3zm267 -188c-13,1 -18,-5 -23,-13 -6,-10 -18,-13 -27,-10 -9,5 -15,15 -13,25 1,5 3,11 6,15 13,22 33,29 58,28 24,-1 39,-16 46,-44 5,-13 0,-24 -10,-28 -12,-6 -24,-2 -30,11 -4,5 -5,11 -7,16zm-51 222c-2,0 -3,-2 -4,-2 1,-26 2,-52 2,-79 2,-18 3,-36 2,-54 0,-13 -11,-22 -24,-23 -13,-1 -25,6 -29,21 -1,4 -1,10 -2,16 -1,50 -4,99 -5,149 -1,16 0,32 2,49 5,25 29,36 52,23 8,-5 15,-12 21,-21 14,-22 27,-45 41,-67 4,-8 8,-15 11,-22 5,17 5,32 5,47 0,16 0,32 0,47 0,17 9,28 23,29 14,2 29,-7 32,-23 1,-6 1,-12 1,-16 1,-48 1,-96 3,-144 0,-10 0,-21 0,-32 0,-14 -7,-26 -22,-31 -13,-6 -25,0 -34,11 -11,13 -23,27 -33,43 -15,26 -28,52 -42,79zm-3236 473c12,-17 18,-32 14,-51 -6,-31 -34,-55 -71,-60 -16,-2 -31,-3 -47,-3 -21,0 -33,11 -33,32 2,61 1,120 1,181 0,32 13,45 47,48 10,1 22,2 33,2 39,-2 75,-13 99,-44 25,-34 15,-74 -21,-94 -6,-4 -14,-6 -22,-11zm-85 97c2,-18 3,-35 3,-54 27,-6 52,-2 77,11 12,6 15,14 4,23 -7,8 -17,14 -26,17 -17,6 -36,7 -58,3zm0 -109c0,-17 0,-32 2,-50 14,-4 27,-1 39,8 11,9 11,17 0,25 -11,8 -24,13 -36,21 -1,-2 -2,-3 -5,-4zm430 42c3,9 7,16 9,24 7,22 14,44 22,65 7,18 20,24 35,20 16,-4 23,-17 17,-35 -13,-37 -26,-73 -40,-110 -4,-8 -3,-14 3,-21 11,-14 20,-28 30,-42 5,-6 7,-12 9,-18 5,-13 0,-25 -11,-31 -12,-7 -25,-5 -35,6 -2,2 -4,6 -6,8 -15,22 -32,44 -48,66 -2,2 -6,5 -12,11 0,-14 0,-23 0,-33 0,-14 2,-28 -1,-41 -1,-15 -13,-23 -26,-23 -13,0 -25,10 -27,23 -2,4 0,10 0,15 -2,45 -2,90 -2,134 0,21 0,44 3,65 2,17 15,26 31,24 14,-1 24,-12 24,-29 0,-10 -2,-21 -3,-32 -2,-21 10,-33 28,-46zm220 -57c-11,1 -20,2 -28,2 -11,0 -21,-1 -31,-1 0,-11 0,-19 0,-29 0,-15 0,-31 -2,-46 -1,-13 -10,-23 -22,-24 -12,-1 -24,7 -28,19 -1,6 -1,11 -1,17 0,46 0,91 0,138 0,20 -1,40 0,61 0,13 7,22 18,25 12,3 25,-2 30,-15 3,-4 3,-12 3,-19 2,-24 3,-47 3,-72 20,-2 39,-3 61,-4 0,13 0,24 1,35 0,15 0,31 1,45 1,15 15,27 29,25 14,-1 23,-12 23,-28 -1,-46 -2,-94 -2,-140 -1,-20 -1,-42 -2,-62 -2,-13 -12,-20 -24,-22 -12,0 -23,9 -26,22 0,5 0,11 0,15 0,19 -2,37 -3,58zm131 53c-1,0 -2,-1 -3,-1 1,-26 2,-52 2,-80 1,-18 3,-36 1,-53 0,-14 -10,-22 -23,-23 -14,-1 -25,6 -29,20 -1,5 -1,11 -2,17 -2,50 -4,99 -5,149 -1,15 0,32 2,49 5,25 29,35 51,22 9,-4 16,-12 22,-20 14,-23 27,-45 40,-68 5,-7 9,-14 12,-21 5,16 5,32 5,46 0,17 0,32 0,48 0,17 8,27 23,28 14,3 28,-7 32,-22 1,-6 1,-12 1,-17 1,-48 1,-95 3,-143 0,-11 0,-21 0,-32 0,-14 -8,-26 -22,-31 -13,-6 -25,0 -34,11 -11,13 -23,27 -33,43 -15,26 -28,52 -43,78zm239 -14c14,3 18,12 17,25 -3,25 -4,51 -4,76 -1,16 8,25 21,28 12,1 24,-8 28,-21 1,-7 1,-13 2,-20 0,-15 1,-31 3,-48 0,-3 1,-9 3,-11 7,-8 17,-15 26,-22 3,6 5,10 6,14 10,27 21,53 30,80 5,12 16,20 26,18 14,-1 22,-11 23,-24 0,-6 -1,-13 -4,-18 -10,-28 -20,-58 -33,-87 -9,-20 -12,-38 5,-56 8,-9 14,-21 19,-32 7,-17 -1,-33 -17,-36 -13,-2 -21,4 -28,15 -12,18 -23,37 -35,55 -5,6 -7,13 -17,17 0,-7 0,-13 0,-17 2,-15 3,-30 4,-46 0,-16 -10,-28 -24,-28 -14,-2 -25,9 -27,26 -1,14 -1,28 -3,43 -1,3 -2,8 -3,15 -16,-18 -29,-33 -42,-49 -8,-8 -14,-17 -23,-26 -9,-11 -22,-12 -33,-5 -9,9 -13,23 -7,35 2,5 7,8 11,13 13,16 25,31 38,48 -23,38 -36,78 -47,121 -3,17 3,30 16,34 14,4 26,-3 32,-18 4,-10 6,-19 8,-29 7,-25 16,-49 29,-70zm313 -39c-10,1 -20,2 -28,2 -11,0 -20,-1 -31,-1 0,-11 0,-19 0,-29 0,-15 0,-31 -1,-46 -2,-13 -11,-23 -23,-24 -12,-1 -24,7 -27,19 -2,6 -2,11 -2,17 0,46 0,91 0,138 0,20 -1,40 0,61 0,13 8,22 18,25 12,3 25,-2 30,-15 4,-4 4,-12 4,-19 1,-24 2,-47 2,-72 20,-2 39,-3 61,-4 0,13 0,24 1,35 0,15 0,31 1,45 1,15 16,27 29,25 14,-1 24,-12 24,-28 -2,-46 -3,-94 -3,-140 -1,-20 -1,-42 -2,-62 -1,-13 -12,-20 -24,-22 -12,0 -23,9 -26,22 0,5 0,11 0,15 0,19 -1,37 -3,58zm79 84c5,18 12,38 26,56 35,44 97,40 123,-11 25,-50 28,-102 15,-156 -9,-32 -30,-53 -62,-62 -10,-2 -21,-2 -30,2 -31,9 -54,31 -66,62 -14,34 -14,70 -6,109zm113 -90c8,35 5,69 -7,101 -1,4 -3,8 -6,12 -8,12 -21,12 -29,2 -4,-3 -6,-6 -8,-10 -16,-34 -21,-68 -7,-104 4,-10 12,-19 20,-25 15,-9 27,-4 34,12 2,4 2,9 3,12zm204 62c-3,-10 -7,-16 -8,-22 -8,-30 -17,-59 -26,-88 -4,-12 -9,-23 -16,-32 -15,-18 -39,-16 -51,3 -4,7 -7,15 -8,23 -4,19 -7,39 -9,60 -4,45 -7,90 -10,135 -3,20 7,33 22,34 16,1 26,-9 29,-28 1,-16 2,-33 5,-50 1,-20 2,-40 3,-60 6,6 9,11 11,17 8,22 17,42 25,64 7,15 17,29 36,31 19,0 28,-15 33,-31 10,-29 18,-59 28,-89 1,-4 3,-10 4,-16 4,3 5,7 5,10 2,40 4,79 5,118 1,17 12,29 27,29 15,-1 25,-13 25,-31 -2,-57 -3,-116 -7,-174 0,-11 -3,-23 -8,-32 -9,-19 -30,-26 -47,-17 -9,6 -18,13 -24,22 -8,14 -15,29 -20,45 -9,25 -15,50 -24,79zm482 0c-4,-10 -7,-16 -8,-22 -9,-30 -17,-59 -27,-88 -3,-12 -8,-23 -15,-32 -16,-18 -39,-16 -51,3 -4,7 -7,15 -9,23 -3,19 -7,39 -8,60 -5,45 -7,90 -11,135 -2,20 7,33 23,34 15,1 26,-9 29,-28 1,-16 2,-33 4,-50 1,-20 3,-40 4,-60 6,6 8,11 11,17 8,22 16,42 25,64 7,15 16,29 35,31 19,0 29,-15 34,-31 9,-29 18,-59 27,-89 1,-4 4,-10 5,-16 4,3 5,7 5,10 2,40 3,79 4,118 2,17 12,29 28,29 14,-1 25,-13 25,-31 -2,-57 -4,-116 -7,-174 0,-11 -4,-23 -9,-32 -8,-19 -29,-26 -46,-17 -10,6 -18,13 -24,22 -8,14 -15,29 -20,45 -10,25 -16,50 -24,79zm305 7c1,10 1,16 1,21 2,19 3,37 5,56 1,16 12,24 25,24 16,1 26,-8 29,-24 0,-9 -1,-19 -1,-27 0,-28 -2,-55 -2,-82 0,-17 2,-35 0,-52 0,-9 -4,-20 -9,-27 -7,-10 -17,-16 -25,-24 -17,-14 -35,-21 -57,-20 -28,1 -52,11 -72,30 -48,41 -58,96 -48,156 8,43 49,61 85,38 13,-8 24,-18 33,-28 12,-11 22,-25 36,-41zm-99 19c-4,-38 -3,-74 28,-101 8,-8 20,-14 31,-17 12,-5 22,0 31,12 -25,38 -49,80 -90,106zm177 -45c1,23 1,42 2,63 1,16 3,33 6,50 3,15 18,25 34,22 14,-3 22,-15 21,-32 -2,-36 -6,-70 -7,-106 -1,-21 1,-44 2,-65 1,-15 7,-19 20,-17 8,1 15,6 21,9 20,11 41,-1 41,-23 0,-15 -6,-28 -20,-33 -12,-4 -25,-7 -38,-8 -43,-5 -75,22 -79,66 -2,25 -2,51 -3,74zm315 26c1,10 1,16 1,21 1,19 2,37 5,56 1,16 11,24 25,24 15,1 26,-8 28,-24 0,-9 -1,-19 -1,-27 0,-28 -1,-55 -1,-82 0,-17 1,-35 0,-52 0,-9 -5,-20 -10,-27 -7,-10 -16,-16 -25,-24 -16,-14 -34,-21 -57,-20 -27,1 -51,11 -72,30 -47,41 -58,96 -47,156 7,43 49,61 84,38 14,-8 24,-18 34,-28 12,-11 21,-25 36,-41zm-99 19c-5,-38 -4,-74 27,-101 8,-8 20,-14 31,-17 12,-5 23,0 31,12 -25,38 -49,80 -89,106zm300 -69c6,-18 13,-32 16,-48 4,-21 -4,-39 -23,-52 -24,-17 -76,-11 -97,11 -8,9 -9,22 -3,31 7,10 20,14 32,9 12,-4 27,-14 36,-11 8,11 -1,23 -11,29 -12,8 -25,16 -38,24 -13,7 -19,19 -14,32 4,11 17,18 31,16 4,-1 9,-2 14,-4 19,-3 33,6 33,26 0,10 -3,23 -6,33 -20,5 -34,4 -45,-13 -8,-12 -24,-12 -36,-5 -13,9 -16,23 -8,35 5,7 9,13 17,19 25,23 56,23 85,14 28,-7 40,-30 44,-53 9,-36 4,-69 -27,-93zm112 40c-1,0 -2,-1 -3,-1 1,-26 2,-52 2,-80 1,-18 2,-36 1,-53 0,-14 -11,-22 -24,-23 -13,-1 -25,6 -28,20 -1,5 -1,11 -3,17 -1,50 -3,99 -4,149 -2,15 0,32 2,49 5,25 29,35 51,22 9,-4 16,-12 22,-20 14,-23 27,-45 40,-68 5,-7 9,-14 12,-21 5,16 5,32 5,46 0,17 0,32 0,48 0,17 8,27 23,28 14,3 28,-7 32,-22 1,-6 1,-12 1,-17 1,-48 1,-95 2,-143 0,-11 0,-21 0,-32 0,-14 -7,-26 -21,-31 -13,-6 -25,0 -35,11 -10,13 -22,27 -32,43 -15,26 -28,52 -43,78zm264 -53c-11,1 -21,2 -29,2 -11,0 -20,-1 -31,-1 0,-11 0,-19 0,-29 0,-15 0,-31 -1,-46 -1,-13 -11,-23 -23,-24 -12,-1 -24,7 -27,19 -1,6 -1,11 -1,17 0,46 0,91 0,138 0,20 -2,40 0,61 0,13 7,22 18,25 11,3 25,-2 29,-15 4,-4 4,-12 4,-19 1,-24 2,-47 2,-72 21,-2 40,-3 61,-4 0,13 0,24 1,35 0,15 0,31 1,45 2,15 16,27 29,25 14,-1 24,-12 24,-28 -1,-46 -2,-94 -2,-140 -2,-20 -2,-42 -3,-62 -1,-13 -12,-20 -24,-22 -12,0 -22,9 -26,22 0,5 0,11 0,15 0,19 -1,37 -2,58z"/>
     <path class="fil1" d="M4017 2332c2,-1 4,-1 7,-2 10,0 20,0 31,-2 12,-1 25,-2 37,-4 22,-6 38,-24 40,-48 5,-38 -20,-80 -56,-93 -11,-4 -24,-6 -36,-4 -41,9 -69,35 -77,77 -8,35 -1,70 9,105 6,21 18,38 35,53 13,13 30,19 49,17 46,-4 77,-37 90,-76 4,-12 -2,-23 -13,-29 -10,-5 -22,-1 -29,9 -4,6 -8,12 -10,18 -7,12 -17,21 -30,27 -12,4 -20,3 -30,-6 -9,-12 -16,-25 -17,-42zm-8 -50c0,-23 6,-41 27,-50 19,-9 32,-4 41,13 3,6 5,12 6,19 1,8 -2,13 -10,14 -22,1 -42,3 -64,4zm-2450 486c13,-16 24,-29 35,-44 9,-12 17,-22 26,-34 7,-13 5,-27 -6,-36 -10,-7 -23,-8 -34,0 -4,3 -8,8 -11,12 -21,26 -41,52 -61,78 -19,28 -16,51 13,67 15,10 33,17 50,24 11,5 23,0 29,-9 7,-9 9,-21 2,-30 -5,-6 -12,-12 -19,-17 -7,-4 -14,-6 -24,-11zm97 -21c2,-5 3,-7 6,-10 5,-6 13,-13 19,-20 4,-5 9,-9 14,-15 9,-12 9,-28 0,-37 -10,-10 -24,-12 -35,-3 -26,22 -50,46 -65,75 -6,11 -9,25 1,32 24,20 49,39 75,54 13,8 31,-2 36,-18 6,-14 -1,-26 -16,-34 -12,-7 -24,-16 -35,-24zm300 -170c0,-36 -15,-53 -51,-61 -43,-9 -85,-8 -125,7 -15,6 -24,14 -29,27 -14,37 -12,101 -13,142 -3,64 -4,129 -5,193 -1,8 -1,18 -1,26 2,13 13,23 26,24 12,0 24,-7 28,-19 1,-5 2,-8 2,-13 1,-36 2,-70 4,-106 2,-60 3,-147 7,-207 0,-17 1,-17 18,-22 22,-7 44,-5 66,-1 17,2 18,2 18,19 0,97 -9,217 -3,316 1,14 14,24 27,24 13,0 24,-10 26,-23l5 -326zm24 269c5,18 12,38 26,56 35,44 97,39 123,-11 25,-50 27,-102 14,-156 -8,-32 -30,-54 -62,-62 -9,-2 -20,-2 -30,1 -31,10 -53,31 -65,62 -14,35 -14,70 -6,110zm113 -91c7,36 5,69 -7,102 -1,3 -4,8 -6,11 -8,12 -21,12 -30,3 -3,-4 -6,-6 -7,-11 -17,-33 -21,-68 -7,-104 4,-9 12,-19 20,-25 15,-8 26,-3 34,12 2,5 2,10 3,12zm228 -33c0,11 1,19 0,27 -4,44 -7,87 -10,131 -1,10 -1,19 2,28 2,13 14,21 26,21 13,-1 24,-9 26,-22 1,-4 1,-8 1,-11 4,-50 7,-100 10,-150 1,-15 0,-30 -3,-44 -3,-20 -16,-34 -35,-34 -29,-1 -59,-1 -87,3 -22,2 -31,16 -33,37 -1,7 -1,13 -1,20 1,20 1,41 1,62 0,24 -2,46 -10,69 -6,0 -10,-1 -15,-1 -20,1 -32,19 -26,38 7,26 42,39 65,22 8,-7 17,-16 21,-26 8,-20 15,-40 18,-62 3,-27 1,-55 2,-83 0,-7 0,-16 0,-25 17,0 30,0 48,0zm150 96c4,10 7,17 10,24 7,23 14,44 21,66 7,18 20,24 36,20 15,-5 23,-18 17,-36 -13,-37 -27,-72 -41,-109 -3,-9 -2,-15 4,-22 10,-13 20,-27 29,-42 5,-6 8,-11 10,-17 5,-14 0,-25 -12,-31 -12,-8 -25,-5 -34,6 -3,2 -4,5 -6,8 -16,21 -33,44 -48,65 -3,3 -6,5 -12,11 0,-13 0,-22 0,-32 0,-14 1,-29 -1,-42 -1,-14 -13,-22 -26,-22 -14,0 -25,9 -28,22 -1,5 0,11 0,16 -1,45 -1,89 -1,133 0,22 0,44 2,66 3,16 16,26 31,24 15,-2 24,-12 24,-29 0,-11 -1,-21 -2,-32 -3,-22 9,-34 27,-47zm263 6c1,11 1,17 1,22 1,19 2,37 4,56 2,15 12,24 25,24 16,1 27,-9 29,-24 0,-10 -1,-19 -1,-28 0,-27 -1,-54 -1,-82 0,-17 1,-34 0,-51 0,-10 -5,-20 -10,-28 -7,-9 -17,-15 -25,-23 -17,-15 -34,-22 -57,-21 -27,2 -51,11 -72,30 -47,42 -58,97 -47,156 7,43 49,61 84,38 13,-8 24,-17 34,-27 12,-12 21,-25 36,-42zm-99 19c-5,-38 -4,-74 27,-101 8,-7 20,-13 31,-17 12,-4 23,0 31,12 -25,38 -49,80 -89,106zm325 -106c-14,19 -27,36 -40,54 -14,17 -8,39 11,44 11,4 21,0 28,-7 24,-23 42,-49 55,-79 7,-14 4,-30 -6,-40 -23,-24 -47,-48 -72,-69 -14,-12 -34,-4 -40,14 -3,5 -3,11 -4,19 -11,-10 -19,-18 -27,-25 -11,-12 -25,-13 -37,-5 -12,10 -15,26 -6,39 3,6 11,11 16,17 12,11 26,22 39,34 -6,6 -10,10 -13,15 -14,16 -28,31 -41,47 -12,16 -10,33 4,42 13,10 31,4 40,-9 16,-19 32,-37 49,-55 15,-15 27,-30 21,-57 10,8 16,14 23,21z"/>
    </g>
    <path class="fil2" d="M2888 3298c-37,-50 -178,-63 -311,-77 -134,-15 -353,0 -435,0 -82,0 -75,56 -348,25 -274,-32 -314,-27 -305,12 10,40 -22,154 -1,190 21,35 207,78 316,78 108,0 400,-23 512,-28 111,-6 249,-51 321,-31 72,20 182,29 200,23 19,-5 51,-192 51,-192z"/>
    <path class="fil1" d="M1736 3334c0,3 0,5 0,8 0,14 -1,29 -1,43 0,7 -1,14 -1,21 1,7 5,11 10,11 6,0 11,-4 12,-10 0,-1 0,-2 0,-4 0,-20 1,-41 2,-61 0,-5 -1,-11 -2,-16 -2,-9 -8,-14 -17,-14 -8,0 -16,-1 -23,0 -5,0 -10,2 -15,3 -7,3 -11,9 -12,17 -1,4 -1,8 -2,13 0,13 0,27 -1,41 0,7 0,15 0,22 0,6 4,10 9,11 5,1 10,-3 11,-9 1,-1 1,-4 1,-6 1,-15 1,-29 1,-44 1,-8 1,-17 2,-25 8,-2 17,-2 26,-1zm89 86c4,0 7,1 11,0 14,0 32,-9 37,-29 2,-8 4,-18 3,-27 0,-13 -3,-25 -13,-34 -13,-11 -28,-16 -45,-13 -10,1 -13,4 -15,13 0,2 0,4 0,6 -5,45 -2,89 0,134 0,2 1,5 2,7 3,7 12,8 17,3 2,-3 3,-6 3,-9 1,-8 0,-16 0,-23 -1,-9 0,-17 0,-28zm-2 -22c0,-20 1,-39 2,-58 12,-2 24,4 27,15 4,11 2,22 -2,33 -2,6 -7,8 -13,9 -4,1 -8,1 -14,1zm98 -11c2,7 5,15 11,23 14,18 39,16 50,-5 10,-20 11,-42 6,-64 -3,-13 -12,-22 -25,-25 -4,-1 -9,-1 -13,0 -12,4 -22,13 -27,26 -5,14 -5,28 -2,45zm46 -38c3,15 2,29 -2,42 -1,1 -2,3 -3,5 -3,5 -9,5 -12,1 -2,-2 -3,-3 -3,-5 -7,-13 -9,-27 -3,-42 1,-4 5,-8 8,-10 6,-4 11,-2 14,4 1,2 1,4 1,5zm119 26c-1,-4 -3,-7 -3,-9 -3,-12 -7,-24 -11,-36 -1,-5 -3,-10 -6,-13 -7,-8 -16,-7 -21,1 -2,3 -3,6 -4,9 -1,8 -3,16 -3,25 -2,18 -3,37 -4,56 -1,7 2,13 9,13 6,1 11,-3 12,-11 0,-7 1,-14 2,-21 0,-8 1,-16 1,-24 2,2 3,4 4,7 4,9 7,17 11,26 3,6 7,12 14,12 8,0 12,-5 14,-12 4,-12 7,-24 11,-36 1,-2 2,-5 2,-7 2,1 2,3 2,4 1,16 2,32 2,49 1,6 5,11 11,11 6,0 11,-5 11,-12 -1,-24 -2,-48 -3,-72 0,-4 -2,-9 -4,-13 -3,-8 -12,-11 -19,-7 -4,3 -7,5 -10,9 -3,6 -6,12 -8,19 -4,10 -6,20 -10,32zm99 12c2,7 5,15 11,23 14,18 40,16 50,-5 11,-20 12,-42 6,-64 -3,-13 -12,-22 -25,-25 -4,-1 -9,-1 -12,0 -13,4 -22,13 -27,26 -6,14 -6,28 -3,45zm47 -38c3,15 2,29 -3,42 -1,1 -2,3 -3,5 -3,5 -9,5 -12,1 -1,-2 -2,-3 -3,-5 -7,-13 -9,-27 -3,-42 2,-4 5,-8 8,-10 6,-4 11,-2 14,4 1,2 1,4 2,5zm98 26c2,4 3,7 4,10 3,9 6,18 9,27 3,7 9,10 15,8 6,-2 9,-7 7,-14 -6,-16 -11,-30 -17,-45 -1,-4 -1,-6 2,-9 4,-6 8,-11 12,-17 2,-3 3,-5 4,-8 2,-5 0,-10 -5,-12 -5,-3 -10,-2 -14,2 -1,1 -2,3 -3,3 -6,9 -13,19 -19,27 -1,1 -3,2 -5,5 0,-6 0,-9 0,-13 0,-6 0,-12 -1,-18 0,-5 -5,-9 -11,-9 -5,0 -10,4 -11,9 0,2 0,5 0,7 0,18 0,37 0,55 0,8 0,18 1,27 1,6 6,10 12,9 6,0 10,-5 10,-11 0,-5 0,-9 -1,-14 -1,-8 4,-13 11,-19zm82 12c2,7 5,15 10,23 15,18 40,16 51,-5 10,-20 11,-42 6,-64 -4,-13 -13,-22 -26,-25 -4,-1 -8,-1 -12,0 -13,4 -22,13 -27,26 -6,14 -6,28 -2,45zm46 -38c3,15 2,29 -3,42 0,1 -1,3 -2,5 -4,5 -9,5 -12,1 -2,-2 -3,-3 -3,-5 -7,-13 -9,-27 -3,-42 1,-4 5,-8 8,-10 6,-4 11,-2 14,4 1,2 1,4 1,5zm148 48c-1,-2 -1,-3 -1,-4 1,-14 1,-27 1,-40 0,-7 0,-14 -2,-21 -4,-19 -25,-26 -41,-14 -10,7 -15,17 -17,29 0,5 -1,11 -1,16 -1,12 -2,25 -2,37 -3,1 -5,1 -7,2 -11,4 -14,7 -13,18 1,6 4,10 9,11 4,1 8,-1 11,-7 1,-3 2,-4 5,-4 1,-1 3,-1 5,-1 14,0 27,-1 41,-1 2,0 4,2 5,3 3,3 7,4 11,2 4,-1 7,-5 7,-9 1,-9 -1,-13 -11,-17zm-21 1c-7,0 -14,0 -22,1 0,-4 0,-6 0,-9 1,-14 2,-27 3,-42 0,-6 4,-12 10,-15 4,-3 8,-1 9,4 1,3 1,7 1,10 0,16 0,32 0,48 0,1 -1,2 -1,3zm88 15c6,0 11,-4 11,-11 0,-7 -5,-12 -11,-12 -7,0 -12,5 -12,12 0,6 6,11 12,11zm1 -56c6,0 11,-5 11,-11 0,-6 -4,-11 -10,-11 -6,0 -11,4 -11,10 -1,7 4,12 10,12z"/>
    <path class="fil1" d="M1016 3740c5,-9 11,-18 15,-29 13,-31 6,-66 -15,-85 -21,-17 -45,-23 -71,-17 -8,1 -14,3 -20,4 -17,4 -24,12 -24,29 -2,56 -5,111 -6,168 0,38 2,78 3,116 1,19 19,36 36,35 18,0 36,-1 53,-3 42,-7 75,-27 87,-70 4,-14 6,-32 6,-47 -2,-26 -5,-52 -25,-72 -11,-11 -26,-19 -39,-29zm-73 173c0,-33 0,-64 -2,-93 0,-9 5,-15 13,-19 15,-7 31,-10 47,-10 10,0 18,5 22,15 12,25 14,51 3,78 -7,15 -20,23 -35,25 -15,3 -30,2 -48,4zm1 -170c1,-14 2,-23 2,-33 1,-14 2,-28 2,-42 1,-12 4,-15 16,-15 18,0 28,13 26,31 -1,13 -7,23 -15,32 -8,10 -17,18 -31,27zm215 128c-1,0 -2,-1 -3,-1 1,-23 2,-45 2,-68 1,-15 2,-30 1,-46 0,-11 -9,-18 -20,-19 -11,-1 -21,5 -24,17 -1,4 -1,10 -2,15 -1,42 -3,83 -4,126 -1,13 0,27 2,41 4,22 24,31 43,20 7,-5 13,-11 18,-18 13,-19 24,-38 35,-57 4,-6 7,-12 10,-18 4,14 4,27 4,39 0,14 0,27 0,40 0,15 7,24 19,25 12,2 24,-6 27,-20 1,-5 1,-10 1,-14 1,-40 1,-81 3,-121 0,-9 0,-18 0,-27 0,-12 -7,-22 -19,-27 -11,-5 -21,0 -29,10 -9,11 -19,23 -27,36 -13,22 -25,44 -37,67zm265 -79c0,9 1,16 0,23 -3,37 -6,74 -8,111 -1,8 -1,16 1,23 2,12 12,19 22,19 11,-1 20,-8 22,-20 1,-3 1,-6 1,-9 3,-42 6,-85 8,-127 1,-12 0,-25 -2,-37 -3,-17 -14,-29 -30,-29 -24,-1 -50,-1 -74,2 -18,2 -26,15 -27,32 -1,6 -1,11 -1,17 1,17 1,35 1,52 0,21 -2,40 -9,59 -5,0 -8,-1 -12,-1 -18,1 -28,16 -23,32 6,23 36,34 55,20 7,-7 15,-15 18,-23 7,-17 13,-34 15,-52 3,-23 1,-47 2,-71 0,-6 0,-13 0,-21 14,0 26,0 41,0zm198 0c0,9 1,16 0,23 -3,37 -6,74 -8,111 -1,8 -1,16 1,23 2,12 12,19 23,19 11,-1 20,-8 22,-20 1,-3 1,-6 1,-9 3,-42 6,-85 8,-127 1,-12 0,-25 -2,-37 -3,-17 -14,-29 -30,-29 -25,-1 -50,-1 -74,2 -18,2 -27,15 -28,32 -1,6 -1,11 -1,17 1,17 1,35 1,52 0,21 -2,40 -9,59 -5,0 -8,-1 -12,-1 -17,1 -27,16 -22,32 6,23 35,34 55,20 7,-7 15,-15 18,-23 7,-17 13,-34 15,-52 3,-23 1,-47 2,-71 0,-6 0,-13 0,-21 14,0 25,0 40,0zm203 87c1,9 1,14 1,18 1,16 2,31 4,47 1,14 10,21 21,21 13,1 23,-7 25,-21 0,-8 -1,-16 -1,-23 0,-23 -1,-46 -1,-70 0,-14 1,-29 0,-43 0,-8 -4,-17 -9,-23 -6,-8 -14,-13 -21,-20 -14,-13 -29,-19 -48,-18 -23,1 -44,9 -61,26 -40,35 -49,81 -40,132 6,36 41,52 71,32 12,-7 21,-15 29,-23 10,-10 18,-21 30,-35zm-84 16c-4,-32 -3,-63 23,-86 7,-6 18,-11 27,-14 10,-4 19,0 26,10 -21,32 -41,68 -76,90zm329 23c-1,-3 -1,-6 -1,-8 1,-28 1,-56 1,-83 0,-14 0,-28 -3,-42 -9,-41 -52,-55 -86,-31 -20,16 -31,36 -34,61 -1,11 -2,22 -3,32 -1,27 -3,52 -4,78 -5,2 -10,2 -14,4 -23,7 -29,14 -27,37 1,13 7,20 18,22 10,2 17,-2 23,-14 2,-5 5,-8 10,-8 3,-1 7,-1 11,-1 28,-1 57,-2 85,-2 4,0 8,3 10,5 7,7 15,9 23,5 8,-3 13,-10 14,-20 2,-18 -3,-27 -23,-35zm-42 2c-15,1 -31,1 -46,2 -1,-7 -1,-12 -1,-17 2,-29 4,-58 6,-87 1,-14 9,-25 22,-32 9,-5 16,-2 19,8 2,7 2,15 2,22 0,32 -1,66 -1,98 0,2 -1,4 -1,6zm165 -61c12,3 15,10 14,21 -2,21 -3,43 -3,64 -1,14 7,22 18,24 10,1 21,-6 24,-18 1,-6 1,-11 2,-17 0,-13 1,-26 2,-40 0,-3 1,-8 3,-10 6,-6 14,-12 22,-18 2,5 4,8 5,12 8,22 17,44 25,67 4,11 13,18 22,16 12,-1 19,-10 20,-21 0,-5 -1,-11 -3,-15 -9,-24 -18,-49 -29,-74 -8,-17 -10,-32 4,-47 7,-8 13,-18 17,-27 6,-14 -1,-29 -15,-31 -11,-2 -18,3 -24,12 -10,16 -19,32 -29,47 -4,5 -6,11 -14,15 0,-6 0,-11 0,-15 1,-12 2,-25 3,-38 0,-15 -8,-25 -20,-25 -13,-1 -22,8 -24,23 -1,12 -1,24 -2,36 -1,3 -2,7 -3,13 -13,-15 -24,-28 -35,-41 -7,-7 -12,-16 -19,-23 -8,-9 -20,-10 -29,-4 -8,7 -11,20 -6,30 2,4 6,7 9,11 12,13 22,26 33,40 -19,33 -31,67 -40,103 -3,14 2,26 13,29 13,4 23,-2 28,-16 3,-8 5,-16 7,-24 6,-21 13,-41 24,-59zm280 -47c0,-1 0,-1 0,-1 29,0 57,0 86,0 11,0 19,-7 23,-16 3,-11 1,-22 -9,-27 -6,-4 -15,-6 -23,-6 -19,0 -38,2 -57,2 -33,0 -65,-1 -96,-2 -13,0 -22,6 -26,17 -4,10 2,23 13,28 9,3 18,4 27,5 20,0 41,0 62,0zm324 -143c0,-31 -14,-45 -44,-52 -36,-7 -72,-6 -106,6 -12,5 -20,12 -24,23 -12,31 -10,86 -11,120 -2,54 -3,110 -4,164 -1,7 -1,15 -1,22 2,12 11,20 22,21 10,0 20,-6 23,-16 1,-5 2,-8 2,-12 1,-30 2,-59 3,-89 2,-52 3,-125 6,-175 0,-16 1,-16 15,-20 20,-6 38,-4 57,-1 14,2 15,2 15,16 0,83 -8,185 -3,268 1,13 12,21 23,21 11,0 20,-8 22,-20l5 -276zm29 228c4,15 11,32 23,47 29,38 82,34 104,-9 21,-42 23,-87 12,-132 -7,-27 -25,-46 -53,-53 -8,-2 -17,-2 -25,1 -26,8 -45,27 -56,53 -12,29 -12,60 -5,93zm96 -77c7,30 4,59 -6,86 -1,3 -3,7 -5,10 -7,10 -18,10 -25,2 -3,-3 -5,-5 -6,-9 -14,-28 -18,-58 -6,-88 3,-8 10,-16 17,-21 12,-7 22,-3 28,10 2,4 2,8 3,10zm203 -28c0,9 1,16 0,23 -3,37 -6,74 -8,111 -1,8 -1,16 1,23 2,12 12,19 22,19 11,-1 21,-8 23,-20 1,-3 1,-6 1,-9 3,-42 6,-85 8,-127 1,-12 0,-25 -2,-37 -3,-17 -15,-29 -31,-29 -24,-1 -49,-1 -73,2 -19,2 -27,15 -28,32 -1,6 -1,11 -1,17 1,17 1,35 1,52 0,21 -2,40 -9,59 -5,0 -8,-1 -12,-1 -17,1 -27,16 -22,32 6,23 35,34 54,20 7,-7 16,-15 19,-23 7,-17 13,-34 15,-52 3,-23 1,-47 2,-71 0,-6 0,-13 0,-21 14,0 25,0 40,0zm137 82c3,8 6,14 8,20 6,19 12,37 18,55 6,16 18,21 31,18 13,-4 19,-16 14,-31 -11,-31 -22,-61 -34,-93 -3,-7 -2,-12 3,-18 9,-11 17,-23 25,-35 4,-5 6,-10 8,-15 4,-11 0,-22 -10,-27 -10,-6 -21,-4 -29,5 -3,2 -4,5 -6,7 -13,19 -27,38 -40,56 -2,2 -5,4 -10,9 0,-11 0,-19 0,-27 0,-12 1,-24 -1,-35 -1,-13 -11,-20 -22,-20 -11,0 -22,8 -24,20 -1,4 0,9 0,13 -1,38 -1,75 -1,113 0,18 0,37 2,55 2,15 14,23 27,21 12,-1 20,-10 20,-25 0,-9 -1,-18 -2,-27 -2,-18 8,-28 23,-39zm232 5c1,9 1,14 1,18 1,16 2,31 4,47 1,14 10,21 21,21 14,1 23,-7 25,-21 0,-8 -1,-16 -1,-23 0,-23 -1,-46 -1,-70 0,-14 1,-29 0,-43 0,-8 -4,-17 -8,-23 -6,-8 -15,-13 -22,-20 -14,-13 -29,-19 -48,-18 -23,1 -44,9 -61,26 -40,35 -49,81 -40,132 6,36 41,52 72,32 11,-7 20,-15 28,-23 10,-10 18,-21 30,-35zm-84 16c-4,-32 -3,-63 24,-86 7,-6 17,-11 26,-14 10,-4 19,0 26,10 -21,32 -41,68 -76,90z"/>
   </g>
  </g>
 </g>
</svg>
