<?xml version="1.0" encoding="UTF-8"?>
<!DOCTYPE svg PUBLIC "-//W3C//DTD SVG 1.1//EN" "http://www.w3.org/Graphics/SVG/1.1/DTD/svg11.dtd">
<!-- Creator: CorelDRAW X8 -->
<svg xmlns="http://www.w3.org/2000/svg" xml:space="preserve" width="503px" height="502px" version="1.1" style="shape-rendering:geometricPrecision; text-rendering:geometricPrecision; image-rendering:optimizeQuality; fill-rule:evenodd; clip-rule:evenodd"
viewBox="0 0 3474028 3467393"
 xmlns:xlink="http://www.w3.org/1999/xlink">
 <defs>
  <style type="text/css">
   <![CDATA[
    .str0 {stroke:black;stroke-width:61209.5}
    .fil0 {fill:#DEF2F7}
    .fil1 {fill:#F05C4F;fill-rule:nonzero}
   ]]>
  </style>
 </defs>
 <g id="Слой_x0020_1">
  <metadata id="CorelCorpID_0Corel-Layer"/>
  <path class="fil0 str0" d="M75565 2759257c-2187,-209671 -94581,-2357184 -8031,-2468284 106766,-137060 77704,-232318 578642,-237549 500938,-5232 1580542,-16511 1783513,-18624 202970,-2114 671476,-36914 806291,136750 134824,173663 166808,464759 171974,961363 1820,175549 131813,1800872 -117163,2116550 -252362,319970 -549652,131461 -1253553,138798 -703900,7337 -1265264,13213 -1440283,15042 -489194,5109 -516722,-197079 -521390,-644046z"/>
  <path class="fil1" d="M1776510 1171018c0,-195707 -149228,-318028 -366962,-318028 -210390,0 -366955,161463 -433012,374300 -7337,29356 7345,56264 36701,66049 26907,7337 56263,-7337 63600,-34244 51376,-171248 168808,-303354 335159,-303354 149229,0 261764,73386 261764,212837 0,327814 -440349,765722 -773059,1032375 -88068,73394 -273998,217726 -362066,276446 -26916,19571 -41590,41582 -41590,63601 0,24468 22019,41590 56264,41590 9785,0 19571,0 29356,-2448 205501,-46479 273998,-63601 428123,-63601 139444,0 308243,34244 491724,83171 34253,7345 66050,-14674 66050,-51367 0,-22019 -17123,-41590 -39142,-48935 -210389,-61160 -357169,-85619 -518632,-85619 -75842,0 -151677,7337 -237305,22019 56272,-44038 122321,-95414 193267,-154126 354729,-288672 809760,-748599 809760,-1110666z"/>
  <path id="1" class="fil1" d="M3048631 894580c-26908,-19571 -66050,-9785 -100302,9786 -53824,31804 -124770,34244 -198156,31804 -181033,-4897 -362066,-97862 -530873,-97862 -112528,0 -176137,154126 -266653,322925 -12234,24467 -2449,56272 24459,68497 24468,12234 56272,2449 68506,-24459 39141,-78283 129658,-261764 173688,-261764 61160,0 423226,97853 530873,97853 61161,0 83172,-2448 124761,-9785 -110087,117432 -171247,181033 -227511,242194 -127218,134554 -239745,261764 -342495,398767l-188371 0c-26915,0 -51375,22011 -51375,51367 0,29356 24460,51375 51375,51375l112528 0c-119873,159022 -303346,508855 -401208,760834 -9785,26907 4897,58712 29356,68497 26916,9785 56272,-2448 68506,-29356 112528,-288672 269101,-594474 430564,-799975l176136 0c29356,0 51375,-22019 51375,-51375 0,-29356 -22019,-51367 -51375,-51367l-97854 0c88069,-110095 183482,-217734 286232,-327822 151669,-159014 298457,-313139 335150,-369403 24468,-34252 22020,-58712 -7336,-80731z"/>
 </g>
</svg>
