<?xml version="1.0" encoding="UTF-8"?>
<!DOCTYPE svg PUBLIC "-//W3C//DTD SVG 1.1//EN" "http://www.w3.org/Graphics/SVG/1.1/DTD/svg11.dtd">
<!-- Creator: CorelDRAW X6 -->
<svg xmlns="http://www.w3.org/2000/svg" xml:space="preserve" width="45mm" height="45mm" version="1.1" style="shape-rendering:geometricPrecision; text-rendering:geometricPrecision; image-rendering:optimizeQuality; fill-rule:evenodd; clip-rule:evenodd"
viewBox="0 0 4500 4500"
 xmlns:xlink="http://www.w3.org/1999/xlink">
 <defs>
  <style type="text/css">
   <![CDATA[
    .str0 {stroke:black;stroke-width:75}
    .fil2 {fill:black}
    .fil0 {fill:#E94F42}
    .fil1 {fill:#FEFEFE;fill-rule:nonzero}
   ]]>
  </style>
 </defs>
 <g id="Слой_x0020_1">
  <metadata id="CorelCorpID_0Corel-Layer"/>
  <g id="_525280744">
   <path class="fil0 str0" d="M4286 3507c2,-257 116,-2889 10,-3025 -131,-168 -96,-284 -709,-291 -614,-6 -1937,-20 -2186,-23 -248,-2 -822,-45 -988,168 -165,213 -204,569 -210,1178 -3,215 -162,2206 143,2593 309,392 674,161 1536,170 863,9 1551,17 1765,19 599,6 633,-242 639,-789z"/>
   <g>
    <g>
     <path class="fil1" d="M1044 726c0,-56 8,-91 27,-119 6,-9 14,-17 22,-24 11,-7 21,-3 26,10 2,6 3,13 6,19 7,13 20,18 32,15 12,-4 20,-15 19,-29 -5,-28 -14,-54 -38,-67 -26,-14 -51,-14 -75,4 -28,19 -45,48 -57,81 -21,65 -21,129 -2,193 10,36 28,67 57,91 31,24 73,22 100,-6 27,-27 35,-62 36,-99 0,-14 -11,-25 -22,-27 -12,-1 -23,5 -28,16 -2,7 -4,14 -6,22 -3,12 -5,25 -10,36 -10,18 -25,21 -39,9 -12,-11 -22,-24 -29,-39 -14,-29 -19,-62 -19,-86zm254 94c4,10 7,17 9,24 7,22 14,43 21,64 7,17 20,23 35,20 16,-5 23,-18 17,-35 -13,-37 -26,-72 -40,-108 -3,-8 -2,-14 4,-21 10,-12 19,-26 29,-40 4,-6 7,-12 9,-18 5,-13 0,-24 -12,-30 -11,-7 -24,-5 -33,6 -3,2 -4,6 -6,8 -15,21 -32,43 -47,64 -2,2 -6,5 -11,10 0,-12 0,-22 0,-31 0,-14 1,-28 -2,-41 -1,-14 -12,-22 -25,-22 -13,0 -25,9 -27,22 -1,5 0,11 0,15 -1,45 -1,88 -1,131 0,21 0,43 2,64 2,16 15,26 30,23 14,-1 24,-11 24,-28 0,-10 -1,-21 -3,-31 -2,-21 10,-33 27,-46zm167 -3c-2,0 -3,-1 -4,-1 1,-26 2,-52 2,-78 2,-18 3,-35 2,-53 0,-13 -11,-21 -24,-22 -13,-1 -24,6 -28,20 -1,5 -1,10 -2,16 -1,49 -3,97 -5,146 -1,15 0,31 3,48 4,24 28,35 50,22 8,-5 15,-12 21,-20 14,-22 27,-44 39,-67 5,-7 9,-14 12,-20 5,16 5,31 5,45 0,16 0,31 0,47 0,16 8,26 22,28 14,2 28,-7 31,-23 1,-5 1,-11 1,-16 2,-47 2,-93 3,-140 0,-10 0,-21 0,-31 0,-14 -7,-26 -21,-30 -13,-6 -25,0 -34,10 -10,13 -22,27 -31,42 -16,26 -28,51 -42,77zm344 55c-1,-4 -1,-7 -1,-10 1,-32 1,-64 1,-95 0,-17 0,-33 -3,-49 -11,-47 -61,-63 -99,-35 -24,17 -36,41 -40,70 -1,13 -2,25 -3,37 -1,30 -4,59 -5,90 -6,2 -12,2 -16,4 -26,9 -33,17 -31,42 2,15 9,24 20,26 12,2 20,-2 27,-16 2,-6 6,-10 12,-10 3,-1 8,-1 12,-1 33,-1 66,-2 98,-2 5,0 10,3 12,6 8,8 17,10 27,5 9,-3 15,-11 16,-22 2,-21 -3,-31 -27,-40zm-49 2c-17,1 -35,1 -52,2 -1,-8 -1,-14 -1,-20 2,-33 4,-66 7,-100 1,-16 10,-29 24,-37 11,-6 19,-2 22,9 3,8 3,18 3,26 0,37 -1,76 -1,113 0,2 -2,5 -2,7zm175 -54c3,10 7,17 9,24 7,22 14,43 21,64 7,17 20,23 35,20 15,-5 22,-18 17,-35 -13,-37 -26,-72 -40,-108 -4,-8 -2,-14 3,-21 11,-12 20,-26 30,-40 4,-6 7,-12 9,-18 5,-13 0,-24 -12,-30 -11,-7 -24,-5 -34,6 -2,2 -3,6 -5,8 -16,21 -32,43 -47,64 -2,2 -6,5 -12,10 0,-12 0,-22 0,-31 0,-14 2,-28 -1,-41 -1,-14 -13,-22 -25,-22 -13,0 -25,9 -27,22 -1,5 0,11 0,15 -1,45 -1,88 -1,131 0,21 0,43 2,64 2,16 15,26 30,23 14,-1 24,-11 24,-28 0,-10 -2,-21 -3,-31 -2,-21 10,-33 27,-46zm262 6c1,11 1,16 1,21 1,19 2,36 5,55 1,15 11,23 24,23 15,1 26,-8 28,-23 0,-9 -1,-19 -1,-27 0,-27 -1,-54 -1,-80 0,-17 1,-34 0,-50 0,-10 -5,-20 -9,-27 -7,-10 -17,-15 -25,-24 -16,-13 -34,-20 -56,-19 -27,1 -50,10 -70,29 -46,41 -57,94 -46,152 7,42 47,60 82,38 13,-8 24,-18 33,-27 12,-12 21,-25 35,-41zm-97 19c-4,-37 -3,-72 27,-99 8,-7 20,-13 30,-17 12,-4 23,0 31,12 -25,37 -48,78 -88,104zm597 14c0,-3 1,-6 2,-10 4,-11 3,-22 -8,-30 -10,-8 -23,-9 -36,-3 -11,4 -19,12 -18,25 2,41 23,77 70,84 43,6 78,-10 106,-44 40,-49 31,-119 -21,-156 -3,-3 -8,-5 -11,-8 4,-7 9,-12 13,-18 18,-25 32,-52 29,-86 -5,-34 -34,-56 -67,-47 -25,6 -49,18 -72,28 -7,3 -12,8 -16,13 -13,14 -13,30 -1,42 11,11 26,9 40,-3 17,-17 38,-21 60,-27 3,21 -6,37 -18,49 -15,16 -32,29 -50,43 -4,4 -11,7 -16,11 -9,10 -12,24 -6,34 6,11 18,15 30,13 7,-2 14,-5 21,-6 22,-4 40,7 50,27 19,36 -17,87 -60,82 -9,-2 -16,-4 -21,-13zm159 -120c3,18 4,36 6,55 1,11 5,23 8,34 6,23 17,44 32,61 31,35 76,36 107,2 13,-14 24,-30 31,-46 23,-44 31,-92 24,-141 -7,-49 -25,-92 -71,-118 -36,-20 -81,-16 -105,23 -6,11 -11,21 -15,33 -12,32 -15,64 -17,97zm156 -5c-3,41 -9,79 -36,113 -15,20 -28,19 -40,-5 -7,-14 -14,-29 -18,-44 -9,-39 -8,-79 0,-119 1,-8 5,-17 8,-25 10,-24 31,-29 50,-14 10,8 17,18 22,29 6,10 9,22 11,34 2,10 2,21 3,31zm320 -159c-2,-13 -5,-23 -16,-27 -9,-5 -18,-5 -26,2 -6,5 -10,12 -12,18 -23,43 -46,87 -69,130 -29,57 -60,114 -91,171 -11,22 -8,40 8,47 17,8 30,0 41,-22 14,-29 29,-57 45,-86 37,-72 74,-141 111,-213 5,-7 6,-15 9,-20zm-245 68c1,49 36,75 77,58 20,-8 36,-20 48,-39 15,-25 12,-55 -6,-77 -5,-6 -11,-10 -17,-15 -19,-18 -39,-19 -60,-4 -28,20 -40,48 -42,77zm52 7c5,-13 7,-21 11,-32 7,3 11,5 16,8 2,7 -6,16 -27,24zm153 243c33,1 67,-28 74,-62 4,-20 -1,-37 -15,-53 -25,-28 -81,-32 -102,2 -10,16 -17,32 -18,51 0,36 25,62 61,62zm-6 -56c1,-7 2,-14 6,-21 2,-6 13,-6 17,-1 6,4 4,10 -1,13 -4,5 -11,9 -17,12 -1,-1 -4,-2 -5,-3zm-1881 416c-11,1 -20,2 -28,2 -11,0 -20,-1 -31,-1 0,-11 0,-19 0,-28 0,-15 0,-30 -1,-46 -1,-12 -10,-22 -22,-23 -11,-1 -23,7 -27,19 -1,6 -1,10 -1,16 0,46 0,90 0,135 0,20 -1,40 0,60 0,12 7,22 18,24 11,4 24,-1 29,-14 3,-5 3,-11 3,-18 1,-24 3,-47 3,-72 19,-1 38,-2 59,-3 0,13 0,23 1,34 0,15 0,30 1,44 2,15 16,27 28,24 14,-1 24,-11 24,-26 -1,-46 -3,-92 -3,-138 -1,-20 -1,-41 -2,-60 -1,-13 -12,-20 -23,-21 -12,0 -22,8 -26,21 0,4 0,10 0,15 0,18 -1,36 -2,56zm229 61c1,11 1,17 1,21 1,19 3,37 5,55 1,15 12,23 24,23 16,2 26,-8 28,-23 0,-9 -1,-18 -1,-27 0,-26 -1,-53 -1,-80 0,-16 1,-34 0,-50 0,-9 -5,-20 -9,-27 -7,-9 -17,-15 -25,-23 -16,-14 -34,-21 -56,-20 -26,1 -50,10 -70,29 -46,41 -57,94 -46,153 7,42 48,59 83,37 12,-8 23,-17 32,-27 12,-11 21,-24 35,-41zm-97 19c-4,-37 -3,-72 27,-99 8,-7 20,-13 31,-16 11,-5 22,0 30,11 -25,38 -48,78 -88,104zm619 77c-12,27 -23,57 -44,82 -8,10 -16,19 -23,30 -9,14 -5,29 7,37 11,9 26,7 37,-6 23,-29 45,-58 60,-93 32,-69 54,-141 76,-213 2,-7 4,-14 2,-21 0,-12 -8,-21 -17,-23 -10,-4 -20,-2 -27,7 -4,4 -7,10 -9,16 -12,37 -22,74 -34,111 -1,5 -5,10 -7,16 -20,-15 -31,-34 -38,-55 -8,-23 -12,-46 -11,-71 1,-14 -7,-24 -20,-27 -11,-2 -24,4 -30,15 -2,5 -3,11 -3,17 0,45 7,89 35,127 12,17 30,32 46,51zm198 6c9,0 18,1 27,0 32,-1 77,-21 88,-69 5,-21 10,-44 9,-66 0,-31 -10,-59 -33,-80 -30,-28 -66,-38 -107,-32 -22,2 -31,10 -35,32 -1,5 -1,10 -1,14 -11,106 -4,212 0,318 1,6 2,13 4,19 8,15 31,19 41,6 6,-6 8,-15 8,-22 1,-19 -1,-37 -1,-55 -1,-21 0,-41 0,-65zm-5 -53c2,-49 4,-94 5,-138 30,-6 57,9 65,35 10,26 5,53 -6,80 -4,13 -16,19 -29,21 -9,1 -19,1 -35,2zm156 -28c5,18 12,38 26,55 34,43 94,39 120,-10 24,-49 27,-101 14,-153 -8,-31 -29,-52 -61,-61 -9,-2 -19,-2 -29,2 -30,9 -52,30 -64,60 -14,34 -14,69 -6,107zm111 -88c7,35 5,67 -7,99 -1,3 -3,8 -6,12 -8,11 -21,11 -29,2 -3,-4 -6,-6 -7,-11 -16,-32 -21,-66 -7,-101 4,-9 12,-19 20,-24 14,-9 26,-4 33,11 2,5 2,10 3,12zm157 62c4,9 7,16 9,23 7,22 14,43 21,64 7,17 20,23 35,20 16,-5 23,-18 17,-35 -13,-36 -26,-71 -40,-107 -3,-8 -2,-14 4,-21 10,-13 19,-27 29,-41 4,-6 7,-12 9,-18 5,-12 0,-24 -12,-30 -11,-7 -24,-5 -33,6 -3,2 -4,6 -6,8 -15,21 -32,43 -47,64 -2,3 -6,5 -11,11 0,-13 0,-22 0,-32 0,-14 1,-28 -2,-41 -1,-14 -12,-22 -25,-22 -13,0 -25,10 -27,22 -1,5 0,11 0,16 -1,44 -1,87 -1,130 0,21 0,43 2,64 2,16 15,26 30,23 14,-1 24,-11 24,-27 0,-11 -1,-21 -3,-32 -2,-21 10,-33 27,-45zm167 -4c-2,0 -3,-1 -4,-1 1,-26 2,-51 2,-78 2,-18 3,-35 2,-53 0,-12 -11,-21 -24,-22 -12,-1 -24,6 -28,20 -1,5 -1,11 -2,16 -1,49 -3,97 -5,146 -1,15 0,32 3,48 4,24 28,35 50,22 8,-5 15,-12 21,-20 14,-22 27,-44 39,-66 5,-7 9,-14 12,-21 5,16 5,31 5,45 0,17 0,32 0,47 0,16 8,27 22,28 14,2 28,-7 31,-22 1,-6 1,-12 1,-17 2,-46 2,-93 3,-139 0,-11 0,-21 0,-32 0,-14 -7,-26 -21,-30 -13,-6 -25,0 -34,10 -10,13 -22,27 -31,42 -16,26 -28,51 -42,77zm-2454 498c1,10 1,16 1,21 1,18 2,36 5,54 1,16 11,24 24,24 15,1 26,-8 28,-24 0,-9 -1,-18 -1,-26 0,-27 -1,-54 -1,-81 0,-16 1,-34 0,-50 0,-9 -5,-20 -10,-27 -7,-9 -16,-15 -24,-23 -16,-14 -34,-21 -56,-20 -27,1 -50,11 -70,29 -47,41 -57,95 -47,153 7,42 48,59 83,37 13,-8 23,-17 33,-26 11,-12 21,-25 35,-41zm-97 18c-5,-37 -3,-72 27,-99 8,-7 20,-12 30,-16 12,-5 22,0 30,12 -24,37 -47,78 -87,103zm238 83c9,0 17,1 26,0 33,-1 77,-21 89,-69 5,-21 9,-44 8,-66 0,-30 -9,-58 -33,-79 -30,-28 -66,-39 -107,-33 -22,2 -30,11 -35,33 -1,4 -1,9 -1,14 -10,106 -3,212 0,318 1,6 2,13 5,18 8,16 30,19 41,6 5,-6 8,-15 8,-22 1,-19 -1,-37 -1,-55 -2,-21 0,-40 0,-65zm-5 -52c1,-49 3,-95 5,-139 30,-6 57,9 65,35 9,27 4,54 -6,80 -5,13 -16,19 -29,21 -9,1 -20,1 -35,3zm148 -75c1,23 1,42 2,62 1,16 2,32 6,49 2,15 17,24 33,22 13,-4 22,-15 20,-32 -2,-34 -5,-68 -7,-103 -1,-21 2,-43 3,-64 1,-14 7,-19 20,-17 7,2 14,6 19,10 20,10 41,-1 41,-24 0,-14 -6,-26 -20,-31 -11,-5 -24,-7 -37,-8 -42,-5 -73,21 -77,64 -2,24 -2,50 -3,72zm215 33c2,-1 5,-1 7,-3 11,0 20,0 30,-1 12,-1 25,-2 37,-4 22,-6 37,-24 39,-47 5,-37 -20,-78 -55,-91 -10,-3 -23,-6 -35,-3 -40,8 -67,33 -75,74 -8,35 -1,69 9,103 6,21 17,37 34,52 13,13 29,19 48,16 45,-3 75,-36 88,-74 4,-12 -2,-22 -13,-28 -10,-5 -22,-1 -29,9 -3,6 -7,12 -9,18 -7,11 -16,19 -29,25 -12,5 -20,4 -29,-6 -10,-11 -17,-24 -18,-40zm-7 -49c0,-22 6,-40 26,-49 18,-8 31,-4 41,13 2,5 4,11 5,18 2,8 -2,13 -10,14 -21,1 -41,3 -62,4zm271 -20c-10,1 -19,2 -28,2 -10,0 -19,-1 -30,-1 0,-10 0,-18 0,-28 0,-15 0,-30 -1,-45 -1,-13 -10,-22 -22,-24 -12,-1 -23,7 -27,19 -1,6 -1,11 -1,16 0,46 0,90 0,136 0,19 -1,39 0,59 0,13 7,22 17,24 12,4 25,-1 30,-14 3,-4 3,-11 3,-18 1,-23 2,-47 2,-71 20,-1 39,-3 60,-4 0,13 0,24 1,34 0,15 0,30 1,44 1,15 15,27 28,25 14,-1 23,-12 23,-27 -1,-45 -2,-92 -2,-138 -1,-19 -1,-40 -2,-60 -1,-13 -12,-20 -24,-21 -11,0 -22,8 -25,21 0,5 0,10 0,15 0,19 -1,36 -3,56zm138 -33c0,20 1,39 0,57 0,38 -1,75 -1,112 0,17 11,27 25,27 14,0 25,-9 27,-24 1,-4 1,-9 1,-13 0,-25 0,-50 1,-76 0,-29 2,-59 3,-90 9,-1 18,-1 25,-3 13,-4 21,-14 21,-26 0,-13 -9,-24 -23,-25 -7,-2 -14,-2 -21,-2 -36,3 -71,6 -107,9 -3,1 -4,1 -6,2 -13,3 -20,14 -19,27 0,11 9,22 21,24 7,1 14,0 21,1 11,0 21,0 32,0zm181 85c-1,0 -2,-1 -3,-1 1,-25 2,-51 2,-78 1,-17 3,-35 1,-52 0,-13 -10,-21 -23,-22 -13,-2 -24,5 -28,19 -1,5 -1,11 -2,17 -1,49 -4,96 -5,145 -1,16 0,32 2,48 5,25 28,35 51,22 8,-4 15,-11 21,-20 13,-22 26,-44 39,-66 5,-7 8,-14 12,-21 4,16 4,32 4,46 0,16 0,31 0,46 0,16 9,27 23,28 14,2 28,-7 31,-22 1,-6 1,-12 1,-16 1,-47 1,-94 3,-140 0,-11 0,-21 0,-32 0,-14 -7,-25 -21,-30 -13,-6 -25,0 -34,11 -11,12 -22,26 -32,42 -15,25 -28,51 -42,76z"/>
     <path class="fil1" d="M1832 1741c-11,1 -20,2 -28,2 -11,0 -20,-1 -31,-1 0,-10 0,-18 0,-28 0,-15 0,-30 -1,-45 -1,-13 -10,-22 -22,-24 -12,-1 -23,7 -27,19 -1,6 -1,11 -1,16 0,46 0,90 0,136 0,19 -1,39 0,59 0,13 7,22 17,24 12,4 25,-1 30,-14 3,-4 3,-11 3,-18 1,-23 2,-47 2,-71 20,-1 39,-3 60,-4 0,13 0,24 1,34 0,15 0,30 1,44 1,15 15,27 28,25 14,-1 23,-12 23,-27 -1,-45 -2,-92 -2,-138 -1,-19 -1,-40 -2,-60 -1,-13 -12,-20 -24,-21 -11,0 -22,8 -25,21 0,5 0,10 0,15 0,19 -1,36 -2,56zm75 42c4,16 5,33 11,49 11,39 49,64 93,65 38,0 81,-28 94,-63 5,-15 1,-28 -11,-35 -12,-7 -26,-3 -35,8 -5,7 -9,14 -13,20 -13,14 -31,19 -48,14 -18,-3 -28,-16 -31,-32 -5,-20 -5,-40 0,-59 4,-17 13,-31 27,-42 12,-9 24,-8 33,4 5,3 7,9 11,14 9,13 25,17 38,9 13,-8 16,-23 7,-38 -7,-12 -15,-22 -26,-31 -28,-24 -65,-24 -94,-2 -38,30 -55,71 -56,119zm299 14c4,9 7,16 10,23 7,22 14,43 21,64 7,18 19,24 35,20 15,-5 22,-17 16,-35 -13,-36 -26,-71 -40,-107 -3,-8 -2,-14 4,-21 10,-13 20,-27 29,-41 5,-6 7,-11 9,-17 5,-13 0,-25 -11,-31 -12,-7 -25,-4 -34,6 -3,3 -4,6 -6,8 -15,21 -31,44 -47,64 -2,3 -5,5 -11,11 0,-13 0,-22 0,-31 0,-14 1,-28 -1,-41 -2,-14 -13,-22 -26,-22 -13,0 -25,9 -27,22 -1,4 0,10 0,15 -1,44 -1,87 -1,130 0,21 0,43 2,64 3,17 15,26 31,24 14,-1 23,-12 23,-28 0,-11 -1,-21 -2,-32 -3,-21 9,-32 26,-45zm116 27c4,17 11,37 25,54 34,44 95,39 120,-10 25,-49 27,-100 14,-153 -8,-31 -29,-52 -60,-60 -10,-3 -20,-3 -30,1 -30,9 -52,30 -64,61 -14,33 -14,68 -5,107zm110 -89c7,35 5,68 -7,99 -1,4 -3,8 -6,12 -8,11 -21,11 -29,2 -3,-3 -6,-6 -7,-10 -16,-33 -21,-67 -7,-102 4,-9 12,-18 20,-24 14,-8 26,-4 33,12 2,4 2,9 3,11zm78 42c1,23 1,42 2,62 2,16 3,32 6,49 3,15 18,24 33,22 14,-4 22,-15 21,-32 -2,-34 -6,-68 -7,-103 -1,-21 1,-43 2,-64 1,-14 7,-19 20,-17 7,2 14,6 20,10 20,10 41,-1 41,-24 0,-14 -6,-26 -20,-31 -12,-5 -25,-7 -37,-8 -42,-5 -74,21 -77,64 -3,24 -3,50 -4,72zm167 47c4,17 11,37 25,54 34,44 95,39 120,-10 25,-49 27,-100 14,-153 -8,-31 -29,-52 -60,-60 -10,-3 -20,-3 -29,1 -31,9 -53,30 -65,61 -14,33 -14,68 -5,107zm110 -89c7,35 5,68 -7,99 -1,4 -3,8 -6,12 -8,11 -20,11 -29,2 -3,-3 -5,-6 -7,-10 -16,-33 -21,-67 -7,-102 4,-9 12,-18 20,-24 14,-8 26,-4 33,12 2,4 2,9 3,11zm406 -27c0,20 1,39 0,57 0,38 -1,75 -1,112 0,17 11,27 25,27 14,0 25,-9 27,-24 1,-4 1,-9 1,-13 0,-25 0,-50 1,-76 0,-29 2,-59 3,-90 9,-1 18,-1 25,-3 13,-4 21,-14 21,-26 0,-13 -9,-24 -23,-25 -7,-2 -14,-2 -21,-2 -36,3 -71,6 -107,9 -2,1 -4,1 -6,2 -13,3 -20,14 -19,27 0,11 9,22 21,24 7,1 14,0 21,1 11,0 21,0 32,0zm277 95c1,10 1,16 1,21 1,18 2,36 5,54 1,16 11,24 24,24 15,1 26,-8 28,-24 0,-9 -1,-18 -1,-26 0,-27 -1,-54 -1,-81 0,-16 1,-34 0,-50 0,-9 -5,-20 -9,-27 -7,-9 -17,-15 -25,-23 -16,-14 -34,-21 -56,-20 -27,1 -50,11 -70,29 -46,41 -57,95 -46,153 7,42 47,59 82,37 13,-8 24,-17 33,-26 12,-12 21,-25 35,-41zm-97 18c-4,-37 -3,-72 27,-99 8,-7 20,-12 30,-16 12,-5 22,0 31,12 -25,37 -48,78 -88,103zm293 -80c-11,1 -20,2 -28,2 -11,0 -20,-1 -31,-1 0,-10 0,-18 0,-28 0,-15 0,-30 -1,-45 -1,-13 -10,-22 -22,-24 -12,-1 -23,7 -27,19 -1,6 -1,11 -1,16 0,46 0,90 0,136 0,19 -1,39 0,59 0,13 7,22 18,24 11,4 24,-1 29,-14 3,-4 3,-11 3,-18 1,-23 2,-47 2,-71 20,-1 39,-3 60,-4 0,13 0,24 1,34 0,15 0,30 1,44 1,15 15,27 28,25 14,-1 23,-12 23,-27 -1,-45 -2,-92 -2,-137 -1,-20 -1,-41 -2,-61 -1,-13 -12,-20 -23,-21 -12,0 -23,8 -26,21 0,5 0,10 0,15 0,19 -1,36 -2,56zm74 36c1,23 1,42 2,62 1,16 3,32 6,49 2,15 18,24 33,22 14,-4 22,-15 21,-32 -3,-34 -6,-68 -7,-103 -1,-21 1,-43 2,-64 1,-14 7,-19 20,-17 7,2 14,6 20,10 19,10 40,-1 40,-24 0,-14 -5,-26 -19,-31 -12,-5 -25,-7 -38,-8 -42,-5 -73,21 -77,64 -2,24 -2,50 -3,72zm166 47c5,17 12,37 26,54 34,44 94,39 120,-10 25,-49 27,-100 14,-153 -8,-31 -29,-52 -61,-60 -9,-3 -19,-3 -29,1 -30,9 -52,30 -64,61 -14,33 -14,68 -6,107zm111 -89c7,35 5,68 -7,99 -1,4 -3,8 -6,12 -8,11 -21,11 -29,2 -3,-3 -6,-6 -7,-10 -16,-33 -21,-67 -7,-102 4,-9 12,-18 20,-24 14,-8 26,-4 33,12 2,4 2,9 3,11zm-3344 509c12,-16 18,-31 14,-50 -5,-30 -33,-53 -70,-58 -15,-2 -30,-3 -45,-3 -21,0 -33,11 -33,31 3,59 2,118 2,177 0,32 12,44 45,47 10,1 22,2 33,2 38,-2 73,-13 96,-43 25,-33 15,-72 -21,-92 -6,-4 -12,-6 -21,-11zm-82 95c1,-18 2,-34 2,-53 27,-5 51,-2 76,11 11,6 14,14 3,23 -7,7 -16,13 -25,16 -17,6 -35,7 -56,3zm0 -106c0,-17 0,-32 1,-49 14,-4 27,-1 38,8 11,8 11,16 0,24 -10,7 -23,13 -35,20 -1,-1 -2,-2 -4,-3zm625 109c-38,0 -43,-3 -46,-36 -5,-45 -10,-97 -10,-143 0,-13 -11,-22 -24,-22 -12,-1 -25,7 -28,18 -1,6 -1,12 -1,17 1,30 2,60 4,91 2,22 4,43 9,64 8,38 30,56 73,59 32,2 64,5 97,6 34,1 57,-13 68,-42 4,-9 7,-19 9,-28 8,-50 2,-100 -4,-151 -1,-16 -16,-24 -34,-21 -14,3 -22,14 -19,29 4,47 9,93 2,141 -4,22 -8,24 -32,23 -2,0 -4,-1 -7,-2 -1,-6 -2,-13 -2,-19 -1,-35 -1,-71 -2,-106 -1,-20 -1,-40 -3,-58 -2,-15 -12,-25 -28,-25 -13,1 -25,11 -25,26 -1,6 0,12 0,19 1,33 2,66 3,100 2,20 0,40 0,60zm257 -57c3,10 6,17 9,23 7,23 14,44 21,65 7,17 20,23 35,19 15,-4 22,-17 16,-35 -13,-36 -26,-71 -40,-107 -3,-8 -2,-14 4,-21 10,-13 20,-27 29,-41 5,-5 7,-11 9,-17 5,-13 0,-24 -11,-30 -12,-7 -25,-5 -34,6 -2,2 -4,5 -6,8 -15,21 -31,43 -46,64 -3,2 -6,4 -12,10 0,-13 0,-22 0,-31 0,-14 1,-28 -1,-41 -1,-14 -13,-22 -26,-22 -13,0 -24,9 -27,22 -1,5 0,11 0,15 -1,44 -1,88 -1,131 0,21 0,43 2,64 3,16 16,25 31,23 14,-1 23,-12 23,-28 0,-10 -1,-21 -2,-31 -3,-21 9,-33 27,-46zm115 27c4,17 11,37 25,55 34,43 95,38 120,-11 25,-49 27,-100 14,-152 -8,-32 -29,-53 -60,-61 -10,-2 -20,-2 -29,1 -31,10 -53,31 -64,61 -14,34 -14,69 -6,107zm110 -89c7,35 5,68 -7,99 -1,4 -3,9 -5,12 -9,12 -21,12 -30,2 -3,-3 -5,-5 -7,-10 -16,-33 -21,-66 -7,-101 4,-10 12,-19 20,-25 14,-8 26,-3 33,12 2,4 2,9 3,11zm229 -32c0,10 1,18 0,27 -4,43 -7,85 -10,128 -1,9 -1,18 1,27 3,12 14,21 26,21 13,-2 23,-10 26,-23 1,-3 1,-7 1,-10 3,-49 7,-98 9,-147 1,-14 0,-29 -2,-43 -4,-19 -16,-33 -35,-33 -28,-1 -57,-1 -85,3 -21,2 -30,16 -32,36 -1,7 -1,13 -1,20 1,19 1,40 1,60 0,24 -2,46 -10,68 -6,0 -9,-1 -14,-1 -20,1 -32,18 -26,37 7,26 41,38 63,22 8,-7 18,-16 21,-26 8,-19 15,-39 18,-60 3,-27 1,-54 2,-82 0,-7 0,-15 0,-24 16,0 29,0 47,0zm130 107c2,-1 5,-1 7,-2 10,0 20,0 30,-1 12,-2 25,-3 36,-5 22,-6 38,-23 40,-47 5,-37 -20,-78 -55,-91 -10,-3 -23,-5 -35,-3 -41,8 -67,34 -76,74 -8,35 -1,69 10,103 6,21 17,37 34,52 12,13 29,19 47,17 46,-4 76,-36 89,-75 3,-12 -2,-22 -13,-28 -10,-4 -22,-1 -29,10 -4,5 -7,11 -9,17 -7,12 -17,20 -29,26 -12,4 -20,3 -30,-6 -9,-12 -16,-25 -17,-41zm-7 -49c0,-22 6,-40 26,-49 18,-8 31,-3 40,13 3,6 5,12 6,19 1,8 -2,12 -10,14 -21,1 -41,2 -62,3zm590 -52c0,19 1,38 0,57 0,37 -2,74 -2,112 0,16 12,26 26,26 14,0 24,-9 27,-24 1,-4 1,-8 1,-13 0,-24 0,-50 1,-76 0,-29 1,-59 2,-89 10,-2 19,-2 26,-4 13,-3 21,-14 21,-25 0,-13 -9,-25 -23,-26 -7,-1 -14,-1 -21,-1 -36,2 -71,6 -107,8 -3,1 -4,1 -6,2 -13,4 -20,14 -19,27 0,12 8,22 21,24 7,2 14,0 21,2 11,0 21,0 32,0zm277 94c1,11 1,16 1,21 1,19 2,36 4,55 2,15 12,23 25,23 15,1 26,-8 28,-23 0,-10 -1,-19 -1,-27 0,-27 -1,-54 -1,-80 0,-17 1,-34 0,-51 0,-9 -5,-19 -10,-26 -7,-10 -16,-15 -24,-24 -17,-14 -34,-21 -56,-19 -27,1 -50,10 -70,29 -47,40 -57,94 -47,152 7,42 48,60 83,38 13,-9 23,-18 33,-27 11,-12 21,-25 35,-41zm-97 19c-5,-38 -4,-73 27,-99 8,-7 20,-13 30,-17 12,-4 22,0 30,12 -24,37 -47,78 -87,104zm292 -81c-10,1 -20,3 -28,3 -10,0 -20,-2 -30,-2 0,-10 0,-18 0,-28 0,-15 0,-30 -1,-45 -1,-13 -11,-22 -22,-23 -12,-1 -24,7 -27,18 -1,6 -1,11 -1,17 0,45 0,89 0,135 0,20 -1,39 0,59 0,13 7,22 17,25 12,3 25,-1 29,-14 4,-5 4,-12 4,-19 1,-23 2,-46 2,-71 20,-1 39,-2 60,-3 0,12 0,23 1,33 0,15 0,31 1,45 1,15 15,26 28,24 14,-1 23,-12 23,-27 -1,-45 -2,-92 -2,-137 -1,-20 -1,-41 -2,-61 -2,-13 -12,-20 -24,-21 -11,0 -22,8 -25,21 0,5 0,11 0,15 0,19 -2,36 -3,56zm132 112c0,-7 -1,-13 -1,-20 -3,-53 2,-113 2,-171 0,-12 -11,-21 -23,-23 -11,-1 -23,3 -27,14 -4,7 -5,14 -5,22 -1,32 -1,66 -1,99 0,27 0,55 0,81 1,25 10,37 34,46 17,6 34,7 52,6 25,-3 50,-4 74,-5 3,6 5,8 8,11 6,10 16,15 28,11 11,-2 20,-10 21,-24 2,-29 -6,-45 -35,-47 -1,0 -3,-1 -5,-2 -3,-50 8,-128 5,-182 -1,-15 -12,-24 -26,-24 -13,0 -24,8 -27,21 -1,4 -1,9 -1,14 -2,57 -2,113 -7,171 -22,1 -43,8 -66,2zm237 -43c3,-1 5,-1 7,-2 11,0 20,0 31,-1 11,-2 24,-3 36,-5 22,-6 37,-23 39,-47 5,-37 -20,-78 -54,-91 -11,-3 -24,-5 -35,-3 -41,8 -68,34 -76,74 -8,35 -1,69 9,103 6,21 18,37 34,52 13,13 29,19 48,17 45,-4 75,-36 88,-75 4,-11 -2,-22 -13,-28 -10,-4 -22,-1 -29,10 -3,5 -7,11 -9,17 -7,12 -16,20 -29,26 -12,4 -20,3 -29,-6 -10,-12 -17,-25 -18,-41zm-7 -49c0,-22 6,-40 26,-49 19,-8 31,-3 41,13 2,6 4,12 6,19 1,8 -3,12 -11,14 -21,1 -41,2 -62,3zm290 -5c12,-16 18,-31 14,-50 -6,-30 -34,-53 -70,-58 -15,-2 -30,-3 -45,-3 -21,0 -33,11 -33,31 3,59 1,118 1,177 0,32 13,44 46,47 10,1 22,2 32,2 39,-2 74,-13 97,-43 25,-33 15,-72 -21,-92 -6,-4 -13,-6 -21,-11zm-82 95c1,-18 2,-34 2,-53 27,-5 51,-2 76,11 11,6 14,14 3,23 -7,7 -16,13 -26,16 -16,6 -35,7 -55,3zm0 -106c0,-17 0,-32 1,-49 14,-4 26,-1 38,8 11,8 11,16 0,24 -10,7 -23,13 -35,20 -1,-1 -2,-2 -4,-3zm-3350 468c13,-16 24,-29 34,-43 10,-12 18,-22 26,-34 7,-12 5,-25 -6,-35 -9,-7 -22,-8 -33,0 -4,4 -8,9 -11,12 -20,26 -40,51 -60,77 -18,27 -15,49 13,65 15,10 33,16 49,23 11,5 22,0 28,-9 7,-8 9,-20 2,-29 -4,-6 -11,-12 -18,-16 -7,-4 -14,-6 -24,-11zm95 -21c2,-4 3,-7 6,-9 5,-6 12,-13 18,-20 5,-5 10,-9 14,-15 10,-12 10,-27 0,-36 -9,-9 -23,-12 -34,-2 -25,21 -48,44 -64,73 -5,10 -8,24 2,31 23,19 47,38 73,53 13,8 30,-2 35,-18 6,-14 -1,-25 -15,-33 -12,-7 -24,-16 -35,-24z"/>
     <path class="fil1" d="M699 2753c-3,-9 -14,-55 -15,-62 -11,-42 -23,-85 -35,-128 -6,-23 -13,-46 -27,-64 -12,-18 -38,-19 -50,-2 -4,7 -8,14 -10,21 -7,28 -13,56 -19,84 -8,49 -15,98 -23,148 -4,29 -7,58 -9,87 -3,19 10,32 26,32 16,1 26,-11 27,-29 1,-14 1,-27 4,-41 8,-59 17,-119 26,-177 3,-9 4,-17 6,-27 6,18 11,34 15,52 16,60 33,155 59,213 4,11 15,17 25,16 12,0 24,-10 26,-20 2,-8 5,-16 6,-24 7,-57 24,-147 44,-199 8,-19 15,-37 23,-58 1,12 3,21 4,31 6,45 11,90 17,134 4,31 10,76 12,107 1,17 13,31 29,31 16,0 28,-15 27,-34 -6,-43 -13,-100 -19,-144 -6,-46 -10,-93 -17,-140 -4,-24 -5,-49 -18,-72 -11,-19 -36,-22 -51,-6 -7,8 -13,19 -16,28 -27,67 -48,170 -67,243zm362 26c2,11 2,17 2,21 1,19 2,36 4,55 1,15 12,23 25,23 15,2 25,-8 28,-23 0,-9 -1,-19 -1,-27 0,-27 -2,-53 -2,-80 0,-16 2,-34 0,-50 0,-10 -4,-20 -9,-27 -7,-9 -16,-15 -24,-23 -17,-14 -34,-21 -56,-20 -27,1 -50,10 -70,29 -47,41 -57,94 -47,153 7,42 48,59 83,37 13,-8 23,-18 33,-27 11,-12 21,-24 34,-41zm-96 19c-5,-37 -4,-72 27,-99 8,-7 19,-13 30,-16 12,-5 22,0 30,11 -24,38 -48,78 -87,104zm179 -39c4,17 5,33 11,49 11,40 48,65 93,66 38,0 81,-28 94,-63 5,-15 1,-28 -12,-35 -11,-7 -25,-4 -34,8 -5,7 -9,14 -13,20 -13,14 -31,18 -48,14 -18,-4 -28,-17 -32,-33 -4,-20 -4,-39 0,-58 5,-18 14,-32 28,-42 12,-9 24,-8 33,3 5,4 7,10 11,14 9,13 25,18 38,10 13,-8 16,-24 7,-39 -7,-11 -15,-22 -26,-30 -28,-24 -65,-24 -94,-2 -38,30 -55,71 -56,118zm295 -74c0,20 1,38 0,57 0,37 -1,75 -1,112 0,16 11,27 25,27 14,0 25,-10 27,-25 1,-3 1,-8 1,-13 0,-24 0,-50 1,-75 0,-29 1,-60 3,-90 9,-1 18,-1 25,-4 13,-3 21,-14 21,-25 0,-13 -9,-25 -23,-26 -7,-1 -14,-1 -21,-1 -36,2 -71,6 -107,8 -3,1 -4,1 -6,3 -13,3 -20,13 -19,26 0,12 8,22 21,25 7,1 14,0 21,1 11,0 21,0 32,0zm179 101c2,-1 5,-1 7,-2 10,0 20,0 30,-1 12,-1 25,-3 36,-5 22,-6 38,-23 40,-46 5,-38 -20,-79 -55,-91 -10,-4 -23,-6 -35,-4 -41,8 -67,34 -75,75 -9,35 -2,68 9,102 6,21 17,38 34,53 12,13 29,18 47,16 46,-3 76,-36 89,-75 3,-11 -2,-22 -13,-28 -10,-4 -22,-1 -29,10 -4,6 -7,11 -9,17 -7,12 -17,20 -29,26 -12,5 -20,3 -30,-6 -9,-12 -16,-24 -17,-41zm-7 -49c0,-22 6,-39 26,-49 18,-8 31,-3 40,13 3,6 5,12 6,19 1,8 -2,13 -10,14 -21,1 -41,2 -62,3zm217 144c9,0 17,1 26,0 33,-1 77,-21 89,-69 5,-21 9,-44 8,-66 0,-31 -9,-59 -33,-80 -30,-28 -66,-38 -107,-32 -22,2 -30,10 -35,32 -1,5 -1,10 -1,14 -10,106 -3,212 0,318 1,6 2,13 5,19 8,15 30,19 41,6 5,-6 8,-15 8,-22 1,-19 -1,-38 -1,-55 -2,-21 0,-41 0,-65zm-5 -53c1,-49 3,-94 5,-138 30,-6 57,9 65,35 9,26 4,53 -6,80 -5,13 -16,19 -29,21 -10,1 -20,1 -35,2zm149 -69c3,17 4,33 10,49 12,40 49,65 94,66 38,0 81,-28 94,-63 5,-15 1,-28 -12,-35 -11,-7 -25,-4 -35,8 -4,7 -8,14 -13,20 -12,14 -30,18 -47,14 -18,-4 -28,-17 -32,-33 -4,-20 -4,-39 0,-58 5,-18 14,-32 28,-42 12,-9 23,-8 33,3 4,4 7,10 10,14 10,13 26,18 39,10 13,-8 16,-24 7,-39 -7,-11 -15,-22 -26,-30 -28,-24 -65,-24 -94,-2 -39,30 -55,71 -56,118zm299 14c4,10 7,17 9,24 7,22 14,43 21,64 7,17 20,23 35,20 15,-5 22,-18 17,-35 -13,-36 -26,-71 -40,-107 -3,-9 -2,-14 4,-21 10,-13 19,-27 29,-41 4,-6 7,-12 9,-18 5,-13 0,-24 -12,-30 -11,-7 -24,-5 -33,6 -3,2 -4,6 -6,8 -15,21 -32,43 -47,64 -2,2 -6,5 -12,11 0,-13 0,-23 0,-32 0,-14 2,-28 -1,-41 -1,-14 -13,-22 -25,-22 -13,0 -25,10 -27,22 -1,5 0,11 0,15 -1,45 -1,88 -1,131 0,21 0,43 2,64 2,16 15,26 30,23 14,-1 24,-11 24,-28 0,-10 -2,-21 -3,-31 -2,-21 10,-33 27,-46zm262 6c1,11 1,17 1,21 1,19 3,36 5,55 1,15 12,23 24,23 16,2 26,-8 28,-23 0,-9 -1,-19 -1,-27 0,-27 -1,-53 -1,-80 0,-16 1,-34 0,-50 0,-10 -5,-20 -9,-27 -7,-9 -17,-15 -25,-23 -16,-14 -34,-21 -56,-20 -27,1 -50,10 -70,29 -46,41 -57,94 -46,153 7,42 48,59 83,37 12,-8 23,-18 32,-27 12,-12 21,-24 35,-41zm-97 19c-4,-37 -3,-72 27,-99 8,-7 20,-13 30,-16 12,-5 23,0 31,11 -25,38 -48,78 -88,104zm290 -9c0,3 0,7 0,10 0,17 0,34 1,52 0,15 11,26 25,27 15,2 27,-8 29,-25 8,-60 7,-104 6,-180 -4,-31 -11,-42 -41,-47 -46,-9 -80,11 -109,41 -24,25 -26,65 -6,92 6,7 14,14 22,21 -11,21 -23,42 -33,63 -7,14 -2,28 11,35 13,6 27,3 36,-10 15,-20 22,-46 36,-68 5,-8 11,-14 23,-11zm7 -112c-1,15 -2,30 -3,44 -1,15 -27,18 -40,16 -15,-1 -22,-16 -17,-29 7,-17 36,-34 60,-31zm345 8c0,20 1,38 0,57 0,37 -1,75 -1,112 0,16 12,27 26,27 14,0 24,-10 27,-25 1,-3 1,-8 1,-13 0,-24 0,-50 1,-75 0,-29 1,-60 2,-90 10,-1 19,-1 26,-4 13,-3 21,-14 21,-25 0,-13 -10,-25 -24,-26 -6,-1 -13,-1 -20,-1 -37,2 -72,6 -108,8 -2,1 -3,1 -5,3 -13,3 -20,13 -19,26 0,12 8,22 21,25 7,1 14,0 21,1 10,0 21,0 31,0zm277 94c2,11 2,17 2,21 1,19 2,36 4,55 1,15 12,23 25,23 15,2 25,-8 28,-23 0,-9 -2,-19 -2,-27 0,-27 -1,-53 -1,-80 0,-16 1,-34 0,-50 0,-10 -4,-20 -9,-27 -7,-9 -16,-15 -24,-23 -17,-14 -34,-21 -56,-20 -27,1 -50,10 -70,29 -47,41 -57,94 -47,153 7,42 48,59 83,37 13,-8 23,-18 32,-27 12,-12 21,-24 35,-41zm-96 19c-5,-37 -4,-72 27,-99 8,-7 19,-13 30,-16 11,-5 22,0 30,11 -24,38 -48,78 -87,104zm292 -80c-10,1 -20,2 -28,2 -10,0 -20,-1 -30,-1 0,-11 0,-19 0,-28 0,-15 0,-31 -1,-46 -2,-12 -11,-22 -23,-23 -11,-1 -23,7 -26,19 -2,6 -2,10 -2,16 0,45 0,90 0,135 0,20 -1,40 0,60 0,12 7,22 18,24 12,4 24,-1 29,-14 4,-5 4,-12 4,-19 1,-23 2,-46 2,-71 20,-1 38,-2 59,-3 0,13 0,23 1,34 0,15 0,30 2,44 1,15 15,27 28,24 14,-1 23,-11 23,-26 -1,-46 -2,-92 -2,-138 -2,-20 -2,-41 -3,-60 -1,-13 -11,-20 -23,-21 -12,0 -22,8 -26,21 0,4 0,10 0,15 0,18 -1,36 -2,56zm74 36c2,23 2,42 3,61 1,17 2,33 6,49 2,16 17,25 32,23 14,-4 22,-16 21,-32 -2,-35 -6,-69 -7,-104 -1,-21 1,-43 2,-64 2,-14 7,-18 20,-16 7,1 14,6 20,9 20,11 41,-1 41,-23 0,-14 -6,-27 -20,-31 -12,-5 -24,-7 -37,-9 -42,-4 -74,21 -77,64 -2,25 -2,51 -4,73zm167 46c5,18 12,38 25,55 34,43 95,38 120,-10 25,-49 27,-101 14,-153 -8,-32 -29,-52 -60,-61 -9,-2 -20,-2 -29,2 -31,9 -53,30 -64,60 -14,34 -14,69 -6,107zm111 -88c7,35 4,67 -7,99 -2,3 -4,8 -6,11 -8,12 -21,12 -29,3 -4,-4 -6,-6 -7,-11 -17,-32 -21,-66 -7,-101 3,-9 11,-19 19,-25 14,-8 26,-3 33,12 2,5 2,9 4,12zm223 -18c-14,19 -27,35 -40,53 -12,16 -7,38 12,43 11,3 20,0 27,-7 23,-22 41,-48 54,-77 7,-14 4,-29 -6,-40 -22,-23 -46,-46 -70,-67 -14,-12 -34,-4 -40,14 -2,4 -2,10 -3,18 -11,-9 -19,-17 -27,-24 -11,-12 -25,-13 -36,-5 -12,10 -14,26 -6,39 3,6 10,10 16,16 12,10 25,21 38,33 -6,5 -10,10 -13,15 -13,15 -27,30 -40,45 -12,17 -9,33 4,42 12,9 30,4 39,-9 15,-19 32,-36 48,-54 15,-15 27,-29 21,-56 9,8 15,14 22,21z"/>
    </g>
    <path class="fil2" d="M2905 3254c-36,-49 -173,-61 -304,-75 -131,-15 -345,0 -425,0 -80,0 -73,55 -340,24 -268,-31 -308,-26 -298,12 10,39 -22,151 -1,185 20,35 202,77 308,77 106,0 392,-23 501,-28 108,-5 244,-49 314,-30 70,20 178,28 196,23 17,-5 49,-188 49,-188z"/>
    <path class="fil1" d="M1779 3289c0,3 0,6 0,8 0,14 -1,28 -1,42 0,7 -1,14 -1,21 1,6 4,10 10,11 6,0 10,-4 11,-11 0,-1 0,-2 0,-3 1,-20 2,-40 2,-60 0,-5 0,-10 -1,-15 -2,-10 -8,-15 -18,-15 -7,0 -14,0 -22,1 -4,0 -10,1 -14,3 -7,3 -11,8 -12,16 -1,4 -1,9 -2,13 0,13 0,26 -1,40 0,7 0,15 0,22 0,5 4,10 9,11 5,0 9,-3 11,-9 1,-2 1,-4 1,-6 0,-15 0,-29 1,-43 0,-9 1,-17 1,-25 9,-2 17,-2 26,-1zm87 85c3,0 7,0 11,0 13,-1 31,-9 36,-29 2,-8 4,-18 3,-27 0,-12 -4,-24 -13,-32 -12,-12 -27,-16 -44,-14 -9,1 -12,5 -14,14 -1,2 -1,3 -1,5 -4,44 -1,87 0,131 1,2 1,5 2,8 3,6 12,7 17,2 2,-2 3,-6 3,-9 1,-8 0,-15 0,-23 -1,-8 0,-16 0,-26zm-2 -22c0,-20 1,-39 2,-57 12,-2 23,4 26,15 4,11 2,22 -2,32 -2,6 -7,8 -12,9 -4,1 -8,1 -14,1zm96 -11c2,7 5,15 10,22 14,18 39,16 50,-4 10,-20 11,-41 5,-63 -3,-13 -12,-21 -25,-25 -3,-1 -8,-1 -11,1 -13,4 -22,12 -27,25 -5,13 -5,28 -2,44zm45 -37c3,15 2,28 -3,41 0,1 -1,3 -2,5 -3,4 -9,4 -12,1 -1,-2 -2,-3 -3,-5 -6,-13 -8,-27 -3,-41 2,-4 5,-8 8,-10 6,-4 11,-2 14,4 1,2 1,4 1,5zm116 25c-1,-4 -2,-6 -3,-8 -3,-12 -7,-24 -10,-36 -2,-5 -4,-9 -7,-13 -6,-7 -15,-6 -20,2 -2,3 -3,5 -4,9 -1,7 -2,16 -3,24 -2,18 -3,36 -4,54 -1,8 3,13 9,14 6,0 10,-4 11,-11 1,-7 1,-14 2,-21 1,-8 1,-16 2,-24 2,2 3,5 4,7 3,9 7,17 10,26 3,6 7,12 14,12 8,0 12,-6 14,-12 4,-12 7,-24 11,-36 0,-2 1,-4 2,-6 1,1 2,2 2,4 1,16 1,31 2,47 0,7 4,12 11,12 5,-1 10,-6 10,-13 -1,-23 -2,-46 -3,-70 0,-4 -2,-9 -4,-13 -3,-7 -12,-10 -18,-6 -4,2 -7,5 -10,8 -3,6 -6,12 -8,19 -4,10 -6,20 -10,31zm97 12c2,7 5,15 11,22 13,18 38,16 49,-4 10,-20 11,-41 6,-63 -4,-13 -12,-21 -25,-25 -4,-1 -8,-1 -12,1 -13,4 -22,12 -27,25 -5,13 -5,28 -2,44zm46 -37c2,15 1,28 -3,41 -1,1 -2,3 -3,5 -3,4 -8,4 -12,1 -1,-2 -2,-3 -3,-5 -6,-13 -8,-27 -2,-41 1,-4 4,-8 8,-10 5,-4 10,-2 13,4 1,2 1,4 2,5zm96 26c2,3 3,6 4,9 3,9 6,18 9,26 2,8 8,10 14,9 6,-2 9,-8 7,-15 -6,-15 -11,-29 -17,-44 -1,-3 -1,-5 2,-8 4,-6 8,-11 12,-17 2,-2 3,-5 4,-7 1,-6 0,-10 -5,-13 -5,-3 -10,-2 -14,3 -1,1 -2,2 -3,3 -6,9 -12,18 -19,26 -1,1 -2,2 -4,5 0,-6 0,-9 0,-13 0,-6 0,-12 -1,-17 0,-6 -5,-9 -10,-9 -6,0 -10,4 -11,9 -1,2 0,4 0,6 -1,18 -1,36 -1,54 0,8 0,17 1,26 1,7 6,11 13,10 5,-1 9,-5 9,-12 0,-4 0,-8 -1,-13 -1,-8 4,-13 11,-18zm80 11c1,7 4,15 10,22 14,18 39,16 49,-4 10,-20 11,-41 6,-63 -3,-13 -12,-21 -25,-25 -4,-1 -8,-1 -12,1 -12,4 -21,12 -26,25 -6,13 -6,28 -2,44zm45 -37c3,15 2,28 -3,41 0,1 -1,3 -2,5 -4,4 -9,4 -12,1 -2,-2 -3,-3 -3,-5 -7,-13 -9,-27 -3,-41 1,-4 5,-8 8,-10 6,-4 11,-2 13,4 1,2 1,4 2,5zm144 47c0,-2 0,-3 0,-4 0,-14 0,-26 0,-39 0,-7 0,-14 -1,-20 -4,-20 -25,-26 -41,-15 -9,7 -15,17 -16,29 0,5 -1,10 -1,15 -1,13 -2,25 -2,37 -3,1 -5,1 -7,2 -11,3 -13,7 -12,17 0,6 3,10 8,11 4,1 8,-1 11,-7 1,-2 2,-4 4,-4 2,0 4,0 6,0 13,-1 26,-1 40,-1 2,0 4,1 5,2 3,3 7,4 11,2 3,-1 6,-4 6,-9 1,-8 -1,-13 -11,-16zm-20 1c-7,0 -14,0 -21,1 -1,-4 -1,-6 -1,-9 1,-13 2,-27 3,-41 1,-6 4,-12 10,-15 4,-2 8,-1 9,4 1,3 1,7 1,10 0,16 0,31 0,47 0,1 -1,2 -1,3zm86 15c6,0 10,-5 11,-11 0,-7 -5,-12 -11,-12 -7,0 -12,5 -12,11 0,6 6,12 12,12zm1 -56c6,1 11,-4 11,-10 0,-6 -4,-11 -10,-11 -6,0 -11,4 -11,10 -1,7 4,11 10,11z"/>
    <path class="fil1" d="M1097 3620c5,-9 11,-17 15,-28 11,-31 6,-64 -15,-83 -21,-17 -45,-23 -70,-17 -7,1 -13,3 -19,4 -17,4 -24,12 -24,29 -2,54 -5,108 -6,164 0,37 2,76 3,113 1,19 19,35 36,34 17,0 34,-1 51,-3 42,-6 73,-26 85,-68 4,-14 6,-31 6,-46 -2,-26 -5,-51 -25,-71 -11,-10 -24,-18 -37,-28zm-72 169c0,-32 0,-62 -1,-91 0,-8 4,-14 12,-18 14,-7 30,-10 46,-10 10,0 18,5 22,15 12,24 14,50 3,76 -7,14 -20,22 -35,24 -15,3 -30,2 -47,4zm1 -166c1,-13 2,-22 2,-32 1,-14 2,-28 2,-42 1,-11 4,-14 15,-14 18,0 28,12 26,30 -1,13 -7,23 -15,32 -8,10 -16,17 -30,26zm211 125c-1,0 -2,-1 -3,-1 1,-22 2,-44 2,-66 1,-15 2,-30 1,-45 0,-11 -9,-18 -20,-19 -11,-1 -21,5 -24,17 -1,4 -1,9 -2,14 -1,42 -3,82 -4,123 -1,13 0,27 2,41 4,21 24,30 43,19 7,-4 13,-10 18,-17 11,-19 22,-38 33,-56 4,-6 7,-12 10,-18 4,14 4,27 4,38 0,14 0,27 0,40 0,14 7,23 19,24 12,2 23,-6 26,-19 1,-5 1,-10 1,-14 1,-39 1,-79 2,-119 0,-8 0,-17 0,-26 0,-12 -6,-22 -17,-26 -11,-5 -21,0 -29,9 -9,11 -19,23 -27,36 -13,21 -23,43 -35,65zm258 -77c0,9 1,16 0,22 -3,37 -6,73 -8,109 -1,8 -1,16 1,23 2,11 12,18 22,18 11,-1 20,-8 22,-19 1,-3 1,-6 1,-9 3,-42 5,-83 7,-125 1,-11 0,-24 -2,-36 -2,-16 -13,-28 -29,-28 -24,-1 -49,-1 -72,2 -18,2 -26,14 -27,31 -1,6 -1,11 -1,17 1,16 1,34 1,51 0,20 -2,39 -9,57 -5,0 -8,-1 -12,-1 -16,1 -26,16 -21,32 6,22 34,33 53,19 7,-6 15,-14 18,-22 7,-17 13,-34 15,-51 3,-23 1,-46 2,-70 0,-5 0,-12 0,-20 13,0 24,0 39,0zm194 0c0,9 1,16 0,22 -3,37 -6,73 -8,109 -1,8 -1,16 1,23 2,11 12,18 22,18 11,-1 20,-8 22,-19 1,-3 1,-6 1,-9 3,-42 6,-83 8,-125 1,-11 0,-24 -2,-36 -3,-16 -14,-28 -30,-28 -24,-1 -48,-1 -72,2 -18,2 -26,14 -27,31 -1,6 -1,11 -1,17 1,16 1,34 1,51 0,20 -2,39 -9,57 -5,0 -8,-1 -11,-1 -17,1 -27,16 -22,32 6,22 34,33 53,19 7,-6 15,-14 18,-22 7,-17 13,-34 15,-51 3,-23 1,-46 2,-70 0,-5 0,-12 0,-20 14,0 24,0 39,0zm198 85c1,9 1,14 1,17 1,16 2,31 4,47 1,13 10,20 21,20 13,1 22,-7 24,-20 0,-8 -1,-16 -1,-23 0,-23 -1,-45 -1,-68 0,-14 1,-29 0,-42 0,-8 -4,-17 -8,-23 -6,-8 -14,-13 -21,-20 -14,-12 -29,-18 -47,-17 -23,1 -43,9 -60,25 -39,35 -48,80 -39,129 6,36 40,51 70,32 11,-7 20,-15 28,-23 10,-10 17,-20 29,-34zm-82 15c-4,-31 -3,-61 23,-83 7,-6 17,-11 26,-14 10,-4 19,0 25,10 -20,31 -40,66 -74,87zm322 23c-1,-3 -1,-6 -1,-8 1,-27 1,-54 1,-81 0,-14 0,-27 -3,-41 -9,-40 -51,-54 -84,-30 -20,15 -31,35 -34,59 -1,11 -2,22 -3,32 -1,26 -2,50 -3,76 -5,2 -10,2 -14,4 -22,7 -28,14 -26,36 1,12 7,19 17,21 10,2 17,-2 23,-13 1,-5 4,-8 9,-8 3,-1 7,-1 11,-1 28,-1 56,-2 83,-2 4,0 8,3 10,5 7,7 15,8 23,5 8,-3 13,-10 14,-19 2,-18 -3,-27 -23,-35zm-42 2c-14,1 -29,1 -44,2 -1,-7 -1,-12 -1,-17 2,-28 4,-56 6,-85 1,-13 9,-24 21,-31 9,-5 15,-2 18,8 2,7 2,15 2,21 0,32 -1,65 -1,96 0,2 -1,4 -1,6zm162 -60c12,3 15,10 14,21 -2,20 -3,42 -3,63 -1,13 7,21 18,23 10,1 19,-6 22,-17 1,-6 1,-11 2,-17 0,-13 1,-26 2,-39 0,-3 1,-8 3,-10 6,-6 14,-12 22,-18 2,5 4,8 5,12 8,21 17,43 25,66 4,10 12,17 21,15 11,-1 18,-9 19,-20 0,-5 -1,-11 -3,-15 -9,-24 -17,-48 -27,-72 -8,-17 -10,-32 3,-46 7,-8 12,-18 16,-27 6,-14 -1,-28 -14,-30 -10,-2 -17,3 -23,12 -10,15 -19,31 -29,46 -4,5 -6,10 -14,14 0,-6 0,-10 0,-14 1,-12 2,-25 3,-38 0,-14 -8,-24 -20,-24 -11,-1 -20,8 -22,22 -1,12 -1,24 -2,36 -1,3 -2,7 -3,12 -13,-14 -24,-27 -35,-40 -7,-7 -12,-15 -18,-22 -8,-9 -19,-10 -28,-4 -8,7 -11,19 -6,29 2,4 6,7 9,11 11,13 21,25 31,39 -18,32 -29,66 -38,101 -3,14 2,25 13,28 12,4 21,-2 26,-15 3,-8 5,-16 7,-24 6,-21 13,-40 24,-58zm273 -46c0,0 0,0 0,0 29,0 57,0 85,0 10,0 18,-7 22,-16 3,-11 1,-22 -9,-27 -6,-4 -14,-6 -22,-6 -19,0 -37,2 -56,2 -32,0 -63,-1 -94,-2 -13,0 -22,6 -26,17 -3,10 2,23 13,28 9,3 18,4 27,4 20,0 40,0 60,0zm256 -139c8,-1 15,-1 22,-1 8,0 15,0 22,0 16,-1 26,-10 27,-23 0,-13 -10,-23 -27,-23 -47,1 -96,2 -144,3 -14,0 -23,9 -24,21 -1,12 8,22 22,24 8,0 18,-1 27,-1 8,0 17,0 28,0 -1,11 -1,19 -2,28 -5,72 -5,155 -4,227 0,5 -1,9 0,13 3,11 13,19 23,19 12,0 21,-8 22,-20 1,-5 1,-10 1,-14 -1,-74 0,-158 5,-232 1,-7 2,-14 2,-21zm225 205c1,9 1,14 1,17 1,16 2,31 4,47 1,13 10,20 21,20 13,1 22,-7 24,-20 0,-8 -1,-16 -1,-23 0,-23 -1,-45 -1,-68 0,-14 1,-29 0,-42 0,-8 -4,-17 -8,-23 -6,-8 -14,-13 -21,-20 -14,-12 -28,-18 -47,-17 -23,1 -43,9 -60,25 -39,35 -48,80 -39,129 6,36 40,51 70,32 11,-7 20,-15 28,-23 10,-10 18,-20 29,-34zm-82 15c-4,-31 -3,-61 23,-83 7,-6 17,-11 26,-14 10,-4 19,0 25,10 -20,31 -40,66 -74,87zm253 -68c-9,1 -17,2 -24,2 -9,0 -17,-1 -26,-1 0,-9 0,-15 0,-23 0,-13 0,-26 -1,-39 -1,-11 -8,-19 -18,-20 -10,-1 -20,6 -23,16 -1,5 -1,9 -1,14 0,38 0,76 0,115 0,16 -1,33 0,50 0,11 6,19 15,21 10,3 21,-1 25,-12 2,-4 2,-10 2,-16 1,-20 2,-40 2,-60 17,-1 33,-2 51,-3 0,11 0,20 1,28 0,13 0,26 1,38 1,13 13,23 24,21 11,-1 19,-10 19,-23 -1,-39 -2,-78 -2,-117 -1,-16 -1,-34 -2,-51 -1,-11 -10,-17 -19,-18 -10,0 -19,7 -22,18 0,4 0,9 0,13 0,16 -1,31 -2,47zm68 31c1,20 1,36 2,52 1,14 2,28 5,42 1,13 14,21 27,19 12,-3 19,-13 18,-27 -2,-30 -5,-58 -6,-88 -1,-18 1,-37 2,-54 1,-12 6,-16 17,-14 6,1 12,5 17,8 16,9 34,-1 34,-20 0,-12 -5,-23 -17,-27 -10,-4 -20,-6 -31,-7 -36,-4 -62,18 -65,55 -2,20 -2,42 -3,61zm145 39c4,15 10,32 22,47 29,36 80,32 102,-9 21,-41 23,-85 12,-129 -7,-27 -25,-45 -52,-52 -8,-2 -16,-2 -24,1 -26,8 -45,26 -55,52 -12,28 -12,58 -5,90zm94 -75c6,30 4,58 -6,84 -1,3 -3,7 -5,10 -7,10 -17,10 -24,2 -3,-3 -5,-5 -6,-9 -14,-27 -18,-56 -6,-86 3,-8 10,-15 17,-20 11,-7 21,-3 27,10 2,3 2,7 3,9z"/>
   </g>
  </g>
 </g>
</svg>
