<?xml version="1.0" encoding="UTF-8"?>
<!DOCTYPE svg PUBLIC "-//W3C//DTD SVG 1.1//EN" "http://www.w3.org/Graphics/SVG/1.1/DTD/svg11.dtd">
<!-- Creator: CorelDRAW X6 -->
<svg xmlns="http://www.w3.org/2000/svg" xml:space="preserve" width="45mm" height="45mm" version="1.1" style="shape-rendering:geometricPrecision; text-rendering:geometricPrecision; image-rendering:optimizeQuality; fill-rule:evenodd; clip-rule:evenodd"
viewBox="0 0 4500 4500"
 xmlns:xlink="http://www.w3.org/1999/xlink">
 <defs>
  <style type="text/css">
   <![CDATA[
    .str0 {stroke:black;stroke-width:75}
    .fil0 {fill:#E94F42}
    .fil1 {fill:#FEFEFE;fill-rule:nonzero}
   ]]>
  </style>
 </defs>
 <g id="Слой_x0020_1">
  <metadata id="CorelCorpID_0Corel-Layer"/>
  <g id="_367589752">
   <path class="fil0 str0" d="M214 993c-2,257 -116,2889 -10,3025 131,168 96,284 709,291 614,6 1937,20 2186,23 248,2 822,45 988,-168 165,-213 204,-569 210,-1178 3,-215 162,-2206 -143,-2593 -309,-392 -674,-161 -1536,-170 -863,-9 -1550,-17 -1765,-19 -599,-6 -633,242 -639,789z"/>
   <g>
    <path class="fil1" d="M1399 890c5,-8 9,-14 12,-20 20,-36 25,-86 15,-126 -7,-29 -25,-49 -56,-53 -13,-2 -28,0 -41,5 -35,13 -59,40 -73,76 -7,20 -1,34 15,40 16,6 29,0 38,-18 1,-4 2,-9 4,-12 9,-15 20,-27 36,-34 13,-5 18,-2 23,12 8,25 1,50 -10,74 -12,25 -33,54 -57,70 -15,10 -18,26 -10,38 7,12 24,17 39,9 5,-2 10,-6 15,-8 15,-9 21,-6 25,11 8,29 5,59 -9,87 -9,20 -24,27 -46,20 -18,-4 -26,-18 -25,-39 0,-13 -4,-23 -16,-28 -12,-6 -25,-4 -34,7 -4,6 -8,16 -8,23 -1,8 1,17 2,24 9,38 33,59 69,68 40,10 74,1 100,-33 38,-55 36,-140 -8,-193zm235 118c1,11 1,17 1,22 1,19 2,38 5,57 1,16 12,24 25,24 16,1 27,-8 29,-24 0,-10 -1,-19 -1,-28 0,-28 -1,-56 -1,-83 0,-17 1,-36 0,-53 0,-9 -5,-20 -10,-27 -7,-10 -17,-16 -25,-25 -17,-14 -36,-21 -59,-20 -27,1 -52,11 -72,30 -49,42 -60,98 -49,159 8,43 50,61 86,38 14,-8 25,-18 34,-27 12,-13 22,-26 37,-43zm-101 20c-5,-39 -4,-75 28,-103 8,-8 20,-14 31,-17 12,-5 23,0 32,12 -26,39 -50,81 -91,108zm676 -84c-11,1 -21,2 -29,2 -11,0 -21,-1 -32,-1 0,-11 0,-19 0,-29 0,-16 0,-31 -1,-47 -1,-13 -11,-23 -23,-24 -12,-1 -24,7 -28,19 -1,6 -1,11 -1,17 0,47 0,93 0,141 0,20 -1,41 0,61 0,14 7,23 18,26 12,3 25,-2 30,-15 4,-5 4,-12 4,-19 1,-24 2,-49 2,-74 21,-1 40,-2 62,-4 0,14 0,25 1,35 0,16 0,32 1,46 2,16 16,28 30,26 14,-1 24,-12 24,-28 -1,-47 -3,-96 -3,-143 -1,-20 -1,-42 -2,-63 -1,-13 -12,-20 -24,-22 -12,0 -23,9 -27,22 0,5 0,11 0,16 0,19 -1,37 -2,58zm97 86c5,18 12,39 27,57 35,45 98,40 124,-11 26,-51 28,-104 15,-159 -9,-32 -30,-54 -63,-63 -10,-2 -21,-2 -30,2 -32,9 -55,31 -67,63 -14,35 -14,71 -6,111zm115 -92c7,36 5,70 -7,103 -1,4 -4,8 -6,12 -9,12 -22,12 -31,2 -3,-3 -6,-6 -7,-10 -17,-34 -22,-69 -7,-106 4,-9 12,-19 21,-25 14,-9 26,-4 33,12 3,5 3,10 4,12zm231 22c12,-17 18,-33 14,-52 -6,-32 -35,-56 -72,-61 -16,-2 -32,-3 -48,-3 -21,0 -34,12 -34,32 3,62 2,123 2,184 0,33 13,46 47,49 11,1 23,2 34,2 40,-2 76,-13 100,-45 26,-34 16,-75 -22,-95 -6,-4 -13,-6 -21,-11zm-86 98c1,-18 2,-35 2,-55 28,-6 53,-2 79,11 12,6 14,15 3,24 -7,8 -17,14 -26,17 -17,6 -37,8 -58,3zm0 -110c0,-17 0,-33 1,-51 14,-4 28,-1 40,8 11,9 11,17 0,26 -11,7 -24,13 -36,20 -2,-1 -3,-2 -5,-3zm183 82c5,18 12,39 27,57 35,45 98,40 124,-11 26,-51 28,-104 15,-159 -9,-32 -30,-54 -63,-63 -10,-2 -21,-2 -30,2 -32,9 -55,31 -67,63 -14,35 -14,71 -6,111zm115 -92c7,36 5,70 -7,103 -1,4 -4,8 -6,12 -9,12 -22,12 -31,2 -3,-3 -6,-6 -7,-10 -17,-34 -22,-69 -7,-106 4,-9 12,-19 21,-25 14,-9 26,-4 33,12 3,5 3,10 4,12zm152 77c2,-1 5,-1 7,-2 11,0 21,0 32,-1 12,-1 25,-3 37,-5 23,-6 39,-24 41,-48 5,-39 -20,-82 -57,-95 -10,-3 -24,-6 -36,-3 -42,8 -70,35 -79,77 -8,36 -1,71 10,107 6,21 18,38 35,54 14,13 31,19 50,17 47,-4 79,-38 92,-78 4,-12 -3,-23 -13,-29 -11,-4 -23,-1 -31,10 -3,6 -7,12 -9,18 -8,12 -17,21 -31,27 -12,5 -20,4 -30,-6 -10,-12 -17,-26 -18,-43zm-7 -50c0,-23 6,-42 26,-51 20,-9 33,-4 43,13 2,6 5,12 6,19 1,9 -3,14 -11,15 -22,1 -43,2 -64,4zm-2127 486c-11,2 -21,3 -29,3 -11,0 -21,-1 -32,-1 0,-11 0,-20 0,-29 0,-16 0,-32 -1,-48 -1,-13 -11,-23 -23,-24 -12,-1 -24,7 -28,20 -1,6 -1,10 -1,16 0,48 0,94 0,141 0,20 -1,41 0,62 0,13 7,23 18,25 12,4 26,-1 31,-14 3,-5 3,-13 3,-20 1,-24 3,-48 3,-74 20,-1 40,-2 61,-3 0,13 0,24 2,35 0,16 0,31 1,46 1,16 15,28 29,25 14,-1 24,-12 24,-28 -1,-47 -2,-95 -2,-142 -2,-21 -2,-43 -3,-63 -1,-14 -12,-21 -24,-22 -12,0 -23,8 -27,22 0,4 0,10 0,15 0,20 -1,38 -2,58zm250 65c1,10 1,17 1,21 1,20 2,38 5,57 1,16 12,24 25,24 16,2 27,-8 29,-24 0,-9 -1,-19 -1,-28 0,-27 -1,-55 -1,-83 0,-17 1,-35 0,-52 0,-10 -5,-21 -10,-28 -7,-10 -17,-16 -25,-24 -17,-15 -35,-22 -58,-21 -28,1 -52,11 -73,30 -48,43 -59,99 -48,159 7,44 49,62 86,39 13,-9 24,-18 34,-28 12,-12 21,-25 36,-42zm-101 19c-4,-39 -3,-75 28,-103 9,-7 21,-13 32,-17 12,-5 23,0 31,12 -25,39 -49,81 -91,108zm323 -70c6,-18 13,-33 16,-49 5,-21 -4,-40 -23,-53 -25,-17 -78,-11 -98,12 -9,9 -10,22 -4,32 7,9 21,13 33,8 12,-4 28,-14 36,-11 8,11 -1,23 -11,29 -12,9 -25,16 -39,25 -13,7 -19,19 -14,33 5,11 18,18 31,16 5,-2 10,-3 15,-4 19,-4 34,6 34,26 0,11 -4,23 -6,34 -21,5 -35,3 -46,-14 -9,-12 -25,-12 -37,-4 -13,8 -17,23 -8,35 5,7 10,13 17,19 25,23 57,23 87,15 28,-8 40,-31 45,-55 8,-36 3,-69 -28,-94zm208 2c12,-17 18,-33 14,-52 -6,-31 -35,-56 -73,-60 -15,-3 -31,-4 -47,-4 -22,0 -34,12 -34,33 3,61 2,122 2,184 0,32 13,46 47,48 11,1 23,2 34,2 40,-2 76,-13 100,-44 26,-34 16,-75 -22,-96 -6,-4 -13,-6 -21,-11zm-86 98c1,-18 2,-35 2,-54 28,-6 53,-3 79,11 12,6 14,14 3,24 -7,7 -17,13 -26,17 -17,6 -37,7 -58,2zm0 -110c0,-17 0,-33 1,-51 14,-3 28,-1 40,9 11,8 11,17 0,25 -11,7 -24,13 -37,21 -1,-2 -2,-3 -4,-4zm335 61c2,10 2,17 2,21 1,20 2,38 5,57 1,16 12,24 25,24 16,2 27,-8 29,-24 0,-9 -1,-19 -1,-28 0,-27 -1,-55 -1,-83 0,-17 1,-35 0,-52 0,-10 -5,-21 -10,-28 -7,-10 -17,-16 -26,-24 -16,-15 -35,-22 -58,-21 -27,1 -52,11 -72,30 -49,43 -60,99 -49,159 8,44 50,62 86,39 14,-9 24,-18 34,-28 12,-12 22,-25 36,-42zm-100 19c-5,-39 -4,-75 28,-103 8,-7 20,-13 31,-17 12,-5 23,0 32,12 -26,39 -50,81 -91,108zm315 -84c-11,2 -20,3 -29,3 -11,0 -20,-1 -31,-1 0,-11 0,-20 0,-29 0,-16 0,-32 -1,-48 -2,-13 -11,-23 -23,-24 -13,-1 -25,7 -28,20 -2,6 -2,10 -2,16 0,48 0,94 0,141 0,20 -1,41 0,62 0,13 8,23 19,25 12,4 25,-1 30,-14 4,-5 4,-13 4,-20 1,-24 2,-48 2,-74 21,-1 40,-2 62,-3 0,13 0,24 1,35 0,16 0,31 1,46 1,16 16,28 29,25 15,-1 24,-12 24,-28 -1,-47 -2,-95 -2,-142 -1,-21 -1,-43 -2,-63 -2,-14 -13,-21 -25,-22 -12,0 -23,8 -26,22 0,4 0,10 0,15 0,20 -2,38 -3,58zm151 55c-1,0 -2,-1 -4,-1 2,-27 3,-54 3,-81 1,-19 2,-37 1,-55 0,-13 -11,-22 -24,-23 -14,-1 -26,6 -29,21 -2,5 -2,11 -3,17 -1,50 -3,100 -5,151 -1,16 0,33 3,50 5,25 29,36 52,23 8,-5 16,-13 22,-21 14,-23 28,-46 41,-69 5,-7 8,-15 12,-22 5,17 5,33 5,47 0,17 0,33 0,49 0,17 8,28 23,29 14,2 29,-7 32,-23 2,-6 2,-12 2,-17 1,-48 1,-97 2,-145 0,-11 0,-22 0,-33 0,-15 -7,-27 -22,-31 -13,-7 -25,0 -35,10 -11,14 -23,28 -32,44 -16,27 -30,53 -44,80zm226 17c2,-1 5,-1 7,-3 11,0 21,0 31,-1 13,-1 26,-2 38,-5 23,-6 39,-24 41,-48 5,-39 -20,-81 -57,-94 -11,-4 -24,-7 -36,-4 -42,8 -70,35 -79,77 -8,37 -1,72 10,107 6,22 18,39 35,54 13,14 30,20 50,17 47,-3 78,-37 92,-77 3,-12 -3,-23 -14,-29 -11,-5 -23,-1 -30,9 -4,7 -7,13 -10,19 -7,12 -17,20 -30,26 -12,5 -20,4 -30,-6 -10,-12 -17,-25 -18,-42zm-8 -51c0,-23 6,-41 27,-51 19,-8 33,-3 42,13 3,7 5,13 6,20 2,8 -2,13 -10,14 -22,2 -43,3 -65,4zm739 91c-1,-4 -1,-7 -1,-10 1,-34 1,-66 1,-99 0,-17 0,-34 -4,-51 -11,-48 -63,-65 -103,-36 -24,18 -37,42 -41,72 -1,14 -2,27 -3,39 -2,32 -4,62 -5,93 -6,3 -12,3 -17,5 -27,9 -34,17 -32,44 2,15 9,24 21,26 12,3 21,-2 28,-17 2,-6 6,-9 12,-9 4,-2 8,-2 13,-2 34,-1 68,-2 102,-2 5,0 10,4 12,6 8,9 18,11 28,6 10,-3 16,-12 17,-23 2,-22 -4,-33 -28,-42zm-51 2c-18,1 -36,1 -54,3 -2,-9 -2,-15 -2,-21 3,-35 5,-69 8,-104 1,-17 11,-30 25,-39 11,-6 19,-2 23,10 3,8 3,18 3,27 0,38 -2,78 -2,117 0,2 -1,5 -1,7zm267 -154c0,11 1,20 0,28 -4,45 -7,89 -10,133 -1,10 -1,20 2,28 2,14 14,22 26,22 13,-1 24,-10 27,-23 1,-4 1,-7 1,-11 4,-51 7,-101 10,-152 1,-15 0,-31 -3,-45 -3,-19 -17,-34 -36,-34 -29,-1 -59,-1 -88,2 -22,3 -32,17 -33,38 -1,7 -1,13 -1,21 1,20 1,42 1,62 0,25 -3,48 -11,71 -6,0 -10,-2 -15,-2 -20,2 -32,20 -26,39 7,27 42,40 65,23 9,-7 18,-17 22,-26 8,-21 16,-42 18,-63 4,-28 1,-56 3,-85 0,-7 0,-16 0,-26 17,0 30,0 48,0zm204 114c0,4 0,8 0,11 0,17 0,36 1,54 0,16 11,27 26,28 15,2 27,-8 30,-25 8,-63 7,-109 6,-188 -4,-32 -11,-43 -42,-49 -49,-9 -84,12 -114,43 -24,26 -27,67 -6,96 6,7 14,15 23,22 -11,22 -25,43 -34,65 -7,14 -3,29 11,36 13,7 28,3 37,-11 16,-20 23,-47 38,-70 5,-8 11,-14 24,-12zm7 -116c-1,16 -2,32 -3,46 -2,16 -28,18 -42,17 -15,-1 -23,-17 -18,-30 8,-18 38,-35 63,-33zm-3112 533c13,-17 24,-30 35,-45 10,-12 18,-23 27,-35 7,-13 5,-27 -6,-36 -10,-8 -23,-9 -34,0 -5,3 -9,8 -12,12 -21,26 -41,53 -62,80 -19,27 -16,50 13,67 16,10 34,17 51,25 11,4 23,0 29,-10 8,-9 10,-21 3,-30 -5,-6 -12,-12 -20,-17 -7,-4 -14,-6 -24,-11zm98 -22c3,-5 4,-7 6,-10 6,-6 14,-13 20,-20 4,-5 9,-10 14,-16 10,-12 10,-28 0,-37 -10,-10 -24,-13 -35,-3 -27,22 -51,46 -67,76 -6,11 -8,26 2,33 24,19 49,39 76,55 13,8 31,-3 36,-19 6,-14 -1,-26 -15,-35 -13,-7 -25,-15 -37,-24zm153 -1c0,-58 9,-95 28,-124 6,-9 15,-18 23,-25 11,-7 22,-2 27,11 2,6 3,13 6,19 7,14 20,20 34,16 12,-4 20,-16 19,-30 -5,-29 -14,-56 -40,-69 -27,-15 -52,-15 -77,3 -29,20 -48,50 -60,85 -21,67 -21,133 -2,200 11,37 29,70 59,94 33,26 76,23 104,-6 28,-28 37,-64 38,-103 0,-14 -11,-25 -23,-28 -12,-1 -24,5 -29,17 -3,8 -4,15 -6,23 -4,12 -5,26 -11,38 -10,18 -26,22 -40,8 -12,-11 -23,-24 -30,-40 -15,-30 -20,-64 -20,-89zm253 111c2,-1 4,-1 7,-2 11,0 20,0 31,-1 12,-2 26,-3 38,-5 23,-6 39,-24 41,-49 5,-38 -21,-81 -57,-94 -11,-4 -24,-6 -36,-4 -43,9 -70,35 -79,78 -8,36 -1,71 10,106 6,22 18,39 35,55 13,13 30,19 50,17 47,-4 78,-38 92,-78 3,-12 -3,-23 -14,-29 -11,-5 -23,-1 -30,10 -4,6 -7,12 -10,18 -7,12 -17,21 -30,27 -12,4 -21,3 -30,-6 -10,-13 -17,-26 -18,-43zm-8 -51c0,-23 6,-41 27,-50 19,-9 33,-4 42,13 3,6 5,12 6,19 2,9 -2,14 -10,15 -22,1 -43,2 -65,3zm331 -60c0,11 2,19 0,28 -3,44 -7,88 -9,133 -1,10 -1,19 1,28 2,13 14,21 27,21 13,-1 24,-9 26,-23 1,-3 1,-7 1,-10 4,-51 8,-102 10,-153 1,-14 0,-30 -2,-45 -4,-19 -17,-34 -37,-34 -29,-1 -59,-1 -88,3 -22,2 -31,17 -33,37 -1,8 -1,14 -1,21 1,20 1,42 1,63 0,24 -2,47 -11,70 -6,0 -9,-1 -14,-1 -21,1 -33,19 -27,39 8,26 43,40 66,23 8,-8 18,-17 21,-27 9,-21 16,-41 19,-63 3,-28 1,-56 2,-85 0,-7 0,-15 0,-25 17,0 30,0 48,0zm147 111c3,-1 5,-1 8,-2 11,0 20,0 31,-1 12,-2 26,-3 38,-5 23,-6 38,-24 41,-49 5,-38 -21,-81 -57,-94 -11,-4 -24,-6 -36,-4 -43,9 -71,35 -79,78 -8,36 -1,71 10,106 6,22 18,39 35,55 13,13 30,19 49,17 48,-4 79,-38 92,-78 4,-12 -2,-23 -13,-29 -11,-5 -23,-1 -30,10 -4,6 -7,12 -10,18 -7,12 -17,21 -30,27 -12,4 -21,3 -30,-6 -10,-13 -17,-26 -19,-43zm-7 -51c0,-23 6,-41 27,-50 19,-9 33,-4 42,13 3,6 5,12 6,19 1,9 -2,14 -11,15 -21,1 -42,2 -64,3z"/>
    <path class="fil1" d="M1794 2070c-1,-3 -1,-7 -1,-10 1,-33 1,-66 1,-99 0,-17 0,-34 -3,-51 -11,-48 -63,-65 -103,-36 -24,18 -38,42 -41,73 -1,13 -3,26 -4,38 -1,32 -3,62 -5,94 -6,2 -12,2 -17,4 -26,9 -34,17 -31,44 1,16 8,24 20,27 13,2 21,-3 28,-17 3,-6 6,-10 12,-10 4,-1 9,-1 14,-1 34,-1 68,-3 101,-3 5,0 10,4 13,6 8,9 18,11 27,7 10,-4 16,-13 17,-23 3,-22 -3,-33 -28,-43zm-50 3c-19,1 -37,1 -55,2 -1,-8 -1,-15 -1,-21 2,-35 5,-69 7,-104 1,-17 11,-30 26,-38 11,-6 19,-3 23,9 2,9 2,18 2,27 0,39 -1,79 -1,117 0,3 -1,5 -1,8zm193 -56c3,10 7,17 9,24 8,23 15,45 22,67 7,18 21,24 36,20 16,-5 23,-18 17,-36 -13,-38 -26,-74 -41,-111 -3,-9 -2,-15 4,-22 11,-14 20,-28 30,-43 5,-6 7,-12 10,-18 5,-13 0,-25 -12,-31 -12,-7 -26,-5 -35,6 -3,2 -4,6 -6,8 -16,22 -33,45 -49,67 -2,2 -6,5 -12,11 0,-14 0,-23 0,-33 0,-14 1,-29 -1,-42 -1,-15 -13,-23 -27,-23 -13,0 -25,9 -28,23 -1,5 0,11 0,15 -1,46 -1,91 -1,136 0,22 0,45 3,67 2,17 15,26 31,24 15,-1 24,-12 24,-29 0,-11 -1,-22 -2,-33 -3,-22 10,-34 28,-47zm184 -4c-1,0 -2,-1 -3,-1 1,-27 2,-53 2,-81 1,-18 2,-36 1,-55 0,-13 -11,-21 -24,-23 -13,-1 -25,7 -29,21 -1,5 -1,11 -2,17 -2,51 -4,100 -5,151 -2,16 0,33 2,50 5,25 29,36 52,23 9,-5 16,-12 22,-21 14,-23 28,-46 41,-69 5,-7 9,-14 12,-21 5,17 5,32 5,47 0,17 0,32 0,48 0,17 9,28 23,29 15,3 29,-7 33,-23 1,-6 1,-12 1,-17 1,-48 1,-97 2,-145 0,-11 0,-22 0,-33 0,-14 -7,-26 -21,-31 -14,-6 -26,0 -35,11 -11,13 -23,28 -33,43 -16,27 -29,54 -44,80zm419 0c-1,0 -2,-1 -3,-1 1,-27 2,-53 2,-81 1,-18 2,-36 1,-55 0,-13 -11,-21 -24,-23 -13,-1 -25,7 -29,21 -1,5 -1,11 -3,17 -1,51 -3,100 -4,151 -2,16 0,33 2,50 5,25 29,36 52,23 9,-5 16,-12 22,-21 14,-23 28,-46 41,-69 5,-7 9,-14 12,-21 5,17 5,32 5,47 0,17 0,32 0,48 0,17 8,28 23,29 15,3 29,-7 33,-23 1,-6 1,-12 1,-17 1,-48 1,-97 2,-145 0,-11 0,-22 0,-33 0,-14 -7,-26 -21,-31 -14,-6 -26,0 -36,11 -10,13 -23,28 -32,43 -16,27 -29,54 -44,80zm459 -106c2,6 5,12 7,18 20,60 46,116 73,173 7,17 22,22 35,16 13,-8 18,-23 11,-41 -6,-13 -11,-26 -17,-38 -25,-53 -47,-108 -64,-165 -4,-9 -3,-17 3,-25 20,-24 38,-48 56,-73 6,-7 12,-15 16,-25 6,-16 -3,-34 -18,-38 -14,-2 -22,5 -29,16 -34,44 -68,87 -102,130 -4,5 -8,8 -15,15 0,-43 0,-83 0,-122 0,-7 0,-14 -1,-22 -2,-13 -11,-21 -22,-23 -12,-2 -23,5 -26,19 -3,7 -3,15 -3,23 -1,61 -1,122 -1,184 -1,48 -3,96 -5,146 0,6 0,13 2,19 3,14 13,21 25,21 12,0 21,-7 24,-19 1,-8 1,-14 1,-21 2,-33 2,-65 3,-98 0,-10 5,-25 6,-25 13,-15 27,-30 41,-45zm170 138c5,18 12,38 27,57 35,44 98,40 124,-11 26,-51 28,-104 15,-159 -9,-33 -30,-54 -63,-63 -10,-2 -21,-2 -30,1 -32,10 -55,32 -67,63 -14,35 -14,72 -6,112zm115 -92c7,36 5,70 -7,103 -1,3 -4,8 -6,12 -9,12 -22,12 -30,2 -4,-3 -7,-6 -8,-11 -17,-34 -22,-69 -7,-105 4,-10 12,-19 21,-25 14,-9 26,-4 33,12 3,4 3,9 4,12zm249 173c7,-3 13,-4 18,-6 61,-20 119,-96 90,-181 -17,-44 -48,-66 -94,-71 -14,-1 -29,-2 -43,-5 -16,-2 -32,-1 -46,7 -49,26 -75,67 -81,121 -8,59 28,112 83,131 5,3 10,4 16,6 0,8 0,15 0,22 0,28 -1,56 -1,82 0,22 14,35 32,32 14,-1 22,-11 23,-27 2,-18 2,-36 2,-54 0,-20 1,-38 1,-57zm2 -200c33,-1 45,9 54,37 10,42 -11,85 -55,102 -1,-46 -1,-93 1,-139zm-57 1c-1,47 -1,93 -1,139 -11,3 -17,-2 -23,-7 -37,-34 -24,-110 24,-132zm264 103c2,-1 4,-1 7,-2 11,0 20,0 31,-1 12,-2 26,-3 38,-5 23,-6 39,-24 41,-49 5,-38 -21,-81 -57,-94 -11,-4 -24,-6 -36,-4 -43,9 -70,35 -79,78 -8,36 -1,71 10,106 6,22 18,39 35,55 13,13 30,19 50,17 47,-4 78,-38 92,-78 3,-12 -3,-23 -14,-29 -11,-5 -23,-1 -30,10 -4,6 -7,12 -10,18 -7,12 -17,21 -30,27 -12,4 -21,3 -30,-6 -10,-13 -17,-26 -18,-43zm-8 -51c0,-23 6,-41 27,-50 19,-9 33,-4 42,13 3,6 5,12 6,19 2,9 -2,14 -10,15 -22,1 -43,2 -65,3zm327 -44c-15,19 -28,36 -42,54 -13,17 -7,40 13,45 10,3 20,0 27,-7 25,-23 43,-50 56,-80 7,-15 5,-31 -6,-41 -23,-25 -47,-49 -73,-71 -14,-12 -35,-3 -41,15 -2,5 -2,11 -3,19 -11,-9 -20,-18 -28,-25 -11,-12 -26,-14 -38,-5 -12,10 -14,27 -6,40 4,6 11,11 17,17 12,11 26,22 39,34 -6,6 -10,11 -13,15 -14,16 -28,32 -42,48 -12,17 -9,34 4,43 13,10 31,4 41,-9 16,-20 33,-38 50,-56 16,-16 28,-30 22,-58 9,8 15,14 23,22zm-1875 515c0,-1 0,-1 0,-1 35,0 69,0 104,0 12,0 22,-8 27,-19 3,-13 1,-27 -11,-33 -8,-5 -17,-7 -27,-7 -23,0 -46,2 -69,2 -39,0 -77,-1 -115,-2 -16,0 -27,7 -31,20 -4,13 2,28 15,34 11,4 22,5 33,6 24,0 50,0 74,0zm-791 582c4,9 7,17 10,24 7,23 14,45 22,66 7,19 20,25 36,21 16,-5 23,-18 17,-36 -13,-38 -27,-74 -41,-112 -4,-8 -3,-14 3,-21 11,-14 21,-28 31,-43 5,-6 7,-12 9,-18 5,-13 0,-25 -12,-31 -12,-8 -25,-5 -35,6 -2,2 -3,6 -6,8 -16,22 -33,45 -48,67 -3,2 -6,4 -12,11 0,-14 0,-23 0,-33 0,-15 1,-29 -2,-43 -1,-14 -13,-23 -26,-23 -14,0 -26,10 -28,23 -1,5 0,11 0,16 -1,46 -1,91 -1,136 0,22 0,45 2,66 2,17 16,27 32,25 14,-2 24,-13 24,-29 0,-11 -1,-22 -3,-33 -2,-22 10,-34 28,-47zm284 6c1,11 1,17 1,21 1,20 3,38 5,57 1,16 12,25 25,25 16,1 27,-9 30,-25 0,-9 -2,-19 -2,-27 0,-28 -1,-56 -1,-84 0,-17 1,-35 0,-52 0,-10 -5,-21 -10,-28 -7,-10 -17,-16 -25,-24 -17,-15 -35,-22 -58,-21 -28,2 -52,11 -73,31 -48,42 -59,98 -48,158 7,44 49,62 86,39 13,-9 24,-18 34,-28 12,-12 21,-25 36,-42zm-100 19c-5,-39 -4,-75 27,-103 9,-7 21,-13 32,-17 12,-5 23,0 31,12 -25,39 -49,81 -90,108zm323 -128c0,7 2,14 2,20 -2,35 -3,71 -4,106 0,17 -1,35 -1,53 1,17 11,27 25,28 15,0 26,-10 28,-27 0,-2 0,-5 0,-8 1,-51 4,-101 5,-152 0,-13 -1,-26 -4,-38 -5,-25 -19,-37 -43,-37 -19,0 -38,-1 -56,1 -12,0 -26,4 -36,8 -19,7 -29,22 -32,41 -1,11 -2,21 -4,32 -1,34 -1,68 -2,101 -1,18 -1,38 -1,56 0,14 10,25 23,28 13,1 24,-8 28,-22 2,-5 2,-11 2,-16 1,-37 1,-73 3,-109 1,-21 2,-41 3,-62 22,-6 43,-4 64,-3zm175 208c-12,28 -24,59 -46,85 -8,11 -17,20 -24,31 -8,15 -5,30 7,39 12,10 28,7 39,-6 24,-30 47,-61 63,-97 33,-71 56,-146 79,-222 2,-7 3,-14 2,-21 0,-12 -8,-22 -18,-25 -11,-3 -21,-1 -28,8 -5,5 -7,11 -10,17 -12,38 -23,77 -35,115 -1,6 -5,11 -7,17 -21,-16 -33,-35 -40,-57 -8,-24 -12,-49 -11,-74 1,-15 -7,-26 -20,-28 -13,-2 -26,4 -32,16 -2,5 -4,11 -4,17 0,47 8,93 37,132 13,18 31,34 48,53zm279 -133c-6,2 -8,2 -11,3 -30,5 -42,-1 -48,-26 -4,-14 -5,-27 -6,-41 -1,-15 0,-29 -3,-44 -1,-14 -13,-23 -29,-22 -13,0 -25,10 -25,23 -1,33 -1,67 8,100 14,41 43,59 95,58 6,0 12,0 19,0 0,17 0,33 0,47 0,7 0,13 1,19 4,13 14,20 28,20 15,0 24,-8 27,-20 1,-5 1,-10 1,-15 0,-42 0,-83 0,-123 0,-29 0,-58 -1,-87 0,-16 -11,-24 -27,-24 -15,0 -28,10 -29,24 -3,35 4,73 0,108zm156 24c-1,0 -3,-1 -4,-1 1,-27 3,-53 3,-81 1,-18 2,-37 1,-55 0,-13 -11,-22 -24,-23 -14,-1 -26,6 -30,21 -1,5 -1,11 -2,17 -1,51 -4,100 -5,151 -1,16 0,33 3,50 4,25 29,36 52,23 8,-5 15,-12 21,-21 15,-23 28,-46 42,-69 4,-7 8,-14 12,-22 5,17 5,33 5,48 0,16 0,32 0,48 0,17 8,28 23,29 14,2 29,-7 32,-23 1,-6 1,-12 1,-17 2,-48 2,-97 3,-145 0,-11 0,-22 0,-33 0,-14 -7,-27 -22,-31 -13,-6 -25,0 -35,11 -11,13 -23,27 -33,43 -15,27 -29,53 -43,80zm285 -54c-11,1 -21,2 -29,2 -11,0 -21,-1 -32,-1 0,-11 0,-20 0,-29 0,-16 0,-32 -1,-48 -1,-13 -11,-23 -23,-24 -12,-1 -24,8 -28,20 -1,6 -1,11 -1,17 0,47 0,93 0,140 0,21 -1,41 0,62 0,13 7,23 18,25 12,4 26,-1 30,-14 4,-5 4,-12 4,-20 1,-24 2,-48 2,-74 21,-1 40,-2 62,-3 0,13 0,24 1,35 0,16 0,31 2,46 1,16 15,28 29,25 14,-1 24,-12 24,-28 -1,-47 -3,-95 -3,-142 -1,-21 -1,-43 -2,-63 -1,-14 -12,-21 -24,-22 -12,0 -23,8 -27,22 0,5 0,11 0,15 0,20 -1,38 -2,59zm97 85c5,19 12,39 27,57 35,45 98,40 124,-11 26,-50 28,-104 15,-158 -8,-33 -30,-55 -63,-63 -10,-2 -21,-2 -30,1 -32,10 -55,32 -67,63 -14,35 -14,72 -6,111zm115 -92c7,37 5,71 -7,103 -1,4 -4,9 -6,12 -9,13 -22,13 -30,3 -4,-4 -6,-6 -8,-11 -17,-34 -21,-69 -7,-105 4,-10 12,-20 21,-26 14,-8 26,-3 34,12 2,5 2,10 3,12zm-1806 530c12,-17 18,-33 14,-52 -6,-32 -35,-56 -72,-61 -16,-2 -32,-4 -48,-4 -21,0 -34,13 -34,33 3,62 2,122 2,184 0,33 13,46 47,49 11,1 23,2 34,2 40,-2 76,-13 100,-45 26,-34 16,-75 -22,-95 -6,-4 -13,-7 -21,-11zm-86 98c1,-18 2,-35 2,-55 28,-6 53,-2 79,11 12,6 14,15 3,24 -7,8 -16,14 -26,17 -17,6 -36,8 -58,3zm0 -110c0,-17 0,-33 1,-51 14,-4 28,-2 40,8 11,9 11,17 0,26 -11,7 -24,13 -36,20 -2,-1 -3,-2 -5,-3zm662 -49c0,7 1,14 1,20 -1,35 -2,72 -3,106 0,17 -2,35 -2,53 2,17 11,27 26,28 14,0 25,-10 28,-26 0,-3 0,-5 0,-9 1,-50 3,-101 4,-152 0,-13 -1,-26 -3,-38 -5,-24 -20,-36 -44,-36 -18,0 -37,-2 -55,1 -13,0 -26,3 -37,7 -18,7 -29,22 -31,41 -1,11 -3,22 -4,33 -1,33 -1,67 -2,101 -2,18 -2,37 -2,55 0,15 10,26 23,28 14,1 25,-7 28,-22 3,-5 3,-11 3,-15 1,-38 1,-74 2,-110 1,-21 3,-41 4,-61 22,-6 42,-5 64,-4zm97 131c5,18 12,39 27,57 35,45 98,40 125,-11 25,-51 28,-104 14,-159 -8,-32 -30,-54 -63,-63 -9,-2 -20,-2 -30,2 -31,9 -54,31 -67,62 -14,36 -14,72 -6,112zm115 -92c8,36 5,70 -7,103 -1,3 -4,8 -6,12 -8,12 -22,12 -30,2 -4,-3 -6,-6 -7,-11 -17,-34 -22,-69 -8,-105 4,-10 12,-19 21,-25 14,-9 26,-4 34,12 2,5 2,9 3,12zm296 117c-1,-3 -1,-7 -1,-9 1,-34 1,-67 1,-100 0,-17 0,-34 -3,-51 -11,-48 -63,-65 -103,-36 -24,18 -38,43 -41,73 -2,13 -3,26 -4,39 -1,31 -4,61 -5,93 -6,2 -12,2 -17,5 -26,8 -34,17 -31,43 1,16 8,24 20,27 12,2 21,-3 28,-17 3,-6 6,-10 12,-10 4,-1 9,-1 14,-1 33,-1 67,-2 101,-2 5,0 10,3 12,6 9,8 19,10 28,6 10,-4 16,-12 17,-23 3,-22 -3,-33 -28,-43zm-51 3c-18,1 -36,1 -54,2 -1,-8 -1,-14 -1,-20 2,-36 5,-69 7,-105 1,-17 11,-30 25,-38 11,-6 20,-3 23,9 3,9 3,19 3,27 0,39 -1,79 -1,117 0,3 -2,5 -2,8zm272 -50c1,11 1,17 1,22 2,19 3,37 5,57 1,15 12,24 26,24 15,1 26,-9 29,-24 0,-10 -1,-20 -1,-28 0,-28 -2,-56 -2,-84 0,-17 2,-35 0,-52 0,-9 -5,-20 -9,-28 -8,-9 -17,-15 -26,-24 -17,-14 -35,-22 -58,-20 -28,1 -52,11 -73,30 -48,42 -59,98 -48,159 7,43 50,61 86,38 13,-8 24,-18 34,-28 12,-12 22,-25 36,-42zm-100 19c-5,-38 -4,-75 28,-102 8,-8 20,-14 31,-17 12,-5 23,0 32,12 -26,38 -50,81 -91,107zm258 86c10,0 18,2 28,0 34,-1 80,-21 92,-71 5,-22 10,-46 8,-69 0,-32 -9,-61 -33,-82 -32,-29 -69,-40 -112,-34 -23,2 -31,11 -36,34 -1,4 -1,9 -1,14 -11,110 -4,220 0,331 1,6 2,13 5,19 8,16 31,19 42,6 6,-6 8,-16 8,-23 2,-19 -1,-39 -1,-57 -1,-22 0,-42 0,-68zm-5 -54c2,-51 4,-98 5,-144 32,-6 59,10 68,36 10,28 5,56 -6,84 -5,13 -17,19 -30,21 -10,2 -21,2 -37,3z"/>
    <path class="fil1" d="M2835 3567c5,18 12,39 27,57 35,45 98,40 124,-11 26,-51 28,-104 15,-159 -9,-32 -30,-54 -63,-63 -10,-2 -21,-2 -30,2 -32,9 -55,31 -67,62 -14,36 -14,72 -6,112zm115 -92c7,36 5,70 -7,103 -1,3 -4,8 -6,12 -9,12 -22,12 -31,2 -3,-3 -6,-6 -7,-11 -17,-34 -22,-69 -7,-105 4,-10 12,-19 20,-25 15,-9 27,-4 34,12 3,5 3,9 4,12zm175 64c3,10 7,17 10,24 7,23 14,45 21,67 8,18 21,24 37,20 15,-4 23,-18 17,-36 -14,-37 -27,-74 -42,-111 -3,-9 -2,-15 4,-22 11,-13 21,-28 30,-42 5,-7 8,-13 10,-19 5,-13 0,-25 -12,-31 -12,-7 -26,-5 -35,6 -3,2 -4,6 -6,8 -16,22 -33,45 -49,67 -2,2 -6,5 -12,11 0,-13 0,-23 0,-33 0,-14 1,-29 -1,-42 -1,-15 -13,-23 -27,-23 -13,0 -25,10 -27,23 -2,5 0,11 0,16 -2,46 -2,90 -2,135 0,22 0,45 3,67 2,17 15,26 31,24 15,-1 24,-12 24,-29 0,-11 -1,-22 -2,-33 -2,-22 10,-34 28,-47zm135 -156c0,0 -1,0 -1,0 0,49 -2,99 -2,149 0,20 14,32 31,31 17,-1 27,-17 26,-35 0,-12 -1,-23 -1,-35 1,-73 2,-145 4,-218 0,-7 0,-14 -2,-23 -2,-14 -12,-23 -25,-23 -12,-1 -24,7 -28,21 -1,7 -1,14 -1,20 -1,38 -1,75 -1,113zm20 258c16,1 28,-11 29,-27 0,-14 -12,-28 -26,-28 -15,0 -28,11 -28,26 -1,14 10,27 25,29z"/>
   </g>
  </g>
 </g>
</svg>
