<?xml version="1.0" encoding="UTF-8"?>
<!DOCTYPE svg PUBLIC "-//W3C//DTD SVG 1.1//EN" "http://www.w3.org/Graphics/SVG/1.1/DTD/svg11.dtd">
<!-- Creator: CorelDRAW X8 -->
<svg xmlns="http://www.w3.org/2000/svg" xml:space="preserve" width="503px" height="502px" version="1.1" style="shape-rendering:geometricPrecision; text-rendering:geometricPrecision; image-rendering:optimizeQuality; fill-rule:evenodd; clip-rule:evenodd"
viewBox="0 0 3474028 3467393"
 xmlns:xlink="http://www.w3.org/1999/xlink">
 <defs>
  <style type="text/css">
   <![CDATA[
    .str0 {stroke:black;stroke-width:61209.5}
    .fil0 {fill:#DEF2F7}
    .fil1 {fill:#F05C4F;fill-rule:nonzero}
   ]]>
  </style>
 </defs>
 <g id="Слой_x0020_1">
  <metadata id="CorelCorpID_0Corel-Layer"/>
  <path class="fil0 str0" d="M75565 2759257c-2187,-209671 -94581,-2357184 -8031,-2468284 106766,-137060 77704,-232318 578642,-237549 500938,-5232 1580542,-16511 1783513,-18624 202970,-2114 671476,-36914 806291,136750 134824,173663 166808,464759 171974,961363 1820,175549 131813,1800872 -117163,2116550 -252362,319970 -549652,131461 -1253553,138798 -703900,7337 -1265264,13213 -1440283,15042 -489194,5109 -516722,-197079 -521390,-644046z"/>
  <path class="fil1" d="M1717798 1195486c0,-198156 -151677,-342496 -374300,-342496 -95413,0 -178584,31805 -244641,85620 -90517,68506 -154126,176145 -188371,288680 -7336,29356 7337,56264 34245,66049 29356,7337 56272,-7337 63609,-34244 31804,-97862 80731,-183482 151677,-239754 51375,-39141 112536,-63600 185930,-63600 139443,0 269101,88068 269101,239745 0,124761 -78283,232408 -200604,305802 -105198,61153 -227519,100302 -337607,129658 -44030,12226 -61160,31796 -61160,70946 0,24459 29356,56264 73394,56264 225071,0 408545,73394 408545,281335 0,249530 -217726,469705 -489276,469705 -181033,-4889 -288672,-88068 -288672,-256868 0,-39141 19571,-110087 56264,-141891 12234,-9786 17122,-24468 17122,-39142 0,-29356 -22011,-51375 -51367,-51375 -12234,0 -24467,4897 -34253,14682 -56263,61152 -90516,134547 -90516,215278 0,222623 144340,357177 391422,362066 315588,0 594474,-244642 594474,-574904 -4888,-188370 -132106,-320476 -318028,-362066 61161,-22019 124762,-48927 181033,-83171 154118,-95413 251979,-229968 251979,-396319z"/>
  <path id="1" class="fil1" d="M2923869 1237076c0,-242194 -122321,-418338 -347384,-406105 -457479,14682 -821994,851350 -814649,1372430 4889,225064 95406,413442 296009,413442 462368,0 866024,-802424 866024,-1379767zm-102750 2448c0,506398 -357169,1267231 -763274,1274568 -139443,0 -188370,-132106 -193266,-313139 -14674,-455031 340055,-1267231 716795,-1267231 159014,0 239745,119872 239745,305802z"/>
 </g>
</svg>
