<?xml version="1.0" encoding="UTF-8"?>
<!DOCTYPE svg PUBLIC "-//W3C//DTD SVG 1.1//EN" "http://www.w3.org/Graphics/SVG/1.1/DTD/svg11.dtd">
<!-- Creator: CorelDRAW X6 -->
<svg xmlns="http://www.w3.org/2000/svg" xml:space="preserve" width="45mm" height="45mm" version="1.1" style="shape-rendering:geometricPrecision; text-rendering:geometricPrecision; image-rendering:optimizeQuality; fill-rule:evenodd; clip-rule:evenodd"
viewBox="0 0 4500 4500"
 xmlns:xlink="http://www.w3.org/1999/xlink">
 <defs>
  <style type="text/css">
   <![CDATA[
    .str0 {stroke:black;stroke-width:75}
    .fil2 {fill:black}
    .fil0 {fill:#E94F42}
    .fil1 {fill:#FEFEFE;fill-rule:nonzero}
   ]]>
  </style>
 </defs>
 <g id="Слой_x0020_1">
  <metadata id="CorelCorpID_0Corel-Layer"/>
  <path class="fil0 str0" d="M300 4161c0,0 141,119 670,119 530,0 2141,0 2324,0 182,0 534,111 701,-22 166,-132 283,-98 283,-712 0,-613 0,-1936 0,-2185 0,-249 144,-838 -71,-1001 -214,-163 -678,-184 -1287,-184 -608,0 -1349,164 -1740,116 -392,-48 -751,-125 -842,-30 -90,95 -163,506 -163,1369 0,862 0,1804 0,2019 0,214 125,511 125,511z"/>
  <g id="_392520608">
   <path class="fil1" d="M1183 703c0,-55 8,-90 26,-117 6,-9 14,-18 22,-24 10,-7 21,-3 25,10 3,6 4,13 6,18 7,13 20,19 32,15 12,-3 20,-15 18,-28 -4,-28 -13,-53 -37,-66 -26,-14 -50,-14 -74,3 -27,19 -44,48 -56,81 -20,63 -20,127 -2,190 10,35 27,67 56,90 31,24 72,21 99,-6 26,-27 34,-61 35,-98 0,-14 -10,-24 -22,-26 -11,-2 -23,4 -27,16 -2,7 -4,13 -6,21 -3,12 -4,25 -10,36 -9,17 -24,21 -38,8 -11,-10 -22,-23 -29,-38 -13,-29 -18,-61 -18,-85zm252 93c4,9 7,16 10,23 6,22 13,43 20,64 7,17 20,23 35,19 15,-4 21,-17 16,-34 -13,-36 -26,-71 -39,-106 -4,-8 -3,-14 3,-21 10,-13 20,-26 29,-40 4,-6 7,-12 9,-17 5,-13 0,-25 -11,-30 -12,-7 -25,-5 -34,5 -2,3 -3,6 -5,8 -15,21 -31,43 -46,64 -3,2 -6,4 -12,10 0,-13 0,-22 0,-31 0,-14 1,-28 -1,-40 -1,-14 -13,-22 -25,-22 -13,0 -24,9 -26,22 -2,4 0,10 0,15 -2,43 -2,86 -2,129 0,20 0,42 3,63 2,16 15,25 29,23 14,-1 23,-12 23,-28 0,-10 -1,-20 -2,-31 -2,-21 9,-32 26,-45zm167 -3c-1,0 -2,-1 -4,-1 2,-26 3,-51 3,-77 1,-18 2,-35 1,-52 0,-13 -10,-21 -23,-22 -13,-1 -24,6 -27,20 -2,4 -2,10 -3,16 -1,48 -3,95 -4,143 -2,15 0,32 2,48 5,24 27,34 49,21 8,-4 15,-11 21,-19 14,-22 26,-44 39,-66 4,-7 8,-13 11,-20 5,16 5,31 5,45 0,16 0,31 0,46 0,16 8,26 22,27 13,2 27,-7 31,-22 1,-5 1,-11 1,-16 1,-46 1,-92 2,-138 0,-10 0,-21 0,-31 0,-14 -7,-25 -21,-30 -12,-6 -24,0 -33,10 -10,13 -22,27 -31,42 -15,25 -27,51 -41,76zm342 54c-1,-4 -1,-7 -1,-9 1,-33 1,-64 1,-95 0,-16 0,-32 -4,-48 -10,-46 -59,-62 -97,-34 -23,17 -36,40 -39,69 -1,12 -2,25 -3,36 -2,30 -4,59 -5,89 -6,2 -12,2 -16,5 -25,8 -32,16 -30,41 1,15 8,23 20,25 11,3 19,-2 26,-16 2,-6 6,-9 11,-9 4,-1 8,-1 13,-1 32,-1 64,-2 96,-2 5,0 9,3 12,5 8,8 17,11 26,6 9,-3 15,-11 16,-22 2,-21 -3,-31 -26,-40zm-48 2c-18,1 -35,1 -52,3 -1,-9 -1,-14 -1,-20 2,-33 5,-66 7,-99 1,-16 10,-29 24,-37 10,-6 18,-2 22,9 2,8 2,18 2,26 0,37 -1,74 -1,111 0,3 -1,5 -1,7zm174 -53c4,9 7,16 9,23 7,22 14,43 21,64 7,17 19,23 34,19 15,-4 22,-17 16,-34 -12,-36 -25,-71 -39,-106 -3,-8 -2,-14 4,-21 10,-13 19,-26 29,-40 4,-6 6,-12 9,-17 4,-13 0,-25 -12,-30 -11,-7 -24,-5 -33,5 -2,3 -3,6 -6,8 -15,21 -31,43 -46,64 -2,2 -5,4 -11,10 0,-13 0,-22 0,-31 0,-14 1,-28 -1,-40 -1,-14 -13,-22 -25,-22 -13,0 -24,9 -27,22 -1,4 0,10 0,15 -1,43 -1,86 -1,129 0,20 0,42 2,63 3,16 15,25 30,23 14,-1 23,-12 23,-28 0,-10 -1,-20 -2,-31 -2,-21 9,-32 26,-45zm261 6c1,10 1,16 1,21 1,18 2,35 4,54 2,15 12,23 24,23 15,1 26,-8 28,-23 0,-9 -1,-19 -1,-27 0,-26 -1,-53 -1,-79 0,-16 1,-33 0,-49 0,-10 -5,-20 -9,-27 -7,-9 -17,-15 -25,-23 -16,-14 -33,-21 -55,-20 -26,2 -49,11 -68,29 -46,41 -57,93 -46,151 7,41 47,59 81,37 13,-8 23,-17 32,-27 12,-11 21,-24 35,-40zm-95 18c-5,-36 -4,-71 26,-97 8,-7 19,-13 30,-16 11,-5 21,0 29,11 -24,37 -47,77 -85,102zm589 -158c-1,10 -1,24 -3,32 0,55 -1,110 -1,167 0,18 13,28 29,27 16,-1 27,-16 26,-33 -1,-7 -2,-14 -2,-21 0,-47 1,-94 2,-141 1,-32 3,-66 3,-99 0,-17 -8,-28 -21,-31 -13,-4 -24,1 -32,11 -20,24 -39,50 -57,75 -10,12 -7,25 3,35 10,9 24,9 36,-2 4,-3 12,-16 17,-20zm141 -66c11,0 21,0 31,0 11,0 23,0 34,-2 14,-4 21,-15 20,-28 -1,-11 -10,-22 -24,-22 -22,-1 -45,-2 -68,0 -29,3 -42,16 -46,45 -1,14 -1,29 -1,43 -1,23 -2,46 -2,69 0,22 11,34 29,32 6,-1 12,-6 18,-9 10,-9 22,-16 37,-17 9,-2 16,2 18,11 1,5 3,9 3,14 0,29 -4,57 -17,84 -6,11 -14,21 -27,25 -12,-9 -13,-21 -13,-33 0,-12 -7,-20 -17,-24 -11,-4 -20,0 -27,7 -9,6 -11,16 -11,27 2,20 10,38 23,54 17,24 42,29 69,16 18,-8 32,-19 42,-35 29,-43 36,-91 29,-142 -6,-36 -32,-64 -82,-56 -5,0 -11,1 -18,1 0,-20 0,-39 0,-60zm366 -42c-1,-13 -5,-22 -15,-27 -9,-5 -18,-5 -26,2 -6,5 -9,12 -12,18 -23,42 -44,86 -67,128 -29,57 -60,113 -90,170 -11,21 -8,39 8,46 16,8 29,0 40,-22 14,-29 29,-57 44,-85 37,-71 73,-140 110,-210 5,-7 6,-15 8,-20zm-241 67c1,49 36,74 76,58 19,-8 35,-21 47,-39 15,-24 12,-54 -6,-76 -4,-6 -10,-10 -16,-15 -19,-17 -39,-18 -59,-4 -28,20 -39,48 -42,76zm52 7c4,-12 7,-20 10,-32 7,4 12,6 16,8 2,7 -6,16 -26,24zm150 240c32,1 66,-28 73,-61 4,-20 -1,-37 -15,-52 -25,-28 -80,-32 -100,1 -10,16 -16,32 -18,51 0,35 24,61 60,61zm-6 -56c1,-7 3,-13 6,-20 2,-6 13,-6 17,-1 6,4 4,10 -1,13 -5,5 -11,8 -17,12 -1,-1 -4,-2 -5,-4zm-2253 411c-11,1 -20,3 -28,3 -10,0 -19,-2 -30,-2 0,-10 0,-18 0,-27 0,-15 0,-30 -1,-45 -1,-13 -10,-22 -22,-23 -11,-1 -23,7 -26,18 -1,6 -1,11 -1,16 0,45 0,89 0,134 0,19 -1,39 0,59 0,12 7,21 17,24 11,3 24,-1 29,-14 3,-5 3,-12 3,-19 1,-23 2,-46 2,-70 20,-1 38,-2 59,-3 0,13 0,23 1,33 0,15 0,30 1,44 1,15 15,26 28,24 13,-1 23,-11 23,-26 -2,-45 -3,-91 -3,-136 -1,-20 -1,-40 -2,-60 -1,-13 -12,-19 -23,-21 -11,0 -22,8 -25,21 0,5 0,10 0,15 0,18 -1,36 -2,55zm228 61c1,11 1,16 1,21 1,18 2,36 5,54 1,15 11,23 24,23 15,1 25,-8 27,-23 0,-9 -1,-18 -1,-26 0,-27 -1,-53 -1,-80 0,-16 1,-33 0,-49 0,-10 -5,-20 -9,-27 -7,-9 -16,-15 -24,-23 -16,-14 -34,-20 -55,-19 -27,1 -50,10 -69,28 -46,41 -56,94 -46,151 7,42 47,59 81,37 13,-8 23,-17 33,-27 11,-11 20,-24 34,-40zm-95 19c-5,-37 -4,-72 26,-98 8,-7 20,-13 30,-16 11,-5 22,0 30,11 -24,37 -47,77 -86,103zm658 -65c11,-16 17,-31 13,-49 -5,-30 -33,-53 -68,-58 -15,-2 -30,-3 -45,-3 -21,0 -32,11 -32,31 2,58 1,116 1,175 0,31 13,43 45,46 10,1 22,2 32,2 38,-2 72,-13 95,-43 24,-32 15,-71 -21,-90 -5,-4 -12,-6 -20,-11zm-82 93c2,-17 3,-33 3,-51 26,-6 50,-3 74,10 12,6 14,14 4,23 -7,7 -16,13 -26,16 -16,6 -34,7 -55,2zm0 -104c0,-16 0,-31 2,-49 13,-3 26,-1 37,8 11,8 11,17 0,25 -10,6 -23,12 -34,19 -1,-1 -2,-2 -5,-3zm159 38c3,16 4,32 10,48 12,39 48,63 92,64 38,0 80,-27 93,-62 4,-15 1,-27 -12,-34 -11,-7 -25,-4 -34,8 -5,7 -8,14 -13,19 -12,14 -30,19 -47,14 -17,-3 -27,-16 -31,-32 -4,-20 -4,-39 0,-58 5,-17 14,-31 28,-41 11,-9 23,-8 32,3 4,4 7,10 10,14 9,13 25,18 38,9 13,-8 16,-23 7,-37 -7,-12 -15,-22 -25,-30 -28,-25 -64,-25 -93,-3 -38,30 -54,70 -55,118zm275 26c3,-1 5,-1 7,-2 10,0 20,0 30,-1 11,-1 24,-3 35,-5 22,-6 37,-23 39,-46 5,-37 -19,-77 -53,-90 -11,-3 -23,-5 -35,-3 -40,8 -66,33 -74,73 -8,35 -1,68 9,102 6,20 17,37 33,52 13,12 29,18 47,16 45,-4 75,-36 87,-74 4,-12 -2,-22 -12,-28 -11,-4 -22,-1 -29,10 -4,5 -7,11 -9,17 -7,11 -16,19 -29,25 -11,5 -19,4 -29,-6 -9,-11 -16,-24 -17,-40zm-7 -48c0,-22 6,-39 26,-49 18,-8 31,-3 40,13 2,6 4,12 5,19 2,8 -2,12 -10,13 -21,2 -40,3 -61,4zm638 -5c11,-16 17,-31 13,-49 -5,-30 -33,-53 -68,-58 -15,-2 -30,-3 -45,-3 -21,0 -32,11 -32,31 2,58 1,116 1,175 0,31 13,43 45,46 10,1 22,2 32,2 38,-2 72,-13 95,-43 24,-32 15,-71 -21,-90 -5,-4 -12,-6 -20,-11zm-82 93c1,-17 3,-33 3,-51 26,-6 50,-3 74,10 12,6 14,14 4,23 -7,7 -16,13 -26,16 -16,6 -34,7 -55,2zm0 -104c0,-16 0,-31 1,-49 14,-3 27,-1 38,8 11,8 11,17 0,25 -10,6 -23,12 -34,19 -1,-1 -2,-2 -5,-3zm214 64c2,-1 4,-1 7,-2 10,0 19,0 29,-1 12,-1 25,-3 36,-5 22,-6 37,-23 39,-46 5,-37 -20,-77 -54,-90 -10,-3 -23,-5 -34,-3 -40,8 -67,33 -75,73 -8,35 -1,68 9,102 6,20 18,37 34,52 12,12 28,18 47,16 44,-4 74,-36 87,-74 3,-12 -3,-22 -13,-28 -10,-4 -22,-1 -29,10 -3,5 -6,11 -9,17 -7,11 -16,19 -28,25 -12,5 -20,4 -29,-6 -9,-11 -16,-24 -17,-40zm-7 -48c0,-22 6,-39 25,-49 18,-8 31,-3 40,13 3,6 5,12 6,19 1,8 -2,12 -10,13 -21,2 -40,3 -61,4zm268 94c-10,-1 -17,-1 -25,-2 -18,-4 -23,-8 -24,-25 -1,-15 -2,-30 -3,-45 0,-36 0,-72 -1,-108 0,-14 -10,-23 -22,-26 -14,-2 -27,7 -30,21 -1,3 -1,7 -1,10 0,29 0,59 1,88 0,22 1,45 3,66 5,36 23,57 61,64 24,4 48,4 72,4 21,0 42,0 62,5 11,2 21,3 28,15 4,8 17,9 27,7 11,-4 15,-11 17,-20 5,-26 -12,-49 -40,-49 4,-50 6,-97 7,-145 1,-9 1,-19 0,-28 -2,-11 -12,-19 -24,-21 -11,0 -22,6 -26,17 -1,3 -2,9 -2,13 -2,37 -3,74 -4,111 -1,10 -1,19 -3,29 -2,8 -4,16 -18,17 -1,-6 -2,-13 -2,-19 -2,-40 -4,-80 -6,-122 -1,-12 -1,-25 -3,-37 -2,-13 -13,-21 -25,-21 -14,0 -24,8 -27,22 -1,2 -1,5 -1,9 3,32 5,63 6,95 1,25 2,48 3,75zm249 -62c-1,0 -2,-1 -3,-1 1,-25 2,-51 2,-77 1,-17 3,-35 1,-52 0,-13 -10,-21 -22,-22 -13,-1 -25,6 -28,20 -1,4 -1,10 -2,16 -1,48 -4,95 -5,144 -1,15 0,31 2,47 5,24 28,34 50,22 8,-5 15,-12 20,-20 14,-22 27,-44 39,-65 5,-7 8,-14 12,-21 4,16 4,31 4,45 0,16 0,31 0,46 0,16 8,26 22,27 14,3 28,-7 31,-22 1,-5 1,-11 1,-16 1,-46 1,-92 3,-138 0,-10 0,-20 0,-31 0,-14 -7,-25 -21,-30 -13,-5 -24,0 -33,11 -11,12 -22,26 -31,41 -15,25 -28,51 -42,76zm-2660 484c-4,-9 -7,-14 -8,-20 -8,-29 -16,-58 -25,-85 -4,-12 -8,-22 -15,-31 -15,-18 -38,-15 -50,3 -3,7 -6,14 -8,22 -3,18 -7,38 -8,57 -4,44 -7,88 -10,132 -2,18 7,31 22,32 15,1 25,-8 27,-27 1,-16 3,-32 5,-48 1,-20 2,-39 3,-59 6,6 8,12 11,18 8,20 16,40 24,61 7,15 16,28 34,29 18,0 28,-13 32,-29 9,-28 17,-57 27,-86 1,-4 3,-10 4,-16 4,4 5,7 5,11 2,38 3,76 4,114 1,16 12,27 27,27 13,-1 24,-12 24,-30 -3,-55 -4,-111 -7,-168 0,-10 -4,-22 -8,-31 -8,-18 -29,-25 -45,-16 -9,6 -17,13 -23,21 -8,14 -15,29 -19,44 -9,24 -15,48 -23,75zm302 7c1,11 1,17 1,21 1,19 2,36 4,54 1,15 12,23 24,23 15,1 26,-8 28,-23 0,-9 -1,-18 -1,-26 0,-27 -1,-53 -1,-80 0,-16 1,-33 0,-49 0,-9 -5,-20 -10,-27 -6,-9 -16,-15 -24,-23 -16,-13 -33,-20 -55,-19 -26,1 -49,10 -68,29 -46,40 -57,93 -46,150 7,42 47,59 81,37 13,-8 23,-17 32,-26 12,-12 21,-24 35,-41zm-96 19c-4,-37 -3,-72 27,-98 8,-7 19,-13 30,-16 11,-5 21,0 29,11 -24,37 -47,77 -86,103zm237 81c9,0 17,2 26,0 32,-1 76,-20 87,-67 5,-21 9,-44 8,-66 0,-30 -9,-57 -32,-78 -30,-28 -65,-38 -105,-32 -22,2 -30,10 -35,32 -1,4 -1,9 -1,14 -10,104 -3,209 0,314 1,5 3,12 5,18 8,15 30,18 40,6 6,-6 8,-15 8,-22 1,-18 -1,-37 -1,-54 -1,-21 0,-40 0,-65zm-5 -51c1,-49 4,-93 5,-137 30,-6 56,9 64,34 9,27 5,53 -6,80 -4,12 -16,18 -28,20 -10,2 -20,2 -35,3zm226 -54c4,9 7,16 10,23 6,22 13,42 20,63 7,17 20,23 35,19 14,-4 21,-17 16,-34 -13,-36 -26,-70 -39,-106 -4,-8 -3,-14 3,-21 10,-12 20,-26 29,-40 4,-6 7,-11 9,-17 4,-13 0,-24 -12,-30 -11,-7 -24,-5 -33,6 -2,2 -3,5 -6,8 -14,21 -31,42 -45,63 -3,2 -6,5 -12,10 0,-12 0,-21 0,-31 0,-13 1,-27 -1,-40 -1,-14 -13,-22 -25,-22 -13,0 -24,9 -27,22 -1,5 0,10 0,15 -1,44 -1,86 -1,129 0,21 0,42 3,63 2,16 14,25 29,23 14,-1 23,-11 23,-27 0,-11 -1,-21 -2,-31 -2,-21 9,-33 26,-45z"/>
   <path class="fil1" d="M1621 1757c-1,0 -2,-1 -4,-1 2,-25 3,-51 3,-77 1,-17 2,-35 1,-52 0,-12 -10,-21 -23,-22 -13,-1 -24,6 -28,20 -1,5 -1,10 -2,16 -1,48 -3,95 -4,144 -2,15 0,31 2,47 4,24 27,34 49,22 8,-5 15,-12 21,-20 14,-22 26,-43 39,-65 4,-7 8,-14 11,-21 5,16 5,31 5,45 0,16 0,31 0,46 0,16 8,26 22,27 13,3 27,-6 30,-21 2,-6 2,-12 2,-16 1,-46 1,-93 2,-139 0,-10 0,-20 0,-31 0,-13 -7,-25 -21,-29 -12,-6 -24,0 -33,10 -10,13 -22,26 -31,41 -15,26 -27,51 -41,76zm560 -68c13,-16 23,-28 34,-42 9,-12 17,-22 25,-34 7,-12 4,-25 -6,-34 -9,-7 -22,-8 -32,0 -5,3 -8,8 -11,11 -20,26 -39,51 -59,76 -18,27 -15,49 13,65 15,9 32,16 48,23 10,4 22,0 27,-9 7,-9 10,-20 3,-29 -5,-6 -12,-12 -19,-16 -7,-4 -13,-6 -23,-11zm93 -20c3,-5 4,-7 6,-10 6,-5 13,-12 18,-19 5,-5 9,-9 14,-15 9,-12 9,-27 0,-36 -9,-9 -23,-11 -33,-2 -25,21 -48,44 -63,72 -6,11 -8,25 1,31 23,19 47,37 72,52 13,8 30,-2 35,-17 5,-14 -2,-25 -15,-33 -12,-7 -23,-15 -35,-23zm143 41c21,-2 41,-5 59,-7 42,-6 66,-32 68,-73 1,-36 -4,-74 -16,-109 -14,-35 -39,-53 -77,-56 -14,-1 -29,-1 -42,-2 -30,-3 -43,10 -44,39 -1,103 -2,209 -3,313 0,5 0,10 1,15 2,13 12,23 25,23 13,0 23,-8 25,-21 3,-6 3,-13 3,-18 0,-27 1,-52 1,-78 0,-9 0,-17 0,-26zm2 -193c15,1 26,1 39,3 8,1 14,7 17,15 13,30 17,62 15,93 0,10 -3,18 -13,20 -14,3 -31,5 -47,5 -6,0 -13,-5 -13,-14 1,-41 1,-81 2,-122zm155 270c5,17 11,37 25,54 33,43 93,38 118,-10 24,-48 27,-99 14,-151 -8,-31 -29,-52 -60,-60 -9,-2 -19,-2 -28,1 -30,10 -52,30 -63,60 -14,34 -14,68 -6,106zm109 -87c7,34 4,66 -7,97 -1,4 -3,9 -6,12 -8,11 -20,11 -28,2 -4,-3 -6,-5 -7,-10 -16,-32 -21,-66 -7,-100 3,-9 11,-19 19,-24 14,-8 26,-4 32,11 3,5 3,9 4,12zm272 111c-1,-3 -1,-7 -1,-9 1,-32 1,-63 1,-94 0,-16 0,-32 -4,-49 -10,-46 -59,-62 -97,-34 -23,17 -36,40 -39,69 -1,13 -2,25 -3,37 -2,30 -4,58 -5,88 -6,3 -11,3 -16,5 -25,8 -32,16 -30,41 1,15 8,23 20,26 11,2 19,-3 26,-16 2,-6 6,-10 11,-10 4,-1 8,-1 13,-1 32,-1 64,-2 96,-2 5,0 9,3 12,6 8,8 17,10 26,5 9,-3 15,-11 16,-21 2,-21 -3,-32 -26,-41zm-48 3c-18,1 -35,1 -52,2 -1,-8 -1,-14 -1,-20 2,-33 5,-65 7,-99 1,-16 10,-28 24,-36 10,-6 18,-3 22,9 2,8 2,17 2,25 0,37 -1,75 -1,112 0,2 -1,4 -1,7zm155 -57c-1,0 -3,-1 -4,-1 1,-25 3,-51 3,-77 1,-17 2,-35 1,-52 0,-12 -11,-21 -23,-22 -13,-1 -24,6 -28,20 -1,5 -1,10 -2,16 -1,48 -3,95 -5,144 -1,15 0,31 3,47 4,24 27,34 49,22 8,-5 15,-12 21,-20 13,-22 26,-43 39,-65 4,-7 8,-14 11,-21 5,16 5,31 5,45 0,16 0,31 0,46 0,16 8,26 21,27 14,3 28,-6 31,-21 1,-6 1,-12 1,-16 2,-46 2,-93 3,-139 0,-10 0,-20 0,-31 0,-13 -7,-25 -21,-29 -12,-6 -24,0 -33,10 -10,13 -22,26 -31,41 -15,26 -28,51 -41,76zm261 -52c-10,2 -19,3 -27,3 -10,0 -20,-1 -30,-1 0,-11 0,-19 0,-28 0,-15 0,-30 -1,-45 -1,-13 -10,-22 -22,-23 -11,-1 -23,7 -26,19 -1,5 -1,10 -1,16 0,44 0,88 0,133 0,20 -2,39 0,59 0,12 6,22 17,24 11,3 24,-1 28,-14 4,-5 4,-11 4,-18 1,-23 2,-46 2,-70 20,-2 38,-3 59,-4 0,13 0,23 1,33 0,15 0,30 1,44 1,15 15,27 27,24 14,-1 23,-11 23,-26 -1,-45 -2,-91 -2,-136 -1,-19 -1,-40 -2,-60 -1,-12 -12,-19 -23,-20 -12,0 -22,8 -25,20 0,5 0,11 0,15 0,19 -2,36 -3,55zm229 61c1,11 1,17 1,21 1,19 2,36 4,54 2,15 12,23 25,23 14,1 25,-8 27,-23 0,-9 -1,-18 -1,-26 0,-27 -1,-53 -1,-80 0,-16 1,-33 0,-49 0,-9 -5,-20 -9,-27 -7,-9 -16,-15 -24,-23 -17,-13 -34,-20 -56,-19 -26,1 -49,10 -68,29 -46,40 -56,93 -46,150 7,42 47,59 81,37 13,-8 23,-17 32,-26 12,-12 21,-24 35,-41zm-95 19c-5,-37 -4,-72 26,-98 8,-7 19,-13 30,-16 11,-5 22,0 30,11 -25,37 -47,78 -86,103zm321 -103c-14,19 -27,35 -39,52 -13,16 -7,38 11,43 11,3 20,0 27,-7 23,-22 40,-47 52,-76 7,-14 5,-29 -5,-39 -22,-23 -45,-46 -69,-67 -14,-11 -33,-3 -39,14 -2,4 -2,10 -4,18 -10,-9 -18,-17 -26,-24 -10,-11 -24,-13 -35,-4 -12,9 -14,25 -6,38 3,5 10,10 16,16 11,10 24,20 37,32 -6,6 -10,10 -13,15 -13,15 -26,30 -39,45 -11,16 -9,32 3,41 13,9 30,4 39,-9 15,-19 31,-36 47,-53 15,-15 27,-29 21,-55 9,8 15,14 22,20zm-2506 521c11,-17 17,-32 14,-50 -6,-30 -34,-53 -69,-57 -15,-3 -30,-4 -45,-4 -21,0 -32,12 -32,31 2,59 1,116 1,175 0,31 13,44 45,46 10,1 22,2 32,2 38,-2 72,-12 95,-42 24,-32 15,-72 -21,-91 -5,-4 -12,-6 -20,-10zm-82 93c2,-18 3,-34 3,-52 26,-6 50,-2 74,10 12,6 14,14 4,23 -7,7 -16,13 -26,16 -16,6 -34,7 -55,3zm0 -105c0,-16 0,-31 2,-48 13,-4 26,-1 37,8 11,8 11,16 0,24 -10,7 -23,13 -34,20 -1,-2 -2,-3 -5,-4zm632 51c-3,-10 -7,-15 -8,-21 -8,-29 -16,-58 -25,-85 -4,-12 -8,-22 -15,-31 -15,-17 -38,-15 -49,3 -4,7 -7,14 -8,22 -4,18 -7,38 -8,58 -5,43 -7,87 -11,131 -2,18 7,31 22,32 15,1 25,-8 28,-26 1,-17 2,-33 4,-49 1,-19 2,-39 4,-58 5,5 8,11 10,17 8,20 16,40 24,61 7,15 16,29 34,30 19,0 28,-14 32,-30 10,-28 18,-57 27,-85 1,-5 3,-11 4,-16 4,3 5,6 5,10 2,38 3,76 5,114 1,16 11,27 26,27 14,-1 24,-12 24,-30 -2,-55 -3,-111 -7,-168 0,-10 -3,-21 -8,-31 -8,-18 -29,-25 -45,-16 -9,6 -17,13 -23,21 -8,14 -14,29 -19,44 -9,24 -15,48 -23,76zm302 7c1,10 1,16 1,20 1,19 2,36 5,54 1,15 11,23 24,23 14,2 25,-8 27,-23 0,-9 -1,-18 -1,-26 0,-27 -1,-53 -1,-79 0,-17 1,-34 0,-50 0,-9 -5,-20 -9,-26 -7,-10 -16,-15 -24,-23 -16,-14 -34,-21 -55,-20 -27,1 -50,10 -69,29 -46,40 -56,93 -46,150 7,42 47,59 81,37 13,-8 23,-17 32,-26 12,-12 21,-24 35,-40zm-95 18c-5,-37 -4,-71 26,-98 8,-7 19,-12 30,-16 11,-5 22,0 30,12 -24,36 -47,77 -86,102zm178 -44c1,23 1,42 2,61 1,16 2,32 6,49 2,15 17,24 32,21 13,-3 22,-15 20,-31 -2,-34 -5,-68 -7,-102 -1,-21 2,-43 3,-63 1,-14 7,-19 19,-16 7,1 14,5 20,9 19,10 40,-1 40,-23 0,-14 -6,-27 -20,-31 -11,-5 -24,-7 -36,-8 -42,-5 -73,20 -76,63 -2,24 -2,49 -3,71zm311 26c1,10 1,16 1,20 1,19 2,36 4,54 1,15 12,23 24,23 15,2 26,-8 28,-23 0,-9 -1,-18 -1,-26 0,-27 -1,-53 -1,-79 0,-17 1,-34 0,-50 0,-9 -5,-20 -10,-26 -7,-10 -16,-15 -24,-23 -16,-14 -33,-21 -55,-20 -26,1 -49,10 -68,29 -46,40 -57,93 -46,150 7,42 47,59 81,37 13,-8 23,-17 32,-26 12,-12 21,-24 35,-40zm-96 18c-4,-37 -3,-71 27,-98 8,-7 19,-12 30,-16 11,-5 21,0 29,12 -24,36 -47,77 -86,102zm298 -66c5,-18 12,-32 14,-47 5,-20 -3,-38 -21,-50 -23,-16 -74,-11 -93,11 -8,8 -9,21 -4,30 7,9 20,13 31,8 12,-3 27,-14 35,-10 8,10 -1,22 -11,28 -11,8 -24,15 -36,23 -13,7 -19,18 -14,31 5,11 17,17 30,15 4,-1 9,-2 14,-3 18,-4 32,5 32,24 0,10 -4,22 -6,32 -20,5 -33,4 -44,-12 -8,-12 -23,-12 -34,-5 -13,8 -16,22 -8,34 5,6 9,12 16,18 24,22 54,22 83,14 26,-7 37,-29 42,-52 8,-35 3,-66 -26,-89zm116 38c-2,0 -3,-1 -4,-1 1,-25 2,-50 2,-77 2,-17 3,-34 2,-52 0,-12 -11,-20 -23,-21 -13,-2 -24,5 -28,19 -1,5 -1,10 -2,16 -1,49 -4,96 -5,144 -1,15 0,31 3,47 4,24 27,35 49,22 8,-5 15,-11 21,-20 13,-21 26,-43 38,-65 5,-7 9,-14 12,-21 5,16 5,31 5,45 0,16 0,31 0,46 0,16 8,27 21,28 14,2 28,-7 31,-22 1,-6 1,-12 1,-16 2,-46 2,-92 3,-138 0,-11 0,-21 0,-31 0,-14 -7,-26 -21,-30 -13,-6 -24,0 -33,10 -10,13 -22,26 -31,41 -15,26 -28,51 -41,76zm261 -51c-10,1 -19,2 -27,2 -11,0 -20,-1 -30,-1 0,-11 0,-19 0,-28 0,-15 0,-30 -1,-45 -1,-12 -11,-22 -22,-23 -11,-1 -23,7 -26,19 -1,5 -1,10 -1,16 0,45 0,88 0,133 0,20 -2,39 0,59 0,13 6,22 17,24 11,4 24,-1 28,-14 4,-4 4,-11 4,-18 1,-23 2,-46 2,-70 20,-1 38,-3 59,-4 0,13 0,23 1,34 0,15 0,30 1,43 1,15 15,27 27,24 14,-1 23,-11 23,-26 -1,-45 -2,-91 -2,-136 -1,-19 -1,-40 -2,-60 -1,-12 -12,-19 -23,-20 -12,0 -22,8 -25,20 0,5 0,11 0,15 0,19 -2,36 -3,56zm132 67c3,-1 5,-1 7,-2 11,0 20,0 30,-1 11,-1 24,-2 36,-5 21,-5 36,-23 39,-46 4,-36 -20,-77 -54,-89 -11,-4 -23,-6 -35,-4 -40,8 -66,34 -74,74 -8,34 -1,68 9,101 6,21 17,37 33,52 13,13 29,18 47,16 45,-3 75,-36 87,-74 4,-11 -2,-22 -12,-27 -11,-5 -22,-1 -29,9 -3,6 -7,11 -9,17 -7,12 -16,20 -29,26 -11,4 -19,3 -28,-6 -10,-12 -16,-24 -18,-41zm-7 -48c0,-22 6,-39 26,-48 18,-8 31,-4 40,13 2,5 4,11 6,18 1,8 -3,13 -11,14 -20,1 -40,2 -61,3zm-1768 447c13,-16 23,-29 33,-43 9,-11 18,-22 26,-33 6,-13 4,-26 -6,-35 -9,-7 -22,-8 -32,0 -5,4 -8,8 -12,12 -19,25 -39,50 -58,76 -19,26 -15,48 12,64 15,9 32,16 49,23 10,5 21,0 27,-9 7,-8 9,-20 2,-29 -4,-6 -11,-11 -18,-16 -7,-3 -14,-6 -23,-10zm93 -21c2,-5 3,-7 6,-9 5,-6 12,-13 18,-20 5,-4 9,-9 14,-15 9,-11 9,-26 0,-35 -9,-10 -23,-12 -34,-3 -25,21 -48,44 -63,73 -5,10 -8,24 2,31 23,18 47,37 72,52 12,8 30,-3 34,-18 6,-13 -1,-25 -15,-33 -11,-7 -23,-15 -34,-23zm142 41c22,-2 42,-4 60,-7 41,-5 65,-32 68,-73 1,-36 -4,-74 -16,-108 -14,-36 -39,-53 -77,-57 -14,-1 -29,-1 -43,-2 -29,-2 -42,10 -43,39 -1,104 -3,210 -4,313 0,6 0,10 1,15 3,14 13,23 26,23 12,0 23,-8 25,-21 2,-5 2,-12 2,-18 0,-27 1,-52 1,-77 0,-9 0,-17 0,-27zm3 -193c15,1 26,1 39,4 8,1 13,6 17,15 12,29 17,62 15,93 0,9 -4,17 -13,19 -15,4 -31,5 -47,5 -7,0 -14,-5 -14,-14 1,-40 1,-80 3,-122zm155 270c4,18 11,37 25,55 33,42 93,38 118,-11 24,-48 26,-99 14,-151 -8,-31 -29,-51 -60,-59 -9,-3 -19,-3 -29,1 -29,9 -51,30 -63,60 -13,33 -13,68 -5,105zm109 -87c6,35 4,67 -7,98 -1,3 -4,8 -6,11 -8,12 -21,12 -29,3 -3,-4 -5,-6 -7,-11 -16,-32 -20,-65 -6,-100 3,-9 11,-18 19,-24 14,-8 25,-3 32,12 2,4 2,9 4,11zm272 112c-2,-4 -2,-7 -2,-10 2,-32 2,-63 2,-94 0,-16 0,-32 -4,-48 -10,-46 -60,-62 -97,-35 -23,18 -36,41 -39,69 -1,13 -3,26 -4,37 -1,30 -3,59 -4,89 -6,2 -12,2 -16,4 -26,8 -32,16 -30,42 1,15 8,23 19,25 12,2 20,-2 27,-16 2,-6 5,-9 11,-9 4,-1 8,-1 13,-1 32,-2 64,-3 96,-3 5,0 9,4 11,6 8,8 18,10 27,6 9,-4 15,-12 16,-22 2,-21 -4,-31 -26,-40zm-49 2c-17,1 -34,1 -51,2 -1,-8 -1,-14 -1,-19 2,-34 4,-66 7,-99 1,-16 10,-29 24,-37 10,-6 18,-2 21,9 3,8 3,17 3,25 0,37 -1,75 -1,112 0,2 -2,5 -2,7zm155 -56c-1,0 -2,-2 -3,-2 1,-25 2,-50 2,-77 1,-17 3,-34 1,-51 0,-13 -10,-21 -23,-22 -12,-1 -24,5 -27,19 -1,5 -1,11 -2,16 -1,49 -4,96 -5,144 -1,15 0,31 2,47 5,25 28,35 50,22 8,-4 15,-11 20,-19 14,-22 27,-44 39,-66 5,-7 8,-14 12,-21 4,16 4,31 4,45 0,16 0,31 0,46 0,16 8,27 22,28 14,2 28,-7 31,-22 1,-6 1,-12 1,-16 1,-46 1,-92 2,-138 0,-11 0,-21 0,-31 0,-14 -6,-26 -20,-30 -13,-6 -24,0 -33,10 -11,13 -22,27 -31,42 -15,25 -28,50 -42,76z"/>
   <path class="fil1" d="M2596 2670c-10,1 -19,2 -27,2 -11,0 -20,-1 -30,-1 0,-10 0,-18 0,-28 0,-15 0,-30 -1,-45 -2,-12 -11,-21 -22,-23 -12,-1 -23,7 -27,19 -1,6 -1,10 -1,16 0,45 0,89 0,133 0,20 -1,40 0,59 0,13 7,22 17,24 12,4 25,-1 29,-14 4,-4 4,-11 4,-18 1,-23 2,-46 2,-70 19,-1 38,-2 58,-4 0,13 0,23 1,34 0,15 0,30 2,43 1,15 15,27 27,25 14,-1 23,-12 23,-27 -1,-45 -2,-91 -2,-136 -1,-19 -1,-40 -3,-59 -1,-13 -11,-20 -22,-21 -12,0 -22,8 -26,21 0,4 0,10 0,15 0,18 -1,35 -2,55zm228 61c2,10 2,16 2,20 1,19 2,36 4,55 1,15 12,23 24,23 15,1 25,-8 28,-23 0,-10 -1,-19 -1,-27 0,-26 -2,-53 -2,-79 0,-16 2,-34 0,-50 0,-9 -4,-19 -9,-26 -7,-9 -16,-15 -24,-23 -16,-14 -33,-21 -55,-20 -26,1 -49,11 -69,29 -45,40 -56,93 -45,151 6,41 47,58 81,36 13,-8 23,-17 32,-26 11,-11 21,-24 34,-40zm-95 18c-4,-37 -3,-71 27,-98 8,-7 19,-12 29,-16 12,-4 22,0 30,12 -24,37 -47,77 -86,102zm322 -102c-14,18 -27,34 -39,52 -13,16 -7,38 11,42 10,4 19,0 26,-7 23,-22 40,-47 53,-76 7,-14 5,-28 -6,-39 -21,-23 -44,-46 -68,-67 -14,-11 -34,-3 -39,14 -3,5 -3,11 -4,19 -10,-10 -18,-18 -26,-25 -10,-11 -24,-12 -36,-4 -11,9 -13,25 -5,38 3,6 10,10 16,16 11,10 24,21 36,32 -5,6 -9,11 -12,15 -13,15 -27,30 -39,45 -12,16 -9,32 3,41 13,10 30,4 39,-9 15,-18 31,-35 47,-53 15,-15 26,-28 21,-55 9,8 15,14 22,21z"/>
  </g>
  <path class="fil2" d="M2912 3200c-36,-49 -172,-61 -301,-75 -129,-14 -340,0 -419,0 -79,0 -72,55 -336,24 -264,-30 -304,-26 -294,12 9,39 -22,149 -1,183 20,34 200,76 304,76 105,0 387,-22 494,-28 108,-5 241,-48 311,-29 69,19 175,28 193,22 18,-5 49,-185 49,-185z"/>
  <path class="fil1" d="M1799 3234c0,3 1,6 1,8 -1,14 -1,28 -2,41 0,7 0,14 0,21 0,7 4,10 10,11 6,0 10,-4 11,-11 0,0 0,-1 0,-3 0,-20 1,-39 2,-59 0,-5 -1,-10 -2,-15 -2,-9 -7,-14 -17,-14 -7,0 -14,-1 -21,0 -5,0 -10,2 -15,3 -7,3 -11,9 -12,16 0,4 -1,9 -1,13 -1,13 -1,26 -1,39 -1,7 -1,15 -1,22 0,5 4,10 9,11 5,0 10,-3 11,-9 1,-2 1,-4 1,-6 1,-14 1,-29 1,-43 0,-8 1,-16 1,-24 9,-2 17,-1 25,-1zm86 84c4,0 7,0 11,0 13,-1 31,-9 36,-28 2,-9 4,-18 3,-27 0,-12 -3,-24 -13,-32 -12,-12 -27,-16 -43,-13 -9,0 -12,4 -14,13 -1,2 -1,4 -1,5 -4,43 -1,86 0,129 1,3 1,5 2,8 3,6 12,7 17,2 2,-2 3,-6 3,-9 0,-7 -1,-15 -1,-22 0,-8 0,-16 0,-26zm-2 -22c1,-19 2,-38 2,-56 13,-2 24,4 27,14 4,11 2,22 -3,33 -1,5 -6,7 -11,8 -4,1 -8,1 -15,1zm95 -11c2,7 5,15 11,22 13,18 38,16 48,-4 10,-20 11,-41 6,-62 -3,-13 -12,-21 -24,-24 -4,-1 -8,-1 -12,0 -13,4 -22,12 -26,25 -6,13 -6,27 -3,43zm45 -36c3,14 2,28 -3,40 0,2 -1,4 -2,5 -3,5 -8,5 -12,1 -1,-1 -2,-2 -3,-4 -6,-14 -8,-27 -2,-41 1,-4 4,-8 8,-10 5,-4 10,-2 13,4 1,2 1,4 1,5zm115 25c-1,-4 -3,-6 -3,-9 -4,-12 -7,-23 -11,-35 -1,-4 -3,-9 -6,-12 -6,-8 -15,-7 -20,1 -2,3 -3,6 -3,9 -2,7 -3,16 -4,24 -2,17 -3,35 -4,53 -1,8 3,13 9,14 6,0 10,-4 11,-11 1,-7 1,-14 2,-20 1,-8 1,-16 2,-24 2,2 3,5 4,7 3,8 6,16 10,25 3,6 6,12 14,12 8,0 11,-5 13,-12 4,-11 7,-23 11,-35 0,-2 1,-4 2,-7 1,2 2,3 2,5 1,15 1,31 2,46 0,7 4,12 11,12 5,-1 9,-6 9,-13 0,-22 -1,-45 -2,-69 0,-4 -2,-8 -4,-12 -3,-8 -11,-11 -18,-7 -4,2 -7,5 -10,9 -3,5 -6,11 -8,18 -3,9 -6,19 -9,31zm95 11c2,7 5,15 11,22 13,18 38,16 48,-4 10,-20 11,-41 6,-62 -3,-13 -12,-21 -24,-24 -4,-1 -9,-1 -12,0 -13,4 -22,12 -26,25 -6,13 -6,27 -3,43zm45 -36c3,14 2,28 -3,40 0,2 -1,4 -2,5 -3,5 -8,5 -12,1 -1,-1 -2,-2 -3,-4 -6,-14 -8,-27 -2,-41 1,-4 4,-8 8,-10 5,-4 10,-2 13,4 1,2 1,4 1,5zm96 25c1,4 2,7 3,10 3,9 6,17 9,26 3,7 8,9 14,8 6,-2 9,-7 7,-15 -6,-14 -11,-28 -16,-43 -2,-3 -1,-6 1,-8 4,-6 8,-11 12,-17 2,-2 3,-5 4,-7 2,-5 0,-10 -5,-12 -5,-3 -10,-2 -14,2 -1,1 -1,2 -2,3 -6,9 -13,18 -19,26 -1,1 -2,2 -5,5 0,-6 0,-9 0,-13 0,-6 1,-12 0,-17 -1,-5 -5,-9 -11,-9 -5,0 -10,4 -10,9 -1,2 0,5 0,6 -1,18 -1,36 -1,53 0,9 0,18 1,26 1,7 6,11 12,10 6,-1 10,-5 10,-12 0,-4 -1,-8 -1,-12 -1,-9 4,-14 11,-19zm78 11c2,7 5,15 10,22 14,18 39,16 49,-4 10,-20 11,-41 6,-62 -4,-13 -12,-21 -25,-24 -4,-1 -8,-1 -12,0 -12,4 -21,12 -26,25 -5,13 -5,27 -2,43zm45 -36c3,14 2,28 -3,40 0,2 -1,4 -2,5 -4,5 -9,5 -12,1 -2,-1 -2,-2 -3,-4 -7,-14 -8,-27 -3,-41 2,-4 5,-8 8,-10 6,-4 11,-2 13,4 1,2 1,4 2,5zm142 46c0,-1 0,-3 0,-4 0,-13 0,-26 0,-39 0,-6 0,-13 -1,-19 -4,-19 -24,-26 -40,-15 -10,8 -15,17 -16,29 -1,5 -1,10 -2,15 0,12 -1,24 -1,36 -3,1 -5,1 -7,2 -10,3 -13,7 -12,17 0,6 3,10 8,11 4,0 8,-1 11,-7 1,-2 2,-4 4,-4 2,0 4,0 5,0 14,-1 27,-1 40,-1 2,0 4,1 5,2 3,3 7,4 11,2 3,-1 6,-4 6,-9 1,-8 -1,-12 -11,-16zm-19 1c-7,0 -15,0 -22,1 0,-3 0,-6 0,-8 1,-14 2,-27 3,-41 0,-6 4,-12 10,-15 4,-2 7,-1 9,4 1,3 1,7 1,10 0,15 -1,31 -1,46 0,1 0,2 0,3zm84 15c6,0 11,-5 11,-11 0,-6 -5,-12 -11,-12 -6,0 -12,6 -12,12 0,5 6,11 12,11zm2 -55c5,1 10,-4 10,-10 0,-6 -4,-11 -10,-11 -6,0 -11,4 -11,10 0,7 4,11 11,11z"/>
  <path class="fil1" d="M902 3622c5,-9 11,-19 16,-30 12,-33 6,-69 -16,-89 -22,-18 -48,-24 -75,-18 -8,1 -14,3 -20,4 -18,5 -25,13 -25,31 -3,58 -6,116 -7,175 0,40 2,81 3,121 1,20 20,37 38,36 18,0 37,-1 55,-3 44,-7 78,-28 91,-73 4,-15 6,-33 6,-48 -2,-28 -5,-55 -26,-76 -12,-11 -27,-19 -40,-30zm-77 180c0,-34 0,-66 -1,-97 0,-9 4,-15 12,-20 16,-7 33,-10 50,-10 10,0 19,5 23,16 13,26 15,53 3,81 -7,16 -21,24 -37,26 -15,3 -31,2 -50,4zm1 -177c1,-14 2,-24 2,-35 1,-14 2,-29 2,-44 1,-11 4,-15 17,-15 19,0 29,13 27,32 -1,14 -7,24 -16,34 -8,10 -17,19 -32,28zm225 133c-1,0 -2,-1 -3,-1 1,-23 2,-46 2,-71 1,-15 2,-31 1,-47 0,-12 -10,-19 -21,-20 -12,-1 -22,5 -25,18 -2,4 -2,9 -3,15 -1,44 -3,87 -4,131 -1,14 0,29 2,44 5,22 26,31 46,20 7,-5 13,-11 19,-18 12,-20 24,-40 35,-60 5,-7 8,-13 11,-19 4,14 4,28 4,41 0,14 0,28 0,42 0,15 8,24 20,25 13,2 26,-6 29,-20 1,-5 1,-10 1,-15 1,-42 1,-84 2,-126 0,-10 0,-19 0,-29 0,-12 -6,-23 -19,-27 -12,-5 -22,0 -31,10 -9,11 -20,24 -28,38 -14,23 -25,46 -38,69zm276 -82c0,9 1,17 0,24 -4,39 -7,77 -9,116 -1,8 -1,17 1,24 2,12 13,19 23,19 12,-1 21,-8 24,-20 1,-3 1,-6 1,-9 3,-45 6,-89 8,-133 1,-13 0,-26 -2,-39 -3,-17 -15,-30 -32,-30 -25,-1 -51,-1 -77,3 -19,2 -27,14 -28,32 -1,7 -1,12 -1,18 1,18 1,37 1,55 0,21 -2,41 -10,61 -5,0 -8,-1 -12,-1 -18,1 -29,17 -23,34 6,23 37,35 57,20 7,-7 15,-15 19,-23 7,-18 13,-36 15,-55 4,-24 1,-49 2,-74 0,-6 0,-14 0,-22 15,0 27,0 43,0zm207 0c0,9 1,17 0,24 -3,39 -7,77 -9,116 -1,8 -1,17 1,24 3,12 13,19 24,19 11,-1 21,-8 23,-20 1,-3 1,-6 1,-9 3,-45 6,-89 8,-133 1,-13 0,-26 -2,-39 -3,-17 -15,-30 -31,-30 -26,-1 -52,-1 -77,3 -19,2 -28,14 -29,32 -1,7 -1,12 -1,18 1,18 1,37 1,55 0,21 -2,41 -9,61 -6,0 -9,-1 -13,-1 -18,1 -28,17 -23,34 6,23 37,35 57,20 7,-7 16,-15 19,-23 7,-18 13,-36 16,-55 3,-24 1,-49 2,-74 0,-6 0,-14 0,-22 14,0 26,0 42,0zm211 91c1,9 1,14 1,18 1,17 2,33 4,50 2,14 11,21 23,21 13,1 23,-7 25,-21 0,-8 -1,-17 -1,-24 0,-24 -1,-49 -1,-73 0,-15 1,-31 0,-45 0,-9 -4,-18 -9,-25 -6,-8 -14,-13 -22,-21 -15,-12 -30,-19 -50,-17 -25,1 -46,9 -64,26 -42,37 -51,85 -42,138 7,38 43,54 75,34 12,-8 21,-16 30,-25 10,-10 19,-22 31,-36zm-87 16c-4,-33 -3,-65 24,-89 7,-7 18,-12 27,-15 11,-4 20,0 28,11 -22,33 -43,70 -79,93zm343 25c-1,-4 -1,-7 -1,-9 1,-29 1,-58 1,-86 0,-15 0,-30 -3,-45 -10,-42 -55,-56 -90,-31 -21,16 -33,37 -36,63 -1,12 -2,23 -3,34 -1,27 -3,54 -4,81 -5,2 -11,2 -15,4 -23,8 -29,15 -27,38 1,14 7,21 18,23 10,2 18,-2 24,-14 2,-6 5,-9 10,-9 4,-1 8,-1 12,-1 30,-1 59,-2 89,-2 4,0 8,3 10,5 7,8 16,10 24,6 9,-4 14,-11 15,-21 2,-18 -3,-28 -24,-36zm-44 2c-16,1 -32,1 -48,2 -1,-8 -1,-13 -1,-18 2,-31 4,-60 6,-91 2,-14 10,-26 23,-33 9,-6 16,-3 20,8 2,7 2,16 2,23 0,34 -1,69 -1,102 0,2 -1,5 -1,7zm172 -65c13,4 16,11 15,23 -2,22 -3,45 -3,67 -1,14 7,22 19,24 10,1 21,-6 24,-18 1,-6 1,-11 2,-18 0,-13 1,-27 2,-42 0,-3 1,-8 3,-10 7,-7 15,-13 23,-19 2,5 5,8 6,12 8,24 18,47 26,71 4,11 14,18 23,16 12,-1 19,-10 20,-21 0,-6 -1,-12 -3,-16 -9,-25 -18,-52 -29,-77 -9,-18 -11,-34 4,-50 7,-8 12,-19 17,-28 6,-15 -1,-29 -15,-32 -12,-2 -19,4 -25,13 -11,16 -20,33 -31,49 -4,5 -6,11 -15,15 0,-6 0,-11 0,-15 1,-13 2,-27 3,-41 0,-14 -8,-25 -21,-25 -12,-1 -22,9 -24,23 -1,13 -1,26 -2,38 -1,3 -2,8 -3,14 -14,-16 -25,-30 -37,-43 -7,-8 -13,-16 -20,-23 -9,-10 -20,-11 -30,-5 -8,8 -11,20 -6,31 2,4 6,7 10,12 11,13 22,27 33,42 -20,33 -31,69 -41,107 -3,15 2,27 14,30 13,4 23,-2 28,-16 4,-9 6,-17 8,-25 6,-23 13,-44 25,-63zm292 -48c0,-1 0,-1 0,-1 30,0 60,0 90,0 11,0 19,-7 23,-17 3,-12 1,-23 -9,-28 -6,-5 -15,-7 -23,-7 -20,0 -40,2 -60,2 -34,0 -68,-1 -101,-2 -13,0 -23,7 -27,18 -3,11 2,24 14,30 9,3 19,4 28,5 21,0 43,0 65,0zm195 18c20,-2 38,-4 55,-6 38,-6 60,-30 62,-68 1,-33 -3,-67 -15,-99 -12,-33 -35,-48 -70,-52 -13,-1 -27,-1 -39,-2 -28,-2 -39,10 -40,36 -1,95 -2,192 -3,287 0,5 0,9 1,13 2,13 11,22 23,22 11,0 21,-8 23,-19 2,-6 2,-12 2,-17 0,-25 1,-48 1,-71 0,-8 0,-16 0,-24zm2 -177c14,1 24,1 36,3 7,1 13,6 16,14 11,27 16,57 14,85 0,8 -4,16 -12,18 -14,3 -28,4 -43,4 -7,0 -13,-4 -13,-12 1,-37 1,-74 2,-112zm145 247c4,16 11,34 23,50 31,39 86,35 109,-9 22,-45 24,-91 13,-139 -8,-28 -27,-47 -55,-54 -9,-2 -18,-2 -27,1 -27,8 -47,27 -57,55 -13,30 -13,62 -6,96zm100 -80c7,32 5,62 -6,90 -1,3 -3,7 -5,10 -8,11 -19,11 -27,3 -3,-4 -5,-6 -6,-10 -15,-29 -19,-60 -6,-92 3,-8 10,-16 18,-22 12,-7 23,-3 29,11 2,4 2,8 3,10zm253 103c-1,-4 -1,-7 -1,-9 1,-29 1,-58 1,-86 0,-15 0,-30 -3,-45 -10,-42 -55,-56 -90,-31 -21,16 -33,37 -36,63 -1,12 -2,23 -3,34 -1,27 -3,54 -4,81 -5,2 -11,2 -15,4 -23,8 -29,15 -27,38 1,14 7,21 18,23 10,2 18,-2 24,-14 2,-6 5,-9 10,-9 4,-1 8,-1 12,-1 30,-1 59,-2 89,-2 4,0 8,3 10,5 7,8 16,10 24,6 9,-4 14,-11 15,-21 2,-18 -3,-28 -24,-36zm-44 2c-16,1 -32,1 -48,2 -1,-8 -1,-13 -1,-18 2,-31 4,-60 6,-91 2,-14 10,-26 23,-33 9,-6 16,-3 20,8 2,7 2,16 2,23 0,34 -1,69 -1,102 0,2 -1,5 -1,7zm145 -52c-1,0 -2,-1 -4,-1 2,-23 3,-46 3,-71 1,-15 2,-31 1,-47 0,-12 -10,-19 -21,-20 -12,-1 -23,5 -26,18 -1,4 -1,9 -2,15 -1,44 -3,87 -4,131 -1,14 0,29 2,44 4,22 25,31 45,20 8,-5 14,-11 19,-18 13,-20 25,-40 36,-60 4,-7 8,-13 11,-19 4,14 4,28 4,41 0,14 0,28 0,42 0,15 7,24 20,25 13,2 25,-6 28,-20 1,-5 1,-10 1,-15 1,-42 1,-84 3,-126 0,-10 0,-19 0,-29 0,-12 -7,-23 -19,-27 -12,-5 -23,0 -31,10 -9,11 -20,24 -28,38 -14,23 -26,46 -38,69zm243 -47c-10,1 -18,2 -26,2 -9,0 -18,-1 -27,-1 0,-10 0,-17 0,-26 0,-13 0,-27 -1,-41 -1,-11 -10,-20 -20,-21 -11,-1 -21,7 -24,17 -1,5 -1,10 -1,15 0,41 0,81 0,122 0,18 -1,36 0,54 0,11 6,20 15,22 11,3 23,-1 27,-13 3,-4 3,-10 3,-17 1,-21 2,-42 2,-64 18,-1 35,-2 54,-3 0,12 0,21 1,31 0,13 0,27 1,40 1,13 14,24 25,22 13,-1 21,-11 21,-24 -1,-42 -2,-84 -2,-125 -1,-18 -1,-37 -2,-55 -1,-11 -11,-18 -21,-19 -11,0 -20,8 -23,19 0,5 0,10 0,14 0,17 -1,33 -2,51zm212 56c1,9 1,14 1,18 1,17 2,33 4,50 1,14 11,21 22,21 14,1 24,-7 26,-21 0,-8 -1,-17 -1,-24 0,-24 -1,-49 -1,-73 0,-15 1,-31 0,-45 0,-9 -5,-18 -9,-25 -6,-8 -15,-13 -22,-21 -15,-12 -30,-19 -50,-17 -25,1 -46,9 -64,26 -42,37 -51,85 -42,138 6,38 43,54 75,34 12,-8 21,-16 29,-25 11,-10 19,-22 32,-36zm-87 16c-5,-33 -4,-65 24,-89 7,-7 18,-12 27,-15 11,-4 20,0 28,11 -22,33 -44,70 -79,93z"/>
 </g>
</svg>
