<?xml version="1.0" encoding="UTF-8"?>
<!DOCTYPE svg PUBLIC "-//W3C//DTD SVG 1.1//EN" "http://www.w3.org/Graphics/SVG/1.1/DTD/svg11.dtd">
<!-- Creator: CorelDRAW X8 -->
<svg xmlns="http://www.w3.org/2000/svg" xml:space="preserve" width="801px" height="550px" version="1.1" style="shape-rendering:geometricPrecision; text-rendering:geometricPrecision; image-rendering:optimizeQuality; fill-rule:evenodd; clip-rule:evenodd"
viewBox="0 0 41622908 28602697"
 xmlns:xlink="http://www.w3.org/1999/xlink">
 <defs>
  <style type="text/css">
   <![CDATA[
    .fil0 {fill:#FEFEFE}
    .fil5 {fill:#E94F42}
    .fil2 {fill:#262E39}
    .fil1 {fill:black}
    .fil6 {fill:#FEFEFE;fill-rule:nonzero}
    .fil3 {fill:#E94F42;fill-rule:nonzero}
    .fil4 {fill:black;fill-rule:nonzero}
   ]]>
  </style>
 </defs>
 <g id="Слой_x0020_1">
  <metadata id="CorelCorpID_0Corel-Layer"/>
  <g id="_1074179888">
   <g>
    <path class="fil0" d="M2920754 12156942c1304533,-1016450 21391,-1130719 948522,-2268110 927132,-1137390 1791634,-506921 2756696,-882192 965062,-375270 2780778,714041 2512571,-806218 -268179,-1520287 -2198640,-868259 -2037973,-2932276 160666,-2064018 -482728,-3405417 1670832,-2593591 2153560,811825 1870804,2121236 3697368,1501419 1826593,-619844 1923060,-3562718 4258733,-2474836 2335701,1087882 2019611,1914341 2794711,1116870 775072,-797472 775604,-1510195 1886615,-1557517 1110982,-47351 2428243,1362816 3785593,2025161 1357350,662345 753289,-1857430 2659135,-1896146 1905819,-38744 3968407,1574029 4407597,1963037 439189,389008 1612633,-831618 2297517,67816 684857,899433 676194,1665394 -116483,2438026 -792706,772633 -1761076,2188015 -1137055,2982571 624050,794584 1636995,1322391 3146994,637506 1509998,-684884 2070802,-756849 2429981,489708 359151,1246530 -574849,1900128 -574849,1900128 0,0 2119946,-187355 2493563,1229989 373617,1417316 -1426736,4277179 -3190139,3873089 -1763430,-404119 2186081,561953 1641958,1467189 -544124,905237 -4140231,252816 -5259960,1320513 -1119729,1067725 2683806,3485090 1913949,4457245 -769886,972155 -4390944,1280031 -5522728,831338 -1131784,-448694 -1700773,976921 -3386436,1306888 -1685663,329995 -2208228,-907984 -3397427,-453992 -1189226,453992 -607229,823151 -1097862,1328614 -490661,505464 -4114747,40258 -4459908,-1571618 -345190,-1611848 193158,1456957 -1869402,1571618 -2062588,114690 -4081414,-227921 -5452445,-1285778 -1371031,-1057856 -1886166,456403 -2899476,-393549 -1013310,-849980 -1542518,-1563208 -763073,-2270100 779473,-706892 2297882,-1543696 2001500,-2159643 -296381,-615948 -1091330,-1522782 -3014782,-1632790 -1923452,-109980 -2670069,-160722 -2505899,-771568 164143,-610845 848018,-984182 331369,-1657684 -159965,-208521 -4646815,-2020172 -949307,-4901117z"/>
    <polygon class="fil0" points="31568111,6000325 31540329,5603888 31955240,5380368 32205925,5663994 32049521,6070411 "/>
    <polygon class="fil0" points="27202090,4040736 27174308,3644299 27589219,3420779 27839905,3704405 27683500,4110822 "/>
    <polygon class="fil0" points="16040852,3095466 16013042,2699029 16427982,2475509 16678639,2759135 16522234,3165552 "/>
    <polygon class="fil0" points="11443182,3369280 11199589,3055292 11420109,2638755 11786185,2735053 11882231,3159777 "/>
    <polygon class="fil0" points="9579191,5801840 9335598,5487852 9556090,5071287 9922194,5167585 10018240,5592337 "/>
    <polygon class="fil0" points="38108073,18607474 38500865,18547059 38757886,18942094 38495903,19215347 38077992,19093033 "/>
    <polygon class="fil0" points="38031791,10796928 38064900,10400912 38509108,10243414 38713480,10562027 38496828,10939737 "/>
    <polygon class="fil0" points="2878759,18955327 3120473,18639854 3579399,18747142 3579399,19125665 3193082,19326617 "/>
    <polygon class="fil0" points="9313367,23830624 9555081,23515179 10014007,23622439 10014007,24000962 9627690,24201914 "/>
    <polygon class="fil0" points="24864427,26690599 25106113,26375154 25565039,26482414 25565039,26860965 25178722,27061889 "/>
    <path class="fil1" d="M38146340 10450365l-6812 303194c203475,18895 171403,36109 321893,78188l188869 -243928c-109700,-104682 -131931,-160835 -205522,-238322l-298428 100868zm415949 7383971c-12503,-184608 -401595,-347657 -579699,-404623 -312277,-99803 -596379,-79702 -868287,48135 161339,386205 1063408,437901 1447986,356488zm-76422 -6043918c-216820,-75694 -603865,-48276 -839916,11494 -227080,57555 -483008,112867 -538881,323659 354077,189346 1184209,-44939 1378797,-335153zm-1137447 9335710l-152172 953c139080,-37426 160919,-29548 252564,-117885 666410,-236107 1149782,-466944 1462788,-1083705 418024,-823740 -93720,-1911369 -231874,-1959561 -401427,-2999 -668821,74208 -1089368,-41519 -1141680,-314267 -492679,-891079 430219,-620321 455982,133781 441713,265095 746028,492904 311380,91729 2724484,-737085 2715009,-3025463 -8999,-2182997 -2414759,-3066142 -2788431,-2955658 -252368,164928 -366468,328481 -712331,425509 -320351,89879 -725058,143705 -1011712,-42080 -63442,-682081 1278573,-517939 1685579,-552842 510538,-598482 609528,-1577702 85281,-2208816 -710704,-855699 -1978007,-886537 -2146383,-689819 -70002,81272 -85197,281972 -93804,402437 539806,14746 741823,-53518 1219561,251049 303250,193355 513397,469944 608658,788332 231734,1711 165152,-85533 292373,131707 90608,154723 151162,101541 223660,263581 -59378,151303 -66891,77488 -160891,192289 -79926,97617 -47322,123633 -131370,233108 -196859,-18671 -134958,-53098 -288896,-95654 -131034,-36193 -134146,9559 -274094,-48220 -48528,-209222 69329,-134622 -16485,-389596 -65937,-195934 74685,-125399 212643,-219904 -21643,-274514 -301288,-600024 -548581,-749784 -313791,-189991 -710200,-267702 -1079808,-199747 -380036,69806 -146592,266413 -691024,602800 -1949216,1204449 -3777939,-1180060 -2231945,-2510440 461477,-397166 1089844,-688810 1512802,-1095592 1428390,-1373806 344966,-3393585 -1616417,-3579370 -953597,-90328 -948691,216651 -1174313,52761 42893,-65938 -32632,-20550 99523,-75722 182197,-76114 827833,-116539 999152,-106447 982528,57863 1905118,597389 2299172,1440080 274486,586904 233276,1356958 -121502,1906183 -696239,1078042 -2363259,1329176 -2429897,2531859 -85113,1535566 1910164,2179941 2854649,1073276 341097,-399633 475607,-908965 287691,-1399739 -72301,-188841 -213175,-245246 -40538,-341769 236415,211100 167198,550543 302409,756429 625731,-20746 852784,-67199 1432931,179028 372552,158172 659485,384411 884491,699631 752364,1054157 -88141,2174390 -90776,2254737 2862779,524135 3535917,3646486 1956813,5191247 -968790,947765 -1397523,816199 -1896286,1044036 -13513,78524 101765,273197 180963,476531 723684,1859366 -1248212,2786161 -1726061,2719186z"/>
    <path class="fil1" d="M4512193 17419957c-238126,-99579 -563439,-54527 -805882,24110 -279785,90748 -358646,185673 -570980,287578 235995,165629 1369657,37174 1376862,-311688zm-12980 -5331448c-31174,-375747 -1157267,-464252 -1440108,-354048 302437,379700 966296,607705 1440108,354048zm-1334278 6626085c-81860,144911 -12307,135154 -191223,248470 63834,79927 154358,177431 210035,235098l310679 -59770 15026 -330247c-264225,-31903 -163469,-39613 -344517,-93551zm-1328082 -6770070l162040 -83655c166105,-58677 663579,-192486 757439,-237509 -33193,-153433 -172609,-364506 -229940,-561028 -369944,-1268284 251891,-1633519 329602,-1923200l103280 -105915c121614,-45977 426770,-296269 633161,-393633 241658,-113933 549870,-251470 834113,-244266l307399 21475c-36614,93215 -166582,-58144 -293074,81272 -562542,181748 -1317176,338882 -1683841,1051044 -179393,348554 -259235,692903 -189233,1085976 46565,261478 188364,765736 374234,954970 373476,14858 664027,-66695 1074565,28791 267001,62097 679138,218922 610201,540395 -210148,215558 -747711,173478 -1021160,93579 -385840,-112699 -464365,-271431 -737449,-492511 -642945,12167 -1493627,572326 -1914706,995311 -1117038,1122168 -1040672,2871974 4710,3994591 410650,440928 1337586,988247 1985549,990938 282841,-194868 346227,-309810 723768,-424023 1114935,-337312 1373330,351077 394615,554104 -459515,95373 -652365,29015 -1070276,32323 -1115019,1214514 -100392,3316211 2053925,2947556l115194 -451833c-490633,-53322 -748775,89654 -1238427,-233444 -364898,-240817 -471458,-452534 -631871,-826151l-195654 56349c-110792,-128370 -41407,-133108 -142892,-248554 -78188,-88954 -128258,-71068 -174039,-185393 55481,-109839 105186,-91841 179618,-186065 89094,-112727 44519,-128651 158592,-239360 134902,34819 138462,66190 245134,105803 165544,61480 136865,-20241 290494,78048l-3757 507594 -204848 84973c84440,600416 898732,1036410 1527884,963352 498932,-57947 152116,-118979 706331,-556682 262348,-207204 550011,-335715 897331,-378243 1590065,-194644 2597824,1537416 1644284,2600712 -801508,893742 -2296761,1164948 -2376771,2607131 -56546,1019001 605659,1781457 1600690,2139319 635908,228706 899630,84103 1128840,206615 -370056,249872 -1439211,-130558 -1911341,-454441 -479335,-328818 -864306,-868091 -937617,-1419222 -207259,-1558695 855195,-1966430 1944423,-2777666 2144028,-1596766 -659598,-3915646 -2136011,-2190622 -647318,756345 -92065,1519082 -131790,1703100 -248078,-58536 -309558,-556374 -332154,-757494 -656261,-24810 -894696,126044 -1629061,-256208 -111129,-57807 -332911,-214380 -408464,-239920l-105102 -152536c-585334,-443114 -591501,-1249389 -410846,-1876438 76198,-264534 192597,-378747 292484,-605351l-700303 -198120 -195373 -81384c-268572,-156854 -466159,-235407 -725591,-446760 -189037,-153993 -427023,-396829 -566102,-583091 -433219,-580259 -531087,-996601 -615135,-1696512l-3925 -153573c31455,-708154 192037,-1115300 565177,-1703690 226604,-357356 873670,-909806 1271676,-1060828z"/>
    <path class="fil1" d="M24473905 3173963c-280570,380373 -640450,1796287 -351189,2182127 134650,1065 136921,-50518 196018,-179533 196662,-429350 302184,-993518 289120,-1459172l-133949 -543422zm-8331792 -469776l-15251 284551c108886,47687 186767,56910 328257,120829 97364,-128202 46818,-113091 201288,-257581 -101345,-83319 -171263,-134482 -181383,-250517l-332911 102718zm-4698118 48752c-67199,94982 -134875,186290 -188112,251190l191644 251330c129071,-66049 137005,-79198 303530,-87552l4374 -337648c-144126,-4262 -199859,-39277 -311436,-77320zm2073913 569102l164087 -163974c318949,-492119 487465,-831562 900751,-1284124 837925,-917571 2070017,-1184180 3180466,-419285 518276,357020 712303,667812 890182,1258248 175020,-264787 218165,-438573 474626,-704817 203110,-210904 376728,-371122 625563,-534003 530106,-346956 1218215,-533274 1905875,-512472 1010871,30614 1848179,444741 2457427,1150259 94420,109391 400642,585642 412220,674652 216175,-213007 386289,-493465 643478,-711798 1770159,-1502457 4326464,-1496430 6029144,22007 137734,122848 214100,182954 337704,331985 52061,62742 109784,126661 161844,188533 175581,208493 44211,211661 36809,223604 -159965,-72301 -295568,-335266 -437367,-467421 -155031,-144462 -297643,-276477 -466888,-409837 -1523903,-1201058 -3725823,-1164360 -5366463,47182 -177262,130893 -784912,726208 -836692,913002 -60470,218109 239836,576615 56154,1527268 -346900,1795054 -1167192,1187741 -619677,-703500 59237,-204512 323407,-671877 341742,-768792 31651,-167058 -240957,-567981 -355591,-711293 -1155136,-1443921 -3307183,-1607419 -4703725,-291504 -498707,469888 -569859,815189 -768400,1407981 -364141,1087405 -1724939,1088582 -2174137,615807 -281243,-295989 -230192,-464309 -245555,-817264l-195065 -82926c-12279,-143341 43622,-128679 22428,-278860 -18923,-134061 -88533,-101205 8635,-224641 103728,-71769 130416,-11999 282953,-74488 110456,-45248 81440,-68348 213231,-93355 39472,28651 330752,380597 345301,419089 -63918,164563 -65180,70619 -166693,194700 -73451,89851 -44463,118446 -109363,209446 -209923,32492 -85477,-29604 -266132,-20942 -49790,941822 1022140,1201506 1714454,702182 649730,-468569 614743,-1366349 146341,-1937189 -449198,-547403 -1297833,-966716 -2058775,-843084 -730273,118643 -1286171,626797 -1697522,1156763 -415444,535180 -658140,1197525 -1268424,1586897 -655112,417940 -1592252,480597 -2187258,-61592 -559486,-509837 -621695,-1504615 160330,-1857487 698285,-315108 1430576,183094 1208766,799434 -61227,170086 -217464,241042 -385924,319342 -9083,240929 -13933,181804 -232827,217268 -186710,30306 -139360,86823 -331228,104625 -79955,-85029 -61845,-127725 -131679,-213904 -65376,-80739 -42304,-38071 -95065,-81244 -232210,-190242 -14129,-170254 96467,-325593 188505,-264759 -2467,-265067 386681,-122876 122819,44855 147041,13737 288139,59461l38940 141687c2552,7205 22736,23185 13457,28483 -9476,5467 8523,19849 15027,28568 551075,-297307 91869,-1130411 -707761,-878464 -1111123,350068 -640787,2173240 912245,2038142 598398,-52060 1268256,-486036 1336744,-769886z"/>
    <path class="fil1" d="M24972192 26691048c108381,101541 117661,138687 203278,236976 174347,-79086 110176,-65237 319118,-98486 -47070,-190130 -41575,-121445 813,-306333 -122343,-12868 -225510,-48108 -327640,-90945 -47659,72077 -182505,230893 -195569,258788zm-7494091 -2503600c-427752,262880 -552590,1782354 -342947,2214283 65320,-141631 164198,-269216 229575,-449927 145443,-401567 444348,-1496262 113372,-1764356zm-7251256 3064572l-210511 -223408 -284663 -377458c-146621,32240 -242836,164535 -418304,85422 71993,-117381 305997,-218249 423602,-262740 321501,380737 572130,729964 973445,1053847 1718772,1387207 4272217,1266042 5913249,-413874 571933,-585474 368655,-527919 302661,-955250 -22764,-147266 -39248,-285813 -40426,-435153 -2831,-365487 149649,-1306411 405184,-1582776 276926,-299353 426378,91897 453684,313258 33445,270955 -7878,625620 -53855,896827 -152676,900246 -594361,1088106 -409641,1462143 205886,416930 524611,783706 915245,1069463 1375040,1005909 3387474,670839 4372973,-622816 483765,-635039 389232,-1004928 609556,-1354042 289177,-458282 793995,-702575 1377058,-640787 257078,27222 525901,140033 694753,320912 239500,256685 206391,439751 216119,752925l182253 100868c20129,160610 -41968,126688 -24474,284243 15699,141070 84468,79842 -9224,234145 -118866,40930 -139640,6279 -271739,51191 -145724,49481 -61536,54976 -248499,87720 -98990,-106588 -64002,-131707 -147770,-226800 -71768,-81496 -103980,-59461 -171599,-172104 40510,-149312 144013,-142864 238462,-318473 119539,-222398 98485,-96831 310763,-62237 171431,-1333128 -2277165,-1272237 -2198500,411912 51192,1096180 1563545,1962196 2706066,1603242 1260967,-396157 1688803,-1710362 2211255,-2265502 1036130,-1100974 2461744,-909050 2974777,106615 -228313,-2551 -150602,-19989 -270618,-184467 -186205,-255087 -479223,-411744 -797331,-481438 -1651180,-361842 -2189388,1419755 -2859807,2132926 -601706,640058 -1470358,1111768 -2425888,835375 -892649,-258199 -1465732,-796463 -1669964,-1630183 -333219,524667 -527498,864811 -1107057,1228503 -1141148,716088 -2653613,705406 -3713769,-36557 -877426,-614097 -839271,-1004366 -1073219,-1230465 -104793,26717 -204372,225033 -284271,316762 -1211963,1391188 -3324564,1867299 -5114684,1137391 -421276,-171796 -1272181,-659429 -1475292,-1009160z"/>
    <path class="fil1" d="M10245965 3812282c64788,81048 97700,129884 212446,178019 106728,163610 571429,457581 777146,552478 860494,396941 1960038,70451 2473267,-554889 90439,-110175 179617,-338685 320071,-350039 145723,254666 -643870,949755 -1437221,1146586 -1706100,423210 -2508842,-1226821 -3634290,-1713866 -656178,-284018 -1608512,-51135 -2119442,395596 -521696,456123 -694473,1333857 -371767,1917649 489792,886201 2501722,1508877 2575144,2789272 32857,572775 -238882,1591748 -946868,1757937 -2887,-209251 53322,-126577 240285,-271515 87440,-67844 176618,-168628 238069,-255255 466636,-657944 471430,-1443444 -103643,-2101248 -613649,-701986 -1723286,-1121579 -2121741,-1844787 -239920,-435517 -234678,-1106188 -13821,-1547312 473195,-945242 1814762,-1344399 2731128,-936552 529125,235491 912189,670644 1181237,837926z"/>
    <path class="fil1" d="M5182724 9009248c-18110,-187944 -131566,-150350 -13484,-306222 202241,62657 160357,868427 1260967,1134643 1468142,355086 2575424,-1246697 1712492,-2301106 -419285,-512304 -904648,-659541 -1377199,-1050708 -513509,-425060 -843532,-695397 -1010338,-1346528 -406389,-1586533 1216925,-3039818 3152825,-2725270 187187,30362 849195,178188 805629,382000 -203895,48696 -864137,-518836 -2035422,-209138 -655785,173365 -1096853,454384 -1478740,964389 -390073,520854 -472130,1225363 -219679,1813921 511519,1192787 1990932,1411681 2448120,2338785 277009,561729 156208,1307000 -297615,1765057 -485671,490240 -1210898,681717 -1903744,448609 -750094,-252395 -741992,-649477 -1055839,-722143 -199550,-46201 -452646,-4009 -537843,-114156 144238,-111886 268207,82617 549870,-72133z"/>
    <path class="fil1" d="M38425733 18623173l-302241 91617 27950 306502 301849 87748c94813,-123128 90355,-133500 212782,-238714 -47462,-36529 -78665,-62069 -117044,-109868 -83403,-103756 -7345,-62489 -123296,-137285zm-1709268 2467155l0 111269 -161704 17213c-981,205746 -59573,709612 -307763,750065 -45360,-137930 -23493,-100700 51415,-245442 236752,-457665 154190,-1109469 -248695,-1519979 -478942,-488082 -1136522,-661083 -1837582,-421472 -1006750,344041 -1449135,1733322 -442077,2538727 124277,99355 278831,138435 261310,281552 -253040,8466 -632741,-441741 -759261,-632601 -219679,-331340 -251442,-784043 -163946,-1157771 325257,-1388889 2241449,-1675347 3074132,-662009 159068,193551 167114,217296 459879,244377 714966,66106 1488019,-570952 1579888,-1193852 -135743,-68853 -319285,-6476 -242975,-226463 80992,-233248 -75722,-227108 29156,-380598 128258,-64984 143397,-5074 291083,-59349 144434,-53041 63442,-82057 248723,-78693 70366,86963 62208,132912 127641,216960 177543,228145 275103,114549 10289,378747 -72974,72834 -80207,127893 -130221,231846l-174571 -18840c-239023,416454 -197083,581998 -658645,914628 -510453,367870 -646281,321193 -1286843,331257 -1766,95962 77544,236640 100869,362095 32744,176337 -8102,168964 179898,218333z"/>
    <path class="fil1" d="M8093414 19412515c623321,88168 1260098,1396570 792538,2269342 -394279,735964 -1089284,1113842 -1770272,1595953 -1628248,1152698 -648131,3073206 1134419,3127986 135576,4149 267983,-9448 399213,-40118 153433,-35856 237621,-99354 371738,-79309 4738,110596 102831,93327 -254442,187635 -132743,35043 -227696,51920 -367561,56714 -300362,10233 -518079,-35408 -799462,-112026 -1477759,-402240 -1942964,-2058299 -807340,-3065581 781100,-692819 2544446,-1348183 2026732,-2903513 -318389,-956400 -718863,-724358 -725563,-1037083z"/>
    <path class="fil1" d="M32625351 3233452c195457,-333359 1121327,-182785 1451041,-82141 1595028,486764 1806520,2206966 749925,3060731 -923038,745804 -3013184,1702399 -1702624,3471437 266245,359460 389737,226828 418248,431957 -49929,21082 38380,40930 -102690,14045l-193243 -124361c-76338,-61284 -149284,-135127 -215838,-204821 -135127,-141658 -243873,-348582 -311576,-527582 -555337,-1467582 633329,-2180782 1770131,-2970068 788725,-547655 1137531,-1421745 603304,-2266623 -374318,-591922 -1344819,-1021384 -2099874,-844458 -179982,42164 -230584,104289 -366804,41884z"/>
    <path class="fil1" d="M31954063 5474452c-105550,55733 -215138,112643 -310203,80179l-3504 330163c139360,20886 208381,12391 324248,96383 68628,-112671 64395,-162713 202802,-252059 -75806,-94420 -133136,-145864 -213343,-254666zm1901585 815694c2748,-181972 129884,-179674 275524,-280150 768316,-530049 739580,-1678289 -159040,-2157877 -516902,-275888 -1124803,-231173 -1590962,89430 -530527,364954 -573195,789005 -528873,1364780l230445 35211c93467,287411 207259,208157 270001,357974 -32408,156601 -66498,88701 -166161,209137 -77937,94225 -54135,130305 -122848,225959 -19540,-561 -541263,-137397 -548048,-141154 -89907,-92598 5187,-173170 -42668,-389821 -47211,-213791 109222,-147854 272047,-204708 -123100,-165488 -64311,-654103 5579,-855391 83038,-239163 243620,-469019 449618,-635712 467561,-378411 1188358,-477794 1760207,-212054 1380507,641543 891640,2371025 -104821,2594376z"/>
    <path class="fil1" d="M32759777 27143526c-199775,-28287 -767307,-188084 -873278,-333079 117886,-126772 194813,-16092 386962,63302 1736517,717349 3927223,-683483 3469279,-2399255 -76983,-288448 -172105,-533386 -381859,-764783 -99747,-110008 -524135,-482896 -547516,-558673 131286,-81805 99831,-79955 373477,183065 113484,109083 197560,168825 298736,299522 609752,787855 591922,1804081 -28483,2580526 -615303,770026 -1666179,1075295 -2697318,929375z"/>
    <path class="fil1" d="M32436398 26520429c-161704,-88449 -228819,-84973 -279225,-248022 332378,-15503 667980,521724 1602933,297980 515248,-123240 957129,-332042 1243951,-702070 303025,-390942 417827,-991976 255254,-1495000 -145892,-451385 -485755,-661952 -795256,-909722 -115839,-92710 -49369,-673 -115559,-136304 243088,5467 236023,27810 399325,174627 296213,266413 527554,447544 647094,849784 163273,549254 49425,1186059 -285084,1611232 -522789,664391 -1775290,1048633 -2673433,557495z"/>
    <path class="fil1" d="M35020597 22354743c-14158,-162572 65068,-113820 241742,-171992 327864,-107933 581381,-360216 703360,-667195 182757,-460075 21726,-909862 -349536,-1217681 -657579,-545217 -1863037,-237033 -2000575,685473 -60555,405800 65012,245050 -86543,340816 -128482,-94897 -84047,-255058 -52396,-409220 197615,-963240 1417176,-1298113 2184987,-759793 1135877,796378 169973,2313917 -641039,2199592z"/>
    <path class="fil1" d="M6057347 21965792l-133837 -76423c-306895,-341965 -547067,-610733 -450011,-1181629 149592,-880202 1342968,-1374507 2200069,-752756 166414,120745 310820,301343 400250,477765 71320,140677 104569,345694 102634,503164 -2130,174432 28568,118755 -72273,174123 -99242,-46005 -61171,51892 -78609,-138883 -30193,-330107 -20325,-672381 -544067,-975183 -447207,-258535 -968987,-262291 -1392645,34258 -645468,451722 -650402,1278293 -90608,1723482l437143 230669c170310,52228 105410,-13233 180431,87748 -28203,48584 51107,131650 -291616,17634 -119427,-39753 -162825,-66050 -266861,-123969z"/>
    <path class="fil1" d="M33465547 8810735c-48500,-300419 -29548,-322874 63498,-365319 92374,71516 61873,-47518 68741,161059 6420,194672 17606,338658 125315,529909 685137,1216757 2709990,460412 2252073,-852895 -157414,-451441 -458786,-594838 -849139,-725367 -190215,-63639 -87832,11550 -113933,-87636 151976,-156461 554637,112306 695286,218726 650038,491726 648720,1401084 -51247,1928218 -713873,537563 -2023115,230051 -2190594,-806695z"/>
    <path class="fil1" d="M7798546 23315685c-38099,189513 -635908,220351 -823515,1015552 -276561,1172126 1390543,2200238 2512851,1079668 85926,-85786 132968,-155452 185981,-262656 26942,-54527 48809,-118306 70816,-169357 71880,-167058 62825,-111017 101176,-115278 86319,63218 107878,24278 -43790,334088 -461084,941765 -1783896,1023374 -2448343,474906 -642216,-530050 -745860,-1403355 -168068,-2028246l417211 -321809c151134,-77656 78889,-76562 195681,-6868z"/>
    <path class="fil1" d="M5770525 7632021l160134 -160610c94981,-73731 197924,-144855 316314,-194252 47771,-19960 151134,-55396 196999,-65516 226519,-49930 119511,-49846 175552,64984 -91533,109531 -715694,116427 -969912,796266 -361786,967557 868035,1844367 1790596,1305402 714406,-417351 505520,-940280 622648,-1150371 158424,40510 121979,90580 108971,276028 -57303,814909 -920628,1321298 -1725865,1115412 -915469,-234089 -1348715,-1381432 -675437,-1987343z"/>
    <path class="fil1" d="M31820394 25262686c146032,73759 53182,-61172 166497,132127 85646,146004 146593,247854 294840,364842 589904,465486 1435174,452955 1943525,-2607 547011,-490241 617321,-1295282 109251,-1808847 -66582,-67311 -157891,-161872 -240481,-213119 -47575,-29549 -104597,-47042 -144182,-69946 -168768,-97589 -67199,-4402 -104372,-123128 22876,-14214 -9560,-115699 192709,588 856036,492147 1096657,1599850 324809,2273184 -385195,335995 -956007,517070 -1516306,372580 -444993,-114802 -1038233,-535545 -1026290,-925674z"/>
    <path class="fil1" d="M1856001 12412561c38968,173450 -86010,107316 -400418,434368 -854886,889285 -1080396,2229702 -466103,3236732 107653,176450 222202,352030 359011,510930 108746,126352 431929,313623 392765,468626 -232323,27418 -758083,-707424 -872324,-904395 -513033,-884659 -477401,-1987119 59882,-2858658 129267,-209671 665596,-919254 927187,-887603z"/>
    <path class="fil1" d="M9360521 3723132c-282617,15755 -540563,-380962 -1260687,-242639 -1164220,223744 -1502962,1505204 -741963,2194266 104457,94589 401707,240116 439330,321304 -79450,109391 -144995,48640 -257330,-20269 -290830,-178440 -456066,-342302 -605687,-651579 -580259,-1199348 855700,-2491657 2217395,-1827098 21306,10401 124137,59686 142051,74909 147378,125314 74040,35716 66891,151106z"/>
    <path class="fil1" d="M34322396 23314423c-226660,-45865 -755925,-484802 -960212,-654019 -223829,-185392 -566607,-615246 -681970,-882780 -167843,-389036 -114969,-891444 43146,-1279947 98177,-241153 425032,-788501 721049,-850149 359179,-74880 -173786,281748 -207091,317156 -419286,445833 -665009,1124438 -445077,1713193 104933,280990 439918,688389 674483,885500 551609,463551 510510,335882 855672,751046z"/>
    <path class="fil1" d="M27553335 3538216c-164703,71824 -76674,76534 -306446,97028l11775 317996c154554,47098 148555,-953 310679,94140 93411,-156741 59714,-131006 204708,-259965 -128678,-122959 -133024,-149676 -220716,-249199zm947317 1123794c174375,97364 299773,134258 495595,191056 379616,110063 436162,18586 562850,139079l-62994 37566c-150742,54976 -438881,-14465 -729908,-108858 -658476,-213567 -928029,-653794 -1020823,-702350l-637731 -155452c-73927,-173085 20606,-98401 10962,-274290 -6840,-125006 -65096,-86711 -43285,-242303 152620,-70899 169805,-19091 317043,-79029 90271,-36726 166020,-123773 242218,-87216 79142,37931 69975,128847 161367,221361 68012,68825 131118,94645 187608,197223l-185225 188533c61228,274402 461085,539946 702323,674680z"/>
    <path class="fil1" d="M31353506 25574795c-110765,49845 -128763,1654 -136556,-1935 -4206,-1906 -98262,-78076 -105579,-84187l-627189 -429939c-736468,-353908 -1562339,-257974 -2202565,187916 -624862,435097 -432349,691865 -716423,661448 -9840,-250657 451721,-646141 661083,-781436 698145,-451104 1577394,-567279 2339065,-176141 184636,94813 800668,476924 788164,624274z"/>
    <path class="fil1" d="M23538111 2711757c-145500,-7822 -114858,-7962 -214773,-143986 -144630,-196915 -343452,-358787 -561336,-491362 -847990,-516032 -1887288,-421360 -2674975,137734 -149341,105971 -232800,271823 -376281,238154 -28567,-134791 202102,-270114 317240,-358282 1522025,-1165229 3464989,35940 3510125,617742z"/>
    <path class="fil1" d="M18345883 27243525c-212754,-200447 -296353,-302858 -199999,-407791 549955,535741 885865,916534 1791158,984042 1337473,99719 1761356,-777483 1977923,-721302 42276,363384 -1981372,1640724 -3569082,145051z"/>
    <path class="fil1" d="M29816342 26602935c-376869,-6840 -486035,394783 -316987,664055 256881,409165 562374,169217 827581,329490 -53098,64900 84468,33137 -130809,77180 -812050,166160 -1380171,-1036803 -441096,-1203273 104372,-243508 -4878,-148555 279224,-191223 181860,-27278 142219,-115363 338630,-97168l234957 387830c-234901,28539 -240761,-58957 -308688,-223520 -122539,32549 -209026,63751 -367870,98009 62041,78918 30614,187243 20942,303138 178916,23297 284523,10794 283401,194812l-427555 -82730c-50014,-164983 -16008,-111381 8270,-256600z"/>
    <path class="fil1" d="M35482158 21617462c-449955,620377 -1539462,256040 -1493121,-296634 204932,-11746 98709,75189 244601,239836 605323,682726 1632594,-109980 1121383,-754102 -293438,-369804 -548048,-179786 -738234,-301232 141546,-393297 1468675,280346 865371,1112132z"/>
    <path class="fil1" d="M34616787 9273445c214633,-127389 432237,52593 747318,-323743 185000,-220968 150125,-537731 -28427,-753541 -165629,-200195 -502352,-294307 -766466,-208297 -122847,39977 -243003,110344 -320071,204064 -136528,166048 -56209,240424 -243396,257441l-9616 -115643c449,-1401 42641,-83374 45276,-87888 561196,-957128 2100267,-104625 1433016,801733 -136669,185589 -384719,302605 -627498,314716 -195850,9756 -170507,18391 -230136,-88842z"/>
    <path class="fil1" d="M30896318 3078449c-81721,-118642 -184019,-208325 -277738,-314969 -171095,-194616 -422874,-373392 -650795,-509108 -251722,-149957 -534984,-273701 -827132,-352927 -509472,-138126 -913395,-73619 -943672,-216343 309333,-212418 1579440,285000 1898025,485391 250405,157526 1223205,929514 1081434,1207085 -128427,-14130 -205662,-191028 -280122,-299129z"/>
    <path class="fil1" d="M7021316 20268859c-198962,136837 -437900,-28904 -731254,312305 -190383,221445 -180627,551020 4962,765568 321949,372187 872240,294279 1100974,10569 134173,-166413 50098,-266609 254302,-239583 112,267281 -313119,521779 -575747,582530 -784799,181524 -1352275,-588221 -917151,-1171621 240649,-322622 742860,-429546 863914,-259768z"/>
    <path class="fil1" d="M10503547 26274510c67199,-12812 -15139,-62265 90047,17914l167506 248779c87917,114549 158227,189822 261787,297699 216960,226015 371598,334873 649337,510285 404090,255087 1022421,463244 1524548,488839 161199,8214 193831,-30698 268992,61985 -66582,100420 -53770,78777 -231397,68264 -87889,-5215 -206755,-19989 -295485,-31539 -719675,-93579 -1580701,-512416 -2023087,-1000358l-387438 -481914c-72021,-106532 -93775,-82366 -24810,-179954z"/>
    <path class="fil1" d="M7653636 8240792c-296102,-33193 -77432,-271879 -550459,-454637 -604566,-233612 -1182050,398343 -860858,915778 162180,261254 417855,313174 739440,299549l45444 123268c-763157,134678 -1297272,-608490 -875688,-1163351 446142,-587268 1423708,-385335 1502121,279393z"/>
    <path class="fil1" d="M9919811 5597159l-11663 -311408c-193354,-20914 -135126,-18250 -302577,-88309 -90383,108690 -86935,139080 -209418,259769 124557,106868 130585,110736 193747,248414l329911 -108466zm-419117 -554860c238882,-29605 101205,40117 266272,62377 29212,-114157 53602,-258142 44211,-365655 -21671,-247265 -94449,-259853 8971,-398175 57807,25231 116483,-53378 136388,348105 7709,155003 -28119,287355 -42669,437564 119035,55817 212418,29941 166329,196831 -74824,270758 40763,184159 -11382,393269 -138238,50322 -173730,18026 -295400,64283 -147069,55929 -96439,99130 -266328,75189 -93776,-104345 -21447,-92402 -114353,-197728 -99187,-112503 -165208,-67507 -170927,-196214 -5607,-127053 70451,-108830 160666,-207064 86234,-93972 49761,-113540 118222,-212782z"/>
    <path class="fil1" d="M9604954 23609711c-33137,40622 -185224,221361 -205830,266020 157162,117605 110204,128315 203756,222539l306137 -81048 -6924 -303839 -297139 -103672zm462655 -16008c65545,206643 -73030,158424 -9896,341209 76927,222847 25736,164703 -153069,247041 38295,347096 163442,554244 -75441,616144l-46566 -570195c-223631,-20578 -47995,64451 -270281,34258 -80431,-85926 -54892,-116764 -132659,-210091 -86571,-103868 -127474,-73198 -174684,-204456 79843,-124754 86459,-73591 175132,-174768 89514,-102214 49481,-181356 146341,-226687 69133,-32352 156404,47098 221220,73086 171908,68909 187832,-505 319903,74459z"/>
    <path class="fil1" d="M40097659 13504620c165824,63358 79338,-40538 178496,127838 353095,599491 409978,1388328 165264,2034020 -106896,281944 -186318,533358 -386485,499212 18643,-191728 397082,-561897 402128,-1327185 5411,-810788 -398904,-1098591 -359403,-1333885z"/>
    <path class="fil1" d="M24779286 27827569c-172637,-51331 -595202,-187859 -562963,-366692 204793,-48528 718499,508155 1479721,242920 311913,-108606 562402,-359123 791276,-579531 271908,-261871 102943,-210484 245864,-168684 47098,96803 63498,54135 -176142,298035 -498903,507735 -1013814,801173 -1777756,573952z"/>
    <path class="fil1" d="M1559648 13361335c46789,208830 -797051,1163688 -118895,2408871 75105,137846 172160,178468 42893,279309 -246032,-45753 -622143,-1243642 -302521,-2113247 65292,-177627 170450,-537310 378523,-574933z"/>
    <path class="fil1" d="M20752371 27269317c-948297,413201 -1920144,-193130 -2001444,-588642 263917,9812 151583,140229 532713,378607 424471,265487 976949,287803 1434865,80487 427415,-193523 273085,-317295 555786,-313342 -17438,200755 -329238,358954 -521920,442890z"/>
    <path class="fil1" d="M17416228 2078427c-207315,92627 -673755,-518191 -1463741,-227192 -720348,265348 -813563,815666 -1086816,745215 2046,-56489 868735,-1421465 2280584,-746112 43230,20690 127193,61732 164872,84721 141322,86234 90271,43958 105101,143368z"/>
    <path class="fil1" d="M22836209 2892047c-94981,12672 -136248,-95598 -217436,-184019 -216847,-236051 -631871,-407567 -960913,-427948 -271403,-16765 -553571,36894 -782501,153938 -428817,219230 -317436,376000 -526546,275804 34090,-165180 369300,-346311 546871,-424471 981659,-432013 2106910,337844 1940525,606696z"/>
    <path class="fil1" d="M3082514 10154432l190775 26381 86319 -103784 95794 134117c-96047,116035 -156069,111325 -310820,120549 -21670,132771 -22315,75076 -106559,178159 -161395,197588 60134,-13652 -55032,194560 -131258,-20353 -84132,-112 -192654,-86570 7878,-174488 52677,-108102 155648,-226155 70788,-81076 73675,-148696 136529,-237257z"/>
    <path class="fil1" d="M30999654 26338933c149704,76647 114044,63975 114044,253377 56,262796 -6055,277094 -93102,518275 -54752,151611 -3337,127585 -181300,163862 -23241,-205886 107597,-245947 134622,-452562 49481,-378859 -99579,-296774 25736,-482952z"/>
    <path class="fil2" d="M4440873 8498065c126492,-139416 256460,11943 293074,-81272l-307399 -21475c35491,-72974 505435,-40846 606051,-27950 86094,-143902 -925,-72525 105999,-139668 99831,90131 86066,232182 76450,357861 -206391,1206 -67844,35996 -173142,-80347l-601033 -7149z"/>
    <path class="fil1" d="M31317986 4203589c-15615,170001 17045,84131 -144041,209838 -52481,40931 -100813,83235 -156826,124362 -127501,93747 -249732,196943 -401147,240340 46482,-225061 559627,-553543 702014,-574540z"/>
    <path class="fil1" d="M4166443 9230917c-68236,217324 -131931,68124 -453460,429153 -105970,118979 -32071,97813 -171347,75497 -35576,-181243 387578,-495875 624807,-504650z"/>
    <path class="fil1" d="M31769203 2926670c258030,18559 155676,-97308 409557,-48809 -75497,235519 -10962,26858 -184299,173142l142920 290046c-163498,-84 -332378,-263946 -368178,-414379z"/>
    <path class="fil2" d="M32014533 3571998c-33949,212866 -117717,178075 -273617,320519 -140509,128342 -110989,262656 -313539,204232 30642,-157274 408464,-479672 587156,-524751z"/>
    <path class="fil1" d="M5396460 7595548c47406,135547 -27278,142360 -81357,271375 -66974,159937 7822,205101 -141714,285560 -106784,-120128 -49313,-170675 14073,-330500 55985,-141210 63610,-205549 208998,-226435z"/>
    <path class="fil2" d="M37448812 21009196c-91645,88337 -113484,80459 -252564,117885l152172 -953c-120240,118110 -446198,66694 -631955,75469l0 -111269c134201,2159 295456,20774 422060,-8775 122287,-28511 155872,-52873 310287,-72357z"/>
    <path class="fil1" d="M9795561 4198374c-148667,-2747 -118670,8242 -207259,-128090 -50182,-77263 -85534,-104429 -129576,-173646 234734,-77375 323070,113400 336835,301736z"/>
    <path class="fil1" d="M3664231 10789780c-53966,71095 20886,82001 -172833,83935 -151190,1514 -123885,-3476 -197251,-80319 99242,-62994 13484,-40678 161115,-54723 217099,-20718 113456,-21559 208969,51107z"/>
    <path class="fil1" d="M30428141 4906135c-140509,55312 -165853,54051 -310203,26184 8018,-25315 -37903,-132463 311156,-151386l-953 125202z"/>
    <path class="fil1" d="M9106724 26776525c-13541,51976 50602,83880 -97364,133893 -70928,23942 -174600,19316 -246508,21727 35435,-151583 172300,-156657 343872,-155620z"/>
    <path class="fil1" d="M3274270 10917954c-191252,140145 -254301,66245 -246087,-146509 114016,31763 132519,-18082 246087,146509z"/>
    <path class="fil1" d="M31543132 25867980c-65573,-52480 -68236,-60386 -76759,-154414 175805,-18447 261030,61424 232940,215109 -88421,-12139 -75413,4037 -156181,-60695z"/>
    <path class="fil1" d="M34476810 22871280c166610,36754 223772,-5326 231201,179394 -184579,6756 -231229,-16625 -231201,-179394z"/>
    <path class="fil1" d="M34210061 22809604c-131846,-62881 -62881,-102073 -66470,-144602 167367,-15755 171572,-9532 219875,118895 -15755,8634 -8045,95065 -153405,25707z"/>
    <path class="fil1" d="M4564422 9144851c-98962,83010 -224754,156237 -354554,38351 126548,-57499 225566,-105999 354554,-38351z"/>
    <path class="fil1" d="M31827010 25981605c121979,62461 177291,-22568 209811,191812 -186178,6392 -217941,-23240 -209811,-191812z"/>
    <path class="fil1" d="M30718495 27386754c-869,293522 -222623,117100 -222931,116960 51752,-77123 -6027,-120044 222931,-116960z"/>
    <path class="fil1" d="M32397906 3343404c4738,133164 -12447,143144 -179085,170954 -41463,-159881 1346,-181636 179085,-170954z"/>
    <path class="fil1" d="M3524815 10443384c52705,22316 85197,-46201 87608,106532 1402,85645 -26100,80852 -65629,120885 -82814,-92598 -101597,-104990 -21979,-227417z"/>
    <path class="fil1" d="M9533915 25984436l57415 147041 -243313 -29071c57051,-91533 55453,-107765 185898,-117970z"/>
   </g>
   <g>
    <path class="fil3" d="M10497856 16371240c105354,-321024 248274,-748327 248274,-1030439 0,-206895 -75217,-332827 -300923,-281748 -131651,29773 -278356,153237 -387466,309586 -135407,207456 -293410,540367 -470196,907619 -90271,182169 -180571,371907 -274599,558702l-278383 62965c-45136,10233 -82758,56322 -82758,101457 0,41379 37622,70507 82758,60275l184327 -41688c-255787,486709 -579278,1071482 -959231,1157436 -225678,51079 -413762,-45556 -413762,-259993 0,-233220 203110,-508631 421303,-558000 56406,-12756 120353,2887 139164,-1374 45164,-10204 79001,-55480 79001,-96859 0,-30109 -15054,-53042 -45135,-61284 -56434,-13569 -116624,-11214 -173030,1542 -300951,68096 -579306,420715 -579306,751747 0,312221 259544,456627 571765,385980 462711,-104681 842635,-773698 1143559,-1360910l797471 -180431 -15026 44771c-150490,436555 -421332,1212580 -421332,1442043 0,312221 131678,466720 413790,410426 41379,-9363 79002,-55480 79002,-96859 0,-45136 -37623,-74264 -79002,-64900 -176786,40005 -252031,-48304 -252031,-285280 0,-195625 259573,-954017 406278,-1385945 18783,-49369 82758,-236921 165488,-488839zm-150462 -22400l-90271 272496 -763634 172777c79001,-157078 158003,-321669 233248,-474121 173029,-358870 331004,-688024 458926,-882500 63946,-97224 173029,-197111 259544,-216679 109082,-24699 146705,49537 146705,173674 0,244517 -158003,694052 -244518,954353zm1941030 185280c-11270,-1205 -22568,-2410 -33838,141 -30109,6812 -56433,31567 -71488,65068 -188084,486456 -451385,892088 -883986,1136662l158003 -494670 199354 -605603c120380,-346956 221949,-640787 282140,-801116 22567,-72806 -26353,-103111 -79002,-91197 -30109,6813 -60190,32408 -71460,68797l-60190 167871c-63947,-113428 -176814,-166890 -346087,-128594 -447628,101288 -804985,1032289 -823796,1533070 0,240761 60190,418977 308436,362796 135435,-30642 255816,-133108 357385,-261423l-112867 349059c-101569,49313 -203139,91112 -297167,127417 -451412,184916 -635740,399633 -635740,636609 0,221950 146705,335462 372412,280654 270842,-65040 504061,-384886 684632,-941120 549197,-286009 861418,-706472 1094638,-1308458 3785,-12139 7541,-24278 7541,-35548 0,-30109 -18811,-52172 -48920,-60415zm-1429427 1056932c-139192,31483 -146705,-83403 -139192,-239359 7542,-374066 316006,-1256398 665822,-1343081 135435,-30641 237004,51696 237004,251078l-82758 233136c-150490,417771 -379953,1030130 -680876,1098226zm-308464 1130607c-127894,32688 -214409,-30502 -214409,-162152 15055,-176450 161760,-307456 507818,-445918 67732,-26605 135436,-56967 206896,-88197 -124137,408015 -297167,646533 -500305,696267zm3148535 -2517982c-30109,6812 -60190,32436 -71488,65068 -124137,313987 -248275,511351 -436358,553907 -11270,2552 -26325,5944 -41380,5607 52677,-132295 82759,-289569 82759,-455085 0,-225706 -120353,-364001 -293410,-343648 319762,-343199 492791,-660691 492791,-916478 0,-233220 -109082,-328930 -319734,-281271 -169301,38295 -327276,213203 -477737,540675 -304708,663298 -507846,1311121 -507846,1623342 0,267057 191868,423042 451412,364309 206895,-46818 379925,-180010 492792,-367281 41379,1907 86515,-4541 131650,-14746 233220,-52789 417547,-275019 571766,-678577 22567,-61536 -26325,-106868 -75217,-95822zm-1120991 998423c-173029,39165 -293410,-61508 -293410,-242050 0,-293410 195598,-909442 485251,-1535482 124137,-268824 233220,-410118 342330,-434816 105326,-23830 161732,31146 161732,159040 0,297166 -270842,700752 -710957,1033551 -26325,20998 -41379,50742 -41379,84608 0,45136 37622,66722 82758,56518 11298,-2551 22568,-8887 33866,-15223 52648,-38211 124137,-80712 229463,-104541 139163,-31511 206895,50967 206895,205213 0,139192 -22568,264646 -63947,375579 -41379,-47070 -56434,-100083 -56434,-179085 0,-30081 7513,-80683 22568,-136752 11298,-51472 -22568,-96467 -75245,-84553 -37594,8523 -67703,41660 -78973,78077 -15055,56041 -26353,115026 -26353,178973 0,112839 33866,225566 97813,278803 11298,8747 22568,17466 37622,25344 -86514,132435 -210651,224472 -353600,256796zm2347279 -1268368c-41379,-5691 -86514,23353 -105326,65208 -210651,532910 -451384,805574 -759849,867839 -225706,43537 -346087,-60863 -338545,-276982 3756,-79842 15026,-153882 41379,-257638 417547,-196045 978014,-563607 978014,-962343 0,-180542 -131650,-248582 -319734,-206026 -443872,100448 -835094,971370 -857662,1457967 -7513,310174 180571,474513 492792,403866 379924,-85954 665793,-398904 910310,-995929 3757,-12111 7542,-20493 7542,-31763 0,-30109 -18812,-55957 -48921,-64199zm-1102179 204260c120380,-316903 338574,-757494 598118,-816227 82758,-18727 161759,-17774 161759,83796 0,278355 -447656,563971 -759877,732431zm2561715 -534479c-11297,-1206 -22567,-2411 -33865,140 -30081,6812 -56406,31595 -71460,65068 -229463,548469 -364899,778464 -541685,818470 -79001,17858 -112839,-23381 -112839,-132464 0,-150461 63947,-341741 139164,-565653l82758 -18728c48920,-11045 79001,-55452 79001,-96831 -3756,-44323 -33865,-71348 -82758,-60274l-22567 5102c101569,-320155 173029,-531956 236976,-723208 18811,-53154 -18811,-101065 -75217,-88309 -33866,7682 -63947,33277 -75245,69694 -71460,207989 -161759,484241 -255787,780118 -15055,3420 -26325,5944 -37623,8523l-11270 2551 -560495 126800 240733 -724049c18811,-53181 -18811,-101064 -75217,-88309 -33865,7682 -63947,33277 -75245,69694 -71460,207989 -161759,484242 -259544,780960l-71488 16175c-48892,11074 -79001,51724 -82758,97729 0,41379 30109,72161 79002,61115l22567 -5130 -267085 805265c-15027,48528 7541,84805 48920,90496 41379,1906 86515,-27110 101542,-75637 116623,-353657 206895,-629881 282140,-853793 203138,-45977 410033,-96552 609387,-141659 -67703,203419 -127894,390101 -127894,563130 0,184328 90272,295541 270842,254694 255788,-57891 432602,-319846 688389,-945718 3757,-12111 7514,-24278 7514,-35548 0,-30109 -18811,-52172 -48893,-60414zm2369875 -464701c0,-41379 -41379,-69638 -79001,-61144 -30109,6813 -63947,33305 -75245,65937 -203138,519930 -353600,775885 -537927,817601 -78974,17858 -112840,-23353 -112840,-132435 0,-323519 289654,-821638 289654,-1182779 0,-199354 -82758,-334873 -353600,-273590 -176814,40006 -368655,256461 -477738,454160 0,-199353 -120380,-318837 -346058,-267786 -127922,28960 -248275,142724 -357385,295316 11298,-40201 22568,-72805 37622,-110091 18811,-53154 -18811,-101065 -75217,-88309 -33865,7653 -63946,33277 -75244,69666 -191841,585109 -387466,1171032 -579307,1756142 -15026,44771 7541,84804 48920,90495 41379,1935 86515,-27081 101542,-75665l255815 -783847c22568,-65292 248274,-530162 315978,-647038 109082,-178917 221922,-324809 327276,-348666 135407,-30614 188084,28904 188084,168095 0,131651 -56434,313735 -135435,561056 -3757,8383 -252031,801817 -255788,813984 -18811,53154 18811,101065 75217,88309 33866,-7681 63947,-33277 75245,-69722 -3757,8411 248274,-785921 255787,-810199 109083,-329350 402492,-888528 620686,-937897 150461,-34034 195597,42248 195597,151331 0,308464 -293410,841289 -293410,1183620 0,184327 90299,295540 274599,253853 334789,-75750 541684,-585250 680875,-932711 7514,-28062 11298,-36417 11298,-47686zm823796 -581381l-865203 195765c-37594,8494 -67703,49145 -67703,94280 0,41379 30109,72189 67703,63695l865203 -195766c37623,-8494 67704,-52929 67704,-94308 0,-45136 -30081,-72161 -67704,-63666zm293410 1095955c252031,-737870 477737,-1432174 805013,-2427850 18811,-53154 -18811,-101065 -79001,-87440 -30081,6812 -60191,32436 -71460,65068 -30110,93327 -176815,544067 -805013,2435392 -15055,44771 7513,84805 48892,90496 41379,1906 86543,-34623 101569,-75666zm1711567 -1226092c-11270,-1205 -22568,-2411 -33837,140 -30110,6813 -56434,31595 -71489,65068 -142948,355871 -323491,769101 -545440,819311 -79002,17886 -120381,-44211 -120381,-111914 0,-86515 41379,-385532 41379,-472046 -3756,-160919 -52649,-277739 -229463,-267843l628199 -713900c15055,-18475 26352,-39837 26352,-62405 0,-30081 -26352,-73030 -82758,-60274 -18811,4261 -30109,6812 -52677,30725 -500305,572130 -846363,955138 -895284,1015104 -56405,69190 -37594,147687 45136,128960 71488,-16176 127922,-141771 237004,-166470 127894,-28931 161760,34875 165516,131847 3757,66834 -7541,148415 -18811,226155 -11298,89094 -22568,174403 -22568,257161 0,142948 105326,262067 278356,222903 312221,-70647 511603,-503221 692145,-946560 3757,-12111 7542,-24278 7542,-35547 0,-30110 -18812,-55929 -48921,-60415zm1515970 -343003c-11298,-1177 -22568,-2383 -33866,168 -30081,6785 -56433,31567 -71460,65040l-3785 12167c-124137,306446 -304679,753542 -537899,806303 -79001,17886 -112867,-19596 -112867,-132435 0,-165517 124137,-520883 259572,-931449l188084 -546618c18811,-49397 -11298,-102775 -71488,-89150 -33838,7653 -63947,33277 -75217,65909 -18811,53181 -41379,114689 -63947,183738 -67731,-120072 -184327,-157638 -342330,-121894 -451385,102130 -831337,1068314 -831337,1561106 0,225678 97812,384129 308464,336471 161759,-36614 319762,-177684 470224,-422369 0,184327 90271,295540 270842,254694 338546,-76591 541684,-585250 684604,-933552l3785 -12167c3757,-12111 7513,-24250 7513,-35519 0,-30110 -18811,-52173 -48892,-60443zm-1391833 1052194c-112839,25539 -146705,-75890 -146705,-241406 7514,-374093 327276,-1255192 673335,-1341034 135435,-30642 233220,48808 240761,220156l-90300 261170c-150461,417715 -372383,1032177 -677091,1101114zm3099643 -1438595c-11298,-1177 -22568,-2383 -33865,169 -30082,6812 -56406,31567 -71461,65040 -229463,548468 -372411,780174 -458926,799742 -60190,13625 -90271,-20942 -90271,-99915 0,-289653 221922,-870277 221922,-1205066 0,-233220 -94028,-324781 -252031,-289037 -191841,43398 -327276,341125 -609388,1070753 -229463,601145 -304707,757326 -398735,778604 -56434,12756 -90272,-28483 -90272,-137566 0,-94056 41351,-265123 116596,-496604 3757,-12111 7513,-24250 7513,-35520 0,-45136 -41379,-69638 -78973,-61143 -30109,6812 -60190,28679 -75245,65909 -79001,243592 -120380,437283 -127894,563131 -7513,174711 90272,295540 248275,259796 180542,-40846 285896,-222679 549197,-910451 255787,-674792 349843,-914264 458926,-938934 52677,-11915 94056,38912 94056,166806 0,327275 -221950,851466 -221950,1205066 0,184299 86515,258787 248274,222174 157975,-35744 349844,-301091 605631,-926991 3757,-12111 7514,-24250 7514,-35520 0,-30109 -18812,-52172 -48893,-60443zm1192451 -269776c-41379,-5691 -86515,23324 -105326,65208 -210652,532909 -451385,805574 -759849,867810 -225706,43566 -346087,-60863 -338546,-276981 3757,-79843 15027,-153882 41379,-257638 417547,-196018 978015,-563607 978015,-962343 0,-180543 -131651,-248554 -319735,-205998 -443871,100420 -835094,971342 -857661,1457966 -7514,310147 180570,474485 492791,403838 379925,-85954 665793,-398904 910311,-995900 3757,-12139 7541,-20521 7541,-31791 0,-30109 -18811,-55929 -48920,-64171zm-1102179 204232c120380,-316903 338573,-757495 598117,-816199 82758,-18727 161760,-17802 161760,83767 0,278356 -447656,563972 -759877,732432zm2561715 -534480c-11298,-1177 -22568,-2383 -33866,169 -30081,6784 -56405,31567 -71460,65040 -229463,548468 -364898,778464 -541684,818469 -79001,17886 -112839,-23353 -112839,-132435 0,-150462 63947,-341742 139164,-565654l82758 -18727c48920,-11073 79001,-55480 79001,-96859 -3756,-44295 -33866,-71320 -82758,-60275l-22568 5103c101570,-320127 173030,-531928 236977,-723180 18811,-53182 -18812,-101065 -75217,-88309 -33866,7653 -63947,33277 -75245,69666 -71460,208016 -161760,484269 -255788,780118 -15054,3420 -26324,5971 -37622,8522l-11270 2552 -560495 126800 240733 -724021c18811,-53182 -18811,-101093 -75217,-88309 -33866,7653 -63947,33277 -75245,69666 -71460,208017 -161759,484241 -259544,780987l-71488 16176c-48892,11046 -79002,51696 -82758,97701 0,41379 30109,72161 79001,61115l22568 -5102 -267085 805237c-15027,48556 7541,84804 48920,90495 41379,1907 86515,-27109 101541,-75637 116624,-353628 206895,-629881 282140,-853793 203139,-45977 410034,-96523 609388,-141631 -67704,203391 -127894,390074 -127894,563103 0,184327 90271,295541 270842,254694 255788,-57863 432602,-319818 688389,-945718 3757,-12111 7513,-24250 7513,-35520 0,-30109 -18811,-52172 -48892,-60443zm1553564 -347741c-11270,-1205 -22568,-2411 -33837,141 -30110,6812 -56434,31595 -71489,65068 -188084,486456 -451384,892088 -883986,1136690l158003 -494698 199354 -605575c120380,-346984 221950,-640815 282140,-801144 22568,-72806 -26353,-103111 -79002,-91197 -30109,6813 -60190,32436 -71460,68825l-60190 167871c-63947,-113428 -176814,-166890 -346087,-128594 -447628,101260 -804985,1032261 -823796,1533042 0,240761 60190,418977 308437,362824 135435,-30642 255815,-133136 357384,-261423l-112867 349059c-101569,49285 -203138,91084 -297166,127417 -451413,184888 -635740,399633 -635740,636609 0,221950 146704,335462 372411,280626 270842,-65040 504062,-384886 684632,-941092 549198,-286037 861419,-706472 1094638,-1308486 3785,-12111 7542,-24278 7542,-35548 0,-30109 -18812,-52172 -48921,-60415zm-1429427 1056960c-139191,31483 -146705,-83403 -139191,-239359 7541,-374094 316005,-1256398 665821,-1343109 135435,-30641 237004,51724 237004,251106l-82758 233136c-150490,417743 -379953,1030130 -680876,1098226zm-308464 1130578c-127894,32689 -214409,-30501 -214409,-162152 15055,-176421 161760,-307427 507819,-445917 67731,-26605 135435,-56967 206895,-88197 -124137,408015 -297167,646561 -500305,696266zm3253861 -2534269c-11298,-1206 -22568,-2411 -33866,140 -30081,6812 -56433,31567 -71460,65068l-3785 12139c-124137,306446 -304679,753542 -537899,806303 -79001,17886 -112867,-19596 -112867,-132436 0,-165516 124137,-520882 259572,-931448l188084 -546619c18811,-49369 -11298,-102746 -71488,-89150 -33838,7654 -63947,33277 -75217,65910 -18811,53181 -41379,114689 -63947,183738 -67731,-120072 -184327,-157638 -342330,-121894 -451385,102130 -831337,1068342 -831337,1561133 0,225679 97812,384102 308464,336443 161760,-36585 319762,-177683 470224,-422369 0,184328 90271,295569 270842,254695 338546,-76591 541684,-585222 684604,-933552l3785 -12139c3757,-12139 7513,-24278 7513,-35548 0,-30109 -18811,-52172 -48892,-60414zm-1391833 1052166c-112839,25539 -146705,-75890 -146705,-241406 7514,-374094 327276,-1255192 673335,-1341034 135435,-30642 233220,48808 240761,220155l-90300 261170c-150461,417716 -372383,1032178 -677091,1101115zm2821288 -1375601c-11298,-1206 -22596,-2411 -33866,140 -30109,6812 -56433,31595 -71488,65068 -60162,224277 -233220,507959 -432573,553038 -67704,15335 -131679,3477 -176815,-35239 135436,-233752 289654,-689959 289654,-949503 0,-233220 -79002,-410987 -315978,-357357 -139192,31483 -259544,133977 -364870,266889l30081 -85785c18811,-53182 -18811,-101093 -75245,-88337 -33837,7653 -63947,33277 -75216,69694l-22568 65292c-45136,126828 -263329,781800 -477738,1417176l-421303 1272714c-18811,53153 18811,101064 75217,88309 33865,-7654 63947,-33277 75244,-69694 37623,-121362 191841,-585110 361114,-1093601 41379,92206 127894,121530 270842,96719 218193,-41827 410034,-235715 564252,-477485 56433,43622 150461,63723 259572,39052 259544,-58732 504062,-388643 583035,-684884 3785,-12139 7541,-20522 7541,-31792 0,-30109 -18811,-55929 -48892,-60414zm-831337 180571c-33866,7681 -67732,37902 -75245,77235 -30081,112110 -41379,261394 7513,363160 -127894,224529 -289625,400306 -462682,435713 -105326,20073 -142921,-31595 -142921,-163245 0,-124137 26325,-179029 82730,-349760 150490,-413986 379953,-1041428 688389,-1111234 112868,-25540 146705,72133 146705,230136 0,188084 -75217,449590 -184299,703752 3757,-30950 7513,-65657 18811,-102046 11270,-55228 -26352,-95598 -79001,-83711zm2305900 -521696c-30109,6813 -60191,32408 -71488,65040 -124138,313988 -248275,511351 -436359,553908 -41379,9363 -82758,14970 -124137,-2019 112867,-191028 184328,-399072 184328,-579615 0,-240761 -131651,-387746 -391195,-329014 -150490,34034 -308464,148780 -447656,300615l176814 -529012c3757,-8355 3757,-19653 3757,-27166 0,-45163 -33866,-71348 -79002,-61115 -37622,8494 -71460,42472 -79001,81805l-353600 1069323c-15027,33501 -26325,69890 -37623,106335l-7513 24250c-15055,71123 -26324,137621 -26324,201568 0,237005 165516,372580 387437,322370 206896,-46818 413791,-217773 571794,-434088 75216,31904 146705,30754 233219,11186 233220,-52761 417547,-275019 571765,-678549 22568,-61564 -26324,-106895 -75216,-95822zm-1301562 1039270c-124137,28091 -233219,-48780 -233219,-199270 0,-52649 11298,-111633 30109,-176085l26324 -77403c116624,-312306 398736,-665766 639497,-720237 165488,-37454 236976,47939 236976,205942 0,124137 -48892,278159 -131650,428509 -7541,-28399 -11298,-61368 -11298,-98990 0,-30081 7513,-80712 22568,-136753 11298,-51500 -22568,-96467 -75217,-84552 -37622,8494 -67731,41631 -79001,78048 -15055,56069 -26353,115054 -26353,179001 0,90271 22596,179197 60190,238406 -127893,179393 -297166,326771 -458926,363384zm-15881812 5387349c0,-173030 -236976,-205942 -455169,-156574 -229463,51920 -507818,197672 -695902,398232 -428845,18026 -974286,-69218 -1376778,21838 -492792,111494 -782417,425313 -782417,846617 0,342302 240733,494726 590576,415556 135407,-30642 282112,-97700 413790,-187635 30082,-21867 45136,-51584 45136,-81693 0,-30081 -22568,-73899 -75245,-61984 -15054,3392 -26324,9700 -37622,16035 -109083,73591 -229463,130894 -342302,156433 -259544,58733 -432602,-30025 -436358,-292456 0,-319763 229463,-559767 616928,-647431 425061,-96187 917852,-15811 1248857,-19232 -22568,38968 -48893,78749 -67704,116877 -157975,306586 -289653,750177 -383681,1076135 -263329,845775 -398736,1606185 -1038233,1743330 -274598,62125 -492763,-87860 -492763,-407595 0,-342330 323491,-712695 654523,-787603 45136,-10205 79001,-51724 79001,-96860 0,-45135 -33865,-71348 -79001,-61143 -413790,93635 -812526,537451 -812526,981350 0,387438 267085,616649 650766,529854 665822,-139360 857662,-716928 1188695,-1886475 94056,-318473 221949,-757410 368654,-1042634 33838,-60330 71460,-117745 116596,-173085 237004,-8495 470224,-31175 654551,-72890 263301,-59546 440115,-155957 447628,-326967zm-447628 168992c-124137,28091 -297194,48444 -477737,59181 127894,-100392 319734,-192682 466439,-225875 109083,-24698 297167,-25876 297167,30530 0,52677 -109083,96187 -285869,136164zm1019394 1450817c-11298,-1177 -22568,-2383 -33866,169 -30081,6812 -56406,31566 -71460,65040 -214409,533778 -361114,777623 -541684,818469 -79002,17886 -112840,-23353 -112840,-132435 0,-270842 293410,-897723 293410,-1183620 0,-199354 -86542,-334032 -353600,-273589 -120380,27221 -233219,120492 -342330,254245 127894,-386288 210652,-641992 244518,-747458 18811,-53181 -18812,-101064 -75245,-88309 -33838,7654 -63947,33277 -75217,65910 -124137,392988 -447656,1361443 -805013,2435391 -15026,44772 7541,84805 48920,90496 41380,1906 86515,-27109 101542,-75637 334817,-993602 368654,-1147960 605631,-1502513 97812,-142500 203138,-252844 297194,-274123 146705,-33192 195597,42249 195597,151331 0,289653 -293409,837533 -293409,1183620 0,184327 86514,296410 270842,254694 255787,-57863 432601,-319818 688389,-945718 3756,-12111 7513,-24250 7513,-31764 0,-33865 -18811,-55928 -48892,-64199zm1192450 -269776c-41379,-5691 -86514,23324 -105326,65208 -210651,532909 -451384,805574 -759849,867810 -225706,43566 -346087,-60863 -338545,-276981 3756,-79843 15026,-153882 41379,-257638 417547,-196018 978014,-563607 978014,-962343 0,-180543 -131650,-248555 -319734,-205998 -443872,100420 -835094,971342 -857662,1457966 -7513,310147 180571,474485 492792,403838 379924,-85954 665793,-398904 910310,-995900 3757,-12139 7542,-20521 7542,-31791 0,-30109 -18812,-55929 -48921,-64171zm-1102179 204231c120380,-316902 338574,-757494 598118,-816198 82758,-18727 161759,-17802 161759,83767 0,278355 -447656,563972 -759877,732431zm3633786 -2353166c-97785,40931 -210652,85281 -323491,129604 -541684,205325 -1248885,478186 -1248885,1046194 0,282112 188084,461506 451413,401932 52649,-11915 78974,-51724 82758,-93972 0,-45135 -33866,-75076 -79001,-64844 -165516,37426 -297167,-71965 -297167,-271346 0,-451385 643226,-687212 1117206,-869661 79002,-29184 154218,-57471 229463,-89542 -173029,509360 -511575,1642966 -511575,2053000 0,282112 94028,482783 387438,416397 500305,-113175 823796,-965034 1143559,-1804782 293409,-773586 583063,-1535005 951689,-1614651 45136,-10233 79002,-51752 79002,-96888 0,-45135 -37623,-70479 -82758,-60274 -473981,107232 -782417,921861 -1094638,1744816 -297167,785725 -601875,1580673 -996854,1670020 -173029,39164 -229463,-98542 -229463,-297924 0,-364870 376168,-1638677 537928,-2085296 267085,-131902 537927,-336106 537927,-512892 0,-120381 -90299,-182730 -221950,-152929 -191840,43398 -349843,316118 -432601,553038zm191840 -92318c60191,-141518 158003,-291531 240761,-310258 30081,-6813 52649,10653 52649,40762 0,60190 -135407,199914 -293410,269496zm1534781 201961c71488,-16176 127894,-85365 127894,-156825 0,-71488 -56406,-115166 -127894,-98990 -71460,16176 -131650,86234 -131650,157722 0,71461 60190,114269 131650,98093zm248274 1019674c-11269,-1205 -18811,-3252 -30081,-729 -30109,6813 -60190,32436 -75244,65937 -139164,339948 -312222,766550 -545441,819311 -79002,17858 -112839,-23381 -112839,-132463 0,-161760 67703,-350096 432573,-1459593 22568,-69049 -26324,-95598 -75217,-84552 -30109,6813 -60190,32436 -71488,68825 -165516,466299 -432573,1215103 -443871,1511092 -7513,174711 90271,295540 270842,254694 315978,-71488 511603,-499436 692146,-946560 3756,-12139 7541,-24278 7541,-35547 0,-30110 -18811,-55929 -48921,-60415zm778661 -176197c-11270,-1206 -22568,-2383 -33838,168 -30109,6812 -60190,32408 -75245,62153 -176786,427443 -357356,780510 -628198,841794 -75245,17017 -120381,-29184 -120381,-130753 0,-67704 41379,-246340 124137,-520883 109083,-344405 218193,-669998 323519,-994807l195597 -616004c15055,-44799 -7513,-84804 -48892,-90523 -41379,-1935 -86515,27109 -101569,71880l-195597 616060c-109111,336892 -221950,678409 -323519,998564 -94028,318445 -131651,462374 -131651,571457 0,180570 97785,293858 278356,253012 346086,-78301 556738,-445694 774903,-965287 3757,-12111 7542,-24278 7542,-35548 0,-30109 -18812,-52172 -45164,-61283z"/>
    <path class="fil3" d="M24073768 18144371c-11270,-1206 -22568,-2411 -33838,140 -30109,6812 -60190,32408 -75245,62152 -176786,427444 -357357,780511 -628199,841795 -75245,17017 -120380,-29184 -120380,-130754 0,-67703 41379,-246340 124137,-520854 109082,-344433 218193,-670026 323519,-994807l195597 -616032c15055,-44799 -7513,-84804 -48892,-90495 -41379,-1935 -86515,27081 -101569,71852l-195598 616060c-109110,336892 -221949,678409 -323519,998564 -94028,318444 -131650,462374 -131650,571456 0,180571 97785,293859 278355,253012 346087,-78300 556739,-445693 774904,-965286 3757,-12111 7541,-24278 7541,-35548 0,-30109 -18811,-52172 -45163,-61255zm1512213 -342162c-11298,-1206 -22568,-2411 -33866,168 -30081,6784 -56434,31567 -71460,65040l-3785 12167c-124137,306446 -304680,753541 -537899,806302 -79002,17886 -112868,-19596 -112868,-132435 0,-165516 124138,-520882 259573,-931449l188084 -546618c18811,-49397 -11298,-102775 -71489,-89150 -33837,7654 -63946,33277 -75216,65909 -18812,53182 -41379,114690 -63947,183739 -67732,-120072 -184328,-157638 -342330,-121894 -451385,102130 -831338,1068313 -831338,1561105 0,225678 97813,384130 308465,336471 161759,-36613 319762,-177683 470224,-422369 0,184327 90271,295541 270842,254694 338545,-76590 541684,-585250 684604,-933551l3785 -12167c3756,-12111 7513,-24250 7513,-35520 0,-30109 -18811,-52200 -48892,-60442zm-1391833 1052193c-112839,25540 -146705,-75889 -146705,-241406 7513,-374121 327276,-1255192 673335,-1341033 135435,-30642 233219,48808 240761,220155l-90300 261170c-150461,417715 -372383,1032177 -677091,1101114zm2945397 -1399934c-11270,-1206 -22568,-2411 -33838,140 -30109,6812 -56434,31595 -71488,65068 -188084,486456 -451385,892088 -883986,1136662l158002 -494670 199354 -605603c120381,-346956 221950,-640786 282140,-801116 22568,-72806 -26352,-103111 -79001,-91197 -30109,6813 -60190,32436 -71460,68825l-60190 167843c-63947,-113428 -176815,-166890 -346087,-128594 -447628,101289 -804985,1032289 -823796,1533070 0,240761 60190,418977 308436,362824 135435,-30642 255816,-133136 357385,-261450l-112867 349058c-101570,49313 -203139,91112 -297167,127445 -451413,184888 -635740,399605 -635740,636581 0,221950 146705,335462 372411,280655 270842,-65041 504062,-384887 684633,-941121 549197,-286009 861418,-706472 1094638,-1308458 3784,-12111 7541,-24278 7541,-35548 0,-30109 -18811,-52172 -48920,-60414zm-1429427 1056931c-139192,31511 -146705,-83403 -139192,-239331 7541,-374093 316006,-1256426 665821,-1343109 135435,-30641 237005,51696 237005,251078l-82758 233136c-150490,417771 -379953,1030158 -680876,1098226zm-308465 1130607c-127893,32688 -214408,-30502 -214408,-162152 15054,-176422 161759,-307428 507818,-445918 67732,-26605 135435,-56967 206895,-88197 -124137,408015 -297166,646533 -500305,696267zm2930343 -2461100c-41380,-5691 -86515,23353 -105326,65209 -210652,532909 -451385,805573 -759850,867838 -225706,43538 -346086,-60863 -338545,-276982 3757,-79842 15026,-153881 41379,-257637 417547,-196046 978014,-563608 978014,-962343 0,-180543 -131650,-248583 -319734,-206026 -443872,100447 -835094,971370 -857662,1457966 -7513,310174 180571,474513 492792,403866 379924,-85954 665793,-398904 910311,-995928 3756,-12111 7541,-20494 7541,-31764 0,-30109 -18811,-55957 -48920,-64199zm-1102180 204260c120381,-316903 338574,-757494 598118,-816227 82758,-18727 161759,-17773 161759,83796 0,278355 -447656,563971 -759877,732431z"/>
   </g>
   <path class="fil4" d="M17578016 7770736l0 -791584 -68853 0 0 353656 -501987 0 0 -353656 -67647 0 0 791584 67647 0 0 -376224 501987 0 0 376224 68853 0zm619508 0l0 -402520c0,-129156 -92570,-184944 -208886,-184944 -94953,0 -161395,32043 -220744,96326l34427 43118c52200,-59714 107989,-84861 179197,-84861 85449,0 154274,46705 154274,132744l0 116287c-49846,-55565 -115110,-81693 -194616,-81693 -99691,0 -200587,65097 -200587,189318 0,123015 102073,190467 200587,190467 79506,0 143593,-26101 194616,-81693l0 67451 61732 0zm-234986 -34426c-94953,0 -156657,-60331 -156657,-140622 0,-81496 61704,-141827 156657,-141827 68825,0 132912,27110 173254,79114l0 125399c-40342,52032 -104429,77936 -173254,77936zm436723 34426l229042 -272973 46285 43931 0 229042 62910 0 0 -227865 47463 -45108 227865 272973 83066 0 -265824 -314492 267002 -258731 -81889 0 -277683 271767 0 -271767 -62910 0 0 270590 -276533 -270590 -83066 0 267029 258731 -265852 314492 83095 0zm1356481 0l0 -573223 -85449 0 -185141 465234 -187523 -465234 -83067 0 0 573223 61705 0 0 -488951 198204 488951 22540 0 195821 -488951 0 488951 62910 0zm251610 0l327556 -484213 0 484213 61704 0 0 -573223 -60526 0 -326379 477093 0 -477093 -61704 0 0 573223 59349 0zm950597 0l0 -269412 325201 0 0 269412 61704 0 0 -573223 -61704 0 0 249227 -325201 0 0 -249227 -61704 0 0 573223 61704 0zm1005235 0l0 -402520c0,-129156 -92570,-184944 -208885,-184944 -94953,0 -161395,32043 -220744,96326l34426 43118c52200,-59714 107989,-84861 179197,-84861 85449,0 154274,46705 154274,132744l0 116287c-49845,-55565 -115110,-81693 -194616,-81693 -99691,0 -200587,65097 -200587,189318 0,123015 102074,190467 200587,190467 79506,0 143593,-26101 194616,-81693l0 67451 61732 0zm-234985 -34426c-94953,0 -156658,-60331 -156658,-140622 0,-81496 61705,-141827 156658,-141827 68825,0 132912,27110 173253,79114l0 125399c-40341,52032 -104428,77936 -173253,77936zm659821 180402l62910 0 0 -145976 467589 0 0 145976 61704 0 0 -201765 -68825 0 0 -517434 -365543 0 -37959 286009c-24922,183963 -64087,229070 -119876,236191l0 196999zm213624 -664616l248050 0 0 462851 -369103 0c42724,-29660 71207,-93747 89009,-224304l32044 -238547zm943504 518640l0 -402520c0,-129156 -92571,-184944 -208886,-184944 -94953,0 -161395,32043 -220744,96326l34426 43118c52201,-59714 107989,-84861 179197,-84861 85450,0 154274,46705 154274,132744l0 116287c-49845,-55565 -115110,-81693 -194616,-81693 -99691,0 -200587,65097 -200587,189318 0,123015 102074,190467 200587,190467 79506,0 143594,-26101 194616,-81693l0 67451 61733 0zm-234986 -34426c-94953,0 -156657,-60331 -156657,-140622 0,-81496 61704,-141827 156657,-141827 68825,0 132912,27110 173253,79114l0 125399c-40341,52032 -104428,77936 -173253,77936zm593380 34426l0 -518640 169693 0 0 -54583 -399941 0 0 54583 168515 0 0 518640 61733 0zm259880 224305c15447,4738 41547,8298 60527,8298 67647,0 116315,-34398 147181,-106812l296690 -699014 -70030 0 -206503 500838 -208857 -500838 -68853 0 242106 577961 -45079 102074c-22568,54583 -48668,70030 -86655,70030 -14242,0 -36782,-3560 -49846,-9504l-10681 56967zm-11024569 916058l327556 -484214 0 484214 61704 0 0 -573223 -60527 0 -326378 477092 0 -477092 -61704 0 0 573223 59349 0zm850905 224304c15447,4738 41548,8298 60527,8298 67647,0 116315,-34398 147182,-106811l296689 -699014 -70030 0 -206503 500837 -208857 -500837 -68853 0 242107 577960 -45080 102074c-22568,54584 -48668,70031 -86655,70031 -14242,0 -36781,-3561 -49845,-9504l-10682 56966zm808209 -210063c162601,0 256348,-71208 256348,-166161 0,-97308 -103251,-135295 -168515,-140033 64087,-8298 156657,-52228 156657,-142415 0,-98514 -112755,-153097 -257554,-153097 -104429,0 -178019,37987 -231425,91393l35604 37959c49845,-52201 113932,-75946 198204,-75946 106812,0 189878,41547 189878,104429 0,77151 -89010,112755 -191055,112755l-132940 0 0 52228 132940 0c109166,0 201736,27278 201736,109167 0,71208 -77123,116315 -189878,116315 -92570,0 -169721,-27305 -223127,-81889l-32044 40342c58172,59349 141239,94953 255171,94953zm478270 -14241l0 -269413 325201 0 0 269413 61704 0 0 -573223 -61704 0 0 249227 -325201 0 0 -249227 -61704 0 0 573223 61704 0zm1005236 0l0 -402521c0,-129155 -92570,-184944 -208886,-184944 -94953,0 -161395,32044 -220744,96327l34426 43117c52201,-59714 107990,-84861 179197,-84861 85450,0 154275,46706 154275,132744l0 116287c-49846,-55564 -115110,-81692 -194616,-81692 -99691,0 -200588,65096 -200588,189317 0,123016 102074,190467 200588,190467 79506,0 143593,-26100 194616,-81693l0 67452 61732 0zm-234986 -34427c-94953,0 -156657,-60330 -156657,-140621 0,-81497 61704,-141827 156657,-141827 68825,0 132912,27109 173254,79113l0 125399c-40342,52032 -104429,77936 -173254,77936zm486568 34427l327556 -484214 0 484214 61704 0 0 -573223 -60526 0 -326379 477092 0 -477092 -61704 0 0 573223 59349 0zm372636 -746477l-33221 -29689c-40342,54612 -102074,89010 -174459,89010 -73591,0 -135295,-34398 -174460,-89010l-34426 29689c48668,64087 124614,104429 208886,104429 85449,0 160217,-40342 207680,-104429zm758363 760718c169721,0 276505,-134117 276505,-301456 0,-167338 -106784,-300250 -276505,-300250 -167338,0 -275327,132912 -275327,300250 0,167339 107989,301456 275327,301456zm0 -55789c-132912,0 -208886,-117493 -208886,-245667 0,-126968 75974,-244461 208886,-244461 135295,0 210063,117493 210063,244461 0,128174 -74768,245667 -210063,245667zm677652 0c-132912,0 -208886,-117493 -208886,-246844 0,-125791 75974,-243284 208886,-243284 135295,0 210063,117493 210063,243284 0,129351 -74768,246844 -210063,246844zm0 55789c169721,0 275327,-135295 275327,-302633 0,-164956 -105606,-299073 -267029,-299073 -115110,0 -186318,70030 -224305,138855 24923,-117493 68853,-196999 263469,-226659 98514,-15447 210064,-35604 210064,-116316l-58144 0c0,24923 -36782,41548 -166161,62910 -205297,26100 -307371,136472 -307371,415360 0,192261 105634,327556 274150,327556zm1176106 -14241l0 -402521c0,-129155 -92570,-184944 -208885,-184944 -94953,0 -161395,32044 -220744,96327l34426 43117c52200,-59714 107989,-84861 179197,-84861 85449,0 154274,46706 154274,132744l0 116287c-49845,-55564 -115110,-81692 -194616,-81692 -99691,0 -200587,65096 -200587,189317 0,123016 102074,190467 200587,190467 79506,0 143593,-26100 194616,-81693l0 67452 61732 0zm-234985 -34427c-94953,0 -156658,-60330 -156658,-140621 0,-81497 61705,-141827 156658,-141827 68825,0 132912,27109 173253,79113l0 125399c-40341,52032 -104428,77936 -173253,77936zm907871 34427l-265852 -314492 267030 -258731 -81889 0 -338237 327556 0 -327556 -61704 0 0 573223 61704 0 0 -172077 106811 -100896 229071 272973 83066 0zm284832 0l0 -518640 169693 0 0 -54583 -399941 0 0 54583 168516 0 0 518640 61732 0zm259880 224304c15447,4738 41547,8298 60527,8298 67647,0 116315,-34398 147181,-106811l296690 -699014 -70030 0 -206503 500837 -208857 -500837 -68853 0 242106 577960 -45079 102074c-22568,54584 -48668,70031 -86655,70031 -14242,0 -36782,-3561 -49846,-9504l-10681 56966zm1034897 -224304l0 -402521c0,-129155 -92571,-184944 -208886,-184944 -94953,0 -161395,32044 -220744,96327l34426 43117c52201,-59714 107989,-84861 179197,-84861 85450,0 154274,46706 154274,132744l0 116287c-49845,-55564 -115110,-81692 -194616,-81692 -99691,0 -200587,65096 -200587,189317 0,123016 102074,190467 200587,190467 79506,0 143594,-26100 194616,-81693l0 67452 61733 0zm-234986 -34427c-94953,0 -156657,-60330 -156657,-140621 0,-81497 61704,-141827 156657,-141827 68825,0 132912,27109 173253,79113l0 125399c-40341,52032 -104428,77936 -173253,77936zm352450 48668c98514,0 153097,-77151 181580,-294335l32044 -238546 248050 0 0 518640 61704 0 0 -573223 -365543 0 -37959 286008c-24922,183963 -64087,248050 -119876,248050l0 53406zm715639 -587464l0 573223 284831 0c113933,0 174460,-78329 174460,-169722 0,-91364 -60527,-169693 -174460,-169693l-223127 0 0 -233808 -61704 0zm280094 288391c75945,0 113932,48668 113932,115110 0,66470 -39164,113933 -113932,113933l-218390 0 0 -229043 218390 0zm385671 284832l0 -269413 325201 0 0 269413 61704 0 0 -573223 -61704 0 0 249227 -325201 0 0 -249227 -61704 0 0 573223 61704 0zm821273 14241c169721,0 276505,-134117 276505,-301456 0,-167338 -106784,-300250 -276505,-300250 -167338,0 -275327,132912 -275327,300250 0,167339 107989,301456 275327,301456zm0 -55789c-132912,0 -208885,-117493 -208885,-245667 0,-126968 75973,-244461 208885,-244461 135295,0 210063,117493 210063,244461 0,128174 -74768,245667 -210063,245667zm494895 41548l327556 -484214 0 484214 61704 0 0 -573223 -60527 0 -326379 477092 0 -477092 -61704 0 0 573223 59350 0zm372635 -746477l-33221 -29689c-40342,54612 -102074,89010 -174459,89010 -73591,0 -135295,-34398 -174459,-89010l-34427 29689c48668,64087 124614,104429 208886,104429 85449,0 160218,-40342 207680,-104429zm942326 746477l0 -402521c0,-129155 -92570,-184944 -208885,-184944 -94953,0 -161395,32044 -220745,96327l34427 43117c52200,-59714 107989,-84861 179197,-84861 85449,0 154274,46706 154274,132744l0 116287c-49845,-55564 -115110,-81692 -194616,-81692 -99691,0 -200587,65096 -200587,189317 0,123016 102074,190467 200587,190467 79506,0 143593,-26100 194616,-81693l0 67452 61732 0zm-234985 -34427c-94954,0 -156658,-60330 -156658,-140621 0,-81497 61704,-141827 156658,-141827 68824,0 132911,27109 173253,79113l0 125399c-40342,52032 -104429,77936 -173253,77936zm907871 34427l-265852 -314492 267030 -258731 -81889 0 -338237 327556 0 -327556 -61705 0 0 573223 61705 0 0 -172077 106811 -100896 229071 272973 83066 0zm574401 145976l61704 0 0 -201765 -68825 0 0 -517434 -61704 0 0 517434 -325201 0 0 -517434 -61704 0 0 573223 455730 0 0 145976zm259908 -145976l327556 -484214 0 484214 61704 0 0 -573223 -60526 0 -326379 477092 0 -477092 -61704 0 0 573223 59349 0zm640871 0l327556 -484214 0 484214 61704 0 0 -573223 -60527 0 -326378 477092 0 -477092 -61705 0 0 573223 59350 0z"/>
   <polygon class="fil5" points="1056455,0 7933897,0 7548198,551216 7933897,1111543 1056455,1111543 "/>
   <path class="fil6" d="M2464379 785333c87945,0 138211,-48444 166918,-98121l-72974 -35296c-16764,32913 -52649,58032 -93944,58032 -72385,0 -125034,-55621 -125034,-131006 0,-75385 52649,-131034 125034,-131034 41295,0 77180,25736 93944,58032l72974 -35884c-28118,-49649 -78973,-97533 -166918,-97533 -119651,0 -212361,83768 -212361,206419 0,122623 92710,206391 212361,206391zm607370 -7177l0 -399044 -358955 0 0 399044 84973 0 0 -324248 188448 0 0 324248 85534 0zm391418 0l0 -74768 -197419 0 0 -90356 193242 0 0 -74768 -193242 0 0 -84356 197419 0 0 -74796 -282392 0 0 399044 282392 0zm406950 73591l84945 0 0 -148359 -35912 0 0 -324276 -85534 0 0 324276 -188448 0 0 -324276 -84973 0 0 399044 309922 0 0 73591zm524191 -73591l0 -399044 -358955 0 0 399044 84973 0 0 -324248 188448 0 0 324248 85534 0zm193999 0l0 -141799 101709 0c86123,0 134006,-59209 134006,-128623 0,-69974 -47267,-128622 -134006,-128622l-186682 0 0 399044 84973 0zm90327 -216567l-90327 0 0 -107681 90327 0c33502,0 58621,20325 58621,53826 0,32913 -25119,53855 -58621,53855zm417716 223744c120857,0 208801,-86151 208801,-206391 0,-120268 -87944,-206419 -208801,-206419 -120241,0 -208185,86151 -208185,206419 0,120240 87944,206391 208185,206391zm0 -75385c-73591,0 -120857,-56826 -120857,-131006 0,-74796 47266,-131034 120857,-131034 73590,0 121445,56238 121445,131034 0,74180 -47855,131006 -121445,131006zm581633 68208l0 -74768 -197420 0 0 -90356 193243 0 0 -74768 -193243 0 0 -84356 197420 0 0 -74796 -282392 0 0 399044 282392 0zm438657 0l-169329 -211773 158536 -187271 -104681 0 -141183 178299 0 -178299 -84972 0 0 399044 84972 0 0 -122652 31091 -37089 120857 159741 104709 0zm247181 0l0 -324248 116063 0 0 -74796 -318277 0 0 74796 116680 0 0 324248 85534 0z"/>
  </g>
 </g>
</svg>
