<?xml version="1.0" encoding="UTF-8"?>
<!DOCTYPE svg PUBLIC "-//W3C//DTD SVG 1.1//EN" "http://www.w3.org/Graphics/SVG/1.1/DTD/svg11.dtd">
<!-- Creator: CorelDRAW X8 -->
<svg xmlns="http://www.w3.org/2000/svg" xml:space="preserve" width="68px" height="95px" version="1.1" style="shape-rendering:geometricPrecision; text-rendering:geometricPrecision; image-rendering:optimizeQuality; fill-rule:evenodd; clip-rule:evenodd"
viewBox="0 0 81913 114083"
 xmlns:xlink="http://www.w3.org/1999/xlink">
 <defs>
  <style type="text/css">
   <![CDATA[
    .str1 {stroke:black;stroke-width:4645.45}
    .str0 {stroke:black;stroke-width:4645.45}
    .str2 {stroke:#FEFEFE;stroke-width:3096.97;stroke-linecap:round;stroke-linejoin:round}
    .fil3 {fill:none}
    .fil2 {fill:#FEFEFE}
    .fil1 {fill:black}
    .fil0 {fill:#E94F42}
   ]]>
  </style>
 </defs>
 <g id="Слой_x0020_1">
  <metadata id="CorelCorpID_0Corel-Layer"/>
  <g id="_1050744064">
   <path class="fil0 str0" d="M40459 2721c28647,6481 27162,44064 27162,44064 0,0 -12072,11213 -13911,-14 -1837,-11227 -2085,-22306 -10863,-21489 -8776,816 -6357,793 -9418,9367 -3063,8573 -5512,24903 -12860,16329 -566,-659 -5226,-53939 19890,-48257z"/>
   <path class="fil0 str1" d="M5235 41693c0,0 59548,8195 68289,546 8741,-7648 11471,69382 -15844,69382 -27316,0 -45890,3719 -52445,-27253 -6556,-30972 0,-42675 0,-42675z"/>
   <path class="fil1" d="M42321 58650c11141,484 10378,12849 6424,16062 -3954,3211 -4200,-2 -4200,6919 0,6920 741,20515 -1236,17176 -1977,-3338 -2645,-18820 -5472,-21130 -5070,-4140 -6657,-19511 4484,-19027z"/>
   <path class="fil2" d="M67635 61928c0,0 -2367,27611 -3733,32505 -1366,4895 -16663,10847 -16663,10847l25950 -15082 -5554 -28270z"/>
   <path class="fil3 str2" d="M38322 10517c14182,3015 20322,16582 20322,26994"/>
  </g>
 </g>
</svg>
