<?xml version="1.0" encoding="UTF-8"?>
<!DOCTYPE svg PUBLIC "-//W3C//DTD SVG 1.1//EN" "http://www.w3.org/Graphics/SVG/1.1/DTD/svg11.dtd">
<!-- Creator: CorelDRAW X8 -->
<svg xmlns="http://www.w3.org/2000/svg" xml:space="preserve" width="200px" height="211px" version="1.1" style="shape-rendering:geometricPrecision; text-rendering:geometricPrecision; image-rendering:optimizeQuality; fill-rule:evenodd; clip-rule:evenodd"
viewBox="0 0 13510564 14232774"
 xmlns:xlink="http://www.w3.org/1999/xlink">
 <defs>
  <style type="text/css">
   <![CDATA[
    .str0 {stroke:#E94F42;stroke-width:61164.8}
    .fil0 {fill:#E94F42}
   ]]>
  </style>
 </defs>
 <g id="Слой_x0020_1">
  <metadata id="CorelCorpID_0Corel-Layer"/>
  <g id="_1007104240">
   <path class="fil0 str0" d="M12114637 9593548c-8563,59501 275413,152374 347685,188705 61190,30779 347098,200817 389155,153500 34204,-38510 -115479,-86512 -151591,-103442l-475397 -222836c-51549,-23830 -64883,-47195 -109852,-15927z"/>
   <path class="fil0 str0" d="M12037790 10941326l-29922 71465c30925,51452 282997,234187 336773,240916 11499,-93313 -3547,-61875 -140825,-162748 -53581,-39414 -147921,-72908 -166026,-149633z"/>
   <path class="fil0 str0" d="M12912202 11629454c-2936,86047 65054,80297 203654,191788 37139,29873 45629,58939 81006,19133 -636,-61606 -6899,-48834 -53409,-79759 -76358,-50743 -191714,-160839 -231251,-131162z"/>
   <path class="fil0 str0" d="M13447124 2782532c-52699,-25028 -53115,16613 -151517,92212 -72199,55465 -124507,88983 -127614,147040 47439,17420 77752,-15633 158857,-90988 24270,-22533 42277,-40173 68088,-61508 40736,-33665 57226,-27940 52186,-86756z"/>
   <path class="fil0 str0" d="M9739609 517405c-19254,17077 -10863,-2373 -21750,30778l-57495 336382c-2715,94659 636,41812 19035,73104 41469,-32662 29236,-40295 54534,-206761l29531 -166050c2373,-90402 -1664,-40540 -23855,-67453z"/>
   <path class="fil0 str0" d="M12727753 4954420c31879,54486 44455,22411 155554,-24857 27745,-11817 55758,-22142 83551,-33152 92041,-36478 60994,-26325 73839,-71881 -45776,-29310 -34913,-19792 -90500,6557l-152740 64859c-46706,20527 -50205,8148 -69704,58474z"/>
   <path class="fil0 str0" d="M12986138 6583311c21163,65153 38974,39244 154551,37776 28845,-367 57715,832 86487,1247 95246,1371 63489,-1174 83918,-39977 -39023,-46387 -30191,-32907 -88518,-29579l-158857 1859c-48712,1248 -49910,-12086 -77581,28674z"/>
   <path class="fil0 str0" d="M12536063 6625246c19499,50571 -74,38876 59525,38460l268269 -23487c-8367,-80126 12845,-62094 -146869,-51966 -50644,3230 -151786,-16539 -180925,36993z"/>
   <path class="fil0 str0" d="M12829531 8396137c16074,55293 14973,43696 136251,74719 64590,16515 113644,48590 177745,37458 -10007,-67453 3425,-50596 -60847,-69215l-206027 -65397c-62462,-4233 -28943,612 -47122,22435z"/>
   <path class="fil0 str0" d="M13161950 10136422c16098,55293 14973,43696 136275,74719 64565,16514 113619,48614 177720,37457 -9982,-67428 3425,-50595 -60847,-69214l-206003 -65373c-62485,-4257 -28967,587 -47145,22411z"/>
   <path class="fil0 str0" d="M12398931 3660051l32785 46412 183959 -159126c54412,-46388 45776,-14876 62094,-97717 -61923,-12502 -93068,50791 -148483,93435 -41494,31953 -94586,68480 -130355,116996z"/>
   <path class="fil0 str0" d="M12323503 1871642c-16955,16735 -35769,36895 -50718,56174 -33102,42668 -15144,40760 -43647,77679 -35574,46094 -94879,79270 -73178,161964 42180,955 79343,-72125 109485,-117534 29922,-45115 71563,-89741 86194,-147774l-28136 -30509z"/>
   <path class="fil0 str0" d="M12400693 11260655c1468,59354 -24417,35647 99160,123577 104934,74646 93998,80151 138159,61752 -5431,-76872 -46191,-83600 -100971,-116482 -53947,-32393 -81667,-81692 -136348,-68847z"/>
   <path class="fil0 str0" d="M12282033 8186293l-58278 40687 206419 84383c102708,31292 71221,171 86096,-18741 -43990,-82670 -172852,-49910 -234237,-106329z"/>
   <path class="fil0 str0" d="M9531747 1732945c34228,-24075 43574,-46926 62192,-85093 -14312,-69801 45262,-178772 20576,-260831l-32613 -2471c-20918,65104 -52699,274606 -50155,348395z"/>
   <path class="fil0 str0" d="M12924679 3232730c-45751,-20063 -207520,121228 -219386,191225 52920,23854 84506,-27157 130771,-68871 41445,-37335 96249,-56394 88615,-122354z"/>
   <path class="fil0 str0" d="M11049416 13130756c-4942,13113 -39732,-1224 9028,92921 56467,108947 65471,198101 126195,200205 6998,-84310 -36992,-129645 -81642,-232524 -28674,-66156 -16711,-53165 -53581,-60602z"/>
   <path class="fil0 str0" d="M12168169 5188461l50351 35182c36723,-26497 65984,-35207 105717,-52773 116776,-51697 89398,-24368 100359,-75771 -35769,-42546 -84285,-2104 -133535,21310 -51036,24221 -91380,19426 -122892,72052z"/>
   <path class="fil0 str0" d="M11939608 2414369l50767 70315c12306,-95441 109681,-155529 137988,-248671l-29604 -29677c-56418,52699 -112983,185647 -159151,208033z"/>
   <path class="fil0 str0" d="M12668546 8374901c102830,81447 104958,-6263 105032,-6435 -18203,-32295 -16148,-36894 -59403,-44356 -50400,-8735 -42106,1639 -45629,50791z"/>
   <path class="fil0 str0" d="M13000964 10115186c102830,81471 104959,-6264 105032,-6435 -18203,-32295 -16147,-36895 -59403,-44357 -50400,-8734 -42106,1639 -45629,50792z"/>
   <path class="fil0 str0" d="M12576554 5046094c107919,20062 100897,-59844 102047,-63294 -73,-48 -13383,-36796 -76749,-4599 -34179,17346 -32295,21872 -25298,67893z"/>
   <g>
    <path class="fil0 str0" d="M10813712 1262637c54338,26986 69801,-81814 99943,-159567 26815,-69214 78854,-157707 59110,-230714 -48100,12136 -54902,69606 -96592,183862 -21701,59452 -74963,149071 -62461,206419z"/>
    <path class="fil0 str0" d="M10737084 1459318c41323,14875 39391,13823 59037,-35867 13872,-35109 22875,-60357 1492,-84481 -37628,-42473 -62070,83747 -60529,120348z"/>
   </g>
   <path class="fil0 str0" d="M9671667 1032584c-40026,7633 -30753,-17518 -45139,54852 -8441,42498 -7903,54926 4012,89081 34008,-5579 28552,14655 43183,-47391 11132,-47292 11499,-57544 -2056,-96542z"/>
   <path class="fil0 str0" d="M12437220 1724651c50547,26423 89741,-40565 79931,-107332 -33103,-392 -18766,-19206 -54780,32931 -31365,45384 -24001,28650 -25151,74401z"/>
   <path class="fil0 str0" d="M11760738 12098979c6165,70511 188290,269125 235069,329091 45310,58082 209110,290557 253833,298068 19598,-75477 8906,-57494 -94144,-185255l-311623 -395272c-38582,-51696 -35108,-66033 -83135,-46632z"/>
   <path class="fil0 str0" d="M12301704 12757675c-14508,74572 -26081,27133 87588,167714 38876,48075 72982,119687 113252,91184 -97,-62217 -159444,-259754 -200840,-258898z"/>
   <path class="fil0 str0" d="M11640317 11940832c-2716,60700 35647,111589 76456,112396l14019 -17126c-1909,-57886 -45678,-107846 -90475,-95270z"/>
   <path class="fil0 str0" d="M13123709 3061786c-19132,-18202 -4012,-33371 -48834,-269 -44723,33029 -30729,42302 -30680,84016 43721,220 25004,13407 62193,-22166 37383,-35745 23805,-36381 17321,-61581z"/>
   <path class="fil0 str0" d="M12768122 11528973c8783,63366 53189,114402 95931,69630 -4967,-63318 -56614,-92286 -95931,-69630z"/>
   <polygon class="fil0 str0" points="12429930,6603104 12430761,6673224 12477124,6665199 12476904,6607263 "/>
   <path class="fil0 str0" d="M953021 12228379c56638,18007 192081,-251485 238909,-318032 39684,-56369 250604,-315537 211165,-365105 -32123,-40319 -102585,101852 -124776,135321l-292392 440411c-31365,47807 -56247,57446 -32906,107405z"/>
   <path class="fil0 str0" d="M1247052 3076270c-6166,-70511 -188290,-269125 -235069,-329066 -45335,-58107 -209134,-290558 -253833,-298069 -19598,75453 -8906,57495 94120,185256l311622 395271c38583,51672 35133,66034 83160,46608z"/>
   <path class="fil0 str0" d="M1363240 4820273l29922 -71489c-30925,-51427 -282997,-234163 -336773,-240891 -11499,93313 3548,61874 140826,162747 53580,39390 147921,72908 166025,149633z"/>
   <path class="fil0 str0" d="M1551530 1885783l27891 -19059c4477,-57054 -130966,-331831 -163212,-377093 -46705,22754 -35475,35647 -10667,92457 15340,35133 28845,70511 45776,104421 30558,61189 63513,154795 100212,199274z"/>
   <path class="fil0 str0" d="M377411 4087422c2960,-86047 -65055,-80298 -203654,-191789 -37139,-29873 -45629,-58938 -81007,-19132 636,61605 6900,48834 53409,79734 76358,50767 191740,160864 231252,131187z"/>
   <path class="fil0 str0" d="M31463 10598852c52700,25029 53116,-16612 151518,-92212 72198,-55464 124507,-89007 127614,-147040 -47440,-17444 -77753,15609 -158857,90989 -24271,22533 -42278,40173 -68089,61507 -40736,33665 -57226,27916 -52186,86756z"/>
   <path class="fil0 str0" d="M453549 8796008c-31855,-54510 -44455,-22411 -155554,24858 -27745,11817 -55758,22117 -83551,33151 -92017,36454 -60969,26325 -73814,71881 45776,29310 34888,19793 90499,-6582l152717 -64834c46730,-20527 50228,-8147 69703,-58474z"/>
   <path class="fil0 str0" d="M608418 7076740c-32515,-49788 954,-38925 -101607,-35916l-462210 35182c12698,79881 -23414,62730 251657,45629 87245,-5407 260904,9982 312160,-44895z"/>
   <path class="fil0 str0" d="M630584 5833505c-16098,-55269 -14973,-43672 -136275,-74695 -64565,-16539 -113619,-48614 -177720,-37457 9982,67428 -3425,50595 60847,69214l206003 65373c62485,4232 28967,-587 47145,-22435z"/>
   <path class="fil0 str0" d="M1079656 9721309l-32784 -46412 -183959 159151c-54413,46387 -45776,14875 -62095,97717 61923,12502 93068,-50816 148484,-93460 41494,-31928 94585,-68456 130354,-116996z"/>
   <path class="fil0 str0" d="M1636647 11237168c16955,-16735 35745,-36895 50718,-56199 33102,-42644 15144,-40760 43647,-77654 35573,-46094 94854,-79294 73178,-161989 -42180,-954 -79343,72125 -109485,117559 -29922,45115 -71563,89716 -86194,147749l28136 30534z"/>
   <path class="fil0 str0" d="M1000338 4500920c-1468,-59330 24417,-35622 -99161,-123553 -104934,-74645 -93998,-80175 -138159,-61776 5432,76896 46192,83624 100971,116506 53947,32393 81667,81692 136349,68823z"/>
   <path class="fil0 str0" d="M706062 2417599c14532,-74572 26105,-27157 -87588,-167738 -38852,-48052 -72958,-119688 -113229,-91185 74,62241 159420,259779 200817,258923z"/>
   <path class="fil0 str0" d="M1681787 3629126c-392,-67379 3449,-37898 -38779,-86952 -69850,-81129 -114207,-178772 -172020,-170258 2741,78413 46412,97521 87686,152300 42497,56492 68407,118880 123113,104910z"/>
   <path class="fil0 str0" d="M1178082 6043373l58278 -40711 -206443 -84359c-102684,-31291 -71220,-171 -86071,18717 43990,82695 172851,49935 234236,106353z"/>
   <path class="fil0 str0" d="M553908 10148630c45751,20087 207520,-121204 219386,-191201 -52920,-23854 -84505,27157 -130770,68847 -41446,37335 -96249,56419 -88616,122354z"/>
   <path class="fil0 str0" d="M1773069 2288566c4942,-13114 39733,1247 -9028,-92922 -56467,-108947 -65471,-198076 -126195,-200180 -6997,84310 36968,129620 81643,232524 28674,66131 16710,53140 53580,60578z"/>
   <path class="fil0 str0" d="M1325123 8443552l-50327 -35206c-36723,26496 -377998,153621 -417706,171212 -116801,51697 -89399,24368 -100359,75771 35769,42546 84260,2104 133535,-21310 51035,-24221 403344,-137865 434857,-190467z"/>
   <path class="fil0 str0" d="M791570 5854765c-102830,-81471 -104959,6239 -105032,6435 18203,32271 16147,36895 59403,44357 50400,8734 42081,-1664 45629,-50792z"/>
   <path class="fil0 str0" d="M604748 8704334c-107919,-20062 -100897,59844 -102022,63294 48,49 13382,36796 76749,4599 34154,-17371 32295,-21872 25273,-67893z"/>
   <g>
    <path class="fil0 str0" d="M2135066 12572077c-54338,-26986 -69801,81789 -99943,159542 -26839,69214 -78853,157731 -59134,230713 48125,-12110 54926,-69581 96616,-183861 21677,-59428 74939,-149071 62461,-206394z"/>
    <path class="fil0 str0" d="M2211669 12375395c-41323,-14900 -39365,-13823 -59012,35867 -13896,35109 -22875,60358 -1516,84481 37628,42448 62070,-83771 60528,-120348z"/>
   </g>
   <path class="fil0 str0" d="M1367449 3234442c2715,-60700 -35623,-111613 -76456,-112396l-13995 17101c1908,57911 45678,107846 90451,95295z"/>
   <path class="fil0 str0" d="M10698428 12269678l-27891 19059c-4477,57079 130942,331855 163212,377093 46706,-22753 35476,-35647 10667,-92457 -15340,-35108 -28845,-70486 -45775,-104396 -30558,-61189 -63514,-154820 -100213,-199299z"/>
   <g>
    <path class="fil0 str0" d="M9764295 12703874c-9835,54364 46755,251216 62095,326131 14582,71220 4820,82939 50351,90866 24050,-55537 -13726,-159322 -30167,-228144 -45996,-192449 -24784,-203801 -82279,-188853z"/>
    <path class="fil0 str0" d="M9741028 12360838l-60993 105742c41176,18202 29848,86291 60284,156141 80077,-22215 -7169,-134783 709,-261883z"/>
   </g>
   <g>
    <path class="fil0 str0" d="M4910259 13208704c12967,52969 -32026,255962 -42962,332467 -10398,72737 0,83233 -44920,96592 -27181,-52431 4453,-160399 16858,-230959 34668,-197317 12869,-206076 71024,-198100z"/>
    <path class="fil0 str0" d="M4913562 12864053l66914 98035c-39977,23095 -24735,89594 -51011,162845 -81105,-12502 -685,-135174 -15903,-260880z"/>
   </g>
   <g>
    <path class="fil0 str0" d="M6847861 13697362c-32124,35989 -24857,31732 -16759,215936 4306,98084 -5089,176986 17053,268097 41396,-29824 33591,-6434 30729,-104543l-5529 -315732c-11768,-92212 -7120,-42155 -25494,-63758z"/>
    <path class="fil0 str0" d="M6856596 12850107l-39953 -75918 -6704 320602c3597,157095 16466,104078 32173,121546 43402,-82964 -7829,-263791 14484,-366230z"/>
    <path class="fil0 str0" d="M6824178 13457375c-28919,168620 28479,151909 28625,151958 16686,-33861 20160,-31903 14949,-96787 -6068,-75600 -10863,-61116 -43574,-55171z"/>
   </g>
   <g>
    <path class="fil0 str0" d="M8994769 13538553c-36209,47611 -14777,66621 17102,233527 7951,41690 14924,83772 22362,125535 24612,138208 17737,91576 48149,111026 19352,-68602 13064,-52308 -4698,-135834l-43720 -229442c-13848,-70192 -5603,-75404 -39195,-104812z"/>
    <path class="fil0 str0" d="M8836940 12697905l-23267 75428c17762,55195 23658,99185 35500,158857 34839,175445 16539,134245 50840,150882 28209,-53556 1101,-126489 -14655,-200523 -16319,-76676 -13261,-137180 -48418,-184644z"/>
    <path class="fil0 str0" d="M8933164 13311314c-12991,161891 40222,151640 42522,153352 49,-98 24490,-19964 2813,-115185 -11694,-51330 -14679,-48541 -45335,-38167z"/>
   </g>
   <g>
    <path class="fil0 str0" d="M5794922 13607547c-54608,26423 -26448,119687 -45702,353459 -5163,62657 -20185,84872 17370,120299 38094,-22753 27891,-26986 30289,-103148 3988,-125021 30778,-325764 -1957,-370610z"/>
    <path class="fil0 str0" d="M5839450 12759828c-36381,23169 -30974,-21555 -41005,182858 -8514,173512 -15903,160178 11499,215496 45874,-34913 35304,-94414 35989,-182834 636,-87098 21286,-143443 -6483,-215520z"/>
    <path class="fil0 str0" d="M5805344 13369983c-36234,34791 -51941,115161 -8636,159127 37604,-29433 36943,-112079 8636,-159127z"/>
   </g>
   <g>
    <path class="fil0 str0" d="M7994872 13637347c-40100,39977 -20551,63073 -3670,234775 4233,42864 7413,85948 11108,128788 12208,141853 9517,94292 37946,119589 25249,-64125 17567,-49225 7340,-135516l-23120 -236023c-7511,-72272 1101,-75820 -29604,-111613z"/>
    <path class="fil0 str0" d="M7905180 12973489c-30705,35622 -25665,4966 -17200,93533l52480 395883c51745,-22900 42766,10985 14068,-225209 -9102,-74890 -9982,-227924 -49348,-264207z"/>
    <polygon class="fil0 str0" points="7905180,12812699 7859013,12823146 7870683,12891039 7908923,12883136 "/>
   </g>
   <g>
    <path class="fil0 str0" d="M2853483 13984151c19255,-17053 10863,2373 21751,-30778l57495 -336382c2715,-94659 -637,-41788 -19035,-73080 -41470,32638 -29237,40296 -54534,206737l-29555 166075c-2349,90401 1688,40540 23878,67428z"/>
    <path class="fil0 str0" d="M3061346 12768636c-34228,24050 -43598,46925 -62193,85068 14313,69801 -45261,178772 -20575,260831l32613 2471c20918,-65080 52699,-274606 50155,-348370z"/>
    <path class="fil0 str0" d="M2921425 13468972c40027,-7609 30754,17542 45140,-54828 8441,-42522 7878,-54926 -4013,-89080 -34007,5578 -28551,-14680 -43182,47366 -11132,47292 -11499,57544 2055,96542z"/>
   </g>
   <g>
    <path class="fil0 str0" d="M3880685 14017058c44772,-18864 26203,-172 53702,-190565 10839,-75135 35158,-169867 18227,-238690 -44503,12111 -31120,-19426 -45751,72982 -13578,85998 -50644,297554 -26178,356273z"/>
    <path class="fil0 str0" d="M4055885 13018286l-38730 -88689 -31389 165022c1125,76456 2226,32026 13016,59795 38117,-14924 19083,27011 36454,-60186 11352,-56859 -7218,-32173 20649,-75942z"/>
    <path class="fil0 str0" d="M3962621 13509414c18154,-24465 22215,-24735 27279,-71782 9249,-86145 3303,-50156 -20649,-79588 -19352,25029 -27377,21970 -31952,80493 -7169,92261 15315,55880 25322,70877z"/>
   </g>
   <path class="fil0 str0" d="M10559413 1997250l-28919 -15658c-7755,-56321 111271,-346437 140777,-395418 47880,17053 37433,31267 16001,90842 -13236,36845 -24662,73740 -39562,109558 -26912,64663 -54314,161915 -88297,210676z"/>
   <g>
    <path class="fil0 str0" d="M4540873 1288399c9835,-54363 -46779,-251216 -62095,-326130 -14581,-71221 -4820,-82940 -50375,-90867 -24026,55538 13750,159322 30191,228145 45996,192449 24784,203801 82279,188852z"/>
    <path class="fil0 str0" d="M4564140 1631436l60993 -105742c-41200,-18203 -29848,-86291 -60284,-156117 -80077,22215 7169,134758 -709,261859z"/>
   </g>
   <g>
    <path class="fil0 str0" d="M6562124 619721c-34081,-32001 -26595,-28625 -29212,-213171 -1395,-98255 -15341,-175739 1443,-269223 42987,24760 33861,2373 36674,100482l12821 315292c-6411,93313 -4649,42864 -21726,66620z"/>
    <path class="fil0 str0" d="M6619961 1462939l-35426 80493 -25249 -318693c-5530,-156973 10349,-105693 25004,-124996 48051,77459 7487,263816 35671,363196z"/>
    <path class="fil0 str0" d="M6552435 861714c-38582,-164533 19573,-154796 19720,-154869 18594,31732 21946,29359 20502,94658 -1663,76065 -7291,62217 -40222,60211z"/>
   </g>
   <g>
    <path class="fil0 str0" d="M8694988 755507c-38827,-43084 -18569,-64614 3499,-234775 5529,-42497 10031,-85263 15022,-127785 16515,-140703 12380,-93411 41543,-116433 23267,66033 16050,50546 3205,135932l-30289 233894c-9713,71612 -1198,75820 -32980,109167z"/>
    <path class="fil0 str0" d="M8586458 1612230l-27573 -72346c14508,-57152 17835,-101704 26178,-162600 24564,-179017 8710,-135761 41910,-156460 31219,49960 8441,125902 -2985,201551 -11792,78388 -5235,138330 -37530,189855z"/>
    <path class="fil0 str0" d="M8646791 989377c-22338,-159762 31291,-155946 33493,-157952 25,98 25543,16955 9469,114452 -8686,52552 -11817,50155 -42962,43500z"/>
   </g>
   <g>
    <path class="fil0 str0" d="M5518066 600858c-55929,-19744 -33274,-116066 -66034,-346731 -8759,-61800 -25028,-82132 10349,-121962 39268,18105 29359,23561 36185,99136 11206,124115 49519,320944 19500,369557z"/>
    <path class="fil0 str0" d="M5611599 1440259c-37604,-18692 -29628,25224 -51476,-177280 -18546,-171897 -25127,-157707 -1028,-216132 47733,29262 40662,89815 46461,177867 5676,86708 29530,140386 6043,215545z"/>
    <path class="fil0 str0" d="M5542238 836343c-38142,-30314 -58449,-108482 -17836,-157536 39170,24808 43305,107234 17836,157536z"/>
   </g>
   <g>
    <path class="fil0 str0" d="M7722224 540574c-42277,-35035 -24099,-60406 -17249,-233527 1713,-43231 2398,-86536 3597,-129694 3939,-142807 4012,-95074 30900,-123724 28870,60847 20356,46926 15145,134147l-9346 237980c-3303,72933 5505,75428 -23047,114818z"/>
    <path class="fil0 str0" d="M7671359 1212897c-32686,-31805 -25885,-1859 -22557,-91135l29334 -400825c52896,16588 41959,-16099 27060,222713 -4722,75747 3278,228340 -33837,269247z"/>
    <polygon class="fil0 str0" points="7680681,1373100 7634049,1368280 7641755,1299213 7680314,1302492 "/>
   </g>
   <g>
    <path class="fil0 str0" d="M2452169 949400c21310,10471 10276,-5799 25763,23071l105448 309959c16539,91527 5505,41004 -7854,77459 -45262,-18594 -34472,-29971 -83551,-184375l-53189 -152643c-15584,-87490 -4330,-40100 13383,-73471z"/>
    <path class="fil0 str0" d="M2833348 2069424c-36944,-12526 -49421,-31830 -73178,-63122 3719,-72737 -70412,-160031 -58351,-248059l31463 -12845c29996,56834 91723,251191 100066,324026z"/>
    <path class="fil0 str0" d="M2594047 1430546c40197,-5382 27451,-26961 52112,39097 14484,38778 15756,51085 9151,88224 -34008,5456 -25739,23487 -49103,-32418 -17812,-42595 -19671,-52479 -12160,-94903z"/>
   </g>
   <g>
    <path class="fil0 str0" d="M3391905 717316c45702,13407 26129,-2985 64565,183421 15169,73569 44871,165047 32002,235656 -45067,-6680 -29898,23120 -49813,-67208 -18521,-84041 -67722,-290411 -46754,-351869z"/>
    <path class="fil0 str0" d="M3624404 1691500l-33469 93043 -40834 -160667c-3303,-76334 367,-32197 9518,-61165 38827,10276 17419,-29212 39806,55587 14606,55293 -5334,32931 24979,73202z"/>
    <path class="fil0 str0" d="M3502980 1213313c19524,22191 23561,21995 31341,68236 14239,84725 6214,49592 -15952,81814 -20747,-22607 -28552,-18594 -36503,-76358 -12502,-91087 12037,-57544 21114,-73692z"/>
   </g>
   <path class="fil0 str0" d="M1522929 11384159c-50546,-26448 -89741,40564 -79930,107332 33103,367 18766,19205 54779,-32931 31366,-45409 24002,-28674 25151,-74401z"/>
   <path class="fil0 str0" d="M354878 10319598c19132,18178 4012,33372 48834,269 44724,-33029 30729,-42326 30680,-84016 -43720,-220 -25004,-13431 -62192,22166 -37384,35721 -23805,36381 -17322,61581z"/>
   <path class="fil0 str0" d="M632909 4232602c-8784,-63342 -53189,-114378 -95931,-69605 4966,63318 56614,92285 95931,69605z"/>
   <polygon class="fil0 str0" points="975309,7083150 980055,7012688 716509,7033827 709854,7092178 "/>
  </g>
 </g>
</svg>
